<svg width="32" height="32" viewBox="0 0 32 32" fill="none" xmlns="http://www.w3.org/2000/svg">
<path d="M23.6332 3.33334C25.4858 3.53842 26.7329 4.00192 27.6637 5.04941C29.3332 6.92824 29.3332 9.95216 29.3332 16C29.3332 22.0479 29.3332 25.0717 27.6637 26.9507C26.7329 27.9981 25.4858 28.4616 23.6332 28.6667M8.36652 28.6667C6.51385 28.4616 5.26678 27.9981 4.336 26.9507C2.6665 25.0717 2.6665 22.0479 2.6665 16C2.6665 9.95216 2.6665 6.92824 4.336 5.04941C5.26678 4.00192 6.51385 3.53842 8.36652 3.33334" stroke="#754ABC" stroke-width="1.5" stroke-linecap="round" stroke-linejoin="round"/>
<path d="M10.0806 10.6803C12.1206 10.6003 13.4005 10.7203 14.2005 12.1203C15.0405 13.8004 17.1205 18.4804 17.6405 19.5604C18.2005 20.7204 18.9205 21.5204 21.8805 21.3204" stroke="#754ABC" stroke-width="1.5" stroke-linecap="round"/>
<path d="M22.6662 10.6667C19.7329 10.6476 17.3329 14.2667 15.9996 16C14.5329 18 12.0129 21.4667 9.34619 21.3333" stroke="#754ABC" stroke-width="1.5" stroke-linecap="round"/>
</svg>
