<svg width="32" height="32" viewBox="0 0 32 32" fill="none" xmlns="http://www.w3.org/2000/svg">
<path d="M3.3335 16C3.3335 10.0289 3.3335 7.0433 5.18848 5.1883C7.04348 3.33331 10.029 3.33331 16.0002 3.33331C21.9712 3.33331 24.9568 3.33331 26.8119 5.1883C28.6668 7.0433 28.6668 10.0289 28.6668 16C28.6668 21.971 28.6668 24.9566 26.8119 26.8117C24.9568 28.6666 21.9712 28.6666 16.0002 28.6666C10.029 28.6666 7.04348 28.6666 5.18848 26.8117C3.3335 24.9566 3.3335 21.971 3.3335 16Z" stroke="#754ABC" stroke-width="1.5" stroke-linejoin="round"/>
<path d="M14.6668 9.99998H22.6668M10.6668 9.99998C10.6668 10.3682 10.3683 10.6666 10.0002 10.6666C9.63198 10.6666 9.3335 10.3682 9.3335 9.99998C9.3335 9.63179 9.63198 9.33331 10.0002 9.33331C10.3683 9.33331 10.6668 9.63179 10.6668 9.99998Z" stroke="#754ABC" stroke-width="1.5" stroke-linecap="round" stroke-linejoin="round"/>
<path d="M14.6668 16H22.6668M10.6668 16C10.6668 16.3681 10.3683 16.6666 10.0002 16.6666C9.63198 16.6666 9.3335 16.3681 9.3335 16C9.3335 15.6318 9.63198 15.3333 10.0002 15.3333C10.3683 15.3333 10.6668 15.6318 10.6668 16Z" stroke="#754ABC" stroke-width="1.5" stroke-linecap="round" stroke-linejoin="round"/>
<path d="M14.6668 22H22.6668M10.6668 22C10.6668 22.3681 10.3683 22.6666 10.0002 22.6666C9.63198 22.6666 9.3335 22.3681 9.3335 22C9.3335 21.6318 9.63198 21.3333 10.0002 21.3333C10.3683 21.3333 10.6668 21.6318 10.6668 22Z" stroke="#754ABC" stroke-width="1.5" stroke-linecap="round" stroke-linejoin="round"/>
</svg>
