<svg width="24" height="24" viewBox="0 0 24 24" fill="none" xmlns="http://www.w3.org/2000/svg">
<path d="M4.50228 7.9888L11.9993 15.2968L19.4963 7.9888C19.6302 7.85796 19.81 7.7847 19.9973 7.7847C20.1845 7.7847 20.3643 7.85796 20.4983 7.9888C20.5631 8.05235 20.6147 8.1282 20.6498 8.21191C20.685 8.29561 20.7031 8.3855 20.7031 8.4763C20.7031 8.5671 20.685 8.65699 20.6498 8.7407C20.6147 8.82441 20.5631 8.90025 20.4983 8.9638L12.5228 16.7398C12.3827 16.8763 12.1949 16.9527 11.9993 16.9527C11.8037 16.9527 11.6158 16.8763 11.4758 16.7398L3.50027 8.9653C3.43496 8.90171 3.38305 8.82567 3.3476 8.74168C3.31215 8.6577 3.29389 8.56746 3.29389 8.4763C3.29389 8.38514 3.31215 8.2949 3.3476 8.21091C3.38305 8.12693 3.43496 8.05089 3.50027 7.9873C3.63422 7.85645 3.81403 7.7832 4.00128 7.7832C4.18852 7.7832 4.36833 7.85645 4.50228 7.9873L4.50228 7.9888Z" fill="#1A1A1A"/>
</svg>
