<svg width="58" height="58" viewBox="0 0 58 58" fill="none" xmlns="http://www.w3.org/2000/svg">
<path fill-rule="evenodd" clip-rule="evenodd" d="M43.8398 58L14.1602 58C6.36097 58 3.2586e-06 51.639 2.57678e-06 43.8398L-1.79039e-08 14.1602C-6.9973e-07 6.36097 6.36097 6.9973e-07 14.1602 1.79033e-08L43.8398 -2.57678e-06C51.639 -3.2586e-06 58 6.36097 58 14.1602L58 43.8398C58 51.639 51.639 58 43.8398 58ZM14.6629 40.6819C13.9616 40.6865 13.2906 40.9683 12.7964 41.4658C12.3021 41.9633 12.0247 42.6361 12.0247 43.3374C12.0247 44.0387 12.3021 44.7115 12.7964 45.209C13.2906 45.7065 13.9616 45.9883 14.6629 45.9929L43.3372 45.9929C44.0414 45.9926 44.7166 45.7127 45.2144 45.2148C45.7123 44.7168 45.992 44.0416 45.9922 43.3374L45.9922 14.6626C45.9945 14.3124 45.9275 13.9653 45.7951 13.6412C45.6627 13.3171 45.4675 13.0223 45.2207 12.7739C44.9739 12.5255 44.6805 12.3284 44.3572 12.1939C44.034 12.0594 43.6873 11.9901 43.3372 11.9901C42.987 11.9901 42.6404 12.0594 42.3171 12.1939C41.9938 12.3284 41.7004 12.5255 41.4536 12.7739C41.2068 13.0223 41.0116 13.3171 40.8792 13.6412C40.7468 13.9653 40.6798 14.3124 40.6821 14.6626L40.6821 36.9273L16.5397 12.7871C16.2936 12.5387 16.0008 12.3414 15.6782 12.2065C15.3556 12.0715 15.0096 12.0017 14.6599 12.0009C14.3102 12.0001 13.9638 12.0684 13.6406 12.2018C13.3174 12.3352 13.0237 12.5312 12.7764 12.7785C12.5292 13.0257 12.3332 13.3194 12.1997 13.6426C12.0662 13.9658 11.9979 14.3122 11.9987 14.6619C11.9995 15.0115 12.0693 15.3576 12.2042 15.6802C12.3391 16.0028 12.5364 16.2956 12.7848 16.5418L36.9271 40.682L14.6629 40.6819Z" fill="#AEAEAE" fill-opacity="0.3"/>
</svg>
