<svg width="24" height="24" viewBox="0 0 24 24" fill="none" xmlns="http://www.w3.org/2000/svg">
<path d="M6 19.9984C8.20914 19.9984 10 18.211 10 16.0061C10 13.8012 8.20914 12.0137 6 12.0137C3.79086 12.0137 2 13.8012 2 16.0061C2 18.211 3.79086 19.9984 6 19.9984Z" stroke="#1A1A1A" stroke-linecap="round" stroke-linejoin="round"/>
<path d="M18 19.9984C20.2091 19.9984 22 18.211 22 16.0061C22 13.8012 20.2091 12.0137 18 12.0137C15.7909 12.0137 14 13.8012 14 16.0061C14 18.211 15.7909 19.9984 18 19.9984Z" stroke="#1A1A1A" stroke-linecap="round" stroke-linejoin="round"/>
<path d="M6 16.0062H10.3706C10.7302 16.0062 11.0622 15.8135 11.2399 15.5014L15.5 8.02148" stroke="#1A1A1A" stroke-linecap="round" stroke-linejoin="round"/>
<path d="M12 13.012L7 7.02344M7 7.02344H5M7 7.02344H9" stroke="#1A1A1A" stroke-linecap="round" stroke-linejoin="round"/>
<path d="M18.0531 15.9709L14.8057 4.03097C16.2565 3.96037 19.3585 3.83085 19.9908 6.21002" stroke="#1A1A1A" stroke-linecap="round" stroke-linejoin="round"/>
</svg>
