<svg width="34" height="34" viewBox="0 0 34 34" fill="none" xmlns="http://www.w3.org/2000/svg">
<path d="M8.49984 5.66669H14.1665M5.6665 14.1667V8.50002M16.9998 8.50002V14.1667M8.49984 17H14.1665M19.8332 17H25.4998M28.3332 19.8334V25.5M16.9998 19.8334V25.5M19.8332 28.3334H25.4998" stroke="#754ABC" stroke-width="1.5" stroke-linecap="round" stroke-linejoin="round"/>
<path d="M5.66683 8.49998C7.23164 8.49998 8.50016 7.23145 8.50016 5.66665C8.50016 4.10184 7.23164 2.83331 5.66683 2.83331C4.10202 2.83331 2.8335 4.10184 2.8335 5.66665C2.8335 7.23145 4.10202 8.49998 5.66683 8.49998Z" stroke="#754ABC" stroke-width="1.5" stroke-linecap="round" stroke-linejoin="round"/>
<path d="M5.66683 19.8334C7.23164 19.8334 8.50016 18.5648 8.50016 17C8.50016 15.4352 7.23164 14.1667 5.66683 14.1667C4.10202 14.1667 2.8335 15.4352 2.8335 17C2.8335 18.5648 4.10202 19.8334 5.66683 19.8334Z" stroke="#754ABC" stroke-width="1.5" stroke-linecap="round" stroke-linejoin="round"/>
<path d="M16.9998 8.49998C18.5646 8.49998 19.8332 7.23145 19.8332 5.66665C19.8332 4.10184 18.5646 2.83331 16.9998 2.83331C15.435 2.83331 14.1665 4.10184 14.1665 5.66665C14.1665 7.23145 15.435 8.49998 16.9998 8.49998Z" stroke="#754ABC" stroke-width="1.5" stroke-linecap="round" stroke-linejoin="round"/>
<path d="M16.9998 19.8334C18.5646 19.8334 19.8332 18.5648 19.8332 17C19.8332 15.4352 18.5646 14.1667 16.9998 14.1667C15.435 14.1667 14.1665 15.4352 14.1665 17C14.1665 18.5648 15.435 19.8334 16.9998 19.8334Z" stroke="#754ABC" stroke-width="1.5" stroke-linecap="round" stroke-linejoin="round"/>
<path d="M28.3333 19.8334C29.8981 19.8334 31.1667 18.5648 31.1667 17C31.1667 15.4352 29.8981 14.1667 28.3333 14.1667C26.7685 14.1667 25.5 15.4352 25.5 17C25.5 18.5648 26.7685 19.8334 28.3333 19.8334Z" stroke="#754ABC" stroke-width="1.5" stroke-linecap="round" stroke-linejoin="round"/>
<path d="M16.9998 31.1667C18.5646 31.1667 19.8332 29.8981 19.8332 28.3333C19.8332 26.7685 18.5646 25.5 16.9998 25.5C15.435 25.5 14.1665 26.7685 14.1665 28.3333C14.1665 29.8981 15.435 31.1667 16.9998 31.1667Z" stroke="#754ABC" stroke-width="1.5" stroke-linecap="round" stroke-linejoin="round"/>
<path d="M28.3333 31.1667C29.8981 31.1667 31.1667 29.8981 31.1667 28.3333C31.1667 26.7685 29.8981 25.5 28.3333 25.5C26.7685 25.5 25.5 26.7685 25.5 28.3333C25.5 29.8981 26.7685 31.1667 28.3333 31.1667Z" stroke="#754ABC" stroke-width="1.5" stroke-linecap="round" stroke-linejoin="round"/>
</svg>
