<svg width="32" height="32" viewBox="0 0 32 32" fill="none" xmlns="http://www.w3.org/2000/svg">
<path d="M3.3335 16L6.00016 17.3333" stroke="#754ABC" stroke-width="1.5" stroke-linecap="round" stroke-linejoin="round"/>
<path d="M28.6667 16.6666L26 17.3333" stroke="#754ABC" stroke-width="1.5" stroke-linecap="round" stroke-linejoin="round"/>
<path d="M10.6665 23.3333L10.9941 22.5144C11.4812 21.2967 11.7247 20.6877 12.2327 20.3439C12.7405 20 13.3964 20 14.708 20H17.2917C18.6033 20 19.2592 20 19.767 20.3439C20.2749 20.6877 20.5185 21.2967 21.0056 22.5144L21.3332 23.3333" stroke="#754ABC" stroke-width="1.5" stroke-linecap="round" stroke-linejoin="round"/>
<path d="M2.6665 22.6666V26.5093C2.6665 27.0142 2.9875 27.476 3.49568 27.7018C3.82541 27.8484 4.14034 28 4.52061 28H6.8124C7.19266 28 7.5076 27.8484 7.83733 27.7018C8.3455 27.476 8.6665 27.0142 8.6665 26.5093V24" stroke="#754ABC" stroke-width="1.5" stroke-linecap="round" stroke-linejoin="round"/>
<path d="M23.3335 24V26.5093C23.3335 27.0142 23.6546 27.476 24.1627 27.7018C24.4924 27.8484 24.8074 28 25.1876 28H27.4794C27.8596 28 28.1746 27.8484 28.5043 27.7018C29.0124 27.476 29.3335 27.0142 29.3335 26.5093V22.6666" stroke="#754ABC" stroke-width="1.5" stroke-linecap="round" stroke-linejoin="round"/>
<path d="M26.6665 11.3333L27.9998 10.6666" stroke="#754ABC" stroke-width="1.5" stroke-linecap="round" stroke-linejoin="round"/>
<path d="M5.33333 11.3333L4 10.6666" stroke="#754ABC" stroke-width="1.5" stroke-linecap="round" stroke-linejoin="round"/>
<path d="M6 12L7.45107 7.64679C8.03776 5.88673 8.33109 5.00671 9.02947 4.50336C9.72783 4 10.6555 4 12.5107 4H19.4893C21.3445 4 22.2721 4 22.9705 4.50336C23.6689 5.00671 23.9623 5.88673 24.5489 7.64679L26 12" stroke="#754ABC" stroke-width="1.5" stroke-linejoin="round"/>
<path d="M5.99984 12H25.9998C27.2761 13.3513 29.3332 15.2332 29.3332 17.3328V21.9603C29.3332 22.7209 28.8272 23.3611 28.1556 23.45L23.9998 24H7.99984L3.84405 23.45C3.17257 23.3611 2.6665 22.7209 2.6665 21.9603V17.3328C2.6665 15.2332 4.72356 13.3513 5.99984 12Z" stroke="#754ABC" stroke-width="1.5" stroke-linejoin="round"/>
</svg>
