<svg width="36" height="36" viewBox="0 0 36 36" fill="none" xmlns="http://www.w3.org/2000/svg">
<path d="M4.52475 1.22555C4.08468 0.800515 3.49527 0.565329 2.88348 0.570645C2.27169 0.575961 1.68646 0.821356 1.25384 1.25397C0.821219 1.68659 0.575824 2.27182 0.570508 2.88362C0.565192 3.49541 0.800378 4.08481 1.22541 4.52488L14.7004 17.9999L1.22308 31.4749C1.00022 31.6901 0.822465 31.9476 0.700177 32.2323C0.577889 32.517 0.513523 32.8231 0.51083 33.1329C0.508138 33.4428 0.567175 33.75 0.684497 34.0368C0.801819 34.3235 0.975076 34.5841 1.19416 34.8031C1.41324 35.0222 1.67376 35.1955 1.96052 35.3128C2.24728 35.4301 2.55453 35.4892 2.86435 35.4865C3.17417 35.4838 3.48035 35.4194 3.76502 35.2971C4.0497 35.1748 4.30717 34.9971 4.52241 34.7742L17.9997 21.2992L31.4747 34.7742C31.9148 35.1992 32.5042 35.4344 33.116 35.4291C33.7278 35.4238 34.313 35.1784 34.7457 34.7458C35.1783 34.3132 35.4237 33.7279 35.429 33.1162C35.4343 32.5044 35.1991 31.915 34.7741 31.4749L21.2991 17.9999L34.7741 4.52488C35.1991 4.08481 35.4343 3.49541 35.429 2.88362C35.4237 2.27182 35.1783 1.68659 34.7457 1.25397C34.313 0.821356 33.7278 0.575961 33.116 0.570645C32.5042 0.565329 31.9148 0.800515 31.4747 1.22555L17.9997 14.7006L4.52475 1.22555Z" fill="white"/>
</svg>
