<svg width="12" height="12" viewBox="0 0 12 12" fill="none" xmlns="http://www.w3.org/2000/svg">
<path d="M1.37945 0.225583C1.22821 0.0795156 1.02566 -0.0013084 0.815412 0.000518594C0.605164 0.00234559 0.404045 0.0866777 0.255372 0.235351C0.106698 0.384025 0.022366 0.585144 0.020539 0.795392C0.018712 1.00564 0.0995361 1.20819 0.245603 1.35943L4.87641 5.99023L0.244802 10.621C0.168215 10.695 0.107126 10.7835 0.065101 10.8813C0.0230758 10.9792 0.000955488 11.0844 3.02763e-05 11.1908C-0.000894936 11.2973 0.0193936 11.4029 0.0597124 11.5015C0.100031 11.6 0.159573 11.6895 0.234862 11.7648C0.310152 11.8401 0.399683 11.8997 0.49823 11.94C0.596777 11.9803 0.702367 12.0006 0.808839 11.9997C0.91531 11.9987 1.02053 11.9766 1.11836 11.9346C1.2162 11.8926 1.30468 11.8315 1.37865 11.7549L6.01025 7.12408L10.6411 11.7549C10.7923 11.901 10.9948 11.9818 11.2051 11.9799C11.4153 11.9781 11.6165 11.8938 11.7651 11.7451C11.9138 11.5964 11.9981 11.3953 12 11.1851C12.0018 10.9748 11.921 10.7723 11.7749 10.621L7.1441 5.99023L11.7749 1.35943C11.921 1.20819 12.0018 1.00564 12 0.795392C11.9981 0.585144 11.9138 0.384025 11.7651 0.235351C11.6165 0.0866777 11.4153 0.00234559 11.2051 0.000518594C10.9948 -0.0013084 10.7923 0.0795156 10.6411 0.225583L6.01025 4.85639L1.37945 0.225583Z" fill="#1A1A1A" fill-opacity="0.6"/>
</svg>
