<svg width="24" height="24" viewBox="0 0 24 24" fill="none" xmlns="http://www.w3.org/2000/svg">
<path fill-rule="evenodd" clip-rule="evenodd" d="M11.9565 1.85681C9.92607 1.86812 7.98123 2.67959 6.54464 4.11618C5.09792 5.5629 4.28516 7.52509 4.28516 9.57106C4.28516 10.6335 4.64359 11.7644 5.10892 12.805C5.58119 13.8611 6.20207 14.9076 6.80883 15.8232C7.41754 16.7417 8.02432 17.5468 8.47815 18.1217C8.68908 18.3888 8.86787 18.6074 8.99966 18.7657V22.1428H14.9994V18.765C15.1312 18.6067 15.31 18.3882 15.5209 18.1211C15.9747 17.5463 16.5815 16.7413 17.1902 15.8229C17.797 14.9074 18.4179 13.8609 18.8901 12.8049C19.3555 11.7644 19.7139 10.6335 19.7139 9.57106C19.7139 7.52509 18.9011 5.5629 17.4544 4.11618C16.0182 2.68001 14.0741 1.86858 12.0443 1.85682C12.0296 1.85657 12.0148 1.85645 12 1.85645C11.9855 1.85645 11.971 1.85657 11.9565 1.85681ZM10 9.57045C10 8.23652 10.2365 6.68202 10.6852 5.49604C10.9103 4.90115 11.1664 4.4592 11.4222 4.18207C11.6585 3.92607 11.8422 3.86127 11.9834 3.85671L11.9995 3.85669L12.0172 3.85672C12.1644 3.86137 12.3489 3.92754 12.5825 4.17709C12.8363 4.44829 13.0912 4.88245 13.3156 5.47149C13.763 6.646 14 8.19928 14 9.5712C14 10.7802 13.6635 12.1253 13.3015 13.2088C13.1384 13.697 12.9752 14.1174 12.8466 14.4286H11.1536C11.025 14.1174 10.8617 13.6968 10.6985 13.2083C10.3365 12.125 10 10.7799 10 9.57045ZM8.28656 14.4286C7.78229 13.646 7.30075 12.8071 6.93467 11.9885C6.51604 11.0524 6.28516 10.2228 6.28516 9.57106C6.28516 8.05552 6.8872 6.60204 7.95886 5.53039C8.21704 5.27221 8.49739 5.04128 8.79542 4.83947C8.25729 6.28718 8 8.0654 8 9.57045C8 11.097 8.41349 12.6807 8.80154 13.8421C8.87086 14.0496 8.94016 14.2459 9.00733 14.4286H8.28656ZM15.2183 4.84941C15.7478 6.28427 16 8.04633 16 9.5712C16 11.0974 15.5865 12.6811 15.1985 13.8425C15.1292 14.0498 15.06 14.246 14.9929 14.4286H15.7123C16.2166 13.646 16.6983 12.8071 17.0644 11.9884C17.483 11.0523 17.7139 10.2228 17.7139 9.57106C17.7139 8.05552 17.1119 6.60204 16.0402 5.53039C15.7863 5.27644 15.5109 5.04886 15.2183 4.84941ZM14.3028 16.4286C14.1781 16.5921 14.0601 16.7437 13.9512 16.8817C13.7882 17.0881 13.6462 17.263 13.5331 17.4001H10.4654C10.3524 17.2631 10.2106 17.0884 10.0479 16.8823C9.93885 16.7442 9.82071 16.5924 9.69581 16.4286H14.3028ZM12.9994 19.4001V20.1428H10.9997V19.4001H12.9994Z" fill="white"/>
</svg>
