<svg width="20" height="20" viewBox="0 0 20 20" fill="none" xmlns="http://www.w3.org/2000/svg">
<path d="M4.16406 10.8327C4.16406 10.3907 4.33966 9.96673 4.65222 9.65417C4.96478 9.34161 5.3887 9.16602 5.83073 9.16602H14.1641C14.6061 9.16602 15.03 9.34161 15.3426 9.65417C15.6551 9.96673 15.8307 10.3907 15.8307 10.8327V15.8327C15.8307 16.2747 15.6551 16.6986 15.3426 17.0112C15.03 17.3238 14.6061 17.4993 14.1641 17.4993H5.83073C5.3887 17.4993 4.96478 17.3238 4.65222 17.0112C4.33966 16.6986 4.16406 16.2747 4.16406 15.8327V10.8327Z" fill="#A7A7A7" stroke="#A7A7A7" stroke-width="2" stroke-linecap="round" stroke-linejoin="round"/>
<path d="M9.99707 12C10.3507 12 10.6904 12.1406 10.9404 12.3906C11.1903 12.6406 11.331 12.9796 11.3311 13.333C11.3311 13.6866 11.1905 14.0263 10.9404 14.2764C10.6904 14.5264 10.3507 14.667 9.99707 14.667C9.64364 14.6669 9.30464 14.5262 9.05469 14.2764C8.80464 14.0263 8.66406 13.6866 8.66406 13.333C8.66415 12.9795 8.80472 12.6406 9.05469 12.3906C9.30466 12.1407 9.64357 12.0001 9.99707 12Z" fill="#F6F6F6" stroke="#F6F6F6" stroke-linecap="round" stroke-linejoin="round"/>
<path d="M6.66406 9.16667V5.83333C6.66406 4.94928 7.01525 4.10143 7.64037 3.47631C8.26549 2.85119 9.11334 2.5 9.9974 2.5C10.8815 2.5 11.7293 2.85119 12.3544 3.47631C12.9795 4.10143 13.3307 4.94928 13.3307 5.83333V9.16667" stroke="#A7A7A7" stroke-width="2" stroke-linecap="round" stroke-linejoin="round"/>
</svg>
