<svg width="35" height="31" viewBox="0 0 35 31" fill="none" xmlns="http://www.w3.org/2000/svg">
<path d="M30.1176 2.96059C29.7294 1.81529 28.9724 1 27.6912 1H7.30882C6.02765 1 5.29 1.81529 4.88235 2.96059L1 14.1029V28.6618C1 29.7294 1.38824 30.1176 2.45588 30.1176H3.42647C4.49412 30.1176 4.88235 29.7294 4.88235 28.6618V26.2353H30.1176V28.6618C30.1176 29.7294 30.5059 30.1176 31.5735 30.1176H32.5441C33.6118 30.1176 34 29.7294 34 28.6618V14.1029L30.1176 2.96059Z" stroke="#754ABC" stroke-width="1.5"/>
<path d="M6.82399 20.4116C6.30916 20.4116 5.81541 20.2071 5.45137 19.8431C5.08733 19.4791 4.88281 18.9853 4.88281 18.4705C4.88281 17.9556 5.08733 17.4619 5.45137 17.0979C5.81541 16.7338 6.30916 16.5293 6.82399 16.5293C7.33882 16.5293 7.83257 16.7338 8.19661 17.0979C8.56065 17.4619 8.76517 17.9556 8.76517 18.4705C8.76517 18.9853 8.56065 19.4791 8.19661 19.8431C7.83257 20.2071 7.33882 20.4116 6.82399 20.4116ZM28.1769 20.4116C27.6621 20.4116 27.1684 20.2071 26.8043 19.8431C26.4403 19.4791 26.2358 18.9853 26.2358 18.4705C26.2358 17.9556 26.4403 17.4619 26.8043 17.0979C27.1684 16.7338 27.6621 16.5293 28.1769 16.5293C28.6918 16.5293 29.1855 16.7338 29.5496 17.0979C29.9136 17.4619 30.1181 17.9556 30.1181 18.4705C30.1181 18.9853 29.9136 19.4791 29.5496 19.8431C29.1855 20.2071 28.6918 20.4116 28.1769 20.4116Z" stroke="#754ABC" stroke-width="1.5"/>
<path d="M5.36719 10.706L7.79366 3.91187H27.2054L29.6319 10.706H5.36719Z" stroke="#754ABC" stroke-width="1.5" stroke-linejoin="round"/>
</svg>
