<svg width="21" height="20" viewBox="0 0 21 20" fill="none" xmlns="http://www.w3.org/2000/svg">
<path d="M17.7917 11.198V16.6668C17.7917 17.0695 17.4652 17.3959 17.0625 17.3959H16.3333C15.9306 17.3959 15.6042 17.0695 15.6042 16.6668V15.9376H5.39583V16.6668C5.39583 17.0695 5.06937 17.3959 4.66667 17.3959H3.9375C3.5348 17.3959 3.20833 17.0695 3.20833 16.6668V11.198L2.30232 10.9715C1.97772 10.8904 1.75 10.5987 1.75 10.2641V9.73969C1.75 9.53836 1.91323 9.3751 2.11458 9.3751H3.48177L5.04098 5.21721C5.25443 4.64802 5.79856 4.27094 6.40646 4.27094H14.5935C15.2014 4.27094 15.7456 4.64802 15.9591 5.21721L17.5182 9.3751H18.8854C19.0867 9.3751 19.25 9.53836 19.25 9.73969V10.2641C19.25 10.5987 19.0223 10.8904 18.6977 10.9715L17.7917 11.198ZM4.66667 12.2918V13.7501C4.66667 14.1528 4.99313 14.4793 5.39583 14.4793H7.76195C7.82192 14.4793 7.88096 14.4645 7.93384 14.4362C8.11138 14.3412 8.17835 14.1204 8.08341 13.9428C7.49483 12.8421 6.35594 12.2918 4.66667 12.2918ZM16.3333 12.2918C14.6441 12.2918 13.5051 12.8421 12.9165 13.9428C12.8216 14.1204 12.8886 14.3412 13.0662 14.4362C13.119 14.4645 13.1781 14.4793 13.238 14.4793H15.6042C16.0069 14.4793 16.3333 14.1528 16.3333 13.7501V12.2918ZM6.125 5.72927L4.98658 9.14454C4.9618 9.21884 4.94917 9.29672 4.94917 9.3751C4.94917 9.77782 5.27562 10.1043 5.67833 10.1043H15.3217C15.4001 10.1043 15.4779 10.0917 15.5522 10.0669C15.9343 9.93948 16.1408 9.52655 16.0134 9.14454L14.875 5.72927H6.125Z" fill="white"/>
</svg>
