<svg width="16" height="16" viewBox="0 0 16 16" fill="none" xmlns="http://www.w3.org/2000/svg">
<path d="M1.33691 6.33333V2.66667C1.33691 2.29848 1.63539 2 2.00358 2H14.0036C14.3718 2 14.6703 2.29848 14.6703 2.66667V6.33333C13.7498 6.33333 13.0036 7.07956 13.0036 8.00003C13.0036 8.92049 13.7498 9.66669 14.6703 9.66669V13.3334C14.6703 13.7015 14.3718 14 14.0036 14H2.00358C1.63539 14 1.33691 13.7015 1.33691 13.3334V9.66669C2.25739 9.66669 3.00358 8.92049 3.00358 8.00003C3.00358 7.07956 2.25739 6.33333 1.33691 6.33333ZM6.00358 6V7.33336H10.0036V6H6.00358ZM6.00358 8.66669V10H10.0036V8.66669H6.00358Z" fill="white"/>
</svg>
