<svg width="20" height="20" viewBox="0 0 20 20" fill="none" xmlns="http://www.w3.org/2000/svg">
<path d="M10.4528 4.46918C12.4024 2.46367 15.5746 2.46367 17.5247 4.46918C19.4344 6.43397 19.4468 9.54839 17.5534 11.7135C15.8259 13.6881 10.7317 17.9535 10.5157 18.134C10.3642 18.2607 10.1813 18.3248 9.99974 18.3161C9.99421 18.3164 9.98846 18.3164 9.98263 18.3164C9.80714 18.3164 9.63061 18.2566 9.48388 18.134C9.26774 17.9535 4.1742 13.6881 2.44713 11.7138C0.55356 9.54839 0.565963 6.43397 2.47589 4.46918C4.4254 2.4634 7.59798 2.4634 9.54745 4.46918L10 4.93473L10.4528 4.46918Z" stroke="white" stroke-width="1.26004"/>
</svg>
