<svg width="34" height="34" viewBox="0 0 34 34" fill="none" xmlns="http://www.w3.org/2000/svg">
<path fill-rule="evenodd" clip-rule="evenodd" d="M12.9326 22.6402C13.0569 22.604 13.1876 22.6036 13.312 22.6389C13.4365 22.6743 13.5506 22.7443 13.6434 22.8422L16.0793 25.4119C16.1784 25.5167 16.2495 25.6494 16.2846 25.7956C16.3198 25.9418 16.3178 26.0958 16.2788 26.2407L15.7472 28.215C15.6146 28.708 15.3457 29.1432 14.9779 29.4603L11.4969 32.4589C11.2647 32.6629 10.9981 32.8143 10.7124 32.9043C10.4267 32.9944 10.1276 33.0212 9.83244 32.9833C9.53727 32.9455 9.25184 32.8436 8.99265 32.6837C8.73346 32.5238 8.50565 32.309 8.32238 32.0517C8.13911 31.7944 8.00402 31.4996 7.92491 31.1845C7.8458 30.8695 7.82424 30.5402 7.86148 30.2159C7.89871 29.8916 7.994 29.5787 8.14185 29.2951C8.28969 29.0115 8.48716 28.763 8.72283 28.5639L11.6386 26.0519L12.4056 23.2026C12.4422 23.067 12.5099 22.944 12.6022 22.8455C12.6945 22.747 12.8083 22.6763 12.9326 22.6402ZM13.4942 24.9691L13.0076 26.7727C12.9634 26.9369 12.8738 27.0819 12.7512 27.1875L9.64727 29.8628C9.49605 29.9995 9.39946 30.1959 9.37815 30.41C9.35684 30.6241 9.41249 30.8388 9.53322 31.0083C9.65395 31.1779 9.83018 31.2887 10.0242 31.3172C10.2183 31.3457 10.4148 31.2896 10.5717 31.1608L14.0528 28.1614C14.1756 28.0559 14.2655 27.9109 14.3099 27.7466L14.7118 26.2539L13.4942 24.9691ZM19.9997 6.5975C20.5963 6.5975 21.1684 6.33684 21.5902 5.87287C22.012 5.40889 22.249 4.7796 22.249 4.12344C22.249 3.46728 22.012 2.83799 21.5902 2.37401C21.1684 1.91004 20.5963 1.64938 19.9997 1.64938C19.4032 1.64938 18.8311 1.91004 18.4093 2.37401C17.9875 2.83799 17.7505 3.46728 17.7505 4.12344C17.7505 4.7796 17.9875 5.40889 18.4093 5.87287C18.8311 6.33684 19.4032 6.5975 19.9997 6.5975ZM19.9997 8.24688C20.994 8.24688 21.9475 7.81245 22.6505 7.03915C23.3535 6.26586 23.7485 5.21704 23.7485 4.12344C23.7485 3.02984 23.3535 1.98102 22.6505 1.20773C21.9475 0.434433 20.994 0 19.9997 0C19.0055 0 18.052 0.434433 17.349 1.20773C16.646 1.98102 16.251 3.02984 16.251 4.12344C16.251 5.21704 16.646 6.26586 17.349 7.03915C18.052 7.81245 19.0055 8.24688 19.9997 8.24688Z" fill="#754ABC"/>
<path fill-rule="evenodd" clip-rule="evenodd" d="M15.3034 8.54709C16.3741 8.11 17.5242 8.13475 18.5566 8.72275C19.5387 9.28106 20.2038 10.2262 20.6221 11.2141C20.7786 11.5836 20.9243 11.9297 21.0592 12.2524C21.3891 13.0392 21.659 13.6849 21.9177 14.2482C22.282 15.0456 22.549 15.5132 22.7844 15.8151C22.9868 16.0732 23.16 16.2043 23.3834 16.3C23.6458 16.4138 24.0754 16.5169 24.8394 16.5424C25.3948 16.5607 25.9208 16.8209 26.3018 17.2658C26.6828 17.7106 26.8875 18.3038 26.8709 18.9147C26.8542 19.5255 26.6177 20.1042 26.2133 20.5232C25.8088 20.9423 25.2696 21.1674 24.7142 21.1491C23.6968 21.1153 22.7394 20.9718 21.8584 20.5933C20.9378 20.1975 20.2113 19.593 19.6055 18.8161C19.5334 18.724 19.4634 18.63 19.3955 18.5341L19.0934 20.2692L22.3675 23.8228C22.5767 24.0487 22.7394 24.3209 22.8466 24.6211L24.709 29.8414C24.8094 30.123 24.8585 30.4237 24.8533 30.7263C24.8481 31.0288 24.7888 31.3273 24.6788 31.6046C24.5688 31.8819 24.4102 32.1327 24.212 32.3426C24.0139 32.5525 23.7801 32.7174 23.524 32.828C23.2679 32.9385 22.9945 32.9924 22.7195 32.9867C22.4444 32.9811 22.1731 32.9158 21.921 32.7948C21.6688 32.6738 21.4409 32.4993 21.25 32.2813C21.0592 32.0634 20.9093 31.8062 20.8088 31.5245L19.1084 26.7603L13.2161 20.3649C12.9906 20.1196 12.8185 19.8212 12.7128 19.4923C12.6071 19.1634 12.5705 18.8123 12.6058 18.4656L12.8495 16.0988C12.1807 17.0496 11.6184 18.1935 11.2256 19.546C11.0566 20.1282 10.6844 20.6128 10.1906 20.8931C9.69691 21.1734 9.12217 21.2265 8.59284 21.0407C8.06352 20.8549 7.62298 20.4454 7.36813 19.9023C7.11328 19.3592 7.06501 18.727 7.23393 18.1448C8.55948 13.5777 11.5577 10.1379 15.2787 8.55781L15.2832 8.55534L15.3034 8.54709ZM15.8282 10.0926L15.8162 10.0975C12.5309 11.4937 9.85279 14.5434 8.66294 18.6462C8.63916 18.7281 8.63029 18.8144 8.63683 18.9001C8.64336 18.9858 8.66518 19.0693 8.70103 19.1457C8.73689 19.2221 8.78608 19.29 8.84579 19.3456C8.90551 19.4011 8.97458 19.4431 9.04906 19.4693C9.12354 19.4954 9.20198 19.5052 9.27989 19.498C9.35781 19.4908 9.43367 19.4668 9.50315 19.4274C9.57263 19.3879 9.63437 19.3338 9.68484 19.2681C9.73531 19.2024 9.77353 19.1265 9.7973 19.0445C10.5426 16.4773 11.8404 14.5351 13.3661 13.1645C13.4815 13.0609 13.6223 12.9975 13.7706 12.9823C13.919 12.9672 14.068 13.0009 14.1988 13.0793C14.3296 13.1577 14.4362 13.2772 14.505 13.4225C14.5738 13.5678 14.6017 13.7324 14.5852 13.8952L14.0963 18.6512C14.0866 18.7496 14.097 18.8492 14.127 18.9426C14.157 19.0359 14.2057 19.1207 14.2695 19.1905L20.275 25.7088C20.3505 25.7908 20.4077 25.8859 20.4467 25.9942L22.2048 30.9225C22.2323 31.0041 22.2744 31.0788 22.3285 31.1423C22.3825 31.2058 22.4476 31.2568 22.5198 31.2923C22.592 31.3279 22.6699 31.3472 22.749 31.3492C22.8281 31.3513 22.9067 31.336 22.9804 31.3042C23.054 31.2724 23.1211 31.2248 23.1778 31.1641C23.2346 31.1035 23.2797 31.031 23.3107 30.9509C23.3417 30.8709 23.3578 30.7848 23.3582 30.6978C23.3586 30.6108 23.3432 30.5246 23.3129 30.4442L21.4506 25.2239C21.4202 25.1385 21.374 25.061 21.3149 24.9963L17.7551 21.1335C17.6673 21.0383 17.6023 20.9207 17.5656 20.7913C17.529 20.6618 17.522 20.5244 17.5452 20.3913L18.2807 16.1647C18.3098 15.9966 18.3858 15.8426 18.498 15.7242C18.6103 15.6057 18.7533 15.5285 18.9072 15.5034C19.0611 15.4783 19.2183 15.5065 19.3569 15.5841C19.4956 15.6616 19.6089 15.7847 19.6812 15.9363C20.0186 16.6431 20.356 17.2475 20.7428 17.7424C21.2047 18.3337 21.7332 18.7683 22.4043 19.0569C23.064 19.3406 23.8325 19.4693 24.7584 19.4998C24.8375 19.504 24.9165 19.4909 24.9908 19.4612C25.0652 19.4315 25.1334 19.3857 25.1915 19.3267C25.2496 19.2677 25.2964 19.1965 25.3292 19.1173C25.362 19.0381 25.3801 18.9525 25.3825 18.8655C25.3849 18.7786 25.3715 18.6919 25.3431 18.6107C25.3147 18.5295 25.2719 18.4553 25.2172 18.3925C25.1624 18.3297 25.0968 18.2796 25.0242 18.245C24.9517 18.2103 24.8735 18.192 24.7944 18.191C23.9397 18.163 23.3219 18.045 22.8376 17.8364C22.3653 17.6335 21.9934 17.3333 21.647 16.8888C21.2901 16.4328 20.9587 15.8217 20.5786 14.9904C20.2761 14.3167 19.9836 13.6376 19.7014 12.9534L19.6977 12.9435C19.5632 12.6208 19.4183 12.2763 19.2628 11.9102C18.9404 11.1498 18.4756 10.5329 17.8683 10.1874C17.2475 9.83443 16.542 9.80144 15.8282 10.0926Z" fill="#754ABC"/>
</svg>
