<svg width="28" height="24" viewBox="0 0 28 24" fill="none" xmlns="http://www.w3.org/2000/svg">
<path d="M14.633 3.35705C17.3623 0.549332 21.8035 0.549332 24.5336 3.35705C27.2072 6.10776 27.2245 10.4679 24.5739 13.4992C22.1553 16.2635 15.0235 22.235 14.721 22.4878C14.5089 22.6652 14.2528 22.7549 13.9987 22.7428C13.9909 22.7431 13.9829 22.7431 13.9747 22.7431C13.729 22.7431 13.4819 22.6595 13.2765 22.4878C12.9739 22.235 5.8429 16.2635 3.425 13.4995C0.774007 10.4679 0.791371 6.10776 3.46527 3.35705C6.19459 0.548951 10.6362 0.548951 13.3655 3.35705L13.9991 4.00882L14.633 3.35705Z" stroke="#4F4F4F" stroke-width="1.76406"/>
</svg>
