<svg width="24" height="24" viewBox="0 0 24 24" fill="none" xmlns="http://www.w3.org/2000/svg">
<path d="M12.4544 6.37185C14.4115 4.54296 17.5962 4.54296 19.5538 6.37185C21.471 8.1636 21.4834 11.0037 19.5827 12.9782C17.8484 14.7788 12.7344 18.6686 12.5175 18.8332C12.3654 18.9488 12.1818 19.0072 11.9995 18.9993C11.994 18.9995 11.9882 18.9995 11.9824 18.9995C11.8062 18.9995 11.629 18.945 11.4817 18.8332C11.2647 18.6686 6.15128 14.7788 4.41748 12.9784C2.51653 11.0037 2.52898 8.1636 4.44635 6.37185C6.40346 4.54272 9.58841 4.54272 11.5455 6.37185L11.9998 6.7964L12.4544 6.37185Z" stroke="#1A1A1A" stroke-width="1.5"/>
</svg>
