<svg width="16" height="16" viewBox="0 0 16 16" fill="none" xmlns="http://www.w3.org/2000/svg">
<path d="M10.6663 0.666504C11.0345 0.666504 11.333 0.964984 11.333 1.33317V3.33317H13.9997C14.3679 3.33317 14.6663 3.63165 14.6663 3.99984V13.3332C14.6663 13.7014 14.3679 13.9998 13.9997 13.9998H1.99967C1.63149 13.9998 1.33301 13.7014 1.33301 13.3332V3.99984C1.33301 3.63165 1.63149 3.33317 1.99967 3.33317H4.66634V1.33317C4.66634 0.964984 4.96482 0.666504 5.33301 0.666504H10.6663ZM8.66634 5.99984H7.33301V7.99984H5.33301V9.33317H7.33234L7.33301 11.3332H8.66634L8.66567 9.33317H10.6663V7.99984H8.66634V5.99984ZM9.99967 1.99984H5.99967V3.33317H9.99967V1.99984Z" fill="white"/>
</svg>
