<svg width="19" height="18" viewBox="0 0 19 18" fill="none" xmlns="http://www.w3.org/2000/svg">
<path d="M8.98438 13.5H9.98438V8H8.98438V13.5ZM9.48438 6.577C9.65904 6.577 9.80538 6.518 9.92338 6.4C10.0414 6.282 10.1 6.13567 10.0994 5.961C10.0987 5.78633 10.0397 5.64033 9.92237 5.523C9.80504 5.40567 9.65904 5.34667 9.48438 5.346C9.30971 5.34533 9.16371 5.40433 9.04638 5.523C8.92904 5.64167 8.87004 5.788 8.86938 5.962C8.86871 6.136 8.92771 6.282 9.04638 6.4C9.16504 6.518 9.31104 6.577 9.48438 6.577ZM9.48738 18C8.24271 18 7.07271 17.764 5.97738 17.292C4.88204 16.8193 3.92904 16.178 3.11837 15.368C2.30771 14.558 1.66604 13.606 1.19338 12.512C0.720708 11.418 0.484375 10.2483 0.484375 9.003C0.484375 7.75767 0.720708 6.58767 1.19338 5.493C1.66538 4.39767 2.30571 3.44467 3.11438 2.634C3.92304 1.82333 4.87538 1.18167 5.97138 0.709C7.06738 0.236333 8.23737 0 9.48137 0C10.7254 0 11.8954 0.236333 12.9914 0.709C14.0867 1.181 15.0397 1.82167 15.8504 2.631C16.661 3.44033 17.3027 4.39267 17.7754 5.488C18.248 6.58333 18.4844 7.753 18.4844 8.997C18.4844 10.241 18.2484 11.411 17.7764 12.507C17.3044 13.603 16.663 14.556 15.8524 15.366C15.0417 16.176 14.0897 16.8177 12.9964 17.291C11.903 17.7643 10.7334 18.0007 9.48738 18Z" fill="#D6D6D6"/>
</svg>
