<svg width="32" height="32" viewBox="0 0 32 32" fill="none" xmlns="http://www.w3.org/2000/svg">
<path d="M23.694 6.65877L19.086 4.88372C17.5565 4.29457 16.7919 4 16.0001 4C15.2083 4 14.4436 4.29457 12.9141 4.88372L8.30588 6.65889C5.43529 7.76468 3.99999 8.31757 4 9.33361C4.00001 10.3497 5.43532 10.9025 8.30595 12.0082L12.9139 13.7831C14.4432 14.3721 15.2077 14.6667 15.9995 14.6667C16.7912 14.6667 17.5557 14.3721 19.0851 13.7832L23.6939 12.0081C26.5647 10.9025 28 10.3496 28 9.33357C28 8.31752 26.5647 7.7646 23.694 6.65877Z" stroke="#754ABC" stroke-width="1.5" stroke-linecap="round" stroke-linejoin="round"/>
<path d="M22 12.6732L23.694 13.3257C26.5647 14.4316 28 14.9844 28 16.0005C28 17.0165 26.5647 17.5695 23.6939 18.6751L19.0851 20.4501C17.5557 21.0391 16.7912 21.3336 15.9995 21.3336C15.2077 21.3336 14.4432 21.0391 12.9139 20.45L8.30595 18.6752C5.43532 17.5695 4.00001 17.0167 4 16.0005C3.99999 14.9845 5.43529 14.4316 8.30588 13.3258L10.0001 12.6732" stroke="#754ABC" stroke-width="1.5" stroke-linecap="round" stroke-linejoin="round"/>
<path d="M25.3332 14L11.681 19.8509M6.6665 18L13.9998 14.6667" stroke="#754ABC" stroke-width="1.5" stroke-linecap="round" stroke-linejoin="round"/>
<path d="M22.1803 19.4088L23.694 19.9919C26.5647 21.0978 28 21.6507 28 22.6668C28 23.6828 26.5647 24.2356 23.6939 25.3414L19.0851 27.1164C17.5557 27.7054 16.7912 27.9999 15.9995 27.9999C15.2077 27.9999 14.4432 27.7054 12.9139 27.1163L8.30595 25.3414C5.43532 24.2358 4.00001 23.6828 4 22.6668C3.99999 21.6507 5.43529 21.0979 8.30588 19.992L9.81968 19.409" stroke="#754ABC" stroke-width="1.5" stroke-linecap="round" stroke-linejoin="round"/>
</svg>
