<svg width="27" height="26" viewBox="0 0 27 26" fill="none" xmlns="http://www.w3.org/2000/svg">
<path d="M4.83334 19.5C4.52639 19.5 4.26928 19.396 4.062 19.188C3.85473 18.98 3.75073 18.7229 3.75 18.4167C3.74928 18.1104 3.85328 17.8533 4.062 17.6453C4.27073 17.4373 4.52784 17.3333 4.83334 17.3333H22.1667C22.4736 17.3333 22.7311 17.4373 22.9391 17.6453C23.1471 17.8533 23.2507 18.1104 23.25 18.4167C23.2493 18.7229 23.1453 18.9804 22.938 19.1891C22.7307 19.3978 22.4736 19.5014 22.1667 19.5H4.83334ZM4.83334 14.0833C4.52639 14.0833 4.26928 13.9793 4.062 13.7713C3.85473 13.5633 3.75073 13.3062 3.75 13C3.74928 12.6938 3.85328 12.4367 4.062 12.2287C4.27073 12.0207 4.52784 11.9167 4.83334 11.9167H22.1667C22.4736 11.9167 22.7311 12.0207 22.9391 12.2287C23.1471 12.4367 23.2507 12.6938 23.25 13C23.2493 13.3062 23.1453 13.5637 22.938 13.7724C22.7307 13.9811 22.4736 14.0848 22.1667 14.0833H4.83334ZM4.83334 8.66667C4.52639 8.66667 4.26928 8.56267 4.062 8.35467C3.85473 8.14667 3.75073 7.88956 3.75 7.58333C3.74928 7.27711 3.85328 7.02 4.062 6.812C4.27073 6.604 4.52784 6.5 4.83334 6.5H22.1667C22.4736 6.5 22.7311 6.604 22.9391 6.812C23.1471 7.02 23.2507 7.27711 23.25 7.58333C23.2493 7.88956 23.1453 8.14703 22.938 8.35575C22.7307 8.56447 22.4736 8.66811 22.1667 8.66667H4.83334Z" fill="#1A1A1A"/>
</svg>
