<svg width="20" height="20" viewBox="0 0 20 20" fill="none" xmlns="http://www.w3.org/2000/svg">
<path d="M10.0002 2.45428C4.47737 2.45428 0 6.97415 0 12.5497C0 15.573 1.30469 17.5447 1.30469 17.5447L18.6915 17.5455C18.6915 17.5455 20 15.3907 20 12.5495C20 6.97415 15.5226 2.45428 10.0002 2.45428ZM17.9581 16.3156L2.07397 16.3087C2.07397 16.3087 1.22758 14.7058 1.22758 12.5179C1.22758 7.6311 5.17016 3.66928 10.0337 3.66928C14.8971 3.66928 18.8399 7.63089 18.8399 12.5179C18.8401 14.7306 17.9581 16.3156 17.9581 16.3156Z" fill="white"/>
<path d="M12.8265 5.13512L12.701 5.13491L10.0335 10.3618L7.27011 5.09027L3.48658 14.6134H2.50879V15.3783H7.86545V14.6134H6.80259L7.86545 11.6371L10.0335 15.3783L12.1167 11.6371L13.1794 14.6134H12.1167V15.3783H17.4306V14.6134H16.51L12.8265 5.13512Z" fill="white"/>
</svg>
