<svg width="20" height="20" viewBox="0 0 20 20" fill="none" xmlns="http://www.w3.org/2000/svg">
<path d="M11.6641 2.5V5.83333C11.6641 6.05435 11.7519 6.26631 11.9081 6.42259C12.0644 6.57887 12.2764 6.66667 12.4974 6.66667H15.8307" stroke="#754ABC" stroke-linecap="round" stroke-linejoin="round"/>
<path d="M4.16406 10V4.16667C4.16406 3.72464 4.33966 3.30072 4.65222 2.98816C4.96478 2.67559 5.3887 2.5 5.83073 2.5H11.6641L15.8307 6.66667V10" stroke="#754ABC" stroke-linecap="round" stroke-linejoin="round"/>
<path d="M4.16406 15H5.41406C5.74558 15 6.06353 14.8683 6.29795 14.6339C6.53237 14.3995 6.66406 14.0815 6.66406 13.75C6.66406 13.4185 6.53237 13.1005 6.29795 12.8661C6.06353 12.6317 5.74558 12.5 5.41406 12.5H4.16406V17.5" stroke="#754ABC" stroke-linecap="round" stroke-linejoin="round"/>
<path d="M14.1641 15H15.8307" stroke="#754ABC" stroke-linecap="round" stroke-linejoin="round"/>
<path d="M16.6641 12.5H14.1641V17.5" stroke="#754ABC" stroke-linecap="round" stroke-linejoin="round"/>
<path d="M9.16406 12.5V17.5H9.9974C10.4394 17.5 10.8633 17.3244 11.1759 17.0118C11.4885 16.6993 11.6641 16.2754 11.6641 15.8333V14.1667C11.6641 13.7246 11.4885 13.3007 11.1759 12.9882C10.8633 12.6756 10.4394 12.5 9.9974 12.5H9.16406Z" stroke="#754ABC" stroke-linecap="round" stroke-linejoin="round"/>
</svg>
