<svg width="25" height="24" viewBox="0 0 25 24" fill="none" xmlns="http://www.w3.org/2000/svg">
<path d="M4.32812 13V12.196C4.32812 9.229 4.32813 7.746 4.79713 6.56C5.55113 4.655 7.14512 3.153 9.16712 2.442C10.4231 2 11.9961 2 15.1461 2C16.9441 2 17.8441 2 18.5621 2.253C19.7171 2.659 20.6281 3.517 21.0591 4.606C21.3271 5.283 21.3271 6.131 21.3271 7.826V13" stroke="#1A1A1A" stroke-width="1.5" stroke-linecap="round" stroke-linejoin="round"/>
<path d="M4.32812 12C4.32812 11.116 4.67928 10.2683 5.30434 9.64321C5.9294 9.01815 6.77716 8.667 7.66113 8.667C8.32713 8.667 9.11212 8.783 9.75912 8.61C10.0418 8.53392 10.2996 8.38485 10.5065 8.17774C10.7134 7.97064 10.8623 7.71277 10.9381 7.43C11.1111 6.783 10.9951 5.998 10.9951 5.332C10.9954 4.44821 11.3467 3.6007 11.9717 2.97586C12.5967 2.35102 13.4443 2 14.3281 2M4.32812 22V19M4.32812 19V17.2C4.32812 16.634 4.32813 16.352 4.50413 16.176C4.67813 16 4.96212 16 5.52812 16H6.32812C6.72595 16 7.10748 16.158 7.38879 16.4393C7.67009 16.7206 7.82812 17.1022 7.82812 17.5C7.82812 17.8978 7.67009 18.2794 7.38879 18.5607C7.10748 18.842 6.72595 19 6.32812 19H4.32812ZM21.3281 16H19.8281C18.8851 16 18.4141 16 18.1211 16.293C17.8281 16.586 17.8281 17.057 17.8281 18V19M17.8281 19V22M17.8281 19H20.3281M14.8281 19C14.8281 19.7956 14.5121 20.5587 13.9494 21.1213C13.3868 21.6839 12.6238 22 11.8281 22C11.4541 22 11.2681 22 11.1281 21.92C10.7951 21.727 10.8281 21.338 10.8281 21V17C10.8281 16.662 10.7951 16.273 11.1281 16.08C11.2681 16 11.4541 16 11.8281 16C12.2221 16 12.6122 16.0776 12.9762 16.2284C13.3402 16.3791 13.6709 16.6001 13.9494 16.8787C14.228 17.1573 14.449 17.488 14.5998 17.8519C14.7505 18.2159 14.8281 18.606 14.8281 19Z" stroke="#1A1A1A" stroke-width="1.5" stroke-linecap="round" stroke-linejoin="round"/>
</svg>
