<svg width="40" height="40" viewBox="0 0 40 40" fill="none" xmlns="http://www.w3.org/2000/svg">
<path d="M28.3723 28.1133C27.8009 27.2562 27.4295 26.5991 27.6581 25.6848C27.8009 25.1134 28.1438 24.5992 28.5437 24.1992C32.2007 20.5994 35.4577 17.4852 38.429 13.7139C38.6861 13.3711 38.8004 12.9426 38.9147 12.5426C39.0004 12.1997 39.0004 11.8283 39.0004 11.4569C39.0004 11.1141 38.9718 10.7712 38.8576 10.457C37.9295 8.14692 36.5723 6.03358 34.8578 4.22866C34.4578 3.94296 34.0578 3.65726 33.6007 3.45727C33.2749 3.31393 32.9271 3.22698 32.5721 3.20013C32.115 3.20013 31.6293 3.2287 31.2008 3.34298C30.7151 3.48584 30.3722 3.7144 29.8865 4.0001M30.7722 38.7128L26.9438 32.256C26.7965 32.0199 26.7001 31.7556 26.6607 31.4801C26.6214 31.2046 26.6399 30.9239 26.7153 30.656C26.7906 30.3908 26.9177 30.1431 27.0894 29.9274C27.261 29.7116 27.4737 29.532 27.7152 29.399L29.9151 28.1704C30.4078 27.9038 30.9836 27.8352 31.5251 27.9785C32.0666 28.1219 32.533 28.4664 32.8293 28.9418L36.6577 35.3987" stroke="white" stroke-linecap="round" stroke-linejoin="round"/>
<path d="M3.66117 11.9998L21.9746 1.71454C24.5745 0.228892 27.8601 1.14314 29.3743 3.68588C29.721 4.28345 29.9457 4.94381 30.0357 5.62877C30.1256 6.31374 30.0789 7.00974 29.8983 7.67654C29.7176 8.34335 29.4066 8.96775 28.9832 9.51364C28.5598 10.0595 28.0324 10.5161 27.4315 10.857L9.11807 21.1994C6.54675 22.6565 3.23262 21.7708 1.7184 19.1995C1.36723 18.6007 1.13882 17.938 1.04647 17.25C0.954127 16.562 0.999705 15.8626 1.18055 15.1924C1.36139 14.5222 1.67387 13.8947 2.09977 13.3466C2.52567 12.7985 3.05646 12.3406 3.66117 11.9998Z" stroke="white" stroke-linecap="round" stroke-linejoin="round"/>
</svg>
