<svg width="32" height="32" viewBox="0 0 32 32" fill="none" xmlns="http://www.w3.org/2000/svg">
<path d="M23.3335 25.3334V29.3334" stroke="#754ABC" stroke-width="1.5" stroke-linecap="round" stroke-linejoin="round"/>
<path d="M8.6665 25.3334V29.3334" stroke="#754ABC" stroke-width="1.5" stroke-linecap="round" stroke-linejoin="round"/>
<path d="M5.3335 13.3333C5.3335 8.30497 5.3335 5.79083 6.89559 4.22872C8.4577 2.66663 10.9718 2.66663 16.0002 2.66663C21.0284 2.66663 23.5427 2.66663 25.1047 4.22872C26.6668 5.79083 26.6668 8.30497 26.6668 13.3333V17.3333C26.6668 21.1045 26.6668 22.9901 25.4952 24.1617C24.3236 25.3333 22.438 25.3333 18.6668 25.3333H13.3335C9.56226 25.3333 7.67664 25.3333 6.50507 24.1617C5.3335 22.9901 5.3335 21.1045 5.3335 17.3333V13.3333Z" stroke="#754ABC" stroke-width="1.5" stroke-linejoin="round"/>
<path d="M9.3335 21.3334H10.6668" stroke="#754ABC" stroke-width="1.5" stroke-linecap="round" stroke-linejoin="round"/>
<path d="M21.3335 21.3334H22.6668" stroke="#754ABC" stroke-width="1.5" stroke-linecap="round" stroke-linejoin="round"/>
<path d="M2.6665 10.6666V13.3333" stroke="#754ABC" stroke-width="1.5" stroke-linecap="round" stroke-linejoin="round"/>
<path d="M29.3335 10.6666V13.3333" stroke="#754ABC" stroke-width="1.5" stroke-linecap="round" stroke-linejoin="round"/>
<path d="M6 6.66663H26" stroke="#754ABC" stroke-width="1.5" stroke-linecap="round"/>
<path d="M6 17.3334H26" stroke="#754ABC" stroke-width="1.5" stroke-linecap="round"/>
<path d="M16 17.3333V6.66663" stroke="#754ABC" stroke-width="1.5" stroke-linecap="round" stroke-linejoin="round"/>
</svg>
