<svg width="16" height="16" viewBox="0 0 16 16" fill="none" xmlns="http://www.w3.org/2000/svg">
<path d="M6.45532 5.03915L7.99967 6.58351L12.2493 2.33393C12.7699 1.81323 13.6141 1.81323 14.1349 2.33393L14.6063 2.80533L6.45532 10.9563C6.59118 11.2763 6.66634 11.6282 6.66634 11.9977C6.66634 13.4705 5.47243 14.6644 3.99967 14.6644C2.52691 14.6644 1.33301 13.4705 1.33301 11.9977C1.33301 10.525 2.52691 9.33105 3.99967 9.33105C4.36919 9.33105 4.72115 9.40619 5.04111 9.54205L6.58546 7.99772L5.04111 6.45337C4.72115 6.58923 4.36919 6.66439 3.99967 6.66439C2.52691 6.66439 1.33301 5.47048 1.33301 3.99772C1.33301 2.52496 2.52691 1.33105 3.99967 1.33105C5.47243 1.33105 6.66634 2.52496 6.66634 3.99772C6.66634 4.36724 6.59118 4.7192 6.45532 5.03915ZM3.99967 5.33105C4.73605 5.33105 5.33301 4.7341 5.33301 3.99772C5.33301 3.26134 4.73605 2.66439 3.99967 2.66439C3.26329 2.66439 2.66634 3.26134 2.66634 3.99772C2.66634 4.7341 3.26329 5.33105 3.99967 5.33105ZM3.99967 13.3311C4.73605 13.3311 5.33301 12.7341 5.33301 11.9977C5.33301 11.2613 4.73605 10.6644 3.99967 10.6644C3.26329 10.6644 2.66634 11.2613 2.66634 11.9977C2.66634 12.7341 3.26329 13.3311 3.99967 13.3311ZM10.3561 8.93992L14.6063 13.1901L14.1349 13.6615C13.6141 14.1822 12.7699 14.1822 12.2493 13.6615L8.94187 10.3541L10.3561 8.93992Z" fill="white"/>
</svg>
