<svg width="22" height="23" viewBox="0 0 22 23" fill="none" xmlns="http://www.w3.org/2000/svg">
<path d="M4.8125 15.1355V7.7325C4.8125 7.1165 5.02883 6.59217 5.4615 6.1595C5.89417 5.72684 6.4185 5.5105 7.0345 5.5105H19.3504L15.1223 1.28238L16.104 0.302002L22 6.198L16.104 12.1215L15.1223 11.148L19.3504 6.8855H7.03312C6.78654 6.8855 6.58396 6.96479 6.42538 7.12338C6.26679 7.28196 6.1875 7.485 6.1875 7.7325V15.1355H4.8125ZM2.222 22.698C1.606 22.698 1.08167 22.4817 0.649 22.049C0.216334 21.6163 0 21.0925 0 20.4774V1.54363H1.375V20.4774C1.375 20.724 1.45429 20.9265 1.61287 21.0851C1.77146 21.2437 1.9745 21.323 2.222 21.323H17.0294C17.276 21.323 17.4785 21.2437 17.6371 21.0851C17.7957 20.9265 17.875 20.724 17.875 20.4774V15.1355H19.25V20.4774C19.25 21.0915 19.0337 21.6154 18.601 22.049C18.1683 22.4817 17.6445 22.698 17.0294 22.698H2.222Z" fill="white"/>
</svg>
