<svg width="24" height="24" viewBox="0 0 24 24" fill="none" xmlns="http://www.w3.org/2000/svg">
<g clip-path="url(#clip0_241_10273)">
<path d="M11.5645 15.7031H6.41463C4.44358 15.7031 2.84575 14.1053 2.84575 12.1343V9.46875H23.002V12.1343C23.002 14.1053 21.4042 15.7031 19.4331 15.7031H14.377M8.77539 20.0849L11.8926 16.8292M12.0277 14.8125L0.783203 3.98438M18.2676 20.8213L13.8288 16.5469M14.4695 9.46992L20.4238 3.51562" stroke="#1A1A1A" stroke-miterlimit="10"/>
<path d="M23.0023 9.45984V9.23672C23.0023 4.52377 19.1817 0.703125 14.4688 0.703125V9.46992" stroke="#1A1A1A" stroke-miterlimit="10"/>
<path d="M19.2803 23.2969C20.1087 23.2969 20.7803 22.6253 20.7803 21.7969C20.7803 20.9684 20.1087 20.2969 19.2803 20.2969C18.4518 20.2969 17.7803 20.9684 17.7803 21.7969C17.7803 22.6253 18.4518 23.2969 19.2803 23.2969Z" stroke="#1A1A1A" stroke-miterlimit="10"/>
<path d="M7.69727 23.2969C8.8493 23.2969 9.7832 22.363 9.7832 21.2109C9.7832 20.0589 8.8493 19.125 7.69727 19.125C6.54523 19.125 5.61133 20.0589 5.61133 21.2109C5.61133 22.363 6.54523 23.2969 7.69727 23.2969Z" stroke="#1A1A1A" stroke-miterlimit="10"/>
<path d="M12.9707 17.1094C13.7474 17.1094 14.377 16.4798 14.377 15.7031C14.377 14.9265 13.7474 14.2969 12.9707 14.2969C12.1941 14.2969 11.5645 14.9265 11.5645 15.7031C11.5645 16.4798 12.1941 17.1094 12.9707 17.1094Z" stroke="#1A1A1A" stroke-miterlimit="10"/>
</g>
<defs>
<clipPath id="clip0_241_10273">
<rect width="24" height="24" fill="white"/>
</clipPath>
</defs>
</svg>
