<svg width="21" height="20" viewBox="0 0 21 20" fill="none" xmlns="http://www.w3.org/2000/svg">
<path d="M9.51932 5.31978L6.84843 7.26027L6.83428 7.25L4.875 9.94675L6.22337 10.9263L7.99588 8.48675L8.55991 8.07692L8.13608 10.4806C8.02697 11.0993 8.27433 11.6985 8.73062 12.0673L11.5558 14.438L13.2557 19.1083L14.8219 18.5383L12.9692 13.4483L11.2517 12.0071L11.833 8.7105C12.9029 10.0069 14.5221 10.8333 16.3343 10.8333V9.16667C14.9721 9.16667 13.7625 8.51292 13.0022 7.50208C12.8742 7.33197 12.7327 7.00359 12.5774 6.51697C12.2945 5.63057 11.4812 5.02344 10.555 5.00067C10.1747 4.98786 9.81248 5.10613 9.51932 5.31978Z" fill="white"/>
<path d="M10.0843 2.91667C10.0843 3.83714 10.8305 4.58333 11.751 4.58333C12.6714 4.58333 13.4177 3.83714 13.4177 2.91667C13.4177 1.99619 12.6714 1.25 11.751 1.25C10.8305 1.25 10.0843 1.99619 10.0843 2.91667Z" fill="white"/>
<path d="M6.59636 18.7597L9.27465 15.5677L9.91365 14.1667L8.42103 12.9167L7.79893 14.7336L5.31962 17.6883L6.59636 18.7597Z" fill="white"/>
</svg>
