<svg width="48" height="48" viewBox="0 0 48 48" fill="none" xmlns="http://www.w3.org/2000/svg">
<path d="M0 24C0 10.7452 10.7452 0 24 0C37.2548 0 48 10.7452 48 24C48 37.2548 37.2548 48 24 48C10.7452 48 0 37.2548 0 24Z" fill="#1A1A1A" fill-opacity="0.5"/>
<path d="M16.334 8.5429C16.7049 8.35856 16.8562 7.90842 16.6719 7.53748C16.4875 7.16655 16.0374 7.01529 15.6664 7.19962C12.003 9.02018 9.02018 12.003 7.19962 15.6664C7.01529 16.0374 7.16655 16.4875 7.53748 16.6719C7.90842 16.8562 8.35856 16.7049 8.5429 16.334C10.2179 12.9635 12.9635 10.2179 16.334 8.5429Z" fill="white"/>
<path d="M32.334 7.19962C31.9631 7.01529 31.5129 7.16655 31.3286 7.53748C31.1442 7.90842 31.2955 8.35856 31.6664 8.5429C35.037 10.2179 37.7825 12.9635 39.4575 16.334C39.6419 16.7049 40.092 16.8562 40.463 16.6719C40.8339 16.4875 40.9852 16.0374 40.8008 15.6664C38.9803 12.003 35.9974 9.02018 32.334 7.19962Z" fill="white"/>
<path d="M8.5429 31.6664C8.35856 31.2955 7.90842 31.1442 7.53749 31.3286C7.16655 31.5129 7.01529 31.9631 7.19962 32.334C9.02018 35.9974 12.003 38.9803 15.6664 40.8008C16.0374 40.9852 16.4875 40.8339 16.6719 40.463C16.8562 40.092 16.7049 39.6419 16.334 39.4575C12.9635 37.7825 10.2179 35.037 8.5429 31.6664Z" fill="white"/>
<path d="M40.8008 32.334C40.9852 31.9631 40.8339 31.5129 40.463 31.3286C40.092 31.1442 39.6419 31.2955 39.4575 31.6664C37.7825 35.037 35.037 37.7825 31.6664 39.4575C31.2955 39.6419 31.1442 40.092 31.3286 40.463C31.5129 40.8339 31.9631 40.9852 32.334 40.8008C35.9974 38.9803 38.9803 35.9974 40.8008 32.334Z" fill="white"/>
<path d="M26.581 5.14515H25.5185C25.4882 4.97091 25.4323 4.81655 25.3509 4.68208C25.2694 4.54572 25.1681 4.43019 25.0469 4.33549C24.9257 4.2408 24.7874 4.16977 24.6321 4.12243C24.4787 4.07318 24.313 4.04856 24.1349 4.04856C23.8187 4.04856 23.5384 4.12811 23.294 4.2872C23.0497 4.4444 22.8584 4.67546 22.7202 4.98038C22.5819 5.28341 22.5128 5.65368 22.5128 6.09118C22.5128 6.53625 22.5819 6.91125 22.7202 7.21618C22.8603 7.51921 23.0516 7.74837 23.294 7.90368C23.5384 8.05708 23.8177 8.13379 24.1321 8.13379C24.3063 8.13379 24.4692 8.11106 24.6207 8.06561C24.7741 8.01826 24.9115 7.94913 25.0327 7.85822C25.1558 7.76731 25.259 7.65557 25.3423 7.52299C25.4276 7.39042 25.4863 7.2389 25.5185 7.06845L26.581 7.07413C26.5412 7.35065 26.455 7.61012 26.3224 7.85254C26.1918 8.09496 26.0204 8.30898 25.8082 8.49458C25.5961 8.6783 25.348 8.82224 25.0639 8.9264C24.7798 9.02868 24.4645 9.07981 24.1179 9.07981C23.6065 9.07981 23.1501 8.96144 22.7486 8.7247C22.3471 8.48796 22.0308 8.1461 21.7997 7.69913C21.5687 7.25216 21.4531 6.71618 21.4531 6.09118C21.4531 5.46428 21.5696 4.9283 21.8026 4.48322C22.0355 4.03625 22.3527 3.6944 22.7543 3.45765C23.1558 3.22091 23.6103 3.10254 24.1179 3.10254C24.4418 3.10254 24.7429 3.14799 25.0213 3.2389C25.2997 3.32981 25.5478 3.46333 25.7656 3.63947C25.9834 3.81371 26.1624 4.02773 26.3026 4.28152C26.4446 4.53341 26.5374 4.82129 26.581 5.14515Z" fill="white"/>
<path d="M26.581 5.14515H25.5185C25.4882 4.97091 25.4323 4.81655 25.3509 4.68208C25.2694 4.54572 25.1681 4.43019 25.0469 4.33549C24.9257 4.2408 24.7874 4.16977 24.6321 4.12243C24.4787 4.07318 24.313 4.04856 24.1349 4.04856C23.8187 4.04856 23.5384 4.12811 23.294 4.2872C23.0497 4.4444 22.8584 4.67546 22.7202 4.98038C22.5819 5.28341 22.5128 5.65368 22.5128 6.09118C22.5128 6.53625 22.5819 6.91125 22.7202 7.21618C22.8603 7.51921 23.0516 7.74837 23.294 7.90368C23.5384 8.05708 23.8177 8.13379 24.1321 8.13379C24.3063 8.13379 24.4692 8.11106 24.6207 8.06561C24.7741 8.01826 24.9115 7.94913 25.0327 7.85822C25.1558 7.76731 25.259 7.65557 25.3423 7.52299C25.4276 7.39042 25.4863 7.2389 25.5185 7.06845L26.581 7.07413C26.5412 7.35065 26.455 7.61012 26.3224 7.85254C26.1918 8.09496 26.0204 8.30898 25.8082 8.49458C25.5961 8.6783 25.348 8.82224 25.0639 8.9264C24.7798 9.02868 24.4645 9.07981 24.1179 9.07981C23.6065 9.07981 23.1501 8.96144 22.7486 8.7247C22.3471 8.48796 22.0308 8.1461 21.7997 7.69913C21.5687 7.25216 21.4531 6.71618 21.4531 6.09118C21.4531 5.46428 21.5696 4.9283 21.8026 4.48322C22.0355 4.03625 22.3527 3.6944 22.7543 3.45765C23.1558 3.22091 23.6103 3.10254 24.1179 3.10254C24.4418 3.10254 24.7429 3.14799 25.0213 3.2389C25.2997 3.32981 25.5478 3.46333 25.7656 3.63947C25.9834 3.81371 26.1624 4.02773 26.3026 4.28152C26.4446 4.53341 26.5374 4.82129 26.581 5.14515Z" fill="white"/>
<path fill-rule="evenodd" clip-rule="evenodd" d="M27.3835 43.702C27.6184 43.255 27.7358 42.7181 27.7358 42.0912C27.7358 41.4643 27.6184 40.9283 27.3835 40.4832C27.1506 40.0363 26.8324 39.6944 26.429 39.4577C26.0275 39.2209 25.572 39.1025 25.0625 39.1025C24.553 39.1025 24.0966 39.2209 23.6932 39.4577C23.2917 39.6944 22.9735 40.0363 22.7386 40.4832C22.5487 40.8461 22.4362 41.2694 22.4011 41.7531H21.4602V39.1821H20.4062V45.0003H21.4602V42.5997H22.4171C22.4643 43.012 22.5715 43.3785 22.7386 43.6991C22.9735 44.1442 23.2917 44.4861 23.6932 44.7247C24.0966 44.9614 24.553 45.0798 25.0625 45.0798C25.572 45.0798 26.0275 44.9614 26.429 44.7247C26.8324 44.488 27.1506 44.147 27.3835 43.702ZM26.4688 40.9747C26.607 41.2777 26.6761 41.6499 26.6761 42.0912C26.6761 42.5325 26.607 42.9056 26.4688 43.2105C26.3324 43.5135 26.143 43.7436 25.9006 43.9008C25.6581 44.0561 25.3788 44.1338 25.0625 44.1338C24.7462 44.1338 24.4669 44.0561 24.2244 43.9008C23.982 43.7436 23.7917 43.5135 23.6534 43.2105C23.517 42.9056 23.4489 42.5325 23.4489 42.0912C23.4489 41.6499 23.517 41.2777 23.6534 40.9747C23.7917 40.6698 23.982 40.4397 24.2244 40.2844C24.4669 40.1272 24.7462 40.0486 25.0625 40.0486C25.3788 40.0486 25.6581 40.1272 25.9006 40.2844C26.143 40.4397 26.3324 40.6698 26.4688 40.9747Z" fill="white"/>
<path fill-rule="evenodd" clip-rule="evenodd" d="M43.2209 21.3805C42.9425 21.2479 42.593 21.1816 42.1726 21.1816H39.9453V26.9998H42.3004C42.7455 26.9998 43.1148 26.9307 43.4084 26.7924C43.7019 26.6542 43.9216 26.4657 44.0675 26.2271C44.2133 25.9866 44.2862 25.7157 44.2862 25.4146C44.2862 25.1191 44.2256 24.8672 44.1044 24.6589C43.9832 24.4506 43.8269 24.2896 43.6357 24.176C43.4463 24.0604 43.2483 23.997 43.0419 23.9856V23.9288C43.2313 23.8833 43.4027 23.8085 43.5561 23.7044C43.7095 23.6002 43.8317 23.4648 43.9226 23.2981C44.0135 23.1296 44.0589 22.9269 44.0589 22.6902C44.0589 22.4023 43.9889 22.1447 43.8487 21.9174C43.7105 21.6902 43.5012 21.5112 43.2209 21.3805ZM42.9595 25.9004C42.791 26.0462 42.5154 26.1191 42.1328 26.1191H40.9993V24.4146H42.1612C42.379 24.4146 42.5665 24.4553 42.7237 24.5368C42.8809 24.6163 43.0021 24.7261 43.0874 24.8663C43.1726 25.0046 43.2152 25.1599 43.2152 25.3322C43.2152 25.5633 43.13 25.7527 42.9595 25.9004ZM42.5334 23.5566C42.3875 23.6229 42.2237 23.6561 42.0419 23.6561H40.9993V22.051H42.0646C42.3752 22.051 42.6091 22.1239 42.7663 22.2697C42.9254 22.4155 43.005 22.6011 43.005 22.8265C43.005 22.997 42.9624 23.1447 42.8771 23.2697C42.7938 23.3928 42.6792 23.4885 42.5334 23.5566Z" fill="white"/>
<path d="M4.90882 26.8696C5.22701 27.0097 5.59064 27.0798 5.99973 27.0798C6.4164 27.0798 6.78572 27.0069 7.10769 26.8611C7.43155 26.7152 7.68534 26.5145 7.86905 26.2588C8.05466 26.0012 8.14746 25.7095 8.14746 25.3838C8.14935 25.0202 8.04045 24.7162 7.82076 24.4719C7.60295 24.2256 7.28951 24.0741 6.88042 24.0173V23.9719C7.19481 23.9037 7.4486 23.7588 7.64178 23.5372C7.83685 23.3156 7.93345 23.041 7.93155 22.7133C7.93155 22.4179 7.85295 22.148 7.69576 21.9037C7.53856 21.6594 7.31602 21.4652 7.02814 21.3213C6.74216 21.1755 6.40504 21.1025 6.01678 21.1025C5.63989 21.1025 5.29992 21.1726 4.99689 21.3128C4.69386 21.451 4.45144 21.6442 4.26962 21.8923C4.0897 22.1385 3.99595 22.4245 3.98837 22.7503H5.00257C5.00826 22.5874 5.0575 22.4472 5.1503 22.3298C5.2431 22.2105 5.36526 22.1186 5.51678 22.0542C5.66829 21.9898 5.83307 21.9577 6.0111 21.9577C6.19292 21.9577 6.35106 21.9917 6.48553 22.0599C6.62189 22.1281 6.72701 22.2238 6.80087 22.3469C6.87663 22.4681 6.91356 22.6111 6.91167 22.7758C6.91356 22.9444 6.87095 23.0931 6.78382 23.2219C6.6967 23.3488 6.57644 23.4472 6.42303 23.5173C6.27151 23.5874 6.09443 23.6224 5.89178 23.6224H5.37757V24.4349H5.89178C6.13799 24.4349 6.34822 24.4728 6.52246 24.5486C6.6986 24.6243 6.83307 24.7294 6.92587 24.8639C7.01867 24.9984 7.06413 25.1537 7.06223 25.3298C7.06413 25.5003 7.01962 25.6508 6.92871 25.7815C6.8378 25.9122 6.71185 26.0145 6.55087 26.0883C6.38989 26.1603 6.20523 26.1963 5.99689 26.1963C5.80182 26.1963 5.62568 26.1641 5.46848 26.0997C5.31129 26.0353 5.18534 25.9453 5.09064 25.8298C4.99595 25.7124 4.94386 25.5751 4.93439 25.4179H3.86621C3.87757 25.7455 3.97511 26.0344 4.15882 26.2844C4.34254 26.5344 4.59254 26.7294 4.90882 26.8696Z" fill="white"/>
<path d="M31 17L27.1111 27.1111L17 31L20.8889 20.8889L31 17ZM24 25.5556C24.8591 25.5556 25.5556 24.8591 25.5556 24C25.5556 23.1409 24.8591 22.4444 24 22.4444C23.1409 22.4444 22.4444 23.1409 22.4444 24C22.4444 24.8591 23.1409 25.5556 24 25.5556Z" fill="white"/>
</svg>
