<svg width="96" height="82" viewBox="0 0 96 82" fill="none" xmlns="http://www.w3.org/2000/svg">
<path d="M79.2331 48.3152C69.9876 48.3152 62.4658 55.866 62.4658 65.1473C62.4658 74.4285 69.9876 81.9793 79.2331 81.9793C88.4786 81.9793 96.0002 74.4283 96.0002 65.1473C96.0002 55.866 88.4786 48.3152 79.2331 48.3152ZM79.2331 76.3541C73.0892 76.3541 68.0908 71.3267 68.0908 65.1471C68.0908 58.9674 73.0892 53.94 79.2331 53.94C85.3769 53.94 90.3751 58.9676 90.3751 65.1473C90.3751 71.3267 85.3769 76.3541 79.2331 76.3541Z" fill="#A7DE68"/>
<path d="M43.5983 53.9402C46.848 53.9402 49.9287 55.3633 52.0502 57.8445C53.0599 59.0252 54.8354 59.1637 56.0155 58.1542C57.1962 57.1449 57.3348 55.3695 56.3253 54.189C53.1336 50.4561 48.4947 48.3152 43.5981 48.3152C34.3526 48.3152 26.8308 55.866 26.8308 65.1473C26.8308 74.4285 34.3526 81.9793 43.5981 81.9793C48.0792 81.9793 52.2914 80.2268 55.4586 77.0449C56.5546 75.9439 56.5503 74.1632 55.4494 73.0674C54.3486 71.9717 52.5677 71.976 51.472 73.0766C49.368 75.1903 46.5717 76.3543 43.5981 76.3543C37.4542 76.3543 32.4558 71.3269 32.4558 65.1473C32.4562 58.9676 37.4546 53.9402 43.5983 53.9402ZM19.8316 53.9402C21.3848 53.9402 22.6441 52.6809 22.6441 51.1277C22.6441 49.5744 21.3848 48.3152 19.8316 48.3152H2.81251C1.25926 48.3152 0 49.5744 0 51.1277V79.1668C0 80.7201 1.25926 81.9793 2.81251 81.9793H19.8316C21.3848 81.9793 22.6441 80.7201 22.6441 79.1668C22.6441 77.6136 21.3848 76.3543 19.8316 76.3543H5.62503V68.0199H15.1561C16.7093 68.0199 17.9686 66.7607 17.9686 65.2074C17.9686 63.6542 16.7093 62.3949 15.1561 62.3949H5.62503V53.9402H19.8316Z" fill="#A7DE68"/>
<path d="M56.7647 40.4977H43.3906V27.1237C43.3906 12.1552 55.5251 0.020752 70.4937 0.020752H80.6212C82.4142 0.020752 83.8677 1.47425 83.8677 3.26732V13.3948C83.8677 28.3633 71.7333 40.4977 56.7647 40.4977Z" fill="#A7DE68"/>
<path d="M43.3917 27.9607V40.4975H30.8548C20.7226 40.4975 12.5088 32.2837 12.5088 22.1516V12.8613C12.5088 11.0682 13.9623 9.61475 15.7554 9.61475H25.0457C35.1778 9.61475 43.3917 17.8286 43.3917 27.9607Z" fill="#87BC4A"/>
<path d="M69.5699 18.2961C70.6682 17.1977 70.6682 15.417 69.5699 14.3187C68.4717 13.2203 66.6908 13.2203 65.5924 14.3187L43.3906 36.5204V40.4978H47.3681L69.5699 18.2961Z" fill="#6AA725"/>
<path d="M43.3912 40.4975V36.5201L26.9234 20.0523C25.8254 18.9539 24.0445 18.9539 22.9459 20.0523C21.8474 21.1507 21.8475 22.9314 22.9459 24.0297L39.4137 40.4975H43.3912Z" fill="#699537"/>
</svg>
