<svg width="568" height="395" viewBox="0 0 568 395" fill="none" xmlns="http://www.w3.org/2000/svg">
<g clip-path="url(#clip0_579_30025)">
<mask id="mask0_579_30025" style="mask-type:luminance" maskUnits="userSpaceOnUse" x="0" y="0" width="568" height="395">
<path d="M42.9194 395V227.609H75.9842V152.724H0V69.6113H75.9842V0H567.055V395H42.9194Z" fill="white"/>
</mask>
<g mask="url(#mask0_579_30025)">
<path d="M239.184 284.148H546.466M238.432 66.8219V210.722" stroke="#878787" stroke-width="0.605828" stroke-linecap="round" stroke-linejoin="round"/>
<g opacity="0.7">
<path opacity="0.4" d="M465.296 158.223H438.558C406.391 158.223 380.312 132.178 380.312 100.051C380.312 67.9252 406.391 41.8802 438.558 41.8802H465.296C497.463 41.8802 523.541 67.9252 523.541 100.051C523.541 132.178 497.463 158.223 465.296 158.223Z" fill="white" stroke="#9D9D9C" stroke-width="0.302914" stroke-miterlimit="10"/>
<path d="M90.1445 14.6075H232.103V58.4302H90.1445V14.6075Z" fill="white" stroke="#1A1A1A" stroke-width="0.302914" stroke-miterlimit="10"/>
<path d="M90.1445 36.493H232.103" stroke="#1A1A1A" stroke-width="0.302914" stroke-miterlimit="10"/>
<path d="M135.477 53.8201L129.253 18.4149L128.475 21.497C127.126 26.8582 128.656 32.608 132.416 36.3376C136.618 40.5075 137.992 47.1379 135.84 52.8877L135.477 53.8201ZM138.874 53.9755L143.438 18.2595L141.804 20.9013C140.397 23.2092 139.599 25.8361 139.486 28.5359C139.372 31.2357 139.947 33.9201 141.156 36.3376C143.905 41.7766 143.256 48.5365 139.496 53.1985L138.874 53.9755ZM119.424 53.9755L123.988 18.2595L122.354 20.9013C120.947 23.2092 120.149 25.8361 120.036 28.5359C119.923 31.2357 120.497 33.9201 121.706 36.3376C124.455 41.7766 123.807 48.5365 120.046 53.1985L119.424 53.9755ZM151.996 53.9755L156.56 18.2595L154.926 20.9013C153.519 23.2092 152.721 25.8361 152.608 28.5359C152.495 31.2357 153.069 33.9201 154.278 36.3376C157.027 41.7766 156.379 48.5365 152.618 53.1985L151.996 53.9755ZM166.052 53.8201L159.828 18.4149L159.05 21.497C157.701 26.8582 159.231 32.608 162.992 36.3376C167.193 40.5075 168.567 47.1379 166.415 52.8877L166.052 53.8201ZM204.926 53.8201L198.702 18.4149L197.924 21.497C196.575 26.8582 198.105 32.608 201.865 36.3376C206.067 40.5075 207.441 47.1379 205.289 52.8877L204.926 53.8201ZM209.671 53.9755L214.236 18.2595L212.602 20.9013C211.195 23.2092 210.397 25.8361 210.283 28.5359C210.17 31.2357 210.745 33.9201 211.953 36.3376C214.702 41.7766 214.054 48.5365 210.294 53.1985L209.671 53.9755ZM171.161 53.9755L175.725 18.2595L174.091 20.9013C172.684 23.2092 171.886 25.8361 171.773 28.5359C171.659 31.2357 172.234 33.9201 173.443 36.3376C176.192 41.7766 175.543 48.5365 171.783 53.1985L171.161 53.9755ZM184.309 53.9755L188.873 18.2595L187.239 20.9013C185.832 23.2092 185.034 25.8361 184.921 28.5359C184.807 31.2357 185.382 33.9201 186.591 36.3376C189.34 41.7766 188.691 48.5365 184.931 53.1985L184.309 53.9755Z" fill="white" stroke="#1A1A1A" stroke-width="0.302914" stroke-linecap="round" stroke-linejoin="round"/>
<path d="M253.629 -37.27H367.32V0.259014H253.629V-37.27Z" fill="white" stroke="#1A1A1A" stroke-width="0.302914" stroke-linejoin="round"/>
<path d="M279.276 85.1849L280.988 92.3332L308.088 85.8583L306.377 78.7099L301.838 50.1164C289.39 49.3912 281.17 51.3596 270.381 57.6273H270.355C270.355 57.6273 279.302 85.1849 279.302 85.2108L279.276 85.1849Z" fill="white"/>
<path d="M301.811 50.1164C289.363 49.3912 281.142 51.3596 270.354 57.6273H270.328L279.171 85.159L306.375 78.6581L301.811 50.1164Z" stroke="#1A1A1A" stroke-width="0.302914" stroke-miterlimit="10"/>
<path d="M292.217 79.2798C305.08 76.1977 306.247 78.1143 306.377 78.71L308.088 85.8583L280.988 92.3333L279.277 85.1849C279.147 84.6151 279.329 82.3618 292.217 79.3056V79.2798Z" stroke="#1A1A1A" stroke-width="0.302914" stroke-linejoin="round"/>
<path d="M280.911 92.3592C277.773 93.1103 269.319 77.5185 264.833 60.4246C264.625 59.6476 265.118 58.8706 265.896 58.6893L270.331 57.6273L279.174 85.1331L280.911 92.3592ZM308.089 85.8583C311.227 85.1072 311.694 67.3916 307.96 50.1164C307.92 49.9303 307.842 49.7543 307.732 49.5991C307.622 49.4438 307.481 49.3125 307.319 49.2132C307.156 49.1139 306.975 49.0486 306.787 49.0214C306.598 48.9941 306.406 49.0053 306.222 49.0545L301.788 50.1164L306.352 78.6581L308.089 85.8842V85.8583Z" fill="white" stroke="#1A1A1A" stroke-width="0.302914" stroke-miterlimit="10"/>
<path d="M238.432 14.5817H367.294V52.1107H238.432V14.5817Z" fill="white" stroke="#1A1A1A" stroke-width="0.302914" stroke-linejoin="round"/>
<path d="M281.041 24.0844L279.431 35.3402C279.326 36.0766 279.838 36.7587 280.575 36.8639L297.185 39.2337C297.923 39.3389 298.606 38.8273 298.711 38.091L300.321 26.8351C300.426 26.0988 299.914 25.4166 299.177 25.3114L282.567 22.9416C281.829 22.8364 281.146 23.348 281.041 24.0844Z" fill="white" stroke="#1A1A1A" stroke-width="0.302914" stroke-linejoin="round"/>
<path d="M289.911 32.6598C290.799 32.6598 291.518 31.9408 291.518 31.054C291.518 30.1671 290.799 29.4482 289.911 29.4482C289.023 29.4482 288.303 30.1671 288.303 31.054C288.303 31.9408 289.023 32.6598 289.911 32.6598Z" fill="white" stroke="#1A1A1A" stroke-width="0.302914" stroke-linejoin="round"/>
<path d="M306.948 39.6787C306.553 39.6866 306.166 39.5675 305.844 39.339C305.522 39.1105 305.282 38.7847 305.159 38.4096C305.002 37.9335 305.03 37.4159 305.237 36.9592L307.026 33.3073C307.244 32.859 307.631 32.5149 308.102 32.3499C308.573 32.185 309.091 32.2125 309.542 32.4267C310.475 32.8929 310.864 34.0066 310.423 34.939L308.634 38.5909C308.323 39.2384 307.674 39.6528 306.948 39.6528V39.6787Z" fill="white"/>
<path d="M308.738 32.5822C309 32.5859 309.256 32.6549 309.485 32.783C309.713 32.9112 309.905 33.0943 310.045 33.3157C310.184 33.5371 310.265 33.7898 310.282 34.0507C310.298 34.3116 310.249 34.5725 310.138 34.8095L308.375 38.4614C308.287 38.6459 308.164 38.8111 308.012 38.9476C307.86 39.0841 307.682 39.1891 307.489 39.2566C307.296 39.324 307.092 39.3525 306.888 39.3405C306.684 39.3285 306.484 39.2762 306.3 39.1866C305.932 39.0051 305.649 38.6863 305.513 38.2989C305.378 37.9114 305.399 37.4862 305.574 37.1147L307.338 33.4628C307.597 32.9189 308.142 32.5822 308.738 32.5822ZM308.738 31.9347C307.908 31.9347 307.13 32.4008 306.741 33.1778L304.978 36.8297C304.812 37.1655 304.735 37.5379 304.753 37.9118C304.77 38.2857 304.883 38.649 305.08 38.9675C305.277 39.2859 305.552 39.5492 305.879 39.7325C306.206 39.9158 306.574 40.0132 306.949 40.0155C307.779 40.0155 308.557 39.5492 308.946 38.7722L310.709 35.1203C310.875 34.7845 310.952 34.4122 310.934 34.0383C310.916 33.6643 310.804 33.3011 310.607 32.9826C310.41 32.6641 310.135 32.4009 309.808 32.2176C309.481 32.0343 309.113 31.937 308.738 31.9347Z" fill="#1A1A1A"/>
<path d="M308.968 33.6699L308.371 34.9131" stroke="#1A1A1A" stroke-width="0.302914" stroke-miterlimit="10" stroke-linecap="round"/>
<path d="M399.709 203.081C399.709 203.703 400.228 204.195 400.876 204.195H450.771C451.42 204.195 451.938 203.703 451.938 203.081V192.178C451.938 192.178 451.861 192.022 451.731 191.893C451.835 191.711 451.938 191.53 451.938 191.297V143.589C451.938 142.968 447.322 140.145 425.824 140.145C404.325 140.145 399.709 142.968 399.709 143.589V191.297C399.709 191.504 399.787 191.711 399.916 191.893C399.787 191.996 399.709 192.1 399.709 192.178V203.081Z" fill="white"/>
<path d="M425.824 140.145C447.322 140.145 451.938 142.968 451.938 143.589V191.297C451.938 191.919 451.42 192.411 450.771 192.411H400.876C400.228 192.411 399.709 191.919 399.709 191.297V143.589C399.709 142.968 404.325 140.145 425.824 140.145Z" stroke="#1A1A1A" stroke-width="0.302914" stroke-miterlimit="10"/>
<path d="M425.824 188.733C447.322 188.733 451.938 191.556 451.938 192.178V203.081C451.938 203.703 451.42 204.195 450.771 204.195H400.876C400.228 204.195 399.709 203.703 399.709 203.081V192.178C399.709 191.556 404.325 188.733 425.824 188.733Z" stroke="#1A1A1A" stroke-width="0.302914" stroke-miterlimit="10"/>
<path d="M452.094 203.081C452.094 203.703 452.612 204.195 453.261 204.195H503.156C503.805 204.195 504.323 203.703 504.323 203.081V192.178C504.323 192.178 504.245 192.022 504.116 191.893C504.219 191.711 504.323 191.53 504.323 191.297V143.589C504.323 142.968 499.707 140.145 478.208 140.145C456.71 140.145 452.094 142.968 452.094 143.589V191.297C452.094 191.504 452.172 191.711 452.301 191.893C452.172 191.996 452.094 192.1 452.094 192.178V203.081Z" fill="white"/>
<path d="M478.208 140.145C499.707 140.145 504.323 142.968 504.323 143.589V191.297C504.323 191.919 503.805 192.411 503.156 192.411H453.261C452.612 192.411 452.094 191.919 452.094 191.297V143.589C452.094 142.968 456.71 140.145 478.208 140.145Z" stroke="#1A1A1A" stroke-width="0.302914" stroke-miterlimit="10"/>
<path d="M478.208 188.733C499.707 188.733 504.323 191.556 504.323 192.178V203.081C504.323 203.703 503.805 204.195 503.156 204.195H453.261C452.612 204.195 452.094 203.703 452.094 203.081V192.178C452.094 191.556 456.71 188.733 478.208 188.733Z" stroke="#1A1A1A" stroke-width="0.302914" stroke-miterlimit="10"/>
<path d="M521.076 143.563H504.894C504.493 143.563 504.168 143.888 504.168 144.289V203.47C504.168 203.87 504.493 204.195 504.894 204.195H521.076C521.477 204.195 521.803 203.87 521.803 203.47V144.289C521.803 143.888 521.477 143.563 521.076 143.563Z" fill="white" stroke="#1A1A1A" stroke-width="0.302914" stroke-miterlimit="10"/>
<path d="M398.983 143.563H382.8C382.399 143.563 382.074 143.888 382.074 144.289V203.47C382.074 203.87 382.399 204.195 382.8 204.195H398.983C399.384 204.195 399.709 203.87 399.709 203.47V144.289C399.709 143.888 399.384 143.563 398.983 143.563Z" fill="white" stroke="#1A1A1A" stroke-width="0.302914" stroke-miterlimit="10"/>
<path d="M400.592 171.483L400.281 175.368L395.017 188.94L392.164 192.514L397.403 192.126L405.961 192.67C408.087 192.799 410.188 193.058 412.262 193.421L420.872 194.923L426.007 196.503L424.918 192.644H424.866L425.436 179.176H425.462L426.526 175.653L422.428 176.016L415.452 175.446C413.741 175.317 412.081 175.032 410.447 174.669L403.99 173.089L400.592 171.458V171.483Z" fill="white" stroke="#1A1A1A" stroke-width="0.302914" stroke-linecap="round" stroke-linejoin="round"/>
<path d="M400.824 182.206L400.281 175.368" stroke="#1A1A1A" stroke-width="0.302914" stroke-linecap="round" stroke-linejoin="round"/>
<path d="M424.919 192.644L420.848 179.435C420.848 179.435 425.645 182.284 424.349 190.779" fill="white"/>
<path d="M424.919 192.644L420.848 179.435C420.848 179.435 425.645 182.284 424.349 190.779" stroke="#1A1A1A" stroke-width="0.302914" stroke-linecap="round" stroke-linejoin="round"/>
<path d="M397.428 192.1L406.089 191.012" stroke="#1A1A1A" stroke-width="0.302914" stroke-linecap="round" stroke-linejoin="round"/>
<path d="M404.249 162.47L403.186 165.164L396.547 173.763L393.746 175.731L397.558 176.482L403.523 178.528C405.001 179.046 406.427 179.642 407.828 180.315L413.611 183.087L416.93 185.211L416.982 182.258H416.956L420.25 172.804L421.754 170.499L418.772 169.955L413.948 168.194C412.781 167.754 411.64 167.236 410.551 166.64L406.298 164.257L404.223 162.444L404.249 162.47Z" fill="white" stroke="#1A1A1A" stroke-width="0.302914" stroke-linecap="round" stroke-linejoin="round"/>
<path d="M403.183 165.164L401.99 175.084C401.99 175.084 398.697 170.966 403.079 165.993" fill="white"/>
<path d="M403.183 165.164L401.99 175.084C401.99 175.084 398.697 170.966 403.079 165.993" stroke="#1A1A1A" stroke-width="0.302914" stroke-linecap="round" stroke-linejoin="round"/>
<path d="M416.981 182.284L416.929 174.099M397.557 176.508L403.936 177.441" stroke="#1A1A1A" stroke-width="0.302914" stroke-linecap="round" stroke-linejoin="round"/>
<path d="M504.845 142.294V52.0329C504.845 51.7221 503.678 50.8674 499.788 50.0904C498.828 49.8832 497.687 49.7019 496.339 49.5206C492.345 49.0026 486.588 48.5883 478.419 48.5883C471.624 48.5883 466.489 48.8731 462.651 49.2616C458.813 49.6501 456.272 50.1681 454.638 50.6602C454.223 50.7897 453.886 50.9193 453.575 51.0229C452.434 51.4632 451.941 51.4631 451.941 51.4631C451.941 51.4631 451.189 51.2559 449.244 50.6602C447.61 50.1681 445.069 49.6501 441.23 49.2616C437.392 48.8731 432.258 48.5883 425.463 48.5883C417.32 48.5883 411.563 48.9767 407.543 49.5206C406.221 49.7019 405.08 49.8832 404.094 50.0904C400.204 50.8674 399.037 51.748 399.037 52.0329V142.294" stroke="#1A1A1A" stroke-width="0.302914" stroke-linecap="round" stroke-linejoin="round"/>
<path d="M377.123 13.8564H527.976V40.1449H377.123V13.8564Z" fill="white" stroke="#1A1A1A" stroke-width="0.302914" stroke-linejoin="round"/>
<path d="M439.39 126.677C451.693 126.677 461.667 116.716 461.667 104.429C461.667 92.1413 451.693 82.1805 439.39 82.1805C427.087 82.1805 417.113 92.1413 417.113 104.429C417.113 116.716 427.087 126.677 439.39 126.677Z" fill="white" stroke="#1A1A1A" stroke-width="0.302914" stroke-miterlimit="10"/>
<path d="M466.825 117.353C476.55 117.353 484.434 109.479 484.434 99.7665C484.434 90.054 476.55 82.1805 466.825 82.1805C457.1 82.1805 449.217 90.054 449.217 99.7665C449.217 109.479 457.1 117.353 466.825 117.353Z" fill="white" stroke="#1A1A1A" stroke-width="0.302914" stroke-miterlimit="10"/>
<path d="M433.371 100.544C434.352 100.544 435.324 100.737 436.23 101.112C437.136 101.487 437.96 102.037 438.654 102.73C439.347 103.423 439.897 104.246 440.273 105.151C440.648 106.056 440.841 107.027 440.841 108.007C440.841 108.987 440.647 109.957 440.272 110.862C439.896 111.767 439.346 112.59 438.652 113.282C437.958 113.975 437.134 114.525 436.228 114.9C435.321 115.274 434.35 115.467 433.368 115.467C431.387 115.467 429.487 114.68 428.086 113.281C426.685 111.881 425.898 109.983 425.898 108.004C425.899 106.025 426.686 104.127 428.088 102.728C429.489 101.329 431.389 100.543 433.371 100.544ZM433.371 99.8961C428.885 99.8961 425.254 103.522 425.254 108.003C425.254 112.483 428.885 116.109 433.371 116.109C437.857 116.109 441.488 112.483 441.488 108.003C441.488 103.522 437.857 99.8961 433.371 99.8961Z" fill="#1A1A1A"/>
<path d="M433.343 104.506C434.614 104.506 435.807 105.206 436.403 106.319C436.87 107.148 436.974 108.08 436.714 108.987C436.455 109.893 435.859 110.645 435.055 111.085C434.653 111.307 434.212 111.448 433.755 111.5C433.299 111.551 432.837 111.512 432.396 111.384C431.955 111.257 431.543 111.043 431.185 110.756C430.827 110.469 430.529 110.115 430.309 109.712C429.842 108.883 429.738 107.951 429.998 107.044C430.257 106.138 430.854 105.387 431.657 104.947C432.176 104.662 432.773 104.506 433.369 104.506M433.369 103.859C432.695 103.859 431.995 104.014 431.346 104.377C429.349 105.49 428.623 108.003 429.738 110.023C430.491 111.396 431.917 112.147 433.369 112.147C434.043 112.147 434.744 111.991 435.392 111.629C437.389 110.515 438.115 108.003 437 105.983C436.248 104.61 434.821 103.859 433.369 103.859Z" fill="#1A1A1A"/>
<path d="M435.343 111.577L436.406 113.494M429.404 112.613L432.853 118.958" stroke="#1A1A1A" stroke-width="0.302914" stroke-miterlimit="10" stroke-linecap="round"/>
<path d="M429.451 112.508C429.917 112.256 429.93 111.378 429.479 110.548C429.029 109.718 428.286 109.25 427.82 109.502C427.354 109.754 427.342 110.631 427.792 111.461C428.242 112.292 428.985 112.76 429.451 112.508Z" stroke="#1A1A1A" stroke-width="0.302914" stroke-miterlimit="10" stroke-linecap="round"/>
<path d="M429.064 19.2695C445.169 17.068 461.481 17.068 477.585 19.2695L494.727 21.6264H411.896L429.038 19.2695H429.064Z" fill="white" stroke="#1A1A1A" stroke-width="0.302914" stroke-miterlimit="10"/>
<path d="M410.809 21.6265V24.6568H495.895V21.6265H410.809Z" fill="white" stroke="#1A1A1A" stroke-width="0.302914" stroke-linejoin="round"/>
<path d="M438.975 37.0888L448.285 26.936C451.085 23.8798 455.624 23.8798 458.425 26.936L467.735 37.0888" stroke="#1A1A1A" stroke-width="0.302914" stroke-miterlimit="10" stroke-linecap="round"/>
<path d="M446.132 254.519H465.556C466.409 254.516 467.252 254.697 468.027 255.05C468.803 255.404 469.493 255.92 470.05 256.565C470.606 257.21 471.017 257.967 471.253 258.785C471.489 259.603 471.545 260.463 471.417 261.305L469.135 276.43C468.765 278.87 467.53 281.096 465.655 282.703C463.779 284.31 461.388 285.19 458.917 285.184H452.745C450.282 285.184 447.896 284.304 446.003 282.698C444.109 281.092 442.891 278.865 442.527 276.43L440.245 261.305C439.986 259.595 440.479 257.86 441.62 256.565C442.761 255.27 444.395 254.519 446.106 254.519H446.132Z" fill="white" stroke="#1A1A1A" stroke-width="0.302914" stroke-miterlimit="10"/>
<path d="M442.553 276.43H469.134L466.411 277.388C459.586 279.823 452.127 279.823 445.302 277.388L442.579 276.43H442.553Z" stroke="#1A1A1A" stroke-width="0.302914" stroke-linejoin="round"/>
<path d="M411.666 252.939L430.286 258.456C431.946 258.948 433.294 260.139 433.994 261.693C434.695 263.247 434.695 265.06 433.943 266.614L427.459 280.47C426.422 282.698 424.581 284.485 422.35 285.495C420.094 286.505 417.553 286.686 415.193 285.961L409.28 284.2C406.911 283.498 404.874 281.969 403.54 279.891C402.207 277.813 401.667 275.325 402.019 272.882L404.145 257.73C404.379 256.021 405.364 254.519 406.816 253.586C408.269 252.654 410.058 252.395 411.718 252.887L411.666 252.939Z" fill="white" stroke="#1A1A1A" stroke-width="0.302914" stroke-miterlimit="10"/>
<path d="M401.967 272.934L427.459 280.496L424.555 280.626C417.216 280.988 410.265 278.916 404.327 274.617L401.967 272.934Z" stroke="#1A1A1A" stroke-width="0.302914" stroke-linejoin="round"/>
<path d="M483.343 254.519H502.767C503.62 254.516 504.463 254.697 505.238 255.05C506.014 255.404 506.704 255.92 507.261 256.565C507.817 257.21 508.228 257.967 508.464 258.785C508.7 259.603 508.756 260.463 508.628 261.305L506.346 276.43C505.976 278.87 504.741 281.096 502.865 282.703C500.99 284.31 498.599 285.19 496.128 285.184H489.956C487.492 285.184 485.107 284.304 483.213 282.698C481.32 281.092 480.101 278.865 479.738 276.43L477.456 261.305C477.197 259.595 477.69 257.86 478.831 256.565C479.972 255.27 481.606 254.519 483.317 254.519H483.343Z" fill="white" stroke="#1A1A1A" stroke-width="0.302914" stroke-miterlimit="10"/>
<path d="M479.764 276.43H506.345L503.622 277.388C496.797 279.823 489.338 279.823 482.513 277.388L479.79 276.43H479.764Z" stroke="#1A1A1A" stroke-width="0.302914" stroke-linejoin="round"/>
<path d="M393.225 214.296H513.451V258.119H393.225V214.296Z" fill="white" stroke="#1A1A1A" stroke-width="0.302914" stroke-miterlimit="10"/>
<path d="M449.708 237.839H459.485C461.223 237.839 462.623 239.238 462.623 240.973V250.737C462.623 252.473 461.223 253.871 459.485 253.871H449.708C447.971 253.871 446.57 252.473 446.57 250.737V240.973C446.57 239.238 447.971 237.839 449.708 237.839Z" fill="white"/>
<path d="M459.486 238.02C461.119 238.02 462.442 239.341 462.442 240.973V250.737C462.442 252.369 461.119 253.69 459.486 253.69H449.709C448.075 253.69 446.752 252.369 446.752 250.737V240.973C446.752 239.341 448.075 238.02 449.709 238.02H459.486ZM459.486 237.632H449.709C447.867 237.632 446.363 239.134 446.363 240.973V250.737C446.363 252.576 447.867 254.078 449.709 254.078H459.486C461.327 254.078 462.831 252.576 462.831 250.737V240.973C462.831 239.134 461.327 237.632 459.486 237.632Z" fill="#1A1A1A"/>
<path d="M457.103 240.196H452.071C450.338 240.196 448.934 241.599 448.934 243.33V248.355C448.934 250.085 450.338 251.488 452.071 251.488H457.103C458.836 251.488 460.24 250.085 460.24 248.355V243.33C460.24 241.599 458.836 240.196 457.103 240.196Z" fill="white"/>
<path d="M457.101 240.403C458.735 240.403 460.057 241.724 460.057 243.356V248.38C460.057 250.012 458.735 251.333 457.101 251.333H452.07C450.436 251.333 449.114 250.012 449.114 248.38V243.356C449.114 241.724 450.436 240.403 452.07 240.403H457.101ZM457.101 240.015H452.07C450.229 240.015 448.725 241.517 448.725 243.356V248.38C448.725 250.219 450.229 251.722 452.07 251.722H457.101C458.942 251.722 460.446 250.219 460.446 248.38V243.356C460.446 241.517 458.942 240.015 457.101 240.015Z" fill="#1A1A1A"/>
<path d="M467.524 254.078V238.15C467.524 238.15 465.397 238.953 465.838 246.075C468.069 245.998 465.838 254.078 465.838 254.078H467.524ZM441.798 238.279C441.798 238.279 441.02 244.107 442.965 244.107V238.279M444.132 238.279C444.132 238.279 444.91 244.107 442.965 244.107V238.279M442.965 244.107C442.965 244.107 442.083 252.732 442.083 253.509C442.083 254.312 442.965 254.182 442.965 254.182C442.965 254.182 443.847 254.286 443.847 253.509C443.847 252.732 442.965 244.107 442.965 244.107Z" fill="white"/>
<path d="M441.798 238.279C441.798 238.279 441.02 244.107 442.965 244.107M442.965 244.107V238.279M442.965 244.107C444.91 244.107 444.132 238.279 444.132 238.279M442.965 244.107C442.965 244.107 442.083 252.732 442.083 253.509C442.083 254.312 442.965 254.182 442.965 254.182C442.965 254.182 443.847 254.286 443.847 253.509C443.847 252.732 442.965 244.107 442.965 244.107ZM467.524 254.078V238.15C467.524 238.15 465.397 238.953 465.838 246.075C468.069 245.998 465.838 254.078 465.838 254.078H467.524Z" stroke="#1A1A1A" stroke-width="0.181748" stroke-linecap="round" stroke-linejoin="round"/>
<path d="M488.611 237.839H498.387C500.125 237.839 501.525 239.238 501.525 240.973V250.737C501.525 252.473 500.125 253.871 498.387 253.871H488.611C486.873 253.871 485.473 252.473 485.473 250.737V240.973C485.473 239.238 486.873 237.839 488.611 237.839Z" fill="white"/>
<path d="M498.386 238.02C500.02 238.02 501.342 239.341 501.342 240.973V250.737C501.342 252.369 500.02 253.69 498.386 253.69H488.609C486.975 253.69 485.653 252.369 485.653 250.737V240.973C485.653 239.341 486.975 238.02 488.609 238.02H498.386ZM498.386 237.632H488.609C486.768 237.632 485.264 239.134 485.264 240.973V250.737C485.264 252.576 486.768 254.078 488.609 254.078H498.386C500.227 254.078 501.731 252.576 501.731 250.737V240.973C501.731 239.134 500.227 237.632 498.386 237.632Z" fill="#1A1A1A"/>
<path d="M495.997 240.196H490.966C489.233 240.196 487.828 241.599 487.828 243.33V248.355C487.828 250.085 489.233 251.488 490.966 251.488H495.997C497.73 251.488 499.135 250.085 499.135 248.355V243.33C499.135 241.599 497.73 240.196 495.997 240.196Z" fill="white"/>
<path d="M496.001 240.403C497.635 240.403 498.958 241.724 498.958 243.356V248.38C498.958 250.012 497.635 251.333 496.001 251.333H490.97C489.337 251.333 488.014 250.012 488.014 248.38V243.356C488.014 241.724 489.337 240.403 490.97 240.403H496.001ZM496.001 240.015H490.97C489.129 240.015 487.625 241.517 487.625 243.356V248.38C487.625 250.219 489.129 251.722 490.97 251.722H496.001C497.843 251.722 499.347 250.219 499.347 248.38V243.356C499.347 241.517 497.843 240.015 496.001 240.015Z" fill="#1A1A1A"/>
<path d="M506.424 254.078V238.15C506.424 238.15 504.298 238.953 504.739 246.075C506.969 245.998 504.739 254.078 504.739 254.078H506.424ZM480.699 238.279C480.699 238.279 479.921 244.107 481.866 244.107V238.279M483.033 238.279C483.033 238.279 483.811 244.107 481.866 244.107V238.279M481.866 244.107C481.866 244.107 480.984 252.732 480.984 253.509C480.984 254.312 481.866 254.182 481.866 254.182C481.866 254.182 482.747 254.286 482.747 253.509C482.747 252.706 481.866 244.107 481.866 244.107Z" fill="white"/>
<path d="M480.699 238.279C480.699 238.279 479.921 244.107 481.866 244.107M481.866 244.107V238.279M481.866 244.107C483.811 244.107 483.033 238.279 483.033 238.279M481.866 244.107C481.866 244.107 480.984 252.732 480.984 253.509C480.984 254.312 481.866 254.182 481.866 254.182C481.866 254.182 482.747 254.286 482.747 253.509C482.747 252.706 481.866 244.107 481.866 244.107ZM506.424 254.078V238.15C506.424 238.15 504.298 238.953 504.739 246.075C506.969 245.998 504.739 254.078 504.739 254.078H506.424Z" stroke="#1A1A1A" stroke-width="0.181748" stroke-linecap="round" stroke-linejoin="round"/>
<path d="M136.125 184.149H104.019C103.203 184.149 102.541 184.81 102.541 185.625V203.522C102.541 204.337 103.203 204.998 104.019 204.998H136.125C136.941 204.998 137.603 204.337 137.603 203.522V185.625C137.603 184.81 136.941 184.149 136.125 184.149Z" fill="white" stroke="#1A1A1A" stroke-width="0.302914" stroke-miterlimit="10"/>
<path d="M130.445 199.248C130.445 199.248 129.2 199.248 129.019 200.673M130.575 199.248C130.575 199.248 131.82 199.248 132.001 197.824M130.497 199.3C130.497 199.3 130.497 200.543 131.923 200.725M130.497 199.197C130.497 199.197 130.497 197.953 129.071 197.772M119.787 199.197C119.787 199.197 118.542 199.196 118.36 200.621M119.89 199.197C119.89 199.197 121.135 199.197 121.317 197.772M119.838 199.248C119.838 199.248 119.838 200.492 121.265 200.673M119.838 199.145C119.838 199.145 119.838 197.901 118.412 197.72M109.102 199.248C109.102 199.248 107.857 199.248 107.676 200.673M109.206 199.248C109.206 199.248 110.451 199.248 110.632 197.824M109.154 199.3C109.154 199.3 109.154 200.543 110.58 200.725M109.154 199.197C109.154 199.197 109.154 197.953 107.728 197.772M130.445 190.106C130.445 190.106 129.2 190.106 129.019 191.53M130.575 190.106C130.575 190.106 131.82 190.106 132.001 188.681M130.497 190.183C130.497 190.183 130.497 191.427 131.923 191.608M130.497 190.054C130.497 190.054 130.497 188.811 129.071 188.629M119.787 190.054C119.787 190.054 118.542 190.054 118.36 191.478M119.89 190.054C119.89 190.054 121.135 190.054 121.317 188.629M119.838 190.106C119.838 190.106 119.838 191.349 121.265 191.53M119.838 190.002C119.838 190.002 119.838 188.759 118.412 188.578M109.102 190.106C109.102 190.106 107.857 190.106 107.676 191.53M109.206 190.106C109.206 190.106 110.451 190.106 110.632 188.681M109.154 190.183C109.154 190.183 109.154 191.427 110.58 191.608M109.154 190.054C109.154 190.054 109.154 188.811 107.728 188.629" stroke="#1A1A1A" stroke-width="0.302914" stroke-miterlimit="10" stroke-linecap="round"/>
<path d="M396.832 336.181H538.79V380.004H396.832V336.181Z" fill="white" stroke="#1A1A1A" stroke-width="0.302914" stroke-miterlimit="10"/>
<path d="M538.788 358.093H396.855" stroke="#1A1A1A" stroke-width="0.302914" stroke-miterlimit="10"/>
<path d="M499.036 340.014L505.26 375.42L506.038 372.338C507.386 366.976 505.856 361.226 502.096 357.497C497.895 353.327 496.52 346.697 498.673 340.947L499.036 340.014ZM495.665 339.859L491.1 375.575L492.734 372.933C495.587 368.323 495.846 362.366 493.382 357.497C490.634 352.058 491.282 345.298 495.042 340.636L495.665 339.859ZM515.114 339.859L510.55 375.575L512.184 372.933C515.037 368.323 515.296 362.366 512.832 357.497C510.083 352.058 510.732 345.298 514.492 340.636L515.114 339.859ZM482.516 339.859L477.952 375.575L479.586 372.933C482.439 368.323 482.698 362.366 480.234 357.497C477.485 352.058 478.134 345.298 481.894 340.636L482.516 339.859ZM468.461 340.014L474.685 375.42L475.463 372.338C476.811 366.976 475.281 361.226 471.521 357.497C467.32 353.327 465.945 346.697 468.098 340.947L468.461 340.014ZM429.613 340.014L435.837 375.42L436.615 372.338C437.963 366.976 436.433 361.226 432.673 357.497C428.472 353.327 427.097 346.697 429.25 340.947L429.613 340.014ZM424.867 339.859L420.303 375.575L421.937 372.933C424.789 368.323 425.049 362.366 422.585 357.497C419.836 352.058 420.484 345.298 424.245 340.636L424.867 339.859ZM463.378 339.859L458.814 375.575L460.447 372.933C463.3 368.323 463.559 362.366 461.096 357.497C458.347 352.058 458.995 345.298 462.755 340.636L463.378 339.859ZM450.23 339.859L445.665 375.575L447.299 372.933C450.152 368.323 450.411 362.366 447.948 357.497C445.199 352.058 445.847 345.298 449.607 340.636L450.23 339.859Z" fill="white" stroke="#1A1A1A" stroke-width="0.302914" stroke-linecap="round" stroke-linejoin="round"/>
</g>
<g opacity="0.7">
<path d="M238.922 209.738H282.801V379.382H238.922V209.738Z" fill="white" stroke="#1A1A1A" stroke-width="0.302914" stroke-miterlimit="10"/>
<path d="M238.324 336.181H396.517V380.004H238.324V336.181Z" fill="white" stroke="#1A1A1A" stroke-width="0.302914" stroke-miterlimit="10"/>
<path d="M352.637 336.181H396.516V380.004H352.637V336.181Z" fill="white" stroke="#1A1A1A" stroke-width="0.302914" stroke-linejoin="round"/>
<path d="M352.637 338.538H396.516" stroke="#1A1A1A" stroke-width="0.302914" stroke-miterlimit="10"/>
<path d="M383.966 357.756H365.19M374.578 348.406V367.132M374.578 348.406C373.307 348.406 372.27 347.37 372.27 346.101M374.578 348.406C375.849 348.406 376.886 347.37 376.886 346.101M374.578 367.132C375.849 367.132 376.886 368.168 376.886 369.437M374.578 367.132C373.307 367.132 372.27 368.168 372.27 369.437M381.217 364.386L367.939 351.151M381.217 351.151L367.939 364.386M381.217 351.151C380.309 350.245 380.309 348.795 381.217 347.888M381.217 351.151C382.125 352.058 383.577 352.058 384.485 351.151M367.939 364.386C368.847 365.293 368.847 366.743 367.939 367.65M367.939 364.386C367.032 363.48 365.579 363.48 364.672 364.386M362.908 360.061C364.179 360.061 365.216 359.025 365.216 357.756C365.216 356.487 364.179 355.451 362.908 355.451M386.274 355.477C385.003 355.477 383.966 356.513 383.966 357.782C383.966 359.051 385.003 360.087 386.274 360.087M364.698 351.151C365.605 352.058 367.058 352.058 367.965 351.151C368.873 350.245 368.873 348.795 367.965 347.888M384.459 364.386C383.551 363.48 382.099 363.48 381.191 364.386C380.283 365.293 380.283 366.743 381.191 367.65" stroke="#1A1A1A" stroke-width="0.302914" stroke-miterlimit="10" stroke-linecap="round"/>
<path d="M241.826 275.731C242.604 275.731 243.227 276.352 243.227 277.129C243.227 277.906 242.604 278.528 241.826 278.528C241.048 278.528 240.426 277.906 240.426 277.129C240.426 276.352 241.048 275.731 241.826 275.731ZM241.826 265.034C242.604 265.034 243.227 265.656 243.227 266.433C243.227 267.21 242.604 267.831 241.826 267.831C241.048 267.831 240.426 267.21 240.426 266.433C240.426 265.656 241.048 265.034 241.826 265.034ZM274.269 284.77C275.15 284.77 275.876 284.071 275.876 283.19V260.372C275.876 259.491 275.15 258.792 274.269 258.792H248.361C247.48 258.792 246.753 259.491 246.753 260.372V283.19C246.753 284.071 247.48 284.77 248.361 284.77H274.269Z" fill="white" stroke="#1A1A1A" stroke-width="0.302914" stroke-miterlimit="10"/>
<path d="M257.127 269.256C258.527 269.256 259.642 270.369 259.642 271.768C259.642 273.167 258.527 274.28 257.127 274.28C255.726 274.28 254.611 273.167 254.611 271.768C254.611 270.369 255.726 269.256 257.127 269.256Z" fill="white" stroke="#1A1A1A" stroke-width="0.302914" stroke-miterlimit="10"/>
<path d="M248.206 255.814V248.251M252.537 255.814V248.251M256.867 255.814V248.251M261.198 255.814V248.251M265.529 255.814V248.251M269.86 255.814V248.251M274.191 255.814V248.251M240.426 271.794H254.196" stroke="#1A1A1A" stroke-width="0.302914" stroke-miterlimit="10" stroke-linecap="round"/>
<path d="M300.252 336.155H325.459V379.978H300.252V336.155Z" fill="white" stroke="#1A1A1A" stroke-width="0.302914" stroke-linejoin="round"/>
<path d="M312.807 373.736C316.531 373.736 319.55 370.721 319.55 367.002C319.55 363.283 316.531 360.268 312.807 360.268C309.083 360.268 306.064 363.283 306.064 367.002C306.064 370.721 309.083 373.736 312.807 373.736Z" stroke="#1A1A1A" stroke-width="0.302914" stroke-miterlimit="10"/>
<path d="M312.807 355.839C316.531 355.839 319.55 352.824 319.55 349.105C319.55 345.386 316.531 342.371 312.807 342.371C309.083 342.371 306.064 345.386 306.064 349.105C306.064 352.824 309.083 355.839 312.807 355.839Z" stroke="#1A1A1A" stroke-width="0.302914" stroke-miterlimit="10"/>
<path d="M312.805 368.297V371.612M312.805 362.599V365.888M314.024 367.106H317.318M308.293 367.106H311.612M312.805 350.4V353.716M312.805 344.702V347.992M314.024 349.209H317.318M308.293 349.209H311.612" stroke="#1A1A1A" stroke-width="0.302914" stroke-miterlimit="10" stroke-linecap="round"/>
<path d="M238.898 209.349H282.777V240.015H238.898V209.349Z" fill="white" stroke="#1A1A1A" stroke-width="0.302914" stroke-linecap="round" stroke-linejoin="round"/>
<path d="M263.171 219.165C259.514 219.165 254.82 220.927 254.82 220.927V228.567C254.82 228.567 259.514 230.328 263.171 230.328C266.827 230.328 268.72 227.894 268.824 224.863V224.604C268.746 221.574 266.75 219.139 263.171 219.139V219.165Z" stroke="#1A1A1A" stroke-width="0.302914" stroke-linecap="round" stroke-linejoin="round"/>
<path d="M256.011 222.377C257.204 222.377 258.164 221.548 258.164 220.512C258.164 219.476 257.204 218.647 256.011 218.647C254.818 218.647 252.303 220.512 252.303 220.512C252.303 220.512 254.818 222.377 256.011 222.377Z" fill="white" stroke="#1A1A1A" stroke-width="0.302914" stroke-linecap="round" stroke-linejoin="round"/>
<path d="M268.848 224.734H274.216M274.216 220.409V229.059M249.683 219.295C250.876 219.295 251.836 218.466 251.836 217.43C251.836 216.394 250.876 215.565 249.683 215.565C248.49 215.565 245.975 217.43 245.975 217.43C245.975 217.43 248.49 219.295 249.683 219.295ZM249.683 225.355C250.876 225.355 251.836 224.527 251.836 223.491C251.836 222.455 250.876 221.626 249.683 221.626C248.49 221.626 245.975 223.491 245.975 223.491C245.975 223.491 248.49 225.355 249.683 225.355Z" stroke="#1A1A1A" stroke-width="0.302914" stroke-linecap="round" stroke-linejoin="round"/>
<path d="M278.188 394.767H481.815V438.59H278.188V394.767Z" fill="white" stroke="#1A1A1A" stroke-width="0.302914" stroke-miterlimit="10"/>
<path d="M482.151 394.767H526.03V438.59H482.151V394.767ZM415.658 394.715H440.865V438.538H415.658V394.715Z" fill="white" stroke="#1A1A1A" stroke-width="0.302914" stroke-linejoin="round"/>
<path d="M342.627 394.793H373.332V438.616H342.627V394.793Z" fill="white" stroke="#1A1A1A" stroke-width="0.302914" stroke-linecap="round" stroke-linejoin="round"/>
</g>
<g opacity="0.7">
<path d="M229.329 242.708H232.597M229.329 222.066H232.597M228.201 248.044C227.962 248.042 227.734 247.945 227.566 247.775C227.399 247.605 227.305 247.376 227.307 247.137V217.663C227.307 217.163 227.706 216.757 228.201 216.757C228.694 216.757 229.096 217.163 229.096 217.663V247.137C229.096 247.637 228.697 248.044 228.201 248.044Z" stroke="#1A1A1A" stroke-width="0.302914" stroke-miterlimit="10" stroke-linecap="round"/>
<path d="M96.6543 394.145H159.465V526.831H96.6543V394.145Z" fill="white" stroke="#1A1A1A" stroke-width="0.302914" stroke-linejoin="round"/>
<path d="M114.754 394.845H141.335V402.951H114.754V394.845Z" fill="white" stroke="#1A1A1A" stroke-width="0.302914" stroke-linecap="round" stroke-linejoin="round"/>
<path d="M128.059 394.845V415.15" stroke="#1A1A1A" stroke-width="0.302914" stroke-linecap="round" stroke-linejoin="round"/>
<path d="M181.197 394.145H208.972V403.599H181.197V394.145Z" fill="white" stroke="#1A1A1A" stroke-width="0.302914" stroke-linecap="round" stroke-linejoin="round"/>
<path d="M228.212 394.586H272.091V438.408H228.212V394.586ZM197.715 250.038H232.388V320.253H197.715V250.038Z" fill="white" stroke="#1A1A1A" stroke-width="0.302914" stroke-linejoin="round"/>
<path d="M222.714 266.692H202.824C202.423 266.692 202.098 267.016 202.098 267.417V302.382C202.098 302.782 202.423 303.107 202.824 303.107H222.714C223.116 303.107 223.441 302.782 223.441 302.382V267.417C223.441 267.016 223.116 266.692 222.714 266.692Z" fill="white" stroke="#1A1A1A" stroke-width="0.302914" stroke-miterlimit="10"/>
<path d="M212.73 272.985C214.732 272.985 216.651 273.779 218.066 275.193C219.482 276.606 220.277 278.523 220.277 280.522V289.225C220.277 291.224 219.482 293.141 218.066 294.554C216.651 295.967 214.732 296.762 212.73 296.762C210.729 296.762 208.809 295.967 207.394 294.554C205.979 293.141 205.184 291.224 205.184 289.225V280.522C205.184 278.523 205.979 276.606 207.394 275.193C208.809 273.779 210.729 272.985 212.73 272.985Z" stroke="#1A1A1A" stroke-width="0.302914" stroke-miterlimit="10"/>
<path d="M227.566 288.836C226.788 288.836 226.166 289.458 226.166 290.235C226.166 291.012 226.788 291.633 227.566 291.633C228.344 291.633 228.967 291.012 228.967 290.235C228.967 289.458 228.344 288.836 227.566 288.836ZM227.566 278.14C226.788 278.14 226.166 278.761 226.166 279.538C226.166 280.315 226.788 280.937 227.566 280.937C228.344 280.937 228.967 280.315 228.967 279.538C228.967 278.761 228.344 278.14 227.566 278.14Z" fill="white" stroke="#1A1A1A" stroke-width="0.302914" stroke-miterlimit="10"/>
<path d="M228.94 284.873H216.311" stroke="#1A1A1A" stroke-width="0.302914" stroke-miterlimit="10" stroke-linecap="round"/>
<path d="M96.6035 320.331H233.245V381.584H96.6035V320.331Z" fill="white" stroke="#1A1A1A" stroke-width="0.302914" stroke-linejoin="round"/>
<path d="M127.101 376.3H194.865C209.491 376.3 221.369 364.956 221.369 350.944C221.369 336.932 209.491 325.588 194.865 325.588H127.101C112.475 325.588 100.598 336.932 100.598 350.944C100.598 364.956 112.475 376.3 127.101 376.3Z" fill="white" stroke="#1A1A1A" stroke-width="0.302914" stroke-miterlimit="10"/>
<path d="M142.426 371.224H179.536C189.028 371.224 196.704 362.159 196.704 350.97C196.704 339.781 189.002 330.716 179.536 330.716H142.426C132.934 330.716 125.258 339.781 125.258 350.97C125.258 362.159 132.96 371.224 142.426 371.224Z" stroke="#1A1A1A" stroke-width="0.302914" stroke-miterlimit="10"/>
<path d="M160.192 352.757C161.238 352.757 162.085 351.946 162.085 350.944C162.085 349.943 161.238 349.131 160.192 349.131C159.146 349.131 158.299 349.943 158.299 350.944C158.299 351.946 159.146 352.757 160.192 352.757Z" stroke="#1A1A1A" stroke-width="0.302914" stroke-miterlimit="10"/>
<path d="M224.168 337.994H232.518V363.92H224.168V337.994Z" fill="white" stroke="#1A1A1A" stroke-width="0.302914" stroke-linecap="round" stroke-linejoin="round"/>
<path d="M228.475 345.842C227.36 345.842 226.479 344.987 226.479 343.925C226.479 342.863 227.386 342.009 228.475 342.009C229.565 342.009 230.472 342.863 230.472 343.925C230.472 344.987 229.565 345.842 228.475 345.842Z" stroke="#1A1A1A" stroke-width="0.302914" stroke-linecap="round" stroke-linejoin="round"/>
<path d="M228.475 360.631C227.36 360.631 226.479 359.776 226.479 358.714C226.479 357.652 227.386 356.798 228.475 356.798C229.565 356.798 230.472 357.652 230.472 358.714C230.472 359.776 229.565 360.631 228.475 360.631Z" fill="white" stroke="#1A1A1A" stroke-width="0.302914" stroke-linecap="round" stroke-linejoin="round"/>
<path d="M232.547 350.944H211.645" stroke="#1A1A1A" stroke-width="0.302914" stroke-linecap="round" stroke-linejoin="round"/>
<path d="M211.643 354.233C209.75 354.233 208.194 352.757 208.194 350.944C208.194 349.131 209.724 347.655 211.643 347.655C213.562 347.655 215.092 349.131 215.092 350.944C215.092 352.757 213.562 354.233 211.643 354.233ZM105.966 274.772H134.337C139.29 274.772 143.309 278.787 143.309 283.734V293.576C143.309 298.523 139.29 302.537 134.337 302.537H105.966V274.798V274.772ZM96.5 274.772H105.966V302.511H96.5V274.772Z" fill="white"/>
<path d="M105.966 274.772H134.337C139.29 274.772 143.309 278.787 143.309 283.734V293.576C143.309 298.523 139.29 302.537 134.337 302.537H105.966V274.798V274.772ZM105.966 274.772H96.5V302.511H105.966V274.772ZM211.643 354.233C209.75 354.233 208.194 352.757 208.194 350.944C208.194 349.131 209.724 347.655 211.643 347.655C213.562 347.655 215.092 349.131 215.092 350.944C215.092 352.757 213.562 354.233 211.643 354.233Z" stroke="#1A1A1A" stroke-width="0.302914" stroke-linecap="round" stroke-linejoin="round"/>
<path d="M101.246 282.879V294.405" stroke="#1A1A1A" stroke-width="0.302914" stroke-linecap="round" stroke-linejoin="round"/>
<path d="M96.707 213.804H140.586V257.627H96.707V213.804Z" fill="white" stroke="#1A1A1A" stroke-width="0.302914" stroke-linejoin="round"/>
<path d="M118.672 248.795C125.89 248.795 131.742 242.951 131.742 235.741C131.742 228.532 125.89 222.688 118.672 222.688C111.453 222.688 105.602 228.532 105.602 235.741C105.602 242.951 111.453 248.795 118.672 248.795Z" stroke="#1A1A1A" stroke-width="0.302914" stroke-miterlimit="10"/>
<path d="M118.671 246.412C124.572 246.412 129.355 241.635 129.355 235.741C129.355 229.848 124.572 225.07 118.671 225.07C112.77 225.07 107.986 229.848 107.986 235.741C107.986 241.635 112.77 246.412 118.671 246.412Z" stroke="#1A1A1A" stroke-width="0.302914" stroke-miterlimit="10"/>
<path d="M118.644 235.819C119.552 231.83 123.52 229.344 127.488 230.25M118.644 235.715C114.651 236.57 110.735 234.006 109.879 230.017" stroke="#1A1A1A" stroke-width="0.302914" stroke-miterlimit="10" stroke-linecap="round"/>
<path d="M118.645 235.664C120.027 237.049 120.803 238.926 120.803 240.882C120.803 242.839 120.027 244.715 118.645 246.101" stroke="#1A1A1A" stroke-width="0.302914" stroke-miterlimit="10" stroke-linecap="round"/>
</g>
<path d="M75.9874 74.1775H2.4668M151.686 207.795V149.054" stroke="#1A1A1A" stroke-width="0.605828" stroke-linecap="round" stroke-linejoin="round"/>
<path d="M2.4668 74.1775C2.4668 114.737 35.376 147.604 75.9874 147.604M210.503 207.795C210.503 175.369 184.181 149.054 151.686 149.054" stroke="#4D505F" stroke-width="0.605828" stroke-linecap="round" stroke-linejoin="round"/>
<path d="M478.182 -632.192V-393.498C478.182 -393.135 478.467 -392.85 478.83 -392.85H566.406V1081.53H-528.363V-632.192H478.182ZM478.83 -632.839H-529.012V1082.18H567.055V-393.498H478.83V-632.839Z" fill="#7F868A"/>
<path d="M458.993 -613.026V-373.684H547.218V1062.36H-509.171V-613.026H458.967M458.967 -618.206H-509.171C-512.023 -618.206 -514.357 -615.875 -514.357 -613.026V1062.36C-514.357 1065.21 -512.023 1067.54 -509.171 1067.54H547.192C550.045 1067.54 552.379 1065.21 552.379 1062.36V-373.684C552.379 -376.533 550.045 -378.864 547.192 -378.864H464.154V-613.026C464.154 -615.875 461.82 -618.206 458.967 -618.206Z" fill="#B7C8E1"/>
<path d="M-509.17 1062.36V-613.026H458.994V-373.684H547.193V1062.36H-509.17Z" stroke="#879DC4" stroke-width="0.605828" stroke-linecap="round" stroke-linejoin="round"/>
<path d="M-515.035 1068.24V-618.879H464.851V-379.538H553.075V1068.24H-515.035Z" stroke="#879DC4" stroke-width="0.605828" stroke-linecap="round" stroke-linejoin="round"/>
<path d="M553.804 339.937V428.022H539.126V339.937H553.804ZM539.126 143.9H553.804V237.14H539.126V143.9ZM553.804 -46.9825V41.1291H539.126V-46.9825H553.804ZM539.126 380.315V395H238.456V380.315H539.126ZM539.126 1.14441e-05V14.6853H90.6889V0.259026L539.126 1.14441e-05ZM272.273 395H278.16V541.827H272.273V395ZM247.273 -44.0558H253.16V1.14441e-05H247.273V-44.0558ZM238.456 380.315V395H42.9199V380.315H238.456ZM232.569 213.649H238.456V380.315H232.569V213.649ZM238.456 207.769V213.649H210.526V207.769H238.456ZM232.569 14.6853H238.456V66.0708H232.569V14.6853ZM209.048 207.769H210.526V213.649H209.048V207.769ZM151.71 207.769H152.436V213.649H151.71V207.769ZM151.71 207.769V213.649H90.6889V207.769H151.71ZM96.5757 395V541.827H90.6889V395H96.5757Z" fill="#4D505F"/>
<path d="M96.5763 213.649V380.315H90.6895V213.649H96.5763Z" fill="#4D505F"/>
<path d="M90.6889 227.609V242.294H42.9199V227.609H90.6889Z" fill="#4D505F"/>
<path d="M57.625 328.903H90.6898V380.315H57.625V328.903Z" fill="#BDC2CF"/>
<path d="M57.625 323.05H90.6898V328.903H57.625V323.05Z" fill="#4D505F"/>
<path d="M57.625 242.294H90.6898V323.05H57.625V242.294Z" fill="#BDC2CF"/>
<path d="M90.6885 213.649V227.609H75.9844V161.538H90.6885V213.649ZM90.6885 147.578V161.538H75.9844V147.578H90.6885ZM90.6885 14.6853V74.1516H75.9844V14.6853H90.6885Z" fill="#4D505F"/>
<path d="M90.6885 0.259022V14.6853H75.9844V0.259022L90.6885 7.62939e-06V0.259022ZM90.6885 -51.3855V7.62939e-06H75.9844V-51.3855H90.6885Z" fill="#4D505F"/>
<path d="M90.6873 1.52588e-05L75.9832 0.259029V60.9426H48.7793V-38.9017H75.9832V1.52588e-05H90.6873ZM48.7793 161.538H75.9832V227.609H48.7793V161.538Z" fill="#BDC2CF"/>
<path d="M75.9847 155.659V161.538H42.9199V155.659H75.9847ZM48.7808 60.9425H75.9847V66.8219H48.7808V60.9425ZM57.6241 541.827V556.512H42.9199V395H57.6241V541.827ZM57.6241 328.903V380.315H42.9199V242.294H57.6241V328.903ZM42.9199 161.538H48.7808V227.609H42.9199V161.538ZM48.7808 60.9425V66.8219H42.9199V-44.781H48.7808V60.9425Z" fill="#4D505F"/>
<path fill-rule="evenodd" clip-rule="evenodd" d="M553.803 1082.18H567.029V1001.42H553.803V1082.18ZM567.029 817.868V722.427H553.803V817.868H567.029ZM567.029 626.986V527.142H553.803V626.986H567.029ZM553.803 431.7H567.029V336.259H553.803V431.7ZM567.029 240.818V140.248H553.803V240.818H567.029ZM567.029 44.7811V-50.6603H553.803V44.7811H567.029ZM553.803 -146.102H567.029V-241.543H553.803V-146.102ZM553.803 -336.984H567.029V-393.524H553.803V-336.984Z" fill="#7F868A"/>
<path d="M297.244 136.467H298.203V145.791H297.244V136.467ZM299.941 140.922L304.427 145.791H303.131L298.774 140.973L302.845 136.467H304.09L299.941 140.922ZM309.873 145.765C308.629 149.106 307.851 149.909 306.71 149.909C306.165 149.909 305.724 149.728 305.283 149.443L305.594 148.614C305.906 148.769 306.243 148.925 306.58 148.925C307.436 148.925 308.058 148.174 308.758 146.283L308.94 145.791L304.79 136.467H305.957L308.836 143.045L309.433 144.496C309.562 144.03 309.744 143.512 309.899 142.994L312.155 136.441H313.245L309.847 145.765H309.873ZM318.613 140.973L321.958 145.791H320.765L317.887 141.673L315.008 145.791H313.867L317.212 141.025L314.049 136.467H315.242L317.913 140.326L320.61 136.467H321.751L318.587 140.973H318.613ZM330.438 141.543H324.992V145.765H324.033V136.441H324.992V140.533H330.438V136.441H331.398V145.765H330.438V141.543ZM340.319 136.467V145.791H339.359V142.32H337.259L334.847 145.791H333.654L336.299 142.061C335.314 141.88 334.277 140.922 334.277 139.419C334.277 137.917 335.158 136.493 337.803 136.493H340.293L340.319 136.467ZM337.129 141.284H339.359V137.477H337.648C335.936 137.477 335.314 138.358 335.314 139.419C335.314 140.611 336.351 141.284 337.129 141.284ZM343.535 139.704H351.055V140.663H343.535V139.704ZM289.101 161.331H294.158V162.341H290.06V170.655H289.101V161.331ZM299.189 161.124C301.808 161.124 303.598 163.17 303.598 165.967C303.598 168.764 301.808 170.81 299.189 170.81C296.57 170.81 294.78 168.764 294.78 165.967C294.78 163.17 296.57 161.124 299.189 161.124ZM299.189 169.8C301.16 169.8 302.56 168.22 302.56 165.967C302.56 163.714 301.16 162.134 299.189 162.134C297.218 162.134 295.818 163.714 295.818 165.967C295.818 168.22 297.244 169.8 299.189 169.8ZM312.985 169.308C312.285 170.292 311.04 170.81 309.822 170.81C307.228 170.81 305.387 168.894 305.387 165.967C305.387 163.247 307.176 161.124 309.562 161.124C310.859 161.124 312.026 161.434 312.83 162.289L312.363 163.17C311.611 162.419 310.677 162.16 309.718 162.16C307.954 162.16 306.424 163.765 306.424 165.993C306.424 168.35 307.954 169.826 309.925 169.826C311.014 169.826 311.974 169.282 312.545 168.531L313.037 169.308H312.985ZM313.815 161.331H321.466V162.419H318.12V170.655H317.161V162.419H313.815V161.331ZM323.177 170.629V161.305H324.137V169.075L329.738 161.305H330.698V170.629H329.738V162.859L324.137 170.629H323.177ZM340.112 166.407H334.666V170.629H333.706V161.305H334.666V165.397H340.112V161.305H341.071V170.629H340.112V166.407ZM344.027 161.978C344.805 161.434 345.713 161.124 346.699 161.124C349.032 161.124 349.811 162.496 349.811 164.853V170.629H348.851V169.204C348.332 169.981 347.502 170.758 345.972 170.758C344.442 170.758 343.379 169.671 343.379 167.987C343.379 166.122 344.754 165.086 346.569 165.086C347.243 165.086 348.177 165.242 348.851 165.786C348.851 163.558 348.747 162.134 346.647 162.134C345.661 162.134 345.039 162.393 344.287 162.859L344.027 161.978ZM348.851 168.272V166.718C348.229 166.226 347.528 165.967 346.673 165.967C345.583 165.967 344.416 166.537 344.416 167.909C344.416 169.075 345.246 169.722 346.284 169.722C347.71 169.722 348.384 168.945 348.851 168.246V168.272ZM358.55 161.331V170.655H357.59V167.184H355.49L353.078 170.655H351.885L354.53 166.925C353.545 166.744 352.508 165.786 352.508 164.283C352.508 162.781 353.389 161.357 356.034 161.357H358.524L358.55 161.331ZM355.36 166.148H357.59V162.341H355.879C354.167 162.341 353.545 163.221 353.545 164.283C353.545 165.475 354.582 166.148 355.36 166.148ZM131.738 92.9549H132.724V102.279H131.738V92.9549ZM134.435 97.4097L138.922 102.279H137.625L133.268 97.4615L137.34 92.9549H138.585L134.435 97.4097ZM144.186 92.7477C146.805 92.7477 148.595 94.7938 148.595 97.591C148.595 100.388 146.805 102.434 144.186 102.434C141.567 102.434 139.778 100.388 139.778 97.591C139.778 94.7938 141.567 92.7477 144.186 92.7477ZM144.186 101.424C146.157 101.424 147.558 99.8443 147.558 97.591C147.558 95.3377 146.157 93.7578 144.186 93.7578C142.215 93.7578 140.815 95.3377 140.815 97.591C140.815 99.8443 142.241 101.424 144.186 101.424ZM150.955 92.9549H151.914V94.1981C152.563 93.3693 153.782 92.7736 155 92.7736C157.438 92.7736 158.916 94.7161 158.916 97.4615C158.916 100.207 157.205 102.46 154.611 102.46C153.574 102.46 152.615 102.227 151.914 101.683V106.423H150.955V92.9549ZM151.914 95.2341V100.595C152.796 101.243 153.626 101.45 154.534 101.45C156.582 101.45 157.905 99.8184 157.905 97.5392C157.905 95.26 156.764 93.7837 154.741 93.7837C153.574 93.7837 152.459 94.4571 151.914 95.2341ZM161.302 102.253V92.929H162.288V100.699L167.889 92.929H168.875V102.253H167.889V94.483L162.288 102.253H161.302ZM170.508 101.243H171.546C172.064 100.492 172.739 98.4975 172.92 95.5708L173.05 92.9549H178.418V101.269H179.818V104.636H178.911V102.279H171.442V104.636H170.534V101.269L170.508 101.243ZM172.583 101.243H177.433V93.965H173.958L173.854 95.9852C173.672 98.6788 173.024 100.647 172.583 101.243ZM185.42 92.7477C188.039 92.7477 189.829 94.7938 189.829 97.591C189.829 100.388 188.039 102.434 185.42 102.434C182.801 102.434 181.011 100.388 181.011 97.591C181.011 94.7938 182.801 92.7477 185.42 92.7477ZM185.42 101.424C187.391 101.424 188.791 99.8443 188.791 97.591C188.791 95.3377 187.391 93.7578 185.42 93.7578C183.449 93.7578 182.049 95.3377 182.049 97.591C182.049 99.8443 183.475 101.424 185.42 101.424ZM192.189 92.9549H193.148V94.1981C193.796 93.3693 195.015 92.7736 196.234 92.7736C198.672 92.7736 200.15 94.7161 200.15 97.4615C200.15 100.207 198.438 102.46 195.845 102.46C194.808 102.46 193.848 102.227 193.148 101.683V106.423H192.189V92.9549ZM193.148 95.2341V100.595C194.03 101.243 194.86 101.45 195.767 101.45C197.816 101.45 199.139 99.8184 199.139 97.5392C199.139 95.26 197.998 93.7837 195.975 93.7837C194.808 93.7837 193.693 94.4571 193.148 95.2341ZM149.477 229.214C150.203 229.214 151.033 229.163 152.174 229.163C154.456 229.163 155.649 229.862 155.649 231.571C155.649 232.581 155.052 233.514 153.937 233.695V233.747C155.363 234.006 155.96 234.757 155.96 235.974C155.96 237.684 154.715 238.616 152.2 238.616C151.162 238.616 150.229 238.564 149.451 238.564V229.24L149.477 229.214ZM150.436 230.199V233.333H152.666C153.885 233.333 154.637 232.685 154.637 231.701C154.637 230.458 153.574 230.147 152.303 230.147C151.499 230.147 150.929 230.147 150.462 230.199H150.436ZM150.436 234.239V237.528C150.981 237.528 151.551 237.58 152.329 237.58C154.041 237.58 154.948 237.036 154.948 235.871C154.948 234.783 154.145 234.265 152.459 234.265H150.436V234.239ZM158.449 229.888C159.227 229.344 160.135 229.033 161.121 229.033C163.455 229.033 164.233 230.406 164.233 232.763V238.538H163.273V237.114C162.754 237.891 161.925 238.668 160.394 238.668C158.864 238.668 157.801 237.58 157.801 235.897C157.801 234.032 159.176 232.996 160.991 232.996C161.665 232.996 162.599 233.151 163.273 233.695C163.273 231.468 163.169 230.043 161.069 230.043C160.083 230.043 159.461 230.302 158.709 230.769L158.449 229.888ZM163.273 236.182V234.628C162.651 234.135 161.95 233.877 161.095 233.877C160.005 233.877 158.838 234.446 158.838 235.819C158.838 236.985 159.668 237.632 160.706 237.632C162.132 237.632 162.806 236.855 163.273 236.156V236.182ZM173.465 234.317H168.019V238.538H167.059V229.214H168.019V233.307H173.465V229.214H174.424V238.538H173.465V234.317ZM183.786 234.317H178.34V238.538H177.381V229.214H178.34V233.307H183.786V229.214H184.746V238.538H183.786V234.317ZM187.728 229.888C188.506 229.344 189.414 229.033 190.399 229.033C192.733 229.033 193.511 230.406 193.511 232.763V238.538H192.552V237.114C192.033 237.891 191.203 238.668 189.673 238.668C188.143 238.668 187.08 237.58 187.08 235.897C187.08 234.032 188.454 232.996 190.269 232.996C190.944 232.996 191.877 233.151 192.552 233.695C192.552 231.468 192.448 230.043 190.347 230.043C189.362 230.043 188.739 230.302 187.987 230.769L187.728 229.888ZM192.552 236.182V234.628C191.929 234.135 191.229 233.877 190.373 233.877C189.284 233.877 188.117 234.446 188.117 235.819C188.117 236.985 188.947 237.632 189.984 237.632C191.411 237.632 192.085 236.855 192.552 236.156V236.182ZM202.251 229.214V238.538H201.265V235.068H199.165L196.753 238.538H195.56L198.205 234.809C197.22 234.628 196.182 233.669 196.182 232.167C196.182 230.665 197.064 229.24 199.709 229.24H202.225L202.251 229.214ZM199.061 234.032H201.291V230.225H199.58C197.868 230.225 197.246 231.105 197.246 232.167C197.246 233.359 198.283 234.032 199.061 234.032Z" fill="#1A1A1A"/>
<path d="M303.131 199.404C305.802 196.788 310.444 192.385 310.444 188.914C310.444 187.464 309.562 186.272 307.773 186.272C306.476 186.272 305.18 187.127 304.843 188.888L303.261 188.241C303.65 185.806 305.647 184.408 307.929 184.408C310.989 184.408 312.415 186.505 312.415 188.526C312.415 193.084 306.865 198.005 305.543 199.17H313.089V200.906H303.131V199.404ZM320.947 184.408C324.63 184.408 326.237 187.852 326.237 192.747C326.237 197.642 324.681 201.087 320.973 201.087C317.265 201.087 315.631 197.668 315.631 192.747C315.631 187.826 317.239 184.408 320.921 184.408H320.947ZM320.999 199.352C323.385 199.352 324.267 196.969 324.267 192.747C324.267 188.526 323.333 186.143 320.947 186.143C318.561 186.143 317.628 188.577 317.628 192.747C317.628 196.917 318.691 199.352 320.999 199.352ZM330.127 198.601C331.113 198.601 331.813 199.481 331.813 200.854C331.813 202.589 330.75 203.858 329.246 204.299L328.727 203.418C329.349 203.211 330.024 202.719 330.231 201.864C330.361 201.268 330.335 200.906 330.231 200.699C330.127 200.88 329.894 200.906 329.713 200.906C329.246 200.906 328.831 200.44 328.831 199.844C328.831 199.119 329.298 198.601 330.153 198.601H330.127ZM340.734 196.839H333.188V195.519L339.956 184.615H342.109L335.651 195.001H340.734V190.468H342.601V195.001H344.857V196.865H342.601V200.958H340.734V196.839ZM154.223 113.908H161.588V115.773H155.856L155.26 120.176C155.597 120.072 156.09 120.02 156.557 120.02C159.513 120.02 161.717 121.989 161.717 125.071C161.717 128.438 159.28 130.458 156.401 130.458C154.637 130.458 152.692 129.681 151.707 127.997L152.77 126.625C153.574 127.92 155.104 128.619 156.427 128.619C158.294 128.619 159.72 127.169 159.72 125.174C159.72 123.18 158.19 121.73 155.753 121.73C154.767 121.73 153.73 121.937 153.185 122.144L154.223 113.934V113.908ZM165.529 127.92C166.515 127.92 167.215 128.8 167.215 130.173C167.215 131.908 166.152 133.177 164.648 133.618L164.129 132.737C164.751 132.53 165.426 132.038 165.633 131.183C165.763 130.587 165.737 130.225 165.633 130.018C165.529 130.199 165.296 130.225 165.115 130.225C164.648 130.225 164.233 129.759 164.233 129.163C164.233 128.438 164.7 127.92 165.555 127.92H165.529ZM169.186 128.723C171.857 126.107 176.499 121.704 176.499 118.233C176.499 116.783 175.617 115.591 173.828 115.591C172.531 115.591 171.235 116.446 170.924 118.207L169.342 117.56C169.731 115.125 171.727 113.727 174.01 113.727C177.07 113.727 178.496 115.824 178.496 117.845C178.496 122.403 172.946 127.324 171.624 128.49H179.17V130.225H169.212V128.723H169.186ZM168.693 262.444H161.147V261.123L167.915 250.219H170.068L163.61 260.605H168.693V256.073H170.561V260.605H172.817V262.47H170.561V266.562H168.693V262.444ZM176.11 264.205C177.096 264.205 177.796 265.086 177.796 266.459C177.796 268.194 176.733 269.463 175.228 269.903L174.71 269.023C175.332 268.815 176.006 268.323 176.214 267.469C176.344 266.873 176.318 266.51 176.214 266.303C176.11 266.484 175.877 266.51 175.695 266.51C175.228 266.51 174.814 266.044 174.814 265.448C174.814 264.723 175.28 264.205 176.136 264.205H176.11ZM179.793 265.008C182.464 262.392 187.106 257.989 187.106 254.519C187.106 253.068 186.224 251.877 184.435 251.877C183.138 251.877 181.841 252.732 181.504 254.493L179.922 253.845C180.311 251.411 182.308 250.012 184.59 250.012C187.65 250.012 189.077 252.11 189.077 254.13C189.077 258.689 183.527 263.61 182.204 264.775H189.751V266.51H179.793V265.008Z" fill="#1A1A1A"/>
</g>
</g>
<defs>
<clipPath id="clip0_579_30025">
<rect width="567.055" height="395" fill="white"/>
</clipPath>
</defs>
</svg>
