<svg width="278" height="196" viewBox="0 0 278 196" fill="none" xmlns="http://www.w3.org/2000/svg">
<g clip-path="url(#clip0_987_1043)">
<mask id="mask0_987_1043" style="mask-type:luminance" maskUnits="userSpaceOnUse" x="0" y="0" width="277" height="196">
<path d="M17.6642 0.00319093V67.9577C11.6095 68.5655 14.0307 66.5886 1.44751 71.6337C0.526072 72.0029 0 72.9602 0 72.9602L17.6642 101.626V195.531H276.641V0L17.6642 0.00319093Z" fill="white"/>
</mask>
<g mask="url(#mask0_987_1043)">
<path d="M210.469 186.957H217.915L210.469 194.802V186.957Z" fill="#1A1A1A"/>
<path d="M210.469 186.957H217.915L210.469 194.802V186.957Z" stroke="#1A1A1A" stroke-width="0.427921" stroke-miterlimit="10" stroke-linecap="round"/>
<path d="M254.77 194.802L262.223 186.96V194.802H254.77ZM210.469 194.802H254.773L262.223 186.96L210.469 194.802Z" fill="#1A1A1A"/>
<path d="M262.223 186.96L254.77 194.802H262.223V186.96ZM262.223 186.96L254.773 194.802H210.469L262.223 186.96Z" stroke="#1A1A1A" stroke-width="0.427921" stroke-miterlimit="10" stroke-linecap="round"/>
<path d="M210.469 194.802L217.915 186.957H262.226L210.469 194.802Z" fill="#1A1A1A"/>
<path d="M210.469 194.802L217.915 186.957H262.226L210.469 194.802Z" stroke="#1A1A1A" stroke-width="0.427921" stroke-miterlimit="10" stroke-linecap="round"/>
<path d="M262.226 186.957H210.469V194.802H262.226V186.957Z" stroke="#1A1A1A" stroke-width="0.427921" stroke-miterlimit="10" stroke-linecap="round" stroke-linejoin="round"/>
<path d="M17.5508 137.552H25.7849L17.5508 146.181V137.552Z" fill="#1A1A1A"/>
<path d="M17.5508 137.552H25.7849L17.5508 146.181V137.552Z" stroke="#1A1A1A" stroke-width="0.427921" stroke-miterlimit="10" stroke-linecap="round"/>
<path d="M17.5501 146.181L25.7875 186.172L17.5501 194.802V146.181ZM25.7843 137.552L17.5501 146.181L25.7875 186.172L25.7843 137.552Z" fill="#1A1A1A"/>
<path d="M17.5501 146.181L25.7875 186.172M17.5501 146.181V194.802L25.7875 186.172M17.5501 146.181L25.7843 137.552L25.7875 186.172" stroke="#1A1A1A" stroke-width="0.427921" stroke-miterlimit="10" stroke-linecap="round"/>
<path d="M17.5501 194.802L25.7875 186.96L17.9488 194.802H17.5501ZM25.7843 186.173L17.5501 194.802L25.7875 186.96L25.7843 186.173Z" fill="#1A1A1A"/>
<path d="M17.5501 194.802L25.7875 186.96M17.5501 194.802H17.9488L25.7875 186.96M17.5501 194.802L25.7843 186.173L25.7875 186.96" stroke="#1A1A1A" stroke-width="0.427921" stroke-miterlimit="10" stroke-linecap="round"/>
<path d="M68.131 194.802L75.973 186.96V194.802H68.131ZM17.9453 194.802H68.131L75.973 186.96L17.9453 194.802Z" fill="#1A1A1A"/>
<path d="M68.131 194.802L75.973 186.96M68.131 194.802H75.973V186.96M68.131 194.802H17.9453L75.973 186.96" stroke="#1A1A1A" stroke-width="0.427921" stroke-miterlimit="10" stroke-linecap="round"/>
<path d="M17.9453 194.802L25.7841 186.957H75.9763L17.9453 194.802Z" fill="#1A1A1A"/>
<path d="M17.9453 194.802L25.7841 186.957H75.9763L17.9453 194.802Z" stroke="#1A1A1A" stroke-width="0.427921" stroke-miterlimit="10" stroke-linecap="round"/>
<path d="M17.5508 137.552H25.7849V186.957H75.9772V194.802H17.5508V137.552Z" stroke="#1A1A1A" stroke-width="0.427921" stroke-miterlimit="10" stroke-linecap="round" stroke-linejoin="round"/>
<path d="M210.469 -1.24805H217.915L210.469 6.98281V-1.24805Z" fill="#1A1A1A"/>
<path d="M210.469 -1.24805H217.915L210.469 6.98281V-1.24805Z" stroke="#1A1A1A" stroke-width="0.427921" stroke-miterlimit="10" stroke-linecap="round"/>
<path d="M254.77 6.98219L262.223 -1.25195V6.98219H254.77ZM210.469 6.98219H254.773L262.223 -1.25195L210.469 6.98219Z" fill="#1A1A1A"/>
<path d="M262.223 -1.25195L254.77 6.98219H262.223V-1.25195ZM262.223 -1.25195L254.773 6.98219H210.469L262.223 -1.25195Z" stroke="#1A1A1A" stroke-width="0.427921" stroke-miterlimit="10" stroke-linecap="round"/>
<path d="M210.469 6.98281L217.915 -1.24805H262.226L210.469 6.98281Z" fill="#1A1A1A"/>
<path d="M210.469 6.98281L217.915 -1.24805H262.226L210.469 6.98281Z" stroke="#1A1A1A" stroke-width="0.427921" stroke-miterlimit="10" stroke-linecap="round"/>
<path d="M210.469 -1.24805H262.226V6.98281H210.469V-1.24805Z" stroke="#1A1A1A" stroke-width="0.427921" stroke-miterlimit="10" stroke-linecap="round" stroke-linejoin="round"/>
<path d="M17.5501 -42.0303L25.7875 -1.64388L17.5501 6.98235V-42.0303ZM25.7843 -50.6533L17.5469 -42.0271L25.7843 -1.64064V-50.6533Z" fill="#1A1A1A"/>
<path d="M17.5501 -42.0303L25.7875 -1.64388L17.5501 6.98235V-42.0303ZM25.7843 -50.6533L17.5469 -42.0271L25.7843 -1.64064V-50.6533Z" stroke="#1A1A1A" stroke-width="0.427921" stroke-miterlimit="10" stroke-linecap="round"/>
<path d="M17.5501 6.98236L25.7875 -1.25178L17.9488 6.98236H17.5501ZM25.7843 -1.64062L17.5469 6.98565L25.7843 -1.24849V-1.64062Z" fill="#1A1A1A"/>
<path d="M17.5501 6.98236L25.7875 -1.25178L17.9488 6.98236H17.5501ZM25.7843 -1.64062L17.5469 6.98565L25.7843 -1.24849V-1.64062Z" stroke="#1A1A1A" stroke-width="0.427921" stroke-miterlimit="10" stroke-linecap="round"/>
<path d="M68.131 6.98219L75.973 -1.25195V6.98219H68.131ZM17.9453 6.98219H68.131L75.973 -1.25195L17.9453 6.98219Z" fill="#1A1A1A"/>
<path d="M68.131 6.98219L75.973 -1.25195M68.131 6.98219H75.973V-1.25195M68.131 6.98219H17.9453L75.973 -1.25195" stroke="#1A1A1A" stroke-width="0.427921" stroke-miterlimit="10" stroke-linecap="round"/>
<path d="M17.9453 6.98281L25.7841 -1.24805H75.9763L17.9453 6.98281Z" fill="#1A1A1A"/>
<path d="M17.9453 6.98281L25.7841 -1.24805H75.9763L17.9453 6.98281Z" stroke="#1A1A1A" stroke-width="0.427921" stroke-miterlimit="10" stroke-linecap="round"/>
<path d="M17.5508 -50.6533H25.7849V-1.2485H75.9772V6.98235H17.5508V-50.6533Z" stroke="#1A1A1A" stroke-width="0.427921" stroke-miterlimit="10" stroke-linecap="round" stroke-linejoin="round"/>
<path d="M75.9766 -0.463867H81.8516L75.9766 6.20184V-0.463867Z" fill="#636466"/>
<path d="M75.9766 -0.463867H81.8516L75.9766 6.20184V-0.463867Z" stroke="#636466" stroke-width="0.427921" stroke-miterlimit="10" stroke-linecap="round"/>
<path d="M204.583 6.20184L210.467 -0.463867V6.20184H204.583ZM75.9766 6.20184H204.583L210.467 -0.463867L75.9766 6.20184Z" fill="#636466"/>
<path d="M204.583 6.20184L210.467 -0.463867M204.583 6.20184H210.467V-0.463867M204.583 6.20184H75.9766L210.467 -0.463867" stroke="#636466" stroke-width="0.427921" stroke-miterlimit="10" stroke-linecap="round"/>
<path d="M75.9766 6.20184L81.8516 -0.463867H210.467L75.9766 6.20184Z" fill="#636466"/>
<path d="M75.9766 6.20184L81.8516 -0.463867H210.467L75.9766 6.20184Z" stroke="#636466" stroke-width="0.427921" stroke-miterlimit="10" stroke-linecap="round"/>
<path d="M86.1685 50.5093V13.2564M104.986 50.5093V13.2564M100.284 8.55445H91.2658M86.1685 50.3132C86.1685 55.6164 90.2953 59.9165 95.3828 59.9165C100.47 59.9165 104.597 55.6164 104.597 50.3132M91.0697 8.55445C88.3642 8.55445 86.1685 10.5738 86.1685 13.0636M104.986 13.0636C104.986 10.5738 102.794 8.55445 100.085 8.55445M41.861 22.8662C41.8428 23.624 41.9764 24.3779 42.2539 25.0834C42.5313 25.7889 42.9471 26.4317 43.4767 26.9742C44.0063 27.5166 44.639 27.9477 45.3377 28.242C46.0363 28.5363 46.7867 28.6879 47.5448 28.6879C48.3029 28.6879 49.0534 28.5363 49.752 28.242C50.4506 27.9477 51.0834 27.5166 51.613 26.9742C52.1426 26.4317 52.5583 25.7889 52.8358 25.0834C53.1133 24.3779 53.2468 23.624 53.2287 22.8662M51.0721 12.8676C51.3553 12.8676 51.6357 12.8118 51.8974 12.7035C52.159 12.5951 52.3968 12.4362 52.597 12.236C52.7973 12.0357 52.9561 11.7979 53.0645 11.5363C53.1729 11.2746 53.2287 10.9942 53.2287 10.711M53.2319 9.53476C53.2319 8.96281 53.0047 8.41423 52.6003 8.0098C52.1959 7.60536 51.6473 7.37819 51.0754 7.37819M41.861 23.0589V9.72751M44.0143 7.37819C43.4429 7.37906 42.8952 7.60665 42.4915 8.01099C42.0878 8.41533 41.861 8.96337 41.861 9.53476M44.2136 7.37819H51.2714M75.9771 -0.463867V6.20184H210.468V-0.463867H75.9771ZM106.95 6.59073H84.208V61.8803H106.95V6.59073ZM95.5822 14.24C95.5822 13.9132 95.1411 13.6486 94.5987 13.6486C94.0562 13.6486 93.6184 13.9132 93.6184 14.24C93.6184 14.5667 94.0562 14.8281 94.5987 14.8281C95.1411 14.8281 95.5822 14.5667 95.5822 14.24ZM47.5432 10.9071C47.6996 10.9071 47.8496 10.845 47.9602 10.7344C48.0709 10.6237 48.133 10.4738 48.133 10.3173C48.133 10.1609 48.0709 10.0108 47.9602 9.90022C47.8496 9.78962 47.6996 9.72751 47.5432 9.72751C47.3868 9.72751 47.2368 9.78962 47.1262 9.90022C47.0156 10.0108 46.9534 10.1609 46.9534 10.3173C46.9534 10.4738 47.0156 10.6237 47.1262 10.7344C47.2368 10.845 47.3868 10.9071 47.5432 10.9071Z" stroke="#1A1A1A" stroke-width="0.427921" stroke-miterlimit="10" stroke-linecap="round" stroke-linejoin="round"/>
<path d="M43.4278 22.8661C43.4278 23.9584 43.8617 25.006 44.6341 25.7784C45.4065 26.5508 46.4541 26.9848 47.5465 26.9848C48.6388 26.9848 49.6864 26.5508 50.4588 25.7784C51.2312 25.006 51.6652 23.9584 51.6652 22.8661M41.8594 10.7109C41.8594 11.9003 42.8265 12.8675 44.0127 12.8675M45.5843 14.828C45.0124 14.828 44.4639 15.0552 44.0594 15.4596C43.655 15.8641 43.4278 16.4126 43.4278 16.9846M43.4278 23.0588V17.1806M52.054 23.0588V17.1806M45.7804 14.828H49.7014M51.2698 13.2563H44.212M51.6619 16.9846C51.6619 16.4126 51.4347 15.8641 51.0303 15.4596C50.6258 15.0552 50.0773 14.828 49.5053 14.828M49.2015 21.0984C48.6863 20.8437 48.1195 20.7112 47.5448 20.7112C46.9702 20.7112 46.4033 20.8437 45.8882 21.0984" stroke="#1A1A1A" stroke-width="0.427921" stroke-miterlimit="10" stroke-linecap="round" stroke-linejoin="round"/>
<path d="M45.7845 22.5947C45.8177 23.0387 46.0174 23.4537 46.3438 23.7566C46.6701 24.0594 47.0989 24.2277 47.5441 24.2277C47.9893 24.2277 48.4181 24.0594 48.7444 23.7566C49.0707 23.4537 49.2705 23.0387 49.3036 22.5947M45.7812 23.0587V21.1014M49.3102 21.1014V23.0587M53.6265 23.0587V9.72725M74.4047 13.2561V7.37793M72.8362 14.0404V11.6911M59.9002 14.0404V11.6911M58.3285 13.2561V7.37793M61.0732 10.5114H72.0488M60.8739 10.5114C60.6145 10.5123 60.366 10.616 60.1829 10.7997C59.9997 10.9834 59.8969 11.2323 59.8969 11.4917M72.8362 11.4917C72.8362 11.2323 72.7334 10.9834 72.5503 10.7997C72.3672 10.616 72.1187 10.5123 71.8593 10.5114M60.3315 15.9355C60.92 17.0232 61.7915 17.9316 62.8538 18.5647C63.9162 19.1978 65.1299 19.5321 66.3666 19.5321C67.6033 19.5321 68.817 19.1978 69.8793 18.5647C70.9417 17.9316 71.8132 17.0232 72.4017 15.9355M66.3666 11.6911C66.2106 11.6911 66.061 11.753 65.9507 11.8633C65.8404 11.9736 65.7784 12.1232 65.7784 12.2792C65.7784 12.4352 65.8404 12.5847 65.9507 12.695C66.061 12.8053 66.2106 12.8673 66.3666 12.8673C66.5229 12.8673 66.6728 12.8054 66.7836 12.6952C66.8944 12.585 66.9571 12.4355 66.958 12.2792C66.958 12.2017 66.9427 12.1249 66.9129 12.0533C66.8831 11.9818 66.8395 11.9167 66.7846 11.8621C66.7296 11.8074 66.6644 11.7642 66.5926 11.7348C66.5209 11.7055 66.4441 11.6906 66.3666 11.6911Z" stroke="#1A1A1A" stroke-width="0.427921" stroke-miterlimit="10" stroke-linecap="round" stroke-linejoin="round"/>
<path d="M59.8812 17.6636C60.6733 18.6149 61.6649 19.3803 62.7858 19.9056C63.9067 20.4309 65.1294 20.7032 66.3672 20.7032C67.6051 20.7032 68.8278 20.4309 69.9487 19.9056C71.0696 19.3803 72.0612 18.6149 72.8532 17.6636M59.9008 13.8471C59.9008 14.5954 60.0871 15.3306 60.4432 15.9906M58.3291 13.063C58.3291 14.664 58.8912 16.2162 59.9106 17.448M72.8238 17.4447C73.8466 16.2129 74.4053 14.6608 74.4053 13.0597M71.9024 15.9906C72.2553 15.3306 72.4448 14.5921 72.4448 13.8471M74.4053 7.37753H58.3291M55.5844 65.4053V62.6606H23.8242V65.4053H55.5844ZM55.5844 65.4053L78.3231 78.7367L79.1105 77.1715L56.3719 64.2322L55.5844 65.4053ZM107.731 67.369V65.4053H81.852V62.6606H107.731V6.20117H110.087V67.369H107.731ZM23.8242 23.8425H35.1952V6.98215H37.9399V62.6606H35.1952V26.5872H23.8242V23.8425Z" stroke="#1A1A1A" stroke-width="0.427921" stroke-miterlimit="10" stroke-linecap="round" stroke-linejoin="round"/>
<path d="M77.9749 78.2496C80.2596 74.2843 81.463 69.7885 81.4646 65.2122M55.5859 65.405V62.6603M81.8535 65.405V62.6603M114.205 11.2982C113.973 11.2978 113.744 11.3432 113.53 11.4317C113.316 11.5203 113.121 11.6503 112.958 11.8142C112.794 11.9782 112.664 12.173 112.576 12.3872C112.488 12.6015 112.443 12.831 112.444 13.0627M120.675 11.6904H114.401M122.246 13.0627C122.246 12.8307 122.201 12.601 122.112 12.3867C122.023 12.1724 121.893 11.9777 121.729 11.8138C121.564 11.65 121.369 11.5201 121.155 11.4316C120.941 11.3431 120.711 11.2978 120.479 11.2982M122.246 22.6692V13.2554M120.479 24.2376C120.711 24.2381 120.941 24.1927 121.155 24.1042C121.369 24.0157 121.564 23.8859 121.729 23.722C121.893 23.5581 122.023 23.3634 122.112 23.1491C122.201 22.9348 122.246 22.7051 122.246 22.4731M114.401 24.2376H120.675M112.444 22.4731C112.444 23.4501 113.228 24.2376 114.205 24.2376M112.833 13.2554V22.6692M113.816 10.5107C113.584 10.5103 113.354 10.5558 113.139 10.6445C112.925 10.7331 112.73 10.8633 112.565 11.0276C112.401 11.1918 112.271 11.3869 112.182 11.6015C112.094 11.8162 112.048 12.0463 112.049 12.2785" stroke="#1A1A1A" stroke-width="0.427921" stroke-miterlimit="10" stroke-linecap="round" stroke-linejoin="round"/>
<path d="M112.047 22.8652C112.047 23.8389 112.838 24.6297 113.815 24.6297M112.442 12.4746V23.058M112.831 19.1403H122.245M112.831 20.3133H122.245M112.831 21.4929H122.245M112.831 22.6692H122.245M112.831 14.0397H122.245M112.831 15.6113H122.245M112.831 16.7844H122.245M112.831 17.964H122.245M112.831 12.8666H122.245M125.963 11.2982C125.732 11.2978 125.502 11.3432 125.288 11.4317C125.074 11.5203 124.879 11.6503 124.716 11.8142C124.552 11.9782 124.422 12.173 124.334 12.3872C124.246 12.6015 124.201 12.831 124.202 13.0627M132.047 11.6904H126.163M133.612 13.0627C133.613 12.8309 133.568 12.6013 133.479 12.387C133.39 12.1727 133.261 11.978 133.097 11.814C132.933 11.6501 132.738 11.5202 132.524 11.4317C132.309 11.3432 132.08 11.2978 131.848 11.2982M133.612 22.6692V13.2554M131.848 24.2376C132.825 24.2376 133.612 23.4501 133.612 22.4731M126.163 24.2376H132.047M124.202 22.4731C124.202 23.4501 124.986 24.2376 125.963 24.2376M124.202 13.2554V22.6692M134.393 12.2785C134.394 12.0467 134.349 11.817 134.261 11.6025C134.173 11.3881 134.043 11.1932 133.88 11.029C133.716 10.8647 133.522 10.7344 133.308 10.6455C133.094 10.5565 132.864 10.5107 132.632 10.5107M134.792 23.058V12.4746M132.632 24.6297C132.864 24.6301 133.093 24.5847 133.307 24.4962C133.522 24.4076 133.716 24.2776 133.88 24.1137C134.043 23.9497 134.173 23.755 134.261 23.5407C134.349 23.3265 134.394 23.0969 134.393 22.8652M132.828 10.5107H114.007M114.007 25.0218H132.828M128.711 15.2193C128.972 15.2193 129.221 15.1158 129.405 14.9317C129.59 14.7475 129.693 14.4978 129.693 14.2373C129.693 13.9769 129.59 13.7272 129.405 13.543C129.221 13.3589 128.972 13.2554 128.711 13.2554C128.461 13.2699 128.225 13.3797 128.053 13.5623C127.88 13.7448 127.784 13.9863 127.784 14.2373C127.784 14.4884 127.88 14.73 128.053 14.9125C128.225 15.0951 128.461 15.2048 128.711 15.2193Z" stroke="#1A1A1A" stroke-width="0.427921" stroke-miterlimit="10" stroke-linecap="round" stroke-linejoin="round"/>
<path d="M136.357 6.98242H110.086V26.1954H136.357V6.98242ZM176.743 25.0223V8.16197ZM193.607 8.16197V25.0223ZM192.035 20.1211C192.048 19.7269 191.982 19.334 191.841 18.9659C191.699 18.5977 191.485 18.2618 191.211 17.9782C190.937 17.6945 190.609 17.4688 190.246 17.3147C189.883 17.1605 189.492 17.0809 189.098 17.0807C188.703 17.0805 188.313 17.1596 187.95 17.3134C187.586 17.4671 187.258 17.6924 186.983 17.9758C186.709 18.2591 186.494 18.5948 186.352 18.9628C186.21 19.3308 186.144 19.7236 186.157 20.1178C186.182 20.8803 186.502 21.6033 187.05 22.1341C187.599 22.6648 188.331 22.9618 189.094 22.9622C189.857 22.9626 190.591 22.6665 191.139 22.1363C191.688 21.6062 192.009 20.8836 192.035 20.1211ZM183.804 20.1211C183.804 19.3411 183.494 18.5932 182.943 18.0417C182.391 17.4902 181.643 17.1803 180.864 17.1803C180.084 17.1803 179.336 17.4902 178.784 18.0417C178.233 18.5932 177.923 19.3411 177.923 20.1211C177.923 20.901 178.233 21.649 178.784 22.2005C179.336 22.752 180.084 23.0618 180.864 23.0618C181.643 23.0618 182.391 22.752 182.943 22.2005C183.494 21.649 183.804 20.901 183.804 20.1211ZM193.607 25.0223H176.743ZM176.743 8.16197H193.607ZM192.035 12.6712C192.048 12.2769 191.982 11.8841 191.841 11.5159C191.699 11.1478 191.485 10.8119 191.211 10.5282C190.937 10.2446 190.609 10.0189 190.246 9.86473C189.883 9.71055 189.492 9.63101 189.098 9.63079C188.703 9.63057 188.313 9.70966 187.95 9.86343C187.586 10.0172 187.258 10.2425 186.983 10.5258C186.709 10.8092 186.494 11.1449 186.352 11.5128C186.21 11.8808 186.144 12.2736 186.157 12.6679C186.182 13.4304 186.502 14.1534 187.05 14.6841C187.599 15.2149 188.331 15.5119 189.094 15.5123C189.857 15.5127 190.591 15.2166 191.139 14.6864C191.688 14.1563 192.009 13.4337 192.035 12.6712ZM183.804 12.6712C183.804 11.8912 183.494 11.1433 182.943 10.5918C182.391 10.0403 181.643 9.73041 180.864 9.73041C180.084 9.73041 179.336 10.0403 178.784 10.5918C178.233 11.1433 177.923 11.8912 177.923 12.6712C177.923 13.4511 178.233 14.199 178.784 14.7505C179.336 15.302 180.084 15.6119 180.864 15.6119C181.643 15.6119 182.391 15.302 182.943 14.7505C183.494 14.199 183.804 13.4511 183.804 12.6712Z" stroke="#1A1A1A" stroke-width="0.427921" stroke-miterlimit="10" stroke-linecap="round" stroke-linejoin="round"/>
<path d="M194.781 26.1954H175.568V6.98242H194.781V26.1954Z" stroke="#1A1A1A" stroke-width="0.427921" stroke-miterlimit="10" stroke-linecap="round" stroke-linejoin="round"/>
<path d="M221.836 26.1954V6.98242H110.087V26.1954H221.836ZM25.7852 174.805H43.4297V186.957H46.1712V172.06H25.7852V174.805ZM73.2327 152.455V186.957H75.9774V152.455H73.2327ZM75.9774 122.656L90.4819 148.534L89.3089 148.926L74.7978 123.44L75.9774 122.656Z" stroke="#1A1A1A" stroke-width="0.427921" stroke-miterlimit="10" stroke-linecap="round" stroke-linejoin="round"/>
<path d="M75.7759 152.063C80.9712 152.063 86.0751 150.694 90.5744 148.096M75.9752 152.455H73.2305M110.085 96.7766V101.871H75.9752V122.655H73.2305V99.1292H107.729V96.7766H110.085ZM110.085 96.7766L124.988 71.29L123.808 70.5059L108.912 95.9924L110.085 96.7766Z" stroke="#1A1A1A" stroke-width="0.427921" stroke-miterlimit="10" stroke-linecap="round" stroke-linejoin="round"/>
<path d="M124.692 70.9443C120.192 68.3458 115.087 66.9777 109.89 66.9775M110.086 96.7772H107.73M110.086 67.3696H107.73" stroke="#1A1A1A" stroke-width="0.427921" stroke-miterlimit="10" stroke-linecap="round" stroke-linejoin="round"/>
<path d="M-2.05469 101.871H4.21893L-2.05469 108.145V101.871Z" fill="#636466"/>
<path d="M-2.05469 101.871H4.21893L-2.05469 108.145V101.871Z" stroke="#636466" stroke-width="0.427921" stroke-miterlimit="10" stroke-linecap="round"/>
<path d="M-2.05469 108.145L23.4352 101.871L17.5504 108.145H-2.05469ZM4.21893 101.871L-2.05469 108.145L23.4352 101.871H4.21893Z" fill="#636466"/>
<path d="M-2.05469 108.145L23.4352 101.871M-2.05469 108.145H17.5504L23.4352 101.871M-2.05469 108.145L4.21893 101.871H23.4352" stroke="#636466" stroke-width="0.427921" stroke-miterlimit="10" stroke-linecap="round"/>
<path d="M17.5508 108.145L23.8244 101.871L17.5508 108.537V108.145ZM23.4356 101.871L17.5508 108.145L23.8244 101.871H23.4356Z" fill="#636466"/>
<path d="M17.5508 108.145L23.8244 101.871M17.5508 108.145V108.537L23.8244 101.871M17.5508 108.145L23.4356 101.871H23.8244" stroke="#636466" stroke-width="0.427921" stroke-miterlimit="10" stroke-linecap="round"/>
<path d="M17.5508 137.552L23.8244 130.497V137.552H17.5508ZM17.5508 108.536V137.552L23.8244 130.497L17.5508 108.536Z" fill="#636466"/>
<path d="M17.5508 137.552L23.8244 130.497M17.5508 137.552H23.8244V130.497M17.5508 137.552V108.536L23.8244 130.497" stroke="#636466" stroke-width="0.427921" stroke-miterlimit="10" stroke-linecap="round"/>
<path d="M17.5508 108.537L23.8244 101.871V130.498L17.5508 108.537Z" fill="#636466"/>
<path d="M17.5508 108.537L23.8244 101.871V130.498L17.5508 108.537Z" stroke="#636466" stroke-width="0.427921" stroke-miterlimit="10" stroke-linecap="round"/>
<path d="M23.824 101.871V137.552H17.5504V108.145H-2.05469V101.871H23.824Z" stroke="#1A1A1A" stroke-width="0.427921" stroke-miterlimit="10" stroke-linecap="round" stroke-linejoin="round"/>
<path d="M17.5508 6.98242H23.8244L17.5508 14.0403V6.98242Z" fill="#636466"/>
<path d="M17.5508 6.98242H23.8244L17.5508 14.0403V6.98242Z" stroke="#636466" stroke-width="0.427921" stroke-miterlimit="10" stroke-linecap="round"/>
<path d="M17.5508 67.7611L23.8244 60.7034V67.7611H17.5508ZM17.5508 14.04V67.7611L23.8244 60.7001L17.5508 14.04Z" fill="#636466"/>
<path d="M17.5508 67.7611L23.8244 60.7034V67.7611H17.5508ZM17.5508 67.7611V14.04L23.8244 60.7001L17.5508 67.7611Z" stroke="#636466" stroke-width="0.427921" stroke-miterlimit="10" stroke-linecap="round"/>
<path d="M17.5508 14.0403L23.8244 6.98242V60.7036L17.5508 14.0403Z" fill="#636466"/>
<path d="M17.5508 14.0403L23.8244 6.98242V60.7036L17.5508 14.0403Z" stroke="#636466" stroke-width="0.427921" stroke-miterlimit="10" stroke-linecap="round"/>
<path d="M17.5493 67.7614V6.98242H23.823V67.7614H17.5493ZM17.5493 101.871L0.296875 72.0712L1.86527 71.6824L18.7256 101.09L17.5493 101.871Z" stroke="#1A1A1A" stroke-width="0.427921" stroke-miterlimit="10" stroke-linecap="round" stroke-linejoin="round"/>
<path d="M17.3543 67.7617C11.4042 67.7617 5.55205 69.3269 0.395914 72.3069M17.5504 101.871H23.824M17.5504 67.7617H23.824M-0.486328 108.145V156.766H17.5504V108.145H-0.486328ZM46.1705 172.061V186.565H73.232V172.061H46.1705Z" stroke="#1A1A1A" stroke-width="0.427921" stroke-miterlimit="10" stroke-linecap="round" stroke-linejoin="round"/>
<path d="M75.9766 187.744H81.8516L75.9766 194.018V187.744Z" fill="#636466"/>
<path d="M75.9766 187.744H81.8516L75.9766 194.018V187.744Z" stroke="#636466" stroke-width="0.427921" stroke-miterlimit="10" stroke-linecap="round"/>
<path d="M204.583 194.018L210.467 187.744V194.018H204.583ZM75.9766 194.018H204.583L210.467 187.744L75.9766 194.018Z" fill="#636466"/>
<path d="M204.583 194.018L210.467 187.744M204.583 194.018H210.467V187.744M204.583 194.018H75.9766L210.467 187.744" stroke="#636466" stroke-width="0.427921" stroke-miterlimit="10" stroke-linecap="round"/>
<path d="M75.9766 194.018L81.8516 187.744H210.467L75.9766 194.018Z" fill="#636466"/>
<path d="M75.9766 194.018L81.8516 187.744H210.467L75.9766 194.018Z" stroke="#636466" stroke-width="0.427921" stroke-miterlimit="10" stroke-linecap="round"/>
<path d="M221.835 30.5117V6.98242H224.58V30.5117H221.835ZM221.835 30.5117L210.467 50.1168L211.64 50.5089L223.015 30.9038L221.835 30.5117ZM75.9766 187.744V194.018H210.467V187.744H75.9766ZM224.58 99.1295H221.835V75.6002H224.58V99.1295Z" stroke="#1A1A1A" stroke-width="0.427921" stroke-miterlimit="10" stroke-linecap="round" stroke-linejoin="round"/>
<path d="M210.367 49.8424C213.795 51.8197 217.683 52.8608 221.64 52.8615M221.836 30.5117H224.581M221.836 52.8583H224.581M221.836 75.6002L210.468 55.9951L211.642 55.2141L223.016 75.2081L221.836 75.6002Z" stroke="#1A1A1A" stroke-width="0.427921" stroke-miterlimit="10" stroke-linecap="round" stroke-linejoin="round"/>
<path d="M221.643 52.858C217.685 52.8581 213.797 53.9005 210.37 55.8804M221.836 52.858H224.581M223.016 9.33797V28.5509M223.016 97.5608V77.1715M221.836 75.5998H224.581V77.1715H221.836V75.5998ZM221.836 30.5114V28.5509H224.581V30.5114H221.836ZM221.836 99.1291V97.5608H224.581V99.1291H221.836ZM221.836 9.33797V7.76953H224.581V9.33797H221.836ZM54.8008 194.802V201.468H57.5455V194.802H54.8008Z" stroke="#1A1A1A" stroke-width="0.427921" stroke-miterlimit="10" stroke-linecap="round" stroke-linejoin="round"/>
<path d="M262.227 166.567H268.889L262.227 173.625V166.567Z" fill="#636466"/>
<path d="M262.227 166.567H268.889L262.227 173.625V166.567Z" stroke="#636466" stroke-width="0.427921" stroke-miterlimit="10" stroke-linecap="round"/>
<path d="M262.227 206.169L268.889 199.504V206.169H262.227ZM262.227 173.625V206.169L268.889 199.504L262.227 173.625Z" fill="#636466"/>
<path d="M262.227 206.169L268.889 199.504M262.227 206.169H268.889V199.504M262.227 206.169V173.625L268.889 199.504" stroke="#636466" stroke-width="0.427921" stroke-miterlimit="10" stroke-linecap="round"/>
<path d="M262.227 173.625L268.889 166.567V199.504L262.227 173.625Z" fill="#636466"/>
<path d="M262.227 173.625L268.889 166.567V199.504L262.227 173.625Z" stroke="#636466" stroke-width="0.427921" stroke-miterlimit="10" stroke-linecap="round"/>
<path d="M262.227 166.567H268.889V206.17H262.227V166.567Z" stroke="#1A1A1A" stroke-width="0.427921" stroke-miterlimit="10" stroke-linecap="round" stroke-linejoin="round"/>
<path d="M268.888 111.674V166.568H266.535V111.674H268.888Z" stroke="#1A1A1A" stroke-width="0.427921" stroke-miterlimit="10" stroke-linecap="round" stroke-linejoin="round"/>
<path d="M267.711 113.637V164.218M268.888 112.065V113.637H266.535V112.065H268.888ZM268.888 164.218V165.787H266.535V164.218H268.888Z" stroke="#1A1A1A" stroke-width="0.427921" stroke-miterlimit="10" stroke-linecap="round" stroke-linejoin="round"/>
<path d="M277.123 113.245V165.003H268.889V166.568H262.227V111.674H268.889V113.245H277.123Z" stroke="#1A1A1A" stroke-width="0.427921" stroke-miterlimit="10" stroke-linecap="round" stroke-linejoin="round"/>
<path d="M262.227 90.5029H268.889L262.227 97.1686V90.5029Z" fill="#636466"/>
<path d="M262.227 90.5029H268.889L262.227 97.1686V90.5029Z" stroke="#636466" stroke-width="0.427921" stroke-miterlimit="10" stroke-linecap="round"/>
<path d="M262.227 111.674L268.889 104.616V111.674H262.227ZM262.227 97.1689V111.674L268.889 104.616L262.227 97.1689Z" fill="#636466"/>
<path d="M262.227 111.674L268.889 104.616M262.227 111.674H268.889V104.616M262.227 111.674V97.1689L268.889 104.616" stroke="#636466" stroke-width="0.427921" stroke-miterlimit="10" stroke-linecap="round"/>
<path d="M262.227 97.1686L268.889 90.5029V104.615L262.227 97.1686Z" fill="#636466"/>
<path d="M262.227 97.1686L268.889 90.5029V104.615L262.227 97.1686Z" stroke="#636466" stroke-width="0.427921" stroke-miterlimit="10" stroke-linecap="round"/>
<path d="M262.227 90.5029H268.889V111.673H262.227V90.5029Z" stroke="#1A1A1A" stroke-width="0.427921" stroke-miterlimit="10" stroke-linecap="round" stroke-linejoin="round"/>
<path d="M268.887 165.003H274.768L268.887 171.277V165.003Z" fill="#636466"/>
<path d="M268.887 165.003H274.768L268.887 171.277V165.003Z" stroke="#636466" stroke-width="0.427921" stroke-miterlimit="10" stroke-linecap="round"/>
<path d="M268.887 208.134L274.771 201.86V208.134H268.887ZM268.887 171.276V208.134L274.771 201.86L268.887 171.276Z" fill="#636466"/>
<path d="M268.887 208.134L274.771 201.86M268.887 208.134H274.771V201.86M268.887 208.134V171.276L274.771 201.86" stroke="#636466" stroke-width="0.427921" stroke-miterlimit="10" stroke-linecap="round"/>
<path d="M268.887 171.277L274.768 165.003V201.86L268.887 171.277Z" fill="#636466"/>
<path d="M268.887 171.277L274.768 165.003V201.86L268.887 171.277Z" stroke="#636466" stroke-width="0.427921" stroke-miterlimit="10" stroke-linecap="round"/>
<path d="M268.887 165.003H274.768V208.134H268.887V165.003Z" stroke="#636466" stroke-width="0.427921" stroke-miterlimit="10" stroke-linecap="round" stroke-linejoin="round"/>
<path d="M268.887 88.9316H274.768L268.887 95.2053V88.9316Z" fill="#636466"/>
<path d="M268.887 88.9316H274.768L268.887 95.2053V88.9316Z" stroke="#636466" stroke-width="0.427921" stroke-miterlimit="10" stroke-linecap="round"/>
<path d="M268.887 113.245L274.771 106.971V113.245H268.887ZM268.887 95.2051V113.245L274.771 106.971L268.887 95.2051Z" fill="#636466"/>
<path d="M268.887 113.245L274.771 106.971M268.887 113.245H274.771V106.971M268.887 113.245V95.2051L274.771 106.971" stroke="#636466" stroke-width="0.427921" stroke-miterlimit="10" stroke-linecap="round"/>
<path d="M268.887 95.2053L274.768 88.9316V106.972L268.887 95.2053Z" fill="#636466"/>
<path d="M268.887 95.2053L274.768 88.9316V106.972L268.887 95.2053Z" stroke="#636466" stroke-width="0.427921" stroke-miterlimit="10" stroke-linecap="round"/>
<path d="M268.887 88.9316H274.768V113.245H268.887V88.9316Z" stroke="#636466" stroke-width="0.427921" stroke-miterlimit="10" stroke-linecap="round" stroke-linejoin="round"/>
<path d="M268.887 -3.60156H274.768L268.887 2.67205V-3.60156Z" fill="#636466"/>
<path d="M268.887 -3.60156H274.768L268.887 2.67205V-3.60156Z" stroke="#636466" stroke-width="0.427921" stroke-miterlimit="10" stroke-linecap="round"/>
<path d="M268.887 9.3386L274.771 3.06494V9.3386H268.887ZM268.887 2.67285V9.3386L274.771 3.06494L268.887 2.67285Z" fill="#636466"/>
<path d="M268.887 9.3386L274.771 3.06494M268.887 9.3386H274.771V3.06494M268.887 9.3386V2.67285L274.771 3.06494" stroke="#636466" stroke-width="0.427921" stroke-miterlimit="10" stroke-linecap="round"/>
<path d="M268.887 2.67205L274.768 -3.60156V3.06414L268.887 2.67205Z" fill="#636466"/>
<path d="M268.887 2.67205L274.768 -3.60156V3.06414L268.887 2.67205Z" stroke="#636466" stroke-width="0.427921" stroke-miterlimit="10" stroke-linecap="round"/>
<path d="M274.768 9.33781V-3.60156H268.887V9.33781H274.768Z" stroke="#636466" stroke-width="0.427921" stroke-miterlimit="10" stroke-linecap="round" stroke-linejoin="round"/>
<path d="M268.888 7.76953V90.503H266.535V7.76953H268.888Z" stroke="#1A1A1A" stroke-width="0.427921" stroke-miterlimit="10" stroke-linecap="round" stroke-linejoin="round"/>
<path d="M267.711 10.1189V88.1471M268.888 8.55371V10.1189H266.535V8.55371H268.888ZM268.888 88.1471V89.7187H266.535V88.1471H268.888Z" stroke="#1A1A1A" stroke-width="0.427921" stroke-miterlimit="10" stroke-linecap="round" stroke-linejoin="round"/>
<path d="M277.123 9.33797V88.9312H268.889V90.503H262.227V7.76953H268.889V9.33797H277.123Z" stroke="#1A1A1A" stroke-width="0.427921" stroke-miterlimit="10" stroke-linecap="round" stroke-linejoin="round"/>
<path d="M262.227 -2.0332H268.889L262.227 5.02463V-2.0332Z" fill="#636466"/>
<path d="M262.227 -2.0332H268.889L262.227 5.02463V-2.0332Z" stroke="#636466" stroke-width="0.427921" stroke-miterlimit="10" stroke-linecap="round"/>
<path d="M262.227 7.76975L268.889 0.711914V7.76975H262.227ZM262.227 5.02505V7.76975L268.889 0.711914L262.227 5.02505Z" fill="#636466"/>
<path d="M262.227 7.76975L268.889 0.711914M262.227 7.76975H268.889V0.711914M262.227 7.76975V5.02505L268.889 0.711914" stroke="#636466" stroke-width="0.427921" stroke-miterlimit="10" stroke-linecap="round"/>
<path d="M262.227 5.02463L268.889 -2.0332V0.708205L262.227 5.02463Z" fill="#636466"/>
<path d="M262.227 5.02463L268.889 -2.0332V0.708204L262.227 5.02463Z" stroke="#636466" stroke-width="0.427921" stroke-miterlimit="10" stroke-linecap="round"/>
<path d="M262.227 -2.0332H268.889V7.76933H262.227V-2.0332Z" stroke="#1A1A1A" stroke-width="0.427921" stroke-miterlimit="10" stroke-linecap="round" stroke-linejoin="round"/>
<path d="M62.0441 51.8581L63.2367 51.6979C63.3707 52.3743 63.606 52.8611 63.936 53.1617C64.2649 53.4591 64.6951 53.6193 65.1384 53.6094C65.7004 53.6094 66.1775 53.4134 66.5631 53.0245C66.7535 52.8363 66.9034 52.611 67.0034 52.3626C67.1034 52.1142 67.1515 51.8479 67.1447 51.5802C67.1528 51.3291 67.1094 51.079 67.0172 50.8452C66.925 50.6115 66.7861 50.3991 66.6088 50.221C66.429 50.0445 66.2153 49.9062 65.9805 49.8147C65.7457 49.7231 65.4949 49.6802 65.243 49.6884C65.0175 49.6884 64.7365 49.7341 64.4 49.8223L64.5339 48.7735C65.0842 48.8257 65.636 48.6897 66.0991 48.3879C66.5075 48.1232 66.7134 47.7148 66.7134 47.1626C66.7191 46.96 66.6822 46.7584 66.6051 46.571C66.528 46.3835 66.4124 46.2144 66.2657 46.0745C66.1131 45.9285 65.9325 45.8147 65.7349 45.74C65.5373 45.6654 65.3266 45.6313 65.1156 45.6399C64.9027 45.6333 64.6906 45.6688 64.4915 45.7445C64.2924 45.8202 64.1103 45.9347 63.9556 46.0811C63.6484 46.3719 63.4491 46.8097 63.3576 47.3913L62.165 47.1822C62.3088 46.3817 62.6421 45.7576 63.1616 45.323C63.7023 44.8732 64.3897 44.6382 65.0927 44.6629C65.6019 44.6567 66.1052 44.7732 66.5598 45.0027C66.9704 45.2023 67.3168 45.5128 67.5599 45.8992C67.8031 46.2855 67.9331 46.7322 67.9354 47.1887C67.94 47.5975 67.8216 47.9982 67.5956 48.3389C67.3458 48.7027 66.998 48.9882 66.5925 49.1623C67.1675 49.293 67.6152 49.5707 67.9322 49.989C68.2491 50.4072 68.4092 50.93 68.4092 51.5541C68.4154 51.9592 68.3359 52.361 68.176 52.7332C68.0161 53.1054 67.7793 53.4397 67.4812 53.714C67.1672 54.0099 66.7975 54.2405 66.3937 54.3925C65.9898 54.5445 65.5598 54.6149 65.1286 54.5995C64.3495 54.626 63.5896 54.3536 63.0047 53.8381C62.4411 53.3267 62.0969 52.6173 62.0441 51.8581ZM70.2652 54.4263V53.067H71.6244V54.4263H70.2652ZM73.4477 45.97V44.823H79.7475V45.751C79.1299 46.4078 78.5156 47.2868 77.9079 48.3781C77.2936 49.4728 76.8296 50.5967 76.4963 51.7502C76.2443 52.6213 76.0898 53.5177 76.0356 54.423H74.807C74.8233 53.6584 74.9704 52.7304 75.2579 51.6488C75.5454 50.564 75.9604 49.5185 76.4963 48.5121C77.0355 47.5057 77.6073 46.6594 78.2118 45.9667H73.4477V45.97ZM56.473 151.772L55.2836 151.863C55.2218 151.49 55.0667 151.138 54.8327 150.841C54.6806 150.676 54.4955 150.545 54.2895 150.457C54.0834 150.368 53.861 150.324 53.6368 150.328C53.2765 150.323 52.9243 150.435 52.6337 150.648C52.2612 150.922 51.9605 151.324 51.7449 151.85C51.5292 152.376 51.4149 153.128 51.4051 154.098C51.6564 153.699 52.0051 153.371 52.4184 153.144C52.8317 152.917 53.296 152.799 53.7675 152.801C54.5615 152.801 55.2411 153.095 55.7999 153.684C56.3619 154.268 56.6429 155.026 56.6429 155.954C56.6429 156.565 56.5089 157.131 56.2475 157.657C55.9829 158.183 55.6234 158.585 55.1627 158.862C54.702 159.14 54.1792 159.281 53.5976 159.281C53.1351 159.294 52.6757 159.202 52.254 159.012C51.8322 158.822 51.4593 158.538 51.1633 158.183C50.5327 157.448 50.219 156.242 50.219 154.562C50.219 152.684 50.5653 151.318 51.258 150.462C51.5513 150.098 51.9256 149.807 52.3512 149.614C52.7767 149.42 53.2416 149.329 53.7087 149.348C54.4733 149.348 55.1006 149.56 55.5908 149.988C56.0809 150.422 56.375 151.017 56.473 151.772ZM51.5913 155.968C51.5913 156.379 51.6796 156.771 51.856 157.147C52.0324 157.523 52.2742 157.81 52.5879 158.01C52.9049 158.206 53.2316 158.304 53.578 158.304C53.8263 158.304 54.0715 158.249 54.2963 158.143C54.521 158.037 54.7198 157.884 54.8784 157.693C55.2411 157.284 55.4208 156.732 55.4208 156.033C55.4208 155.36 55.2411 154.83 54.885 154.445C54.715 154.256 54.506 154.106 54.2724 154.006C54.0389 153.905 53.7864 153.857 53.5322 153.863C53.2755 153.859 53.0208 153.908 52.7844 154.008C52.548 154.109 52.3352 154.257 52.1599 154.445C51.9676 154.647 51.8182 154.887 51.7206 155.148C51.6229 155.41 51.5789 155.689 51.5913 155.968ZM58.5021 159.117V157.758H59.8614V159.117H58.5021ZM65.439 159.117V156.788H61.2141V155.693L65.6547 149.387H66.6317V155.693H67.9452V156.788H66.6317V159.117H65.439ZM65.439 155.696V151.308L62.3872 155.696H65.439ZM238.094 77.3446L239.287 77.1845C239.428 77.8608 239.66 78.3477 239.99 78.6483C240.32 78.9456 240.751 79.1058 241.195 79.096C241.757 79.096 242.228 78.8999 242.62 78.5111C242.81 78.3223 242.959 78.0969 243.059 77.8487C243.159 77.6004 243.207 77.3345 243.202 77.0669C243.21 76.8151 243.166 76.5642 243.073 76.3301C242.98 76.0959 242.84 75.8835 242.661 75.706C242.482 75.5284 242.269 75.3897 242.034 75.2983C241.799 75.207 241.548 75.165 241.297 75.175C241.071 75.175 240.79 75.2208 240.45 75.309L240.584 74.2601C241.136 74.3133 241.689 74.1772 242.153 73.8745C242.558 73.6098 242.764 73.2014 242.764 72.6492C242.77 72.4468 242.734 72.2454 242.657 72.0579C242.581 71.8705 242.465 71.7012 242.319 71.5611C242.022 71.2703 241.64 71.1265 241.172 71.1265C240.705 71.1265 240.316 71.2736 240.012 71.5676C239.699 71.8584 239.503 72.2963 239.411 72.8779L238.219 72.6688C238.366 71.8683 238.696 71.2442 239.215 70.8096C239.756 70.3603 240.443 70.1254 241.146 70.1496C241.679 70.1496 242.166 70.2607 242.61 70.4894C243.022 70.6872 243.37 70.9973 243.614 71.3839C243.858 71.7706 243.988 72.2182 243.989 72.6754C243.989 73.0969 243.878 73.4792 243.649 73.8255C243.42 74.1719 243.09 74.443 242.646 74.6489C243.224 74.7796 243.669 75.0574 243.986 75.4756C244.316 75.929 244.484 76.4803 244.463 77.0408C244.469 77.4458 244.389 77.8476 244.23 78.2198C244.07 78.592 243.833 78.9262 243.535 79.2005C243.221 79.4965 242.852 79.7272 242.449 79.8792C242.046 80.0312 241.616 80.1015 241.185 80.086C240.405 80.113 239.644 79.8406 239.058 79.3247C238.496 78.8119 238.151 78.1035 238.094 77.3446ZM246.319 79.9129V78.5536H247.678V79.9129H246.319ZM249.433 77.3446L250.625 77.1845C250.763 77.8608 250.998 78.3477 251.325 78.6483C251.655 78.9453 252.086 79.1054 252.53 79.096C253.092 79.096 253.566 78.8999 253.955 78.5111C254.145 78.3228 254.295 78.0976 254.395 77.8492C254.495 77.6008 254.543 77.3346 254.537 77.0669C254.545 76.8158 254.501 76.5656 254.409 76.3319C254.317 76.0981 254.178 75.8856 254.001 75.7076C253.821 75.5313 253.607 75.3933 253.372 75.3018C253.137 75.2103 252.887 75.1671 252.635 75.175C252.406 75.175 252.125 75.2208 251.789 75.309L251.922 74.2601C252.474 74.3122 253.027 74.1763 253.491 73.8745C253.896 73.6098 254.102 73.2014 254.102 72.6492C254.108 72.4468 254.071 72.2456 253.995 72.0582C253.918 71.8709 253.803 71.7016 253.658 71.5611C253.357 71.2703 252.975 71.1265 252.507 71.1265C252.04 71.1265 251.655 71.2736 251.347 71.5676C251.037 71.8584 250.838 72.2963 250.746 72.8779L249.554 72.6688C249.701 71.8683 250.031 71.2442 250.55 70.8096C251.092 70.3598 251.781 70.1249 252.484 70.1496C253.014 70.1496 253.504 70.2607 253.948 70.4894C254.361 70.6866 254.709 70.9965 254.953 71.3832C255.197 71.77 255.327 72.2181 255.327 72.6754C255.33 73.084 255.212 73.4843 254.987 73.8255C254.737 74.1886 254.389 74.4739 253.984 74.6489C254.559 74.7796 255.007 75.0574 255.324 75.4756C255.641 75.8939 255.801 76.4167 255.801 77.0408C255.807 77.4461 255.727 77.848 255.566 78.2202C255.406 78.5924 255.169 78.9265 254.87 79.2005C254.556 79.4965 254.187 79.7272 253.784 79.8792C253.381 80.0312 252.951 80.1015 252.52 80.086C251.741 80.1135 250.981 79.841 250.397 79.3247C249.832 78.8136 249.487 78.1042 249.433 77.3446ZM233.961 174.017H232.765V166.404C232.478 166.678 232.102 166.953 231.635 167.227C231.167 167.502 230.749 167.708 230.377 167.845V166.688C231.043 166.371 231.628 165.992 232.128 165.545C232.628 165.097 232.981 164.662 233.19 164.247H233.958V174.017H233.961ZM237.023 171.469L238.277 171.364C238.369 171.975 238.588 172.433 238.924 172.743C239.259 173.048 239.697 173.213 240.15 173.204C240.425 173.208 240.698 173.151 240.95 173.039C241.202 172.927 241.426 172.761 241.607 172.553C242.006 172.122 242.205 171.544 242.205 170.831C242.205 170.148 242.012 169.613 241.63 169.217C241.434 169.02 241.199 168.866 240.94 168.764C240.682 168.662 240.405 168.615 240.127 168.626C239.777 168.623 239.431 168.707 239.122 168.871C238.812 169.036 238.549 169.275 238.356 169.567L237.232 169.423L238.176 164.427H243.012V165.567H239.13L238.607 168.185C239.141 167.792 239.785 167.578 240.447 167.57C241.297 167.57 242.012 167.868 242.597 168.456C243.182 169.044 243.476 169.802 243.476 170.724C243.476 171.606 243.218 172.367 242.705 173.008C242.081 173.795 241.231 174.187 240.153 174.187C239.267 174.187 238.545 173.939 237.983 173.442C237.415 172.937 237.07 172.227 237.023 171.469ZM245.25 174.017V172.658H246.61V174.017H245.25ZM254.635 172.867V174.017H248.201C248.193 173.734 248.241 173.452 248.341 173.187C248.529 172.715 248.794 172.278 249.126 171.893C249.488 171.469 250.011 170.978 250.691 170.423C251.749 169.554 252.465 168.868 252.834 168.361C253.203 167.855 253.393 167.374 253.393 166.927C253.393 166.45 253.223 166.051 252.886 165.728C252.55 165.404 252.109 165.241 251.563 165.241C250.985 165.241 250.527 165.417 250.181 165.76C249.835 166.103 249.665 166.584 249.658 167.191L248.43 167.064C248.514 166.149 248.828 165.453 249.377 164.969C249.926 164.492 250.668 164.251 251.589 164.251C252.524 164.251 253.262 164.509 253.808 165.025C254.072 165.27 254.282 165.568 254.423 165.9C254.564 166.231 254.632 166.589 254.625 166.95C254.623 167.345 254.54 167.737 254.383 168.1C254.226 168.475 253.961 168.871 253.592 169.286C253.223 169.701 252.609 170.273 251.753 170.998C251.034 171.599 250.576 172.008 250.37 172.22C250.181 172.418 250.012 172.635 249.867 172.867H254.635ZM1.25857 47.8651L0.069201 47.9566C0.00892019 47.5828 -0.146343 47.2305 -0.381717 46.9338C-0.533522 46.7687 -0.718594 46.6377 -0.924724 46.5492C-1.13085 46.4608 -1.35338 46.4171 -1.57764 46.4209C-1.93787 46.4162 -2.2899 46.5285 -2.58077 46.7411C-2.95326 47.0156 -3.25059 47.4175 -3.46625 47.9436C-3.68191 48.4696 -3.79955 49.2211 -3.80608 50.1916C-3.55555 49.7927 -3.20743 49.4642 -2.79463 49.2372C-2.38184 49.0102 -1.91801 48.8922 -1.44694 48.8944C-1.06461 48.8896 -0.685579 48.9658 -0.334751 49.1178C0.0160775 49.2699 0.330777 49.4943 0.588724 49.7766C1.14747 50.3615 1.42849 51.1195 1.42849 52.0475C1.42849 52.6585 1.29778 53.2238 1.03311 53.7499C0.796386 54.2483 0.419874 54.6672 -0.0506086 54.9555C-0.521091 55.2439 -1.06527 55.3892 -1.61686 55.3739C-2.07926 55.3871 -2.5386 55.2951 -2.96029 55.1049C-3.38197 54.9147 -3.75497 54.6313 -4.05114 54.276C-4.6785 53.5408 -4.99219 52.3351 -4.99219 50.6556C-4.99219 48.7767 -4.6491 47.4109 -3.95312 46.5548C-3.65986 46.1908 -3.2855 45.9005 -2.85997 45.707C-2.43445 45.5136 -1.96957 45.4223 -1.50248 45.4406C-0.818243 45.4122 -0.148118 45.6407 0.376328 46.0811C0.866455 46.5124 1.16054 47.107 1.25857 47.8651ZM-3.61984 52.0573C-3.61984 52.469 -3.53161 52.8612 -3.35843 53.2369C-3.20201 53.5896 -2.94662 53.8891 -2.62325 54.0995C-2.30956 54.2955 -1.97954 54.3936 -1.63319 54.3936C-1.38487 54.3934 -1.13965 54.3385 -0.914902 54.2329C-0.690156 54.1273 -0.491381 53.9736 -0.332707 53.7826C0.0299873 53.3741 0.209702 52.8219 0.209702 52.1227C0.209702 51.4496 0.0299835 50.9203 -0.326175 50.5347C-0.682334 50.1459 -1.13652 49.9531 -1.67893 49.9531C-2.22134 49.9531 -2.67878 50.1459 -3.05455 50.5347C-3.24571 50.7379 -3.39424 50.9773 -3.49133 51.2388C-3.58842 51.5003 -3.63211 51.7786 -3.61984 52.0573ZM187.686 81.1938L188.833 81.0892C188.931 81.6283 189.121 82.0204 189.395 82.2622C189.67 82.504 190.02 82.6249 190.448 82.6249C190.786 82.6335 191.12 82.5463 191.411 82.3733C191.692 82.2034 191.915 81.9812 192.094 81.7002C192.274 81.4192 192.421 81.0402 192.542 80.5599C192.659 80.0829 192.719 79.5937 192.722 79.1025L192.715 78.864C192.466 79.2548 192.123 79.5767 191.717 79.7999C191.311 80.0232 190.855 80.1406 190.392 80.1416C189.585 80.1416 188.905 79.8508 188.347 79.2659C187.788 78.6811 187.51 77.9132 187.51 76.9558C187.51 75.969 187.801 75.175 188.382 74.5738C188.664 74.2792 189.005 74.0471 189.382 73.8923C189.759 73.7375 190.164 73.6636 190.572 73.6752C191.2 73.6711 191.816 73.8561 192.338 74.2063C192.86 74.5565 193.265 75.0557 193.499 75.639C193.771 76.2696 193.908 77.1845 193.908 78.3772C193.908 79.6221 193.774 80.6121 193.503 81.3473C193.231 82.0825 192.83 82.6412 192.3 83.03C191.753 83.4193 191.096 83.6221 190.425 83.6084C189.667 83.6084 189.039 83.3993 188.562 82.9745C188.072 82.553 187.785 81.9584 187.686 81.1938ZM192.578 76.897C192.578 76.2108 192.392 75.6684 192.029 75.2665C191.666 74.8646 191.225 74.6587 190.715 74.6587C190.45 74.6593 190.188 74.7177 189.948 74.8301C189.707 74.9424 189.494 75.1058 189.323 75.309C188.919 75.7765 188.709 76.3808 188.735 76.9983C188.735 77.6158 188.922 78.119 189.297 78.5078C189.474 78.6962 189.689 78.8454 189.927 78.9456C190.165 79.0458 190.421 79.0948 190.68 79.0894C191.232 79.0894 191.686 78.8934 192.042 78.5078C192.398 78.119 192.578 77.5832 192.578 76.897ZM195.738 83.4418V82.0825H197.097V83.4418H195.738ZM199.025 81.1938L200.172 81.0892C200.27 81.6283 200.456 82.0204 200.73 82.2622C201.005 82.504 201.354 82.6249 201.783 82.6249C202.152 82.6249 202.472 82.5432 202.75 82.3733C203.027 82.2034 203.253 81.9812 203.429 81.7002C203.609 81.4192 203.756 81.0402 203.877 80.5599C203.996 80.0831 204.056 79.5938 204.057 79.1025L204.05 78.864C203.802 79.2554 203.459 79.5778 203.053 79.8011C202.646 80.0245 202.19 80.1415 201.727 80.1416C201.344 80.1481 200.964 80.0734 200.612 79.9225C200.26 79.7715 199.944 79.5478 199.685 79.2659C199.123 78.6811 198.848 77.9132 198.848 76.9558C198.848 75.969 199.136 75.175 199.721 74.5738C200.002 74.2795 200.342 74.0475 200.718 73.8927C201.095 73.7379 201.5 73.6639 201.907 73.6752C202.536 73.6697 203.152 73.8542 203.674 74.2046C204.196 74.555 204.601 75.0549 204.834 75.639C205.109 76.2696 205.243 77.1845 205.243 78.3772C205.243 79.6221 205.109 80.6121 204.841 81.3473C204.616 82.0163 204.196 82.6024 203.635 83.03C203.089 83.4198 202.431 83.6226 201.76 83.6084C201.081 83.6377 200.417 83.4115 199.897 82.9745C199.407 82.553 199.12 81.9584 199.025 81.1938ZM203.913 76.897C203.913 76.2108 203.73 75.6684 203.364 75.2665C203.203 75.0756 203.001 74.9223 202.774 74.8173C202.548 74.7123 202.3 74.6582 202.05 74.6587C201.521 74.6587 201.054 74.8744 200.662 75.309C200.27 75.7436 200.07 76.3056 200.07 76.9983C200.07 77.6158 200.257 78.119 200.632 78.5078C201.005 78.8934 201.469 79.0894 202.018 79.0894C202.567 79.0894 203.024 78.8934 203.38 78.5078C203.733 78.119 203.913 77.5832 203.913 76.897Z" fill="#1A1A1A"/>
<path d="M128.906 164.61H192.819V109.716H128.906M137.137 137.16H192.819" stroke="#1A1A1A" stroke-width="0.427921" stroke-miterlimit="10" stroke-linecap="round" stroke-linejoin="round"/>
<path d="M98.3242 164.61H137.139V109.716H98.3242V164.61Z" stroke="#1A1A1A" stroke-width="0.427921" stroke-miterlimit="10" stroke-linecap="round" stroke-linejoin="round"/>
<path d="M149.386 130.887H147.795V120.738C147.336 121.161 146.829 121.53 146.285 121.836C145.752 122.16 145.191 122.435 144.609 122.659V121.12C145.498 120.699 146.278 120.192 146.945 119.597C147.612 118.999 148.085 118.424 148.36 117.862H149.386V130.887ZM153.464 127.488L155.14 127.348C155.264 128.162 155.552 128.776 156.003 129.184C156.447 129.592 157.033 129.813 157.636 129.799C158.004 129.803 158.369 129.727 158.705 129.577C159.042 129.427 159.341 129.206 159.584 128.929C160.113 128.351 160.378 127.586 160.378 126.629C160.378 125.724 160.123 125.005 159.613 124.479C159.352 124.216 159.039 124.011 158.694 123.876C158.349 123.741 157.98 123.679 157.61 123.695C157.143 123.689 156.682 123.801 156.269 124.019C155.857 124.238 155.505 124.557 155.248 124.946L153.755 124.75L155.009 118.088H161.459V119.61H156.284L155.588 123.097C156.299 122.576 157.156 122.291 158.038 122.283C159.169 122.283 160.126 122.675 160.904 123.456C161.681 124.241 162.07 125.25 162.07 126.485C162.07 127.658 161.73 128.675 161.044 129.531C160.214 130.58 159.077 131.102 157.64 131.102C156.46 131.102 155.499 130.772 154.751 130.112C154.003 129.452 153.575 128.58 153.464 127.488ZM164.443 130.887V129.073H166.256V130.887H164.443ZM176.951 129.354V130.887H168.38C168.366 130.509 168.429 130.132 168.566 129.779C168.782 129.194 169.135 128.622 169.612 128.057C170.092 127.488 170.785 126.835 171.7 126.09C173.108 124.933 174.062 124.018 174.556 123.342C175.049 122.666 175.3 122.028 175.3 121.427C175.306 121.128 175.249 120.832 175.132 120.556C175.016 120.281 174.842 120.034 174.624 119.829C174.387 119.609 174.109 119.439 173.805 119.327C173.502 119.216 173.179 119.165 172.856 119.179C172.092 119.179 171.477 119.408 171.017 119.872C170.556 120.333 170.321 120.966 170.314 121.783L168.681 121.613C168.792 120.391 169.213 119.463 169.945 118.823C170.68 118.183 171.66 117.862 172.892 117.862C174.137 117.862 175.121 118.205 175.846 118.898C176.572 119.588 176.934 120.444 176.934 121.463C176.934 121.979 176.83 122.489 176.614 122.992C176.402 123.496 176.049 124.022 175.559 124.577C175.068 125.132 174.248 125.891 173.101 126.858C172.464 127.374 171.85 127.919 171.262 128.491C171.008 128.755 170.781 129.044 170.585 129.354H176.951ZM143.396 154.125L144.988 153.913C145.174 154.815 145.481 155.468 145.919 155.867C146.358 156.265 146.934 156.479 147.527 156.465C147.879 156.472 148.23 156.407 148.557 156.273C148.883 156.139 149.179 155.94 149.425 155.687C149.678 155.434 149.877 155.133 150.011 154.801C150.144 154.469 150.208 154.114 150.199 153.756C150.21 153.421 150.151 153.088 150.028 152.776C149.904 152.465 149.718 152.182 149.481 151.946C149.241 151.71 148.956 151.525 148.642 151.402C148.329 151.28 147.994 151.222 147.657 151.233C147.357 151.233 146.981 151.296 146.533 151.413L146.71 150.011C147.444 150.077 148.179 149.898 148.801 149.502C149.343 149.149 149.611 148.603 149.611 147.865C149.611 147.28 149.412 146.796 149.017 146.414C148.621 146.032 148.115 145.839 147.487 145.839C146.914 145.822 146.357 146.032 145.939 146.424C145.524 146.812 145.259 147.397 145.141 148.175L143.55 147.891C143.746 146.822 144.184 145.996 144.877 145.407C145.566 144.819 146.426 144.525 147.452 144.525C148.161 144.525 148.811 144.679 149.405 144.983C149.954 145.249 150.418 145.663 150.744 146.178C151.071 146.694 151.246 147.29 151.252 147.901C151.255 148.444 151.097 148.976 150.797 149.43C150.467 149.916 150.005 150.297 149.464 150.528C150.172 150.672 150.805 151.062 151.252 151.629C151.673 152.188 151.886 152.887 151.886 153.723C151.886 154.857 151.474 155.818 150.647 156.605C149.82 157.393 148.778 157.785 147.514 157.785C146.373 157.785 145.429 157.445 144.677 156.765C143.929 156.081 143.47 155.137 143.396 154.125ZM155.918 150.515C155.333 150.33 154.819 149.969 154.447 149.482C154.121 149.009 153.954 148.445 153.97 147.871C153.97 146.93 154.31 146.136 154.99 145.489C155.666 144.849 156.568 144.525 157.695 144.525C158.829 144.525 159.741 144.855 160.43 145.512C160.763 145.816 161.027 146.187 161.206 146.602C161.385 147.016 161.473 147.463 161.466 147.914C161.479 148.474 161.312 149.024 160.989 149.482C160.626 149.964 160.124 150.323 159.551 150.511C160.348 150.773 160.956 151.191 161.371 151.769C161.786 152.348 161.995 153.04 161.995 153.841C161.995 154.952 161.603 155.883 160.819 156.635C160.035 157.389 159.002 157.768 157.721 157.768C156.444 157.768 155.411 157.393 154.627 156.631C153.843 155.87 153.451 154.929 153.451 153.795C153.451 152.952 153.663 152.246 154.091 151.678C154.547 151.09 155.192 150.679 155.918 150.515ZM155.088 153.805C155.088 154.259 155.195 154.697 155.414 155.122C155.627 155.547 155.947 155.873 156.372 156.109C156.8 156.341 157.254 156.458 157.744 156.458C158.091 156.47 158.437 156.411 158.761 156.284C159.084 156.158 159.379 155.967 159.626 155.723C159.873 155.48 160.066 155.189 160.195 154.868C160.324 154.547 160.385 154.203 160.374 153.857C160.385 153.504 160.323 153.153 160.191 152.825C160.06 152.497 159.862 152.2 159.61 151.952C159.357 151.705 159.058 151.512 158.729 151.383C158.4 151.255 158.048 151.194 157.695 151.204C156.944 151.204 156.323 151.449 155.833 151.949C155.588 152.191 155.396 152.48 155.268 152.8C155.139 153.119 155.078 153.461 155.088 153.805ZM155.601 147.816C155.601 148.43 155.8 148.93 156.195 149.319C156.587 149.708 157.104 149.904 157.738 149.904C158.015 149.914 158.292 149.868 158.551 149.768C158.81 149.668 159.045 149.516 159.244 149.322C159.435 149.139 159.586 148.918 159.687 148.673C159.788 148.428 159.838 148.165 159.832 147.901C159.838 147.627 159.788 147.355 159.683 147.101C159.578 146.848 159.422 146.62 159.224 146.43C159.027 146.234 158.792 146.079 158.533 145.976C158.274 145.874 157.997 145.825 157.718 145.832C157.11 145.832 156.607 146.028 156.205 146.417C155.803 146.806 155.601 147.273 155.601 147.816ZM164.443 157.549V155.736H166.256V157.549H164.443ZM168.579 154.151L170.255 154.011C170.376 154.824 170.664 155.439 171.118 155.847C171.563 156.255 172.148 156.475 172.752 156.461C173.12 156.466 173.485 156.39 173.821 156.24C174.157 156.09 174.457 155.869 174.699 155.592C175.229 155.014 175.493 154.249 175.493 153.292C175.493 152.387 175.238 151.668 174.729 151.142C174.467 150.879 174.155 150.674 173.81 150.539C173.465 150.404 173.096 150.342 172.726 150.358C172.258 150.35 171.796 150.461 171.382 150.68C170.969 150.899 170.617 151.218 170.36 151.609L168.867 151.413L170.125 144.751H176.575V146.273H171.399L170.7 149.76C171.411 149.239 172.269 148.954 173.15 148.946C174.284 148.946 175.238 149.338 176.016 150.119C176.794 150.903 177.183 151.913 177.183 153.148C177.183 154.321 176.843 155.337 176.16 156.194C175.327 157.242 174.19 157.765 172.755 157.765C171.576 157.765 170.612 157.435 169.863 156.775C169.115 156.115 168.687 155.243 168.579 154.151Z" fill="#1A1A1A"/>
<path d="M118.335 147H121V124H119.282C118.822 124.992 118.029 126.008 116.912 127.064C115.796 128.114 114.488 129.009 113 129.753V132.471C113.975 132.075 114.914 131.589 115.807 131.017C116.719 130.477 117.567 129.826 118.335 129.078V147Z" fill="#1A1A1A"/>
<path d="M262.225 99.129H221.836V101.871M221.836 101.871H262.225M221.836 101.871H220.27M110.087 101.871H111.658M112.831 101.871H115.187M116.36 101.871H118.716M119.889 101.871H121.85M123.026 101.871H125.379M126.555 101.871H128.908M130.084 101.871H132.436M133.613 101.871H135.965M137.138 101.871H139.494M140.667 101.871H143.023M144.196 101.871H146.16M147.336 101.871H149.689M150.868 101.871H153.218M154.397 101.871H156.743M157.926 101.871H160.272M161.455 101.871H163.801M164.984 101.871H167.333M168.51 101.871H170.474M171.647 101.871H174.002M175.175 101.871H177.531M178.704 101.871H181.06M182.233 101.871H184.589M185.762 101.871H188.115M189.291 101.871H191.644M192.82 101.871H195.173M195.954 101.871H198.309M199.483 101.871H201.838M203.011 101.871H205.367M206.544 101.871H208.896M210.073 101.871H212.425M213.601 101.871H215.954M217.13 101.871H219.486M-220.844 -21.2461V186.172H-83.2194V195.975H-129.876V188.528H-180.461V195.975H-220.844V279.496H-219.279V294H-139.679V295.572H-5.18794V292.435H53.2319V254.79H63.0344V295.572H190.863V292.435H262.225V195.975H210.468V194.018H75.9771V195.975H17.5507V108.144H-42.4408V-21.2461H-220.844Z" stroke="#1A1A1A" stroke-width="0.427921" stroke-miterlimit="10" stroke-linecap="round" stroke-linejoin="round"/>
<path d="M170.29 34.89C165.917 30.8115 160.104 28.6369 154.128 28.8447C148.152 29.0524 142.504 31.6254 138.425 35.9977C136.405 38.1624 134.831 40.7037 133.793 43.4767C132.756 46.2497 132.274 49.1999 132.377 52.1589C132.479 55.1179 133.164 58.0277 134.391 60.7222C135.618 63.4166 137.364 65.8429 139.53 67.8625C141.694 69.8824 144.236 71.456 147.009 72.4935C149.782 73.531 152.732 74.0121 155.691 73.9093C158.65 73.8064 161.56 73.1216 164.255 71.894C166.949 70.6664 169.375 68.9202 171.394 66.7548C175.472 62.382 177.646 56.569 177.439 50.5938C177.232 44.6185 174.66 38.97 170.29 34.89Z" stroke="#1A1A1A" stroke-width="0.427921" stroke-miterlimit="10" stroke-linecap="round" stroke-linejoin="round"/>
<path d="M146.758 47.3593L144.781 47.5129C144.601 46.7319 144.353 46.1634 144.03 45.8105C143.777 45.536 143.469 45.3184 143.126 45.1719C142.783 45.0255 142.413 44.9535 142.04 44.9609C141.44 44.9512 140.854 45.1371 140.37 45.4903C139.743 45.9478 139.249 46.6143 138.887 47.49C138.53 48.369 138.338 49.6172 138.325 51.2379C138.742 50.5722 139.323 50.0247 140.012 49.6477C140.702 49.2707 141.476 49.0769 142.262 49.0846C143.588 49.0846 144.719 49.5714 145.65 50.5484C146.582 51.5254 147.052 52.7899 147.052 54.3355C147.052 55.3549 146.833 56.2992 146.392 57.1716C145.997 58.0025 145.37 58.7007 144.585 59.1811C143.801 59.6615 142.894 59.9033 141.974 59.8771C140.314 59.8771 138.962 59.2628 137.916 58.044C136.87 56.8252 136.348 54.8125 136.348 52.009C136.348 48.8754 136.926 46.5979 138.083 45.1733C139.092 43.9349 140.452 43.3174 142.161 43.3174C143.438 43.3174 144.484 43.6736 145.301 44.3891C146.104 45.1113 146.598 46.1013 146.758 47.3593ZM138.628 54.3485C138.628 55.0347 138.772 55.6915 139.066 56.3221C139.324 56.9089 139.749 57.4067 140.288 57.7532C140.779 58.0734 141.352 58.2448 141.938 58.2466C142.352 58.2474 142.761 58.1564 143.136 57.9801C143.511 57.8038 143.841 57.5466 144.105 57.2271C144.709 56.5475 145.01 55.6261 145.01 54.4596C145.01 53.3389 144.712 52.4566 144.115 51.8096C143.831 51.4956 143.482 51.2466 143.093 51.0797C142.704 50.9128 142.283 50.8319 141.86 50.8425C141.432 50.8356 141.008 50.9181 140.614 51.0846C140.22 51.2512 139.866 51.4981 139.573 51.8096C138.942 52.4566 138.628 53.3029 138.628 54.3485ZM156.528 59.6027H154.538V46.915C154.058 47.3724 153.427 47.8298 152.649 48.2873C151.872 48.7447 151.176 49.0878 150.555 49.3132V47.3887C151.666 46.8659 152.643 46.232 153.473 45.487C154.309 44.742 154.897 44.0199 155.244 43.3207H156.531L156.528 59.6027ZM168.01 59.6027V55.7208H160.975V53.8943L168.376 43.386H170.003V53.8943H172.192V55.7208H170.003V59.6027H168.01ZM168.01 53.8943V46.5849L162.929 53.8943H168.01Z" fill="#1A1A1A"/>
</g>
</g>
<defs>
<clipPath id="clip0_987_1043">
<rect width="276.641" height="195.531" fill="white" transform="translate(0.445312)"/>
</clipPath>
</defs>
</svg>
