<svg width="479" height="296" viewBox="0 0 479 296" fill="none" xmlns="http://www.w3.org/2000/svg">
<rect width="479" height="295" rx="32" fill="white"/>
<path d="M367.186 57.8342L478.882 58.1701V48.6682H184.551C184.551 48.6682 216.025 36.5285 246.994 4.82271L250.399 0.700706L238.323 0.256805L234.299 4.82271C234.299 4.82271 191.701 43.451 158.424 49.1806L59.707 49.3623C58.6821 49.3642 57.6684 49.1494 56.7323 48.732C55.7963 48.3146 54.9591 47.704 54.2756 46.9402C53.5921 46.1765 53.0779 45.2769 52.7665 44.3004C52.4552 43.324 52.3538 42.2927 52.4691 41.2743L56.7323 0.5H50.3524L46.4875 35.6681C46.3669 36.4498 46.047 37.1873 45.5587 37.8096C45.0704 38.4319 44.4302 38.9179 43.6995 39.221C42.9689 39.524 42.1726 39.6339 41.3872 39.5399C40.6018 39.446 39.8539 39.1514 39.2154 38.6846L5.83984 13.5L2.83984 19L30.6115 39.3068C41.2001 46.1316 43.2996 53.0455 41.8188 61.562L38.6995 88.198L29.3655 144.043L12.8025 277.807C11.6834 286.845 18.7329 294.821 27.8398 294.821V294.821C27.8398 294.821 29.8094 218.267 49.3686 177.251C68.9244 136.234 76.4468 134.133 76.4468 134.133C76.4468 134.133 88.8933 132.025 88.5968 144.043L88.6019 209.405V210.232C88.6017 212.598 89.0674 214.94 89.9725 217.126C90.8775 219.311 92.2042 221.297 93.8768 222.97C95.5493 224.642 97.535 225.969 99.7204 226.874C101.906 227.78 104.248 228.246 106.614 228.246H395.697C397.874 228.247 399.962 229.112 401.502 230.652C403.041 232.192 403.906 234.28 403.906 236.457V295H412.305V210.589C412.305 210.589 415.268 170.286 395.512 143.616L376.941 114.574C376.941 114.574 367.261 95.9535 364.79 79.0868L363.504 61.5037C363.505 60.5303 363.893 59.5972 364.581 58.9094C365.27 58.2216 366.204 57.8355 367.177 57.8359L367.186 57.8342ZM87.5084 104.719C87.5084 104.719 57.2852 138.083 49.7765 156.657C49.7765 156.657 39.7021 172.067 28.6096 213.97L39.7021 140.654L49.3823 80.3962L50.3524 73.9999C51.018 69.6173 53.2275 65.6168 56.5826 62.7196C59.9376 59.8224 64.2174 58.2193 68.6502 58.1993L152.905 57.8325C152.905 57.8325 112.6 77.678 87.5084 104.719Z" stroke="#4F4F4F" stroke-width="0.25" stroke-miterlimit="10"/>
<path d="M51.0568 203.136L51.0604 202.636L50.5581 202.632L50.5568 203.134L51.0568 203.136ZM50.9505 242.227L50.4505 242.225L50.4492 242.723L50.9473 242.727L50.9505 242.227ZM64.5128 242.314L64.5095 242.814H64.5128V242.314ZM80.3854 242.314V242.814H80.8854V242.314H80.3854ZM80.3854 198.854H80.8854V198.354H80.3854V198.854ZM71.8963 198.854V198.354H71.4265L71.3973 198.823L71.8963 198.854ZM71.7609 201.028L71.7494 201.527L72.2301 201.539L72.26 201.059L71.7609 201.028ZM60.3531 200.764L60.3646 200.264L59.8389 200.252L59.8533 200.777L60.3531 200.764ZM60.4199 203.204L60.4163 203.704L60.9339 203.708L60.9197 203.191L60.4199 203.204ZM93.8576 202.957L94.3541 203.016C94.3564 202.997 94.3576 202.977 94.3576 202.957H93.8576ZM93.8576 129.019H94.3576C94.3576 128.988 94.3547 128.957 94.3489 128.927L93.8576 129.019ZM145.804 71.6197L145.563 71.1818L145.558 71.1846L145.804 71.6197ZM164.863 62.1692L165.021 62.6435L165.022 62.6433L164.863 62.1692ZM184.686 57.7541L184.579 58.2424C184.614 58.2502 184.65 58.2541 184.686 58.2541V57.7541ZM231.807 57.7473L231.808 57.2473H231.807V57.7473ZM329.792 57.8587L329.791 58.3587H329.796L329.792 57.8587ZM344.23 57.7473L344.311 57.2538C344.283 57.2493 344.254 57.2471 344.226 57.2473L344.23 57.7473ZM354.345 66.4146L354.841 66.3474C354.837 66.3174 354.83 66.2879 354.821 66.2592L354.345 66.4146ZM361.852 102.866L362.317 102.681L362.316 102.679L361.852 102.866ZM375.631 130.306L376.054 130.041C376.028 129.998 375.995 129.96 375.957 129.927L375.631 130.306ZM386.778 148.108L387.207 147.851L387.202 147.843L386.778 148.108ZM392.917 158.353L393.362 158.125C393.357 158.115 393.352 158.105 393.346 158.096L392.917 158.353ZM397.24 166.794L397.721 166.658C397.712 166.626 397.7 166.595 397.685 166.566L397.24 166.794ZM400.736 179.247L401.228 179.155C401.225 179.14 401.221 179.126 401.217 179.112L400.736 179.247ZM403.19 212.78L403.673 212.912C403.684 212.871 403.69 212.829 403.69 212.787L403.19 212.78ZM387.832 222.071L387.885 221.574C387.868 221.572 387.85 221.571 387.832 221.571V222.071ZM103.339 222.071L103.326 222.571H103.339V222.071ZM50.5568 203.134L50.4505 242.225L51.4505 242.228L51.5568 203.137L50.5568 203.134ZM50.9473 242.727L64.5095 242.814L64.516 241.814L50.9537 241.727L50.9473 242.727ZM64.5128 242.814H80.3854V241.814H64.5128V242.814ZM80.8854 242.314V198.854H79.8854V242.314H80.8854ZM80.3854 198.354H71.8963V199.354H80.3854V198.354ZM71.3973 198.823L71.2619 200.996L72.26 201.059L72.3953 198.885L71.3973 198.823ZM71.7725 200.528L60.3646 200.264L60.3415 201.263L71.7494 201.527L71.7725 200.528ZM59.8533 200.777L59.9201 203.218L60.9197 203.191L60.8529 200.75L59.8533 200.777ZM60.4236 202.704L51.0604 202.636L51.0531 203.636L60.4163 203.704L60.4236 202.704ZM94.3576 202.957V129.019H93.3576V202.957H94.3576ZM93.8576 129.019C94.3489 128.927 94.3489 128.926 94.3489 128.927C94.3489 128.926 94.3489 128.927 94.3489 128.927C94.3489 128.926 94.3489 128.926 94.3488 128.926C94.3485 128.924 94.3481 128.922 94.3475 128.919C94.3463 128.912 94.3445 128.902 94.3421 128.887C94.3372 128.859 94.3299 128.815 94.3209 128.756C94.303 128.639 94.2782 128.463 94.2515 128.233C94.1983 127.773 94.1381 127.096 94.1118 126.24C94.0593 124.527 94.143 122.101 94.6894 119.259C95.7814 113.58 98.7221 106.233 106.137 99.5861L105.47 98.8415C97.8661 105.658 94.8336 113.213 93.7074 119.071C93.1448 121.997 93.058 124.498 93.1123 126.27C93.1395 127.157 93.202 127.862 93.2582 128.348C93.2862 128.591 93.3128 128.779 93.3325 128.908C93.3423 128.972 93.3505 129.022 93.3564 129.056C93.3593 129.073 93.3616 129.086 93.3633 129.095C93.3641 129.1 93.3648 129.104 93.3652 129.106C93.3655 129.108 93.3657 129.109 93.3658 129.11C93.3659 129.11 93.366 129.11 93.366 129.111C93.3661 129.111 93.3662 129.111 93.8576 129.019ZM106.137 99.5861C113.617 92.8828 123.59 86.0016 131.707 80.7896C135.762 78.1853 139.35 76.001 141.922 74.4679C143.209 73.7014 144.242 73.0978 144.952 72.6859C145.308 72.48 145.583 72.3221 145.769 72.2157C145.861 72.1625 145.932 72.1222 145.98 72.0953C146.003 72.0818 146.021 72.0717 146.033 72.0649C146.039 72.0616 146.043 72.059 146.046 72.0574C146.048 72.0565 146.049 72.0559 146.05 72.0555C146.05 72.0553 146.05 72.0556 146.05 72.0555C146.051 72.0555 146.051 72.0549 145.804 71.6197C145.558 71.1846 145.558 71.1844 145.558 71.1846C145.558 71.1847 145.557 71.1851 145.557 71.1853C145.556 71.1857 145.555 71.1864 145.553 71.1873C145.55 71.1891 145.546 71.1917 145.54 71.1952C145.527 71.2021 145.509 71.2124 145.485 71.2261C145.437 71.2535 145.366 71.2942 145.272 71.3478C145.084 71.455 144.808 71.6138 144.451 71.8207C143.737 72.2343 142.701 72.84 141.411 73.6088C138.83 75.1463 135.233 77.3366 131.166 79.9481C123.038 85.1679 113.01 92.0837 105.47 98.8415L106.137 99.5861ZM145.804 71.6197C146.046 72.0577 146.046 72.0575 146.046 72.0574C146.047 72.0571 146.047 72.0568 146.048 72.0563C146.05 72.0554 146.052 72.054 146.056 72.0521C146.063 72.0484 146.073 72.0428 146.086 72.0354C146.113 72.0205 146.153 71.9985 146.206 71.9697C146.311 71.912 146.466 71.8271 146.665 71.7184C147.063 71.5011 147.638 71.1888 148.342 70.809C149.751 70.0493 151.679 69.0198 153.758 67.9404C157.931 65.7727 162.658 63.4314 165.021 62.6435L164.705 61.6949C162.251 62.5129 157.448 64.8969 153.297 67.053C151.212 68.1355 149.279 69.1675 147.868 69.9288C147.162 70.3095 146.586 70.6226 146.186 70.8406C145.986 70.9496 145.831 71.0348 145.725 71.0929C145.672 71.1219 145.632 71.1441 145.605 71.159C145.591 71.1665 145.581 71.1722 145.574 71.176C145.57 71.1779 145.568 71.1793 145.566 71.1803C145.565 71.1808 145.564 71.1812 145.564 71.1814C145.564 71.1815 145.563 71.1817 145.563 71.1818C145.563 71.1819 145.563 71.1818 145.804 71.6197ZM164.863 62.1692C165.022 62.6433 165.022 62.6433 165.022 62.6433C165.023 62.6432 165.024 62.6428 165.025 62.6425C165.026 62.6418 165.029 62.6409 165.033 62.6397C165.04 62.6372 165.052 62.6334 165.066 62.6285C165.096 62.6186 165.14 62.6039 165.199 62.5847C165.315 62.5464 165.486 62.4902 165.705 62.4189C166.144 62.2763 166.776 62.0735 167.547 61.8327C169.089 61.3512 171.186 60.7186 173.406 60.1137C175.628 59.5084 177.965 58.9332 179.991 58.5643C181.004 58.3798 181.931 58.2483 182.723 58.1896C183.523 58.1302 184.15 58.1481 184.579 58.2424L184.794 57.2658C184.222 57.14 183.48 57.1306 182.649 57.1923C181.81 57.2546 180.845 57.3923 179.812 57.5804C177.746 57.9567 175.377 58.5403 173.143 59.1489C170.908 59.7579 168.799 60.3943 167.249 60.8782C166.474 61.1202 165.838 61.3242 165.396 61.4678C165.175 61.5396 165.003 61.5963 164.885 61.6351C164.826 61.6545 164.781 61.6695 164.751 61.6796C164.736 61.6846 164.724 61.6885 164.716 61.6911C164.713 61.6924 164.71 61.6933 164.708 61.694C164.707 61.6943 164.706 61.6947 164.705 61.6949C164.705 61.6948 164.705 61.695 164.705 61.6949C164.705 61.6949 164.704 61.6951 164.863 62.1692ZM184.686 58.2541L231.807 58.2473V57.2473L184.686 57.2541V58.2541ZM231.807 58.2473L329.791 58.3587L329.792 57.3587L231.808 57.2473L231.807 58.2473ZM329.796 58.3587L344.234 58.2473L344.226 57.2473L329.788 57.3587L329.796 58.3587ZM344.149 58.2407C346.377 58.6052 348.462 59.5748 350.176 61.0437L350.827 60.2843C348.974 58.6962 346.719 57.6479 344.311 57.2538L344.149 58.2407ZM350.176 61.0437C351.891 62.5126 353.169 64.4242 353.87 66.57L354.821 66.2592C354.062 63.9393 352.681 61.8724 350.827 60.2843L350.176 61.0437ZM354.345 66.4146C353.85 66.4817 353.85 66.4818 353.85 66.4819C353.85 66.4816 353.85 66.4821 353.85 66.4819C353.85 66.4824 353.85 66.4838 353.85 66.4848C353.851 66.4868 353.851 66.4899 353.852 66.4939C353.853 66.502 353.854 66.5142 353.857 66.5302C353.861 66.5624 353.867 66.6101 353.876 66.6725C353.892 66.7973 353.917 66.9807 353.948 67.2152C354.011 67.6842 354.099 68.3572 354.205 69.1733C354.417 70.8055 354.696 73.0091 354.967 75.2954C355.238 77.5824 355.501 79.9492 355.679 81.9088C355.859 83.8923 355.947 85.3989 355.887 86.0071L356.883 86.1051C356.954 85.3815 356.852 83.7671 356.675 81.8181C356.495 79.8453 356.232 77.4681 355.96 75.1777C355.688 72.8866 355.409 70.6792 355.197 69.0447C355.091 68.2275 355.002 67.5533 354.939 67.0834C354.908 66.8484 354.884 66.6645 354.867 66.5393C354.858 66.4767 354.852 66.4288 354.848 66.3965C354.845 66.3803 354.844 66.3681 354.843 66.3599C354.842 66.3558 354.842 66.3526 354.841 66.3506C354.841 66.3495 354.841 66.3479 354.841 66.3474C354.841 66.3471 354.841 66.3475 354.841 66.3474C354.841 66.3473 354.841 66.3474 354.345 66.4146ZM355.887 86.0071C355.847 86.4213 355.922 86.9981 356.055 87.6435C356.19 88.3044 356.397 89.0903 356.649 89.9474C357.153 91.6625 357.849 93.6915 358.55 95.63C359.252 97.5699 359.961 99.4255 360.495 100.796C360.762 101.481 360.986 102.045 361.142 102.438C361.221 102.635 361.282 102.788 361.324 102.893C361.345 102.945 361.361 102.986 361.372 103.013C361.378 103.026 361.382 103.036 361.385 103.043C361.386 103.047 361.387 103.049 361.388 103.051C361.388 103.052 361.389 103.053 361.389 103.053C361.389 103.053 361.389 103.053 361.389 103.053C361.389 103.053 361.389 103.054 361.852 102.866C362.316 102.679 362.316 102.679 362.316 102.679C362.316 102.678 362.316 102.679 362.316 102.679C362.315 102.678 362.315 102.677 362.315 102.676C362.314 102.674 362.313 102.672 362.312 102.669C362.309 102.662 362.305 102.652 362.3 102.638C362.289 102.612 362.273 102.572 362.252 102.52C362.21 102.416 362.149 102.264 362.071 102.068C361.915 101.677 361.693 101.115 361.427 100.433C360.895 99.0671 360.189 97.2196 359.491 95.2898C358.792 93.3587 358.104 91.3517 357.608 89.6652C357.36 88.8215 357.162 88.0652 357.034 87.4427C356.904 86.8046 356.858 86.3567 356.883 86.1051L355.887 86.0071ZM361.852 102.866C361.388 103.051 361.388 103.051 361.388 103.051C361.388 103.051 361.388 103.052 361.388 103.052C361.389 103.053 361.389 103.054 361.39 103.056C361.391 103.059 361.393 103.063 361.395 103.069C361.399 103.08 361.406 103.097 361.415 103.12C361.433 103.165 361.46 103.232 361.496 103.32C361.566 103.495 361.67 103.752 361.803 104.08C362.07 104.736 362.456 105.678 362.933 106.819C363.886 109.102 365.203 112.185 366.656 115.387C368.109 118.587 369.701 121.912 371.205 124.676C371.957 126.057 372.69 127.305 373.375 128.328C374.055 129.345 374.708 130.171 375.304 130.685L375.957 129.927C375.466 129.504 374.874 128.769 374.206 127.772C373.544 126.783 372.827 125.564 372.083 124.198C370.596 121.465 369.015 118.164 367.567 114.973C366.119 111.784 364.806 108.71 363.855 106.434C363.38 105.296 362.995 104.357 362.729 103.703C362.596 103.376 362.493 103.121 362.423 102.947C362.388 102.86 362.362 102.793 362.344 102.749C362.335 102.726 362.328 102.709 362.324 102.698C362.321 102.692 362.32 102.688 362.319 102.685C362.318 102.684 362.318 102.682 362.317 102.681C362.317 102.681 362.317 102.681 362.317 102.681C362.317 102.681 362.317 102.681 361.852 102.866ZM375.207 130.571L386.354 148.374L387.202 147.843L376.054 130.041L375.207 130.571ZM386.349 148.366L392.488 158.61L393.346 158.096L387.207 147.851L386.349 148.366ZM392.472 158.58L396.795 167.022L397.685 166.566L393.362 158.125L392.472 158.58ZM396.758 166.929L400.255 179.382L401.217 179.112L397.721 166.658L396.758 166.929ZM400.736 179.247C400.245 179.339 400.245 179.339 400.245 179.339V179.341C400.245 179.343 400.246 179.346 400.247 179.349C400.248 179.356 400.25 179.366 400.252 179.379C400.257 179.406 400.265 179.446 400.274 179.498C400.294 179.603 400.322 179.756 400.358 179.953C400.431 180.346 400.535 180.911 400.659 181.598C400.908 182.972 401.239 184.834 401.571 186.784C401.902 188.734 402.233 190.771 402.481 192.496C402.731 194.236 402.891 195.62 402.891 196.29H403.891C403.891 195.535 403.719 194.077 403.471 192.354C403.221 190.616 402.889 188.57 402.556 186.616C402.224 184.661 401.892 182.796 401.643 181.42C401.518 180.732 401.415 180.166 401.342 179.772C401.306 179.575 401.277 179.421 401.257 179.316C401.248 179.263 401.24 179.223 401.235 179.196C401.233 179.183 401.231 179.172 401.23 179.165C401.229 179.162 401.228 179.159 401.228 179.158C401.228 179.157 401.228 179.156 401.228 179.156C401.228 179.155 401.228 179.155 401.228 179.155C401.228 179.155 401.228 179.155 400.736 179.247ZM402.891 196.29C402.891 197.71 402.841 201.828 402.791 205.597C402.766 207.479 402.741 209.273 402.722 210.597C402.712 211.258 402.705 211.802 402.699 212.181C402.696 212.37 402.694 212.518 402.693 212.619C402.692 212.669 402.691 212.707 402.691 212.733C402.691 212.746 402.691 212.756 402.691 212.763C402.691 212.766 402.691 212.768 402.69 212.77C402.69 212.771 402.69 212.771 402.69 212.772C402.69 212.772 402.69 212.772 403.19 212.78C403.69 212.787 403.69 212.787 403.69 212.787C403.69 212.787 403.69 212.787 403.69 212.786C403.69 212.784 403.69 212.781 403.69 212.777C403.691 212.771 403.691 212.761 403.691 212.748C403.691 212.722 403.692 212.684 403.693 212.633C403.694 212.533 403.696 212.385 403.699 212.195C403.704 211.817 403.712 211.273 403.722 210.611C403.74 209.287 403.766 207.493 403.791 205.61C403.841 201.845 403.891 197.719 403.891 196.29H402.891ZM403.19 212.78C402.708 212.648 402.708 212.647 402.708 212.647C402.708 212.648 402.708 212.649 402.707 212.651C402.706 212.655 402.704 212.661 402.702 212.669C402.697 212.686 402.689 212.713 402.678 212.749C402.655 212.82 402.62 212.927 402.571 213.064C402.472 213.338 402.316 213.732 402.09 214.203C401.638 215.146 400.91 216.388 399.81 217.588C397.623 219.972 393.936 222.223 387.885 221.574L387.779 222.568C394.173 223.254 398.165 220.86 400.546 218.264C401.73 216.974 402.508 215.643 402.992 214.635C403.233 214.131 403.402 213.705 403.511 213.404C403.566 213.253 403.605 213.133 403.632 213.049C403.645 213.007 403.655 212.974 403.661 212.951C403.665 212.94 403.667 212.931 403.669 212.924C403.67 212.921 403.671 212.918 403.671 212.916C403.672 212.915 403.672 212.914 403.672 212.914C403.672 212.913 403.672 212.913 403.672 212.913C403.673 212.912 403.673 212.912 403.19 212.78ZM387.832 221.571H103.339V222.571H387.832V221.571ZM103.339 222.071C103.352 221.571 103.352 221.571 103.352 221.571C103.352 221.571 103.352 221.571 103.352 221.571C103.352 221.571 103.351 221.571 103.35 221.571C103.346 221.571 103.34 221.571 103.331 221.57C103.314 221.569 103.285 221.568 103.248 221.565C103.172 221.559 103.058 221.547 102.911 221.526C102.617 221.485 102.193 221.405 101.69 221.252C100.682 220.947 99.3593 220.354 98.1018 219.202C95.6081 216.917 93.254 212.321 94.3541 203.016L93.361 202.899C92.2364 212.411 94.6231 217.371 97.4263 219.939C98.8172 221.213 100.282 221.871 101.4 222.209C101.959 222.378 102.433 222.469 102.77 222.516C102.939 222.54 103.074 222.554 103.169 222.561C103.216 222.565 103.253 222.567 103.28 222.569C103.293 222.57 103.304 222.57 103.311 222.57C103.315 222.57 103.319 222.571 103.321 222.571C103.322 222.571 103.323 222.571 103.324 222.571C103.325 222.571 103.326 222.571 103.326 222.571C103.327 222.571 103.326 222.571 103.339 222.071Z" fill="#4F4F4F"/>
<path d="M224.602 37.0977H225.525L227.424 41.0381H227.453L229.143 37.0977H230.075L227.815 42.2783C227.528 42.9456 227.264 43.416 227.024 43.6895C226.783 43.9629 226.423 44.0996 225.944 44.0996C225.681 44.0996 225.481 44.0736 225.344 44.0215L225.266 44.002V43.25C225.435 43.3151 225.635 43.3477 225.866 43.3477C226.13 43.3477 226.332 43.2646 226.472 43.0986C226.608 42.9391 226.753 42.6657 226.906 42.2783L226.975 42.0977L224.602 37.0977ZM231.091 40.0176L231.555 37.0977H235.28V42H234.421V37.8789H232.282L231.955 40.0176C231.841 40.8053 231.672 41.349 231.447 41.6484C231.223 41.9479 230.912 42.0977 230.515 42.0977C230.358 42.0977 230.219 42.0781 230.095 42.0391L230.022 42.0098V41.1895C230.129 41.2285 230.24 41.248 230.354 41.248C230.601 41.248 230.778 41.1195 230.886 40.8623C230.957 40.693 231.026 40.4115 231.091 40.0176ZM236.682 41.9609C236.584 41.873 236.535 41.7461 236.535 41.5801C236.535 41.4173 236.584 41.2887 236.682 41.1943C236.776 41.1032 236.911 41.0576 237.087 41.0576C237.263 41.0576 237.398 41.1032 237.492 41.1943C237.59 41.2887 237.639 41.4173 237.639 41.5801C237.639 41.7461 237.59 41.873 237.492 41.9609C237.398 42.0521 237.263 42.0977 237.087 42.0977C236.911 42.0977 236.776 42.0521 236.682 41.9609ZM242.751 35.8379H240.241V34.998H246.193V35.8379H243.693V42H242.751V35.8379ZM246.042 40.6279C246.042 40.1266 246.255 39.7555 246.682 39.5146C247.105 39.277 247.649 39.1582 248.313 39.1582C248.651 39.1582 248.964 39.1989 249.25 39.2803C249.55 39.3649 249.76 39.4447 249.88 39.5195L250.07 39.6416V38.8701C250.07 38.5381 249.948 38.2777 249.704 38.0889C249.46 37.8968 249.092 37.8008 248.601 37.8008C247.621 37.8008 247.131 38.0677 247.131 38.6016H246.272C246.275 38.0612 246.495 37.6592 246.931 37.3955C247.364 37.1318 247.92 37 248.601 37C249.284 37 249.843 37.1595 250.275 37.4785C250.708 37.8008 250.927 38.2646 250.93 38.8701V40.6523C250.93 40.8997 250.962 41.0723 251.027 41.1699C251.093 41.2643 251.2 41.3115 251.35 41.3115C251.48 41.3115 251.566 41.2936 251.608 41.2578L251.628 41.248V42.0195C251.527 42.0716 251.381 42.0977 251.189 42.0977C250.863 42.0977 250.622 42.0277 250.466 41.8877C250.342 41.7835 250.251 41.6745 250.192 41.5605L250.168 41.502H250.129C250.048 41.5833 249.965 41.6517 249.88 41.707C249.779 41.7754 249.668 41.8356 249.548 41.8877C249.229 42.0277 248.84 42.0977 248.381 42.0977C247.688 42.0977 247.124 41.9788 246.692 41.7412C246.259 41.5068 246.042 41.1357 246.042 40.6279ZM248.508 39.959C247.45 39.959 246.921 40.182 246.921 40.6279C246.921 41.0771 247.45 41.3018 248.508 41.3018C248.82 41.3018 249.105 41.2676 249.362 41.1992C249.616 41.1374 249.79 41.0788 249.885 41.0234C249.973 40.9779 250.035 40.9372 250.07 40.9014V40.3398C250.035 40.304 249.973 40.2633 249.885 40.2178C249.774 40.1657 249.602 40.1104 249.367 40.0518C249.117 39.9899 248.83 39.959 248.508 39.959ZM252.58 42V37.0977H256.521V37.8789H253.44V42H252.58ZM262.155 42H261.291V38.0791H261.272L258.454 42H257.365V37.0977H258.225V41.0186H258.244L261.062 37.0977H262.155V42ZM264.021 40.0176L264.484 37.0977H268.21V42H267.351V37.8789H265.212L264.885 40.0176C264.771 40.8053 264.602 41.349 264.377 41.6484C264.152 41.9479 263.842 42.0977 263.444 42.0977C263.288 42.0977 263.148 42.0781 263.025 42.0391L262.951 42.0098V41.1895C263.059 41.2285 263.169 41.248 263.283 41.248C263.531 41.248 263.708 41.1195 263.816 40.8623C263.887 40.693 263.955 40.4115 264.021 40.0176ZM270.578 38.7187H271.696C273.164 38.7187 273.899 39.2656 273.899 40.3594C273.899 41.4531 273.164 42 271.696 42H269.719V37.0977H270.578V38.7187ZM271.696 41.248C272.191 41.248 272.535 41.1764 272.727 41.0332C272.919 40.89 273.015 40.6654 273.015 40.3594C273.015 40.0534 272.919 39.8288 272.727 39.6855C272.535 39.5423 272.191 39.4707 271.696 39.4707H270.578V41.248H271.696ZM275.759 41.3896C275.251 40.9242 274.997 40.3073 274.997 39.5391C274.997 38.7708 275.251 38.1556 275.759 37.6934C276.26 37.2311 276.903 37 277.688 37C278.134 37 278.532 37.0749 278.884 37.2246C279.245 37.3776 279.519 37.5615 279.704 37.7764C280.092 38.2223 280.285 38.6309 280.285 39.002H279.397C279.364 38.862 279.309 38.7236 279.231 38.5869C279.149 38.4469 279.055 38.3249 278.947 38.2207C278.824 38.1035 278.65 38.0042 278.425 37.9228C278.204 37.8415 277.958 37.8008 277.688 37.8008C277.137 37.8008 276.7 37.9635 276.374 38.2891C276.042 38.6146 275.876 39.0312 275.876 39.5391C275.876 40.0469 276.042 40.4652 276.374 40.7939C276.703 41.126 277.141 41.292 277.688 41.292C277.961 41.292 278.208 41.2513 278.43 41.1699C278.654 41.0885 278.827 40.986 278.947 40.8623C279.172 40.6312 279.312 40.4163 279.367 40.2178L279.397 40.0908H280.285C280.285 40.4554 280.092 40.8607 279.704 41.3066C279.512 41.528 279.239 41.7135 278.884 41.8633C278.532 42.013 278.134 42.0879 277.688 42.0879C276.906 42.0879 276.263 41.8551 275.759 41.3896ZM286.34 42H285.202L282.443 39.5586V42H281.584V37.0977H282.443V39.4902L285.031 37.0977H286.154L283.532 39.5098L286.34 42ZM286.687 40.6279C286.687 40.1266 286.9 39.7555 287.326 39.5146C287.749 39.277 288.293 39.1582 288.957 39.1582C289.296 39.1582 289.608 39.1989 289.895 39.2803C290.194 39.3649 290.404 39.4447 290.525 39.5195L290.715 39.6416V38.8701C290.715 38.5381 290.593 38.2777 290.349 38.0889C290.105 37.8968 289.737 37.8008 289.245 37.8008C288.265 37.8008 287.775 38.0677 287.775 38.6016H286.916C286.919 38.0612 287.139 37.6592 287.575 37.3955C288.008 37.1318 288.565 37 289.245 37C289.929 37 290.487 37.1595 290.92 37.4785C291.353 37.8008 291.571 38.2646 291.574 38.8701V40.6523C291.574 40.8997 291.607 41.0723 291.672 41.1699C291.737 41.2643 291.844 41.3115 291.994 41.3115C292.124 41.3115 292.211 41.2936 292.253 41.2578L292.273 41.248V42.0195C292.172 42.0716 292.025 42.0977 291.833 42.0977C291.508 42.0977 291.267 42.0277 291.11 41.8877C290.987 41.7835 290.896 41.6745 290.837 41.5605L290.813 41.502H290.774C290.692 41.5833 290.609 41.6517 290.525 41.707C290.424 41.7754 290.313 41.8356 290.192 41.8877C289.873 42.0277 289.484 42.0977 289.025 42.0977C288.332 42.0977 287.769 41.9788 287.336 41.7412C286.903 41.5068 286.687 41.1357 286.687 40.6279ZM289.152 39.959C288.094 39.959 287.566 40.182 287.566 40.6279C287.566 41.0771 288.094 41.3018 289.152 41.3018C289.465 41.3018 289.75 41.2676 290.007 41.1992C290.261 41.1374 290.435 41.0788 290.529 41.0234C290.617 40.9779 290.679 40.9372 290.715 40.9014V40.3398C290.679 40.304 290.617 40.2633 290.529 40.2178C290.419 40.1657 290.246 40.1104 290.012 40.0518C289.761 39.9899 289.475 39.959 289.152 39.959ZM293.952 42H293.025L294.172 40.1592C294.065 40.1299 293.939 40.0745 293.796 39.9932C293.676 39.9248 293.568 39.8418 293.474 39.7441C293.373 39.6367 293.285 39.4886 293.21 39.2998C293.138 39.111 293.103 38.9108 293.103 38.6992C293.103 38.1686 293.285 37.7699 293.65 37.5029C294.017 37.2327 294.548 37.0977 295.241 37.0977H297.424V42H296.565V40.3008H295.022L293.952 42ZM294.279 38.0596C294.081 38.1995 293.982 38.4128 293.982 38.6992C293.982 38.9857 294.081 39.1989 294.279 39.3389C294.471 39.4788 294.792 39.5488 295.241 39.5488H296.565V37.8496H295.241C294.792 37.8496 294.471 37.9196 294.279 38.0596Z" fill="#4F4F4F"/>
<path d="M17.8936 177.275C17.1431 177.804 16.2399 177.99 15.1839 177.833C14.1311 177.676 13.3215 177.234 12.7552 176.508C12.188 175.788 11.9834 174.898 12.1415 173.839C12.2992 172.783 12.7549 171.99 13.5086 171.461C14.265 170.935 15.1681 170.751 16.2176 170.908C17.2704 171.065 18.0802 171.505 18.647 172.228C19.2132 172.954 19.4176 173.846 19.2599 174.902C19.1018 175.961 18.6464 176.752 17.8936 177.275ZM18.41 174.775C18.5263 173.996 18.363 173.347 17.9202 172.83C17.4773 172.313 16.8615 171.996 16.0727 171.878C15.2807 171.76 14.5974 171.884 14.0229 172.249C13.4521 172.611 13.1083 173.183 12.9915 173.966C12.8747 174.748 13.0364 175.396 13.4765 175.909C13.9193 176.426 14.5368 176.744 15.3288 176.862C16.1175 176.98 16.7992 176.856 17.3737 176.491C17.9483 176.126 18.2937 175.554 18.41 174.775ZM15.9914 168.223L15.6995 170.179L14.9268 170.063L15.6383 165.297L16.411 165.412L16.1183 167.373L20.2039 167.983L20.0674 168.831L15.9914 168.223ZM21.3217 160.428L21.1538 161.553L18.3318 163.922L20.7464 164.282L20.6196 165.132L15.7709 164.408L15.8978 163.558L18.2642 163.911L16.2799 160.999L16.4457 159.888L18.4442 162.837L21.3217 160.428ZM23.5396 159.13L23.4128 159.98L16.5841 158.961L16.711 158.111L17.4354 158.219L17.4411 158.18C17.3596 158.109 17.2768 158.003 17.1925 157.862C17.1191 157.736 17.0551 157.603 17.0002 157.463C16.9436 157.313 16.9046 157.123 16.883 156.892C16.8587 156.658 16.8636 156.427 16.8977 156.198C17.0068 155.468 17.3299 154.89 17.8671 154.467C18.4102 154.048 19.0552 153.894 19.8021 154.006C20.5555 154.118 21.1275 154.453 21.518 155.012C21.9081 155.574 22.0486 156.22 21.9395 156.951C21.8645 157.453 21.7069 157.848 21.4666 158.134C21.2547 158.386 21.0801 158.552 20.9428 158.634L20.841 158.688L20.8352 158.726L23.5396 159.13ZM20.8407 155.548C20.564 155.174 20.1746 154.95 19.6724 154.875C19.1765 154.801 18.7386 154.902 18.3584 155.177C17.9837 155.46 17.7558 155.874 17.6746 156.418C17.5929 156.965 17.6903 157.426 17.967 157.8C18.25 158.174 18.6395 158.399 19.1353 158.473C19.6504 158.55 20.0923 158.444 20.4611 158.157C20.8325 157.874 21.0579 157.466 21.1372 156.935C21.2189 156.388 21.1201 155.925 20.8407 155.548ZM23.1492 148.186L18.3005 147.462L18.4274 146.612L23.2761 147.336L23.1492 148.186ZM19.3005 151.744L19.4447 150.778C19.6614 149.326 20.3107 148.68 21.3924 148.842C22.4742 149.003 22.9067 149.81 22.69 151.262L22.4189 153.078L17.5703 152.354L17.6972 151.504L19.3005 151.744ZM21.8866 150.096C21.7733 149.885 21.5653 149.756 21.2627 149.711C20.96 149.666 20.7237 149.728 20.5537 149.897C20.3827 150.072 20.2609 150.403 20.1884 150.889L20.0442 151.855L21.8021 152.117L21.9463 151.151C22.0188 150.665 21.9989 150.313 21.8866 150.096ZM19.6262 143.873L19.3342 145.829L18.5615 145.714L19.273 140.947L20.0457 141.063L19.753 143.023L23.8386 143.633L23.7021 144.482L19.6262 143.873ZM23.6985 140.438C23.1631 140.871 22.5156 141.032 21.7557 140.918C20.9991 140.805 20.4265 140.463 20.0379 139.892C19.652 139.324 19.5167 138.654 19.632 137.881C19.7464 137.115 20.0715 136.513 20.6074 136.076C21.1455 135.647 21.7929 135.488 22.5494 135.601C23.3093 135.714 23.8821 136.055 24.268 136.623C24.653 137.197 24.7882 137.867 24.6739 138.633C24.5585 139.406 24.2334 140.008 23.6985 140.438ZM23.5928 137.144C23.3162 136.77 22.9252 136.546 22.4197 136.47C21.9142 136.395 21.4746 136.495 21.1009 136.772C20.7304 137.049 20.5048 137.458 20.4241 137.999C20.3428 138.543 20.4392 139 20.7131 139.37C20.986 139.747 21.3768 139.973 21.8855 140.049C22.3942 140.125 22.834 140.023 23.205 139.742C23.5787 139.466 23.8059 139.057 23.8867 138.516C23.9665 137.982 23.8685 137.524 23.5928 137.144ZM23.5068 129.188L23.9081 129.277L23.2543 133.657C23.5312 133.699 23.8454 133.578 24.1971 133.295C24.5515 133.015 24.7695 132.602 24.8512 132.054C24.9113 131.652 24.8849 131.311 24.772 131.03C24.675 130.799 24.5812 130.633 24.4906 130.534L24.4288 130.486L24.578 129.486C24.6234 129.512 24.6702 129.541 24.7184 129.571C24.7862 129.624 24.8887 129.72 25.0259 129.859C25.1714 130.009 25.296 130.177 25.3998 130.364C25.5013 130.544 25.5803 130.797 25.6367 131.125C25.6955 131.437 25.6961 131.786 25.6384 132.172C25.5187 132.974 25.1931 133.59 24.6614 134.021C24.1288 134.458 23.4793 134.619 22.7131 134.505C21.9533 134.391 21.3807 134.049 20.9952 133.478C20.6093 132.91 20.474 132.24 20.5894 131.468C20.7038 130.701 21.0289 130.1 21.5647 129.663C22.0996 129.233 22.747 129.074 23.5068 129.188ZM22.032 130.37C21.678 130.646 21.4612 131.051 21.3814 131.586C21.3007 132.127 21.3897 132.578 21.6484 132.939C21.9067 133.303 22.184 133.508 22.4801 133.552L23.0057 130.031C22.7095 129.987 22.3849 130.1 22.032 130.37ZM25.8332 124.914L26.1309 122.919L22.055 122.311L22.1826 121.456L26.2585 122.065L26.5562 120.07L22.4803 119.462L22.6072 118.612L27.4558 119.336L26.479 125.879L21.6304 125.156L21.7572 124.306L25.8332 124.914ZM27.166 117.209C26.6306 117.642 25.983 117.803 25.2232 117.689C24.4666 117.576 23.894 117.234 23.5054 116.663C23.1195 116.095 22.9842 115.425 23.0996 114.652C23.2139 113.886 23.539 113.284 24.0749 112.847C24.613 112.418 25.2603 112.259 26.0169 112.372C26.7768 112.485 27.3496 112.826 27.7355 113.394C28.1204 113.968 28.2557 114.638 28.1413 115.404C28.026 116.177 27.7009 116.779 27.166 117.209ZM27.0603 113.915C26.7837 113.541 26.3926 113.317 25.8872 113.241C25.3817 113.166 24.9421 113.266 24.5684 113.543C24.1979 113.82 23.9723 114.229 23.8916 114.77C23.8103 115.314 23.9067 115.771 24.1806 116.141C24.4535 116.518 24.8443 116.744 25.353 116.82C25.8617 116.896 26.3015 116.794 26.6725 116.513C27.0462 116.237 27.2734 115.828 27.3542 115.287C27.4339 114.753 27.336 114.295 27.0603 113.915ZM28.1137 110.794C27.5783 111.228 26.9307 111.388 26.1709 111.274C25.4111 111.161 24.8401 110.819 24.4579 110.248C24.0747 109.684 23.9411 109.014 24.0569 108.239C24.1227 107.797 24.2557 107.414 24.4557 107.089C24.6603 106.754 24.8826 106.51 25.1225 106.359C25.6208 106.041 26.0534 105.91 26.4204 105.965L26.2892 106.844C26.146 106.855 26.001 106.89 25.8542 106.947C25.7038 107.007 25.5691 107.082 25.4502 107.173C25.316 107.278 25.1921 107.435 25.0785 107.646C24.9653 107.852 24.8888 108.09 24.8489 108.357C24.7677 108.901 24.864 109.358 25.1379 109.728C25.4108 110.104 25.7984 110.33 26.3007 110.405C26.8029 110.48 27.2412 110.378 27.6153 110.098C27.9923 109.822 28.2211 109.413 28.3019 108.872C28.3422 108.602 28.3385 108.351 28.2907 108.12C28.2434 107.886 28.1674 107.7 28.0629 107.563C27.8674 107.307 27.6756 107.136 27.4874 107.052L27.3662 107.005L27.4974 106.126C27.8579 106.179 28.2302 106.431 28.6141 106.88C28.8046 107.102 28.9478 107.4 29.0435 107.773C29.1397 108.143 29.1549 108.549 29.089 108.99C28.9737 109.762 28.6486 110.364 28.1137 110.794ZM29.0566 104.477C28.5212 104.911 27.8737 105.071 27.1139 104.958C26.354 104.844 25.783 104.502 25.4008 103.932C25.0177 103.368 24.884 102.698 24.9998 101.922C25.0657 101.481 25.1986 101.097 25.3986 100.772C25.6033 100.437 25.8255 100.194 26.0654 100.042C26.5637 99.7247 26.9963 99.5934 27.3634 99.6482L27.2322 100.527C27.0889 100.539 26.9439 100.573 26.7972 100.63C26.6467 100.69 26.512 100.765 26.3931 100.856C26.259 100.961 26.1351 101.119 26.0214 101.329C25.9082 101.536 25.8317 101.773 25.7918 102.04C25.7106 102.584 25.8069 103.041 26.0808 103.411C26.3538 103.788 26.7414 104.013 27.2436 104.088C27.7459 104.163 28.1841 104.061 28.5583 103.781C28.9352 103.505 29.164 103.096 29.2448 102.555C29.2852 102.285 29.2814 102.034 29.2336 101.803C29.1863 101.569 29.1104 101.383 29.0058 101.246C28.8104 100.99 28.6185 100.82 28.4303 100.736L28.3091 100.688L28.4403 99.809C28.8009 99.8628 29.1731 100.114 29.557 100.563C29.7476 100.786 29.8907 101.084 29.9864 101.457C30.0826 101.826 30.0978 102.232 30.032 102.673C29.9166 103.446 29.5915 104.047 29.0566 104.477ZM28.8601 93.3253L29.2615 93.4148L28.6076 97.795C28.8845 97.8364 29.1988 97.7154 29.5504 97.4322C29.9048 97.1527 30.1229 96.7393 30.2046 96.1919C30.2647 95.7895 30.2383 95.4482 30.1254 95.168C30.0283 94.9363 29.9345 94.7709 29.844 94.6718L29.7822 94.6231L29.9314 93.6235C29.9768 93.65 30.0236 93.6784 30.0717 93.7086C30.1395 93.7615 30.242 93.8574 30.3793 93.9964C30.5247 94.1465 30.6493 94.3148 30.7531 94.5015C30.8547 94.6812 30.9336 94.9349 30.99 95.2626C31.0489 95.5741 31.0494 95.9231 30.9918 96.3094C30.8721 97.1111 30.5464 97.7273 30.0148 98.1581C29.4821 98.5953 28.8327 98.7568 28.0664 98.6424C27.3066 98.529 26.734 98.1868 26.3486 97.6158C25.9627 97.048 25.8274 96.3778 25.9428 95.6051C26.0571 94.8389 26.3822 94.2374 26.9181 93.8006C27.453 93.3703 28.1003 93.2119 28.8601 93.3253ZM27.3853 94.5072C27.0314 94.7835 26.8145 95.1889 26.7348 95.7233C26.654 96.2642 26.743 96.7153 27.0018 97.0764C27.2601 97.4408 27.5373 97.6451 27.8335 97.6893L28.359 94.1688C28.0628 94.1246 27.7383 94.2374 27.3853 94.5072Z" fill="#4F4F4F"/>
<path d="M262.941 110.646H302.321V165.248H262.941V110.646Z" fill="#9F9DBA" fill-opacity="0.2"/>
<path d="M341.707 67.9706V62.834H309V73.1072H318.209V92.2345H351.036V67.9706H341.707Z" fill="#9F9DBA" fill-opacity="0.2"/>
<path fill-rule="evenodd" clip-rule="evenodd" d="M108.5 198.5H113.5V168H160.5V215.5H108.5V198.5ZM123 174H140V183.5H151V206H123V174Z" fill="#9F9DBA" fill-opacity="0.2"/>
<path d="M113.66 106.244V153.285H160.465V106.244H113.66ZM128.16 112.459H150.92V138.672H143.611V145.979H129.059V143.992H122.846V123.104H128.16V112.459Z" fill="#9F9DBA" fill-opacity="0.2"/>
<path d="M187.391 168.1C187.391 168.1 187.391 199.289 187.391 215.4V215.402H197.619V215.4H212.094V215.371L239.422 215.338V215.4L245.445 215.33L249.014 215.326V205.746H249.006L248.986 182.361H249.014C248.978 177.607 248.978 172.854 248.975 168.1H248.943H187.391ZM239.422 182.379V205.758L212.094 205.793V198.635H197.619V182.455L239.422 182.379Z" fill="#9F9DBA"/>
<path d="M187.391 106.244V153.994H249.014V106.281L187.391 106.244ZM234.375 112.744H240.143V137.734H227.35V145.98H197.83V115.621H234.375V112.744Z" fill="#9F9DBA" fill-opacity="0.2"/>
<path d="M172.873 66.5107H199.265V83.3123H172.871L172.873 66.5107Z" fill="#9F9DBA" fill-opacity="0.2"/>
<path d="M221.74 66.5107H248.135V83.3123H221.74V66.5107Z" fill="#9F9DBA" fill-opacity="0.2"/>
<path d="M269.431 66.5107H295.824V83.3123H269.43L269.431 66.5107Z" fill="#9F9DBA" fill-opacity="0.2"/>
<path d="M311.814 103.384V191.4H338.932V172.58H326.782V118.202H338.041V123.092H359.528V113.163H353.601V103.384H311.814Z" fill="#9F9DBA" fill-opacity="0.2"/>
<path d="M370.345 131.686H349.281V148.487H370.345V131.686Z" fill="#9F9DBA" fill-opacity="0.2"/>
<path d="M311.814 218.417V203.375H372.492V161.518H365.157V152.033H383.828V156.477H387.534V218.417H311.814Z" fill="#9F9DBA" fill-opacity="0.2"/>
</svg>
