<svg width="201" height="142" viewBox="0 0 201 142" fill="none" xmlns="http://www.w3.org/2000/svg">
<g clip-path="url(#clip0_10134_54900)">
<mask id="mask0_10134_54900" style="mask-type:luminance" maskUnits="userSpaceOnUse" x="-1" y="0" width="202" height="142">
<path d="M12.4692 0.00231106V49.219C8.08404 49.6591 9.83764 48.2274 0.724153 51.8813C0.0567935 52.1487 -0.324219 52.8421 -0.324219 52.8421L12.4692 73.6036V141.615H200.035V0L12.4692 0.00231106Z" fill="white"/>
</mask>
<g mask="url(#mask0_10134_54900)">
<path d="M152.109 135.406H157.503L152.109 141.088V135.406Z" fill="#1A1A1A"/>
<path d="M152.109 135.406H157.503L152.109 141.088V135.406Z" stroke="#1A1A1A" stroke-width="0.427921" stroke-miterlimit="10" stroke-linecap="round"/>
<path d="M184.195 141.088L189.593 135.408V141.088H184.195ZM152.109 141.088H184.197L189.593 135.408L152.109 141.088Z" fill="#1A1A1A"/>
<path d="M189.593 135.408L184.195 141.088H189.593V135.408ZM189.593 135.408L184.197 141.088H152.109L189.593 135.408Z" stroke="#1A1A1A" stroke-width="0.427921" stroke-miterlimit="10" stroke-linecap="round"/>
<path d="M152.109 141.088L157.503 135.406H189.595L152.109 141.088Z" fill="#1A1A1A"/>
<path d="M152.109 141.088L157.503 135.406H189.595L152.109 141.088Z" stroke="#1A1A1A" stroke-width="0.427921" stroke-miterlimit="10" stroke-linecap="round"/>
<path d="M189.595 135.406H152.109V141.088H189.595V135.406Z" stroke="#1A1A1A" stroke-width="0.427921" stroke-miterlimit="10" stroke-linecap="round" stroke-linejoin="round"/>
<path d="M12.3867 99.623H18.3504L12.3867 105.873V99.623Z" fill="#1A1A1A"/>
<path d="M12.3867 99.623H18.3504L12.3867 105.873V99.623Z" stroke="#1A1A1A" stroke-width="0.427921" stroke-miterlimit="10" stroke-linecap="round"/>
<path d="M12.3852 105.873L18.3512 134.837L12.3852 141.087V105.873ZM18.3488 99.623L12.3852 105.873L18.3512 134.837L18.3488 99.623Z" fill="#1A1A1A"/>
<path d="M12.3852 105.873L18.3512 134.837M12.3852 105.873V141.087L18.3512 134.837M12.3852 105.873L18.3488 99.623L18.3512 134.837" stroke="#1A1A1A" stroke-width="0.427921" stroke-miterlimit="10" stroke-linecap="round"/>
<path d="M12.3852 141.088L18.3512 135.408L12.6739 141.088H12.3852ZM18.3488 134.838L12.3852 141.088L18.3512 135.408L18.3488 134.838Z" fill="#1A1A1A"/>
<path d="M12.3852 141.088L18.3512 135.408M12.3852 141.088H12.6739L18.3512 135.408M12.3852 141.088L18.3488 134.838L18.3512 135.408" stroke="#1A1A1A" stroke-width="0.427921" stroke-miterlimit="10" stroke-linecap="round"/>
<path d="M49.0193 141.088L54.699 135.408V141.088H49.0193ZM12.6719 141.088H49.0193L54.699 135.408L12.6719 141.088Z" fill="#1A1A1A"/>
<path d="M49.0193 141.088L54.699 135.408M49.0193 141.088H54.699V135.408M49.0193 141.088H12.6719L54.699 135.408" stroke="#1A1A1A" stroke-width="0.427921" stroke-miterlimit="10" stroke-linecap="round"/>
<path d="M12.6719 141.088L18.3492 135.406H54.7013L12.6719 141.088Z" fill="#1A1A1A"/>
<path d="M12.6719 141.088L18.3492 135.406H54.7013L12.6719 141.088Z" stroke="#1A1A1A" stroke-width="0.427921" stroke-miterlimit="10" stroke-linecap="round"/>
<path d="M12.3867 99.623H18.3504V135.405H54.7025V141.087H12.3867V99.623Z" stroke="#1A1A1A" stroke-width="0.427921" stroke-miterlimit="10" stroke-linecap="round" stroke-linejoin="round"/>
<path d="M152.109 -0.904297H157.503L152.109 5.05697V-0.904297Z" fill="#1A1A1A"/>
<path d="M152.109 -0.904297H157.503L152.109 5.05697V-0.904297Z" stroke="#1A1A1A" stroke-width="0.427921" stroke-miterlimit="10" stroke-linecap="round"/>
<path d="M184.195 5.0574L189.593 -0.90625V5.0574H184.195ZM152.109 5.0574H184.197L189.593 -0.90625L152.109 5.0574Z" fill="#1A1A1A"/>
<path d="M189.593 -0.90625L184.195 5.0574H189.593V-0.90625ZM189.593 -0.90625L184.197 5.0574H152.109L189.593 -0.90625Z" stroke="#1A1A1A" stroke-width="0.427921" stroke-miterlimit="10" stroke-linecap="round"/>
<path d="M152.109 5.05697L157.503 -0.904297H189.595L152.109 5.05697Z" fill="#1A1A1A"/>
<path d="M152.109 5.05697L157.503 -0.904297H189.595L152.109 5.05697Z" stroke="#1A1A1A" stroke-width="0.427921" stroke-miterlimit="10" stroke-linecap="round"/>
<path d="M152.109 -0.904297H189.595V5.05697H152.109V-0.904297Z" stroke="#1A1A1A" stroke-width="0.427921" stroke-miterlimit="10" stroke-linecap="round" stroke-linejoin="round"/>
<path d="M12.3852 -30.4403L18.3512 -1.19003L12.3852 5.05759V-30.4403ZM18.3488 -36.6855L12.3828 -30.4379L18.3488 -1.18769V-36.6855Z" fill="#1A1A1A"/>
<path d="M12.3852 -30.4403L18.3512 -1.19003L12.3852 5.05759V-30.4403ZM18.3488 -36.6855L12.3828 -30.4379L18.3488 -1.18769V-36.6855Z" stroke="#1A1A1A" stroke-width="0.427921" stroke-miterlimit="10" stroke-linecap="round"/>
<path d="M12.3852 5.05777L18.3512 -0.905876L12.6739 5.05777H12.3852ZM18.3488 -1.1875L12.3828 5.06016L18.3488 -0.903493V-1.1875Z" fill="#1A1A1A"/>
<path d="M12.3852 5.05777L18.3512 -0.905876L12.6739 5.05777H12.3852ZM18.3488 -1.1875L12.3828 5.06016L18.3488 -0.903493V-1.1875Z" stroke="#1A1A1A" stroke-width="0.427921" stroke-miterlimit="10" stroke-linecap="round"/>
<path d="M49.0193 5.0574L54.699 -0.90625V5.0574H49.0193ZM12.6719 5.0574H49.0193L54.699 -0.90625L12.6719 5.0574Z" fill="#1A1A1A"/>
<path d="M49.0193 5.0574L54.699 -0.90625M49.0193 5.0574H54.699V-0.90625M49.0193 5.0574H12.6719L54.699 -0.90625" stroke="#1A1A1A" stroke-width="0.427921" stroke-miterlimit="10" stroke-linecap="round"/>
<path d="M12.6719 5.05697L18.3492 -0.904297H54.7013L12.6719 5.05697Z" fill="#1A1A1A"/>
<path d="M12.6719 5.05697L18.3492 -0.904297H54.7013L12.6719 5.05697Z" stroke="#1A1A1A" stroke-width="0.427921" stroke-miterlimit="10" stroke-linecap="round"/>
<path d="M12.3867 -36.6855H18.3504V-0.90368H54.7025V5.05759H12.3867V-36.6855Z" stroke="#1A1A1A" stroke-width="0.427921" stroke-miterlimit="10" stroke-linecap="round" stroke-linejoin="round"/>
<path d="M54.7031 -0.335938H58.9581L54.7031 4.49176V-0.335938Z" fill="#636466"/>
<path d="M54.7031 -0.335938H58.9581L54.7031 4.49176V-0.335938Z" stroke="#636466" stroke-width="0.427921" stroke-miterlimit="10" stroke-linecap="round"/>
<path d="M147.847 4.49176L152.109 -0.335938V4.49176H147.847ZM54.7031 4.49176H147.847L152.109 -0.335938L54.7031 4.49176Z" fill="#636466"/>
<path d="M147.847 4.49176L152.109 -0.335938M147.847 4.49176H152.109V-0.335938M147.847 4.49176H54.7031L152.109 -0.335938" stroke="#636466" stroke-width="0.427921" stroke-miterlimit="10" stroke-linecap="round"/>
<path d="M54.7031 4.49176L58.9581 -0.335938H152.109L54.7031 4.49176Z" fill="#636466"/>
<path d="M54.7031 4.49176L58.9581 -0.335938H152.109L54.7031 4.49176Z" stroke="#636466" stroke-width="0.427921" stroke-miterlimit="10" stroke-linecap="round"/>
<path d="M62.0834 36.5818V9.60107M75.7122 36.5818V9.60107M72.3068 6.19566H65.7752M62.0834 36.4398C62.0834 40.2807 65.0723 43.395 68.757 43.395C72.4417 43.395 75.4306 40.2807 75.4306 36.4398M65.6332 6.19566C63.6737 6.19566 62.0834 7.65818 62.0834 9.46147M75.7122 9.46147C75.7122 7.65818 74.1243 6.19566 72.1624 6.19566M29.9934 16.561C29.9802 17.1099 30.0769 17.6559 30.2779 18.1669C30.4789 18.6778 30.78 19.1434 31.1635 19.5363C31.5471 19.9292 32.0054 20.2414 32.5114 20.4545C33.0174 20.6677 33.5609 20.7775 34.1099 20.7775C34.659 20.7775 35.2025 20.6677 35.7085 20.4545C36.2145 20.2414 36.6727 19.9292 37.0563 19.5363C37.4399 19.1434 37.741 18.6778 37.9419 18.1669C38.1429 17.6559 38.2397 17.1099 38.2265 16.561M36.6646 9.31948C36.8697 9.31948 37.0728 9.2791 37.2623 9.20061C37.4518 9.12212 37.624 9.00708 37.769 8.86204C37.9141 8.717 38.0291 8.54477 38.1076 8.35527C38.1861 8.16577 38.2265 7.96268 38.2265 7.75757M38.2289 6.90566C38.2289 6.49141 38.0643 6.0941 37.7714 5.80119C37.4785 5.50827 37.0812 5.34374 36.667 5.34374M29.9934 16.7006V7.04526M31.5529 5.34374C31.1391 5.34437 30.7424 5.50921 30.45 5.80205C30.1576 6.0949 29.9934 6.49182 29.9934 6.90566M31.6973 5.34374H36.809M54.7022 -0.335938V4.49176H152.108V-0.335938H54.7022ZM77.1345 4.77342H60.6635V44.8173H77.1345V4.77342ZM68.9014 10.3135C68.9014 10.0768 68.5819 9.88512 68.1891 9.88512C67.7962 9.88512 67.4791 10.0768 67.4791 10.3135C67.4791 10.5501 67.7962 10.7394 68.1891 10.7394C68.5819 10.7394 68.9014 10.5501 68.9014 10.3135ZM34.1088 7.89956C34.222 7.89956 34.3307 7.85458 34.4108 7.77447C34.4909 7.69436 34.5359 7.58573 34.5359 7.47244C34.5359 7.35915 34.4909 7.25045 34.4108 7.17034C34.3307 7.09024 34.222 7.04526 34.1088 7.04526C33.9955 7.04526 33.8868 7.09024 33.8067 7.17034C33.7266 7.25045 33.6816 7.35915 33.6816 7.47244C33.6816 7.58573 33.7266 7.69436 33.8067 7.77447C33.8868 7.85458 33.9955 7.89956 34.1088 7.89956Z" stroke="#1A1A1A" stroke-width="0.427921" stroke-miterlimit="10" stroke-linecap="round" stroke-linejoin="round"/>
<path d="M31.1281 16.5613C31.1281 17.3524 31.4424 18.1111 32.0018 18.6706C32.5612 19.23 33.32 19.5443 34.1111 19.5443C34.9022 19.5443 35.661 19.23 36.2204 18.6706C36.7798 18.1111 37.0941 17.3524 37.0941 16.5613M29.9922 7.75781C29.9922 8.61923 30.6927 9.31973 31.5517 9.31973M32.69 10.7397C32.2758 10.7397 31.8785 10.9042 31.5856 11.1971C31.2927 11.49 31.1281 11.8873 31.1281 12.3016M31.1281 16.7009V12.4436M37.3757 16.7009V12.4436M32.832 10.7397H35.6718M36.8078 9.60132H31.6961M37.0918 12.3016C37.0918 11.8873 36.9272 11.49 36.6343 11.1971C36.3414 10.9042 35.9441 10.7397 35.5298 10.7397M35.3098 15.281C34.9367 15.0966 34.5261 15.0006 34.1099 15.0006C33.6938 15.0006 33.2832 15.0966 32.9101 15.281" stroke="#1A1A1A" stroke-width="0.427921" stroke-miterlimit="10" stroke-linecap="round" stroke-linejoin="round"/>
<path d="M32.8344 16.3646C32.8584 16.6862 33.0031 16.9868 33.2394 17.2061C33.4758 17.4255 33.7863 17.5474 34.1088 17.5474C34.4312 17.5474 34.7418 17.4255 34.9781 17.2061C35.2144 16.9868 35.3591 16.6862 35.3832 16.3646M32.832 16.7007V15.2831M35.3879 15.2831V16.7007M38.5141 16.7007V7.04527M53.5628 9.60108V5.34375M52.4268 10.1691V8.46758M43.0578 10.1691V8.46758M41.9195 9.60108V5.34375M43.9074 7.61321H51.8565M43.763 7.61321C43.5751 7.61384 43.3952 7.68892 43.2625 7.822C43.1299 7.95507 43.0554 8.13533 43.0554 8.32321M52.4268 8.32321C52.4268 8.13533 52.3524 7.95507 52.2197 7.822C52.0871 7.68892 51.9071 7.61384 51.7193 7.61321M43.3702 11.5416C43.7964 12.3294 44.4276 12.9874 45.197 13.4459C45.9664 13.9044 46.8455 14.1465 47.7411 14.1465C48.6368 14.1465 49.5159 13.9044 50.2853 13.4459C51.0547 12.9874 51.6859 12.3294 52.1121 11.5416M47.7411 8.46758C47.6282 8.46758 47.5198 8.51242 47.4399 8.5923C47.36 8.67219 47.3152 8.78056 47.3152 8.89354C47.3152 9.00651 47.36 9.11481 47.4399 9.1947C47.5198 9.27458 47.6282 9.31949 47.7411 9.31949C47.8543 9.31949 47.9629 9.27466 48.0432 9.19484C48.1234 9.11502 48.1689 9.00673 48.1695 8.89354C48.1695 8.8374 48.1584 8.78179 48.1368 8.72996C48.1153 8.67812 48.0837 8.63102 48.0439 8.59144C48.0041 8.55185 47.9568 8.52055 47.9049 8.49928C47.8529 8.47802 47.7973 8.46727 47.7411 8.46758Z" stroke="#1A1A1A" stroke-width="0.427921" stroke-miterlimit="10" stroke-linecap="round" stroke-linejoin="round"/>
<path d="M43.0443 12.7939C43.6179 13.4829 44.3361 14.0373 45.1479 14.4178C45.9597 14.7982 46.8453 14.9954 47.7418 14.9954C48.6384 14.9954 49.5239 14.7982 50.3357 14.4178C51.1475 14.0373 51.8657 13.4829 52.4394 12.7939M43.0585 10.0298C43.0585 10.5718 43.1934 11.1043 43.4513 11.5823M41.9202 9.4619C41.9202 10.6215 42.3272 11.7456 43.0656 12.6378M52.4181 12.6354C53.1588 11.7432 53.5635 10.6191 53.5635 9.45952M51.7507 11.5823C52.0063 11.1043 52.1436 10.5694 52.1436 10.0298M53.5635 5.34417H41.9202M39.9323 47.3713V45.3834H16.9297V47.3713H39.9323ZM39.9323 47.3713L56.4009 57.0267L56.9713 55.8931L40.5026 46.5217L39.9323 47.3713ZM77.6997 48.7935V47.3713H58.9568V45.3834H77.6997V4.49219H79.4059V48.7935H77.6997ZM16.9297 17.2691H25.1652V5.05782H27.1531V45.3834H25.1652V19.257H16.9297V17.2691Z" stroke="#1A1A1A" stroke-width="0.427921" stroke-miterlimit="10" stroke-linecap="round" stroke-linejoin="round"/>
<path d="M56.149 56.6737C57.8037 53.8018 58.6753 50.5457 58.6765 47.2313M39.9336 47.3709V45.3831M58.9581 47.3709V45.3831M82.389 8.18361C82.2212 8.1833 82.055 8.21617 81.9 8.28031C81.7449 8.34445 81.6041 8.43859 81.4855 8.55735C81.367 8.67611 81.2731 8.81716 81.2093 8.97233C81.1454 9.1275 81.1128 9.29376 81.1135 9.46155M87.0747 8.46765H82.531M88.213 9.46155C88.213 9.29353 88.1799 9.12717 88.1155 8.97197C88.0512 8.81677 87.9568 8.67576 87.8379 8.55706C87.719 8.43836 87.5778 8.34432 87.4225 8.28024C87.2672 8.21616 87.1008 8.1833 86.9328 8.18361M88.213 16.4191V9.60115M86.9328 17.5551C87.1008 17.5554 87.2672 17.5225 87.4225 17.4585C87.5778 17.3944 87.719 17.3003 87.8379 17.1816C87.9568 17.0629 88.0512 16.9219 88.1155 16.7667C88.1799 16.6115 88.213 16.4452 88.213 16.2772M82.531 17.5551H87.0747M81.1135 16.2772C81.1135 16.9847 81.6814 17.5551 82.389 17.5551M81.3951 9.60115V16.4191M82.1074 7.61328C81.9392 7.61297 81.7726 7.6459 81.6171 7.71013C81.4616 7.77436 81.3204 7.86865 81.2014 7.9876C81.0825 8.10655 80.9882 8.24783 80.9239 8.4033C80.8597 8.55878 80.8268 8.72539 80.8271 8.89361" stroke="#1A1A1A" stroke-width="0.427921" stroke-miterlimit="10" stroke-linecap="round" stroke-linejoin="round"/>
<path d="M80.8281 16.5611C80.8281 17.2663 81.4008 17.8391 82.1084 17.8391M81.1145 9.03559V16.7007M81.3961 13.8633H88.2141M81.3961 14.7129H88.2141M81.3961 15.5672H88.2141M81.3961 16.4191H88.2141M81.3961 10.1692H88.2141M81.3961 11.3074H88.2141M81.3961 12.157H88.2141M81.3961 13.0113H88.2141M81.3961 9.31956H88.2141M90.9072 8.18361C90.7394 8.18329 90.5732 8.21617 90.4181 8.28031C90.263 8.34445 90.1222 8.43859 90.0037 8.55735C89.8851 8.67611 89.7912 8.81716 89.7274 8.97233C89.6635 9.1275 89.631 9.29376 89.6316 9.46155M95.3136 8.46765H91.0515M96.4472 9.46155C96.4475 9.29364 96.4146 9.12737 96.3505 8.97218C96.2864 8.817 96.1923 8.67593 96.0736 8.5572C95.9549 8.43848 95.8139 8.34442 95.6587 8.28031C95.5035 8.2162 95.3372 8.1833 95.1693 8.18361M96.4472 16.4191V9.60115M95.1693 17.5551C95.8768 17.5551 96.4472 16.9847 96.4472 16.2772M91.0515 17.5551H95.3136M89.6316 16.2772C89.6316 16.9847 90.1996 17.5551 90.9072 17.5551M89.6316 9.60115V16.4191M97.0128 8.89361C97.0134 8.7257 96.9809 8.55933 96.9171 8.40402C96.8532 8.24872 96.7594 8.10756 96.6409 7.98861C96.5223 7.86966 96.3815 7.77525 96.2265 7.71085C96.0714 7.64645 95.9051 7.61328 95.7372 7.61328M97.3015 16.7007V9.03559M95.7372 17.8391C95.905 17.8394 96.0712 17.8065 96.2263 17.7424C96.3813 17.6782 96.5222 17.5841 96.6407 17.4653C96.7593 17.3466 96.8531 17.2055 96.917 17.0503C96.9808 16.8952 97.0134 16.7289 97.0128 16.5611M95.8792 7.61328H82.248M82.248 18.123H95.8792M92.8974 11.0235C93.086 11.0235 93.2669 10.9485 93.4002 10.8152C93.5336 10.6818 93.6085 10.5009 93.6085 10.3123C93.6085 10.1237 93.5336 9.9428 93.4002 9.80944C93.2669 9.67607 93.086 9.60115 92.8974 9.60115C92.7159 9.61163 92.5453 9.69116 92.4204 9.82338C92.2956 9.95559 92.2261 10.1305 92.2261 10.3123C92.2261 10.4941 92.2956 10.6691 92.4204 10.8013C92.5453 10.9335 92.7159 11.013 92.8974 11.0235Z" stroke="#1A1A1A" stroke-width="0.427921" stroke-miterlimit="10" stroke-linecap="round" stroke-linejoin="round"/>
<path d="M98.4331 5.05664H79.4062V18.9718H98.4331V5.05664ZM127.683 18.1222V5.91094ZM139.897 5.91094V18.1222ZM138.759 14.5724C138.768 14.2869 138.72 14.0024 138.618 13.7357C138.515 13.4691 138.36 13.2259 138.162 13.0204C137.963 12.815 137.725 12.6515 137.463 12.5398C137.2 12.4282 136.917 12.3706 136.631 12.3704C136.346 12.3703 136.063 12.4275 135.8 12.5389C135.537 12.6503 135.299 12.8134 135.1 13.0187C134.901 13.2239 134.746 13.467 134.643 13.7335C134.54 14 134.492 14.2845 134.501 14.57C134.519 15.1223 134.751 15.6459 135.148 16.0303C135.545 16.4147 136.076 16.6298 136.629 16.6301C137.181 16.6304 137.712 16.416 138.11 16.032C138.507 15.6481 138.74 15.1247 138.759 14.5724ZM132.797 14.5724C132.797 14.0075 132.573 13.4658 132.174 13.0664C131.774 12.667 131.232 12.4426 130.668 12.4426C130.103 12.4426 129.561 12.667 129.161 13.0664C128.762 13.4658 128.538 14.0075 128.538 14.5724C128.538 15.1373 128.762 15.679 129.161 16.0784C129.561 16.4779 130.103 16.7023 130.668 16.7023C131.232 16.7023 131.774 16.4779 132.174 16.0784C132.573 15.679 132.797 15.1373 132.797 14.5724ZM139.897 18.1222H127.683ZM127.683 5.91094H139.897ZM138.759 9.17675C138.768 8.89124 138.72 8.60671 138.618 8.34008C138.515 8.07344 138.36 7.83018 138.162 7.62473C137.963 7.41928 137.725 7.25584 137.463 7.14418C137.2 7.03251 136.917 6.97491 136.631 6.97475C136.346 6.97459 136.063 7.03187 135.8 7.14324C135.537 7.25461 135.299 7.41777 135.1 7.623C134.901 7.82823 134.746 8.07132 134.643 8.33784C134.54 8.60436 134.492 8.88885 134.501 9.17437C134.519 9.72666 134.751 10.2503 135.148 10.6347C135.545 11.0191 136.076 11.2342 136.629 11.2345C137.181 11.2348 137.712 11.0203 138.11 10.6363C138.507 10.2524 138.74 9.72902 138.759 9.17675ZM132.797 9.17675C132.797 8.61188 132.573 8.07017 132.174 7.67074C131.774 7.27131 131.232 7.0469 130.668 7.0469C130.103 7.0469 129.561 7.27131 129.161 7.67074C128.762 8.07017 128.538 8.61188 128.538 9.17675C128.538 9.74163 128.762 10.2833 129.161 10.6828C129.561 11.0822 130.103 11.3066 130.668 11.3066C131.232 11.3066 131.774 11.0822 132.174 10.6828C132.573 10.2833 132.797 9.74163 132.797 9.17675Z" stroke="#1A1A1A" stroke-width="0.427921" stroke-miterlimit="10" stroke-linecap="round" stroke-linejoin="round"/>
<path d="M140.747 18.9718H126.832V5.05664H140.747V18.9718Z" stroke="#1A1A1A" stroke-width="0.427921" stroke-miterlimit="10" stroke-linecap="round" stroke-linejoin="round"/>
<path d="M160.343 18.9738V5.05859H79.4079V18.9738H160.343ZM18.3516 126.606H31.1308V135.407H33.1163V124.618H18.3516V126.606ZM52.7159 110.419V135.407H54.7037V110.419H52.7159ZM54.7037 88.8359L65.2087 107.579L64.3592 107.863L53.8494 89.4038L54.7037 88.8359Z" stroke="#1A1A1A" stroke-width="0.427921" stroke-miterlimit="10" stroke-linecap="round" stroke-linejoin="round"/>
<path d="M54.5545 110.133C58.3172 110.133 62.0137 109.141 65.2724 107.26M54.6988 110.417H52.7109M79.403 70.0913V73.7807H54.6988V88.8342H52.7109V71.7952H77.6967V70.0913H79.403ZM79.403 70.0913L90.1967 51.6324L89.3423 51.0645L78.5534 69.5233L79.403 70.0913Z" stroke="#1A1A1A" stroke-width="0.427921" stroke-miterlimit="10" stroke-linecap="round" stroke-linejoin="round"/>
<path d="M89.9838 51.3827C86.7245 49.5007 83.0272 48.5099 79.2635 48.5098M79.4055 70.0925H77.6992M79.4055 48.7937H77.6992" stroke="#1A1A1A" stroke-width="0.427921" stroke-miterlimit="10" stroke-linecap="round" stroke-linejoin="round"/>
<path d="M-1.8125 73.7812H2.73122L-1.8125 78.3249V73.7812Z" fill="#636466"/>
<path d="M-1.8125 73.7812H2.73122L-1.8125 78.3249V73.7812Z" stroke="#636466" stroke-width="0.427921" stroke-miterlimit="10" stroke-linecap="round"/>
<path d="M-1.8125 78.3249L16.6488 73.7812L12.3866 78.3249H-1.8125ZM2.73122 73.7812L-1.8125 78.3249L16.6488 73.7812H2.73122Z" fill="#636466"/>
<path d="M-1.8125 78.3249L16.6488 73.7812M-1.8125 78.3249H12.3866L16.6488 73.7812M-1.8125 78.3249L2.73122 73.7812H16.6488" stroke="#636466" stroke-width="0.427921" stroke-miterlimit="10" stroke-linecap="round"/>
<path d="M12.3867 78.3249L16.9304 73.7812L12.3867 78.6089V78.3249ZM16.6488 73.7812L12.3867 78.3249L16.9304 73.7812H16.6488Z" fill="#636466"/>
<path d="M12.3867 78.3249L16.9304 73.7812M12.3867 78.3249V78.6089L16.9304 73.7812M12.3867 78.3249L16.6488 73.7812H16.9304" stroke="#636466" stroke-width="0.427921" stroke-miterlimit="10" stroke-linecap="round"/>
<path d="M12.3867 99.6241L16.9304 94.5148V99.6241H12.3867ZM12.3867 78.6094V99.6241L16.9304 94.5148L12.3867 78.6094Z" fill="#636466"/>
<path d="M12.3867 99.6241L16.9304 94.5148M12.3867 99.6241H16.9304V94.5148M12.3867 99.6241V78.6094L16.9304 94.5148" stroke="#636466" stroke-width="0.427921" stroke-miterlimit="10" stroke-linecap="round"/>
<path d="M12.3867 78.6089L16.9304 73.7812V94.5143L12.3867 78.6089Z" fill="#636466"/>
<path d="M12.3867 78.6089L16.9304 73.7812V94.5143L12.3867 78.6089Z" stroke="#636466" stroke-width="0.427921" stroke-miterlimit="10" stroke-linecap="round"/>
<path d="M16.9304 73.7812V99.6237H12.3866V78.3249H-1.8125V73.7812H16.9304Z" stroke="#1A1A1A" stroke-width="0.427921" stroke-miterlimit="10" stroke-linecap="round" stroke-linejoin="round"/>
<path d="M12.3867 5.05859H16.9304L12.3867 10.1703V5.05859Z" fill="#636466"/>
<path d="M12.3867 5.05859H16.9304L12.3867 10.1703V5.05859Z" stroke="#636466" stroke-width="0.427921" stroke-miterlimit="10" stroke-linecap="round"/>
<path d="M12.3867 49.0779L16.9304 43.9663V49.0779H12.3867ZM12.3867 10.1699V49.0779L16.9304 43.9639L12.3867 10.1699Z" fill="#636466"/>
<path d="M12.3867 49.0779L16.9304 43.9663V49.0779H12.3867ZM12.3867 49.0779V10.1699L16.9304 43.9639L12.3867 49.0779Z" stroke="#636466" stroke-width="0.427921" stroke-miterlimit="10" stroke-linecap="round"/>
<path d="M12.3867 10.1703L16.9304 5.05859V43.9666L12.3867 10.1703Z" fill="#636466"/>
<path d="M12.3867 10.1703L16.9304 5.05859V43.9666L12.3867 10.1703Z" stroke="#636466" stroke-width="0.427921" stroke-miterlimit="10" stroke-linecap="round"/>
<path d="M12.3859 49.0783V5.05859H16.9296V49.0783H12.3859ZM12.3859 73.7825L-0.109375 52.1997L1.02655 51.9181L13.2378 73.2168L12.3859 73.7825Z" stroke="#1A1A1A" stroke-width="0.427921" stroke-miterlimit="10" stroke-linecap="round" stroke-linejoin="round"/>
<path d="M12.2415 49.0781C7.93211 49.0781 3.69366 50.2117 -0.040716 52.37M12.3835 73.7823H16.9273M12.3835 49.0781H16.9273M-0.679688 78.326V113.54H12.3835V78.326H-0.679688ZM33.1119 124.618V135.123H52.7115V124.618H33.1119Z" stroke="#1A1A1A" stroke-width="0.427921" stroke-miterlimit="10" stroke-linecap="round" stroke-linejoin="round"/>
<path d="M54.7031 135.977H58.9581L54.7031 140.52V135.977Z" fill="#636466"/>
<path d="M54.7031 135.977H58.9581L54.7031 140.52V135.977Z" stroke="#636466" stroke-width="0.427921" stroke-miterlimit="10" stroke-linecap="round"/>
<path d="M147.847 140.52L152.109 135.977V140.52H147.847ZM54.7031 140.52H147.847L152.109 135.977L54.7031 140.52Z" fill="#636466"/>
<path d="M147.847 140.52L152.109 135.977M147.847 140.52H152.109V135.977M147.847 140.52H54.7031L152.109 135.977" stroke="#636466" stroke-width="0.427921" stroke-miterlimit="10" stroke-linecap="round"/>
<path d="M54.7031 140.52L58.9581 135.977H152.109L54.7031 140.52Z" fill="#636466"/>
<path d="M54.7031 140.52L58.9581 135.977H152.109L54.7031 140.52Z" stroke="#636466" stroke-width="0.427921" stroke-miterlimit="10" stroke-linecap="round"/>
<path d="M160.342 22.098V5.05664H162.33V22.098H160.342ZM160.342 22.098L152.109 36.2971L152.959 36.5811L161.197 22.3819L160.342 22.098ZM54.7031 135.975V140.519H152.109V135.975H54.7031ZM162.33 71.795H160.342V54.7536H162.33V71.795Z" stroke="#1A1A1A" stroke-width="0.427921" stroke-miterlimit="10" stroke-linecap="round" stroke-linejoin="round"/>
<path d="M152.035 36.1C154.518 37.5321 157.334 38.2862 160.2 38.2866M160.342 22.0996H162.33M160.342 38.2843H162.33M160.342 54.7553L152.109 40.5562L152.958 39.9905L161.196 54.4713L160.342 54.7553Z" stroke="#1A1A1A" stroke-width="0.427921" stroke-miterlimit="10" stroke-linecap="round" stroke-linejoin="round"/>
<path d="M160.204 38.2826C157.338 38.2827 154.522 39.0377 152.04 40.4716M160.344 38.2826H162.332M161.198 6.76291V20.678M161.198 70.6591V55.8919M160.344 54.7536H162.332V55.8919H160.344V54.7536ZM160.344 22.0979V20.678H162.332V22.0979H160.344ZM160.344 71.7949V70.6591H162.332V71.7949H160.344ZM160.344 6.76291V5.62695H162.332V6.76291H160.344ZM39.3672 141.087V145.914H41.3551V141.087H39.3672Z" stroke="#1A1A1A" stroke-width="0.427921" stroke-miterlimit="10" stroke-linecap="round" stroke-linejoin="round"/>
<path d="M189.594 120.639H194.419L189.594 125.75V120.639Z" fill="#636466"/>
<path d="M189.594 120.639H194.419L189.594 125.75V120.639Z" stroke="#636466" stroke-width="0.427921" stroke-miterlimit="10" stroke-linecap="round"/>
<path d="M189.594 149.321L194.419 144.493V149.321H189.594ZM189.594 125.75V149.321L194.419 144.493L189.594 125.75Z" fill="#636466"/>
<path d="M189.594 149.321L194.419 144.493M189.594 149.321H194.419V144.493M189.594 149.321V125.75L194.419 144.493" stroke="#636466" stroke-width="0.427921" stroke-miterlimit="10" stroke-linecap="round"/>
<path d="M189.594 125.75L194.419 120.639V144.493L189.594 125.75Z" fill="#636466"/>
<path d="M189.594 125.75L194.419 120.639V144.493L189.594 125.75Z" stroke="#636466" stroke-width="0.427921" stroke-miterlimit="10" stroke-linecap="round"/>
<path d="M189.594 120.639H194.419V149.321H189.594V120.639Z" stroke="#1A1A1A" stroke-width="0.427921" stroke-miterlimit="10" stroke-linecap="round" stroke-linejoin="round"/>
<path d="M194.419 80.8809V120.638H192.715V80.8809H194.419Z" stroke="#1A1A1A" stroke-width="0.427921" stroke-miterlimit="10" stroke-linecap="round" stroke-linejoin="round"/>
<path d="M193.567 82.3023V118.936M194.419 81.1641V82.3023H192.715V81.1641H194.419ZM194.419 118.936V120.072H192.715V118.936H194.419Z" stroke="#1A1A1A" stroke-width="0.427921" stroke-miterlimit="10" stroke-linecap="round" stroke-linejoin="round"/>
<path d="M200.383 82.0191V119.505H194.419V120.638H189.594V80.8809H194.419V82.0191H200.383Z" stroke="#1A1A1A" stroke-width="0.427921" stroke-miterlimit="10" stroke-linecap="round" stroke-linejoin="round"/>
<path d="M189.594 65.5488H194.419L189.594 70.3765V65.5488Z" fill="#636466"/>
<path d="M189.594 65.5488H194.419L189.594 70.3765V65.5488Z" stroke="#636466" stroke-width="0.427921" stroke-miterlimit="10" stroke-linecap="round"/>
<path d="M189.594 80.8801L194.419 75.7684V80.8801H189.594ZM189.594 70.375V80.8801L194.419 75.7684L189.594 70.375Z" fill="#636466"/>
<path d="M189.594 80.8801L194.419 75.7684M189.594 80.8801H194.419V75.7684M189.594 80.8801V70.375L194.419 75.7684" stroke="#636466" stroke-width="0.427921" stroke-miterlimit="10" stroke-linecap="round"/>
<path d="M189.594 70.3765L194.419 65.5488V75.7698L189.594 70.3765Z" fill="#636466"/>
<path d="M189.594 70.3765L194.419 65.5488V75.7698L189.594 70.3765Z" stroke="#636466" stroke-width="0.427921" stroke-miterlimit="10" stroke-linecap="round"/>
<path d="M189.594 65.5488H194.419V80.8815H189.594V65.5488Z" stroke="#1A1A1A" stroke-width="0.427921" stroke-miterlimit="10" stroke-linecap="round" stroke-linejoin="round"/>
<path d="M194.418 119.506H198.678L194.418 124.05V119.506Z" fill="#636466"/>
<path d="M194.418 119.506H198.678L194.418 124.05V119.506Z" stroke="#636466" stroke-width="0.427921" stroke-miterlimit="10" stroke-linecap="round"/>
<path d="M194.418 150.743L198.68 146.199V150.743H194.418ZM194.418 124.049V150.743L198.68 146.199L194.418 124.049Z" fill="#636466"/>
<path d="M194.418 150.743L198.68 146.199M194.418 150.743H198.68V146.199M194.418 150.743V124.049L198.68 146.199" stroke="#636466" stroke-width="0.427921" stroke-miterlimit="10" stroke-linecap="round"/>
<path d="M194.418 124.05L198.678 119.506V146.2L194.418 124.05Z" fill="#636466"/>
<path d="M194.418 124.05L198.678 119.506V146.2L194.418 124.05Z" stroke="#636466" stroke-width="0.427921" stroke-miterlimit="10" stroke-linecap="round"/>
<path d="M194.418 119.506H198.678V150.744H194.418V119.506Z" stroke="#636466" stroke-width="0.427921" stroke-miterlimit="10" stroke-linecap="round" stroke-linejoin="round"/>
<path d="M194.418 64.4102H198.678L194.418 68.9539V64.4102Z" fill="#636466"/>
<path d="M194.418 64.4102H198.678L194.418 68.9539V64.4102Z" stroke="#636466" stroke-width="0.427921" stroke-miterlimit="10" stroke-linecap="round"/>
<path d="M194.418 82.0187L198.68 77.4749V82.0187H194.418ZM194.418 68.9531V82.0187L198.68 77.4749L194.418 68.9531Z" fill="#636466"/>
<path d="M194.418 82.0187L198.68 77.4749M194.418 82.0187H198.68V77.4749M194.418 82.0187V68.9531L198.68 77.4749" stroke="#636466" stroke-width="0.427921" stroke-miterlimit="10" stroke-linecap="round"/>
<path d="M194.418 68.9539L198.678 64.4102V77.4757L194.418 68.9539Z" fill="#636466"/>
<path d="M194.418 68.9539L198.678 64.4102V77.4757L194.418 68.9539Z" stroke="#636466" stroke-width="0.427921" stroke-miterlimit="10" stroke-linecap="round"/>
<path d="M194.418 64.4102H198.678V82.0195H194.418V64.4102Z" stroke="#636466" stroke-width="0.427921" stroke-miterlimit="10" stroke-linecap="round" stroke-linejoin="round"/>
<path d="M194.418 -2.60742H198.678L194.418 1.9363V-2.60742Z" fill="#636466"/>
<path d="M194.418 -2.60742H198.678L194.418 1.9363V-2.60742Z" stroke="#636466" stroke-width="0.427921" stroke-miterlimit="10" stroke-linecap="round"/>
<path d="M194.418 6.76328L198.68 2.21952V6.76328H194.418ZM194.418 1.93555V6.76328L198.68 2.21952L194.418 1.93555Z" fill="#636466"/>
<path d="M194.418 6.76328L198.68 2.21952M194.418 6.76328H198.68V2.21952M194.418 6.76328V1.93555L198.68 2.21952" stroke="#636466" stroke-width="0.427921" stroke-miterlimit="10" stroke-linecap="round"/>
<path d="M194.418 1.9363L198.678 -2.60742V2.22027L194.418 1.9363Z" fill="#636466"/>
<path d="M194.418 1.9363L198.678 -2.60742V2.22027L194.418 1.9363Z" stroke="#636466" stroke-width="0.427921" stroke-miterlimit="10" stroke-linecap="round"/>
<path d="M198.678 6.76403V-2.60742H194.418V6.76403H198.678Z" stroke="#636466" stroke-width="0.427921" stroke-miterlimit="10" stroke-linecap="round" stroke-linejoin="round"/>
<path d="M194.419 5.62695V65.5474H192.715V5.62695H194.419Z" stroke="#1A1A1A" stroke-width="0.427921" stroke-miterlimit="10" stroke-linecap="round" stroke-linejoin="round"/>
<path d="M193.567 7.32889V63.8415M194.419 6.19531V7.32889H192.715V6.19531H194.419ZM194.419 63.8415V64.9798H192.715V63.8415H194.419Z" stroke="#1A1A1A" stroke-width="0.427921" stroke-miterlimit="10" stroke-linecap="round" stroke-linejoin="round"/>
<path d="M200.383 6.76291V64.409H194.419V65.5474H189.594V5.62695H194.419V6.76291H200.383Z" stroke="#1A1A1A" stroke-width="0.427921" stroke-miterlimit="10" stroke-linecap="round" stroke-linejoin="round"/>
<path d="M189.594 -1.47266H194.419L189.594 3.63904V-1.47266Z" fill="#636466"/>
<path d="M189.594 -1.47266H194.419L189.594 3.63904V-1.47266Z" stroke="#636466" stroke-width="0.427921" stroke-miterlimit="10" stroke-linecap="round"/>
<path d="M189.594 5.62733L194.419 0.515625V5.62733H189.594ZM189.594 3.63945V5.62733L194.419 0.515625L189.594 3.63945Z" fill="#636466"/>
<path d="M189.594 5.62733L194.419 0.515625M189.594 5.62733H194.419V0.515625M189.594 5.62733V3.63945L194.419 0.515625" stroke="#636466" stroke-width="0.427921" stroke-miterlimit="10" stroke-linecap="round"/>
<path d="M189.594 3.63904L194.419 -1.47266V0.512832L189.594 3.63904Z" fill="#636466"/>
<path d="M189.594 3.63904L194.419 -1.47266V0.512832L189.594 3.63904Z" stroke="#636466" stroke-width="0.427921" stroke-miterlimit="10" stroke-linecap="round"/>
<path d="M189.594 -1.47266H194.419V5.62692H189.594V-1.47266Z" stroke="#1A1A1A" stroke-width="0.427921" stroke-miterlimit="10" stroke-linecap="round" stroke-linejoin="round"/>
<path d="M44.6102 37.5601L45.474 37.4441C45.571 37.934 45.7414 38.2866 45.9804 38.5043C46.2186 38.7197 46.5302 38.8357 46.8513 38.8285C47.2583 38.8285 47.6039 38.6865 47.8831 38.4049C48.021 38.2686 48.1296 38.1054 48.202 37.9255C48.2745 37.7456 48.3093 37.5528 48.3044 37.3589C48.3102 37.177 48.2788 36.9958 48.212 36.8265C48.1453 36.6572 48.0446 36.5034 47.9162 36.3744C47.786 36.2466 47.6312 36.1464 47.4612 36.0801C47.2911 36.0138 47.1094 35.9827 46.927 35.9887C46.7637 35.9887 46.5602 36.0218 46.3165 36.0857L46.4135 35.3261C46.8121 35.3639 47.2117 35.2654 47.5471 35.0468C47.8429 34.8551 47.992 34.5593 47.992 34.1594C47.9961 34.0126 47.9694 33.8666 47.9135 33.7309C47.8577 33.5951 47.7739 33.4726 47.6677 33.3713C47.5572 33.2655 47.4264 33.1831 47.2833 33.1291C47.1402 33.075 46.9876 33.0503 46.8347 33.0566C46.6805 33.0517 46.5269 33.0775 46.3827 33.1323C46.2386 33.1871 46.1066 33.27 45.9946 33.3761C45.7722 33.5867 45.6278 33.9038 45.5615 34.325L44.6978 34.1736C44.8019 33.5938 45.0433 33.1418 45.4196 32.827C45.8112 32.5013 46.3091 32.331 46.8182 32.3489C47.187 32.3444 47.5515 32.4289 47.8807 32.5951C48.1781 32.7396 48.429 32.9645 48.6051 33.2443C48.7812 33.5241 48.8754 33.8477 48.877 34.1783C48.8804 34.4744 48.7946 34.7646 48.6309 35.0113C48.45 35.2748 48.1981 35.4816 47.9044 35.6077C48.3209 35.7023 48.6451 35.9035 48.8747 36.2064C49.1042 36.5093 49.2202 36.888 49.2202 37.34C49.2247 37.6333 49.1671 37.9243 49.0513 38.1939C48.9355 38.4635 48.764 38.7056 48.5481 38.9043C48.3206 39.1186 48.0529 39.2856 47.7604 39.3957C47.4679 39.5058 47.1565 39.5567 46.8442 39.5456C46.2799 39.5648 45.7296 39.3675 45.306 38.9942C44.8978 38.6238 44.6485 38.11 44.6102 37.5601ZM50.5644 39.4201V38.4357H51.5488V39.4201H50.5644ZM52.8694 33.2956V32.4649H57.432V33.137C56.9847 33.6127 56.5399 34.2493 56.0997 35.0397C55.6548 35.8325 55.3187 36.6466 55.0773 37.4819C54.8948 38.1129 54.7829 38.7621 54.7437 39.4177H53.8538C53.8657 38.864 53.9722 38.1919 54.1804 37.4086C54.3887 36.6229 54.6892 35.8656 55.0773 35.1367C55.4678 34.4078 55.882 33.7949 56.3198 33.2932H52.8694V33.2956ZM40.5753 109.924L39.7139 109.99C39.6691 109.719 39.5568 109.465 39.3873 109.249C39.2771 109.13 39.1431 109.035 38.9938 108.971C38.8446 108.907 38.6835 108.875 38.5211 108.878C38.2602 108.874 38.0051 108.955 37.7946 109.11C37.5248 109.308 37.3071 109.599 37.1509 109.98C36.9947 110.361 36.9119 110.906 36.9048 111.609C37.0868 111.32 37.3394 111.082 37.6387 110.917C37.938 110.753 38.2743 110.668 38.6158 110.669C39.1909 110.669 39.6831 110.882 40.0878 111.308C40.4948 111.732 40.6983 112.281 40.6983 112.953C40.6983 113.395 40.6013 113.805 40.412 114.186C40.2203 114.567 39.96 114.858 39.6263 115.059C39.2926 115.26 38.914 115.362 38.4927 115.362C38.1578 115.372 37.8251 115.305 37.5196 115.167C37.2142 115.03 36.9441 114.824 36.7297 114.567C36.2729 114.034 36.0458 113.161 36.0458 111.945C36.0458 110.584 36.2966 109.595 36.7983 108.975C37.0107 108.711 37.2818 108.501 37.59 108.361C37.8982 108.22 38.2349 108.154 38.5732 108.168C39.127 108.168 39.5813 108.321 39.9363 108.631C40.2913 108.946 40.5043 109.377 40.5753 109.924ZM37.0397 112.962C37.0397 113.26 37.1036 113.544 37.2314 113.817C37.3592 114.089 37.5343 114.297 37.7615 114.441C37.991 114.583 38.2277 114.654 38.4785 114.654C38.6584 114.654 38.836 114.614 38.9988 114.538C39.1615 114.461 39.3055 114.35 39.4204 114.212C39.6831 113.916 39.8133 113.516 39.8133 113.01C39.8133 112.522 39.6831 112.139 39.4252 111.859C39.302 111.723 39.1507 111.614 38.9815 111.541C38.8124 111.469 38.6295 111.433 38.4454 111.438C38.2595 111.435 38.075 111.471 37.9038 111.543C37.7326 111.616 37.5785 111.724 37.4515 111.859C37.3122 112.006 37.204 112.179 37.1333 112.369C37.0625 112.558 37.0307 112.76 37.0397 112.962ZM42.0449 115.244V114.259H43.0294V115.244H42.0449ZM47.069 115.244V113.556H44.0091V112.763L47.2252 108.196H47.9328V112.763H48.8841V113.556H47.9328V115.244H47.069ZM47.069 112.766V109.588L44.8587 112.766H47.069ZM172.116 56.0189L172.98 55.903C173.082 56.3928 173.25 56.7454 173.489 56.9632C173.728 57.1785 174.04 57.2945 174.362 57.2874C174.769 57.2874 175.11 57.1454 175.394 56.8638C175.531 56.727 175.639 56.5638 175.712 56.384C175.784 56.2042 175.819 56.0116 175.815 55.8178C175.821 55.6354 175.789 55.4538 175.722 55.2842C175.655 55.1146 175.553 54.9607 175.424 54.8321C175.294 54.7036 175.14 54.6031 174.97 54.5369C174.8 54.4707 174.618 54.4403 174.435 54.4476C174.272 54.4476 174.069 54.4807 173.822 54.5446L173.919 53.7849C174.319 53.8235 174.719 53.725 175.055 53.5057C175.349 53.314 175.498 53.0182 175.498 52.6182C175.503 52.4716 175.476 52.3258 175.421 52.19C175.365 52.0543 175.282 51.9317 175.176 51.8302C174.961 51.6196 174.684 51.5154 174.345 51.5154C174.007 51.5154 173.725 51.6219 173.505 51.8349C173.278 52.0455 173.136 52.3627 173.07 52.7839L172.206 52.6325C172.313 52.0527 172.552 51.6006 172.928 51.2859C173.32 50.9605 173.817 50.7904 174.326 50.8079C174.712 50.8079 175.065 50.8883 175.387 51.054C175.685 51.1973 175.937 51.4218 176.114 51.7019C176.29 51.9819 176.385 52.3061 176.385 52.6372C176.385 52.9425 176.305 53.2194 176.139 53.4702C175.974 53.7211 175.735 53.9174 175.413 54.0665C175.832 54.1612 176.153 54.3624 176.383 54.6653C176.622 54.9937 176.744 55.393 176.728 55.7989C176.733 56.0923 176.675 56.3832 176.56 56.6528C176.444 56.9224 176.272 57.1644 176.056 57.3631C175.829 57.5775 175.562 57.7445 175.27 57.8546C174.978 57.9647 174.667 58.0157 174.355 58.0044C173.79 58.024 173.239 57.8267 172.814 57.453C172.407 57.0817 172.157 56.5686 172.116 56.0189ZM178.073 57.8791V56.8945H179.057V57.8791H178.073ZM180.328 56.0189L181.192 55.903C181.291 56.3928 181.462 56.7454 181.698 56.9632C181.938 57.1783 182.25 57.2943 182.571 57.2874C182.979 57.2874 183.322 57.1454 183.603 56.8638C183.741 56.7274 183.85 56.5643 183.922 56.3844C183.995 56.2045 184.029 56.0117 184.025 55.8178C184.03 55.6359 183.999 55.4548 183.932 55.2855C183.865 55.1162 183.765 54.9623 183.636 54.8333C183.506 54.7057 183.351 54.6057 183.181 54.5394C183.011 54.4731 182.83 54.4419 182.647 54.4476C182.482 54.4476 182.278 54.4807 182.034 54.5446L182.131 53.7849C182.531 53.8227 182.931 53.7243 183.267 53.5057C183.561 53.314 183.71 53.0182 183.71 52.6182C183.714 52.4717 183.687 52.3259 183.632 52.1902C183.577 52.0545 183.493 51.9319 183.388 51.8302C183.17 51.6196 182.893 51.5154 182.555 51.5154C182.216 51.5154 181.937 51.6219 181.715 51.8349C181.49 52.0455 181.346 52.3627 181.279 52.7839L180.416 52.6325C180.522 52.0527 180.761 51.6006 181.137 51.2859C181.53 50.9602 182.029 50.79 182.538 50.8079C182.922 50.8079 183.277 50.8883 183.599 51.054C183.897 51.1968 184.15 51.4212 184.326 51.7014C184.503 51.9815 184.597 52.306 184.597 52.6372C184.6 52.9331 184.514 53.2231 184.351 53.4702C184.17 53.7332 183.918 53.9398 183.625 54.0665C184.041 54.1612 184.365 54.3624 184.595 54.6653C184.824 54.9682 184.94 55.3469 184.94 55.7989C184.945 56.0924 184.887 56.3835 184.77 56.6531C184.654 56.9227 184.482 57.1646 184.266 57.3631C184.039 57.5775 183.772 57.7445 183.48 57.8546C183.187 57.9647 182.876 58.0157 182.564 58.0044C182 58.0244 181.449 57.827 181.026 57.453C180.617 57.0829 180.367 56.5691 180.328 56.0189ZM169.122 126.035H168.256V120.521C168.048 120.72 167.776 120.918 167.438 121.117C167.099 121.316 166.796 121.465 166.526 121.565V120.727C167.009 120.497 167.433 120.223 167.795 119.899C168.157 119.574 168.413 119.26 168.564 118.959H169.12V126.035H169.122ZM171.34 124.189L172.249 124.113C172.315 124.556 172.473 124.887 172.717 125.112C172.959 125.333 173.277 125.452 173.605 125.446C173.804 125.448 174.002 125.408 174.184 125.327C174.367 125.245 174.529 125.125 174.66 124.975C174.949 124.662 175.093 124.243 175.093 123.728C175.093 123.233 174.954 122.845 174.677 122.559C174.535 122.416 174.365 122.304 174.177 122.23C173.99 122.156 173.789 122.122 173.588 122.13C173.334 122.128 173.084 122.189 172.86 122.308C172.636 122.427 172.446 122.6 172.305 122.812L171.491 122.708L172.175 119.089H175.678V119.915H172.866L172.488 121.811C172.874 121.526 173.34 121.371 173.82 121.366C174.435 121.366 174.954 121.581 175.377 122.007C175.801 122.433 176.014 122.982 176.014 123.649C176.014 124.288 175.827 124.84 175.455 125.304C175.003 125.874 174.388 126.158 173.607 126.158C172.966 126.158 172.443 125.978 172.036 125.618C171.624 125.253 171.374 124.739 171.34 124.189ZM177.299 126.035V125.05H178.283V126.035H177.299ZM184.095 125.202V126.035H179.436C179.43 125.83 179.465 125.626 179.538 125.434C179.673 125.092 179.865 124.775 180.106 124.497C180.368 124.189 180.747 123.834 181.239 123.432C182.006 122.802 182.524 122.305 182.792 121.938C183.059 121.572 183.196 121.224 183.196 120.9C183.196 120.554 183.073 120.265 182.829 120.031C182.586 119.797 182.266 119.678 181.871 119.678C181.452 119.678 181.121 119.806 180.87 120.055C180.619 120.303 180.496 120.651 180.491 121.091L179.601 120.999C179.663 120.336 179.89 119.832 180.288 119.482C180.685 119.136 181.223 118.961 181.89 118.961C182.567 118.961 183.102 119.148 183.497 119.522C183.688 119.7 183.84 119.915 183.942 120.156C184.044 120.396 184.094 120.655 184.088 120.916C184.087 121.203 184.027 121.486 183.913 121.749C183.8 122.021 183.608 122.308 183.341 122.608C183.073 122.909 182.628 123.323 182.008 123.848C181.488 124.284 181.156 124.58 181.007 124.733C180.87 124.876 180.748 125.034 180.643 125.202H184.095ZM0.585759 34.6682L-0.275652 34.7345C-0.319311 34.4637 -0.431762 34.2086 -0.602234 33.9937C-0.712179 33.8741 -0.84622 33.7792 -0.995511 33.7151C-1.1448 33.6511 -1.30597 33.6194 -1.46839 33.6222C-1.72929 33.6188 -1.98425 33.7001 -2.19491 33.8541C-2.4647 34.0529 -2.68004 34.344 -2.83623 34.725C-2.99242 35.106 -3.07763 35.6503 -3.08236 36.3531C-2.90091 36.0642 -2.64878 35.8263 -2.34981 35.6619C-2.05084 35.4975 -1.71491 35.4121 -1.37373 35.4136C-1.09682 35.4102 -0.822308 35.4653 -0.568218 35.5755C-0.314127 35.6856 -0.0862033 35.8481 0.100617 36.0526C0.505293 36.4762 0.708823 37.0252 0.708823 37.6973C0.708823 38.1398 0.614157 38.5492 0.422468 38.9303C0.251018 39.2913 -0.0216737 39.5947 -0.362425 39.8035C-0.703176 40.0123 -1.0973 40.1176 -1.49679 40.1064C-1.83169 40.116 -2.16438 40.0494 -2.46979 39.9117C-2.7752 39.7739 -3.04534 39.5687 -3.25984 39.3113C-3.71422 38.7788 -3.94141 37.9056 -3.94141 36.6892C-3.94141 35.3284 -3.69292 34.3392 -3.18885 33.7192C-2.97645 33.4555 -2.70532 33.2453 -2.39713 33.1052C-2.08894 32.965 -1.75225 32.8989 -1.41396 32.9122C-0.918391 32.8916 -0.433047 33.0571 -0.0532126 33.3761C0.301766 33.6884 0.514763 34.1191 0.585759 34.6682ZM-2.94747 37.7044C-2.94747 38.0026 -2.88357 38.2866 -2.75814 38.5588C-2.64485 38.8141 -2.45989 39.0311 -2.22568 39.1835C-1.99849 39.3255 -1.75947 39.3965 -1.50862 39.3965C-1.32877 39.3964 -1.15117 39.3566 -0.988397 39.2801C-0.825623 39.2036 -0.681658 39.0923 -0.566737 38.9539C-0.304053 38.6581 -0.173893 38.2582 -0.173893 37.7518C-0.173893 37.2643 -0.304056 36.8809 -0.562007 36.6016C-0.819958 36.32 -1.14891 36.1804 -1.54175 36.1804C-1.93459 36.1804 -2.2659 36.32 -2.53805 36.6016C-2.6765 36.7488 -2.78408 36.9222 -2.8544 37.1116C-2.92471 37.301 -2.95636 37.5025 -2.94747 37.7044ZM135.608 58.8067L136.438 58.731C136.509 59.1214 136.647 59.4055 136.845 59.5806C137.044 59.7557 137.297 59.8432 137.607 59.8432C137.853 59.8495 138.095 59.7863 138.306 59.661C138.509 59.538 138.67 59.3771 138.8 59.1735C138.93 58.97 139.037 58.6955 139.124 58.3476C139.209 58.0021 139.253 57.6478 139.255 57.2921L139.25 57.1194C139.07 57.4024 138.821 57.6355 138.527 57.7972C138.233 57.9589 137.903 58.044 137.567 58.0447C136.983 58.0447 136.49 57.8341 136.086 57.4105C135.681 56.9869 135.48 56.4307 135.48 55.7374C135.48 55.0227 135.691 54.4476 136.112 54.0122C136.316 53.7988 136.562 53.6307 136.836 53.5186C137.109 53.4065 137.402 53.3529 137.697 53.3614C138.153 53.3584 138.598 53.4924 138.977 53.746C139.355 53.9997 139.648 54.3612 139.818 54.7836C140.014 55.2404 140.114 55.903 140.114 56.7668C140.114 57.6684 140.017 58.3855 139.82 58.918C139.624 59.4504 139.333 59.8551 138.949 60.1367C138.553 60.4186 138.077 60.5655 137.591 60.5556C137.042 60.5556 136.588 60.4041 136.242 60.0964C135.887 59.7912 135.679 59.3605 135.608 58.8067ZM139.15 55.6947C139.15 55.1978 139.016 54.805 138.753 54.5139C138.49 54.2228 138.171 54.0737 137.802 54.0737C137.609 54.0741 137.42 54.1164 137.245 54.1978C137.071 54.2791 136.917 54.3975 136.793 54.5446C136.501 54.8833 136.348 55.3209 136.367 55.7681C136.367 56.2154 136.502 56.5798 136.774 56.8614C136.902 56.9979 137.058 57.1059 137.23 57.1784C137.403 57.251 137.588 57.2865 137.776 57.2827C138.175 57.2827 138.504 57.1406 138.762 56.8614C139.02 56.5798 139.15 56.1917 139.15 55.6947ZM141.439 60.4349V59.4504H142.423V60.4349H141.439ZM143.82 58.8067L144.65 58.731C144.721 59.1214 144.856 59.4055 145.055 59.5806C145.254 59.7557 145.507 59.8432 145.817 59.8432C146.084 59.8432 146.316 59.7841 146.517 59.661C146.719 59.538 146.882 59.3771 147.01 59.1735C147.14 58.97 147.246 58.6955 147.334 58.3476C147.42 58.0024 147.463 57.6479 147.464 57.2921L147.459 57.1194C147.28 57.4029 147.031 57.6363 146.737 57.7981C146.443 57.9599 146.112 58.0446 145.777 58.0447C145.499 58.0494 145.224 57.9953 144.969 57.886C144.714 57.7767 144.485 57.6146 144.298 57.4105C143.891 56.9869 143.692 56.4307 143.692 55.7374C143.692 55.0227 143.9 54.4476 144.324 54.0122C144.527 53.799 144.774 53.631 145.046 53.5189C145.319 53.4068 145.612 53.3531 145.907 53.3614C146.362 53.3574 146.809 53.491 147.187 53.7448C147.565 53.9986 147.858 54.3606 148.027 54.7836C148.226 55.2404 148.323 55.903 148.323 56.7668C148.323 57.6684 148.226 58.3855 148.032 58.918C147.869 59.4024 147.565 59.827 147.159 60.1367C146.763 60.4189 146.286 60.5658 145.8 60.5556C145.309 60.5768 144.828 60.4129 144.451 60.0964C144.097 59.7912 143.888 59.3605 143.82 58.8067ZM147.36 55.6947C147.36 55.1978 147.227 54.805 146.962 54.5139C146.845 54.3756 146.7 54.2645 146.535 54.1885C146.371 54.1125 146.192 54.0733 146.011 54.0737C145.628 54.0737 145.289 54.2299 145.005 54.5446C144.721 54.8594 144.577 55.2664 144.577 55.7681C144.577 56.2154 144.712 56.5798 144.984 56.8614C145.254 57.1406 145.59 57.2827 145.987 57.2827C146.385 57.2827 146.716 57.1406 146.974 56.8614C147.23 56.5798 147.36 56.1917 147.36 55.6947Z" fill="#1A1A1A"/>
<path d="M93.0352 119.22H139.324V79.4629H93.0352M98.9964 99.3393H139.324" stroke="#1A1A1A" stroke-width="0.427921" stroke-miterlimit="10" stroke-linecap="round" stroke-linejoin="round"/>
<path d="M70.8867 119.22H98.9987V79.4629H70.8867V119.22Z" stroke="#1A1A1A" stroke-width="0.427921" stroke-miterlimit="10" stroke-linecap="round" stroke-linejoin="round"/>
<path d="M107.869 94.7962H106.717V87.4458C106.384 87.7527 106.018 88.0195 105.623 88.241C105.237 88.4756 104.831 88.6753 104.409 88.8374V87.7227C105.053 87.4174 105.619 87.0506 106.101 86.6199C106.584 86.1868 106.927 85.7703 107.126 85.3633H107.869V94.7962ZM110.823 92.3351L112.037 92.2333C112.126 92.8226 112.335 93.2675 112.661 93.5633C112.983 93.8589 113.407 94.0184 113.845 94.0082C114.111 94.0114 114.375 93.9567 114.619 93.848C114.862 93.7394 115.079 93.5793 115.255 93.3787C115.638 92.9598 115.83 92.4061 115.83 91.7127C115.83 91.0572 115.646 90.5365 115.276 90.1555C115.087 89.9652 114.861 89.8165 114.611 89.7188C114.361 89.621 114.094 89.5763 113.826 89.5875C113.487 89.5833 113.153 89.6641 112.855 89.8225C112.556 89.9808 112.301 90.2117 112.115 90.4939L111.033 90.3519L111.942 85.5266H116.613V86.6294H112.865L112.361 89.1545C112.876 88.7772 113.497 88.5711 114.136 88.5652C114.954 88.5652 115.648 88.8492 116.211 89.4148C116.774 89.9827 117.056 90.714 117.056 91.6086C117.056 92.4581 116.81 93.1941 116.313 93.8142C115.712 94.5738 114.888 94.9524 113.847 94.9524C112.993 94.9524 112.297 94.7134 111.755 94.2354C111.213 93.7573 110.903 93.1255 110.823 92.3351ZM118.774 94.7962V93.4828H120.087V94.7962H118.774ZM127.833 93.6863V94.7962H121.626C121.616 94.5224 121.662 94.2495 121.761 93.994C121.917 93.5704 122.172 93.1562 122.518 92.7468C122.866 92.335 123.367 91.8618 124.03 91.3222C125.05 90.4845 125.741 89.8218 126.098 89.3319C126.456 88.8421 126.638 88.3806 126.638 87.9452C126.642 87.7287 126.6 87.5139 126.516 87.3145C126.432 87.1152 126.306 86.9358 126.148 86.788C125.976 86.6287 125.775 86.505 125.555 86.4242C125.335 86.3434 125.102 86.3069 124.868 86.317C124.314 86.317 123.869 86.4826 123.535 86.8187C123.202 87.1524 123.031 87.6115 123.027 88.2031L121.843 88.0801C121.924 87.195 122.229 86.5229 122.759 86.0591C123.292 85.5952 124.002 85.3633 124.894 85.3633C125.796 85.3633 126.508 85.6118 127.033 86.1135C127.559 86.6128 127.821 87.2329 127.821 87.9712C127.821 88.3451 127.746 88.7143 127.589 89.0787C127.436 89.4432 127.18 89.8242 126.825 90.2265C126.47 90.6288 125.876 91.1778 125.045 91.8783C124.583 92.2523 124.139 92.6471 123.713 93.0616C123.529 93.2526 123.365 93.4619 123.223 93.6863H127.833ZM103.531 111.627L104.684 111.473C104.819 112.126 105.041 112.6 105.358 112.888C105.676 113.177 106.093 113.332 106.523 113.321C106.778 113.327 107.032 113.28 107.269 113.183C107.505 113.086 107.719 112.941 107.897 112.758C108.081 112.575 108.225 112.357 108.322 112.116C108.418 111.876 108.464 111.619 108.458 111.36C108.466 111.117 108.423 110.876 108.334 110.65C108.244 110.425 108.109 110.22 107.938 110.048C107.764 109.878 107.557 109.744 107.33 109.655C107.103 109.566 106.861 109.525 106.617 109.533C106.399 109.533 106.127 109.578 105.803 109.663L105.931 108.648C106.463 108.695 106.995 108.566 107.445 108.278C107.838 108.023 108.032 107.628 108.032 107.093C108.032 106.669 107.888 106.319 107.602 106.042C107.315 105.765 106.949 105.625 106.494 105.625C106.079 105.613 105.676 105.765 105.372 106.049C105.072 106.331 104.88 106.754 104.795 107.318L103.643 107.112C103.784 106.338 104.102 105.739 104.603 105.313C105.103 104.887 105.725 104.674 106.468 104.674C106.982 104.674 107.453 104.785 107.883 105.005C108.281 105.198 108.617 105.498 108.853 105.871C109.089 106.245 109.217 106.677 109.22 107.119C109.223 107.512 109.108 107.898 108.891 108.226C108.652 108.578 108.317 108.854 107.926 109.021C108.438 109.126 108.897 109.408 109.22 109.819C109.526 110.224 109.679 110.73 109.679 111.336C109.679 112.157 109.381 112.853 108.783 113.423C108.184 113.993 107.429 114.278 106.513 114.278C105.687 114.278 105.003 114.031 104.459 113.539C103.917 113.044 103.585 112.359 103.531 111.627ZM112.6 109.012C112.176 108.878 111.804 108.617 111.535 108.264C111.298 107.922 111.177 107.513 111.189 107.097C111.189 106.416 111.435 105.841 111.928 105.372C112.418 104.908 113.071 104.674 113.887 104.674C114.708 104.674 115.369 104.913 115.868 105.389C116.109 105.609 116.301 105.878 116.43 106.178C116.559 106.478 116.623 106.802 116.618 107.128C116.628 107.534 116.506 107.932 116.273 108.264C116.01 108.613 115.646 108.873 115.231 109.01C115.809 109.199 116.249 109.502 116.55 109.921C116.85 110.34 117.002 110.841 117.002 111.421C117.002 112.226 116.718 112.9 116.15 113.444C115.582 113.991 114.834 114.266 113.906 114.266C112.981 114.266 112.233 113.993 111.665 113.442C111.097 112.891 110.813 112.209 110.813 111.388C110.813 110.777 110.967 110.266 111.277 109.854C111.607 109.429 112.075 109.131 112.6 109.012ZM111.999 111.395C111.999 111.724 112.077 112.041 112.235 112.349C112.389 112.656 112.621 112.893 112.929 113.063C113.239 113.232 113.568 113.317 113.923 113.317C114.174 113.325 114.425 113.282 114.659 113.191C114.893 113.099 115.107 112.961 115.286 112.784C115.464 112.608 115.604 112.398 115.698 112.165C115.791 111.933 115.835 111.683 115.828 111.433C115.836 111.177 115.79 110.923 115.695 110.685C115.6 110.448 115.456 110.233 115.274 110.053C115.091 109.874 114.874 109.734 114.636 109.641C114.397 109.548 114.143 109.504 113.887 109.511C113.343 109.511 112.893 109.689 112.538 110.051C112.361 110.226 112.222 110.436 112.129 110.667C112.036 110.898 111.992 111.146 111.999 111.395ZM112.37 107.057C112.37 107.502 112.515 107.864 112.801 108.146C113.085 108.427 113.459 108.569 113.918 108.569C114.119 108.577 114.319 108.543 114.507 108.471C114.694 108.399 114.865 108.289 115.009 108.148C115.147 108.015 115.256 107.855 115.33 107.678C115.403 107.501 115.439 107.31 115.435 107.119C115.439 106.92 115.403 106.723 115.327 106.54C115.251 106.357 115.138 106.191 114.995 106.054C114.852 105.911 114.681 105.8 114.494 105.725C114.306 105.651 114.105 105.615 113.904 105.621C113.464 105.621 113.099 105.763 112.808 106.044C112.517 106.326 112.37 106.664 112.37 107.057ZM118.774 114.107V112.794H120.087V114.107H118.774ZM121.77 111.646L122.984 111.544C123.072 112.133 123.28 112.578 123.609 112.874C123.931 113.17 124.355 113.329 124.792 113.319C125.059 113.322 125.323 113.268 125.566 113.159C125.81 113.05 126.027 112.89 126.203 112.69C126.586 112.271 126.778 111.717 126.778 111.024C126.778 110.368 126.593 109.847 126.224 109.466C126.035 109.276 125.808 109.128 125.558 109.03C125.309 108.932 125.041 108.887 124.773 108.898C124.434 108.893 124.1 108.973 123.8 109.132C123.501 109.29 123.246 109.522 123.06 109.805L121.978 109.663L122.889 104.837H127.561V105.94H123.812L123.306 108.465C123.821 108.088 124.442 107.882 125.081 107.876C125.902 107.876 126.593 108.16 127.156 108.726C127.719 109.294 128.001 110.025 128.001 110.919C128.001 111.769 127.755 112.505 127.26 113.125C126.657 113.885 125.833 114.263 124.794 114.263C123.94 114.263 123.242 114.024 122.7 113.546C122.158 113.068 121.848 112.436 121.77 111.646Z" fill="#1A1A1A"/>
<path d="M85.3797 106.467H87.3097V89.8086H86.0653C85.7324 90.5274 85.1578 91.263 84.3493 92.0277C83.5408 92.7883 82.5936 93.4361 81.5156 93.9752V95.9436C82.2218 95.6573 82.9022 95.3048 83.5487 94.8904C84.2089 94.4993 84.8234 94.0281 85.3797 93.4862V106.467Z" fill="#1A1A1A"/>
<path d="M189.593 71.796H160.341V73.7816M160.341 73.7816H189.593M160.341 73.7816H159.207M79.4057 73.7816H80.544M81.3936 73.7816H83.0999M83.9495 73.7816H85.6557M86.5053 73.7816H87.9252M88.7772 73.7816H90.4811M91.333 73.7816H93.0369M93.8889 73.7816H95.5928M96.4447 73.7816H98.1486M98.9982 73.7816H100.704M101.554 73.7816H103.26M104.11 73.7816H105.532M106.384 73.7816H108.088M108.942 73.7816H110.644M111.498 73.7816H113.197M114.054 73.7816H115.753M116.61 73.7816H118.309M119.166 73.7816H120.867M121.719 73.7816H123.141M123.991 73.7816H125.697M126.547 73.7816H128.253M129.103 73.7816H130.809M131.659 73.7816H133.365M134.214 73.7816H135.918M136.77 73.7816H138.474M139.326 73.7816H141.03M141.596 73.7816H143.302M144.151 73.7816H145.858M146.707 73.7816H148.414M149.266 73.7816H150.969M151.821 73.7816H153.525M154.377 73.7816H156.081M156.933 73.7816H158.639M-160.273 -15.3867V134.838H-60.5978V141.937H-94.3894V136.544H-131.026V141.937H-160.273V202.428H-159.14V212.933H-101.489V214.071H-4.08285V211.8H38.2282V184.535H45.3278V214.071H137.909V211.8H189.593V141.937H152.108V140.52H54.7016V141.937H12.3858V78.3253H-31.0636V-15.3867H-160.273Z" stroke="#1A1A1A" stroke-width="0.427921" stroke-miterlimit="10" stroke-linecap="round" stroke-linejoin="round"/>
<path d="M123.008 25.2691C119.841 22.3152 115.63 20.7403 111.302 20.8907C106.974 21.0412 102.883 22.9047 99.9294 26.0714C98.4664 27.6391 97.3265 29.4797 96.5748 31.4881C95.8232 33.4964 95.4746 35.6332 95.5489 37.7763C95.6231 39.9194 96.1189 42.0268 97.0077 43.9783C97.8966 45.9298 99.1612 47.687 100.729 49.1497C102.297 50.6126 104.138 51.7523 106.146 52.5038C108.155 53.2552 110.292 53.6037 112.435 53.5292C114.578 53.4547 116.685 52.9587 118.637 52.0696C120.588 51.1805 122.345 49.9157 123.808 48.3475C126.761 45.1804 128.335 40.9703 128.185 36.6427C128.035 32.3151 126.173 28.2241 123.008 25.2691Z" stroke="#1A1A1A" stroke-width="0.427921" stroke-miterlimit="10" stroke-linecap="round" stroke-linejoin="round"/>
<path d="M105.966 34.3004L104.534 34.4117C104.404 33.8461 104.224 33.4343 103.989 33.1787C103.807 32.9799 103.583 32.8223 103.335 32.7162C103.087 32.6101 102.818 32.558 102.548 32.5634C102.114 32.5564 101.69 32.691 101.339 32.9468C100.885 33.2781 100.527 33.7609 100.265 34.3951C100.007 35.0317 99.867 35.9357 99.8576 37.1095C100.16 36.6274 100.581 36.2309 101.08 35.9578C101.579 35.6848 102.14 35.5444 102.709 35.55C103.67 35.55 104.489 35.9026 105.163 36.6102C105.838 37.3178 106.179 38.2336 106.179 39.353C106.179 40.0913 106.02 40.7752 105.7 41.4071C105.415 42.0089 104.96 42.5146 104.392 42.8625C103.824 43.2104 103.167 43.3855 102.501 43.3666C101.299 43.3666 100.319 42.9217 99.5617 42.0389C98.8045 41.1562 98.4258 39.6985 98.4258 37.668C98.4258 35.3985 98.8447 33.749 99.6824 32.7172C100.414 31.8203 101.398 31.373 102.636 31.373C103.561 31.373 104.318 31.631 104.91 32.1493C105.492 32.6723 105.85 33.3893 105.966 34.3004ZM100.078 39.3624C100.078 39.8594 100.182 40.3351 100.395 40.7918C100.581 41.2168 100.889 41.5773 101.28 41.8283C101.635 42.0602 102.05 42.1843 102.475 42.1857C102.775 42.1863 103.071 42.1203 103.342 41.9926C103.614 41.865 103.853 41.6787 104.044 41.4473C104.482 40.9551 104.699 40.2878 104.699 39.4429C104.699 38.6312 104.484 37.9922 104.051 37.5236C103.845 37.2962 103.593 37.1159 103.311 36.995C103.029 36.8741 102.725 36.8155 102.418 36.8232C102.108 36.8182 101.801 36.8779 101.516 36.9985C101.231 37.1191 100.974 37.298 100.762 37.5236C100.305 37.9922 100.078 38.6052 100.078 39.3624ZM113.041 43.1678H111.6V33.9786C111.252 34.3099 110.796 34.6412 110.232 34.9725C109.669 35.3038 109.165 35.5523 108.715 35.7156V34.3217C109.52 33.9431 110.228 33.484 110.829 32.9444C111.435 32.4049 111.861 31.8819 112.111 31.3754H113.044L113.041 43.1678ZM121.357 43.1678V40.3563H116.262V39.0335L121.622 31.4227H122.801V39.0335H124.387V40.3563H122.801V43.1678H121.357ZM121.357 39.0335V33.7396L117.677 39.0335H121.357Z" fill="#1A1A1A"/>
</g>
</g>
<defs>
<clipPath id="clip0_10134_54900">
<rect width="200.359" height="141.615" fill="white"/>
</clipPath>
</defs>
</svg>
