<svg width="480" height="296" viewBox="0 0 480 296" fill="none" xmlns="http://www.w3.org/2000/svg">
<rect x="0.160156" width="479" height="295" rx="32" fill="white"/>
<path d="M367.346 57.8342L479.042 58.1701V48.6682H184.711C184.711 48.6682 216.185 36.5285 247.154 4.82271L250.559 0.700706L238.483 0.256805L234.459 4.82271C234.459 4.82271 191.861 43.451 158.584 49.1806L59.8672 49.3623C58.8423 49.3642 57.8286 49.1494 56.8925 48.732C55.9565 48.3146 55.1193 47.704 54.4358 46.9402C53.7523 46.1765 53.2381 45.2769 52.9267 44.3004C52.6154 43.324 52.514 42.2927 52.6293 41.2743L56.8925 0.5H50.5126L46.6477 35.6681C46.5271 36.4498 46.2072 37.1873 45.7189 37.8096C45.2306 38.4319 44.5904 38.9179 43.8597 39.221C43.1291 39.524 42.3328 39.6339 41.5474 39.5399C40.762 39.446 40.0141 39.1514 39.3756 38.6846L6 13.5L3 19L30.7717 39.3068C41.3603 46.1316 43.4598 53.0455 41.979 61.562L38.8597 88.198L29.5257 144.043L12.9627 277.807C11.8436 286.845 18.8931 294.821 28 294.821V294.821C28 294.821 29.9696 218.267 49.5288 177.251C69.0846 136.234 76.607 134.133 76.607 134.133C76.607 134.133 89.0535 132.025 88.757 144.043L88.7621 209.405V210.232C88.7619 212.598 89.2276 214.94 90.1327 217.126C91.0377 219.311 92.3644 221.297 94.037 222.97C95.7095 224.642 97.6952 225.969 99.8806 226.874C102.066 227.78 104.408 228.246 106.774 228.246H395.857C398.034 228.247 400.122 229.112 401.662 230.652C403.201 232.192 404.066 234.28 404.066 236.457V295H412.465V210.589C412.465 210.589 415.428 170.286 395.672 143.616L377.101 114.574C377.101 114.574 367.421 95.9535 364.95 79.0868L363.664 61.5037C363.665 60.5303 364.053 59.5972 364.741 58.9094C365.43 58.2216 366.364 57.8355 367.337 57.8359L367.346 57.8342ZM87.6686 104.719C87.6686 104.719 57.4454 138.083 49.9367 156.657C49.9367 156.657 39.8623 172.067 28.7698 213.97L39.8623 140.654L49.5425 80.3962L50.5126 73.9999C51.1782 69.6173 53.3877 65.6168 56.7428 62.7196C60.0978 59.8224 64.3776 58.2193 68.8104 58.1993L153.065 57.8325C153.065 57.8325 112.76 77.678 87.6686 104.719Z" stroke="#4F4F4F" stroke-width="0.25" stroke-miterlimit="10"/>
<path d="M51.217 203.136L51.2206 202.636L50.7183 202.632L50.717 203.134L51.217 203.136ZM51.1107 242.227L50.6107 242.225L50.6094 242.723L51.1075 242.727L51.1107 242.227ZM64.673 242.314L64.6697 242.814H64.673V242.314ZM80.5456 242.314V242.814H81.0456V242.314H80.5456ZM80.5456 198.854H81.0456V198.354H80.5456V198.854ZM72.0565 198.854V198.354H71.5867L71.5575 198.823L72.0565 198.854ZM71.9211 201.028L71.9096 201.527L72.3903 201.539L72.4202 201.059L71.9211 201.028ZM60.5133 200.764L60.5248 200.264L59.9991 200.252L60.0135 200.777L60.5133 200.764ZM60.5801 203.204L60.5765 203.704L61.0941 203.708L61.0799 203.191L60.5801 203.204ZM94.0178 202.957L94.5143 203.016C94.5166 202.997 94.5178 202.977 94.5178 202.957H94.0178ZM94.0178 129.019H94.5178C94.5178 128.988 94.5149 128.957 94.5091 128.927L94.0178 129.019ZM145.964 71.6197L145.723 71.1818L145.718 71.1846L145.964 71.6197ZM165.023 62.1692L165.181 62.6435L165.182 62.6433L165.023 62.1692ZM184.846 57.7541L184.739 58.2424C184.774 58.2502 184.81 58.2541 184.846 58.2541V57.7541ZM231.967 57.7473L231.968 57.2473H231.967V57.7473ZM329.952 57.8587L329.951 58.3587H329.956L329.952 57.8587ZM344.39 57.7473L344.471 57.2538C344.443 57.2493 344.414 57.2471 344.386 57.2473L344.39 57.7473ZM354.505 66.4146L355.001 66.3474C354.997 66.3174 354.99 66.2879 354.981 66.2592L354.505 66.4146ZM362.012 102.866L362.477 102.681L362.476 102.679L362.012 102.866ZM375.791 130.306L376.214 130.041C376.188 129.998 376.155 129.96 376.117 129.927L375.791 130.306ZM386.938 148.108L387.367 147.851L387.362 147.843L386.938 148.108ZM393.077 158.353L393.522 158.125C393.517 158.115 393.512 158.105 393.506 158.096L393.077 158.353ZM397.4 166.794L397.881 166.658C397.872 166.626 397.86 166.595 397.845 166.566L397.4 166.794ZM400.896 179.247L401.388 179.155C401.385 179.14 401.381 179.126 401.377 179.112L400.896 179.247ZM403.35 212.78L403.833 212.912C403.844 212.871 403.85 212.829 403.85 212.787L403.35 212.78ZM387.992 222.071L388.045 221.574C388.028 221.572 388.01 221.571 387.992 221.571V222.071ZM103.499 222.071L103.486 222.571H103.499V222.071ZM50.717 203.134L50.6107 242.225L51.6107 242.228L51.717 203.137L50.717 203.134ZM51.1075 242.727L64.6697 242.814L64.6762 241.814L51.1139 241.727L51.1075 242.727ZM64.673 242.814H80.5456V241.814H64.673V242.814ZM81.0456 242.314V198.854H80.0456V242.314H81.0456ZM80.5456 198.354H72.0565V199.354H80.5456V198.354ZM71.5575 198.823L71.4221 200.996L72.4202 201.059L72.5555 198.885L71.5575 198.823ZM71.9327 200.528L60.5248 200.264L60.5017 201.263L71.9096 201.527L71.9327 200.528ZM60.0135 200.777L60.0803 203.218L61.0799 203.191L61.0131 200.75L60.0135 200.777ZM60.5838 202.704L51.2206 202.636L51.2133 203.636L60.5765 203.704L60.5838 202.704ZM94.5178 202.957V129.019H93.5178V202.957H94.5178ZM94.0178 129.019C94.5091 128.927 94.5091 128.926 94.5091 128.927C94.5091 128.926 94.5091 128.927 94.5091 128.927C94.5091 128.926 94.5091 128.926 94.509 128.926C94.5087 128.924 94.5083 128.922 94.5077 128.919C94.5065 128.912 94.5047 128.902 94.5023 128.887C94.4974 128.859 94.4901 128.815 94.4811 128.756C94.4632 128.639 94.4384 128.463 94.4117 128.233C94.3585 127.773 94.2983 127.096 94.272 126.24C94.2195 124.527 94.3032 122.101 94.8496 119.259C95.9416 113.58 98.8823 106.233 106.297 99.5861L105.63 98.8415C98.0263 105.658 94.9938 113.213 93.8676 119.071C93.305 121.997 93.2182 124.498 93.2725 126.27C93.2997 127.157 93.3622 127.862 93.4184 128.348C93.4464 128.591 93.473 128.779 93.4927 128.908C93.5025 128.972 93.5107 129.022 93.5166 129.056C93.5195 129.073 93.5218 129.086 93.5235 129.095C93.5243 129.1 93.525 129.104 93.5254 129.106C93.5257 129.108 93.5259 129.109 93.526 129.11C93.5261 129.11 93.5262 129.11 93.5262 129.111C93.5263 129.111 93.5264 129.111 94.0178 129.019ZM106.297 99.5861C113.777 92.8828 123.75 86.0016 131.867 80.7896C135.922 78.1853 139.51 76.001 142.082 74.4679C143.369 73.7014 144.402 73.0978 145.112 72.6859C145.468 72.48 145.743 72.3221 145.929 72.2157C146.021 72.1625 146.092 72.1222 146.14 72.0953C146.163 72.0818 146.181 72.0717 146.193 72.0649C146.199 72.0616 146.203 72.059 146.206 72.0574C146.208 72.0565 146.209 72.0559 146.21 72.0555C146.21 72.0553 146.21 72.0556 146.21 72.0555C146.211 72.0555 146.211 72.0549 145.964 71.6197C145.718 71.1846 145.718 71.1844 145.718 71.1846C145.718 71.1847 145.717 71.1851 145.717 71.1853C145.716 71.1857 145.715 71.1864 145.713 71.1873C145.71 71.1891 145.706 71.1917 145.7 71.1952C145.687 71.2021 145.669 71.2124 145.645 71.2261C145.597 71.2535 145.526 71.2942 145.432 71.3478C145.244 71.455 144.968 71.6138 144.611 71.8207C143.897 72.2343 142.861 72.84 141.571 73.6088C138.99 75.1463 135.393 77.3366 131.326 79.9481C123.198 85.1679 113.17 92.0837 105.63 98.8415L106.297 99.5861ZM145.964 71.6197C146.206 72.0577 146.206 72.0575 146.206 72.0574C146.207 72.0571 146.207 72.0568 146.208 72.0563C146.21 72.0554 146.212 72.054 146.216 72.0521C146.223 72.0484 146.233 72.0428 146.246 72.0354C146.273 72.0205 146.313 71.9985 146.366 71.9697C146.471 71.912 146.626 71.8271 146.825 71.7184C147.223 71.5011 147.798 71.1888 148.502 70.809C149.911 70.0493 151.839 69.0198 153.918 67.9404C158.091 65.7727 162.818 63.4314 165.181 62.6435L164.865 61.6949C162.411 62.5129 157.608 64.8969 153.457 67.053C151.372 68.1355 149.439 69.1675 148.028 69.9288C147.322 70.3095 146.746 70.6226 146.346 70.8406C146.146 70.9496 145.991 71.0348 145.885 71.0929C145.832 71.1219 145.792 71.1441 145.765 71.159C145.751 71.1665 145.741 71.1722 145.734 71.176C145.73 71.1779 145.728 71.1793 145.726 71.1803C145.725 71.1808 145.724 71.1812 145.724 71.1814C145.724 71.1815 145.723 71.1817 145.723 71.1818C145.723 71.1819 145.723 71.1818 145.964 71.6197ZM165.023 62.1692C165.182 62.6433 165.182 62.6433 165.182 62.6433C165.183 62.6432 165.184 62.6428 165.185 62.6425C165.186 62.6418 165.189 62.6409 165.193 62.6397C165.2 62.6372 165.212 62.6334 165.226 62.6285C165.256 62.6186 165.3 62.6039 165.359 62.5847C165.475 62.5464 165.646 62.4902 165.865 62.4189C166.304 62.2763 166.936 62.0735 167.707 61.8327C169.249 61.3512 171.346 60.7186 173.566 60.1137C175.788 59.5084 178.125 58.9332 180.151 58.5643C181.164 58.3798 182.091 58.2483 182.883 58.1896C183.683 58.1302 184.31 58.1481 184.739 58.2424L184.954 57.2658C184.382 57.14 183.64 57.1306 182.809 57.1923C181.97 57.2546 181.005 57.3923 179.972 57.5804C177.906 57.9567 175.537 58.5403 173.303 59.1489C171.068 59.7579 168.959 60.3943 167.409 60.8782C166.634 61.1202 165.998 61.3242 165.556 61.4678C165.335 61.5396 165.163 61.5963 165.045 61.6351C164.986 61.6545 164.941 61.6695 164.911 61.6796C164.896 61.6846 164.884 61.6885 164.876 61.6911C164.873 61.6924 164.87 61.6933 164.868 61.694C164.867 61.6943 164.866 61.6947 164.865 61.6949C164.865 61.6948 164.865 61.695 164.865 61.6949C164.865 61.6949 164.864 61.6951 165.023 62.1692ZM184.846 58.2541L231.967 58.2473V57.2473L184.846 57.2541V58.2541ZM231.967 58.2473L329.951 58.3587L329.952 57.3587L231.968 57.2473L231.967 58.2473ZM329.956 58.3587L344.394 58.2473L344.386 57.2473L329.948 57.3587L329.956 58.3587ZM344.309 58.2407C346.537 58.6052 348.622 59.5748 350.336 61.0437L350.987 60.2843C349.134 58.6962 346.879 57.6479 344.471 57.2538L344.309 58.2407ZM350.336 61.0437C352.051 62.5126 353.329 64.4242 354.03 66.57L354.981 66.2592C354.222 63.9393 352.841 61.8724 350.987 60.2843L350.336 61.0437ZM354.505 66.4146C354.01 66.4817 354.01 66.4818 354.01 66.4819C354.01 66.4816 354.01 66.4821 354.01 66.4819C354.01 66.4824 354.01 66.4838 354.01 66.4848C354.011 66.4868 354.011 66.4899 354.012 66.4939C354.013 66.502 354.014 66.5142 354.017 66.5302C354.021 66.5624 354.027 66.6101 354.036 66.6725C354.052 66.7973 354.077 66.9807 354.108 67.2152C354.171 67.6842 354.259 68.3572 354.365 69.1733C354.577 70.8055 354.856 73.0091 355.127 75.2954C355.398 77.5824 355.661 79.9492 355.839 81.9088C356.019 83.8923 356.107 85.3989 356.047 86.0071L357.043 86.1051C357.114 85.3815 357.012 83.7671 356.835 81.8181C356.655 79.8453 356.392 77.4681 356.12 75.1777C355.848 72.8866 355.569 70.6792 355.357 69.0447C355.251 68.2275 355.162 67.5533 355.099 67.0834C355.068 66.8484 355.044 66.6645 355.027 66.5393C355.018 66.4767 355.012 66.4288 355.008 66.3965C355.005 66.3803 355.004 66.3681 355.003 66.3599C355.002 66.3558 355.002 66.3526 355.001 66.3506C355.001 66.3495 355.001 66.3479 355.001 66.3474C355.001 66.3471 355.001 66.3475 355.001 66.3474C355.001 66.3473 355.001 66.3474 354.505 66.4146ZM356.047 86.0071C356.007 86.4213 356.082 86.9981 356.215 87.6435C356.35 88.3044 356.557 89.0903 356.809 89.9474C357.313 91.6625 358.009 93.6915 358.71 95.63C359.412 97.5699 360.121 99.4255 360.655 100.796C360.922 101.481 361.146 102.045 361.302 102.438C361.381 102.635 361.442 102.788 361.484 102.893C361.505 102.945 361.521 102.986 361.532 103.013C361.538 103.026 361.542 103.036 361.545 103.043C361.546 103.047 361.547 103.049 361.548 103.051C361.548 103.052 361.549 103.053 361.549 103.053C361.549 103.053 361.549 103.053 361.549 103.053C361.549 103.053 361.549 103.054 362.012 102.866C362.476 102.679 362.476 102.679 362.476 102.679C362.476 102.678 362.476 102.679 362.476 102.679C362.475 102.678 362.475 102.677 362.475 102.676C362.474 102.674 362.473 102.672 362.472 102.669C362.469 102.662 362.465 102.652 362.46 102.638C362.449 102.612 362.433 102.572 362.412 102.52C362.37 102.416 362.309 102.264 362.231 102.068C362.075 101.677 361.853 101.115 361.587 100.433C361.055 99.0671 360.349 97.2196 359.651 95.2898C358.952 93.3587 358.264 91.3517 357.768 89.6652C357.52 88.8215 357.322 88.0652 357.194 87.4427C357.064 86.8046 357.018 86.3567 357.043 86.1051L356.047 86.0071ZM362.012 102.866C361.548 103.051 361.548 103.051 361.548 103.051C361.548 103.051 361.548 103.052 361.548 103.052C361.549 103.053 361.549 103.054 361.55 103.056C361.551 103.059 361.553 103.063 361.555 103.069C361.559 103.08 361.566 103.097 361.575 103.12C361.593 103.165 361.62 103.232 361.656 103.32C361.726 103.495 361.83 103.752 361.963 104.08C362.23 104.736 362.616 105.678 363.093 106.819C364.046 109.102 365.363 112.185 366.816 115.387C368.269 118.587 369.861 121.912 371.365 124.676C372.117 126.057 372.85 127.305 373.535 128.328C374.215 129.345 374.868 130.171 375.464 130.685L376.117 129.927C375.626 129.504 375.034 128.769 374.366 127.772C373.704 126.783 372.987 125.564 372.243 124.198C370.756 121.465 369.175 118.164 367.727 114.973C366.279 111.784 364.966 108.71 364.015 106.434C363.54 105.296 363.155 104.357 362.889 103.703C362.756 103.376 362.653 103.121 362.583 102.947C362.548 102.86 362.522 102.793 362.504 102.749C362.495 102.726 362.488 102.709 362.484 102.698C362.481 102.692 362.48 102.688 362.479 102.685C362.478 102.684 362.478 102.682 362.477 102.681C362.477 102.681 362.477 102.681 362.477 102.681C362.477 102.681 362.477 102.681 362.012 102.866ZM375.367 130.571L386.514 148.374L387.362 147.843L376.214 130.041L375.367 130.571ZM386.509 148.366L392.648 158.61L393.506 158.096L387.367 147.851L386.509 148.366ZM392.632 158.58L396.955 167.022L397.845 166.566L393.522 158.125L392.632 158.58ZM396.918 166.929L400.415 179.382L401.377 179.112L397.881 166.658L396.918 166.929ZM400.896 179.247C400.405 179.339 400.405 179.339 400.405 179.339V179.341C400.405 179.343 400.406 179.346 400.407 179.349C400.408 179.356 400.41 179.366 400.412 179.379C400.417 179.406 400.425 179.446 400.434 179.498C400.454 179.603 400.482 179.756 400.518 179.953C400.591 180.346 400.695 180.911 400.819 181.598C401.068 182.972 401.399 184.834 401.731 186.784C402.062 188.734 402.393 190.771 402.641 192.496C402.891 194.236 403.051 195.62 403.051 196.29H404.051C404.051 195.535 403.879 194.077 403.631 192.354C403.381 190.616 403.049 188.57 402.716 186.616C402.384 184.661 402.052 182.796 401.803 181.42C401.678 180.732 401.575 180.166 401.502 179.772C401.466 179.575 401.437 179.421 401.417 179.316C401.408 179.263 401.4 179.223 401.395 179.196C401.393 179.183 401.391 179.172 401.39 179.165C401.389 179.162 401.388 179.159 401.388 179.158C401.388 179.157 401.388 179.156 401.388 179.156C401.388 179.155 401.388 179.155 401.388 179.155C401.388 179.155 401.388 179.155 400.896 179.247ZM403.051 196.29C403.051 197.71 403.001 201.828 402.951 205.597C402.926 207.479 402.901 209.273 402.882 210.597C402.872 211.258 402.865 211.802 402.859 212.181C402.856 212.37 402.854 212.518 402.853 212.619C402.852 212.669 402.851 212.707 402.851 212.733C402.851 212.746 402.851 212.756 402.851 212.763C402.851 212.766 402.851 212.768 402.85 212.77C402.85 212.771 402.85 212.771 402.85 212.772C402.85 212.772 402.85 212.772 403.35 212.78C403.85 212.787 403.85 212.787 403.85 212.787C403.85 212.787 403.85 212.787 403.85 212.786C403.85 212.784 403.85 212.781 403.85 212.777C403.851 212.771 403.851 212.761 403.851 212.748C403.851 212.722 403.852 212.684 403.853 212.633C403.854 212.533 403.856 212.385 403.859 212.195C403.864 211.817 403.872 211.273 403.882 210.611C403.9 209.287 403.926 207.493 403.951 205.61C404.001 201.845 404.051 197.719 404.051 196.29H403.051ZM403.35 212.78C402.868 212.648 402.868 212.647 402.868 212.647C402.868 212.648 402.868 212.649 402.867 212.651C402.866 212.655 402.864 212.661 402.862 212.669C402.857 212.686 402.849 212.713 402.838 212.749C402.815 212.82 402.78 212.927 402.731 213.064C402.632 213.338 402.476 213.732 402.25 214.203C401.798 215.146 401.07 216.388 399.97 217.588C397.783 219.972 394.096 222.223 388.045 221.574L387.939 222.568C394.333 223.254 398.325 220.86 400.706 218.264C401.89 216.974 402.668 215.643 403.152 214.635C403.393 214.131 403.562 213.705 403.671 213.404C403.726 213.253 403.765 213.133 403.792 213.049C403.805 213.007 403.815 212.974 403.821 212.951C403.825 212.94 403.827 212.931 403.829 212.924C403.83 212.921 403.831 212.918 403.831 212.916C403.832 212.915 403.832 212.914 403.832 212.914C403.832 212.913 403.832 212.913 403.832 212.913C403.833 212.912 403.833 212.912 403.35 212.78ZM387.992 221.571H103.499V222.571H387.992V221.571ZM103.499 222.071C103.512 221.571 103.512 221.571 103.512 221.571C103.513 221.571 103.513 221.571 103.512 221.571C103.512 221.571 103.511 221.571 103.51 221.571C103.506 221.571 103.5 221.571 103.491 221.57C103.474 221.569 103.446 221.568 103.408 221.565C103.332 221.559 103.218 221.547 103.071 221.526C102.777 221.485 102.353 221.405 101.85 221.252C100.842 220.947 99.5195 220.354 98.262 219.202C95.7683 216.917 93.4142 212.321 94.5143 203.016L93.5212 202.899C92.3966 212.411 94.7833 217.371 97.5865 219.939C98.9774 221.213 100.442 221.871 101.56 222.209C102.119 222.378 102.593 222.469 102.93 222.516C103.099 222.54 103.234 222.554 103.329 222.561C103.376 222.565 103.413 222.567 103.44 222.569C103.453 222.57 103.464 222.57 103.472 222.57C103.475 222.57 103.479 222.571 103.481 222.571C103.482 222.571 103.483 222.571 103.484 222.571C103.485 222.571 103.486 222.571 103.486 222.571C103.487 222.571 103.486 222.571 103.499 222.071Z" fill="#4F4F4F"/>
<path d="M224.762 37.0977H225.685L227.584 41.0381H227.613L229.303 37.0977H230.235L227.975 42.2783C227.688 42.9456 227.424 43.416 227.184 43.6895C226.943 43.9629 226.583 44.0996 226.104 44.0996C225.841 44.0996 225.641 44.0736 225.504 44.0215L225.426 44.002V43.25C225.595 43.3151 225.795 43.3477 226.026 43.3477C226.29 43.3477 226.492 43.2646 226.632 43.0986C226.768 42.9391 226.913 42.6657 227.066 42.2783L227.135 42.0977L224.762 37.0977ZM231.251 40.0176L231.715 37.0977H235.44V42H234.581V37.8789H232.442L232.115 40.0176C232.001 40.8053 231.832 41.349 231.607 41.6484C231.383 41.9479 231.072 42.0977 230.675 42.0977C230.518 42.0977 230.379 42.0781 230.255 42.0391L230.182 42.0098V41.1895C230.289 41.2285 230.4 41.248 230.514 41.248C230.761 41.248 230.938 41.1195 231.046 40.8623C231.117 40.693 231.186 40.4115 231.251 40.0176ZM236.842 41.9609C236.744 41.873 236.695 41.7461 236.695 41.5801C236.695 41.4173 236.744 41.2887 236.842 41.1943C236.936 41.1032 237.071 41.0576 237.247 41.0576C237.423 41.0576 237.558 41.1032 237.652 41.1943C237.75 41.2887 237.799 41.4173 237.799 41.5801C237.799 41.7461 237.75 41.873 237.652 41.9609C237.558 42.0521 237.423 42.0977 237.247 42.0977C237.071 42.0977 236.936 42.0521 236.842 41.9609ZM242.911 35.8379H240.401V34.998H246.353V35.8379H243.853V42H242.911V35.8379ZM246.202 40.6279C246.202 40.1266 246.415 39.7555 246.842 39.5146C247.265 39.277 247.809 39.1582 248.473 39.1582C248.811 39.1582 249.124 39.1989 249.41 39.2803C249.71 39.3649 249.92 39.4447 250.04 39.5195L250.23 39.6416V38.8701C250.23 38.5381 250.108 38.2777 249.864 38.0889C249.62 37.8968 249.252 37.8008 248.761 37.8008C247.781 37.8008 247.291 38.0677 247.291 38.6016H246.432C246.435 38.0612 246.655 37.6592 247.091 37.3955C247.524 37.1318 248.08 37 248.761 37C249.444 37 250.003 37.1595 250.435 37.4785C250.868 37.8008 251.087 38.2646 251.09 38.8701V40.6523C251.09 40.8997 251.122 41.0723 251.187 41.1699C251.253 41.2643 251.36 41.3115 251.51 41.3115C251.64 41.3115 251.726 41.2936 251.768 41.2578L251.788 41.248V42.0195C251.687 42.0716 251.541 42.0977 251.349 42.0977C251.023 42.0977 250.782 42.0277 250.626 41.8877C250.502 41.7835 250.411 41.6745 250.352 41.5605L250.328 41.502H250.289C250.208 41.5833 250.125 41.6517 250.04 41.707C249.939 41.7754 249.828 41.8356 249.708 41.8877C249.389 42.0277 249 42.0977 248.541 42.0977C247.848 42.0977 247.284 41.9788 246.852 41.7412C246.419 41.5068 246.202 41.1357 246.202 40.6279ZM248.668 39.959C247.61 39.959 247.081 40.182 247.081 40.6279C247.081 41.0771 247.61 41.3018 248.668 41.3018C248.98 41.3018 249.265 41.2676 249.522 41.1992C249.776 41.1374 249.95 41.0788 250.045 41.0234C250.133 40.9779 250.195 40.9372 250.23 40.9014V40.3398C250.195 40.304 250.133 40.2633 250.045 40.2178C249.934 40.1657 249.762 40.1104 249.527 40.0518C249.277 39.9899 248.99 39.959 248.668 39.959ZM252.74 42V37.0977H256.681V37.8789H253.6V42H252.74ZM262.315 42H261.451V38.0791H261.432L258.614 42H257.525V37.0977H258.385V41.0186H258.404L261.222 37.0977H262.315V42ZM264.181 40.0176L264.644 37.0977H268.37V42H267.511V37.8789H265.372L265.045 40.0176C264.931 40.8053 264.762 41.349 264.537 41.6484C264.312 41.9479 264.002 42.0977 263.604 42.0977C263.448 42.0977 263.308 42.0781 263.185 42.0391L263.111 42.0098V41.1895C263.219 41.2285 263.329 41.248 263.443 41.248C263.691 41.248 263.868 41.1195 263.976 40.8623C264.047 40.693 264.115 40.4115 264.181 40.0176ZM270.738 38.7187H271.856C273.324 38.7187 274.059 39.2656 274.059 40.3594C274.059 41.4531 273.324 42 271.856 42H269.879V37.0977H270.738V38.7187ZM271.856 41.248C272.351 41.248 272.695 41.1764 272.887 41.0332C273.079 40.89 273.175 40.6654 273.175 40.3594C273.175 40.0534 273.079 39.8288 272.887 39.6855C272.695 39.5423 272.351 39.4707 271.856 39.4707H270.738V41.248H271.856ZM275.919 41.3896C275.411 40.9242 275.157 40.3073 275.157 39.5391C275.157 38.7708 275.411 38.1556 275.919 37.6934C276.42 37.2311 277.063 37 277.848 37C278.294 37 278.692 37.0749 279.044 37.2246C279.405 37.3776 279.679 37.5615 279.864 37.7764C280.252 38.2223 280.445 38.6309 280.445 39.002H279.557C279.524 38.862 279.469 38.7236 279.391 38.5869C279.309 38.4469 279.215 38.3249 279.107 38.2207C278.984 38.1035 278.81 38.0042 278.585 37.9228C278.364 37.8415 278.118 37.8008 277.848 37.8008C277.297 37.8008 276.86 37.9635 276.534 38.2891C276.202 38.6146 276.036 39.0312 276.036 39.5391C276.036 40.0469 276.202 40.4652 276.534 40.7939C276.863 41.126 277.301 41.292 277.848 41.292C278.121 41.292 278.368 41.2513 278.59 41.1699C278.814 41.0885 278.987 40.986 279.107 40.8623C279.332 40.6312 279.472 40.4163 279.527 40.2178L279.557 40.0908H280.445C280.445 40.4554 280.252 40.8607 279.864 41.3066C279.672 41.528 279.399 41.7135 279.044 41.8633C278.692 42.013 278.294 42.0879 277.848 42.0879C277.066 42.0879 276.423 41.8551 275.919 41.3896ZM286.5 42H285.362L282.603 39.5586V42H281.744V37.0977H282.603V39.4902L285.191 37.0977H286.314L283.692 39.5098L286.5 42ZM286.847 40.6279C286.847 40.1266 287.06 39.7555 287.486 39.5146C287.909 39.277 288.453 39.1582 289.117 39.1582C289.456 39.1582 289.768 39.1989 290.055 39.2803C290.354 39.3649 290.564 39.4447 290.685 39.5195L290.875 39.6416V38.8701C290.875 38.5381 290.753 38.2777 290.509 38.0889C290.265 37.8968 289.897 37.8008 289.405 37.8008C288.425 37.8008 287.935 38.0677 287.935 38.6016H287.076C287.079 38.0612 287.299 37.6592 287.735 37.3955C288.168 37.1318 288.725 37 289.405 37C290.089 37 290.647 37.1595 291.08 37.4785C291.513 37.8008 291.731 38.2646 291.734 38.8701V40.6523C291.734 40.8997 291.767 41.0723 291.832 41.1699C291.897 41.2643 292.004 41.3115 292.154 41.3115C292.284 41.3115 292.371 41.2936 292.413 41.2578L292.433 41.248V42.0195C292.332 42.0716 292.185 42.0977 291.993 42.0977C291.668 42.0977 291.427 42.0277 291.27 41.8877C291.147 41.7835 291.056 41.6745 290.997 41.5605L290.973 41.502H290.934C290.852 41.5833 290.769 41.6517 290.685 41.707C290.584 41.7754 290.473 41.8356 290.352 41.8877C290.033 42.0277 289.644 42.0977 289.185 42.0977C288.492 42.0977 287.929 41.9788 287.496 41.7412C287.063 41.5068 286.847 41.1357 286.847 40.6279ZM289.312 39.959C288.254 39.959 287.726 40.182 287.726 40.6279C287.726 41.0771 288.254 41.3018 289.312 41.3018C289.625 41.3018 289.91 41.2676 290.167 41.1992C290.421 41.1374 290.595 41.0788 290.689 41.0234C290.777 40.9779 290.839 40.9372 290.875 40.9014V40.3398C290.839 40.304 290.777 40.2633 290.689 40.2178C290.579 40.1657 290.406 40.1104 290.172 40.0518C289.921 39.9899 289.635 39.959 289.312 39.959ZM294.112 42H293.185L294.332 40.1592C294.225 40.1299 294.099 40.0745 293.956 39.9932C293.836 39.9248 293.728 39.8418 293.634 39.7441C293.533 39.6367 293.445 39.4886 293.37 39.2998C293.298 39.111 293.263 38.9108 293.263 38.6992C293.263 38.1686 293.445 37.7699 293.81 37.5029C294.177 37.2327 294.708 37.0977 295.401 37.0977H297.584V42H296.725V40.3008H295.182L294.112 42ZM294.439 38.0596C294.241 38.1995 294.142 38.4128 294.142 38.6992C294.142 38.9857 294.241 39.1989 294.439 39.3389C294.631 39.4788 294.952 39.5488 295.401 39.5488H296.725V37.8496H295.401C294.952 37.8496 294.631 37.9196 294.439 38.0596Z" fill="#4F4F4F"/>
<path d="M18.0538 177.275C17.3033 177.804 16.4 177.99 15.344 177.833C14.2912 177.676 13.4817 177.234 12.9154 176.508C12.3481 175.788 12.1436 174.898 12.3017 173.839C12.4593 172.783 12.915 171.99 13.6687 171.461C14.4252 170.935 15.3282 170.751 16.3778 170.908C17.4306 171.065 18.2403 171.505 18.8071 172.228C19.3734 172.954 19.5777 173.846 19.4201 174.902C19.262 175.961 18.8065 176.752 18.0538 177.275ZM18.5701 174.775C18.6864 173.996 18.5232 173.347 18.0803 172.83C17.6375 172.313 17.0217 171.996 16.2329 171.878C15.4409 171.76 14.7576 171.884 14.1831 172.249C13.6122 172.611 13.2684 173.183 13.1517 173.966C13.0349 174.748 13.1965 175.396 13.6366 175.909C14.0795 176.426 14.6969 176.744 15.4889 176.862C16.2777 176.98 16.9594 176.856 17.5339 176.491C18.1084 176.126 18.4538 175.554 18.5701 174.775ZM16.1516 168.223L15.8596 170.179L15.0869 170.063L15.7984 165.297L16.5711 165.412L16.2784 167.373L20.364 167.983L20.2275 168.831L16.1516 168.223ZM21.4818 160.428L21.3139 161.553L18.4919 163.922L20.9066 164.282L20.7797 165.132L15.9311 164.408L16.058 163.558L18.4243 163.911L16.44 160.999L16.6058 159.888L18.6044 162.837L21.4818 160.428ZM23.6997 159.13L23.5729 159.98L16.7443 158.961L16.8711 158.111L17.5955 158.219L17.6013 158.18C17.5198 158.109 17.4369 158.003 17.3526 157.862C17.2793 157.736 17.2152 157.603 17.1604 157.463C17.1038 157.313 17.0647 157.123 17.0431 156.892C17.0188 156.658 17.0237 156.427 17.0579 156.198C17.1669 155.468 17.4901 154.89 18.0272 154.467C18.5703 154.048 19.2153 153.894 19.9623 154.006C20.7156 154.118 21.2876 154.453 21.6781 155.012C22.0682 155.574 22.2087 156.22 22.0996 156.951C22.0246 157.453 21.867 157.848 21.6267 158.134C21.4148 158.386 21.2402 158.552 21.103 158.634L21.0011 158.688L20.9954 158.726L23.6997 159.13ZM21.0008 155.548C20.7242 155.174 20.3348 154.95 19.8325 154.875C19.3367 154.801 18.8987 154.902 18.5186 155.177C18.1439 155.46 17.9159 155.874 17.8347 156.418C17.753 156.965 17.8505 157.426 18.1271 157.8C18.4102 158.174 18.7996 158.399 19.2954 158.473C19.8106 158.55 20.2525 158.444 20.6212 158.157C20.9927 157.874 21.218 157.466 21.2973 156.935C21.379 156.388 21.2802 155.925 21.0008 155.548ZM23.3093 148.186L18.4607 147.462L18.5876 146.612L23.4362 147.336L23.3093 148.186ZM19.4606 151.744L19.6048 150.778C19.8216 149.326 20.4708 148.68 21.5525 148.842C22.6343 149.003 23.0668 149.81 22.8501 151.262L22.579 153.078L17.7304 152.354L17.8573 151.504L19.4606 151.744ZM22.0467 150.096C21.9334 149.885 21.7254 149.756 21.4228 149.711C21.1202 149.666 20.8839 149.728 20.7138 149.897C20.5429 150.072 20.4211 150.403 20.3485 150.889L20.2043 151.855L21.9622 152.117L22.1064 151.151C22.1789 150.665 22.159 150.313 22.0467 150.096ZM19.7863 143.873L19.4943 145.829L18.7217 145.714L19.4332 140.947L20.2059 141.063L19.9132 143.023L23.9987 143.633L23.8622 144.482L19.7863 143.873ZM23.8586 140.438C23.3232 140.871 22.6757 141.032 21.9158 140.918C21.1593 140.805 20.5867 140.463 20.198 139.892C19.8121 139.324 19.6769 138.654 19.7922 137.881C19.9066 137.115 20.2317 136.513 20.7675 136.076C21.3056 135.647 21.953 135.488 22.7095 135.601C23.4694 135.714 24.0422 136.055 24.4281 136.623C24.8131 137.197 24.9483 137.867 24.834 138.633C24.7186 139.406 24.3935 140.008 23.8586 140.438ZM23.7529 137.144C23.4763 136.77 23.0853 136.546 22.5798 136.47C22.0743 136.395 21.6347 136.495 21.261 136.772C20.8906 137.049 20.6649 137.458 20.5842 137.999C20.503 138.543 20.5993 139 20.8732 139.37C21.1461 139.747 21.5369 139.973 22.0456 140.049C22.5543 140.125 22.9941 140.023 23.3651 139.742C23.7388 139.466 23.966 139.057 24.0468 138.516C24.1266 137.982 24.0286 137.524 23.7529 137.144ZM23.6669 129.188L24.0682 129.277L23.4144 133.657C23.6913 133.699 24.0055 133.578 24.3572 133.295C24.7116 133.015 24.9296 132.602 25.0113 132.054C25.0714 131.652 25.045 131.311 24.9321 131.03C24.8351 130.799 24.7413 130.633 24.6507 130.534L24.5889 130.486L24.7381 129.486C24.7835 129.512 24.8303 129.541 24.8785 129.571C24.9463 129.624 25.0488 129.72 25.186 129.859C25.3315 130.009 25.4561 130.177 25.5599 130.364C25.6614 130.544 25.7404 130.797 25.7968 131.125C25.8556 131.437 25.8562 131.786 25.7985 132.172C25.6788 132.974 25.3532 133.59 24.8215 134.021C24.2889 134.458 23.6394 134.619 22.8732 134.505C22.1134 134.391 21.5408 134.049 21.1554 133.478C20.7695 132.91 20.6342 132.24 20.7495 131.468C20.8639 130.701 21.189 130.1 21.7248 129.663C22.2597 129.233 22.9071 129.074 23.6669 129.188ZM22.1921 130.37C21.8381 130.646 21.6213 131.051 21.5415 131.586C21.4608 132.127 21.5498 132.578 21.8085 132.939C22.0668 133.303 22.3441 133.508 22.6402 133.552L23.1658 130.031C22.8696 129.987 22.545 130.1 22.1921 130.37ZM25.9933 124.914L26.291 122.919L22.2151 122.311L22.3427 121.456L26.4186 122.065L26.7163 120.07L22.6404 119.462L22.7673 118.612L27.6159 119.336L26.6391 125.879L21.7905 125.156L21.9173 124.306L25.9933 124.914ZM27.3261 117.209C26.7907 117.642 26.1431 117.803 25.3833 117.689C24.6267 117.576 24.0541 117.234 23.6655 116.663C23.2796 116.095 23.1443 115.425 23.2597 114.652C23.374 113.886 23.6991 113.284 24.235 112.847C24.7731 112.418 25.4204 112.259 26.177 112.372C26.9369 112.485 27.5097 112.826 27.8956 113.394C28.2805 113.968 28.4158 114.638 28.3014 115.404C28.1861 116.177 27.861 116.779 27.3261 117.209ZM27.2204 113.915C26.9438 113.541 26.5527 113.317 26.0473 113.241C25.5418 113.166 25.1022 113.266 24.7285 113.543C24.358 113.82 24.1324 114.229 24.0517 114.77C23.9704 115.314 24.0668 115.771 24.3407 116.141C24.6136 116.518 25.0044 116.744 25.5131 116.82C26.0218 116.896 26.4616 116.794 26.8326 116.513C27.2063 116.237 27.4335 115.828 27.5143 115.287C27.594 114.753 27.4961 114.295 27.2204 113.915ZM28.2738 110.794C27.7384 111.228 27.0908 111.388 26.331 111.274C25.5712 111.161 25.0002 110.819 24.618 110.248C24.2348 109.684 24.1012 109.014 24.217 108.239C24.2828 107.797 24.4158 107.414 24.6158 107.089C24.8204 106.754 25.0427 106.51 25.2826 106.359C25.7809 106.041 26.2135 105.91 26.5805 105.965L26.4493 106.844C26.3061 106.855 26.1611 106.89 26.0143 106.947C25.8639 107.007 25.7292 107.082 25.6103 107.173C25.4761 107.278 25.3522 107.435 25.2386 107.646C25.1254 107.852 25.0489 108.09 25.009 108.357C24.9278 108.901 25.0241 109.358 25.298 109.728C25.5709 110.104 25.9585 110.33 26.4608 110.405C26.963 110.48 27.4013 110.378 27.7754 110.098C28.1524 109.822 28.3812 109.413 28.462 108.872C28.5023 108.602 28.4986 108.351 28.4508 108.12C28.4035 107.886 28.3275 107.7 28.223 107.563C28.0275 107.307 27.8357 107.136 27.6475 107.052L27.5263 107.005L27.6575 106.126C28.018 106.179 28.3903 106.431 28.7742 106.88C28.9647 107.102 29.1079 107.4 29.2036 107.773C29.2998 108.143 29.315 108.549 29.2491 108.99C29.1338 109.762 28.8087 110.364 28.2738 110.794ZM29.2167 104.477C28.6813 104.911 28.0338 105.071 27.274 104.958C26.5141 104.844 25.9431 104.502 25.5609 103.932C25.1778 103.368 25.0441 102.698 25.1599 101.922C25.2258 101.481 25.3587 101.097 25.5587 100.772C25.7634 100.437 25.9856 100.194 26.2255 100.042C26.7238 99.7247 27.1564 99.5934 27.5235 99.6482L27.3923 100.527C27.249 100.539 27.104 100.573 26.9573 100.63C26.8068 100.69 26.6721 100.765 26.5532 100.856C26.4191 100.961 26.2952 101.119 26.1815 101.329C26.0683 101.536 25.9918 101.773 25.9519 102.04C25.8707 102.584 25.967 103.041 26.2409 103.411C26.5139 103.788 26.9015 104.013 27.4037 104.088C27.906 104.163 28.3442 104.061 28.7184 103.781C29.0953 103.505 29.3241 103.096 29.4049 102.555C29.4453 102.285 29.4415 102.034 29.3937 101.803C29.3464 101.569 29.2705 101.383 29.1659 101.246C28.9705 100.99 28.7786 100.82 28.5904 100.736L28.4692 100.688L28.6004 99.809C28.961 99.8628 29.3332 100.114 29.7171 100.563C29.9077 100.786 30.0508 101.084 30.1465 101.457C30.2427 101.826 30.2579 102.232 30.1921 102.673C30.0767 103.446 29.7516 104.047 29.2167 104.477ZM29.0202 93.3253L29.4216 93.4148L28.7677 97.795C29.0446 97.8364 29.3589 97.7154 29.7105 97.4322C30.0649 97.1527 30.283 96.7393 30.3647 96.1919C30.4248 95.7895 30.3984 95.4482 30.2855 95.168C30.1884 94.9363 30.0946 94.7709 30.0041 94.6718L29.9423 94.6231L30.0915 93.6235C30.1369 93.65 30.1837 93.6784 30.2318 93.7086C30.2996 93.7615 30.4021 93.8574 30.5394 93.9964C30.6848 94.1465 30.8094 94.3148 30.9132 94.5015C31.0148 94.6812 31.0937 94.9349 31.1501 95.2626C31.209 95.5741 31.2095 95.9231 31.1519 96.3094C31.0322 97.1111 30.7065 97.7273 30.1749 98.1581C29.6422 98.5953 28.9928 98.7568 28.2265 98.6424C27.4667 98.529 26.8941 98.1868 26.5087 97.6158C26.1228 97.048 25.9875 96.3778 26.1029 95.6051C26.2172 94.8389 26.5423 94.2374 27.0782 93.8006C27.6131 93.3703 28.2604 93.2119 29.0202 93.3253ZM27.5454 94.5072C27.1915 94.7835 26.9746 95.1889 26.8949 95.7233C26.8141 96.2642 26.9031 96.7153 27.1619 97.0764C27.4202 97.4408 27.6974 97.6451 27.9936 97.6893L28.5191 94.1688C28.2229 94.1246 27.8984 94.2374 27.5454 94.5072Z" fill="#4F4F4F"/>
<path d="M263.102 110.646H302.482V165.248H263.102V110.646Z" fill="#9F9DBA" fill-opacity="0.2"/>
<path d="M341.867 67.9706V62.834H309.16V73.1072H318.369V92.2345H351.196V67.9706H341.867Z" fill="#9F9DBA" fill-opacity="0.2"/>
<path fill-rule="evenodd" clip-rule="evenodd" d="M108.66 198.5H113.66V168H160.66V215.5H108.66V198.5ZM123.16 174H140.16V183.5H151.16V206H123.16V174Z" fill="#9F9DBA" fill-opacity="0.2"/>
<path d="M113.82 106.244V153.285H160.625V106.244H113.82ZM128.32 112.459H151.08V138.672H143.771V145.979H129.219V143.992H123.006V123.104H128.32V112.459Z" fill="#9F9DBA" fill-opacity="0.2"/>
<path d="M187.551 168.1C187.551 168.1 187.551 199.289 187.551 215.4V215.402H197.779V215.4H212.254V215.371L239.582 215.338V215.4L245.605 215.33L249.174 215.326V205.746H249.166L249.146 182.361H249.174C249.138 177.607 249.138 172.854 249.135 168.1H249.104H187.551ZM239.582 182.379V205.758L212.254 205.793V198.635H197.779V182.455L239.582 182.379Z" fill="#9F9DBA"/>
<path d="M187.551 106.244V153.994H249.174V106.281L187.551 106.244ZM234.535 112.744H240.303V137.734H227.51V145.98H197.99V115.621H234.535V112.744Z" fill="#9F9DBA" fill-opacity="0.2"/>
<path d="M173.033 66.5107H199.425V83.3123H173.031L173.033 66.5107Z" fill="#9F9DBA" fill-opacity="0.2"/>
<path d="M221.9 66.5107H248.295V83.3123H221.9V66.5107Z" fill="#9F9DBA" fill-opacity="0.2"/>
<path d="M269.591 66.5107H295.984V83.3123H269.59L269.591 66.5107Z" fill="#9F9DBA" fill-opacity="0.2"/>
<path d="M311.975 103.384V191.4H339.093V172.58H326.943V118.202H338.202V123.092H359.689V113.163H353.762V103.384H311.975Z" fill="#9F9DBA" fill-opacity="0.2"/>
<path d="M370.505 131.686H349.441V148.487H370.505V131.686Z" fill="#9F9DBA" fill-opacity="0.2"/>
<path d="M311.975 218.417V203.375H372.653V161.518H365.318V152.033H383.989V156.477H387.695V218.417H311.975Z" fill="#9F9DBA" fill-opacity="0.2"/>
</svg>
