<svg xmlns="http://www.w3.org/2000/svg" width="153" height="66" viewBox="0 0 153 66" fill="none"><script xmlns="" id="eppiocemhmnlbhjplcgkofciiegomcon"/><script xmlns=""/><script xmlns=""/>
    <rect width="153" height="66" fill="#754ABC"/>
    <path d="M24.815 30.294C22.701 30.294 20.902 29.965 19.418 29.307C17.934 28.635 16.814 27.725 16.058 26.577C15.316 25.415 14.945 24.106 14.945 22.65C14.945 21.194 15.316 19.892 16.058 18.744C16.814 17.582 17.934 16.672 19.418 16.014C20.902 15.342 22.701 15.006 24.815 15.006C26.929 15.006 28.728 15.342 30.212 16.014C31.696 16.672 32.809 17.582 33.551 18.744C34.307 19.892 34.685 21.194 34.685 22.65C34.685 24.106 34.307 25.415 33.551 26.577C32.809 27.725 31.696 28.635 30.212 29.307C28.728 29.965 26.929 30.294 24.815 30.294ZM24.815 26.619C25.977 26.619 26.957 26.451 27.755 26.115C28.553 25.765 29.148 25.289 29.54 24.687C29.946 24.085 30.149 23.406 30.149 22.65C30.149 21.894 29.946 21.215 29.54 20.613C29.148 20.011 28.553 19.542 27.755 19.206C26.957 18.856 25.977 18.681 24.815 18.681C23.653 18.681 22.673 18.856 21.875 19.206C21.077 19.542 20.475 20.011 20.069 20.613C19.677 21.215 19.481 21.894 19.481 22.65C19.481 23.406 19.677 24.085 20.069 24.687C20.475 25.289 21.077 25.765 21.875 26.115C22.673 26.451 23.653 26.619 24.815 26.619ZM48.8867 29.244V25.758H49.4327C50.4127 25.758 51.2317 25.625 51.8897 25.359C52.5477 25.093 53.0377 24.729 53.3597 24.267C53.6817 23.791 53.8427 23.252 53.8427 22.65C53.8427 21.726 53.4717 20.977 52.7297 20.403C51.9877 19.829 50.8887 19.542 49.4327 19.542H48.8867V16.056H49.3487C51.3227 16.056 52.9747 16.343 54.3047 16.917C55.6487 17.477 56.6497 18.254 57.3077 19.248C57.9657 20.228 58.2947 21.362 58.2947 22.65C58.2947 23.938 57.9657 25.079 57.3077 26.073C56.6497 27.053 55.6487 27.83 54.3047 28.404C52.9747 28.964 51.3227 29.244 49.3487 29.244H48.8867ZM45.4007 29.244C43.4267 29.244 41.7677 28.964 40.4237 28.404C39.0937 27.83 38.0997 27.053 37.4417 26.073C36.7977 25.079 36.4757 23.938 36.4757 22.65C36.4757 21.362 36.7977 20.228 37.4417 19.248C38.0997 18.254 39.0937 17.477 40.4237 16.917C41.7677 16.343 43.4267 16.056 45.4007 16.056H45.8627V19.542H45.3167C44.3367 19.542 43.5177 19.675 42.8597 19.941C42.2017 20.207 41.7117 20.578 41.3897 21.054C41.0817 21.516 40.9277 22.048 40.9277 22.65C40.9277 23.574 41.2987 24.323 42.0407 24.897C42.7827 25.471 43.8747 25.758 45.3167 25.758H45.8627V29.244H45.4007ZM45.1067 30.672V27.858L45.3587 27.837V17.463L45.1067 17.442V14.628H49.6427V17.442L49.3907 17.463V27.837L49.6427 27.858V30.672H45.1067ZM60.6292 30V15.3H64.9972V23.028C64.9972 23.938 64.9412 24.722 64.8292 25.38C64.7172 26.038 64.5562 26.675 64.3462 27.291H64.7242L70.9612 15.3H77.9962V30H73.6492V22.272C73.6492 21.362 73.7052 20.578 73.8172 19.92C73.9292 19.262 74.0902 18.625 74.3002 18.009H73.9012L67.6852 30H60.6292ZM90.1905 30.294C88.1185 30.294 86.3475 29.965 84.8775 29.307C83.4215 28.635 82.3225 27.725 81.5805 26.577C80.8385 25.415 80.4675 24.106 80.4675 22.65C80.4675 21.194 80.8385 19.892 81.5805 18.744C82.3225 17.582 83.4215 16.672 84.8775 16.014C86.3475 15.342 88.1185 15.006 90.1905 15.006C92.1365 15.006 93.8095 15.279 95.2095 15.825C96.6095 16.371 97.7015 17.113 98.4855 18.051C99.2695 18.989 99.7525 20.053 99.9345 21.243H95.3985C95.2865 20.809 95.0275 20.396 94.6215 20.004C94.2295 19.612 93.6625 19.297 92.9205 19.059C92.1785 18.807 91.2685 18.681 90.1905 18.681C89.0705 18.681 88.1185 18.856 87.3345 19.206C86.5645 19.542 85.9835 20.011 85.5915 20.613C85.1995 21.215 85.0035 21.894 85.0035 22.65C85.0035 23.406 85.1995 24.085 85.5915 24.687C85.9835 25.289 86.5645 25.765 87.3345 26.115C88.1185 26.451 89.0705 26.619 90.1905 26.619C91.2685 26.619 92.1785 26.5 92.9205 26.262C93.6625 26.01 94.2295 25.688 94.6215 25.296C95.0275 24.904 95.2865 24.491 95.3985 24.057H99.9345C99.7525 25.261 99.2695 26.332 98.4855 27.27C97.7015 28.194 96.6095 28.929 95.2095 29.475C93.8095 30.021 92.1365 30.294 90.1905 30.294ZM15.512 51V36.3H32.354V51H27.818V40.038H20.048V51H15.512ZM35.3841 51V36.3H44.9601C46.3601 36.3 47.5291 36.517 48.4671 36.951C49.4191 37.371 50.1261 37.973 50.5881 38.757C51.0501 39.527 51.2811 40.451 51.2811 41.529C51.2811 42.607 51.0501 43.538 50.5881 44.322C50.1261 45.092 49.4191 45.694 48.4671 46.128C47.5291 46.548 46.3601 46.758 44.9601 46.758H38.5341V43.188H44.7501C45.1841 43.188 45.5481 43.118 45.8421 42.978C46.1501 42.838 46.3741 42.649 46.5141 42.411C46.6681 42.159 46.7451 41.865 46.7451 41.529C46.7451 41.193 46.6681 40.906 46.5141 40.668C46.3741 40.416 46.1501 40.22 45.8421 40.08C45.5481 39.94 45.1841 39.87 44.7501 39.87H39.6681V45.75L39.9201 45.771V51H35.3841ZM62.8775 51.294C60.7635 51.294 58.9645 50.965 57.4805 50.307C55.9965 49.635 54.8765 48.725 54.1205 47.577C53.3785 46.415 53.0075 45.106 53.0075 43.65C53.0075 42.194 53.3785 40.892 54.1205 39.744C54.8765 38.582 55.9965 37.672 57.4805 37.014C58.9645 36.342 60.7635 36.006 62.8775 36.006C64.9915 36.006 66.7905 36.342 68.2745 37.014C69.7585 37.672 70.8715 38.582 71.6135 39.744C72.3695 40.892 72.7475 42.194 72.7475 43.65C72.7475 45.106 72.3695 46.415 71.6135 47.577C70.8715 48.725 69.7585 49.635 68.2745 50.307C66.7905 50.965 64.9915 51.294 62.8775 51.294ZM62.8775 47.619C64.0395 47.619 65.0195 47.451 65.8175 47.115C66.6155 46.765 67.2105 46.289 67.6025 45.687C68.0085 45.085 68.2115 44.406 68.2115 43.65C68.2115 42.894 68.0085 42.215 67.6025 41.613C67.2105 41.011 66.6155 40.542 65.8175 40.206C65.0195 39.856 64.0395 39.681 62.8775 39.681C61.7155 39.681 60.7355 39.856 59.9375 40.206C59.1395 40.542 58.5375 41.011 58.1315 41.613C57.7395 42.215 57.5435 42.894 57.5435 43.65C57.5435 44.406 57.7395 45.085 58.1315 45.687C58.5375 46.289 59.1395 46.765 59.9375 47.115C60.7355 47.451 61.7155 47.619 62.8775 47.619ZM73.1934 54.507V47.346H74.0964C74.6424 47.346 75.0764 47.185 75.3984 46.863C75.7204 46.541 75.9164 46.058 75.9864 45.414L77.0574 36.3H91.2324V47.346H93.4584V54.507H89.1114V51H77.5614V54.507H73.1934ZM78.0444 47.64V47.346H86.8854V39.954H80.9634L80.4384 44.931C80.3404 45.855 80.1024 46.541 79.7244 46.989C79.3604 47.423 78.8004 47.64 78.0444 47.64ZM93.6553 51L100.312 36.3H105.667L112.345 51H107.536L104.029 42.6C103.707 41.802 103.483 41.144 103.357 40.626C103.245 40.108 103.189 39.597 103.189 39.093V39.009H102.811V39.093C102.811 39.597 102.748 40.108 102.622 40.626C102.51 41.144 102.293 41.802 101.971 42.6L98.4643 51H93.6553ZM97.6663 48.858L98.9893 45.393H107.011L108.334 48.858H97.6663ZM132.323 51L126.527 43.44L132.092 36.3H137.363L130.412 44.763V41.928L137.783 51H132.323ZM111.869 51L119.24 41.928V44.763L112.289 36.3H117.56L123.125 43.44L117.329 51H111.869ZM122.642 51V36.3H127.01V51H122.642Z" fill="#FCF9EE"/>
</svg>