<svg width="309" height="164" viewBox="0 0 309 164" fill="none" xmlns="http://www.w3.org/2000/svg">
<g clip-path="url(#clip0_579_29974)">
<mask id="mask0_579_29974" style="mask-type:luminance" maskUnits="userSpaceOnUse" x="6" y="0" width="303" height="164">
<path d="M6.45312 0.851929H308.17V163.156H6.45442L6.45312 0.851929Z" fill="white"/>
</mask>
<g mask="url(#mask0_579_29974)">
<path d="M269.758 21.8926L354.351 22.1477V14.9333H131.438C131.438 14.9333 155.275 5.71608 178.73 -18.3568L181.309 -21.4865L172.163 -21.8235L169.115 -18.3568C169.115 -18.3568 136.853 10.972 111.651 15.3223L36.8875 15.4603C36.1113 15.4617 35.3435 15.2986 34.6346 14.9817C33.9257 14.6648 33.2916 14.2012 32.774 13.6213C32.2563 13.0414 31.8669 12.3584 31.6311 11.617C31.3953 10.8756 31.3185 10.0926 31.4058 9.31937L34.8638 -20.2489H29.7573L26.8756 5.06282C26.7843 5.65635 26.542 6.21631 26.1722 6.68876C25.8024 7.16122 25.3176 7.53027 24.7642 7.76038C24.2108 7.99044 23.6077 8.07388 23.0129 8.00251C22.4181 7.93122 21.8517 7.70754 21.3681 7.35312L-6.76958 -13.218L-8.45312 -9.89832L14.8519 7.82553C22.8712 13.0073 24.4613 18.2568 23.3398 24.723L20.9774 44.9466L13.9083 87.3475L-0.231346 201.827H11.6185C11.6185 201.827 14.2444 143.703 29.0577 112.561C43.8683 81.4184 49.5654 79.8232 49.5654 79.8232C49.5654 79.8232 58.9918 78.2227 58.7673 87.3475L58.7711 136.974V137.602C58.771 139.398 59.1237 141.177 59.8091 142.836C60.4945 144.495 61.4993 146.003 62.7661 147.274C64.0328 148.543 65.5366 149.551 67.1917 150.238C68.8468 150.926 70.6207 151.279 72.4123 151.279H291.35C292.999 151.28 294.581 151.937 295.747 153.106C296.912 154.275 297.568 155.861 297.568 157.514V192.828H303.929V137.873C303.929 137.873 306.173 107.273 291.21 87.0232L277.146 64.9725C277.146 64.9725 269.814 50.8351 267.943 38.0289L266.969 24.6787C266.97 23.9397 267.264 23.2312 267.785 22.709C268.306 22.1868 269.014 21.8936 269.751 21.8939L269.758 21.8926ZM57.943 57.49C57.943 57.49 35.0533 82.8223 29.3666 96.9248C29.3666 96.9248 21.7367 108.625 13.3358 140.44L21.7367 84.7743L29.068 39.023L29.8027 34.1666C30.3068 30.8391 31.9802 27.8016 34.5212 25.6019C37.0621 23.4022 40.3034 22.185 43.6606 22.1698L107.471 21.8913C107.471 21.8913 76.9461 36.9592 57.943 57.49Z" stroke="#4F4F4F" stroke-width="0.25" stroke-miterlimit="10"/>
</g>
<path d="M30.3352 132.214L30.3379 131.835L29.9575 131.832L29.9565 132.213L30.3352 132.214ZM30.2547 161.895L29.876 161.893L29.875 162.271L30.2522 162.274L30.2547 161.895ZM40.5261 161.961L40.5236 162.34H40.5261V161.961ZM52.5473 161.961V162.34H52.9259V161.961H52.5473ZM52.5473 128.963H52.9259V128.584H52.5473V128.963ZM46.118 128.963V128.584H45.7622L45.7401 128.94L46.118 128.963ZM46.0155 130.614L46.0068 130.993L46.3708 131.002L46.3935 130.637L46.0155 130.614ZM37.3757 130.413L37.3845 130.034L36.9863 130.025L36.9972 130.423L37.3757 130.413ZM37.4263 132.266L37.4236 132.646L37.8156 132.649L37.8049 132.256L37.4263 132.266ZM62.7505 132.078L63.1265 132.123C63.1282 132.109 63.1292 132.094 63.1292 132.078H62.7505ZM62.7505 75.9404H63.1292C63.1292 75.9168 63.127 75.8932 63.1226 75.8701L62.7505 75.9404ZM102.092 32.3594L101.91 32.0269L101.906 32.0291L102.092 32.3594ZM116.527 25.184L116.647 25.5442L116.647 25.544L116.527 25.184ZM131.54 21.8318L131.459 22.2026C131.485 22.2085 131.513 22.2115 131.54 22.2115V21.8318ZM167.227 21.8267L167.228 21.447H167.227V21.8267ZM241.436 21.9112L241.436 22.2909H241.439L241.436 21.9112ZM252.371 21.8267L252.432 21.452C252.411 21.4486 252.389 21.4469 252.368 21.447L252.371 21.8267ZM260.032 28.4074L260.407 28.3564C260.404 28.3336 260.399 28.3112 260.392 28.2894L260.032 28.4074ZM265.717 56.0836L266.069 55.9431L266.068 55.9411L265.717 56.0836ZM276.153 76.9175L276.473 76.7163C276.453 76.6837 276.428 76.6548 276.4 76.6298L276.153 76.9175ZM284.595 90.4339L284.92 90.2387L284.916 90.2327L284.595 90.4339ZM289.244 98.2125L289.581 98.0394C289.577 98.0318 289.574 98.0242 289.569 98.0173L289.244 98.2125ZM292.518 104.621L292.883 104.518C292.876 104.494 292.867 104.47 292.855 104.448L292.518 104.621ZM295.166 114.076L295.539 114.007C295.536 113.995 295.533 113.985 295.53 113.974L295.166 114.076ZM297.025 139.537L297.39 139.637C297.399 139.606 297.403 139.574 297.403 139.542L297.025 139.537ZM285.393 146.591L285.433 146.214C285.42 146.212 285.407 146.211 285.393 146.211V146.591ZM69.9312 146.591L69.9216 146.971H69.9312V146.591ZM29.9565 132.213L29.876 161.893L30.6333 161.895L30.7138 132.215L29.9565 132.213ZM30.2522 162.274L40.5236 162.34L40.5285 161.581L30.2571 161.515L30.2522 162.274ZM40.5261 162.34H52.5473V161.581H40.5261V162.34ZM52.9259 161.961V128.963H52.1686V161.961H52.9259ZM52.5473 128.584H46.118V129.343H52.5473V128.584ZM45.7401 128.94L45.6376 130.59L46.3935 130.637L46.4959 128.987L45.7401 128.94ZM46.0243 130.234L37.3845 130.034L37.367 130.792L46.0068 130.993L46.0243 130.234ZM36.9972 130.423L37.0478 132.277L37.8049 132.256L37.7543 130.403L36.9972 130.423ZM37.4291 131.886L30.3379 131.835L30.3324 132.594L37.4236 132.646L37.4291 131.886ZM63.1292 132.078V75.9404H62.3718V132.078H63.1292ZM62.7505 75.9404C63.1226 75.8701 63.1226 75.87 63.1226 75.8701C63.1226 75.8701 63.1226 75.8702 63.1226 75.8701C63.1226 75.87 63.1226 75.8698 63.1225 75.8694C63.1223 75.8684 63.122 75.8666 63.1215 75.8641C63.1206 75.8591 63.1192 75.8512 63.1174 75.8404C63.1137 75.8187 63.1082 75.7854 63.1014 75.7409C63.0878 75.652 63.069 75.5183 63.0488 75.3435C63.0085 74.994 62.9629 74.48 62.943 73.8302C62.9032 72.5301 62.9666 70.6881 63.3804 68.5302C64.2075 64.218 66.4346 58.6399 72.0505 53.5932L71.5451 53.0278C65.7863 58.2029 63.4897 63.9397 62.6367 68.3869C62.2106 70.6087 62.1449 72.5076 62.186 73.8535C62.2066 74.5266 62.254 75.0618 62.2965 75.4308C62.3177 75.6152 62.3379 75.7581 62.3528 75.8559C62.3602 75.9048 62.3664 75.9426 62.3709 75.9685C62.3731 75.9814 62.3748 75.9912 62.3761 75.9981C62.3767 76.0019 62.3773 76.0049 62.3776 76.0064C62.3778 76.0079 62.3779 76.0087 62.378 76.0095C62.3781 76.0095 62.3782 76.0095 62.3782 76.0102C62.3782 76.0102 62.3783 76.0102 62.7505 75.9404ZM72.0505 53.5932C77.7155 48.5036 85.2686 43.279 91.4161 39.3217C94.4871 37.3444 97.2045 35.686 99.1524 34.5219C100.127 33.94 100.909 33.4817 101.447 33.1689C101.717 33.0126 101.925 32.8927 102.066 32.8119C102.136 32.7715 102.189 32.7409 102.226 32.7205C102.243 32.7103 102.257 32.7026 102.266 32.6974C102.27 32.6949 102.273 32.693 102.276 32.6917C102.277 32.6911 102.278 32.6906 102.279 32.6903C102.279 32.6901 102.279 32.6904 102.279 32.6903C102.28 32.6903 102.28 32.6898 102.092 32.3594C101.906 32.0291 101.906 32.0289 101.906 32.0291C101.906 32.0291 101.905 32.0294 101.905 32.0296C101.905 32.0299 101.904 32.0304 101.902 32.0311C101.9 32.0325 101.897 32.0345 101.893 32.0371C101.883 32.0423 101.869 32.0502 101.851 32.0606C101.815 32.0814 101.761 32.1123 101.69 32.153C101.547 32.2344 101.338 32.3549 101.068 32.512C100.527 32.8261 99.7424 33.2859 98.7654 33.8697C96.8107 35.037 94.0865 36.7 91.0063 38.6828C84.8506 42.646 77.2558 47.8969 71.5451 53.0278L72.0505 53.5932ZM102.092 32.3594C102.276 32.692 102.276 32.6918 102.276 32.6917C102.277 32.6915 102.277 32.6913 102.277 32.6909C102.279 32.6902 102.28 32.6892 102.283 32.6877C102.289 32.6849 102.296 32.6807 102.306 32.675C102.326 32.6637 102.357 32.647 102.397 32.6252C102.476 32.5813 102.594 32.5169 102.745 32.4344C103.046 32.2694 103.481 32.0322 104.015 31.7439C105.082 31.1671 106.542 30.3854 108.116 29.5659C111.277 27.92 114.857 26.1424 116.647 25.5442L116.407 24.8239C114.549 25.445 110.911 27.2551 107.767 28.8921C106.188 29.714 104.724 30.4976 103.656 31.0756C103.121 31.3646 102.685 31.6024 102.382 31.7679C102.23 31.8506 102.113 31.9153 102.033 31.9594C101.992 31.9815 101.962 31.9983 101.942 32.0096C101.931 32.0153 101.924 32.0196 101.918 32.0225C101.915 32.024 101.914 32.025 101.912 32.0258C101.911 32.0262 101.911 32.0265 101.911 32.0266C101.911 32.0267 101.91 32.0269 101.91 32.0269C101.91 32.027 101.91 32.0269 102.092 32.3594ZM116.527 25.184C116.647 25.544 116.647 25.544 116.647 25.544C116.648 25.5439 116.649 25.5436 116.65 25.5434C116.65 25.5429 116.653 25.5422 116.656 25.5413C116.661 25.5394 116.67 25.5365 116.681 25.5328C116.703 25.5252 116.737 25.5141 116.781 25.4995C116.869 25.4704 116.999 25.4278 117.165 25.3736C117.497 25.2653 117.976 25.1114 118.56 24.9285C119.727 24.563 121.316 24.0827 122.997 23.6234C124.68 23.1638 126.45 22.7271 127.984 22.447C128.751 22.3069 129.453 22.2071 130.053 22.1625C130.659 22.1174 131.134 22.131 131.459 22.2026L131.622 21.4611C131.188 21.3656 130.626 21.3584 129.997 21.4053C129.362 21.4526 128.631 21.5571 127.849 21.6999C126.284 21.9857 124.49 22.4288 122.798 22.8908C121.105 23.3532 119.508 23.8364 118.334 24.2038C117.747 24.3876 117.265 24.5425 116.931 24.6515C116.763 24.706 116.633 24.7491 116.544 24.7785C116.499 24.7932 116.465 24.8046 116.442 24.8123C116.431 24.8161 116.422 24.8191 116.416 24.821C116.413 24.822 116.411 24.8227 116.409 24.8232C116.409 24.8235 116.408 24.8238 116.407 24.8239C116.407 24.8238 116.407 24.824 116.407 24.8239C116.407 24.8239 116.406 24.8241 116.527 25.184ZM131.54 22.2115L167.227 22.2063V21.447L131.54 21.4522V22.2115ZM167.227 22.2063L241.436 22.2909L241.436 21.5316L167.228 21.447L167.227 22.2063ZM241.439 22.2909L252.374 22.2063L252.368 21.447L241.433 21.5316L241.439 22.2909ZM252.31 22.2013C253.997 22.478 255.576 23.2142 256.874 24.3295L257.367 23.7529C255.964 22.5471 254.256 21.7512 252.432 21.452L252.31 22.2013ZM256.874 24.3295C258.173 25.4448 259.141 26.8962 259.672 28.5254L260.392 28.2894C259.817 26.528 258.771 24.9587 257.367 23.7529L256.874 24.3295ZM260.032 28.4074C259.657 28.4583 259.657 28.4584 259.657 28.4585C259.657 28.4583 259.657 28.4586 259.657 28.4585C259.657 28.4589 259.657 28.4599 259.657 28.4607C259.657 28.4622 259.657 28.4646 259.658 28.4676C259.659 28.4738 259.66 28.483 259.662 28.4952C259.665 28.5196 259.67 28.5558 259.676 28.6032C259.689 28.698 259.707 28.8372 259.731 29.0153C259.779 29.3713 259.845 29.8823 259.926 30.502C260.086 31.7412 260.297 33.4143 260.503 35.1502C260.708 36.8866 260.907 38.6837 261.042 40.1715C261.178 41.6775 261.245 42.8214 261.199 43.2832L261.954 43.3576C262.008 42.8082 261.93 41.5824 261.796 40.1026C261.66 38.6048 261.461 36.7999 261.255 35.0609C261.049 33.3213 260.837 31.6453 260.677 30.4043C260.597 29.7839 260.529 29.272 260.481 28.9152C260.458 28.7368 260.44 28.5971 260.427 28.5021C260.42 28.4545 260.416 28.4182 260.413 28.3936C260.41 28.3813 260.41 28.3721 260.409 28.3659C260.408 28.3627 260.408 28.3603 260.407 28.3588C260.407 28.358 260.407 28.3568 260.407 28.3564C260.407 28.3561 260.407 28.3564 260.407 28.3564C260.407 28.3563 260.407 28.3564 260.032 28.4074ZM261.199 43.2832C261.169 43.5977 261.226 44.0356 261.327 44.5256C261.429 45.0274 261.586 45.6241 261.777 46.2749C262.158 47.5771 262.685 49.1176 263.216 50.5895C263.748 52.0623 264.285 53.4712 264.689 54.5116C264.892 55.0318 265.061 55.4602 265.179 55.7586C265.239 55.9078 265.285 56.0245 265.317 56.104C265.333 56.1438 265.345 56.1743 265.354 56.1948C265.358 56.205 265.361 56.2128 265.363 56.2181C265.364 56.2207 265.365 56.2227 265.366 56.2241C265.366 56.2247 265.366 56.2252 265.366 56.2256C265.366 56.2255 265.366 56.2257 265.366 56.2256C265.366 56.2257 265.366 56.2261 265.717 56.0836C266.068 55.9411 266.068 55.9412 266.068 55.9411C266.068 55.941 266.068 55.9412 266.068 55.9411C266.068 55.9408 266.068 55.9399 266.068 55.9393C266.067 55.938 266.066 55.9361 266.065 55.9335C266.063 55.9284 266.06 55.9207 266.056 55.9106C266.048 55.8904 266.036 55.8603 266.02 55.8209C265.988 55.7421 265.942 55.6261 265.883 55.4776C265.765 55.1808 265.597 54.7541 265.395 54.2359C264.992 53.1991 264.458 51.7964 263.929 50.3312C263.4 48.865 262.878 47.3411 262.503 46.0606C262.315 45.42 262.165 44.8458 262.068 44.3732C261.97 43.8887 261.935 43.5486 261.954 43.3576L261.199 43.2832ZM265.717 56.0836C265.366 56.224 265.366 56.2239 265.366 56.2241C265.366 56.2242 265.366 56.2246 265.366 56.2249C265.366 56.2255 265.366 56.2263 265.367 56.2274C265.368 56.2297 265.369 56.233 265.371 56.2374C265.374 56.2461 265.379 56.2592 265.386 56.2763C265.4 56.3106 265.42 56.3615 265.447 56.4279C265.5 56.5608 265.579 56.7559 265.68 57.005C265.882 57.5033 266.174 58.2182 266.536 59.0848C267.258 60.8178 268.255 63.1588 269.355 65.5898C270.456 68.0196 271.662 70.5442 272.801 72.6425C273.37 73.6914 273.925 74.6386 274.444 75.416C274.959 76.1879 275.454 76.815 275.905 77.2053L276.4 76.6298C276.028 76.3086 275.579 75.7508 275.073 74.9936C274.572 74.2425 274.029 73.3173 273.466 72.2796C272.339 70.2045 271.142 67.6987 270.045 65.276C268.949 62.8542 267.954 60.5206 267.234 58.7922C266.874 57.9281 266.583 57.2154 266.381 56.719C266.281 56.4708 266.203 56.2767 266.149 56.1447C266.123 56.0787 266.103 56.0282 266.09 55.9942C266.083 55.9773 266.078 55.9645 266.075 55.9559C266.072 55.9516 266.071 55.9485 266.071 55.9463C266.07 55.9453 266.07 55.9437 266.069 55.9431C266.069 55.9429 266.069 55.9432 266.069 55.9431C266.069 55.943 266.069 55.9431 265.717 56.0836ZM275.831 77.1187L284.274 90.6358L284.916 90.2327L276.473 76.7163L275.831 77.1187ZM284.27 90.6298L288.919 98.4076L289.569 98.0173L284.92 90.2387L284.27 90.6298ZM288.907 98.3848L292.181 104.795L292.855 104.448L289.581 98.0394L288.907 98.3848ZM292.153 104.724L294.802 114.179L295.53 113.974L292.883 104.518L292.153 104.724ZM295.166 114.076C294.794 114.146 294.794 114.146 294.794 114.146V114.148C294.794 114.149 294.795 114.152 294.796 114.154C294.796 114.159 294.798 114.167 294.799 114.177C294.803 114.197 294.809 114.228 294.816 114.267C294.831 114.347 294.852 114.463 294.88 114.612C294.935 114.911 295.014 115.34 295.108 115.861C295.296 116.905 295.547 118.318 295.798 119.799C296.049 121.28 296.3 122.826 296.488 124.136C296.677 125.457 296.798 126.508 296.798 127.016H297.555C297.555 126.443 297.425 125.336 297.237 124.028C297.048 122.708 296.797 121.155 296.544 119.671C296.293 118.187 296.041 116.771 295.853 115.726C295.758 115.204 295.68 114.774 295.625 114.475C295.598 114.325 295.576 114.209 295.561 114.129C295.554 114.089 295.548 114.058 295.544 114.038C295.542 114.028 295.541 114.019 295.54 114.014C295.539 114.012 295.539 114.01 295.539 114.009C295.539 114.008 295.539 114.007 295.539 114.007C295.539 114.007 295.539 114.007 295.539 114.007C295.539 114.007 295.539 114.007 295.166 114.076ZM296.798 127.016C296.798 128.095 296.76 131.221 296.722 134.083C296.703 135.512 296.684 136.874 296.67 137.879C296.663 138.381 296.657 138.794 296.653 139.082C296.65 139.225 296.649 139.338 296.648 139.414C296.647 139.452 296.647 139.481 296.647 139.501C296.647 139.511 296.647 139.518 296.647 139.524C296.647 139.526 296.647 139.528 296.646 139.529C296.646 139.53 296.646 139.53 296.646 139.531C296.646 139.531 296.646 139.531 297.025 139.537C297.403 139.542 297.403 139.542 297.403 139.542C297.403 139.542 297.403 139.542 297.403 139.541C297.403 139.54 297.403 139.537 297.403 139.534C297.404 139.53 297.404 139.522 297.404 139.512C297.404 139.493 297.405 139.464 297.405 139.425C297.406 139.349 297.408 139.237 297.41 139.093C297.414 138.806 297.42 138.392 297.427 137.89C297.441 136.885 297.461 135.522 297.48 134.093C297.518 131.234 297.555 128.101 297.555 127.016H296.798ZM297.025 139.537C296.659 139.436 296.659 139.436 296.659 139.436C296.659 139.436 296.659 139.437 296.659 139.439C296.658 139.442 296.656 139.446 296.655 139.452C296.651 139.465 296.645 139.486 296.637 139.513C296.619 139.567 296.593 139.648 296.556 139.752C296.481 139.96 296.363 140.259 296.191 140.617C295.849 141.333 295.298 142.276 294.465 143.187C292.808 144.997 290.016 146.706 285.433 146.214L285.353 146.968C290.195 147.489 293.219 145.672 295.022 143.7C295.919 142.721 296.508 141.71 296.875 140.945C297.057 140.562 297.185 140.239 297.268 140.01C297.309 139.896 297.339 139.805 297.359 139.741C297.369 139.709 297.377 139.684 297.381 139.667C297.384 139.658 297.386 139.651 297.387 139.646C297.388 139.644 297.389 139.641 297.389 139.64C297.39 139.639 297.39 139.638 297.39 139.638C297.39 139.638 297.39 139.638 297.39 139.638C297.39 139.637 297.39 139.637 297.025 139.537ZM285.393 146.211H69.9312V146.971H285.393V146.211ZM69.9312 146.591C69.9408 146.211 69.9411 146.211 69.9413 146.211C69.9414 146.211 69.9414 146.211 69.9413 146.211C69.941 146.211 69.9406 146.211 69.9392 146.211C69.9366 146.211 69.9319 146.211 69.9253 146.211C69.9119 146.21 69.8907 146.209 69.862 146.207C69.8048 146.202 69.7181 146.193 69.6068 146.177C69.3841 146.146 69.0635 146.085 68.6821 145.969C67.919 145.738 66.9172 145.287 65.9648 144.413C64.0762 142.678 62.2933 139.188 63.1265 132.123L62.3744 132.034C61.5227 139.257 63.3302 143.022 65.4532 144.972C66.5066 145.94 67.6159 146.439 68.4625 146.696C68.8859 146.824 69.2448 146.893 69.5003 146.929C69.6282 146.947 69.7303 146.958 69.8021 146.963C69.8379 146.966 69.8663 146.968 69.8864 146.969C69.8965 146.97 69.9044 146.97 69.9103 146.97C69.9133 146.97 69.9157 146.971 69.9176 146.971C69.9185 146.971 69.9194 146.971 69.92 146.971C69.9203 146.971 69.9215 146.971 69.9216 146.971C69.922 146.971 69.9216 146.971 69.9312 146.591Z" fill="#4F4F4F"/>
<g opacity="0.2">
<path d="M162.719 58.6758H173.444L173.443 58.6771L173.475 63.583H169.176L169.154 65.7679H162.719V58.6758Z" fill="#9F9DBA"/>
<path d="M141.341 58.6483H133.594V70.8182H141.341V58.6483ZM141.341 70.8182H133.594V82.9871H141.341V70.8182Z" fill="#9F9DBA"/>
<path d="M141.34 82.7327H133.594V94.9029H141.34V82.7327ZM167.32 88.8182H141.501V94.9029H167.322L167.32 88.8182ZM180.263 58.6758H173.474V68.9132H180.263V58.6758ZM180.263 68.9132H173.474V94.9029H180.263V68.9132ZM152.306 58.6758H141.5V65.7679H152.306V58.6758Z" fill="#9F9DBA"/>
<path d="M162.716 58.6758H151.91V65.7679H162.716V58.6758Z" fill="#9F9DBA"/>
<path d="M84.707 134.257H94.1785V141.527H84.707V134.257ZM178.641 82.558H163.71V94.9028H178.641V82.558Z" fill="#9F9DBA"/>
<path d="M105.891 105.675H113.199V130.233H105.891V105.675Z" fill="#9F9DBA"/>
<path d="M105.891 105.674H113.2V130.233H105.891V105.674ZM94.1797 134.257H105.893V141.527H94.1797V134.257Z" fill="#9F9DBA"/>
<path d="M94.1785 134.257H105.891V141.527H94.1785V134.257ZM84.707 105.675H97.6562V110.065H84.707V105.675Z" fill="#9F9DBA"/>
<path d="M84.7072 105.674H97.6564V110.065H84.7072V105.674ZM73.8711 128.817H84.7072V141.527H73.8711V128.817ZM77.7525 105.674L84.7072 105.674V119.117H77.7525V105.674Z" fill="#9F9DBA"/>
<path d="M77.7539 105.674H84.7087V119.116H77.7539V105.674ZM97.6579 105.674H110.447V117.183H97.6579V105.674Z" fill="#9F9DBA"/>
<path d="M97.6579 105.674H110.447V117.183H97.6579V105.674ZM77.7539 119.116H84.7087V128.817H77.7539V119.116ZM100.436 83.2695H113.2V94.3668H100.436V83.2695Z" fill="#9F9DBA"/>
<path d="M100.438 83.2688H113.2V94.3661H100.438V83.2688ZM105.971 72.4003H113.201V83.2665H105.971V72.4003Z" fill="#9F9DBA"/>
<path d="M105.969 72.4004H113.198V83.268H105.969V72.4004ZM105.969 58.6469H113.198V72.4004H105.969V58.6469Z" fill="#9F9DBA"/>
<path d="M105.97 58.6481H113.199V72.4004H105.97V58.6481ZM77.753 71.4491H84.7078V87.3095H77.753V71.4491ZM77.75 58.6469H88.7339V71.4491H77.75V58.6469Z" fill="#9F9DBA"/>
<path d="M77.7515 58.6469H88.7339V71.4491H77.75L77.7515 58.6469ZM77.75 87.3095H89.414V94.3653H77.75V87.3095Z" fill="#9F9DBA"/>
<path d="M77.75 87.3095H89.414V94.3668H77.75V87.3095ZM89.414 88.8174H100.435V94.3653L89.414 94.3668V88.8174ZM88.7339 58.6469H105.97V63.3667H88.7339V58.6469Z" fill="#9F9DBA"/>
<path d="M88.7344 58.6483H105.972V63.3669H88.7344V58.6483ZM105.892 130.233H113.2V141.529H105.892V130.233Z" fill="#9F9DBA"/>
<path d="M105.891 130.233H113.199V141.527H105.891V130.233Z" fill="#9F9DBA"/>
<path d="M190.809 61.9901H220.633V103.448H190.809V61.9901Z" fill="#9F9DBA"/>
<path d="M227.824 143.817V132.396H273.779V100.616H268.224V93.4139H282.364V96.7881H285.171V143.817H227.824Z" fill="#9F9DBA"/>
<path d="M250.462 29.5888V25.6888H225.691V33.4888H232.666V48.0114H257.528V29.5888H250.462Z" fill="#9F9DBA"/>
<path d="M122.595 28.4803H142.583V41.2371H122.594L122.595 28.4803Z" fill="#9F9DBA"/>
<path d="M159.605 28.4803H179.596V41.2371H159.605V28.4803Z" fill="#9F9DBA"/>
<path d="M195.723 28.4803H215.712V41.2371H195.723L195.723 28.4803Z" fill="#9F9DBA"/>
<path d="M272.152 77.9653H256.199V90.7216H272.152V77.9653Z" fill="#9F9DBA"/>
<path d="M227.824 56.4766V123.304H248.362V109.014H239.16V67.7277H247.687V71.4403H263.961V63.9018H259.472V56.4766H227.824Z" fill="#9F9DBA"/>
<path d="M172.996 130.438H180.231L180.26 141.442L172.996 141.527V130.438Z" fill="#9F9DBA"/>
<path d="M5.21973 112.579C4.65134 112.981 3.96725 113.122 3.16748 113.003C2.37015 112.884 1.75704 112.548 1.32816 111.997C0.898553 111.45 0.743623 110.774 0.863374 109.97C0.982763 109.169 1.32787 108.566 1.8987 108.165C2.47161 107.765 3.15551 107.626 3.95041 107.745C4.74773 107.864 5.36102 108.198 5.79027 108.747C6.21915 109.298 6.3739 109.976 6.25451 110.777C6.13476 111.581 5.78983 112.182 5.21973 112.579ZM5.6108 110.681C5.69888 110.09 5.57522 109.597 5.23983 109.204C4.90444 108.812 4.43805 108.571 3.84066 108.481C3.24083 108.392 2.72336 108.486 2.28824 108.763C1.85592 109.038 1.59554 109.472 1.50709 110.067C1.41864 110.661 1.54108 111.153 1.87439 111.542C2.20979 111.935 2.67739 112.176 3.27722 112.266C3.87461 112.355 4.39087 112.261 4.82599 111.984C5.26111 111.707 5.52271 111.272 5.6108 110.681ZM3.77908 105.706L3.55797 107.191L2.97277 107.103L3.51165 103.485L4.09684 103.572L3.87518 105.061L6.96941 105.524L6.86601 106.168L3.77908 105.706ZM7.81597 99.7879L7.68881 100.642L5.55157 102.441L7.38031 102.714L7.28422 103.359L3.6121 102.81L3.7082 102.164L5.50036 102.432L3.99756 100.221L4.12313 99.3779L5.63674 101.617L7.81597 99.7879ZM9.49571 98.8024L9.39967 99.4478L4.22796 98.6741L4.32405 98.0287L4.87267 98.1107L4.87704 98.0811C4.81532 98.0272 4.75254 97.9467 4.68871 97.8396C4.63317 97.744 4.58465 97.643 4.54312 97.5367C4.50026 97.4228 4.47065 97.2786 4.45432 97.1032C4.43591 96.9255 4.43962 96.7501 4.46547 96.5762C4.54809 96.022 4.7928 95.5831 5.19961 95.262C5.61093 94.9438 6.09944 94.8269 6.66513 94.9119C7.2357 94.997 7.66889 95.2513 7.96464 95.6758C8.26008 96.1025 8.36649 96.5929 8.28387 97.148C8.22706 97.5291 8.1077 97.829 7.92571 98.0462C7.76523 98.2375 7.633 98.3635 7.52904 98.4258L7.4519 98.4668L7.44754 98.4956L9.49571 98.8024ZM7.45169 96.0827C7.24218 95.7988 6.94724 95.6287 6.56686 95.5717C6.19135 95.5156 5.85965 95.5922 5.57174 95.801C5.28797 96.0159 5.11534 96.3302 5.05382 96.7433C4.99195 97.1586 5.06577 97.5086 5.27527 97.7926C5.48966 98.0765 5.7846 98.2474 6.1601 98.3036C6.55024 98.362 6.88493 98.2815 7.16418 98.0636C7.4455 97.8488 7.61618 97.539 7.67624 97.1358C7.73812 96.7205 7.66329 96.369 7.45169 96.0827ZM9.20004 90.4931L5.52791 89.9434L5.624 89.298L9.29614 89.8477L9.20004 90.4931ZM6.28522 93.1945L6.39441 92.4611C6.55857 91.3586 7.05028 90.8681 7.86952 90.9911C8.68882 91.1134 9.01638 91.7261 8.85226 92.8285L8.64694 94.2074L4.97485 93.6576L5.07093 93.0123L6.28522 93.1945ZM8.2438 91.9432C8.15799 91.783 8.00046 91.6851 7.77129 91.6509C7.54208 91.6168 7.36311 91.6638 7.23434 91.7922C7.10486 91.925 7.01263 92.1763 6.95766 92.5453L6.84847 93.2788L8.1798 93.4777L8.28902 92.7443C8.34392 92.3753 8.32885 92.108 8.2438 91.9432ZM6.53187 87.2184L6.31075 88.7035L5.72555 88.6162L6.26442 84.9968L6.84962 85.0849L6.62796 86.573L9.72215 87.0362L9.61878 87.6808L6.53187 87.2184ZM9.61605 84.6103C9.21056 84.9391 8.72018 85.0613 8.14466 84.9748C7.5717 84.889 7.13803 84.6293 6.84369 84.1958C6.55143 83.7645 6.44897 83.2558 6.53633 82.6689C6.62295 82.0873 6.86918 81.6302 7.275 81.2984C7.68253 80.9727 8.17284 80.852 8.74577 80.9378C9.32129 81.0236 9.7551 81.2825 10.0474 81.7137C10.3389 82.1496 10.4413 82.6583 10.3548 83.2399C10.2674 83.8268 10.0212 84.2838 9.61605 84.6103ZM9.536 82.1093C9.32651 81.8254 9.03039 81.6553 8.64755 81.5976C8.2647 81.5406 7.93177 81.6166 7.64875 81.8269C7.36817 82.0372 7.19731 82.3477 7.13616 82.7585C7.07465 83.1715 7.1476 83.5185 7.35504 83.7994C7.56174 84.0857 7.8577 84.2573 8.24297 84.315C8.62823 84.3727 8.96132 84.2952 9.2423 84.0819C9.52532 83.8723 9.69739 83.5618 9.75858 83.151C9.81902 82.7456 9.7448 82.3978 9.536 82.1093ZM9.47086 76.0687L9.77479 76.1362L9.27963 79.4618C9.48934 79.4937 9.7273 79.4018 9.99367 79.1869C10.2621 78.9743 10.4272 78.6608 10.489 78.2447C10.5346 77.9395 10.5146 77.6806 10.4291 77.4672C10.3556 77.2918 10.2846 77.1658 10.2159 77.0906L10.1691 77.0542L10.2821 76.2949C10.3165 76.3146 10.352 76.3367 10.3885 76.3594C10.4398 76.3997 10.5175 76.4726 10.6214 76.5781C10.7316 76.692 10.8259 76.8196 10.9045 76.9615C10.9814 77.0982 11.0412 77.2903 11.084 77.5393C11.1285 77.7762 11.1289 78.0412 11.0852 78.3343C10.9946 78.9432 10.748 79.4109 10.3453 79.7382C9.94194 80.07 9.45004 80.1922 8.86975 80.1056C8.29432 80.0191 7.86066 79.7594 7.56873 79.3259C7.27647 78.8946 7.17402 78.3859 7.26138 77.7998C7.348 77.2174 7.59422 76.7611 8.00001 76.4293C8.40512 76.1028 8.89543 75.9821 9.47086 76.0687ZM8.35392 76.9661C8.08582 77.1757 7.92162 77.4831 7.86119 77.8894C7.80007 78.3001 7.86747 78.6425 8.0634 78.9166C8.25902 79.193 8.46904 79.3487 8.69329 79.3821L9.09135 76.7087C8.86703 76.6753 8.62119 76.7611 8.35392 76.9661ZM11.2328 72.8236L11.4582 71.3092L8.37134 70.8473L8.46798 70.1983L11.5549 70.6602L11.7803 69.1459L8.69344 68.6839L8.78955 68.0386L12.4617 68.5881L11.7219 73.5565L8.04977 73.007L8.1458 72.3616L11.2328 72.8236ZM12.2422 66.9735C11.8367 67.3026 11.3462 67.4242 10.7708 67.338C10.1978 67.2523 9.76411 66.9925 9.4698 66.5586C9.17754 66.1275 9.07507 65.6187 9.16247 65.032C9.24904 64.4502 9.49525 63.9935 9.90112 63.6619C10.3086 63.3356 10.7989 63.2152 11.3719 63.301C11.9474 63.3871 12.3812 63.6457 12.6735 64.0768C12.965 64.5127 13.0675 65.0217 12.9808 65.6034C12.8935 66.1901 12.6473 66.6468 12.2422 66.9735ZM12.1621 64.4726C11.9526 64.1888 11.6564 64.0183 11.2737 63.961C10.8908 63.9037 10.5579 63.9801 10.2749 64.1901C9.99427 64.4005 9.82341 64.711 9.76229 65.1217C9.70072 65.5348 9.77373 65.8819 9.98117 66.1628C10.1878 66.4486 10.4838 66.6204 10.8691 66.6781C11.2544 66.7357 11.5874 66.6581 11.8684 66.4453C12.1514 66.2352 12.3235 65.9249 12.3847 65.5142C12.4451 65.1084 12.3709 64.7612 12.1621 64.4726ZM12.9599 62.103C12.5544 62.4322 12.064 62.5537 11.4885 62.4676C10.9131 62.3815 10.4806 62.1218 10.1912 61.6887C9.90097 61.2604 9.79978 60.7517 9.88748 60.1626C9.93732 59.8277 10.038 59.5367 10.1895 59.2895C10.3445 59.0353 10.5128 58.8506 10.6945 58.7353C11.0719 58.4944 11.3995 58.3948 11.6775 58.4364L11.5781 59.1037C11.4697 59.1124 11.3599 59.1385 11.2487 59.1818C11.1348 59.2272 11.0328 59.2845 10.9427 59.3534C10.8411 59.4332 10.7472 59.5529 10.6612 59.7124C10.5755 59.8695 10.5175 60.0495 10.4873 60.2524C10.4258 60.6655 10.4987 61.0125 10.7062 61.2935C10.9129 61.5792 11.2064 61.7506 11.5868 61.8076C11.9672 61.8645 12.2991 61.7867 12.5824 61.5742C12.868 61.3645 13.0413 61.0544 13.1024 60.6437C13.133 60.4384 13.1302 60.248 13.094 60.0727C13.0581 59.8949 13.0006 59.7538 12.9214 59.6495C12.7734 59.455 12.6281 59.3258 12.4856 59.262L12.3938 59.2257L12.4932 58.5584C12.7662 58.5992 13.0481 58.7901 13.3389 59.131C13.4832 59.3 13.5916 59.5262 13.6641 59.8094C13.737 60.0902 13.7485 60.3981 13.6986 60.7329C13.6112 61.3196 13.365 61.7763 12.9599 62.103ZM13.674 57.307C13.2685 57.6361 12.7781 57.7577 12.2027 57.6716C11.6272 57.5854 11.1948 57.3258 10.9053 56.8926C10.6151 56.4643 10.5139 55.9557 10.6016 55.3666C10.6515 55.0317 10.7522 54.7406 10.9036 54.4934C11.0587 54.2393 11.2269 54.0545 11.4086 53.9393C11.786 53.6984 12.1136 53.5987 12.3917 53.6403L12.2923 54.3077C12.1838 54.3164 12.074 54.3424 11.9629 54.3858C11.8489 54.4312 11.7469 54.4884 11.6568 54.5574C11.5553 54.6372 11.4614 54.7568 11.3753 54.9164C11.2896 55.0735 11.2316 55.2535 11.2014 55.4564C11.1399 55.8695 11.2129 56.2165 11.4203 56.4974C11.627 56.7832 11.9206 56.9546 12.3009 57.0115C12.6814 57.0685 13.0132 56.9907 13.2966 56.7782C13.5821 56.5685 13.7554 56.2584 13.8166 55.8477C13.8472 55.6424 13.8443 55.452 13.8081 55.2766C13.7723 55.0989 13.7148 54.9578 13.6355 54.8535C13.4876 54.6589 13.3422 54.5298 13.1997 54.4659L13.1079 54.4297L13.2073 53.7624C13.4804 53.8032 13.7623 53.9941 14.053 54.335C14.1974 54.504 14.3057 54.7301 14.3782 55.0134C14.4511 55.2942 14.4626 55.602 14.4127 55.9369C14.3253 56.5236 14.0791 56.9803 13.674 57.307ZM13.5252 48.8396L13.8292 48.9075L13.334 52.2332C13.5437 52.2647 13.7817 52.1728 14.048 51.9578C14.3164 51.7455 14.4816 51.4317 14.5435 51.0161C14.589 50.7105 14.569 50.4514 14.4835 50.2386C14.4099 50.0627 14.3389 49.9371 14.2704 49.8619L14.2236 49.8249L14.3366 49.066C14.3709 49.0861 14.4064 49.1077 14.4428 49.1306C14.4942 49.1708 14.5718 49.2436 14.6758 49.3491C14.7859 49.4631 14.8803 49.5909 14.9589 49.7326C15.0358 49.869 15.0956 50.0617 15.1383 50.3105C15.1829 50.547 15.1833 50.812 15.1397 51.1053C15.049 51.714 14.8023 52.1818 14.3997 52.5089C13.9963 52.8409 13.5045 52.9635 12.9241 52.8766C12.3487 52.7905 11.915 52.5307 11.6231 52.0972C11.3308 51.6661 11.2284 51.1572 11.3158 50.5705C11.4023 49.9888 11.6486 49.5321 12.0544 49.2004C12.4595 48.8737 12.9498 48.7535 13.5252 48.8396ZM12.4083 49.7369C12.1402 49.9467 11.976 50.2545 11.9156 50.6603C11.8544 51.0709 11.9218 51.4135 12.1178 51.6876C12.3134 51.9643 12.5234 52.1194 12.7477 52.153L13.1457 49.48C12.9214 49.4464 12.6756 49.5321 12.4083 49.7369Z" fill="#4F4F4F"/>
<path d="M161.77 6.14823H162.469L163.907 9.14004H163.929L165.209 6.14823H165.915L164.203 10.0817C163.986 10.5883 163.786 10.9455 163.604 11.1531C163.421 11.3607 163.149 11.4645 162.786 11.4645C162.587 11.4645 162.435 11.4448 162.331 11.4052L162.272 11.3904V10.8194C162.4 10.8689 162.552 10.8936 162.727 10.8936C162.927 10.8936 163.08 10.8305 163.186 10.7045C163.289 10.5834 163.399 10.3758 163.514 10.0817L163.567 9.94455L161.77 6.14823ZM166.684 8.36522L167.035 6.14823H169.857V9.87037H169.206V6.7414H167.586L167.338 8.36522C167.252 8.96328 167.124 9.37609 166.954 9.60342C166.784 9.83081 166.548 9.94455 166.248 9.94455C166.129 9.94455 166.024 9.92967 165.93 9.90006L165.874 9.87781V9.25499C165.955 9.2846 166.039 9.29941 166.126 9.29941C166.313 9.29941 166.447 9.20184 166.529 9.00656C166.583 8.87802 166.635 8.66429 166.684 8.36522ZM170.918 9.84069C170.844 9.77395 170.807 9.6776 170.807 9.55156C170.807 9.42795 170.844 9.33031 170.918 9.25864C170.99 9.18947 171.092 9.15485 171.225 9.15485C171.358 9.15485 171.461 9.18947 171.532 9.25864C171.606 9.33031 171.643 9.42795 171.643 9.55156C171.643 9.6776 171.606 9.77395 171.532 9.84069C171.461 9.90993 171.358 9.94455 171.225 9.94455C171.092 9.94455 170.99 9.90993 170.918 9.84069ZM175.515 5.19173H173.614V4.55408H178.122V5.19173H176.228V9.87037H175.515V5.19173ZM178.007 8.82859C178.007 8.44798 178.168 8.16621 178.492 7.98331C178.812 7.80291 179.224 7.71271 179.727 7.71271C179.983 7.71271 180.22 7.74361 180.437 7.80541C180.664 7.86965 180.823 7.93024 180.914 7.98703L181.058 8.07973V7.49398C181.058 7.24188 180.965 7.04416 180.781 6.90081C180.596 6.75499 180.317 6.68208 179.945 6.68208C179.203 6.68208 178.832 6.88474 178.832 7.29007H178.181C178.184 6.8798 178.35 6.57456 178.68 6.37437C179.008 6.17418 179.429 6.07408 179.945 6.07408C180.463 6.07408 180.886 6.19519 181.213 6.4374C181.541 6.68208 181.707 7.03427 181.709 7.49398V8.84712C181.709 9.03496 181.733 9.16601 181.783 9.24011C181.833 9.31179 181.914 9.34762 182.027 9.34762C182.126 9.34762 182.191 9.33403 182.223 9.30685L182.238 9.29941V9.88518C182.161 9.92474 182.051 9.94455 181.905 9.94455C181.658 9.94455 181.476 9.8914 181.358 9.78511C181.264 9.70599 181.195 9.62323 181.15 9.53668L181.132 9.49226H181.102C181.041 9.55399 180.978 9.60592 180.914 9.64791C180.837 9.69984 180.753 9.74555 180.662 9.78511C180.421 9.8914 180.126 9.94455 179.779 9.94455C179.254 9.94455 178.827 9.85428 178.499 9.67388C178.172 9.49591 178.007 9.21414 178.007 8.82859ZM179.875 8.32072C179.074 8.32072 178.673 8.49004 178.673 8.82859C178.673 9.16965 179.074 9.34026 179.875 9.34026C180.111 9.34026 180.327 9.31429 180.522 9.26236C180.714 9.21544 180.846 9.17094 180.918 9.12888C180.984 9.09433 181.031 9.06343 181.058 9.03625V8.60985C181.031 8.58267 180.984 8.55177 180.918 8.51722C180.834 8.47766 180.703 8.43568 180.525 8.39118C180.336 8.34418 180.119 8.32072 179.875 8.32072ZM182.959 9.87037V6.14823H185.943V6.7414H183.61V9.87037H182.959ZM190.21 9.87037H189.556V6.89339H189.542L187.407 9.87037H186.583V6.14823H187.234V9.12524H187.248L189.383 6.14823H190.21V9.87037ZM191.624 8.36522L191.974 6.14823H194.796V9.87037H194.146V6.7414H192.526L192.278 8.36522C192.192 8.96328 192.064 9.37609 191.893 9.60342C191.723 9.83081 191.488 9.94455 191.187 9.94455C191.068 9.94455 190.962 9.92967 190.869 9.90006L190.813 9.87781V9.25499C190.895 9.2846 190.978 9.29941 191.065 9.29941C191.253 9.29941 191.387 9.20184 191.468 9.00656C191.522 8.87802 191.574 8.66429 191.624 8.36522ZM196.59 7.37905H197.436C198.548 7.37905 199.105 7.79425 199.105 8.62473C199.105 9.45513 198.548 9.87037 197.436 9.87037H195.939V6.14823H196.59V7.37905ZM197.436 9.29941C197.811 9.29941 198.072 9.24505 198.217 9.13632C198.363 9.02759 198.435 8.85706 198.435 8.62473C198.435 8.3924 198.363 8.22187 198.217 8.11307C198.072 8.00434 197.811 7.94998 197.436 7.94998H196.59V9.29941H197.436ZM200.513 9.40692C200.129 9.05356 199.936 8.58517 199.936 8.00191C199.936 7.41859 200.129 6.95148 200.513 6.60052C200.893 6.24956 201.38 6.07408 201.974 6.07408C202.312 6.07408 202.614 6.13092 202.88 6.24461C203.154 6.36077 203.361 6.50042 203.501 6.66354C203.795 7.00214 203.941 7.31232 203.941 7.59411H203.269C203.244 7.4878 203.202 7.38276 203.143 7.27895C203.081 7.17268 203.01 7.08 202.928 7.0009C202.835 6.91193 202.703 6.83655 202.533 6.77476C202.365 6.71297 202.179 6.68208 201.974 6.68208C201.557 6.68208 201.226 6.80565 200.979 7.05281C200.728 7.29996 200.602 7.61628 200.602 8.00191C200.602 8.38746 200.728 8.70506 200.979 8.95463C201.228 9.20678 201.56 9.33282 201.974 9.33282C202.181 9.33282 202.368 9.30191 202.536 9.24011C202.706 9.17831 202.837 9.10048 202.928 9.00656C203.098 8.8311 203.204 8.66793 203.246 8.51722L203.269 8.42079H203.941C203.941 8.69762 203.795 9.00535 203.501 9.3439C203.356 9.512 203.149 9.65284 202.88 9.76658C202.614 9.88024 202.312 9.93711 201.974 9.93711C201.382 9.93711 200.895 9.76036 200.513 9.40692ZM208.527 9.87037H207.665L205.576 8.01672V9.87037H204.925V6.14823H205.576V7.96478L207.536 6.14823H208.386L206.4 7.97966L208.527 9.87037ZM208.79 8.82859C208.79 8.44798 208.951 8.16621 209.274 7.98331C209.594 7.80291 210.006 7.71271 210.509 7.71271C210.766 7.71271 211.002 7.74361 211.219 7.80541C211.446 7.86965 211.605 7.93024 211.697 7.98703L211.84 8.07973V7.49398C211.84 7.24188 211.748 7.04416 211.563 6.90081C211.378 6.75499 211.1 6.68208 210.727 6.68208C209.985 6.68208 209.614 6.88474 209.614 7.29007H208.963C208.965 6.8798 209.132 6.57456 209.462 6.37437C209.79 6.17418 210.212 6.07408 210.727 6.07408C211.245 6.07408 211.668 6.19519 211.996 6.4374C212.324 6.68208 212.489 7.03427 212.491 7.49398V8.84712C212.491 9.03496 212.516 9.16601 212.565 9.24011C212.614 9.31179 212.695 9.34762 212.809 9.34762C212.908 9.34762 212.973 9.33403 213.005 9.30685L213.02 9.29941V9.88518C212.944 9.92474 212.833 9.94455 212.687 9.94455C212.441 9.94455 212.258 9.8914 212.14 9.78511C212.046 9.70599 211.977 9.62323 211.933 9.53668L211.915 9.49226H211.885C211.823 9.55399 211.76 9.60592 211.697 9.64791C211.62 9.69984 211.536 9.74555 211.444 9.78511C211.203 9.8914 210.908 9.94455 210.56 9.94455C210.036 9.94455 209.609 9.85428 209.281 9.67388C208.953 9.49591 208.79 9.21414 208.79 8.82859ZM210.657 8.32072C209.855 8.32072 209.456 8.49004 209.456 8.82859C209.456 9.16965 209.855 9.34026 210.657 9.34026C210.894 9.34026 211.11 9.31429 211.304 9.26236C211.497 9.21544 211.628 9.17094 211.7 9.12888C211.766 9.09433 211.813 9.06343 211.84 9.03625V8.60985C211.813 8.58267 211.766 8.55177 211.7 8.51722C211.616 8.47766 211.485 8.43568 211.308 8.39118C211.118 8.34418 210.901 8.32072 210.657 8.32072ZM214.292 9.87037H213.59L214.459 8.47273C214.378 8.45048 214.282 8.40842 214.174 8.34669C214.083 8.29476 214.001 8.23174 213.93 8.15756C213.853 8.07601 213.787 7.96357 213.73 7.82022C213.675 7.67687 213.649 7.52488 213.649 7.36422C213.649 6.96136 213.787 6.6586 214.063 6.45593C214.341 6.25079 214.743 6.14823 215.268 6.14823H216.921V9.87037H216.271V8.58024H215.102L214.292 9.87037ZM214.54 6.87856C214.39 6.98484 214.315 7.14673 214.315 7.36422C214.315 7.58172 214.39 7.74361 214.54 7.84991C214.685 7.95613 214.928 8.00928 215.268 8.00928H216.271V6.71915H215.268C214.928 6.71915 214.685 6.77229 214.54 6.87856Z" fill="#4F4F4F"/>
</g>
<path d="M90.6396 64.8096L90.6396 73.0303L78.3623 73.0303L78.3623 64.8096L78.3594 64.8096L78.3594 59L106.18 59L106.18 64.8242L90.6396 64.8096ZM78.416 88.5527L78.3623 79.6719L85.374 79.6719L85.374 88.5166L78.416 88.5527ZM78.4434 94L78.3623 88.5527L89.0557 88.5527L89.0557 93.9785L78.4434 94ZM78.4434 79.6719L78.3896 73.0332L85.4023 73.0332L85.4023 79.6455L78.4434 79.6719ZM113 93.9609C112.994 93.961 105.61 94 102.556 94C102.48 94 102.406 93.9912 102.335 93.9785L89.3545 94L89.2549 88.5527L100.374 88.5527C100.264 85.9951 100.5 83.5 100.5 83.5L106.182 83.5L106.204 76.7891L113 76.7891L113 93.9609ZM106.234 76.668L106.212 68.834L106.199 68.834L106.182 59L113 59L113 76.5957L106.234 76.668Z" fill="#9F9DBA"/>
</g>
<defs>
<clipPath id="clip0_579_29974">
<rect width="309" height="164" fill="white"/>
</clipPath>
</defs>
</svg>
