<?xml version="1.0" standalone="no"?>
<!DOCTYPE svg PUBLIC "-//W3C//DTD SVG 1.1//EN" "http://www.w3.org/Graphics/SVG/1.1/DTD/svg11.dtd" >
<svg xmlns="http://www.w3.org/2000/svg" xmlns:xlink="http://www.w3.org/1999/xlink" version="1.1">
<metadata>
Created by FontForge 20201107 at Wed Jun 25 12:07:41 2025
 By 
Copyright 2025
</metadata>
<defs>
<font id="Bounded-ExtraLight" horiz-adv-x="1507" >
  <font-face 
    font-family="Bounded ExtLt"
    font-weight="200"
    font-stretch="normal"
    units-per-em="2048"
    panose-1="0 0 0 0 0 0 0 0 0 0"
    ascent="1638"
    descent="-410"
    x-height="1147"
    cap-height="1536"
    bbox="-516 -537 3293 2300"
    underline-thickness="102"
    underline-position="-255"
    unicode-range="U+000D-FB02"
  />
<missing-glyph horiz-adv-x="1658" 
d="M199 0v1536h1261v-1536h-1261zM313 102h1033v1332h-1033v-1332z" />
    <glyph glyph-name="fi" unicode="fi" horiz-adv-x="1470" 
d="M981 985h-586v-985h-110v985h-258v100h258v66q0 96 23.5 175t73 142t135.5 98.5t202 35.5q132 0 258 -56v-108q-106 63 -252 63q-167 0 -248.5 -74.5t-81.5 -246.5v-95h586v-100zM1196 0v1147h111v-1147h-111zM1251 1341q-43 0 -72.5 29.5t-29.5 71.5q0 41 29.5 70.5
t72.5 29.5t73 -29.5t30 -70.5t-30 -71t-73 -30z" />
    <glyph glyph-name="fl" unicode="fl" horiz-adv-x="1470" 
d="M981 985h-586v-985h-110v985h-258v100h258v66q0 96 23.5 175t73 142t135.5 98.5t202 35.5q132 0 258 -56v-108q-106 63 -252 63q-167 0 -248.5 -74.5t-81.5 -246.5v-95h586v-100zM1196 0v1577h111v-1577h-111z" />
    <glyph glyph-name="f_f" unicode="ff" horiz-adv-x="1826" 
d="M1817 985h-586v-985h-111v985h-725v-985h-110v985h-258v100h258v66q0 96 23.5 175t73 142t135.5 98.5t202 35.5q132 0 258 -56v-108q-106 63 -252 63q-167 0 -248.5 -74.5t-81.5 -246.5v-95h725v66q0 96 23.5 175t73 142t135.5 98.5t202 35.5q132 0 258 -56v-108
q-106 63 -251 63q-167 0 -248.5 -74.5t-81.5 -246.5v-95h586v-100z" />
    <glyph glyph-name="f_f_i" unicode="ffi" horiz-adv-x="2275" 
d="M1817 985h-586v-985h-111v985h-725v-985h-110v985h-258v100h258v66q0 96 23.5 175t73 142t135.5 98.5t202 35.5q132 0 258 -56v-108q-106 63 -252 63q-167 0 -248.5 -74.5t-81.5 -246.5v-95h725v66q0 96 23.5 175t73 142t135.5 98.5t202 35.5q132 0 258 -56v-108
q-106 63 -251 63q-167 0 -248.5 -74.5t-81.5 -246.5v-95h586v-100zM2001 0v1147h110v-1147h-110zM2056 1341q-42 0 -72 29.5t-30 71.5q0 41 29.5 70.5t72.5 29.5t73 -29.5t30 -70.5t-30 -71t-73 -30z" />
    <glyph glyph-name="f_f_l" unicode="ffl" horiz-adv-x="2265" 
d="M1817 985h-586v-985h-111v985h-725v-985h-110v985h-258v100h258v66q0 96 23.5 175t73 142t135.5 98.5t202 35.5q132 0 258 -56v-108q-106 63 -252 63q-167 0 -248.5 -74.5t-81.5 -246.5v-95h725v66q0 96 23.5 175t73 142t135.5 98.5t202 35.5q132 0 258 -56v-108
q-106 63 -251 63q-167 0 -248.5 -74.5t-81.5 -246.5v-95h586v-100zM1991 0v1577h110v-1577h-110z" />
    <glyph glyph-name="f_t.liga" unicode="ft" horiz-adv-x="1890" 
d="M1116 985h-721v-985h-110v985h-258v100h258v66q0 96 23.5 175t73 142t135.5 98.5t202 35.5q132 0 258 -56v-108q-106 63 -252 63q-167 0 -248.5 -74.5t-81.5 -246.5v-95h721l41 293h70v-293h585v-100h-585v-604q0 -163 72.5 -233t224.5 -70q173 0 309 106l4 -106
q-50 -39 -146.5 -70t-191.5 -31q-104 0 -180 29.5t-119.5 83t-63.5 121t-20 151.5v623z" />
    <glyph glyph-name="t_t.liga" unicode="tt" horiz-adv-x="1912" 
d="M264 1047h-258v61l258 31l41 301h70v-293h774l41 293h70v-293h585v-100h-585v-668q0 -163 72 -231t224 -68q173 0 312 100v-114q-51 -36 -144.5 -63.5t-189.5 -27.5q-104 0 -180.5 29.5t-120 83t-64 121t-20.5 151.5v687h-774v-668q0 -162 72.5 -230.5t224.5 -68.5
q175 0 311 100v-114q-49 -36 -144.5 -63.5t-191.5 -27.5q-103 0 -178.5 29.5t-119.5 83t-64.5 121t-20.5 151.5v687z" />
    <glyph glyph-name=".notdef" horiz-adv-x="1658" 
d="M199 0v1536h1261v-1536h-1261zM313 102h1033v1332h-1033v-1332z" />
    <glyph glyph-name="uni0000" horiz-adv-x="0" 
 />
    <glyph glyph-name="uni0000" horiz-adv-x="0" 
 />
    <glyph glyph-name="uni000D" unicode="&#xd;" horiz-adv-x="512" 
 />
    <glyph glyph-name="space" unicode=" " horiz-adv-x="585" 
 />
    <glyph glyph-name="exclam" unicode="!" horiz-adv-x="483" 
d="M203 389l-17 1147h111l-16 -1147h-78zM242 -12q-41 0 -70 28.5t-29 69.5t29 69.5t70 28.5t69.5 -28.5t28.5 -69.5t-28.5 -69.5t-69.5 -28.5z" />
    <glyph glyph-name="quotedbl" unicode="&#x22;" horiz-adv-x="702" 
d="M551 1120h-82l-12 416h106zM233 1120h-81l-13 416h107z" />
    <glyph glyph-name="numbersign" unicode="#" horiz-adv-x="1636" 
d="M350 0l58 494h-297v96h309l41 352h-301v96h311l59 498h103l-60 -498h553l60 498h102l-59 -498h299v-96h-309l-41 -352h301v-96h-314l-57 -494h-102l57 494h-553l-57 -494h-103zM522 590h553l41 352h-553z" />
    <glyph glyph-name="dollar" unicode="$" horiz-adv-x="1488" 
d="M688 1704h103v-145q255 -13 406.5 -142t162.5 -330h-113q-16 155 -133 254.5t-323 112.5v-623l49 -6q200 -25 323.5 -82t176.5 -140.5t53 -203.5q0 -182 -160.5 -301t-441.5 -123v-143h-103v148q-265 20 -429.5 161t-176.5 355h115q19 -174 148 -283.5t343 -128.5v653
l-57 6q-506 64 -506 394q0 173 152.5 293.5t410.5 130.5v143zM791 723v-643q234 4 360.5 93t126.5 226q0 65 -22 114.5t-73.5 91.5t-144 70.5t-227.5 45.5zM240 1137q0 -120 95 -190.5t324 -98.5l29 -4v612q-219 -9 -333.5 -96.5t-114.5 -222.5z" />
    <glyph glyph-name="percent" unicode="%" horiz-adv-x="2310" 
d="M688 0l830 1536h110l-829 -1536h-111zM1798 -14q-202 0 -329.5 122t-127.5 316q0 195 127 316.5t330 121.5q201 0 328 -121.5t127 -316.5t-127 -316.5t-328 -121.5zM518 672q-202 0 -329.5 122t-127.5 316q0 195 127 316.5t330 121.5q201 0 328 -121.5t127 -316.5
t-127 -316.5t-328 -121.5zM1798 80q160 0 255 93.5t95 250.5t-95.5 251.5t-254.5 94.5q-161 0 -256.5 -94.5t-95.5 -251.5t95.5 -250.5t256.5 -93.5zM518 766q160 0 255 93.5t95 250.5t-95.5 251.5t-254.5 94.5q-161 0 -256.5 -94.5t-95.5 -251.5t95.5 -250.5t256.5 -93.5z
" />
    <glyph glyph-name="ampersand" unicode="&#x26;" horiz-adv-x="1667" 
d="M1296 1145h-114q-19 145 -127 229t-293 84q-165 0 -269 -68t-104 -194q0 -137 184 -291l601 -497l262 370h131l-314 -438l410 -340h-164l-309 256q-234 -281 -569 -281q-122 0 -224 35.5t-168 95.5t-102.5 138.5t-36.5 165.5q0 152 98 263.5t289 176.5
q-114 96 -159.5 177t-45.5 169q0 164 138.5 264.5t357.5 100.5q235 0 374.5 -114t153.5 -302zM614 80q159 0 279.5 61t216.5 183l-569 473q-162 -62 -247 -159.5t-85 -221.5q0 -140 108 -238t297 -98z" />
    <glyph glyph-name="quotesingle" unicode="'" horiz-adv-x="389" 
d="M154 1118l-15 418h111l-14 -418h-82z" />
    <glyph glyph-name="parenleft" unicode="(" horiz-adv-x="559" 
d="M387 1536h107q-275 -414 -275 -862q0 -442 275 -862h-107q-283 427 -283 862t283 862z" />
    <glyph glyph-name="parenright" unicode=")" horiz-adv-x="559" 
d="M66 1536h106q283 -427 283 -862t-283 -862h-106q274 418 274 862q0 450 -274 862z" />
    <glyph glyph-name="asterisk" unicode="*" horiz-adv-x="1044" 
d="M479 1190l-6 371h98l-6 -371l350 129l31 -92l-356 -117l241 -303l-79 -57l-230 311l-229 -311l-80 57l242 303l-357 117l31 92z" />
    <glyph glyph-name="plus" unicode="+" horiz-adv-x="1269" 
d="M686 152h-102v522h-523v102h523v522h102v-522h522v-102h-522v-522z" />
    <glyph glyph-name="comma" unicode="," horiz-adv-x="413" 
d="M166 -260h-88l112 254q-34 6 -55.5 32.5t-21.5 61.5q0 40 28.5 68t69.5 28q42 0 70 -30.5t28 -75.5q0 -63 -51 -160z" />
    <glyph glyph-name="hyphen" unicode="-" horiz-adv-x="651" 
d="M117 672v106h418v-106h-418z" />
    <glyph glyph-name="period" unicode="." horiz-adv-x="450" 
d="M225 -12q-41 0 -69.5 28.5t-28.5 69.5t28.5 69.5t69.5 28.5t70 -28.5t29 -69.5t-29 -69.5t-70 -28.5z" />
    <glyph glyph-name="slash" unicode="/" horiz-adv-x="776" 
d="M51 -55l574 1646h100l-573 -1646h-101z" />
    <glyph glyph-name="zero" unicode="0" horiz-adv-x="1646" 
d="M823 -25q-356 0 -559 216t-203 577t203 577t559 216t559 -216t203 -577q0 -238 -89.5 -416.5t-262.5 -277.5t-410 -99zM823 78q303 0 473 182.5t170 507.5t-170 507.5t-473 182.5t-473 -182.5t-170 -507.5t170 -507.5t473 -182.5z" />
    <glyph glyph-name="one" unicode="1" horiz-adv-x="1361" 
d="M670 1536h92v-1434h559v-102h-1280v102h606v1325l-538 -86v99z" />
    <glyph glyph-name="two" unicode="2" horiz-adv-x="1421" 
d="M160 1032h-115q19 236 204 382.5t468 146.5q272 0 441 -129.5t169 -339.5q0 -111 -53 -205t-168.5 -193.5t-327.5 -236.5l-549 -355h1151v-102h-1339v96l647 424q149 98 241.5 168.5t158.5 139.5t93 131t27 133q0 166 -135 266t-356 100q-253 0 -396 -117t-161 -309z" />
    <glyph glyph-name="three" unicode="3" horiz-adv-x="1441" 
d="M106 1434v102h1240v-102l-637 -535h73q312 0 465.5 -119.5t153.5 -320.5q0 -217 -178 -350.5t-480 -133.5q-309 0 -496 135.5t-206 362.5h115q23 -189 175 -292t412 -103q256 0 397.5 99t141.5 284q0 80 -28.5 142t-90 109t-167.5 72t-253 25h-172v100l621 525h-1086z
" />
    <glyph glyph-name="four" unicode="4" horiz-adv-x="1501" 
d="M1008 1536h145v-1071h317v-103h-317v-362h-115v362h-997v89zM195 465h843v950z" />
    <glyph glyph-name="five" unicode="5" horiz-adv-x="1429" 
d="M121 635l102 901h1041v-102h-949l-71 -631q94 94 233 151.5t299 57.5q148 0 266.5 -40.5t193 -111.5t114 -164.5t39.5 -201.5q0 -229 -181.5 -374t-472.5 -145q-293 0 -472 127.5t-222 333.5h115q39 -166 189.5 -262t389.5 -96q241 0 388 114t147 302q0 187 -135.5 301
t-358.5 114q-190 0 -340.5 -79.5t-234.5 -194.5h-80z" />
    <glyph glyph-name="six" unicode="6" horiz-adv-x="1476" 
d="M780 1561q242 0 409 -108.5t204 -283.5h-115q-46 133 -175 211t-323 78q-300 0 -461 -185t-161 -505q0 -80 8 -137q126 167 296.5 258.5t381.5 91.5q174 0 307 -57t209 -169t76 -263q0 -231 -181.5 -374t-472.5 -143q-227 0 -395.5 100.5t-257 279.5t-88.5 413
q0 235 86 413.5t254.5 279t398.5 100.5zM844 879q-386 0 -656 -361q57 -208 209.5 -324t384.5 -116q244 0 389.5 112.5t145.5 301.5q0 180 -130 283.5t-343 103.5z" />
    <glyph glyph-name="seven" unicode="7" horiz-adv-x="1314" 
d="M408 0h-125l860 1434h-1143v102h1274v-98z" />
    <glyph glyph-name="eight" unicode="8" horiz-adv-x="1519" 
d="M760 1561q304 0 476.5 -106t172.5 -294q0 -133 -91 -224.5t-259 -131.5q203 -35 311.5 -134.5t108.5 -252.5q0 -208 -190 -325.5t-529 -117.5t-529 117.5t-190 325.5q0 153 108.5 253t309.5 134q-167 42 -257.5 133.5t-90.5 222.5q0 188 172.5 294t476.5 106zM760 76
q284 0 444 91t160 251q0 165 -153.5 247.5t-450.5 82.5q-295 0 -449.5 -84.5t-154.5 -245.5q0 -160 160 -251t444 -91zM760 848q244 0 389 82.5t145 230.5q0 140 -142 219.5t-392 79.5t-392.5 -79.5t-142.5 -219.5q0 -148 145.5 -230.5t389.5 -82.5z" />
    <glyph glyph-name="nine" unicode="9" horiz-adv-x="1476" 
d="M696 -25q-242 0 -408.5 108.5t-203.5 283.5h115q46 -133 174.5 -211t322.5 -78q201 0 342 86t211 240t70 364q0 80 -8 137q-126 -167 -296.5 -258.5t-381.5 -91.5q-174 0 -307 57t-209 169t-76 263q0 231 181 374t472 143q227 0 396 -100.5t257.5 -279.5t88.5 -413
q0 -176 -50 -322t-143.5 -250.5t-233.5 -162.5t-313 -58zM633 657q385 0 655 361q-57 208 -209.5 324t-384.5 116q-244 0 -389 -112.5t-145 -301.5q0 -180 130 -283.5t343 -103.5z" />
    <glyph glyph-name="colon" unicode=":" horiz-adv-x="491" 
d="M246 -12q-41 0 -70 28.5t-29 69.5t29 69.5t70 28.5t69.5 -28.5t28.5 -69.5t-28.5 -69.5t-69.5 -28.5zM246 819q-41 0 -70 29t-29 70t29 69.5t70 28.5t69.5 -28.5t28.5 -69.5t-28.5 -70t-69.5 -29z" />
    <glyph glyph-name="semicolon" unicode=";" horiz-adv-x="544" 
d="M281 819q-41 0 -70 29t-29 70t29 69.5t70 28.5t69.5 -28.5t28.5 -69.5t-28.5 -70t-69.5 -29zM236 -260h-89l113 254q-34 6 -56 32.5t-22 61.5q0 40 29 68t70 28q42 0 70 -30.5t28 -75.5q0 -63 -51 -160z" />
    <glyph glyph-name="less" unicode="&#x3c;" horiz-adv-x="1269" 
d="M1206 1112l-1020 -381l1020 -379v-110l-1147 436v106l1147 437v-109z" />
    <glyph glyph-name="equal" unicode="=" horiz-adv-x="1269" 
d="M61 909v103h1147v-103h-1147zM61 438v103h1147v-103h-1147z" />
    <glyph glyph-name="greater" unicode="&#x3e;" horiz-adv-x="1269" 
d="M1083 731l-1020 381v109l1147 -437v-106l-1147 -436v110z" />
    <glyph glyph-name="question" unicode="?" horiz-adv-x="1230" 
d="M539 485q0 93 45 154t147 125l154 96q79 50 127.5 117.5t48.5 140.5q0 158 -117.5 250t-320.5 92q-201 0 -326.5 -97.5t-142.5 -266.5h-113q20 218 174 341.5t408 123.5q256 0 402 -117.5t146 -321.5q0 -94 -61 -185t-168 -157l-158 -96q-78 -48 -113.5 -90.5
t-35.5 -106.5v-98h-88q-8 44 -8 96zM588 -12q-41 0 -70 28.5t-29 69.5t29 69.5t70 28.5t69.5 -28.5t28.5 -69.5t-28.5 -69.5t-69.5 -28.5z" />
    <glyph glyph-name="at" unicode="@" horiz-adv-x="2017" 
d="M1931 788q0 -233 -130.5 -372.5t-346.5 -139.5h-65v320q-61 -157 -175.5 -247.5t-259.5 -90.5q-178 0 -292.5 117.5t-114.5 304.5q0 184 114 302t293 118q148 0 262 -91t173 -245v317h106v-731q151 12 242.5 130.5t91.5 305.5q0 294 -215.5 475t-564.5 181
q-251 0 -443.5 -98t-298.5 -278t-106 -415q0 -165 61 -303t170.5 -234.5t266.5 -150t343 -53.5q170 0 339.5 41.5t291.5 116.5v-105q-133 -69 -303 -108t-332 -39q-279 0 -493.5 103.5t-332.5 293.5t-118 438q0 196 69.5 361.5t194 280.5t302.5 179t389 64q261 0 461 -93
t310.5 -263t110.5 -392zM657 680q0 -145 87.5 -236.5t222.5 -91.5q130 0 232.5 88.5t162.5 239.5q-61 150 -163 238t-232 88q-134 0 -222 -91t-88 -235z" />
    <glyph glyph-name="A" unicode="A" horiz-adv-x="1724" 
d="M805 1536h115l776 -1536h-129l-205 410h-1000l-204 -410h-129zM414 512h897l-449 895z" />
    <glyph glyph-name="B" unicode="B" horiz-adv-x="1662" 
d="M1184 801q193 -29 287 -136t94 -257q0 -185 -133 -296.5t-373 -111.5h-914v1536h881q211 0 323.5 -98.5t112.5 -272.5q0 -56 -15.5 -108.5t-47.5 -102t-87 -89.5t-128 -64zM266 737v-635h805q179 0 277 78.5t98 227.5q0 160 -119 244.5t-348 84.5h-713zM266 1434v-594
h719q160 0 259 84.5t99 240.5q0 121 -85 195t-242 74h-750z" />
    <glyph glyph-name="C" unicode="C" horiz-adv-x="1826" 
d="M1616 573h119q-31 -266 -249 -432t-542 -166q-247 0 -437 100t-294 280.5t-104 412.5t104 412.5t294 280.5t437 100q324 0 542 -166t249 -432h-119q-37 225 -218.5 358t-457.5 133q-324 0 -518.5 -187t-194.5 -499t194.5 -499t518.5 -187q276 0 457.5 133t218.5 358z" />
    <glyph glyph-name="D" unicode="D" horiz-adv-x="1771" 
d="M199 1536h620q186 0 343.5 -56.5t268 -156.5t172.5 -243t62 -312t-62 -312t-172.5 -243t-268 -156.5t-343.5 -56.5h-620v1536zM313 1436v-1336h506q322 0 524.5 186t202.5 482t-202.5 482t-524.5 186h-506z" />
    <glyph glyph-name="E" unicode="E" 
d="M258 1434v-615h1083v-102h-1083v-615h1135v-102h-1250v1536h1239v-102h-1124z" />
    <glyph glyph-name="F" unicode="F" horiz-adv-x="1449" 
d="M199 1536h1175v-102h-1061v-615h1030v-102h-1030v-717h-114v1536z" />
    <glyph glyph-name="G" unicode="G" horiz-adv-x="1884" 
d="M944 82q287 0 475 149t219 387h-598v103h709v-721h-98l-4 393q-83 -191 -269 -304.5t-434 -113.5q-245 0 -436 100t-296.5 280.5t-105.5 412.5t105.5 412.5t297.5 280.5t439 100q319 0 536.5 -164t244.5 -416h-119q-39 216 -216 344.5t-452 128.5q-326 0 -521.5 -187
t-195.5 -499t196 -499t523 -187z" />
    <glyph glyph-name="H" unicode="H" horiz-adv-x="1802" 
d="M199 0v1536h114v-717h1176v717h115v-1536h-115v717h-1176v-717h-114z" />
    <glyph glyph-name="I" unicode="I" horiz-adv-x="512" 
d="M199 0v1536h114v-1536h-114z" />
    <glyph glyph-name="J" unicode="J" horiz-adv-x="1536" 
d="M66 631v84h112v-84q0 -263 131 -406t402 -143q530 0 530 549v905h115v-905q0 -170 -47 -297.5t-134 -205t-203 -115.5t-261 -38t-261 38t-203 115.5t-134 205t-47 297.5z" />
    <glyph glyph-name="K" unicode="K" horiz-adv-x="1622" 
d="M313 0h-114v1536h114v-717h518l621 717h145l-659 -766l684 -770h-145l-646 717h-518v-717z" />
    <glyph glyph-name="L" unicode="L" horiz-adv-x="1454" 
d="M199 1536h114v-1434h1114v-102h-1228v1536z" />
    <glyph glyph-name="M" unicode="M" horiz-adv-x="2281" 
d="M1915 1536h168v-1536h-111v1407l-772 -1407h-119l-772 1407v-1407h-110v1536h168l774 -1425z" />
    <glyph glyph-name="N" unicode="N" horiz-adv-x="1841" 
d="M348 1536l1184 -1411v1411h110v-1536h-149l-1184 1411v-1411h-110v1536h149z" />
    <glyph glyph-name="O" unicode="O" horiz-adv-x="1904" 
d="M952 -25q-186 0 -343.5 58.5t-268 162t-172.5 251t-62 321.5t62 321.5t172.5 251t268 162t343.5 58.5t343.5 -58.5t268 -162t172.5 -251t62 -321.5t-62 -321.5t-172.5 -251t-268 -162t-343.5 -58.5zM952 82q331 0 529 187t198 499t-198 499t-529 187t-529 -187t-198 -499
t198 -499t529 -187z" />
    <glyph glyph-name="P" unicode="P" horiz-adv-x="1517" 
d="M199 1536h762q222 0 360.5 -119.5t138.5 -310.5t-138.5 -310.5t-360.5 -119.5h-648v-676h-114v1536zM313 778h650q172 0 275 89.5t103 238.5t-103 238.5t-275 89.5h-650v-656z" />
    <glyph glyph-name="Q" unicode="Q" horiz-adv-x="1904" 
d="M1559 -135l-203 192q-181 -82 -404 -82q-186 0 -343.5 58.5t-268 162t-172.5 251t-62 321.5t62 321.5t172.5 251t268 162t343.5 58.5t343.5 -58.5t268 -162t172.5 -251t62 -321.5q0 -214 -91.5 -384.5t-256.5 -274.5l256 -244h-147zM952 82q175 0 320 55l-408 391h148
l358 -342q148 87 228.5 237t80.5 345q0 312 -198 499t-529 187t-529 -187t-198 -499t198 -499t529 -187z" />
    <glyph glyph-name="R" unicode="R" horiz-adv-x="1566" 
d="M1329 0l-633 676h-383v-676h-114v1536h762q222 0 360.5 -119.5t138.5 -310.5t-138.5 -310.5t-360.5 -119.5h-109l633 -676h-156zM313 778h658q170 0 272.5 89.5t102.5 238.5t-102.5 238.5t-272.5 89.5h-658v-656z" />
    <glyph glyph-name="S" unicode="S" horiz-adv-x="1572" 
d="M88 496h115q23 -189 186.5 -302.5t415.5 -113.5q255 0 406 93t151 255q0 120 -101 185.5t-339 91.5l-260 28q-276 30 -400.5 127.5t-124.5 261.5q0 132 79.5 232t222 153.5t327.5 53.5q287 0 473.5 -131.5t198.5 -342.5h-115q-20 168 -172.5 268.5t-386.5 100.5
q-235 0 -373.5 -89t-138.5 -245q0 -123 99.5 -188.5t330.5 -91.5l248 -29q295 -34 421 -121.5t126 -259.5q0 -213 -183 -335t-491 -122q-199 0 -358.5 65.5t-253 184t-103.5 271.5z" />
    <glyph glyph-name="T" unicode="T" horiz-adv-x="1536" 
d="M711 0v1434h-684v102h1482v-102h-684v-1434h-114z" />
    <glyph glyph-name="U" unicode="U" horiz-adv-x="1728" 
d="M293 1536v-905q0 -250 155.5 -399.5t415.5 -149.5t416 149.5t156 399.5v905h114v-905q0 -292 -190 -474t-496 -182t-496 182t-190 474v905h115z" />
    <glyph glyph-name="V" unicode="V" horiz-adv-x="1716" 
d="M158 1536l700 -1425l698 1425h130l-768 -1536h-119l-768 1536h127z" />
    <glyph glyph-name="W" unicode="W" horiz-adv-x="2633" 
d="M1384 1536l555 -1419l525 1419h119l-576 -1536h-137l-553 1405l-553 -1405h-137l-576 1536h119l524 -1421l555 1421h135z" />
    <glyph glyph-name="X" unicode="X" horiz-adv-x="1466" 
d="M1407 1536l-598 -733l657 -803h-143l-590 723l-590 -723h-143l662 803l-603 733h138l536 -653l537 653h137z" />
    <glyph glyph-name="Y" unicode="Y" horiz-adv-x="1679" 
d="M897 0h-115v639l-731 897h137l652 -803l647 803h137l-727 -897v-639z" />
    <glyph glyph-name="Z" unicode="Z" horiz-adv-x="1497" 
d="M1427 0h-1359v102l1206 1332h-1196v102h1343v-102l-1204 -1332h1210v-102z" />
    <glyph glyph-name="bracketleft" unicode="[" horiz-adv-x="667" 
d="M186 1536h437v-94h-330v-1536h330v-94h-437v1724z" />
    <glyph glyph-name="backslash" unicode="\" horiz-adv-x="776" 
d="M152 1591l573 -1646h-100l-574 1646h101z" />
    <glyph glyph-name="bracketright" unicode="]" horiz-adv-x="667" 
d="M45 1536h436v-1724h-436v94h330v1536h-330v94z" />
    <glyph glyph-name="asciicircum" unicode="^" horiz-adv-x="1269" 
d="M1147 768h-127l-385 627l-387 -627h-127l467 768h92z" />
    <glyph glyph-name="underscore" unicode="_" horiz-adv-x="987" 
d="M-8 -147v86h1003v-86h-1003z" />
    <glyph glyph-name="grave" unicode="`" horiz-adv-x="528" 
d="M207 1602l239 -318h-120l-244 318h125z" />
    <glyph glyph-name="a" unicode="a" horiz-adv-x="1316" 
d="M1104 0v256q-60 -118 -199.5 -199.5t-341.5 -81.5q-138 0 -248 44.5t-175.5 131.5t-65.5 203q0 87 38 155.5t97 110.5t138.5 69t155.5 37.5t154 10.5q280 0 447 -65q0 185 -125 292t-354 107q-252 0 -443 -137v102q184 135 451 135q124 0 228 -32t183.5 -94.5
t124.5 -163.5t45 -232v-649h-110zM1104 567q-122 72 -395 72q-516 0 -516 -281q0 -131 107 -207.5t290 -76.5q102 0 195 34.5t164 96.5t113 156t42 206z" />
    <glyph glyph-name="b" unicode="b" horiz-adv-x="1538" 
d="M164 0v1577h110v-807q95 188 249 294.5t341 106.5q125 0 232.5 -44t184.5 -122t121 -189.5t44 -242.5t-44 -242.5t-121 -189.5t-184.5 -122t-232.5 -44q-187 0 -340.5 107t-249.5 295v-377h-110zM1331 573q0 218 -131.5 356t-335.5 138q-196 0 -349.5 -133t-246.5 -361
q93 -228 246.5 -360.5t349.5 -132.5q204 0 335.5 137.5t131.5 355.5z" />
    <glyph glyph-name="c" unicode="c" horiz-adv-x="1411" 
d="M1214 420h119q-37 -198 -207.5 -321.5t-406.5 -123.5q-278 0 -452.5 166.5t-174.5 431.5t174.5 431.5t452.5 166.5q236 0 406.5 -123t207.5 -321h-119q-35 155 -169.5 247.5t-325.5 92.5q-233 0 -372.5 -135t-139.5 -359t139.5 -358.5t372.5 -134.5q192 0 326.5 92.5
t168.5 247.5z" />
    <glyph glyph-name="d" unicode="d" horiz-adv-x="1527" 
d="M1374 1577v-1577h-110v377q-96 -188 -249.5 -295t-340.5 -107q-125 0 -232.5 44t-184.5 122t-121 189.5t-44 242.5t44 242.5t121 189.5t184.5 122t232.5 44q187 0 341 -106.5t249 -294.5v807h110zM207 573q0 -218 131.5 -355.5t335.5 -137.5q196 0 349.5 132.5
t246.5 360.5q-93 228 -246.5 361t-349.5 133q-204 0 -335.5 -138t-131.5 -356z" />
    <glyph glyph-name="e" unicode="e" horiz-adv-x="1396" 
d="M750 -25q-292 0 -475 166.5t-183 431.5q0 266 172 432t449 166q267 0 433.5 -170t166.5 -444h-1106q6 -217 154 -347t389 -130q288 0 528 194v-104q-105 -90 -248.5 -142.5t-279.5 -52.5zM713 1067q-208 0 -341.5 -111t-158.5 -301h979q-26 190 -154.5 301t-324.5 111z
" />
    <glyph glyph-name="f" unicode="f" horiz-adv-x="991" 
d="M981 985h-586v-985h-110v985h-258v100h258v48q0 100 24 182t74.5 148t138.5 102.5t207 36.5q138 0 268 -56v-108q-112 63 -256 63q-170 0 -258 -81.5t-88 -258.5v-76h586v-100z" />
    <glyph glyph-name="g" unicode="g" horiz-adv-x="1525" 
d="M645 57q-234 0 -392.5 155.5t-158.5 401.5t158.5 401.5t392.5 155.5q200 0 366 -110.5t246 -265.5v352h111v-842q0 -135 -33 -246t-91.5 -188.5t-141 -130t-179.5 -77.5t-208 -25q-295 0 -506 174v108q216 -178 500 -178q264 0 406 143t142 389v160q-80 -155 -246 -266
t-366 -111zM664 162q179 0 327.5 108t272.5 344q-122 236 -271.5 344.5t-328.5 108.5q-214 0 -334.5 -126t-120.5 -327t120.5 -326.5t334.5 -125.5z" />
    <glyph glyph-name="h" unicode="h" horiz-adv-x="1411" 
d="M164 0v1577h110v-715q66 146 195 227.5t297 81.5q238 0 368 -141.5t130 -402.5v-627h-111v604q0 230 -104.5 348.5t-307.5 118.5q-210 0 -338.5 -139.5t-128.5 -364.5v-567h-110z" />
    <glyph glyph-name="i" unicode="i" horiz-adv-x="438" 
d="M164 0v1147h110v-1147h-110zM219 1341q-43 0 -72.5 29.5t-29.5 71.5q0 41 29.5 70.5t72.5 29.5t73 -29.5t30 -70.5t-30 -71t-73 -30z" />
    <glyph glyph-name="j" unicode="j" horiz-adv-x="616" 
d="M453 1147v-1124q0 -84 -20.5 -151.5t-64 -121t-120.5 -83t-182 -29.5q-94 0 -189 27.5t-143 62.5v114q139 -100 311 -100q152 0 224.5 68.5t72.5 230.5v1106h111zM397 1341q-43 0 -72.5 29.5t-29.5 71.5q0 41 29.5 70.5t72.5 29.5t73 -29.5t30 -70.5t-30 -71t-73 -30z
" />
    <glyph glyph-name="k" unicode="k" horiz-adv-x="1284" 
d="M274 0h-110v1577h110v-950h367l457 520h141l-498 -565l539 -582h-145l-486 526h-375v-526z" />
    <glyph glyph-name="l" unicode="l" horiz-adv-x="438" 
d="M164 0v1577h110v-1577h-110z" />
    <glyph glyph-name="m" unicode="m" horiz-adv-x="2250" 
d="M1647 1171q218 0 337 -141.5t119 -402.5v-627h-110v604q0 230 -94 348.5t-277 118.5q-193 0 -310.5 -139.5t-117.5 -364.5v-567h-111v604q0 230 -93.5 348.5t-276.5 118.5q-193 0 -310.5 -139.5t-117.5 -364.5v-567h-111v1147h111v-277q62 142 179.5 221.5t272.5 79.5
q173 0 286 -91t151 -261q56 164 180 258t293 94z" />
    <glyph glyph-name="n" unicode="n" horiz-adv-x="1423" 
d="M778 1171q238 0 368 -141.5t130 -402.5v-627h-111v604q0 230 -104 348.5t-307 118.5q-211 0 -340 -139.5t-129 -364.5v-567h-111v1147h111v-285q67 146 195.5 227.5t297.5 81.5z" />
    <glyph glyph-name="o" unicode="o" 
d="M754 -25q-295 0 -479.5 166.5t-184.5 431.5t184.5 431.5t479.5 166.5q194 0 345 -75.5t234.5 -211.5t83.5 -311t-83.5 -311t-234.5 -211.5t-345 -75.5zM754 80q250 0 399.5 134.5t149.5 358.5q0 225 -149.5 359.5t-399.5 134.5t-399.5 -134.5t-149.5 -359.5
q0 -224 149.5 -358.5t399.5 -134.5z" />
    <glyph glyph-name="p" unicode="p" horiz-adv-x="1542" 
d="M164 -338v1485h110v-385q94 191 249 300t345 109q125 0 232.5 -44t184.5 -122t121 -189.5t44 -242.5t-44 -242.5t-121 -189.5t-184.5 -122t-232.5 -44q-190 0 -345 109.5t-249 300.5v-723h-110zM1335 573q0 218 -131.5 356t-335.5 138q-196 0 -349.5 -133t-246.5 -361
q93 -228 246.5 -360.5t349.5 -132.5q204 0 335.5 137.5t131.5 355.5z" />
    <glyph glyph-name="q" unicode="q" horiz-adv-x="1542" 
d="M1378 1147v-1485h-110v723q-94 -191 -249 -300.5t-345 -109.5q-125 0 -232.5 44t-184.5 122t-121 189.5t-44 242.5t44 242.5t121 189.5t184.5 122t232.5 44q190 0 345 -109t249 -300v385h110zM207 573q0 -218 131.5 -355.5t335.5 -137.5q196 0 349.5 132.5t246.5 360.5
q-93 228 -246.5 361t-349.5 133q-204 0 -335.5 -138t-131.5 -356z" />
    <glyph glyph-name="r" unicode="r" horiz-adv-x="946" 
d="M924 1147v-109q-73 27 -185 27q-201 0 -327.5 -138.5t-126.5 -359.5v-567h-111v1147h111v-273q59 138 181 217.5t284 79.5q107 0 174 -24z" />
    <glyph glyph-name="s" unicode="s" horiz-adv-x="1302" 
d="M1214 322q0 -154 -150.5 -250.5t-393.5 -96.5q-254 0 -418.5 115t-173.5 299h112q17 -139 151 -226t329 -87q192 0 311 68.5t119 177.5q0 90 -75.5 132.5t-276.5 65.5l-218 25q-220 24 -317.5 96t-97.5 201q0 153 138.5 241t367.5 88q246 0 406 -107.5t171 -277.5h-113
q-15 126 -145 205.5t-324 79.5q-186 0 -286.5 -58t-100.5 -165q0 -87 70.5 -133t239.5 -66l215 -24q257 -29 358.5 -96t101.5 -207z" />
    <glyph glyph-name="t" unicode="t" horiz-adv-x="1028" 
d="M264 1047h-258v61l258 31l41 301h70v-293h586v-100h-586v-668q0 -162 72.5 -230.5t224.5 -68.5q172 0 311 100v-114q-48 -35 -143 -63t-189 -28q-105 0 -182 29.5t-120.5 83t-64 121t-20.5 151.5v687z" />
    <glyph glyph-name="u" unicode="u" horiz-adv-x="1400" 
d="M1227 0h-111v295q-65 -151 -191 -235.5t-290 -84.5q-233 0 -360.5 142t-127.5 403v627h111v-604q0 -230 102 -348.5t299 -118.5q205 0 331 139.5t126 364.5v567h111v-1147z" />
    <glyph glyph-name="v" unicode="v" horiz-adv-x="1351" 
d="M156 1147l522 -1047l522 1047h119l-584 -1147h-119l-583 1147h123z" />
    <glyph glyph-name="w" unicode="w" horiz-adv-x="2156" 
d="M1141 1147l420 -1028l436 1028h119l-496 -1147h-115l-426 1022l-428 -1022h-114l-496 1147h119l436 -1028l420 1028h125z" />
    <glyph glyph-name="x" unicode="x" horiz-adv-x="1183" 
d="M135 0h-129l514 596l-481 551h143l414 -475l414 475h135l-481 -549l514 -598h-134l-454 522z" />
    <glyph glyph-name="y" unicode="y" horiz-adv-x="1376" 
d="M346 -362q-73 0 -131 18t-121 59v97q115 -72 248 -72q175 0 258 168l66 129h-68l-563 1110h123l532 -1061l537 1061h119l-660 -1288q-59 -113 -141.5 -167t-198.5 -54z" />
    <glyph glyph-name="z" unicode="z" horiz-adv-x="1220" 
d="M1153 0h-1087v92l942 959h-934v96h1075v-92l-942 -959h946v-96z" />
    <glyph glyph-name="braceleft" unicode="{" horiz-adv-x="704" 
d="M653 1536v-94h-157q-107 0 -152.5 -59.5t-19.5 -165.5l77 -318q21 -85 -7 -142t-91 -83q63 -26 91 -83t7 -142l-77 -318q-26 -106 19.5 -165.5t152.5 -59.5h157v-94h-164q-155 0 -231 89.5t-37 239.5l82 318q21 82 -19.5 126t-113.5 44h-98v90h98q73 0 113.5 44t19.5 126
l-82 317q-39 150 37 240t231 90h164z" />
    <glyph glyph-name="bar" unicode="|" horiz-adv-x="514" 
d="M199 -201v1737h116v-1737h-116z" />
    <glyph glyph-name="braceright" unicode="}" horiz-adv-x="704" 
d="M51 1442v94h164q155 0 231 -90t37 -240l-82 -317q-21 -81 20 -125.5t114 -44.5h98v-90h-98q-73 0 -114 -44.5t-20 -125.5l82 -318q39 -150 -37 -239.5t-231 -89.5h-164v94h158q107 0 152.5 59.5t19.5 165.5l-78 318q-21 85 7 142t91 83q-63 26 -91 83t-7 142l78 318
q26 106 -19.5 165.5t-152.5 59.5h-158z" />
    <glyph glyph-name="asciitilde" unicode="~" horiz-adv-x="1269" 
d="M61 643v102q160 62 330 62q85 0 244 -31t244 -31q169 0 329 62v-102q-160 -62 -329 -62q-85 0 -244 31t-244 31q-170 0 -330 -62z" />
    <glyph glyph-name="uni00A0" unicode="&#xa0;" horiz-adv-x="585" 
 />
    <glyph glyph-name="exclamdown" unicode="&#xa1;" horiz-adv-x="454" 
d="M266 829l17 -1146h-111l16 1146h78zM227 1231q41 0 70 -28.5t29 -69.5t-29 -70t-70 -29t-69.5 29t-28.5 70t28.5 69.5t69.5 28.5z" />
    <glyph glyph-name="cent" unicode="&#xa2;" horiz-adv-x="1476" 
d="M688 -168v145q-250 22 -402.5 185t-152.5 411t152.5 411t402.5 185v146h103v-144q223 -11 381.5 -132.5t193.5 -311.5h-119q-32 147 -155 239t-301 101v-987q178 9 301 100t155 240h119q-35 -190 -193.5 -312t-381.5 -133v-143h-103zM248 573q0 -206 119 -337.5
t321 -151.5v979q-202 -20 -321 -152t-119 -338z" />
    <glyph glyph-name="sterling" unicode="&#xa3;" horiz-adv-x="1490" 
d="M92 678v98h246q-100 149 -100 330q0 202 158.5 328.5t412.5 126.5q248 0 409 -115t171 -299h-123q-25 141 -148.5 225t-306.5 84q-209 0 -334 -95t-125 -255q0 -96 33.5 -173.5t93.5 -156.5h707v-98h-631q44 -63 67 -115t23 -112q0 -217 -278 -351h1042v-100h-1323v88
q218 55 331 147t113 197q0 65 -29.5 118.5t-88.5 127.5h-320z" />
    <glyph glyph-name="currency" unicode="&#xa4;" horiz-adv-x="1359" 
d="M1231 362l-68 -73l-153 135q-131 -94 -330 -94t-330 94l-153 -135l-68 73l152 130q-93 110 -93 264t93 264l-152 129l68 74l153 -136q132 95 330 95t330 -95l153 136l68 -74l-152 -129q92 -109 92 -264t-92 -264zM680 432q183 0 284 89.5t101 234.5t-101 234t-284 89
t-284 -89t-101 -234t101 -234.5t284 -89.5z" />
    <glyph glyph-name="yen" unicode="&#xa5;" horiz-adv-x="1550" 
d="M166 645v103h473l-578 788h136l579 -791l576 791h135l-574 -788h473v-103h-548l-4 -6v-156h552v-102h-552v-381h-115v381h-553v102h553v156l-4 6h-549z" />
    <glyph glyph-name="brokenbar" unicode="&#xa6;" horiz-adv-x="514" 
d="M199 -201v631h116v-631h-116zM315 1536v-631h-116v631h116z" />
    <glyph glyph-name="section" unicode="&#xa7;" horiz-adv-x="1570" 
d="M793 -285q-140 0 -256 35t-190.5 95t-117 135t-47.5 159h115q19 -139 145.5 -229t350.5 -90q221 0 333.5 68t112.5 171q0 86 -67.5 136.5t-247.5 107.5l-420 131q-205 64 -292 140.5t-87 201.5q0 157 170 242q-76 73 -76 192q0 155 149 253t412 98q140 0 256 -35
t190.5 -95t117 -135t47.5 -159h-115q-19 139 -145.5 229t-350.5 90q-221 0 -333.5 -68t-112.5 -171q0 -86 67.5 -136.5t247.5 -107.5l420 -131q205 -64 292 -140.5t87 -201.5q0 -157 -170 -242q76 -73 76 -192q0 -155 -149 -253t-412 -98zM602 870q-150 47 -235 95
q-127 -63 -127 -179q0 -87 70 -141t241 -108l420 -131q150 -47 235 -95q127 63 127 178q0 87 -70 141.5t-241 108.5z" />
    <glyph glyph-name="dieresis" unicode="&#xa8;" horiz-adv-x="946" 
d="M168 1341q-42 0 -72 29.5t-30 71.5q0 41 29.5 70.5t72.5 29.5t72.5 -29.5t29.5 -70.5q0 -42 -30 -71.5t-72 -29.5zM778 1341q-42 0 -72 29.5t-30 71.5q0 41 29.5 70.5t72.5 29.5t73 -29.5t30 -70.5t-30 -71t-73 -30z" />
    <glyph glyph-name="copyright" unicode="&#xa9;" horiz-adv-x="1902" 
d="M952 -25q-167 0 -317 59.5t-260 163.5t-174 252.5t-64 317.5q0 170 64 318.5t174 252t260 163t317 59.5t316.5 -59.5t259 -163t173.5 -252t64 -318.5q0 -226 -109.5 -408.5t-295 -283.5t-408.5 -101zM952 74q145 0 275 51.5t225.5 141.5t151 220t55.5 281t-55.5 281
t-151 220t-225.5 141.5t-275 51.5q-196 0 -357 -87t-256 -246.5t-95 -360.5t95 -360.5t256 -246.5t357 -87zM1337 655h115q-19 -173 -154.5 -280t-339.5 -107q-232 0 -375 138.5t-143 361.5t143.5 362.5t374.5 139.5q202 0 338.5 -107.5t155.5 -279.5h-115
q-22 131 -124 207.5t-257 76.5q-183 0 -291 -108.5t-108 -290.5t108 -290.5t291 -108.5q155 0 257 77t124 209z" />
    <glyph glyph-name="ordfeminine" unicode="&#xaa;" horiz-adv-x="1245" 
d="M1094 629h-103v309q-71 -153 -188.5 -241.5t-263.5 -88.5q-193 0 -318 131.5t-125 339.5q0 209 125 340t318 131q147 0 264.5 -87t187.5 -240v307h103v-901zM203 1079q0 -165 96 -267.5t246 -102.5q145 0 259.5 99.5t182.5 270.5q-68 172 -182 271.5t-260 99.5
q-151 0 -246.5 -103t-95.5 -268z" />
    <glyph glyph-name="guillemotleft" unicode="&#xab;" horiz-adv-x="1087" 
d="M137 649l316 438h122l-313 -438l313 -438h-122zM502 649l315 438h123l-313 -438l313 -438h-123z" />
    <glyph glyph-name="logicalnot" unicode="&#xac;" horiz-adv-x="1269" 
d="M1202 459h-98v430h-1049v102h1147v-532z" />
    <glyph glyph-name="uni00AD" unicode="&#xad;" horiz-adv-x="651" 
d="M117 672v106h418v-106h-418z" />
    <glyph glyph-name="registered" unicode="&#xae;" horiz-adv-x="1486" 
d="M743 354q-174 0 -313.5 78t-218 215.5t-78.5 308.5q0 128 46 240t126.5 191.5t194 125.5t243.5 46q174 0 313.5 -78t218.5 -216t79 -309t-79 -308.5t-218.5 -215.5t-313.5 -78zM743 440q221 0 366.5 146.5t145.5 369.5t-145.5 370t-366.5 147t-366.5 -147t-145.5 -370
t145.5 -369.5t366.5 -146.5zM481 596v723h326q108 0 176 -59.5t68 -153.5q0 -92 -66 -151t-172 -60l240 -299h-123l-230 299h-122v-299h-97zM578 1239v-266h223q69 0 110 36.5t41 96.5q0 61 -41 97t-110 36h-223z" />
    <glyph glyph-name="macron" unicode="&#xaf;" horiz-adv-x="956" 
d="M874 1395h-792v98h792v-98z" />
    <glyph glyph-name="degree" unicode="&#xb0;" horiz-adv-x="806" 
d="M403 1079q-118 0 -189 65t-71 171t71 170.5t189 64.5t189.5 -64.5t71.5 -170.5t-71.5 -171t-189.5 -65zM403 1165q81 0 125.5 39.5t44.5 110.5t-44.5 110t-125.5 39t-125.5 -39t-44.5 -110t44.5 -110.5t125.5 -39.5z" />
    <glyph glyph-name="plusminus" unicode="&#xb1;" horiz-adv-x="1269" 
d="M686 397h-102v389h-523v103h523v389h102v-389h522v-103h-522v-389zM61 162v102h1147v-102h-1147z" />
    <glyph glyph-name="twosuperior" unicode="&#xb2;" horiz-adv-x="1093" 
d="M229 1495h-104q10 124 126.5 202.5t289.5 78.5q190 0 292.5 -77t102.5 -200q0 -53 -14 -96.5t-54.5 -97t-121 -114t-205.5 -132.5l-232 -133h666v-88h-848v80l328 190q87 50 148 92t116 91t82.5 100t27.5 104q0 87 -74.5 140t-213.5 53q-130 0 -216 -52.5t-96 -140.5z
" />
    <glyph glyph-name="threesuperior" unicode="&#xb3;" horiz-adv-x="1087" 
d="M215 1454h-102q17 148 142.5 234t315.5 86q185 0 287.5 -71t102.5 -177q0 -77 -52 -132t-153 -79q118 -22 173.5 -81t55.5 -138q0 -123 -112 -200t-320 -77q-204 0 -333 94.5t-138 241.5h102q15 -120 111 -184t258 -64q326 0 326 201q0 160 -265 160h-202v82h202
q129 0 185.5 48t56.5 118q0 79 -71 124.5t-214 45.5q-152 0 -245.5 -62t-110.5 -170z" />
    <glyph glyph-name="acute" unicode="&#xb4;" horiz-adv-x="528" 
d="M82 1284l240 318h124l-243 -318h-121z" />
    <glyph glyph-name="paragraph" unicode="&#xb6;" horiz-adv-x="1495" 
d="M449 1536h491v-1536h-115v745h-376q-177 0 -287.5 110.5t-110.5 285.5q0 174 111.5 284.5t286.5 110.5zM1294 0h-114v1536h114v-1536z" />
    <glyph glyph-name="periodcentered" unicode="&#xb7;" horiz-adv-x="491" 
d="M246 659q-41 0 -70 29t-29 70t29 69.5t70 28.5t69.5 -28.5t28.5 -69.5t-28.5 -70t-69.5 -29z" />
    <glyph glyph-name="cedilla" unicode="&#xb8;" horiz-adv-x="737" 
d="M168 -207l135 215h98l-82 -125q49 21 125 21q95 0 153 -43.5t58 -116.5q0 -80 -73.5 -129t-194.5 -49q-109 0 -193 45.5t-112 118.5h106q50 -78 199 -78q81 0 121.5 25t40.5 67q0 38 -36 59t-101 21q-84 0 -144 -31h-100z" />
    <glyph glyph-name="onesuperior" unicode="&#xb9;" horiz-adv-x="899" 
d="M469 1759h84v-833h281v-88h-705v88h324v735l-316 -76v96z" />
    <glyph glyph-name="ordmasculine" unicode="&#xba;" horiz-adv-x="1204" 
d="M600 608q-226 0 -367 131t-141 340q0 210 141.5 340.5t366.5 130.5q226 0 368 -130.5t142 -340.5q0 -209 -141.5 -340t-368.5 -131zM600 709q185 0 294.5 99.5t109.5 270.5q0 173 -109.5 273t-294.5 100q-184 0 -292.5 -100t-108.5 -273q0 -171 108.5 -270.5t292.5 -99.5
z" />
    <glyph glyph-name="guillemotright" unicode="&#xbb;" horiz-adv-x="1087" 
d="M635 1087l315 -438l-315 -438h-123l313 438l-313 438h123zM270 1087l316 -438l-316 -438h-123l314 438l-314 438h123z" />
    <glyph glyph-name="onequarter" unicode="&#xbc;" horiz-adv-x="2064" 
d="M618 0l830 1536h111l-830 -1536h-111zM1722 922h117v-596h184v-86h-184v-240h-98v240h-588v63zM436 1536h84v-834h281v-88h-705v88h324v736l-316 -76v96zM1296 326h445v481z" />
    <glyph glyph-name="onehalf" unicode="&#xbd;" horiz-adv-x="2242" 
d="M1401 657h-105q10 124 126.5 202.5t289.5 78.5q190 0 292.5 -76.5t102.5 -199.5q0 -53 -14 -96.5t-54.5 -97t-121 -114.5t-205.5 -133l-231 -133h665v-88h-848v80l328 190q87 51 148 92.5t116.5 90.5t83 100t27.5 104q0 87 -75 140t-214 53q-130 0 -215.5 -52t-95.5 -141
zM453 1536h84v-834h280v-88h-704v88h323v736l-315 -76v96zM606 0l830 1536h110l-829 -1536h-111z" />
    <glyph glyph-name="threequarters" unicode="&#xbe;" horiz-adv-x="2199" 
d="M758 0l829 1536h111l-830 -1536h-110zM1853 922h117v-596h184v-86h-184v-240h-98v240h-588v63zM221 1233h-102q17 147 143 233t316 86q185 0 287 -70.5t102 -176.5q0 -77 -52 -132t-153 -79q118 -22 173.5 -81.5t55.5 -138.5q0 -123 -112 -199.5t-320 -76.5
q-204 0 -333 94.5t-138 241.5h102q15 -120 111 -184t258 -64q326 0 326 201q0 160 -264 160h-203v81h203q129 0 185 48t56 118q0 80 -70.5 125t-213.5 45q-152 0 -246 -61.5t-111 -169.5zM1427 326h445v481z" />
    <glyph glyph-name="questiondown" unicode="&#xbf;" horiz-adv-x="1220" 
d="M686 733q0 -93 -45 -153.5t-147 -124.5l-154 -97q-79 -50 -127.5 -117.5t-48.5 -140.5q0 -158 117.5 -250t320.5 -92q201 0 326.5 98t142.5 267h113q-20 -218 -174 -341.5t-408 -123.5q-256 0 -402.5 117t-146.5 321q0 94 61.5 185t168.5 157l157 97q78 49 114 90.5
t36 105.5v98h88q8 -44 8 -96zM637 1231q41 0 69.5 -28.5t28.5 -69.5t-28.5 -70t-69.5 -29t-69.5 29t-28.5 70t28.5 69.5t69.5 28.5z" />
    <glyph glyph-name="Agrave" unicode="&#xc0;" horiz-adv-x="1724" 
d="M805 1536h115l776 -1536h-129l-205 410h-1000l-204 -410h-129zM414 512h897l-449 895zM657 1950l297 -277h-133l-315 277h151z" />
    <glyph glyph-name="Aacute" unicode="&#xc1;" horiz-adv-x="1724" 
d="M805 1536h115l776 -1536h-129l-205 410h-1000l-204 -410h-129zM414 512h897l-449 895zM743 1673l297 277h152l-315 -277h-134z" />
    <glyph glyph-name="Acircumflex" unicode="&#xc2;" horiz-adv-x="1724" 
d="M805 1536h115l776 -1536h-129l-205 410h-1000l-204 -410h-129zM500 1673l293 277h139l293 -277h-123l-240 197l-239 -197h-123zM414 512h897l-449 895z" />
    <glyph glyph-name="Atilde" unicode="&#xc3;" horiz-adv-x="1724" 
d="M805 1536h115l776 -1536h-129l-205 410h-1000l-204 -410h-129zM414 512h897l-449 895zM543 1690h-94q8 107 66 172t149 65q48 0 107.5 -21.5t105.5 -48t98 -48t86 -21.5q49 0 80.5 36.5t40.5 102.5h94q-8 -107 -66 -172t-149 -65q-48 0 -107.5 21.5t-105.5 48t-98 48
t-86 21.5q-49 0 -80.5 -36.5t-40.5 -102.5z" />
    <glyph glyph-name="Adieresis" unicode="&#xc4;" horiz-adv-x="1724" 
d="M805 1536h115l776 -1536h-129l-205 410h-1000l-204 -410h-129zM414 512h897l-449 895zM555 1731q-43 0 -72.5 29.5t-29.5 70.5t29.5 70.5t72.5 29.5t72.5 -29.5t29.5 -70.5t-29.5 -70.5t-72.5 -29.5zM1169 1731q-43 0 -72.5 29.5t-29.5 70.5t29.5 70.5t72.5 29.5
t73 -29.5t30 -70.5t-30 -70.5t-73 -29.5z" />
    <glyph glyph-name="Aring" unicode="&#xc5;" horiz-adv-x="1724" 
d="M805 1536h115l776 -1536h-129l-205 410h-1000l-204 -410h-129zM414 512h897l-449 895zM862 1653q-118 0 -189 53t-71 141t71 141.5t189 53.5t189 -53.5t71 -141.5t-71 -141t-189 -53zM862 1739q82 0 126 28t44 80t-44 80.5t-126 28.5t-126 -28.5t-44 -80.5t44 -80
t126 -28z" />
    <glyph glyph-name="AE" unicode="&#xc6;" horiz-adv-x="2541" 
d="M2316 717h-1003l291 -615h909v-102h-983l-195 410h-979l-194 -410h-129l733 1536h1591v-102h-1386l293 -615h1052v-102zM406 512h880l-440 928z" />
    <glyph glyph-name="Ccedilla" unicode="&#xc7;" horiz-adv-x="1824" 
d="M756 -207l116 184q-228 14 -402 117.5t-269 278t-95 395.5q0 232 104 412.5t294.5 280.5t437.5 100q324 0 542 -166t249 -432h-119q-37 225 -218.5 358t-457.5 133q-324 0 -518.5 -187t-194.5 -499t194.5 -499t518.5 -187q276 0 457.5 133t218.5 358h119
q-20 -172 -121 -306t-267.5 -210.5t-373.5 -81.5l-62 -90q52 19 123 19q96 0 154.5 -43.5t58.5 -116.5q0 -80 -74 -129t-196 -49q-110 0 -195.5 45.5t-113.5 118.5h108q57 -76 201 -76q80 0 120 25t40 65q0 37 -36.5 57.5t-99.5 20.5q-79 0 -143 -29h-100z" />
    <glyph glyph-name="Egrave" unicode="&#xc8;" 
d="M258 1434v-615h1083v-102h-1083v-615h1135v-102h-1250v1536h1239v-102h-1124zM561 1950l297 -277h-133l-315 277h151z" />
    <glyph glyph-name="Eacute" unicode="&#xc9;" 
d="M258 1434v-615h1083v-102h-1083v-615h1135v-102h-1250v1536h1239v-102h-1124zM647 1673l297 277h152l-316 -277h-133z" />
    <glyph glyph-name="Ecircumflex" unicode="&#xca;" 
d="M258 1434v-615h1083v-102h-1083v-615h1135v-102h-1250v1536h1239v-102h-1124zM403 1673l293 277h140l292 -277h-122l-240 197l-240 -197h-123z" />
    <glyph glyph-name="Edieresis" unicode="&#xcb;" 
d="M258 1434v-615h1083v-102h-1083v-615h1135v-102h-1250v1536h1239v-102h-1124zM459 1731q-43 0 -73 29.5t-30 70.5t30 70.5t73 29.5t72.5 -29.5t29.5 -70.5t-29.5 -70.5t-72.5 -29.5zM1073 1731q-43 0 -72.5 29.5t-29.5 70.5t29.5 70.5t72.5 29.5t73 -29.5t30 -70.5
t-30 -70.5t-73 -29.5z" />
    <glyph glyph-name="Igrave" unicode="&#xcc;" horiz-adv-x="512" 
d="M199 0v1536h114v-1536h-114zM51 1950l297 -277h-133l-315 277h151z" />
    <glyph glyph-name="Iacute" unicode="&#xcd;" horiz-adv-x="512" 
d="M199 0v1536h114v-1536h-114zM137 1673l297 277h152l-316 -277h-133z" />
    <glyph glyph-name="Icircumflex" unicode="&#xce;" horiz-adv-x="512" 
d="M199 0v1536h114v-1536h-114zM-49 1673l235 277h140l235 -277h-123l-182 193l-182 -193h-123z" />
    <glyph glyph-name="Idieresis" unicode="&#xcf;" horiz-adv-x="512" 
d="M199 0v1536h114v-1536h-114zM86 1731q-43 0 -72.5 29.5t-29.5 70.5t29.5 70.5t72.5 29.5t72.5 -29.5t29.5 -70.5t-29.5 -70.5t-72.5 -29.5zM426 1731q-43 0 -72.5 29.5t-29.5 70.5t29.5 70.5t72.5 29.5t72.5 -29.5t29.5 -70.5t-29.5 -70.5t-72.5 -29.5z" />
    <glyph glyph-name="Eth" unicode="&#xd0;" horiz-adv-x="1847" 
d="M41 719v102h233v715h621q186 0 343.5 -56.5t268 -156.5t172.5 -243t62 -312t-62 -312t-172.5 -243t-268 -156.5t-343.5 -56.5h-621v719h-233zM389 1436v-615h502v-102h-502v-619h506q322 0 524.5 186t202.5 482t-202.5 482t-524.5 186h-506z" />
    <glyph glyph-name="Ntilde" unicode="&#xd1;" horiz-adv-x="1841" 
d="M348 1536l1184 -1411v1411h110v-1536h-149l-1184 1411v-1411h-110v1536h149zM627 1690h-95q8 107 66.5 172t149.5 65q48 0 107.5 -21.5t105.5 -48t98 -48t86 -21.5q49 0 80.5 36.5t40.5 102.5h94q-8 -107 -66 -172t-149 -65q-48 0 -107.5 21.5t-105.5 48t-98 48t-86 21.5
q-49 0 -80.5 -36.5t-40.5 -102.5z" />
    <glyph glyph-name="Ograve" unicode="&#xd2;" horiz-adv-x="1904" 
d="M952 -25q-186 0 -343.5 58.5t-268 162t-172.5 251t-62 321.5t62 321.5t172.5 251t268 162t343.5 58.5t343.5 -58.5t268 -162t172.5 -251t62 -321.5t-62 -321.5t-172.5 -251t-268 -162t-343.5 -58.5zM952 82q331 0 529 187t198 499t-198 499t-529 187t-529 -187t-198 -499
t198 -499t529 -187zM748 1950l296 -277h-133l-315 277h152z" />
    <glyph glyph-name="Oacute" unicode="&#xd3;" horiz-adv-x="1904" 
d="M952 -25q-186 0 -343.5 58.5t-268 162t-172.5 251t-62 321.5t62 321.5t172.5 251t268 162t343.5 58.5t343.5 -58.5t268 -162t172.5 -251t62 -321.5t-62 -321.5t-172.5 -251t-268 -162t-343.5 -58.5zM952 82q331 0 529 187t198 499t-198 499t-529 187t-529 -187t-198 -499
t198 -499t529 -187zM834 1673l296 277h152l-315 -277h-133z" />
    <glyph glyph-name="Ocircumflex" unicode="&#xd4;" horiz-adv-x="1904" 
d="M952 -25q-186 0 -343.5 58.5t-268 162t-172.5 251t-62 321.5t62 321.5t172.5 251t268 162t343.5 58.5t343.5 -58.5t268 -162t172.5 -251t62 -321.5t-62 -321.5t-172.5 -251t-268 -162t-343.5 -58.5zM590 1673l293 277h139l293 -277h-123l-240 197l-239 -197h-123zM952 82
q331 0 529 187t198 499t-198 499t-529 187t-529 -187t-198 -499t198 -499t529 -187z" />
    <glyph glyph-name="Otilde" unicode="&#xd5;" horiz-adv-x="1904" 
d="M952 -25q-186 0 -343.5 58.5t-268 162t-172.5 251t-62 321.5t62 321.5t172.5 251t268 162t343.5 58.5t343.5 -58.5t268 -162t172.5 -251t62 -321.5t-62 -321.5t-172.5 -251t-268 -162t-343.5 -58.5zM952 82q331 0 529 187t198 499t-198 499t-529 187t-529 -187t-198 -499
t198 -499t529 -187zM633 1690h-94q8 107 66 172t149 65q48 0 107.5 -21.5t105.5 -48t98 -48t86 -21.5q49 0 80.5 36.5t40.5 102.5h94q-8 -107 -66 -172t-149 -65q-48 0 -107.5 21.5t-105.5 48t-98 48t-86 21.5q-49 0 -80.5 -36.5t-40.5 -102.5z" />
    <glyph glyph-name="Odieresis" unicode="&#xd6;" horiz-adv-x="1904" 
d="M952 -25q-186 0 -343.5 58.5t-268 162t-172.5 251t-62 321.5t62 321.5t172.5 251t268 162t343.5 58.5t343.5 -58.5t268 -162t172.5 -251t62 -321.5t-62 -321.5t-172.5 -251t-268 -162t-343.5 -58.5zM952 82q331 0 529 187t198 499t-198 499t-529 187t-529 -187t-198 -499
t198 -499t529 -187zM645 1731q-43 0 -72.5 29.5t-29.5 70.5t29.5 70.5t72.5 29.5t73 -29.5t30 -70.5t-30 -70.5t-73 -29.5zM1260 1731q-43 0 -73 29.5t-30 70.5t30 70.5t73 29.5t72.5 -29.5t29.5 -70.5t-29.5 -70.5t-72.5 -29.5z" />
    <glyph glyph-name="multiply" unicode="&#xd7;" horiz-adv-x="1269" 
d="M266 268l-71 74l368 369l-368 368l71 74l371 -371l369 371l71 -74l-368 -368l368 -369l-71 -74l-369 371z" />
    <glyph glyph-name="Oslash" unicode="&#xd8;" horiz-adv-x="1904" 
d="M147 -20l199 213q-116 106 -178 252.5t-62 322.5q0 174 62 321.5t172.5 251t268 162t343.5 58.5q309 0 527 -154l139 149h139l-198 -213q115 -106 177 -252.5t62 -322.5q0 -174 -62 -321.5t-172.5 -251t-268 -162t-343.5 -58.5q-308 0 -526 154l-139 -149h-140zM225 768
q0 -310 195 -496l985 1057q-186 125 -453 125q-331 0 -529 -187t-198 -499zM952 82q331 0 529 187t198 499q0 311 -194 496l-985 -1057q186 -125 452 -125z" />
    <glyph glyph-name="Ugrave" unicode="&#xd9;" horiz-adv-x="1728" 
d="M293 1536v-905q0 -250 155.5 -399.5t415.5 -149.5t416 149.5t156 399.5v905h114v-905q0 -292 -190 -474t-496 -182t-496 182t-190 474v905h115zM659 1950l297 -277h-133l-315 277h151z" />
    <glyph glyph-name="Uacute" unicode="&#xda;" horiz-adv-x="1728" 
d="M293 1536v-905q0 -250 155.5 -399.5t415.5 -149.5t416 149.5t156 399.5v905h114v-905q0 -292 -190 -474t-496 -182t-496 182t-190 474v905h115zM745 1673l297 277h152l-315 -277h-134z" />
    <glyph glyph-name="Ucircumflex" unicode="&#xdb;" horiz-adv-x="1728" 
d="M293 1536v-905q0 -250 155.5 -399.5t415.5 -149.5t416 149.5t156 399.5v905h114v-905q0 -292 -190 -474t-496 -182t-496 182t-190 474v905h115zM502 1673l293 277h139l293 -277h-123l-240 197l-239 -197h-123z" />
    <glyph glyph-name="Udieresis" unicode="&#xdc;" horiz-adv-x="1728" 
d="M293 1536v-905q0 -250 155.5 -399.5t415.5 -149.5t416 149.5t156 399.5v905h114v-905q0 -292 -190 -474t-496 -182t-496 182t-190 474v905h115zM557 1731q-43 0 -72.5 29.5t-29.5 70.5t29.5 70.5t72.5 29.5t72.5 -29.5t29.5 -70.5t-29.5 -70.5t-72.5 -29.5zM1171 1731
q-43 0 -72.5 29.5t-29.5 70.5t29.5 70.5t72.5 29.5t73 -29.5t30 -70.5t-30 -70.5t-73 -29.5z" />
    <glyph glyph-name="Yacute" unicode="&#xdd;" horiz-adv-x="1679" 
d="M897 0h-115v639l-731 897h137l652 -803l647 803h137l-727 -897v-639zM719 1673l297 277h151l-315 -277h-133z" />
    <glyph glyph-name="Thorn" unicode="&#xde;" horiz-adv-x="1548" 
d="M199 0v1536h114v-328h648q222 0 360.5 -119.5t138.5 -310.5t-138.5 -310.5t-360.5 -119.5h-648v-348h-114zM313 1106v-655h650q172 0 275 89t103 238t-103 238.5t-275 89.5h-650z" />
    <glyph glyph-name="germandbls" unicode="&#xdf;" horiz-adv-x="1562" 
d="M274 0h-110v1071q0 241 158 386t426 145q234 0 379 -107.5t145 -286.5q0 -128 -79 -220.5t-222 -135.5q245 -20 376.5 -130.5t131.5 -297.5q0 -95 -34 -176t-99.5 -142t-171 -96t-240.5 -35q-220 0 -447 91v108q218 -94 437 -94q221 0 330.5 92t109.5 250
q0 170 -146.5 270.5t-455.5 100.5h-115v98h96q195 0 305.5 84t110.5 219q0 139 -112.5 221t-298.5 82q-217 0 -345.5 -114.5t-128.5 -305.5v-1077z" />
    <glyph glyph-name="agrave" unicode="&#xe0;" horiz-adv-x="1527" 
d="M1104 0v256q-60 -118 -199.5 -199.5t-341.5 -81.5q-138 0 -248 44.5t-175.5 131.5t-65.5 203q0 87 38 155.5t97 110.5t138.5 69t155.5 37.5t154 10.5q280 0 447 -65q0 185 -125 292t-354 107q-252 0 -443 -137v102q184 135 451 135q124 0 228 -32t183.5 -94.5
t124.5 -163.5t45 -232v-649h-110zM1104 567q-122 72 -395 72q-516 0 -516 -281q0 -131 107 -207.5t290 -76.5q102 0 195 34.5t164 96.5t113 156t42 206zM590 1602l239 -318h-120l-244 318h125z" />
    <glyph glyph-name="aacute" unicode="&#xe1;" horiz-adv-x="1527" 
d="M1104 0v256q-60 -118 -199.5 -199.5t-341.5 -81.5q-138 0 -248 44.5t-175.5 131.5t-65.5 203q0 87 38 155.5t97 110.5t138.5 69t155.5 37.5t154 10.5q280 0 447 -65q0 185 -125 292t-354 107q-252 0 -443 -137v102q184 135 451 135q124 0 228 -32t183.5 -94.5
t124.5 -163.5t45 -232v-649h-110zM1104 567q-122 72 -395 72q-516 0 -516 -281q0 -131 107 -207.5t290 -76.5q102 0 195 34.5t164 96.5t113 156t42 206zM645 1284l240 318h125l-244 -318h-121z" />
    <glyph glyph-name="acircumflex" unicode="&#xe2;" horiz-adv-x="1527" 
d="M1104 0v256q-60 -118 -199.5 -199.5t-341.5 -81.5q-138 0 -248 44.5t-175.5 131.5t-65.5 203q0 87 38 155.5t97 110.5t138.5 69t155.5 37.5t154 10.5q280 0 447 -65q0 185 -125 292t-354 107q-252 0 -443 -137v102q184 135 451 135q124 0 228 -32t183.5 -94.5
t124.5 -163.5t45 -232v-649h-110zM375 1284l293 318h139l293 -318h-123l-240 236l-239 -236h-123zM1104 567q-122 72 -395 72q-516 0 -516 -281q0 -131 107 -207.5t290 -76.5q102 0 195 34.5t164 96.5t113 156t42 206z" />
    <glyph glyph-name="atilde" unicode="&#xe3;" horiz-adv-x="1527" 
d="M1104 0v256q-60 -118 -199.5 -199.5t-341.5 -81.5q-138 0 -248 44.5t-175.5 131.5t-65.5 203q0 87 38 155.5t97 110.5t138.5 69t155.5 37.5t154 10.5q280 0 447 -65q0 185 -125 292t-354 107q-252 0 -443 -137v102q184 135 451 135q124 0 228 -32t183.5 -94.5
t124.5 -163.5t45 -232v-649h-110zM1104 567q-122 72 -395 72q-516 0 -516 -281q0 -131 107 -207.5t290 -76.5q102 0 195 34.5t164 96.5t113 156t42 206zM438 1341h-94q8 107 66 172.5t149 65.5q43 0 96.5 -21.5t94.5 -48t87.5 -48t77.5 -21.5q49 0 80.5 36.5t40.5 102.5h94
q-8 -107 -66 -172.5t-149 -65.5q-43 0 -96.5 22t-94.5 48t-87.5 48t-77.5 22q-49 0 -80.5 -37t-40.5 -103z" />
    <glyph glyph-name="adieresis" unicode="&#xe4;" horiz-adv-x="1527" 
d="M1104 0v256q-60 -118 -199.5 -199.5t-341.5 -81.5q-138 0 -248 44.5t-175.5 131.5t-65.5 203q0 87 38 155.5t97 110.5t138.5 69t155.5 37.5t154 10.5q280 0 447 -65q0 185 -125 292t-354 107q-252 0 -443 -137v102q184 135 451 135q124 0 228 -32t183.5 -94.5
t124.5 -163.5t45 -232v-649h-110zM1104 567q-122 72 -395 72q-516 0 -516 -281q0 -131 107 -207.5t290 -76.5q102 0 195 34.5t164 96.5t113 156t42 206zM432 1341q-42 0 -72 29.5t-30 71.5q0 41 29.5 70.5t72.5 29.5t73 -29.5t30 -70.5t-30 -71t-73 -30zM1042 1341
q-42 0 -72 29.5t-30 71.5q0 41 29.5 70.5t72.5 29.5t73 -29.5t30 -70.5t-30 -71t-73 -30z" />
    <glyph glyph-name="aring" unicode="&#xe5;" horiz-adv-x="1527" 
d="M1104 0v256q-60 -118 -199.5 -199.5t-341.5 -81.5q-138 0 -248 44.5t-175.5 131.5t-65.5 203q0 87 38 155.5t97 110.5t138.5 69t155.5 37.5t154 10.5q280 0 447 -65q0 185 -125 292t-354 107q-252 0 -443 -137v102q184 135 451 135q124 0 228 -32t183.5 -94.5
t124.5 -163.5t45 -232v-649h-110zM1104 567q-122 72 -395 72q-516 0 -516 -281q0 -131 107 -207.5t290 -76.5q102 0 195 34.5t164 96.5t113 156t42 206zM737 1264q-118 0 -189 59t-71 156t71 156t189 59t189 -59t71 -156t-71 -156t-189 -59zM737 1350q82 0 126 33.5t44 95.5
t-44 95.5t-126 33.5t-126 -33.5t-44 -95.5t44 -95.5t126 -33.5z" />
    <glyph glyph-name="ae" unicode="&#xe6;" horiz-adv-x="2543" 
d="M1339 0h-92l-6 334q-97 -169 -243.5 -264t-323.5 -95q-125 0 -232.5 44t-184.5 122t-121 189.5t-44 242.5t44 242.5t121 189.5t184.5 122t232.5 44q177 0 323.5 -94.5t243.5 -263.5l6 334h92l4 -279q72 145 211.5 224t311.5 79q137 0 249.5 -49t187 -135t115 -202.5
t40.5 -252.5h-1088q13 -206 158 -329t373 -123q282 0 522 194v-104q-89 -78 -227 -136.5t-295 -58.5q-190 0 -337 83t-221 229zM207 573q0 -218 131.5 -355.5t335.5 -137.5q196 0 349.5 132.5t246.5 360.5q-93 228 -246.5 361t-349.5 133q-204 0 -335.5 -138t-131.5 -356z
M1866 1067q-207 0 -342 -118.5t-154 -317.5h969q-27 202 -152 319t-321 117z" />
    <glyph glyph-name="ccedilla" unicode="&#xe7;" horiz-adv-x="1411" 
d="M541 -207l116 184q-254 20 -409.5 183t-155.5 413q0 265 174.5 431.5t452.5 166.5q236 0 406.5 -123t207.5 -321h-119q-35 155 -169.5 247.5t-325.5 92.5q-233 0 -372.5 -135t-139.5 -359t139.5 -358.5t372.5 -134.5q192 0 326.5 92.5t168.5 247.5h119
q-35 -190 -195 -313t-384 -132l-62 -92q50 21 125 21q95 0 153 -43.5t58 -116.5q0 -80 -73.5 -129t-194.5 -49q-109 0 -193 45.5t-112 118.5h106q50 -78 199 -78q81 0 121.5 25t40.5 67q0 38 -36.5 59t-101.5 21q-83 0 -143 -31h-100z" />
    <glyph glyph-name="egrave" unicode="&#xe8;" horiz-adv-x="1396" 
d="M750 -25q-292 0 -475 166.5t-183 431.5q0 266 172 432t449 166q267 0 433.5 -170t166.5 -444h-1106q6 -217 154 -347t389 -130q288 0 528 194v-104q-105 -90 -248.5 -142.5t-279.5 -52.5zM713 1067q-208 0 -341.5 -111t-158.5 -301h979q-26 190 -154.5 301t-324.5 111z
M555 1602l240 -318h-121l-244 318h125z" />
    <glyph glyph-name="eacute" unicode="&#xe9;" horiz-adv-x="1396" 
d="M750 -25q-292 0 -475 166.5t-183 431.5q0 266 172 432t449 166q267 0 433.5 -170t166.5 -444h-1106q6 -217 154 -347t389 -130q288 0 528 194v-104q-105 -90 -248.5 -142.5t-279.5 -52.5zM713 1067q-208 0 -341.5 -111t-158.5 -301h979q-26 190 -154.5 301t-324.5 111z
M610 1284l240 318h125l-244 -318h-121z" />
    <glyph glyph-name="ecircumflex" unicode="&#xea;" horiz-adv-x="1396" 
d="M750 -25q-292 0 -475 166.5t-183 431.5q0 266 172 432t449 166q267 0 433.5 -170t166.5 -444h-1106q6 -217 154 -347t389 -130q288 0 528 194v-104q-105 -90 -248.5 -142.5t-279.5 -52.5zM340 1284l293 318h139l293 -318h-123l-240 236l-239 -236h-123zM713 1067
q-208 0 -341.5 -111t-158.5 -301h979q-26 190 -154.5 301t-324.5 111z" />
    <glyph glyph-name="edieresis" unicode="&#xeb;" horiz-adv-x="1396" 
d="M750 -25q-292 0 -475 166.5t-183 431.5q0 266 172 432t449 166q267 0 433.5 -170t166.5 -444h-1106q6 -217 154 -347t389 -130q288 0 528 194v-104q-105 -90 -248.5 -142.5t-279.5 -52.5zM713 1067q-208 0 -341.5 -111t-158.5 -301h979q-26 190 -154.5 301t-324.5 111z
M397 1341q-43 0 -72.5 29.5t-29.5 71.5q0 41 29.5 70.5t72.5 29.5t73 -29.5t30 -70.5t-30 -71t-73 -30zM1008 1341q-43 0 -73 30t-30 71t30 70.5t73 29.5t72.5 -29.5t29.5 -70.5q0 -42 -30 -71.5t-72 -29.5z" />
    <glyph glyph-name="igrave" unicode="&#xec;" horiz-adv-x="438" 
d="M164 0v1147h110v-1147h-110zM72 1602l239 -318h-121l-243 318h125z" />
    <glyph glyph-name="iacute" unicode="&#xed;" horiz-adv-x="438" 
d="M164 0v1147h110v-1147h-110zM127 1284l240 318h125l-244 -318h-121z" />
    <glyph glyph-name="icircumflex" unicode="&#xee;" horiz-adv-x="438" 
d="M164 0v1147h110v-1147h-110zM-86 1284l236 318h139l235 -318h-123l-182 229l-182 -229h-123z" />
    <glyph glyph-name="idieresis" unicode="&#xef;" horiz-adv-x="438" 
d="M164 0v1147h110v-1147h-110zM49 1341q-43 0 -72.5 29.5t-29.5 71.5q0 41 29.5 70.5t72.5 29.5t73 -29.5t30 -70.5t-30 -71t-73 -30zM389 1341q-43 0 -72.5 29.5t-29.5 71.5q0 41 29.5 70.5t72.5 29.5t73 -29.5t30 -70.5t-30 -71t-73 -30z" />
    <glyph glyph-name="eth" unicode="&#xf0;" horiz-adv-x="1519" 
d="M1362 1350l-268 -54q331 -357 331 -723q0 -96 -24 -182.5t-76.5 -163t-128 -132.5t-185 -88t-241.5 -32q-308 0 -493 148.5t-185 386.5q0 239 184.5 389t479.5 150q330 0 538 -230q-111 252 -311 455l-453 -88v94l371 74q-131 118 -283 227l125 21q149 -108 273 -226
l346 68v-94zM756 80q250 0 399.5 117.5t149.5 314.5q0 193 -150.5 312.5t-398.5 119.5q-250 0 -399.5 -117.5t-149.5 -314.5t149.5 -314.5t399.5 -117.5z" />
    <glyph glyph-name="ntilde" unicode="&#xf1;" horiz-adv-x="1423" 
d="M778 1171q238 0 368 -141.5t130 -402.5v-627h-111v604q0 230 -104 348.5t-307 118.5q-211 0 -340 -139.5t-129 -364.5v-567h-111v1147h111v-285q67 146 195.5 227.5t297.5 81.5zM426 1341h-94q8 107 66 172.5t149 65.5q43 0 96.5 -21.5t94.5 -48t87.5 -48t77.5 -21.5
q49 0 80.5 36.5t40.5 102.5h94q-8 -107 -66 -172.5t-149 -65.5q-43 0 -96.5 22t-94.5 48t-87.5 48t-77.5 22q-49 0 -80.5 -37t-40.5 -103z" />
    <glyph glyph-name="ograve" unicode="&#xf2;" 
d="M754 -25q-295 0 -479.5 166.5t-184.5 431.5t184.5 431.5t479.5 166.5q194 0 345 -75.5t234.5 -211.5t83.5 -311t-83.5 -311t-234.5 -211.5t-345 -75.5zM754 80q250 0 399.5 134.5t149.5 358.5q0 225 -149.5 359.5t-399.5 134.5t-399.5 -134.5t-149.5 -359.5
q0 -224 149.5 -358.5t399.5 -134.5zM606 1602l240 -318h-121l-244 318h125z" />
    <glyph glyph-name="oacute" unicode="&#xf3;" 
d="M754 -25q-295 0 -479.5 166.5t-184.5 431.5t184.5 431.5t479.5 166.5q194 0 345 -75.5t234.5 -211.5t83.5 -311t-83.5 -311t-234.5 -211.5t-345 -75.5zM754 80q250 0 399.5 134.5t149.5 358.5q0 225 -149.5 359.5t-399.5 134.5t-399.5 -134.5t-149.5 -359.5
q0 -224 149.5 -358.5t399.5 -134.5zM662 1284l239 318h125l-244 -318h-120z" />
    <glyph glyph-name="ocircumflex" unicode="&#xf4;" 
d="M754 -25q-295 0 -479.5 166.5t-184.5 431.5t184.5 431.5t479.5 166.5q194 0 345 -75.5t234.5 -211.5t83.5 -311t-83.5 -311t-234.5 -211.5t-345 -75.5zM391 1284l293 318h139l293 -318h-123l-239 236l-240 -236h-123zM754 80q250 0 399.5 134.5t149.5 358.5
q0 225 -149.5 359.5t-399.5 134.5t-399.5 -134.5t-149.5 -359.5q0 -224 149.5 -358.5t399.5 -134.5z" />
    <glyph glyph-name="otilde" unicode="&#xf5;" 
d="M754 -25q-295 0 -479.5 166.5t-184.5 431.5t184.5 431.5t479.5 166.5q194 0 345 -75.5t234.5 -211.5t83.5 -311t-83.5 -311t-234.5 -211.5t-345 -75.5zM754 80q250 0 399.5 134.5t149.5 358.5q0 225 -149.5 359.5t-399.5 134.5t-399.5 -134.5t-149.5 -359.5
q0 -224 149.5 -358.5t399.5 -134.5zM455 1341h-95q8 107 66 172.5t149 65.5q43 0 96.5 -21.5t95 -48t88 -48t77.5 -21.5q49 0 80.5 36.5t40.5 102.5h94q-8 -107 -66 -172.5t-149 -65.5q-43 0 -96.5 22t-95 48t-88 48t-77.5 22q-49 0 -80 -36.5t-40 -103.5z" />
    <glyph glyph-name="odieresis" unicode="&#xf6;" 
d="M754 -25q-295 0 -479.5 166.5t-184.5 431.5t184.5 431.5t479.5 166.5q194 0 345 -75.5t234.5 -211.5t83.5 -311t-83.5 -311t-234.5 -211.5t-345 -75.5zM754 80q250 0 399.5 134.5t149.5 358.5q0 225 -149.5 359.5t-399.5 134.5t-399.5 -134.5t-149.5 -359.5
q0 -224 149.5 -358.5t399.5 -134.5zM449 1341q-43 0 -73 30t-30 71t30 70.5t73 29.5t72.5 -29.5t29.5 -70.5q0 -42 -29.5 -71.5t-72.5 -29.5zM1059 1341q-43 0 -73 30t-30 71t30 70.5t73 29.5t72.5 -29.5t29.5 -70.5q0 -42 -29.5 -71.5t-72.5 -29.5z" />
    <glyph glyph-name="divide" unicode="&#xf7;" horiz-adv-x="1269" 
d="M61 674v102h1147v-102h-1147zM614 985q-49 0 -81.5 32.5t-32.5 82.5t32 82t82 32t82.5 -32.5t32.5 -81.5q0 -50 -32.5 -82.5t-82.5 -32.5zM614 236q-50 0 -82 32t-32 82t32.5 82.5t81.5 32.5q50 0 82.5 -32.5t32.5 -82.5q0 -49 -32.5 -81.5t-82.5 -32.5z" />
    <glyph glyph-name="oslash" unicode="&#xf8;" 
d="M111 -61l176 192q-95 80 -146 193.5t-51 248.5q0 265 184.5 431.5t479.5 166.5q222 0 387 -98l123 135h133l-176 -192q94 -80 145 -194t51 -249q0 -175 -83.5 -311t-234.5 -211.5t-345 -75.5q-220 0 -387 99l-123 -135h-133zM205 573q0 -228 153 -362l711 782
q-135 74 -315 74q-250 0 -399.5 -134.5t-149.5 -359.5zM754 80q250 0 399.5 134.5t149.5 358.5q0 228 -154 363l-711 -782q135 -74 316 -74z" />
    <glyph glyph-name="ugrave" unicode="&#xf9;" horiz-adv-x="1400" 
d="M1227 0h-111v295q-65 -151 -191 -235.5t-290 -84.5q-233 0 -360.5 142t-127.5 403v627h111v-604q0 -230 102 -348.5t299 -118.5q205 0 331 139.5t126 364.5v567h111v-1147zM541 1602l239 -318h-121l-243 318h125z" />
    <glyph glyph-name="uacute" unicode="&#xfa;" horiz-adv-x="1400" 
d="M1227 0h-111v295q-65 -151 -191 -235.5t-290 -84.5q-233 0 -360.5 142t-127.5 403v627h111v-604q0 -230 102 -348.5t299 -118.5q205 0 331 139.5t126 364.5v567h111v-1147zM596 1284l240 318h125l-244 -318h-121z" />
    <glyph glyph-name="ucircumflex" unicode="&#xfb;" horiz-adv-x="1400" 
d="M1227 0h-111v295q-65 -151 -191 -235.5t-290 -84.5q-233 0 -360.5 142t-127.5 403v627h111v-604q0 -230 102 -348.5t299 -118.5q205 0 331 139.5t126 364.5v567h111v-1147zM326 1284l292 318h140l293 -318h-123l-240 236l-239 -236h-123z" />
    <glyph glyph-name="udieresis" unicode="&#xfc;" horiz-adv-x="1400" 
d="M1227 0h-111v295q-65 -151 -191 -235.5t-290 -84.5q-233 0 -360.5 142t-127.5 403v627h111v-604q0 -230 102 -348.5t299 -118.5q205 0 331 139.5t126 364.5v567h111v-1147zM383 1341q-43 0 -72.5 29.5t-29.5 71.5q0 41 29.5 70.5t72.5 29.5t72.5 -29.5t29.5 -70.5
q0 -42 -29.5 -71.5t-72.5 -29.5zM993 1341q-43 0 -72.5 29.5t-29.5 71.5q0 41 29.5 70.5t72.5 29.5t73 -29.5t30 -70.5t-30 -71t-73 -30z" />
    <glyph glyph-name="yacute" unicode="&#xfd;" horiz-adv-x="1376" 
d="M346 -362q-73 0 -131 18t-121 59v97q115 -72 248 -72q175 0 258 168l66 129h-68l-563 1110h123l532 -1061l537 1061h119l-660 -1288q-59 -113 -141.5 -167t-198.5 -54zM598 1284l240 318h125l-244 -318h-121z" />
    <glyph glyph-name="thorn" unicode="&#xfe;" horiz-adv-x="1542" 
d="M164 -338v1915h110v-815q94 191 249 300t345 109q125 0 232.5 -44t184.5 -122t121 -189.5t44 -242.5t-44 -242.5t-121 -189.5t-184.5 -122t-232.5 -44q-190 0 -345 109.5t-249 300.5v-723h-110zM1335 573q0 218 -131.5 356t-335.5 138q-196 0 -349.5 -133t-246.5 -361
q93 -228 246.5 -360.5t349.5 -132.5q204 0 335.5 137.5t131.5 355.5z" />
    <glyph glyph-name="ydieresis" unicode="&#xff;" horiz-adv-x="1376" 
d="M346 -362q-73 0 -131 18t-121 59v97q115 -72 248 -72q175 0 258 168l66 129h-68l-563 1110h123l532 -1061l537 1061h119l-660 -1288q-59 -113 -141.5 -167t-198.5 -54zM385 1341q-43 0 -72.5 29.5t-29.5 71.5q0 41 29.5 70.5t72.5 29.5t72.5 -29.5t29.5 -70.5
q0 -42 -29.5 -71.5t-72.5 -29.5zM995 1341q-43 0 -72.5 29.5t-29.5 71.5q0 41 29.5 70.5t72.5 29.5t73 -29.5t30 -70.5t-30 -71t-73 -30z" />
    <glyph glyph-name="Amacron" unicode="&#x100;" horiz-adv-x="1724" 
d="M805 1536h115l776 -1536h-129l-205 410h-1000l-204 -410h-129zM414 512h897l-449 895zM1257 1743h-792v98h792v-98z" />
    <glyph glyph-name="amacron" unicode="&#x101;" horiz-adv-x="1527" 
d="M1104 0v256q-60 -118 -199.5 -199.5t-341.5 -81.5q-138 0 -248 44.5t-175.5 131.5t-65.5 203q0 87 38 155.5t97 110.5t138.5 69t155.5 37.5t154 10.5q280 0 447 -65q0 185 -125 292t-354 107q-252 0 -443 -137v102q184 135 451 135q124 0 228 -32t183.5 -94.5
t124.5 -163.5t45 -232v-649h-110zM1104 567q-122 72 -395 72q-516 0 -516 -281q0 -131 107 -207.5t290 -76.5q102 0 195 34.5t164 96.5t113 156t42 206zM1133 1395h-793v98h793v-98z" />
    <glyph glyph-name="Abreve" unicode="&#x102;" horiz-adv-x="1724" 
d="M805 1536h115l776 -1536h-129l-205 410h-1000l-204 -410h-129zM414 512h897l-449 895zM502 1950h104q43 -191 256 -191t256 191h105q-25 -133 -121.5 -208t-239.5 -75t-239 75t-121 208z" />
    <glyph glyph-name="abreve" unicode="&#x103;" horiz-adv-x="1527" 
d="M1104 0v256q-60 -118 -199.5 -199.5t-341.5 -81.5q-138 0 -248 44.5t-175.5 131.5t-65.5 203q0 87 38 155.5t97 110.5t138.5 69t155.5 37.5t154 10.5q280 0 447 -65q0 185 -125 292t-354 107q-252 0 -443 -137v102q184 135 451 135q124 0 228 -32t183.5 -94.5
t124.5 -163.5t45 -232v-649h-110zM1104 567q-122 72 -395 72q-516 0 -516 -281q0 -131 107 -207.5t290 -76.5q102 0 195 34.5t164 96.5t113 156t42 206zM377 1597h104q20 -106 87.5 -164.5t168.5 -58.5t168.5 58.5t87.5 164.5h105q-17 -149 -112 -232t-249 -83t-248.5 83
t-111.5 232z" />
    <glyph glyph-name="Aogonek" unicode="&#x104;" horiz-adv-x="1724" 
d="M805 1536h115l776 -1536q-142 -45 -223.5 -92.5t-81.5 -102.5q0 -84 174 -84q71 0 131 13v-86q-66 -19 -150 -19q-119 0 -190.5 42t-71.5 114q0 144 272 238l-194 387h-1000l-204 -410h-129zM414 512h897l-449 895z" />
    <glyph glyph-name="aogonek" unicode="&#x105;" horiz-adv-x="1527" 
d="M1102 31h2v225q-60 -118 -199.5 -199.5t-341.5 -81.5q-138 0 -248 44.5t-175.5 131.5t-65.5 203q0 87 38 155.5t97 110.5t138.5 69t155.5 37.5t154 10.5q280 0 447 -65q0 185 -125 292t-354 107q-252 0 -443 -137v102q184 135 451 135q124 0 228 -32t183.5 -94.5
t124.5 -163.5t45 -232v-649q-142 -45 -223.5 -92.5t-81.5 -102.5q0 -84 174 -84q71 0 131 13v-86q-66 -19 -149 -19q-119 0 -190.5 42t-71.5 114q0 150 299 246zM1104 567q-122 72 -395 72q-516 0 -516 -281q0 -131 107 -207.5t290 -76.5q102 0 195 34.5t164 96.5t113 156
t42 206z" />
    <glyph glyph-name="Cacute" unicode="&#x106;" horiz-adv-x="1826" 
d="M1616 573h119q-31 -266 -249 -432t-542 -166q-247 0 -437 100t-294 280.5t-104 412.5t104 412.5t294 280.5t437 100q324 0 542 -166t249 -432h-119q-37 225 -218.5 358t-457.5 133q-324 0 -518.5 -187t-194.5 -499t194.5 -499t518.5 -187q276 0 457.5 133t218.5 358z
M803 1673l297 277h151l-315 -277h-133z" />
    <glyph glyph-name="cacute" unicode="&#x107;" horiz-adv-x="1411" 
d="M1214 420h119q-37 -198 -207.5 -321.5t-406.5 -123.5q-278 0 -452.5 166.5t-174.5 431.5t174.5 431.5t452.5 166.5q236 0 406.5 -123t207.5 -321h-119q-35 155 -169.5 247.5t-325.5 92.5q-233 0 -372.5 -135t-139.5 -359t139.5 -358.5t372.5 -134.5q192 0 326.5 92.5
t168.5 247.5zM629 1284l239 318h125l-243 -318h-121z" />
    <glyph glyph-name="Ccircumflex" unicode="&#x108;" horiz-adv-x="1826" 
d="M1616 573h119q-31 -266 -249 -432t-542 -166q-247 0 -437 100t-294 280.5t-104 412.5t104 412.5t294 280.5t437 100q324 0 542 -166t249 -432h-119q-37 225 -218.5 358t-457.5 133q-324 0 -518.5 -187t-194.5 -499t194.5 -499t518.5 -187q276 0 457.5 133t218.5 358z
M559 1673l293 277h139l293 -277h-123l-239 197l-240 -197h-123z" />
    <glyph glyph-name="ccircumflex" unicode="&#x109;" horiz-adv-x="1411" 
d="M1214 420h119q-37 -198 -207.5 -321.5t-406.5 -123.5q-278 0 -452.5 166.5t-174.5 431.5t174.5 431.5t452.5 166.5q236 0 406.5 -123t207.5 -321h-119q-35 155 -169.5 247.5t-325.5 92.5q-233 0 -372.5 -135t-139.5 -359t139.5 -358.5t372.5 -134.5q192 0 326.5 92.5
t168.5 247.5zM358 1284l293 318h140l292 -318h-122l-240 236l-240 -236h-123z" />
    <glyph glyph-name="Cdotaccent" unicode="&#x10a;" horiz-adv-x="1826" 
d="M1616 573h119q-31 -266 -249 -432t-542 -166q-247 0 -437 100t-294 280.5t-104 412.5t104 412.5t294 280.5t437 100q324 0 542 -166t249 -432h-119q-37 225 -218.5 358t-457.5 133q-324 0 -518.5 -187t-194.5 -499t194.5 -499t518.5 -187q276 0 457.5 133t218.5 358z
M922 1731q-43 0 -73 29.5t-30 70.5t30 70.5t73 29.5t72.5 -29.5t29.5 -70.5t-29.5 -70.5t-72.5 -29.5z" />
    <glyph glyph-name="cdotaccent" unicode="&#x10b;" horiz-adv-x="1411" 
d="M1214 420h119q-37 -198 -207.5 -321.5t-406.5 -123.5q-278 0 -452.5 166.5t-174.5 431.5t174.5 431.5t452.5 166.5q236 0 406.5 -123t207.5 -321h-119q-35 155 -169.5 247.5t-325.5 92.5q-233 0 -372.5 -135t-139.5 -359t139.5 -358.5t372.5 -134.5q192 0 326.5 92.5
t168.5 247.5zM721 1341q-43 0 -73 30t-30 71t30 70.5t73 29.5t72.5 -29.5t29.5 -70.5q0 -42 -29.5 -71.5t-72.5 -29.5z" />
    <glyph glyph-name="Ccaron" unicode="&#x10c;" horiz-adv-x="1826" 
d="M1616 573h119q-31 -266 -249 -432t-542 -166q-247 0 -437 100t-294 280.5t-104 412.5t104 412.5t294 280.5t437 100q324 0 542 -166t249 -432h-119q-37 225 -218.5 358t-457.5 133q-324 0 -518.5 -187t-194.5 -499t194.5 -499t518.5 -187q276 0 457.5 133t218.5 358z
M1284 1950l-293 -277h-139l-293 277h123l240 -197l239 197h123z" />
    <glyph glyph-name="ccaron" unicode="&#x10d;" horiz-adv-x="1411" 
d="M1214 420h119q-37 -198 -207.5 -321.5t-406.5 -123.5q-278 0 -452.5 166.5t-174.5 431.5t174.5 431.5t452.5 166.5q236 0 406.5 -123t207.5 -321h-119q-35 155 -169.5 247.5t-325.5 92.5q-233 0 -372.5 -135t-139.5 -359t139.5 -358.5t372.5 -134.5q192 0 326.5 92.5
t168.5 247.5zM1083 1602l-292 -318h-140l-293 318h123l240 -236l240 236h122z" />
    <glyph glyph-name="Dcaron" unicode="&#x10e;" horiz-adv-x="1771" 
d="M199 1536h620q186 0 343.5 -56.5t268 -156.5t172.5 -243t62 -312t-62 -312t-172.5 -243t-268 -156.5t-343.5 -56.5h-620v1536zM1192 1950l-293 -277h-139l-293 277h123l239 -197l240 197h123zM313 1436v-1336h506q322 0 524.5 186t202.5 482t-202.5 482t-524.5 186h-506z
" />
    <glyph glyph-name="dcaron" unicode="&#x10f;" horiz-adv-x="1527" 
d="M1374 1577v-1577h-110v377q-96 -188 -249.5 -295t-340.5 -107q-125 0 -232.5 44t-184.5 122t-121 189.5t-44 242.5t44 242.5t121 189.5t184.5 122t232.5 44q187 0 341 -106.5t249 -294.5v807h110zM207 573q0 -218 131.5 -355.5t335.5 -137.5q196 0 349.5 132.5
t246.5 360.5q-93 228 -246.5 361t-349.5 133q-204 0 -335.5 -138t-131.5 -356zM1501 1292l43 346h115l-57 -346h-101z" />
    <glyph glyph-name="Dcroat" unicode="&#x110;" horiz-adv-x="1847" 
d="M41 719v102h233v715h621q186 0 343.5 -56.5t268 -156.5t172.5 -243t62 -312t-62 -312t-172.5 -243t-268 -156.5t-343.5 -56.5h-621v719h-233zM389 1436v-615h502v-102h-502v-619h506q322 0 524.5 186t202.5 482t-202.5 482t-524.5 186h-506z" />
    <glyph glyph-name="dcroat" unicode="&#x111;" horiz-adv-x="1538" 
d="M1374 0h-110v377q-96 -188 -249.5 -295t-340.5 -107q-125 0 -232.5 44t-184.5 122t-121 189.5t-44 242.5t44 242.5t121 189.5t184.5 122t232.5 44q187 0 341 -106.5t249 -294.5v537h-691v94h691v176h110v-176h180v-94h-180v-1307zM674 80q196 0 349.5 132.5t246.5 360.5
q-93 228 -246.5 361t-349.5 133q-204 0 -335.5 -138t-131.5 -356t131.5 -355.5t335.5 -137.5z" />
    <glyph glyph-name="Emacron" unicode="&#x112;" 
d="M258 1434v-615h1083v-102h-1083v-615h1135v-102h-1250v1536h1239v-102h-1124zM1161 1743h-792v98h792v-98z" />
    <glyph glyph-name="emacron" unicode="&#x113;" horiz-adv-x="1396" 
d="M750 -25q-292 0 -475 166.5t-183 431.5q0 266 172 432t449 166q267 0 433.5 -170t166.5 -444h-1106q6 -217 154 -347t389 -130q288 0 528 194v-104q-105 -90 -248.5 -142.5t-279.5 -52.5zM713 1067q-208 0 -341.5 -111t-158.5 -301h979q-26 190 -154.5 301t-324.5 111z
M1098 1395h-793v98h793v-98z" />
    <glyph glyph-name="Ebreve" unicode="&#x114;" 
d="M258 1434v-615h1083v-102h-1083v-615h1135v-102h-1250v1536h1239v-102h-1124zM406 1950h104q43 -191 256 -191t256 191h104q-25 -133 -121 -208t-239 -75t-239 75t-121 208z" />
    <glyph glyph-name="ebreve" unicode="&#x115;" horiz-adv-x="1396" 
d="M750 -25q-292 0 -475 166.5t-183 431.5q0 266 172 432t449 166q267 0 433.5 -170t166.5 -444h-1106q6 -217 154 -347t389 -130q288 0 528 194v-104q-105 -90 -248.5 -142.5t-279.5 -52.5zM713 1067q-208 0 -341.5 -111t-158.5 -301h979q-26 190 -154.5 301t-324.5 111z
M342 1597h104q20 -106 87.5 -164.5t168.5 -58.5t168.5 58.5t87.5 164.5h105q-17 -149 -112 -232t-249 -83t-248.5 83t-111.5 232z" />
    <glyph glyph-name="Edotaccent" unicode="&#x116;" 
d="M258 1434v-615h1083v-102h-1083v-615h1135v-102h-1250v1536h1239v-102h-1124zM766 1731q-43 0 -72.5 29.5t-29.5 70.5t29.5 70.5t72.5 29.5t72.5 -29.5t29.5 -70.5t-29.5 -70.5t-72.5 -29.5z" />
    <glyph glyph-name="edotaccent" unicode="&#x117;" horiz-adv-x="1396" 
d="M750 -25q-292 0 -475 166.5t-183 431.5q0 266 172 432t449 166q267 0 433.5 -170t166.5 -444h-1106q6 -217 154 -347t389 -130q288 0 528 194v-104q-105 -90 -248.5 -142.5t-279.5 -52.5zM713 1067q-208 0 -341.5 -111t-158.5 -301h979q-26 190 -154.5 301t-324.5 111z
M702 1341q-42 0 -72 29.5t-30 71.5q0 41 29.5 70.5t72.5 29.5t73 -29.5t30 -70.5t-30 -71t-73 -30z" />
    <glyph glyph-name="Eogonek" unicode="&#x118;" 
d="M258 1434v-615h1083v-102h-1083v-615h1135v-102q-143 -46 -224.5 -93t-81.5 -102q0 -84 175 -84q71 0 131 13v-86q-67 -19 -150 -19q-119 0 -190.5 42t-71.5 114q0 128 213 215h-1051v1536h1239v-102h-1124z" />
    <glyph glyph-name="eogonek" unicode="&#x119;" horiz-adv-x="1396" 
d="M1094 -371q-118 0 -188 47.5t-70 128.5q0 101 122 199q-113 -29 -208 -29q-292 0 -475 166.5t-183 431.5q0 266 172 432t449 166q267 0 433.5 -170t166.5 -444h-1106q6 -217 154 -347t389 -130q288 0 528 194v-104q-20 -16 -125 -88q-102 -70 -156.5 -131.5t-54.5 -124.5
q0 -105 170 -105q71 0 131 13v-86q-67 -19 -149 -19zM213 655h979q-26 190 -154.5 301t-324.5 111q-208 0 -341.5 -111t-158.5 -301z" />
    <glyph glyph-name="Ecaron" unicode="&#x11a;" 
d="M258 1434v-615h1083v-102h-1083v-615h1135v-102h-1250v1536h1239v-102h-1124zM1128 1950l-292 -277h-140l-293 277h123l240 -197l240 197h122z" />
    <glyph glyph-name="ecaron" unicode="&#x11b;" horiz-adv-x="1396" 
d="M750 -25q-292 0 -475 166.5t-183 431.5q0 266 172 432t449 166q267 0 433.5 -170t166.5 -444h-1106q6 -217 154 -347t389 -130q288 0 528 194v-104q-105 -90 -248.5 -142.5t-279.5 -52.5zM1065 1602l-293 -318h-139l-293 318h123l239 -236l240 236h123zM713 1067
q-208 0 -341.5 -111t-158.5 -301h979q-26 190 -154.5 301t-324.5 111z" />
    <glyph glyph-name="Gcircumflex" unicode="&#x11c;" horiz-adv-x="1884" 
d="M944 82q287 0 475 149t219 387h-598v103h709v-721h-98l-4 393q-83 -191 -269 -304.5t-434 -113.5q-245 0 -436 100t-296.5 280.5t-105.5 412.5t105.5 412.5t297.5 280.5t439 100q319 0 536.5 -164t244.5 -416h-119q-39 216 -216 344.5t-452 128.5q-326 0 -521.5 -187
t-195.5 -499t196 -499t523 -187zM575 1673l293 277h140l292 -277h-122l-240 197l-240 -197h-123z" />
    <glyph glyph-name="gcircumflex" unicode="&#x11d;" horiz-adv-x="1525" 
d="M645 57q-234 0 -392.5 155.5t-158.5 401.5t158.5 401.5t392.5 155.5q200 0 366 -110.5t246 -265.5v352h111v-842q0 -135 -33 -246t-91.5 -188.5t-141 -130t-179.5 -77.5t-208 -25q-295 0 -506 174v108q216 -178 500 -178q264 0 406 143t142 389v160q-80 -155 -246 -266
t-366 -111zM385 1284l293 318h139l293 -318h-123l-239 236l-240 -236h-123zM664 162q179 0 327.5 108t272.5 344q-122 236 -271.5 344.5t-328.5 108.5q-214 0 -334.5 -126t-120.5 -327t120.5 -326.5t334.5 -125.5z" />
    <glyph glyph-name="Gbreve" unicode="&#x11e;" horiz-adv-x="1884" 
d="M944 82q287 0 475 149t219 387h-598v103h709v-721h-98l-4 393q-83 -191 -269 -304.5t-434 -113.5q-245 0 -436 100t-296.5 280.5t-105.5 412.5t105.5 412.5t297.5 280.5t439 100q319 0 536.5 -164t244.5 -416h-119q-39 216 -216 344.5t-452 128.5q-326 0 -521.5 -187
t-195.5 -499t196 -499t523 -187zM578 1950h104q43 -191 256 -191t256 191h104q-25 -133 -121 -208t-239 -75t-239 75t-121 208z" />
    <glyph glyph-name="gbreve" unicode="&#x11f;" horiz-adv-x="1525" 
d="M645 57q-234 0 -392.5 155.5t-158.5 401.5t158.5 401.5t392.5 155.5q200 0 366 -110.5t246 -265.5v352h111v-842q0 -135 -33 -246t-91.5 -188.5t-141 -130t-179.5 -77.5t-208 -25q-295 0 -506 174v108q216 -178 500 -178q264 0 406 143t142 389v160q-80 -155 -246 -266
t-366 -111zM664 162q179 0 327.5 108t272.5 344q-122 236 -271.5 344.5t-328.5 108.5q-214 0 -334.5 -126t-120.5 -327t120.5 -326.5t334.5 -125.5zM387 1597h105q20 -106 87.5 -164.5t168.5 -58.5t168.5 58.5t87.5 164.5h104q-17 -149 -111.5 -232t-248.5 -83t-249 83
t-112 232z" />
    <glyph glyph-name="Gdotaccent" unicode="&#x120;" horiz-adv-x="1884" 
d="M944 82q287 0 475 149t219 387h-598v103h709v-721h-98l-4 393q-83 -191 -269 -304.5t-434 -113.5q-245 0 -436 100t-296.5 280.5t-105.5 412.5t105.5 412.5t297.5 280.5t439 100q319 0 536.5 -164t244.5 -416h-119q-39 216 -216 344.5t-452 128.5q-326 0 -521.5 -187
t-195.5 -499t196 -499t523 -187zM938 1731q-43 0 -72.5 29.5t-29.5 70.5t29.5 70.5t72.5 29.5t72.5 -29.5t29.5 -70.5t-29.5 -70.5t-72.5 -29.5z" />
    <glyph glyph-name="gdotaccent" unicode="&#x121;" horiz-adv-x="1525" 
d="M645 57q-234 0 -392.5 155.5t-158.5 401.5t158.5 401.5t392.5 155.5q200 0 366 -110.5t246 -265.5v352h111v-842q0 -135 -33 -246t-91.5 -188.5t-141 -130t-179.5 -77.5t-208 -25q-295 0 -506 174v108q216 -178 500 -178q264 0 406 143t142 389v160q-80 -155 -246 -266
t-366 -111zM664 162q179 0 327.5 108t272.5 344q-122 236 -271.5 344.5t-328.5 108.5q-214 0 -334.5 -126t-120.5 -327t120.5 -326.5t334.5 -125.5zM748 1341q-43 0 -73 30t-30 71t30 70.5t73 29.5t72.5 -29.5t29.5 -70.5q0 -42 -30 -71.5t-72 -29.5z" />
    <glyph glyph-name="uni0122" unicode="&#x122;" horiz-adv-x="1884" 
d="M944 82q287 0 475 149t219 387h-598v103h709v-721h-98l-4 393q-83 -191 -269 -304.5t-434 -113.5q-245 0 -436 100t-296.5 280.5t-105.5 412.5t105.5 412.5t297.5 280.5t439 100q319 0 536.5 -164t244.5 -416h-119q-39 216 -216 344.5t-452 128.5q-326 0 -521.5 -187
t-195.5 -499t196 -499t523 -187zM932 -442h-86l72 159q-32 6 -53 31t-21 55q0 40 25.5 67.5t68.5 27.5q49 0 73.5 -29t24.5 -70q0 -29 -12 -58.5t-45 -92.5z" />
    <glyph glyph-name="uni0123" unicode="&#x123;" horiz-adv-x="1525" 
d="M645 57q-234 0 -392.5 155.5t-158.5 401.5t158.5 401.5t392.5 155.5q200 0 366 -110.5t246 -265.5v352h111v-842q0 -135 -33 -246t-91.5 -188.5t-141 -130t-179.5 -77.5t-208 -25q-295 0 -506 174v108q216 -178 500 -178q264 0 406 143t142 389v160q-80 -155 -246 -266
t-366 -111zM756 1622h86l-72 -160q32 -6 53 -31t21 -55q0 -40 -25.5 -67t-68.5 -27q-49 0 -74 28.5t-25 69.5q0 28 12 58t46 94zM664 162q179 0 327.5 108t272.5 344q-122 236 -271.5 344.5t-328.5 108.5q-214 0 -334.5 -126t-120.5 -327t120.5 -326.5t334.5 -125.5z" />
    <glyph glyph-name="Hcircumflex" unicode="&#x124;" horiz-adv-x="1802" 
d="M199 0v1536h114v-717h1176v717h115v-1536h-115v717h-1176v-717h-114zM539 1673l292 277h140l293 -277h-123l-240 197l-239 -197h-123z" />
    <glyph glyph-name="hcircumflex" unicode="&#x125;" horiz-adv-x="1411" 
d="M164 0v1577h110v-715q66 146 195 227.5t297 81.5q238 0 368 -141.5t130 -402.5v-627h-111v604q0 230 -104.5 348.5t-307.5 118.5q-210 0 -338.5 -139.5t-128.5 -364.5v-567h-110zM383 1714l293 318h139l293 -318h-123l-240 236l-239 -236h-123z" />
    <glyph glyph-name="Hbar" unicode="&#x126;" horiz-adv-x="1839" 
d="M217 0v1190h-172v102h172v244h115v-244h1175v244h115v-244h172v-102h-172v-1190h-115v713h-1175v-713h-115zM332 815h1175v375h-1175v-375z" />
    <glyph glyph-name="hbar" unicode="&#x127;" horiz-adv-x="1411" 
d="M-16 1307v94h180v176h110v-176h691v-94h-691v-457q66 152 195 236.5t297 84.5q238 0 368 -141.5t130 -402.5v-627h-111v604q0 230 -104.5 348.5t-307.5 118.5q-210 0 -338.5 -139.5t-128.5 -364.5v-567h-110v1307h-180z" />
    <glyph glyph-name="Itilde" unicode="&#x128;" horiz-adv-x="512" 
d="M199 0v1536h114v-1536h-114zM45 1696h-92q8 107 54.5 172t119.5 65q33 0 64 -14.5t54.5 -35t45.5 -40.5t45 -34.5t45 -14.5q32 0 54.5 36.5t31.5 102.5h92q-8 -107 -54.5 -172t-119.5 -65q-33 0 -64 14.5t-54.5 35t-45.5 40.5t-45 34.5t-45 14.5q-32 0 -54.5 -36.5
t-31.5 -102.5z" />
    <glyph glyph-name="itilde" unicode="&#x129;" horiz-adv-x="438" 
d="M164 0v1147h110v-1147h-110zM-2 1341h-92q8 107 54.5 172.5t119.5 65.5q33 0 64 -14.5t54.5 -35t45.5 -40.5t45 -34.5t45 -14.5q32 0 54.5 36.5t31.5 102.5h92q-8 -107 -54.5 -172.5t-119.5 -65.5q-40 0 -78.5 22t-63.5 48t-55.5 48t-56.5 22q-32 0 -54.5 -37t-31.5 -103
z" />
    <glyph glyph-name="Imacron" unicode="&#x12a;" horiz-adv-x="512" 
d="M199 0v1536h114v-1536h-114zM559 1743h-606v100h606v-100z" />
    <glyph glyph-name="imacron" unicode="&#x12b;" horiz-adv-x="438" 
d="M164 0v1147h110v-1147h-110zM522 1395h-606v98h606v-98z" />
    <glyph glyph-name="Ibreve" unicode="&#x12c;" horiz-adv-x="512" 
d="M199 0v1536h114v-1536h-114zM-53 1950h94q39 -191 215 -191t215 191h94q-17 -134 -98 -208.5t-211 -74.5t-211 74.5t-98 208.5z" />
    <glyph glyph-name="ibreve" unicode="&#x12d;" horiz-adv-x="438" 
d="M164 0v1147h110v-1147h-110zM-80 1597h94q17 -108 69 -165.5t136 -57.5t136 57.5t69 165.5h94q-17 -150 -95 -232.5t-204 -82.5t-204 82.5t-95 232.5z" />
    <glyph glyph-name="Iogonek" unicode="&#x12e;" horiz-adv-x="512" 
d="M43 -205q0 113 156 209v1532h114v-1536q-44 -28 -68 -44.5t-52 -41t-40 -49.5t-12 -53q0 -91 138 -91q74 0 124 13v-86q-55 -19 -137 -19q-101 0 -162 45.5t-61 120.5z" />
    <glyph glyph-name="iogonek" unicode="&#x12f;" horiz-adv-x="440" 
d="M-23 -215q0 67 42.5 117.5t146.5 117.5v1127h110v-1147q-92 -51 -142 -96t-50 -99q0 -84 123 -84q71 0 131 13v-86q-67 -19 -150 -19q-93 0 -152 42.5t-59 113.5zM221 1341q-43 0 -72.5 29.5t-29.5 71.5q0 41 29.5 70.5t72.5 29.5t73 -29.5t30 -70.5t-30 -71t-73 -30z
" />
    <glyph glyph-name="Idotaccent" unicode="&#x130;" horiz-adv-x="512" 
d="M199 0v1536h114v-1536h-114zM256 1731q-43 0 -72.5 29.5t-29.5 70.5t29.5 70.5t72.5 29.5t72.5 -29.5t29.5 -70.5t-29.5 -70.5t-72.5 -29.5z" />
    <glyph glyph-name="dotlessi" unicode="&#x131;" horiz-adv-x="438" 
d="M164 0v1147h110v-1147h-110z" />
    <glyph glyph-name="IJ" unicode="&#x132;" horiz-adv-x="1624" 
d="M150 819v717h114v-717h-114zM150 590v84h114v-84q0 -247 131 -380.5t402 -133.5q530 0 530 514v946h115v-946q0 -159 -47 -278.5t-134 -192.5t-203 -108.5t-261 -35.5q-146 0 -262.5 35.5t-203.5 108.5t-134 192.5t-47 278.5z" />
    <glyph glyph-name="ij" unicode="&#x133;" horiz-adv-x="876" 
d="M164 0v1147h110v-1147h-110zM219 1341q-43 0 -72.5 29.5t-29.5 71.5q0 41 29.5 70.5t72.5 29.5t73 -29.5t30 -70.5t-30 -71t-73 -30zM891 1147v-1124q0 -84 -20.5 -151.5t-64 -121t-120.5 -83t-182 -29.5q-94 0 -189 27.5t-143 62.5v114q139 -100 311 -100
q152 0 224.5 68.5t72.5 230.5v1106h111zM836 1341q-43 0 -73 30t-30 71t30 70.5t73 29.5t72.5 -29.5t29.5 -70.5q0 -42 -30 -71.5t-72 -29.5z" />
    <glyph glyph-name="Jcircumflex" unicode="&#x134;" horiz-adv-x="1536" 
d="M66 631v84h112v-84q0 -263 131 -406t402 -143q530 0 530 549v905h115v-905q0 -170 -47 -297.5t-134 -205t-203 -115.5t-261 -38t-261 38t-203 115.5t-134 205t-47 297.5zM993 1673l236 277h139l236 -277h-123l-183 193l-182 -193h-123z" />
    <glyph glyph-name="jcircumflex" unicode="&#x135;" horiz-adv-x="438" 
d="M274 1147v-1124q0 -84 -20.5 -151.5t-64 -121t-120.5 -83t-182 -29.5q-94 0 -188.5 27.5t-142.5 62.5v114q139 -100 311 -100q152 0 224.5 68.5t72.5 230.5v1106h110zM-84 1284l236 318h139l235 -318h-123l-182 229l-182 -229h-123z" />
    <glyph glyph-name="uni0136" unicode="&#x136;" horiz-adv-x="1630" 
d="M313 0h-114v1536h114v-717h518l621 717h145l-659 -766l684 -770h-145l-646 717h-518v-717zM860 -442h-86l72 159q-32 6 -53 31t-21 55q0 40 25.5 67.5t68.5 27.5q49 0 74 -29t25 -70q0 -20 -7.5 -43t-17 -43t-33.5 -65z" />
    <glyph glyph-name="uni0137" unicode="&#x137;" horiz-adv-x="1284" 
d="M274 0h-110v1577h110v-950h367l457 520h141l-498 -565l539 -582h-145l-486 526h-375v-526zM694 -442h-86l72 159q-32 6 -53 31t-21 55q0 40 25.5 67.5t68.5 27.5q49 0 74 -29t25 -70q0 -20 -7.5 -43t-17 -43t-33.5 -65z" />
    <glyph glyph-name="kgreenlandic" unicode="&#x138;" horiz-adv-x="1284" 
d="M164 1147h110v-981l824 981h135l-416 -494l457 -653h-139l-392 565l-475 -565h-104v1147z" />
    <glyph glyph-name="Lacute" unicode="&#x139;" horiz-adv-x="1454" 
d="M199 1536h114v-1434h1114v-102h-1228v1536zM137 1673l297 277h152l-316 -277h-133z" />
    <glyph glyph-name="lacute" unicode="&#x13a;" horiz-adv-x="438" 
d="M164 0v1577h110v-1577h-110zM127 1714l240 318h125l-244 -318h-121z" />
    <glyph glyph-name="uni013B" unicode="&#x13b;" horiz-adv-x="1454" 
d="M199 1536h114v-1434h1114v-102h-1228v1536zM829 -442h-86l72 159q-32 6 -53 31t-21 55q0 40 26 67.5t69 27.5q49 0 73.5 -29t24.5 -70q0 -29 -12 -58.5t-45 -92.5z" />
    <glyph glyph-name="uni013C" unicode="&#x13c;" horiz-adv-x="438" 
d="M164 0v1577h110v-1577h-110zM215 -442h-86l72 159q-32 6 -53 31t-21 55q0 40 25.5 67.5t68.5 27.5q49 0 73.5 -29t24.5 -70q0 -29 -12 -58.5t-45 -92.5z" />
    <glyph glyph-name="Lcaron" unicode="&#x13d;" horiz-adv-x="1456" 
d="M199 1536h114v-1434h1114v-102h-1228v1536zM774 1114l51 422h119l-70 -422h-100z" />
    <glyph glyph-name="lcaron" unicode="&#x13e;" horiz-adv-x="438" 
d="M164 0v1577h110v-1577h-110zM369 1292l43 346h114l-57 -346h-100z" />
    <glyph glyph-name="Ldot" unicode="&#x13f;" horiz-adv-x="1460" 
d="M199 1536h114v-1434h1114v-102h-1228v1536zM963 743q-51 0 -85 34t-34 85t34 85t85 34t84.5 -34t33.5 -85t-33.5 -85t-84.5 -34z" />
    <glyph glyph-name="ldot" unicode="&#x140;" horiz-adv-x="573" 
d="M164 0v1577h110v-1577h-110zM506 721q-41 0 -69.5 28.5t-28.5 69.5t28.5 70t69.5 29t69.5 -29t28.5 -70t-28.5 -69.5t-69.5 -28.5z" />
    <glyph glyph-name="Lslash" unicode="&#x141;" horiz-adv-x="1554" 
d="M299 1536h115v-666l590 162v-106l-590 -162v-662h1114v-102h-1229v733l-233 -63v106l233 64v696z" />
    <glyph glyph-name="lslash" unicode="&#x142;" horiz-adv-x="636" 
d="M57 715v106l211 76v680h111v-641l211 76v-107l-211 -76v-829h-111v791z" />
    <glyph glyph-name="Nacute" unicode="&#x143;" horiz-adv-x="1841" 
d="M348 1536l1184 -1411v1411h110v-1536h-149l-1184 1411v-1411h-110v1536h149zM827 1673l297 277h152l-315 -277h-134z" />
    <glyph glyph-name="nacute" unicode="&#x144;" horiz-adv-x="1423" 
d="M778 1171q238 0 368 -141.5t130 -402.5v-627h-111v604q0 230 -104 348.5t-307 118.5q-211 0 -340 -139.5t-129 -364.5v-567h-111v1147h111v-285q67 146 195.5 227.5t297.5 81.5zM633 1284l239 318h125l-243 -318h-121z" />
    <glyph glyph-name="uni0145" unicode="&#x145;" horiz-adv-x="1841" 
d="M348 1536l1184 -1411v1411h110v-1536h-149l-1184 1411v-1411h-110v1536h149zM918 -442h-87l72 159q-32 6 -53 31t-21 55q0 40 26 67.5t69 27.5q49 0 73.5 -29t24.5 -70q0 -29 -12 -58.5t-45 -92.5z" />
    <glyph glyph-name="uni0146" unicode="&#x146;" horiz-adv-x="1423" 
d="M778 1171q238 0 368 -141.5t130 -402.5v-627h-111v604q0 230 -104 348.5t-307 118.5q-211 0 -340 -139.5t-129 -364.5v-567h-111v1147h111v-285q67 146 195.5 227.5t297.5 81.5zM721 -442h-86l72 159q-32 6 -53 31t-21 55q0 40 25.5 67.5t68.5 27.5q49 0 73.5 -29
t24.5 -70q0 -29 -12 -58.5t-45 -92.5z" />
    <glyph glyph-name="Ncaron" unicode="&#x147;" horiz-adv-x="1841" 
d="M348 1536l1184 -1411v1411h110v-1536h-149l-1184 1411v-1411h-110v1536h149zM1309 1950l-293 -277h-139l-293 277h123l239 -197l240 197h123z" />
    <glyph glyph-name="ncaron" unicode="&#x148;" horiz-adv-x="1423" 
d="M778 1171q238 0 368 -141.5t130 -402.5v-627h-111v604q0 230 -104 348.5t-307 118.5q-211 0 -340 -139.5t-129 -364.5v-567h-111v1147h111v-285q67 146 195.5 227.5t297.5 81.5zM1087 1602l-292 -318h-140l-293 318h123l240 -236l240 236h122z" />
    <glyph glyph-name="napostrophe" unicode="&#x149;" horiz-adv-x="1628" 
d="M983 1171q238 0 368 -141.5t130 -402.5v-627h-111v604q0 230 -104.5 348.5t-307.5 118.5q-211 0 -340 -139.5t-129 -364.5v-567h-110v1147h110v-285q66 146 195.5 227.5t298.5 81.5zM57 1118h-86l109 244q-32 6 -54 32t-22 60q0 40 28 67t68 27q41 0 69 -29t28 -73
q0 -61 -50 -156z" />
    <glyph glyph-name="Eng" unicode="&#x14a;" horiz-adv-x="1728" 
d="M199 0v1536h114v-307q83 156 245.5 244t379.5 88q289 0 448.5 -158.5t159.5 -448.5v-954q0 -79 -21 -142.5t-66 -114t-124 -78t-186 -27.5q-101 0 -189.5 24t-136.5 55v107q143 -82 326 -82q150 0 216.5 68.5t66.5 234.5v887q0 257 -134 389.5t-391 132.5
q-269 0 -431.5 -143.5t-162.5 -374.5v-936h-114z" />
    <glyph glyph-name="eng" unicode="&#x14b;" horiz-adv-x="1423" 
d="M778 1171q238 0 368 -141.5t130 -402.5v-625q0 -79 -18.5 -143t-58 -114.5t-109.5 -78.5t-166 -28q-88 0 -165.5 24t-119.5 55v107q125 -82 285 -82q124 0 182.5 63t58.5 215v584q0 230 -104 348.5t-307 118.5q-211 0 -340 -139.5t-129 -364.5v-567h-111v1147h111v-285
q67 146 195.5 227.5t297.5 81.5z" />
    <glyph glyph-name="Omacron" unicode="&#x14c;" horiz-adv-x="1904" 
d="M952 -25q-186 0 -343.5 58.5t-268 162t-172.5 251t-62 321.5t62 321.5t172.5 251t268 162t343.5 58.5t343.5 -58.5t268 -162t172.5 -251t62 -321.5t-62 -321.5t-172.5 -251t-268 -162t-343.5 -58.5zM952 82q331 0 529 187t198 499t-198 499t-529 187t-529 -187t-198 -499
t198 -499t529 -187zM1348 1743h-793v98h793v-98z" />
    <glyph glyph-name="omacron" unicode="&#x14d;" 
d="M754 -25q-295 0 -479.5 166.5t-184.5 431.5t184.5 431.5t479.5 166.5q194 0 345 -75.5t234.5 -211.5t83.5 -311t-83.5 -311t-234.5 -211.5t-345 -75.5zM754 80q250 0 399.5 134.5t149.5 358.5q0 225 -149.5 359.5t-399.5 134.5t-399.5 -134.5t-149.5 -359.5
q0 -224 149.5 -358.5t399.5 -134.5zM1149 1395h-793v98h793v-98z" />
    <glyph glyph-name="Obreve" unicode="&#x14e;" horiz-adv-x="1904" 
d="M952 -25q-186 0 -343.5 58.5t-268 162t-172.5 251t-62 321.5t62 321.5t172.5 251t268 162t343.5 58.5t343.5 -58.5t268 -162t172.5 -251t62 -321.5t-62 -321.5t-172.5 -251t-268 -162t-343.5 -58.5zM952 82q331 0 529 187t198 499t-198 499t-529 187t-529 -187t-198 -499
t198 -499t529 -187zM592 1950h104q43 -191 256 -191t256 191h105q-25 -133 -121.5 -208t-239.5 -75t-239 75t-121 208z" />
    <glyph glyph-name="obreve" unicode="&#x14f;" 
d="M754 -25q-295 0 -479.5 166.5t-184.5 431.5t184.5 431.5t479.5 166.5q194 0 345 -75.5t234.5 -211.5t83.5 -311t-83.5 -311t-234.5 -211.5t-345 -75.5zM754 80q250 0 399.5 134.5t149.5 358.5q0 225 -149.5 359.5t-399.5 134.5t-399.5 -134.5t-149.5 -359.5
q0 -224 149.5 -358.5t399.5 -134.5zM393 1597h105q20 -106 87.5 -164.5t168.5 -58.5t168.5 58.5t87.5 164.5h104q-17 -149 -111.5 -232t-248.5 -83t-249 83t-112 232z" />
    <glyph glyph-name="Ohungarumlaut" unicode="&#x150;" horiz-adv-x="1904" 
d="M952 -25q-186 0 -343.5 58.5t-268 162t-172.5 251t-62 321.5t62 321.5t172.5 251t268 162t343.5 58.5t343.5 -58.5t268 -162t172.5 -251t62 -321.5t-62 -321.5t-172.5 -251t-268 -162t-343.5 -58.5zM952 82q331 0 529 187t198 499t-198 499t-529 187t-529 -187t-198 -499
t198 -499t529 -187zM702 1673l242 277h133l-248 -277h-127zM1061 1673l242 277h133l-248 -277h-127z" />
    <glyph glyph-name="ohungarumlaut" unicode="&#x151;" 
d="M754 -25q-295 0 -479.5 166.5t-184.5 431.5t184.5 431.5t479.5 166.5q194 0 345 -75.5t234.5 -211.5t83.5 -311t-83.5 -311t-234.5 -211.5t-345 -75.5zM754 80q250 0 399.5 134.5t149.5 358.5q0 225 -149.5 359.5t-399.5 134.5t-399.5 -134.5t-149.5 -359.5
q0 -224 149.5 -358.5t399.5 -134.5zM530 1284l215 318h125l-219 -318h-121zM848 1284l215 318h125l-219 -318h-121z" />
    <glyph glyph-name="OE" unicode="&#x152;" horiz-adv-x="2770" 
d="M2658 0h-1706q-186 0 -343.5 56.5t-268 156.5t-172.5 243t-62 312q0 226 101 400t289 271t436 97h1716v-102h-1081v-615h1040v-102h-1040v-617h1091v-100zM952 100h500v1336h-500q-322 0 -524.5 -186t-202.5 -482t202.5 -482t524.5 -186z" />
    <glyph glyph-name="oe" unicode="&#x153;" horiz-adv-x="2529" 
d="M1903 -25q-202 0 -355.5 89.5t-226.5 244.5q-73 -156 -227 -245t-359 -89q-188 0 -334.5 75.5t-227.5 211.5t-81 311t81 311t227.5 211.5t334.5 75.5q204 0 358 -87.5t228 -241.5q68 154 211.5 241.5t333.5 87.5q258 0 418.5 -170t160.5 -444h-1065q6 -217 148.5 -347
t374.5 -130q256 0 507 194v-104q-111 -92 -244.5 -143.5t-262.5 -51.5zM735 80q241 0 385 134.5t144 358.5q0 225 -144 359.5t-385 134.5t-384.5 -134.5t-143.5 -359.5t143.5 -359t384.5 -134zM1866 1067q-199 0 -328 -111t-154 -301h940q-25 190 -148 301t-310 111z" />
    <glyph glyph-name="Racute" unicode="&#x154;" horiz-adv-x="1566" 
d="M1329 0l-633 676h-383v-676h-114v1536h762q222 0 360.5 -119.5t138.5 -310.5t-138.5 -310.5t-360.5 -119.5h-109l633 -676h-156zM313 778h658q170 0 272.5 89.5t102.5 238.5t-102.5 238.5t-272.5 89.5h-658v-656zM655 1673l297 277h152l-316 -277h-133z" />
    <glyph glyph-name="racute" unicode="&#x155;" horiz-adv-x="946" 
d="M924 1147v-109q-73 27 -185 27q-201 0 -327.5 -138.5t-126.5 -359.5v-567h-111v1147h111v-273q59 138 181 217.5t284 79.5q107 0 174 -24zM434 1284l240 318h125l-244 -318h-121z" />
    <glyph glyph-name="uni0156" unicode="&#x156;" horiz-adv-x="1566" 
d="M1329 0l-633 676h-383v-676h-114v1536h762q222 0 360.5 -119.5t138.5 -310.5t-138.5 -310.5t-360.5 -119.5h-109l633 -676h-156zM803 -442h-86l71 159q-32 6 -52.5 31t-20.5 55q0 40 25.5 67.5t68.5 27.5q49 0 73.5 -29t24.5 -70q0 -29 -12 -58.5t-45 -92.5zM313 778h658
q170 0 272.5 89.5t102.5 238.5t-102.5 238.5t-272.5 89.5h-658v-656z" />
    <glyph glyph-name="uni0157" unicode="&#x157;" horiz-adv-x="946" 
d="M924 1147v-109q-73 27 -185 27q-201 0 -327.5 -138.5t-126.5 -359.5v-567h-111v1147h111v-273q59 138 181 217.5t284 79.5q107 0 174 -24zM225 -442h-86l72 159q-32 6 -53 31t-21 55q0 40 25.5 67.5t68.5 27.5q49 0 74 -29t25 -70q0 -20 -7.5 -43t-17 -43t-33.5 -65z" />
    <glyph glyph-name="Rcaron" unicode="&#x158;" horiz-adv-x="1566" 
d="M1329 0l-633 676h-383v-676h-114v1536h762q222 0 360.5 -119.5t138.5 -310.5t-138.5 -310.5t-360.5 -119.5h-109l633 -676h-156zM1137 1950l-293 -277h-139l-293 277h123l239 -197l240 197h123zM313 778h658q170 0 272.5 89.5t102.5 238.5t-102.5 238.5t-272.5 89.5h-658
v-656z" />
    <glyph glyph-name="rcaron" unicode="&#x159;" horiz-adv-x="946" 
d="M924 1147v-109q-73 27 -185 27q-201 0 -327.5 -138.5t-126.5 -359.5v-567h-111v1147h111v-273q59 138 181 217.5t284 79.5q107 0 174 -24zM889 1602l-293 -318h-139l-293 318h123l239 -236l240 236h123z" />
    <glyph glyph-name="Sacute" unicode="&#x15a;" horiz-adv-x="1572" 
d="M88 496h115q23 -189 186.5 -302.5t415.5 -113.5q255 0 406 93t151 255q0 120 -101 185.5t-339 91.5l-260 28q-276 30 -400.5 127.5t-124.5 261.5q0 132 79.5 232t222 153.5t327.5 53.5q287 0 473.5 -131.5t198.5 -342.5h-115q-20 168 -172.5 268.5t-386.5 100.5
q-235 0 -373.5 -89t-138.5 -245q0 -123 99.5 -188.5t330.5 -91.5l248 -29q295 -34 421 -121.5t126 -259.5q0 -213 -183 -335t-491 -122q-199 0 -358.5 65.5t-253 184t-103.5 271.5zM666 1673l297 277h151l-315 -277h-133z" />
    <glyph glyph-name="sacute" unicode="&#x15b;" horiz-adv-x="1302" 
d="M1214 322q0 -154 -150.5 -250.5t-393.5 -96.5q-254 0 -418.5 115t-173.5 299h112q17 -139 151 -226t329 -87q192 0 311 68.5t119 177.5q0 90 -75.5 132.5t-276.5 65.5l-218 25q-220 24 -317.5 96t-97.5 201q0 153 138.5 241t367.5 88q246 0 406 -107.5t171 -277.5h-113
q-15 126 -145 205.5t-324 79.5q-186 0 -286.5 -58t-100.5 -165q0 -87 70.5 -133t239.5 -66l215 -24q257 -29 358.5 -96t101.5 -207zM559 1284l240 318h125l-244 -318h-121z" />
    <glyph glyph-name="Scircumflex" unicode="&#x15c;" horiz-adv-x="1572" 
d="M88 496h115q23 -189 186.5 -302.5t415.5 -113.5q255 0 406 93t151 255q0 120 -101 185.5t-339 91.5l-260 28q-276 30 -400.5 127.5t-124.5 261.5q0 132 79.5 232t222 153.5t327.5 53.5q287 0 473.5 -131.5t198.5 -342.5h-115q-20 168 -172.5 268.5t-386.5 100.5
q-235 0 -373.5 -89t-138.5 -245q0 -123 99.5 -188.5t330.5 -91.5l248 -29q295 -34 421 -121.5t126 -259.5q0 -213 -183 -335t-491 -122q-199 0 -358.5 65.5t-253 184t-103.5 271.5zM422 1673l293 277h139l293 -277h-123l-240 197l-239 -197h-123z" />
    <glyph glyph-name="scircumflex" unicode="&#x15d;" horiz-adv-x="1302" 
d="M1214 322q0 -154 -150.5 -250.5t-393.5 -96.5q-254 0 -418.5 115t-173.5 299h112q17 -139 151 -226t329 -87q192 0 311 68.5t119 177.5q0 90 -75.5 132.5t-276.5 65.5l-218 25q-220 24 -317.5 96t-97.5 201q0 153 138.5 241t367.5 88q246 0 406 -107.5t171 -277.5h-113
q-15 126 -145 205.5t-324 79.5q-186 0 -286.5 -58t-100.5 -165q0 -87 70.5 -133t239.5 -66l215 -24q257 -29 358.5 -96t101.5 -207zM289 1284l293 318h139l293 -318h-123l-240 236l-239 -236h-123z" />
    <glyph glyph-name="Scedilla" unicode="&#x15e;" horiz-adv-x="1572" 
d="M604 -207l117 184q-272 22 -446 163t-187 356h115q23 -189 186.5 -302.5t415.5 -113.5q255 0 406 93t151 255q0 120 -101 185.5t-339 91.5l-260 28q-276 30 -400.5 127.5t-124.5 261.5q0 132 79.5 232t222 153.5t327.5 53.5q287 0 473.5 -131.5t198.5 -342.5h-115
q-20 168 -172.5 268.5t-386.5 100.5q-235 0 -373.5 -89t-138.5 -245q0 -123 99.5 -188.5t330.5 -91.5l248 -29q295 -34 421 -121.5t126 -259.5q0 -210 -179 -332t-479 -125l-61 -90q52 19 123 19q96 0 154.5 -43.5t58.5 -116.5q0 -80 -74 -129t-197 -49q-110 0 -195.5 45.5
t-113.5 118.5h109q57 -76 200 -76q80 0 120 25t40 65q0 37 -36 57.5t-99 20.5q-79 0 -143 -29h-101z" />
    <glyph glyph-name="scedilla" unicode="&#x15f;" horiz-adv-x="1302" 
d="M469 -207l117 187q-221 19 -361 130t-147 279h112q17 -139 151 -226t329 -87q192 0 311 68.5t119 177.5q0 90 -75.5 132.5t-276.5 65.5l-218 25q-220 24 -317.5 96t-97.5 201q0 153 138.5 241t367.5 88q246 0 406 -107.5t171 -277.5h-113q-15 126 -145 205.5t-324 79.5
q-186 0 -286.5 -58t-100.5 -165q0 -87 70.5 -133t239.5 -66l215 -24q257 -29 358.5 -96t101.5 -207q0 -152 -148 -248t-386 -99l-59 -92q49 21 124 21q95 0 153 -43.5t58 -116.5q0 -80 -73.5 -129t-194.5 -49q-109 0 -193 45.5t-112 118.5h106q50 -78 199 -78q81 0 121.5 25
t40.5 67q0 38 -36 59t-101 21q-84 0 -144 -31h-100z" />
    <glyph glyph-name="Scaron" unicode="&#x160;" horiz-adv-x="1572" 
d="M88 496h115q23 -189 186.5 -302.5t415.5 -113.5q255 0 406 93t151 255q0 120 -101 185.5t-339 91.5l-260 28q-276 30 -400.5 127.5t-124.5 261.5q0 132 79.5 232t222 153.5t327.5 53.5q287 0 473.5 -131.5t198.5 -342.5h-115q-20 168 -172.5 268.5t-386.5 100.5
q-235 0 -373.5 -89t-138.5 -245q0 -123 99.5 -188.5t330.5 -91.5l248 -29q295 -34 421 -121.5t126 -259.5q0 -213 -183 -335t-491 -122q-199 0 -358.5 65.5t-253 184t-103.5 271.5zM1147 1950l-293 -277h-139l-293 277h123l239 -197l240 197h123z" />
    <glyph glyph-name="scaron" unicode="&#x161;" horiz-adv-x="1302" 
d="M1214 322q0 -154 -150.5 -250.5t-393.5 -96.5q-254 0 -418.5 115t-173.5 299h112q17 -139 151 -226t329 -87q192 0 311 68.5t119 177.5q0 90 -75.5 132.5t-276.5 65.5l-218 25q-220 24 -317.5 96t-97.5 201q0 153 138.5 241t367.5 88q246 0 406 -107.5t171 -277.5h-113
q-15 126 -145 205.5t-324 79.5q-186 0 -286.5 -58t-100.5 -165q0 -87 70.5 -133t239.5 -66l215 -24q257 -29 358.5 -96t101.5 -207zM1014 1602l-293 -318h-139l-293 318h123l239 -236l240 236h123z" />
    <glyph glyph-name="uni0162" unicode="&#x162;" horiz-adv-x="1536" 
d="M711 0v1434h-684v102h1482v-102h-684v-1434h-8l-76 -115q52 19 123 19q96 0 154.5 -43.5t58.5 -116.5q0 -80 -74 -129t-196 -49q-110 0 -195.5 45.5t-113.5 118.5h108q57 -76 201 -76q80 0 120 25t40 65q0 37 -36.5 57.5t-99.5 20.5q-79 0 -143 -29h-100l129 207h-6z" />
    <glyph glyph-name="uni0163" unicode="&#x163;" horiz-adv-x="1028" 
d="M264 1047h-258v61l258 31l41 301h70v-293h586v-100h-586v-668q0 -162 72.5 -230.5t224.5 -68.5q172 0 311 100v-114q-48 -35 -143.5 -63t-190.5 -28l-59 -92q50 21 125 21q95 0 153 -43.5t58 -116.5q0 -80 -74 -129t-195 -49q-109 0 -193 45.5t-112 118.5h107
q50 -78 198 -78q81 0 121.5 25t40.5 67q0 38 -36 59t-101 21q-83 0 -143 -31h-101l119 189q-293 47 -293 378v687z" />
    <glyph glyph-name="Tcaron" unicode="&#x164;" horiz-adv-x="1536" 
d="M711 0v1434h-684v102h1482v-102h-684v-1434h-114zM1130 1950l-292 -277h-140l-292 277h122l240 -197l240 197h122z" />
    <glyph glyph-name="tcaron" unicode="&#x165;" horiz-adv-x="1028" 
d="M264 1047h-258v61l258 31l41 301h70v-293h586v-100h-586v-668q0 -162 72.5 -230.5t224.5 -68.5q172 0 311 100v-114q-48 -35 -143 -63t-189 -28q-105 0 -182 29.5t-120.5 83t-64 121t-20.5 151.5v687zM532 1292l43 346h115l-57 -346h-101z" />
    <glyph glyph-name="Tbar" unicode="&#x166;" horiz-adv-x="1572" 
d="M45 1434v102h1483v-102h-684v-633h463v-103h-463v-698h-115v698h-463v103h463v633h-684z" />
    <glyph glyph-name="tbar" unicode="&#x167;" horiz-adv-x="1056" 
d="M287 1047h-258v61l258 31l41 301h69v-293h586v-100h-586v-377h480v-95h-480v-196q0 -162 72.5 -230.5t224.5 -68.5q173 0 312 100v-114q-48 -35 -143 -63t-189 -28q-105 0 -182 29.5t-120.5 83t-64 121t-20.5 151.5v215h-234v95h234v377z" />
    <glyph glyph-name="Utilde" unicode="&#x168;" horiz-adv-x="1728" 
d="M293 1536v-905q0 -250 155.5 -399.5t415.5 -149.5t416 149.5t156 399.5v905h114v-905q0 -292 -190 -474t-496 -182t-496 182t-190 474v905h115zM545 1690h-94q8 107 66 172t149 65q48 0 107.5 -21.5t105.5 -48t98 -48t86 -21.5q49 0 80.5 36.5t40.5 102.5h94
q-8 -107 -66 -172t-149 -65q-48 0 -107.5 21.5t-105.5 48t-98 48t-86 21.5q-49 0 -80.5 -36.5t-40.5 -102.5z" />
    <glyph glyph-name="utilde" unicode="&#x169;" horiz-adv-x="1400" 
d="M1227 0h-111v295q-65 -151 -191 -235.5t-290 -84.5q-233 0 -360.5 142t-127.5 403v627h111v-604q0 -230 102 -348.5t299 -118.5q205 0 331 139.5t126 364.5v567h111v-1147zM389 1341h-94q8 107 66 172.5t149 65.5q43 0 96.5 -21.5t94.5 -48t87.5 -48t77.5 -21.5
q49 0 80.5 36.5t40.5 102.5h94q-8 -107 -66 -172.5t-149 -65.5q-43 0 -96.5 22t-94.5 48t-87.5 48t-77.5 22q-49 0 -80.5 -37t-40.5 -103z" />
    <glyph glyph-name="Umacron" unicode="&#x16a;" horiz-adv-x="1728" 
d="M293 1536v-905q0 -250 155.5 -399.5t415.5 -149.5t416 149.5t156 399.5v905h114v-905q0 -292 -190 -474t-496 -182t-496 182t-190 474v905h115zM1260 1743h-793v98h793v-98z" />
    <glyph glyph-name="umacron" unicode="&#x16b;" horiz-adv-x="1400" 
d="M1227 0h-111v295q-65 -151 -191 -235.5t-290 -84.5q-233 0 -360.5 142t-127.5 403v627h111v-604q0 -230 102 -348.5t299 -118.5q205 0 331 139.5t126 364.5v567h111v-1147zM1083 1395h-792v98h792v-98z" />
    <glyph glyph-name="Ubreve" unicode="&#x16c;" horiz-adv-x="1728" 
d="M293 1536v-905q0 -250 155.5 -399.5t415.5 -149.5t416 149.5t156 399.5v905h114v-905q0 -292 -190 -474t-496 -182t-496 182t-190 474v905h115zM504 1950h104q43 -191 256 -191t256 191h105q-25 -133 -121.5 -208t-239.5 -75t-239 75t-121 208z" />
    <glyph glyph-name="ubreve" unicode="&#x16d;" horiz-adv-x="1400" 
d="M1227 0h-111v295q-65 -151 -191 -235.5t-290 -84.5q-233 0 -360.5 142t-127.5 403v627h111v-604q0 -230 102 -348.5t299 -118.5q205 0 331 139.5t126 364.5v567h111v-1147zM328 1597h104q20 -106 87.5 -164.5t168.5 -58.5t168.5 58.5t87.5 164.5h105q-17 -149 -112 -232
t-249 -83t-248.5 83t-111.5 232z" />
    <glyph glyph-name="Uring" unicode="&#x16e;" horiz-adv-x="1728" 
d="M293 1536v-905q0 -250 155.5 -399.5t415.5 -149.5t416 149.5t156 399.5v905h114v-905q0 -292 -190 -474t-496 -182t-496 182t-190 474v905h115zM864 1653q-118 0 -189 53t-71 141t71 141.5t189 53.5t189 -53.5t71 -141.5t-71 -141t-189 -53zM864 1739q82 0 126 28t44 80
t-44 80.5t-126 28.5t-126 -28.5t-44 -80.5t44 -80t126 -28z" />
    <glyph glyph-name="uring" unicode="&#x16f;" horiz-adv-x="1400" 
d="M1227 0h-111v295q-65 -151 -191 -235.5t-290 -84.5q-233 0 -360.5 142t-127.5 403v627h111v-604q0 -230 102 -348.5t299 -118.5q205 0 331 139.5t126 364.5v567h111v-1147zM688 1264q-118 0 -189 59t-71 156t71 156t189 59t189 -59t71 -156t-71 -156t-189 -59zM688 1350
q82 0 126 33.5t44 95.5t-44 95.5t-126 33.5t-126 -33.5t-44 -95.5t44 -95.5t126 -33.5z" />
    <glyph glyph-name="Uhungarumlaut" unicode="&#x170;" horiz-adv-x="1728" 
d="M293 1536v-905q0 -250 155.5 -399.5t415.5 -149.5t416 149.5t156 399.5v905h114v-905q0 -292 -190 -474t-496 -182t-496 182t-190 474v905h115zM573 1673l242 277h133l-248 -277h-127zM932 1673l242 277h133l-248 -277h-127z" />
    <glyph glyph-name="uhungarumlaut" unicode="&#x171;" horiz-adv-x="1400" 
d="M1227 0h-111v295q-65 -151 -191 -235.5t-290 -84.5q-233 0 -360.5 142t-127.5 403v627h111v-604q0 -230 102 -348.5t299 -118.5q205 0 331 139.5t126 364.5v567h111v-1147zM465 1284l215 318h125l-219 -318h-121zM782 1284l215 318h125l-219 -318h-121z" />
    <glyph glyph-name="Uogonek" unicode="&#x172;" horiz-adv-x="1728" 
d="M1436 635v901h114v-901q0 -239 -122.5 -399.5t-333.5 -225.5q-308 -93 -308 -205q0 -84 175 -84q71 0 131 13v-86q-66 -19 -150 -19q-119 0 -190.5 42t-71.5 114q0 115 162 195q-296 8 -480 188.5t-184 466.5v901h115v-901q0 -253 155.5 -404t415.5 -151t416 151t156 404
z" />
    <glyph glyph-name="uogonek" unicode="&#x173;" horiz-adv-x="1400" 
d="M1227 0q-142 -45 -223.5 -92.5t-81.5 -102.5q0 -84 174 -84q71 0 131 13v-86q-67 -19 -150 -19q-119 0 -190.5 42t-71.5 114q0 150 299 246h2v264q-65 -151 -191 -235.5t-290 -84.5q-233 0 -360.5 142t-127.5 403v627h111v-604q0 -230 102 -348.5t299 -118.5
q205 0 331 139.5t126 364.5v567h111v-1147z" />
    <glyph glyph-name="Wcircumflex" unicode="&#x174;" horiz-adv-x="2633" 
d="M1384 1536l555 -1419l525 1419h119l-576 -1536h-137l-553 1405l-553 -1405h-137l-576 1536h119l524 -1421l555 1421h135zM954 1673l293 277h139l293 -277h-123l-239 197l-240 -197h-123z" />
    <glyph glyph-name="wcircumflex" unicode="&#x175;" horiz-adv-x="2156" 
d="M1141 1147l420 -1028l436 1028h119l-496 -1147h-115l-426 1022l-428 -1022h-114l-496 1147h119l436 -1028l420 1028h125zM717 1284l293 318h139l293 -318h-123l-240 236l-239 -236h-123z" />
    <glyph glyph-name="Ycircumflex" unicode="&#x176;" horiz-adv-x="1679" 
d="M897 0h-115v639l-731 897h137l652 -803l647 803h137l-727 -897v-639zM475 1673l293 277h139l293 -277h-123l-239 197l-240 -197h-123z" />
    <glyph glyph-name="ycircumflex" unicode="&#x177;" horiz-adv-x="1376" 
d="M346 -362q-73 0 -131 18t-121 59v97q115 -72 248 -72q175 0 258 168l66 129h-68l-563 1110h123l532 -1061l537 1061h119l-660 -1288q-59 -113 -141.5 -167t-198.5 -54zM328 1284l293 318h139l293 -318h-123l-240 236l-239 -236h-123z" />
    <glyph glyph-name="Ydieresis" unicode="&#x178;" horiz-adv-x="1679" 
d="M897 0h-115v639l-731 897h137l652 -803l647 803h137l-727 -897v-639zM530 1731q-43 0 -72.5 29.5t-29.5 70.5t29.5 70.5t72.5 29.5t73 -29.5t30 -70.5t-30 -70.5t-73 -29.5zM1145 1731q-43 0 -73 29.5t-30 70.5t30 70.5t73 29.5t72.5 -29.5t29.5 -70.5t-29.5 -70.5
t-72.5 -29.5z" />
    <glyph glyph-name="Zacute" unicode="&#x179;" horiz-adv-x="1497" 
d="M1427 0h-1359v102l1206 1332h-1196v102h1343v-102l-1204 -1332h1210v-102zM631 1673l297 277h151l-315 -277h-133z" />
    <glyph glyph-name="zacute" unicode="&#x17a;" horiz-adv-x="1220" 
d="M1153 0h-1087v92l942 959h-934v96h1075v-92l-942 -959h946v-96zM518 1284l240 318h125l-244 -318h-121z" />
    <glyph glyph-name="Zdotaccent" unicode="&#x17b;" horiz-adv-x="1497" 
d="M1427 0h-1359v102l1206 1332h-1196v102h1343v-102l-1204 -1332h1210v-102zM750 1731q-43 0 -73 29.5t-30 70.5t30 70.5t73 29.5t72.5 -29.5t29.5 -70.5t-29.5 -70.5t-72.5 -29.5z" />
    <glyph glyph-name="zdotaccent" unicode="&#x17c;" horiz-adv-x="1220" 
d="M1153 0h-1087v92l942 959h-934v96h1075v-92l-942 -959h946v-96zM610 1341q-42 0 -72 29.5t-30 71.5q0 41 29.5 70.5t72.5 29.5t73 -29.5t30 -70.5t-30 -71t-73 -30z" />
    <glyph glyph-name="Zcaron" unicode="&#x17d;" horiz-adv-x="1497" 
d="M1427 0h-1359v102l1206 1332h-1196v102h1343v-102l-1204 -1332h1210v-102zM1112 1950l-293 -277h-139l-293 277h123l240 -197l239 197h123z" />
    <glyph glyph-name="zcaron" unicode="&#x17e;" horiz-adv-x="1220" 
d="M1153 0h-1087v92l942 959h-934v96h1075v-92l-942 -959h946v-96zM973 1602l-293 -318h-139l-293 318h123l239 -236l240 236h123z" />
    <glyph glyph-name="longs" unicode="&#x17f;" horiz-adv-x="438" 
d="M621 1501q-170 0 -258.5 -82t-88.5 -258v-1161h-110v1133q0 100 24 182t74.5 148t138.5 102.5t207 36.5q139 0 269 -56v-108q-112 63 -256 63z" />
    <glyph glyph-name="uni0180" unicode="&#x180;" horiz-adv-x="1538" 
d="M274 0h-110v1307h-180v94h180v176h110v-176h691v-94h-691v-537q95 188 249 294.5t341 106.5q125 0 232.5 -44t184.5 -122t121 -189.5t44 -242.5t-44 -242.5t-121 -189.5t-184.5 -122t-232.5 -44q-187 0 -340.5 107t-249.5 295v-377zM864 80q204 0 335.5 137.5
t131.5 355.5t-131.5 356t-335.5 138q-196 0 -349.5 -133t-246.5 -361q93 -228 246.5 -360.5t349.5 -132.5z" />
    <glyph glyph-name="uni0181" unicode="&#x181;" horiz-adv-x="1961" 
d="M348 1536h977q211 0 323.5 -98.5t112.5 -272.5q0 -56 -15.5 -108.5t-47.5 -102t-87 -89.5t-128 -64q193 -29 287 -136t94 -257q0 -185 -133 -296.5t-373 -111.5h-914l7 1434h-76q-99 0 -152 -43.5t-53 -141.5q0 -106 66 -268h-113q-70 148 -70 268q0 141 79.5 214
t215.5 73zM565 737v-635h805q179 0 277 78.5t98 227.5q0 160 -119 244.5t-348 84.5h-713zM565 1434v-594h719q160 0 259 84.5t99 240.5q0 121 -85 195t-242 74h-750z" />
    <glyph glyph-name="uni0186" unicode="&#x186;" horiz-adv-x="1826" 
d="M92 573h119q37 -225 218.5 -358t457.5 -133q324 0 518 187t194 499t-194 499t-518 187q-276 0 -457.5 -133t-218.5 -358h-119q31 266 249 432t542 166q247 0 437 -100t294 -280.5t104 -412.5t-104 -412.5t-294 -280.5t-437 -100q-324 0 -542 166t-249 432z" />
    <glyph glyph-name="uni0187" unicode="&#x187;" horiz-adv-x="1835" 
d="M944 1561q158 0 293 -42.5t233 -117.5q-38 71 -38 160q0 123 89 199.5t228 76.5q121 0 219 -61v-113q-107 68 -209 68t-157.5 -54t-55.5 -141q0 -48 16.5 -104.5t37.5 -102.5t69 -143q55 -112 66 -223h-119q-37 225 -218.5 358t-457.5 133q-324 0 -518.5 -187
t-194.5 -499t194.5 -499t518.5 -187q276 0 457.5 133t218.5 358h119q-31 -266 -249 -432t-542 -166q-247 0 -437 100t-294 280.5t-104 412.5t104 412.5t294 280.5t437 100z" />
    <glyph glyph-name="uni0188" unicode="&#x188;" horiz-adv-x="1421" 
d="M1446 1479q117 0 244 -56v-114q-130 65 -240 65q-225 0 -225 -200q0 -35 7.5 -76.5t17.5 -75t30.5 -102t34.5 -119.5l20 -74h-118q-35 155 -170 247.5t-326 92.5q-233 0 -372.5 -135t-139.5 -359t139.5 -358.5t372.5 -134.5q192 0 327 92.5t169 247.5h118
q-37 -198 -207.5 -321.5t-406.5 -123.5q-278 0 -452.5 166.5t-174.5 431.5t174.5 431.5t452.5 166.5q255 0 428 -147q-35 79 -35 156q0 145 90 222t242 77z" />
    <glyph glyph-name="uni0189" unicode="&#x189;" horiz-adv-x="1847" 
d="M41 719v102h233v715h621q186 0 343.5 -56.5t268 -156.5t172.5 -243t62 -312t-62 -312t-172.5 -243t-268 -156.5t-343.5 -56.5h-621v719h-233zM389 1436v-615h502v-102h-502v-619h506q322 0 524.5 186t202.5 482t-202.5 482t-524.5 186h-506z" />
    <glyph glyph-name="uni018A" unicode="&#x18a;" horiz-adv-x="2095" 
d="M346 1536h797q186 0 343.5 -56.5t268 -156.5t172.5 -243t62 -312t-62 -312t-172.5 -243t-268 -156.5t-343.5 -56.5h-621v1436h-149q-205 0 -205 -187q0 -108 65 -268h-112q-70 148 -70 268q0 141 79.5 214t215.5 73zM637 1436v-1336h506q322 0 524.5 186t202.5 482
t-202.5 482t-524.5 186h-506z" />
    <glyph glyph-name="uni018E" unicode="&#x18e;" 
d="M1249 819v615h-1124v102h1239v-1536h-1249v102h1134v615h-1083v102h1083z" />
    <glyph glyph-name="uni018F" unicode="&#x18f;" horiz-adv-x="1820" 
d="M893 1561q180 0 332.5 -58.5t259.5 -163t167 -253.5t60 -324q0 -231 -103 -410.5t-288 -278t-422 -98.5q-175 0 -323.5 60t-252 165t-161.5 251.5t-58 316.5h1489q-1 313 -191 499.5t-505 186.5q-278 0 -454 -134t-207 -353h-119q22 169 125.5 304t273.5 212.5t377 77.5z
M899 82q289 0 474 157.5t214 426.5h-1358q34 -264 213.5 -424t456.5 -160z" />
    <glyph glyph-name="uni0190" unicode="&#x190;" horiz-adv-x="1548" 
d="M1477 1536v-102h-1086l621 -525v-100h-172q-147 0 -253 -25t-167.5 -72t-90 -109t-28.5 -142q0 -185 141.5 -284t397.5 -99q260 0 412 103t175 292h115q-19 -227 -206 -362.5t-496 -135.5q-302 0 -480 133.5t-178 350.5q0 201 153.5 320.5t465.5 119.5h73l-636 535v102
h1239z" />
    <glyph glyph-name="uni0191" unicode="&#x191;" horiz-adv-x="1449" 
d="M313 1434v-615h1030v-102h-1030v-701q0 -174 -94 -276t-266 -102q-125 0 -223 61v113q105 -68 213 -68q129 0 192.5 73t63.5 226v1493h1175v-102h-1061z" />
    <glyph glyph-name="florin" unicode="&#x192;" horiz-adv-x="991" 
d="M981 985h-586v-879q0 -100 -24 -182t-74.5 -147.5t-138.5 -102t-207 -36.5q-140 0 -268 55v108q112 -63 256 -63q170 0 258 81.5t88 258.5v907h-258v100h258v48q0 100 24 182t74.5 148t138.5 102.5t207 36.5q138 0 268 -56v-108q-112 63 -256 63q-170 0 -258 -81.5
t-88 -258.5v-76h586v-100z" />
    <glyph glyph-name="uni0193" unicode="&#x193;" horiz-adv-x="1882" 
d="M944 -25q-245 0 -436 100t-296.5 280.5t-105.5 412.5t105.5 412.5t297.5 280.5t439 100q321 0 520 -160q-38 71 -38 160q0 123 89 199.5t228 76.5q121 0 219 -61v-113q-107 68 -209 68t-157.5 -54t-55.5 -141q0 -48 16.5 -104.5t37.5 -102.5t69 -143q54 -111 62 -205
h-119q-39 216 -216 344.5t-452 128.5q-326 0 -521.5 -187t-195.5 -499t196 -499t523 -187q287 0 475 149t219 387h-598v103h709v-721h-98l-4 393q-83 -191 -269 -304.5t-434 -113.5z" />
    <glyph glyph-name="uni0194" unicode="&#x194;" horiz-adv-x="1720" 
d="M1386 0h-1042l447 567l-758 969h143l684 -883l699 883h129l-758 -967zM563 102h602l-303 379z" />
    <glyph glyph-name="uni0196" unicode="&#x196;" horiz-adv-x="612" 
d="M190 260v1276h115v-1274q0 -92 36 -136t116 -44q50 0 112 24v-108q-67 -23 -133 -23q-246 0 -246 285z" />
    <glyph glyph-name="uni0197" unicode="&#x197;" horiz-adv-x="589" 
d="M561 727h-209v-727h-114v727h-209v102h209v707h114v-707h209v-102z" />
    <glyph glyph-name="uni0198" unicode="&#x198;" horiz-adv-x="1634" 
d="M1477 0l-584 805l-598 -805h-96v1536h114v-1339l920 1239q44 60 96 92.5t133 32.5q58 0 131 -29v-111q-83 33 -131 33q-85 0 -151 -86l-344 -463l645 -905h-135z" />
    <glyph glyph-name="uni0199" unicode="&#x199;" horiz-adv-x="1286" 
d="M1135 0l-392 565l-475 -565h-104v1143q0 221 114.5 340t331.5 119q147 0 291 -66v-115q-152 76 -291 76q-176 0 -256 -97.5t-80 -281.5v-952l824 981h135l-416 -494l457 -653h-139z" />
    <glyph glyph-name="uni019A" unicode="&#x19a;" horiz-adv-x="577" 
d="M20 776v94h213v707h111v-707h213v-94h-213v-776h-111v776h-213z" />
    <glyph glyph-name="uni019B" unicode="&#x19b;" horiz-adv-x="1300" 
d="M995 1380l-352 -125l625 -1255h-119l-506 1024l-530 -1024h-119l563 1079h59l-69 142l-334 -119l-33 96l322 115l-10 18q-42 85 -96 126.5t-138 41.5q-115 0 -231 -72v97q121 78 235 78q109 0 185.5 -55.5t132.5 -166.5l16 -34l367 131z" />
    <glyph glyph-name="uni019C" unicode="&#x19c;" horiz-adv-x="2326" 
d="M643 -25q-218 0 -337.5 142t-119.5 403v1016h115v-993q0 -227 93.5 -344t275.5 -117q191 0 308.5 138t117.5 360v956h114v-993q0 -227 93.5 -344t275.5 -117q191 0 308.5 138t117.5 360v956h115v-1536h-115v276q-62 -141 -180 -221t-273 -80q-173 0 -285.5 91t-150.5 262
q-56 -165 -180.5 -259t-292.5 -94z" />
    <glyph glyph-name="uni019D" unicode="&#x19d;" horiz-adv-x="1841" 
d="M199 43v1493h149l1184 -1411v1411h110v-1536h-149l-1184 1411v-1395q0 -174 -92.5 -276t-263.5 -102q-125 0 -223 61v113q105 -68 213 -68q129 0 192.5 73t63.5 226z" />
    <glyph glyph-name="uni019E" unicode="&#x19e;" horiz-adv-x="1421" 
d="M776 1171q238 0 368 -141.5t130 -402.5v-965h-111v942q0 230 -104 348.5t-307 118.5q-211 0 -340 -139.5t-129 -364.5v-567h-111v1147h111v-285q67 146 195.5 227.5t297.5 81.5z" />
    <glyph glyph-name="uni019F" unicode="&#x19f;" horiz-adv-x="1904" 
d="M952 -25q-186 0 -343.5 58.5t-268 162t-172.5 251t-62 321.5t62 321.5t172.5 251t268 162t343.5 58.5t343.5 -58.5t268 -162t172.5 -251t62 -321.5t-62 -321.5t-172.5 -251t-268 -162t-343.5 -58.5zM952 82q317 0 512.5 172t212.5 463h-1450q17 -291 212.5 -463
t512.5 -172zM952 1454q-317 0 -512.5 -172t-212.5 -463h1450q-17 291 -212.5 463t-512.5 172z" />
    <glyph glyph-name="Ohorn" unicode="&#x1a0;" horiz-adv-x="1894" 
d="M952 -25q-186 0 -343.5 58.5t-268 162t-172.5 251t-62 321.5t62 321.5t172.5 251t268 162t343.5 58.5q113 0 238 -27q112 -25 203 -25q241 0 241 156q0 34 -11.5 73t-31.5 66h109q41 -71 41 -153q0 -98 -72.5 -157.5t-214.5 -68.5q163 -104 253.5 -274t90.5 -383
q0 -174 -62 -321.5t-172.5 -251t-268 -162t-343.5 -58.5zM952 82q331 0 529 187t198 499t-198 499t-529 187t-529 -187t-198 -499t198 -499t529 -187z" />
    <glyph glyph-name="ohorn" unicode="&#x1a1;" horiz-adv-x="1503" 
d="M754 -25q-295 0 -479.5 166.5t-184.5 431.5t184.5 431.5t479.5 166.5q75 0 200 -22q78 -12 136 -12q105 0 153.5 34t48.5 105q0 31 -12 72t-31 67h115q39 -67 39 -143q0 -94 -60.5 -153t-171.5 -66q117 -79 181.5 -203t64.5 -277q0 -175 -83.5 -311t-234.5 -211.5
t-345 -75.5zM754 80q250 0 399.5 134.5t149.5 358.5q0 225 -149.5 359.5t-399.5 134.5t-399.5 -134.5t-149.5 -359.5q0 -224 149.5 -358.5t399.5 -134.5z" />
    <glyph glyph-name="uni01A4" unicode="&#x1a4;" horiz-adv-x="1839" 
d="M346 1536h936q222 0 361 -119.5t139 -310.5t-139 -310.5t-361 -119.5h-647v-676h-115v1436h-147q-205 0 -205 -187q0 -108 65 -268h-112q-70 148 -70 268q0 141 79.5 214t215.5 73zM635 778h649q172 0 275.5 89.5t103.5 238.5t-103.5 238.5t-275.5 89.5h-649v-656z" />
    <glyph glyph-name="uni01A5" unicode="&#x1a5;" horiz-adv-x="1540" 
d="M162 -338v1481q0 221 114.5 340t331.5 119q147 0 291 -66v-115q-152 76 -291 76q-176 0 -256 -97.5t-80 -281.5v-356q94 191 249 300t345 109q125 0 232.5 -44t184.5 -122t121 -189.5t44 -242.5t-44 -242.5t-121 -189.5t-184.5 -122t-232.5 -44q-190 0 -345 109.5
t-249 300.5v-723h-110zM1333 573q0 218 -131.5 356t-335.5 138q-196 0 -349.5 -133t-246.5 -361q93 -228 246.5 -360.5t349.5 -132.5q204 0 335.5 137.5t131.5 355.5z" />
    <glyph glyph-name="uni01A9" unicode="&#x1a9;" horiz-adv-x="1398" 
d="M1337 0h-1276v102l701 666l-684 666v102h1239v-102h-1088l631 -617v-100l-645 -615h1122v-102z" />
    <glyph glyph-name="uni01AA" unicode="&#x1aa;" horiz-adv-x="884" 
d="M973 -258q110 0 215 68v-111q-42 -26 -102.5 -43.5t-120.5 -17.5q-170 0 -262.5 102t-92.5 274v1084q-59 -79 -141 -124.5t-176 -45.5q-150 0 -250 99.5t-100 240.5t104 237.5t281 96.5q95 0 171.5 -33.5t124 -91.5t72.5 -132.5t25 -160.5v-1151q0 -148 62.5 -219.5
t189.5 -71.5zM311 1026q100 0 177 59t120 158q-8 109 -82 181.5t-198 72.5q-132 0 -201.5 -64.5t-69.5 -168.5q0 -106 70 -172t184 -66z" />
    <glyph glyph-name="uni01AC" unicode="&#x1ac;" horiz-adv-x="1656" 
d="M831 0v1434h-454q-99 0 -152 -43.5t-53 -141.5q0 -106 66 -268h-113q-70 148 -70 268q0 141 79.5 214t215.5 73h1280v-102h-684v-1434h-115z" />
    <glyph glyph-name="uni01AD" unicode="&#x1ad;" horiz-adv-x="1028" 
d="M6 1047v61l258 31q2 226 116 344.5t331 118.5q146 0 290 -66v-115q-152 76 -290 76q-323 0 -336 -350h586v-100h-586v-668q0 -162 72.5 -230.5t224.5 -68.5q172 0 311 100v-114q-48 -35 -143 -63t-189 -28q-105 0 -182 29.5t-120.5 83t-64 121t-20.5 151.5v687h-258z" />
    <glyph glyph-name="uni01AE" unicode="&#x1ae;" horiz-adv-x="1536" 
d="M27 1434v102h1482v-102h-684v-1399q0 -148 62.5 -219.5t189.5 -71.5q108 0 213 68v-113q-98 -61 -223 -61q-171 0 -263.5 102t-92.5 276v1418h-684z" />
    <glyph glyph-name="Uhorn" unicode="&#x1af;" horiz-adv-x="1753" 
d="M293 1536v-905q0 -250 155.5 -399.5t415.5 -149.5t416 149.5t156 399.5v905h94q76 0 119 34t43 95q0 31 -12 72t-31 67h114q39 -67 39 -141q0 -95 -69 -154.5t-183 -62.5v-815q0 -292 -190 -474t-496 -182t-496 182t-190 474v905h115z" />
    <glyph glyph-name="uhorn" unicode="&#x1b0;" horiz-adv-x="1452" 
d="M1227 0h-111v295q-65 -151 -191 -235.5t-290 -84.5q-233 0 -360.5 142t-127.5 403v627h111v-604q0 -230 102 -348.5t299 -118.5q205 0 331 139.5t126 364.5v567h90q76 0 119 34t43 95q0 31 -12 72t-31 67h115q39 -67 39 -141q0 -95 -69 -154.5t-183 -62.5v-1057z" />
    <glyph glyph-name="uni01B1" unicode="&#x1b1;" horiz-adv-x="1859" 
d="M930 -25q-186 0 -337 58.5t-249.5 160.5t-151.5 239t-53 296q0 223 111.5 407t310.5 298h-467v102h635v-102q-240 -124 -355.5 -295.5t-115.5 -399.5q0 -303 178 -479t494 -176t494 176t178 479q0 228 -116 399.5t-356 295.5v102h635v-102h-467q198 -114 310 -298.5
t112 -406.5q0 -159 -52.5 -296t-151 -239t-249.5 -160.5t-337 -58.5z" />
    <glyph glyph-name="uni01B2" unicode="&#x1b2;" horiz-adv-x="1724" 
d="M182 596v940h115v-944q0 -104 25.5 -192.5t78.5 -161.5t146 -114.5t217 -41.5q114 0 220.5 40t199 121t161.5 193.5t108.5 267.5t39.5 334q0 203 -93.5 309.5t-256.5 106.5q-136 0 -258 -68v105q47 29 121 49.5t147 20.5q222 0 340.5 -131.5t118.5 -391.5
q0 -233 -63 -431t-174 -337t-268.5 -217t-342.5 -78q-123 0 -221.5 32t-165 87.5t-111 134.5t-64.5 170t-20 197z" />
    <glyph glyph-name="uni01B3" unicode="&#x1b3;" horiz-adv-x="1695" 
d="M891 0h-115v639l-731 897h137l654 -803l481 713q76 115 201 115q58 0 122 -27v-111q-71 31 -122 31q-42 0 -71 -19.5t-56 -58.5l-500 -739v-637z" />
    <glyph glyph-name="uni01B4" unicode="&#x1b4;" horiz-adv-x="1540" 
d="M344 -362q-73 0 -131 18t-121 59v97q115 -72 248 -72q178 0 258 168l64 129h-66l-563 1110h123l530 -1057l438 899q47 97 103 139.5t135 42.5q59 0 113 -28v-105q-59 31 -103 31q-55 0 -93.5 -32.5t-76.5 -112.5l-518 -1065q-109 -221 -340 -221z" />
    <glyph glyph-name="uni01B5" unicode="&#x1b5;" horiz-adv-x="1521" 
d="M213 727v102h526l547 605h-1196v102h1344v-102l-547 -605h430v-102h-522l-566 -625h1211v-102h-1360v102l567 625h-434z" />
    <glyph glyph-name="uni01B6" unicode="&#x1b6;" horiz-adv-x="1241" 
d="M135 537v94h467l414 420h-934v96h1075v-92l-416 -424h363v-94h-455l-434 -441h946v-96h-1087v92l436 445h-375z" />
    <glyph glyph-name="uni01B7" unicode="&#x1b7;" horiz-adv-x="1513" 
d="M125 1434v102h1239v-102l-637 -535h74q312 0 465 -119.5t153 -320.5q0 -217 -177.5 -350.5t-479.5 -133.5q-309 0 -496.5 135.5t-206.5 362.5h115q23 -188 175.5 -291.5t412.5 -103.5q255 0 396.5 99t141.5 284q0 80 -28 142t-90 109t-167.5 72t-252.5 25h-172v100
l620 525h-1085z" />
    <glyph glyph-name="uni01B8" unicode="&#x1b8;" horiz-adv-x="1513" 
d="M1389 1536v-102h-1086l621 -525v-100h-172q-147 0 -253 -25t-167.5 -72t-90 -109t-28.5 -142q0 -185 141.5 -284t397.5 -99q260 0 412 103t175 292h115q-19 -227 -206 -362.5t-496 -135.5q-302 0 -480 133.5t-178 350.5q0 201 153.5 320.5t465.5 119.5h73l-636 535v102
h1239z" />
    <glyph glyph-name="uni01B9" unicode="&#x1b9;" horiz-adv-x="1331" 
d="M1219 1147v-96h-957l563 -519v-88h-159q-252 0 -368 -91t-116 -251q0 -171 126 -264.5t358 -93.5q222 0 359.5 101t162.5 276h112q-19 -212 -189 -346.5t-445 -134.5q-142 0 -257 36.5t-188.5 100.5t-113 149t-39.5 183q0 193 142 305t427 112h53l-569 529v92h1098z" />
    <glyph glyph-name="uni01C0" unicode="&#x1c0;" horiz-adv-x="438" 
d="M164 -215v1792h110v-1792h-110z" />
    <glyph glyph-name="uni01C1" unicode="&#x1c1;" horiz-adv-x="843" 
d="M164 -215v1792h110v-1792h-110zM569 -215v1792h111v-1792h-111z" />
    <glyph glyph-name="uni01C2" unicode="&#x1c2;" horiz-adv-x="614" 
d="M72 848v94h180v635h110v-635h181v-94h-181v-334h181v-94h-181v-635h-110v635h-180v94h180v334h-180z" />
    <glyph glyph-name="uni01C3" unicode="&#x1c3;" horiz-adv-x="389" 
d="M156 389l-17 1147h111l-17 -1147h-77zM195 -12q-41 0 -70 28.5t-29 69.5t29 69.5t70 28.5t69.5 -28.5t28.5 -69.5t-28.5 -69.5t-69.5 -28.5z" />
    <glyph glyph-name="uni01C4" unicode="&#x1c4;" horiz-adv-x="3160" 
d="M199 1536h620q186 0 343.5 -56.5t268 -156.5t172.5 -243t62 -312t-62 -312t-172.5 -243t-268 -156.5t-343.5 -56.5h-620v1536zM3090 0h-1359v102l1206 1332h-1196v102h1343v-102l-1204 -1332h1210v-102zM2775 1950l-293 -277h-139l-293 277h123l240 -197l239 197h123z
M313 1436v-1336h506q322 0 524.5 186t202.5 482t-202.5 482t-524.5 186h-506z" />
    <glyph glyph-name="uni01C5" unicode="&#x1c5;" horiz-adv-x="2998" 
d="M199 1536h620q186 0 343.5 -56.5t268 -156.5t172.5 -243t62 -312t-62 -312t-172.5 -243t-268 -156.5t-343.5 -56.5h-620v1536zM2931 0h-1088v92l942 959h-934v96h1076v-92l-942 -959h946v-96zM2750 1602l-292 -318h-140l-293 318h123l240 -236l240 236h122zM313 1436
v-1336h506q322 0 524.5 186t202.5 482t-202.5 482t-524.5 186h-506z" />
    <glyph glyph-name="uni01C6" unicode="&#x1c6;" horiz-adv-x="2746" 
d="M1374 1577v-1577h-110v377q-96 -188 -249.5 -295t-340.5 -107q-125 0 -232.5 44t-184.5 122t-121 189.5t-44 242.5t44 242.5t121 189.5t184.5 122t232.5 44q187 0 341 -106.5t249 -294.5v807h110zM2679 0h-1088v92l942 959h-934v96h1076v-92l-942 -959h946v-96z
M2499 1602l-293 -318h-140l-292 318h122l240 -236l240 236h123zM207 573q0 -218 131.5 -355.5t335.5 -137.5q196 0 349.5 132.5t246.5 360.5q-93 228 -246.5 361t-349.5 133q-204 0 -335.5 -138t-131.5 -356z" />
    <glyph glyph-name="uni01C7" unicode="&#x1c7;" horiz-adv-x="2959" 
d="M199 1536h114v-1434h1114v-102h-1228v1536zM1489 631v84h113v-84q0 -263 130.5 -406t401.5 -143q530 0 530 549v905h115v-905q0 -170 -47 -297.5t-134 -205t-203 -115.5t-261 -38t-261 38t-203 115.5t-134 205t-47 297.5z" />
    <glyph glyph-name="uni01C8" unicode="&#x1c8;" horiz-adv-x="1886" 
d="M199 1536h114v-1434h1114v-102h-1228v1536zM1901 1147v-1124q0 -84 -20.5 -151.5t-64.5 -121t-121 -83t-182 -29.5q-94 0 -188.5 27.5t-142.5 62.5v114q139 -100 311 -100q152 0 224.5 68.5t72.5 230.5v1106h111zM1845 1341q-43 0 -72.5 29.5t-29.5 71.5q0 41 29.5 70.5
t72.5 29.5t73 -29.5t30 -70.5t-30 -71t-73 -30z" />
    <glyph glyph-name="uni01C9" unicode="&#x1c9;" horiz-adv-x="843" 
d="M164 0v1577h110v-1577h-110zM858 1147v-1124q0 -84 -20.5 -151.5t-64 -121t-120.5 -83t-182 -29.5q-94 0 -189 27.5t-143 62.5v114q139 -100 312 -100q152 0 224.5 68.5t72.5 230.5v1106h110zM803 1341q-43 0 -73 30t-30 71t30 70.5t73 29.5t72.5 -29.5t29.5 -70.5
q0 -42 -29.5 -71.5t-72.5 -29.5z" />
    <glyph glyph-name="uni01CA" unicode="&#x1ca;" horiz-adv-x="3371" 
d="M348 1536l1184 -1411v1411h110v-1536h-149l-1184 1411v-1411h-110v1536h149zM1901 631v84h112v-84q0 -263 131 -406t402 -143q530 0 530 549v905h115v-905q0 -170 -47 -297.5t-134 -205t-203 -115.5t-261 -38t-261 38t-203 115.5t-134 205t-47 297.5z" />
    <glyph glyph-name="uni01CB" unicode="&#x1cb;" horiz-adv-x="2246" 
d="M348 1536l1184 -1411v1411h110v-1536h-149l-1184 1411v-1411h-110v1536h149zM2261 1147v-1124q0 -84 -20.5 -151.5t-64 -121t-120.5 -83t-182 -29.5q-94 0 -189 27.5t-143 62.5v114q139 -100 311 -100q152 0 224.5 68.5t72.5 230.5v1106h111zM2206 1341q-43 0 -73 30
t-30 71t30 70.5t73 29.5t72.5 -29.5t29.5 -70.5q0 -42 -30 -71.5t-72 -29.5z" />
    <glyph glyph-name="uni01CC" unicode="&#x1cc;" horiz-adv-x="1822" 
d="M778 1171q238 0 368 -141.5t130 -402.5v-627h-111v604q0 230 -104 348.5t-307 118.5q-211 0 -340 -139.5t-129 -364.5v-567h-111v1147h111v-285q67 146 195.5 227.5t297.5 81.5zM1837 1147v-1124q0 -84 -20.5 -151.5t-64 -121t-120.5 -83t-182 -29.5q-94 0 -189 27.5
t-143 62.5v114q139 -100 312 -100q152 0 224 68.5t72 230.5v1106h111zM1782 1341q-43 0 -73 30t-30 71t30 70.5t73 29.5t72.5 -29.5t29.5 -70.5q0 -42 -30 -71.5t-72 -29.5z" />
    <glyph glyph-name="uni01CD" unicode="&#x1cd;" horiz-adv-x="1724" 
d="M805 1536h115l776 -1536h-129l-205 410h-1000l-204 -410h-129zM1225 1950l-293 -277h-139l-293 277h123l239 -197l240 197h123zM414 512h897l-449 895z" />
    <glyph glyph-name="uni01CE" unicode="&#x1ce;" horiz-adv-x="1527" 
d="M1104 0v256q-60 -118 -199.5 -199.5t-341.5 -81.5q-138 0 -248 44.5t-175.5 131.5t-65.5 203q0 87 38 155.5t97 110.5t138.5 69t155.5 37.5t154 10.5q280 0 447 -65q0 185 -125 292t-354 107q-252 0 -443 -137v102q184 135 451 135q124 0 228 -32t183.5 -94.5
t124.5 -163.5t45 -232v-649h-110zM1100 1602l-293 -318h-139l-293 318h123l239 -236l240 236h123zM1104 567q-122 72 -395 72q-516 0 -516 -281q0 -131 107 -207.5t290 -76.5q102 0 195 34.5t164 96.5t113 156t42 206z" />
    <glyph glyph-name="uni01CF" unicode="&#x1cf;" horiz-adv-x="512" 
d="M199 0v1536h114v-1536h-114zM618 1950l-292 -277h-140l-292 277h122l240 -197l240 197h122z" />
    <glyph glyph-name="uni01D0" unicode="&#x1d0;" horiz-adv-x="438" 
d="M164 0v1147h110v-1147h-110zM582 1602l-293 -318h-139l-293 318h123l239 -236l240 236h123z" />
    <glyph glyph-name="uni01D1" unicode="&#x1d1;" horiz-adv-x="1904" 
d="M952 -25q-186 0 -343.5 58.5t-268 162t-172.5 251t-62 321.5t62 321.5t172.5 251t268 162t343.5 58.5t343.5 -58.5t268 -162t172.5 -251t62 -321.5t-62 -321.5t-172.5 -251t-268 -162t-343.5 -58.5zM1315 1950l-293 -277h-139l-293 277h123l239 -197l240 197h123zM952 82
q331 0 529 187t198 499t-198 499t-529 187t-529 -187t-198 -499t198 -499t529 -187z" />
    <glyph glyph-name="uni01D2" unicode="&#x1d2;" 
d="M754 -25q-295 0 -479.5 166.5t-184.5 431.5t184.5 431.5t479.5 166.5q194 0 345 -75.5t234.5 -211.5t83.5 -311t-83.5 -311t-234.5 -211.5t-345 -75.5zM1116 1602l-293 -318h-139l-293 318h123l240 -236l239 236h123zM754 80q250 0 399.5 134.5t149.5 358.5
q0 225 -149.5 359.5t-399.5 134.5t-399.5 -134.5t-149.5 -359.5q0 -224 149.5 -358.5t399.5 -134.5z" />
    <glyph glyph-name="uni01D3" unicode="&#x1d3;" horiz-adv-x="1728" 
d="M293 1536v-905q0 -250 155.5 -399.5t415.5 -149.5t416 149.5t156 399.5v905h114v-905q0 -292 -190 -474t-496 -182t-496 182t-190 474v905h115zM1227 1950l-293 -277h-139l-293 277h123l239 -197l240 197h123z" />
    <glyph glyph-name="uni01D4" unicode="&#x1d4;" horiz-adv-x="1398" 
d="M1227 0h-111v295q-65 -151 -191 -235.5t-290 -84.5q-233 0 -360.5 142t-127.5 403v627h111v-604q0 -230 102 -348.5t299 -118.5q205 0 331 139.5t126 364.5v567h111v-1147zM1051 1602l-293 -318h-140l-292 318h123l239 -236l240 236h123z" />
    <glyph glyph-name="uni01D5" unicode="&#x1d5;" horiz-adv-x="1728" 
d="M293 1536v-905q0 -250 155.5 -399.5t415.5 -149.5t416 149.5t156 399.5v905h114v-905q0 -292 -190 -474t-496 -182t-496 182t-190 474v905h115zM557 1731q-43 0 -72.5 29.5t-29.5 70.5t29.5 70.5t72.5 29.5t72.5 -29.5t29.5 -70.5t-29.5 -70.5t-72.5 -29.5zM1171 1731
q-43 0 -72.5 29.5t-29.5 70.5t29.5 70.5t72.5 29.5t73 -29.5t30 -70.5t-30 -70.5t-73 -29.5zM1260 2073h-793v98h793v-98z" />
    <glyph glyph-name="uni01D6" unicode="&#x1d6;" horiz-adv-x="1398" 
d="M1227 0h-111v295q-65 -151 -191 -235.5t-290 -84.5q-233 0 -360.5 142t-127.5 403v627h111v-604q0 -230 102 -348.5t299 -118.5q205 0 331 139.5t126 364.5v567h111v-1147zM383 1341q-43 0 -72.5 29.5t-29.5 71.5q0 41 29.5 70.5t72.5 29.5t72.5 -29.5t29.5 -70.5
q0 -42 -29.5 -71.5t-72.5 -29.5zM993 1341q-43 0 -72.5 29.5t-29.5 71.5q0 41 29.5 70.5t72.5 29.5t73 -29.5t30 -70.5t-30 -71t-73 -30zM1083 1724h-792v99h792v-99z" />
    <glyph glyph-name="uni01D7" unicode="&#x1d7;" horiz-adv-x="1728" 
d="M293 1536v-905q0 -250 155.5 -399.5t415.5 -149.5t416 149.5t156 399.5v905h114v-905q0 -292 -190 -474t-496 -182t-496 182t-190 474v905h115zM557 1731q-43 0 -72.5 29.5t-29.5 70.5t29.5 70.5t72.5 29.5t72.5 -29.5t29.5 -70.5t-29.5 -70.5t-72.5 -29.5zM1171 1731
q-43 0 -72.5 29.5t-29.5 70.5t29.5 70.5t72.5 29.5t73 -29.5t30 -70.5t-30 -70.5t-73 -29.5zM745 2023l297 277h152l-315 -277h-134z" />
    <glyph glyph-name="uni01D8" unicode="&#x1d8;" horiz-adv-x="1398" 
d="M1227 0h-111v295q-65 -151 -191 -235.5t-290 -84.5q-233 0 -360.5 142t-127.5 403v627h111v-604q0 -230 102 -348.5t299 -118.5q205 0 331 139.5t126 364.5v567h111v-1147zM383 1341q-43 0 -72.5 29.5t-29.5 71.5q0 41 29.5 70.5t72.5 29.5t72.5 -29.5t29.5 -70.5
q0 -42 -29.5 -71.5t-72.5 -29.5zM993 1341q-43 0 -72.5 29.5t-29.5 71.5q0 41 29.5 70.5t72.5 29.5t73 -29.5t30 -70.5t-30 -71t-73 -30zM569 1634l297 277h152l-316 -277h-133z" />
    <glyph glyph-name="uni01D9" unicode="&#x1d9;" horiz-adv-x="1728" 
d="M293 1536v-905q0 -250 155.5 -399.5t415.5 -149.5t416 149.5t156 399.5v905h114v-905q0 -292 -190 -474t-496 -182t-496 182t-190 474v905h115zM557 1731q-43 0 -72.5 29.5t-29.5 70.5t29.5 70.5t72.5 29.5t72.5 -29.5t29.5 -70.5t-29.5 -70.5t-72.5 -29.5zM1227 2300
l-293 -277h-139l-293 277h123l239 -197l240 197h123zM1171 1731q-43 0 -72.5 29.5t-29.5 70.5t29.5 70.5t72.5 29.5t73 -29.5t30 -70.5t-30 -70.5t-73 -29.5z" />
    <glyph glyph-name="uni01DA" unicode="&#x1da;" horiz-adv-x="1398" 
d="M1227 0h-111v295q-65 -151 -191 -235.5t-290 -84.5q-233 0 -360.5 142t-127.5 403v627h111v-604q0 -230 102 -348.5t299 -118.5q205 0 331 139.5t126 364.5v567h111v-1147zM383 1341q-43 0 -72.5 29.5t-29.5 71.5q0 41 29.5 70.5t72.5 29.5t72.5 -29.5t29.5 -70.5
q0 -42 -29.5 -71.5t-72.5 -29.5zM1051 1911l-293 -277h-140l-292 277h123l239 -197l240 197h123zM993 1341q-43 0 -72.5 29.5t-29.5 71.5q0 41 29.5 70.5t72.5 29.5t73 -29.5t30 -70.5t-30 -71t-73 -30z" />
    <glyph glyph-name="uni01DB" unicode="&#x1db;" horiz-adv-x="1728" 
d="M293 1536v-905q0 -250 155.5 -399.5t415.5 -149.5t416 149.5t156 399.5v905h114v-905q0 -292 -190 -474t-496 -182t-496 182t-190 474v905h115zM557 1731q-43 0 -72.5 29.5t-29.5 70.5t29.5 70.5t72.5 29.5t72.5 -29.5t29.5 -70.5t-29.5 -70.5t-72.5 -29.5zM1171 1731
q-43 0 -72.5 29.5t-29.5 70.5t29.5 70.5t72.5 29.5t73 -29.5t30 -70.5t-30 -70.5t-73 -29.5zM659 2300l297 -277h-133l-315 277h151z" />
    <glyph glyph-name="uni01DC" unicode="&#x1dc;" horiz-adv-x="1398" 
d="M1227 0h-111v295q-65 -151 -191 -235.5t-290 -84.5q-233 0 -360.5 142t-127.5 403v627h111v-604q0 -230 102 -348.5t299 -118.5q205 0 331 139.5t126 364.5v567h111v-1147zM383 1341q-43 0 -72.5 29.5t-29.5 71.5q0 41 29.5 70.5t72.5 29.5t72.5 -29.5t29.5 -70.5
q0 -42 -29.5 -71.5t-72.5 -29.5zM993 1341q-43 0 -72.5 29.5t-29.5 71.5q0 41 29.5 70.5t72.5 29.5t73 -29.5t30 -70.5t-30 -71t-73 -30zM483 1911l297 -277h-133l-315 277h151z" />
    <glyph glyph-name="uni01DD" unicode="&#x1dd;" horiz-adv-x="1396" 
d="M647 1171q292 0 475 -166.5t183 -431.5q0 -266 -172 -432t-449 -166q-267 0 -433.5 170.5t-166.5 444.5h1106q-6 217 -154 347t-389 130q-287 0 -528 -195v105q105 90 248 142t280 52zM684 80q208 0 341.5 111t158.5 301h-979q26 -190 154.5 -301t324.5 -111z" />
    <glyph glyph-name="uni01DE" unicode="&#x1de;" horiz-adv-x="1724" 
d="M805 1536h115l776 -1536h-129l-205 410h-1000l-204 -410h-129zM414 512h897l-449 895zM555 1731q-43 0 -72.5 29.5t-29.5 70.5t29.5 70.5t72.5 29.5t72.5 -29.5t29.5 -70.5t-29.5 -70.5t-72.5 -29.5zM1169 1731q-43 0 -72.5 29.5t-29.5 70.5t29.5 70.5t72.5 29.5
t73 -29.5t30 -70.5t-30 -70.5t-73 -29.5zM1257 2073h-792v98h792v-98z" />
    <glyph glyph-name="uni01DF" unicode="&#x1df;" horiz-adv-x="1527" 
d="M1104 0v256q-60 -118 -199.5 -199.5t-341.5 -81.5q-138 0 -248 44.5t-175.5 131.5t-65.5 203q0 87 38 155.5t97 110.5t138.5 69t155.5 37.5t154 10.5q280 0 447 -65q0 185 -125 292t-354 107q-252 0 -443 -137v102q184 135 451 135q124 0 228 -32t183.5 -94.5
t124.5 -163.5t45 -232v-649h-110zM1104 567q-122 72 -395 72q-516 0 -516 -281q0 -131 107 -207.5t290 -76.5q102 0 195 34.5t164 96.5t113 156t42 206zM432 1341q-42 0 -72 29.5t-30 71.5q0 41 29.5 70.5t72.5 29.5t73 -29.5t30 -70.5t-30 -71t-73 -30zM1042 1341
q-42 0 -72 29.5t-30 71.5q0 41 29.5 70.5t72.5 29.5t73 -29.5t30 -70.5t-30 -71t-73 -30zM1133 1724h-793v99h793v-99z" />
    <glyph glyph-name="uni01E0" unicode="&#x1e0;" horiz-adv-x="1724" 
d="M805 1536h115l776 -1536h-129l-205 410h-1000l-204 -410h-129zM414 512h897l-449 895zM862 1731q-43 0 -72.5 29.5t-29.5 70.5t29.5 70.5t72.5 29.5t73 -29.5t30 -70.5t-30 -70.5t-73 -29.5zM1257 2073h-792v98h792v-98z" />
    <glyph glyph-name="uni01E1" unicode="&#x1e1;" horiz-adv-x="1527" 
d="M1104 0v256q-60 -118 -199.5 -199.5t-341.5 -81.5q-138 0 -248 44.5t-175.5 131.5t-65.5 203q0 87 38 155.5t97 110.5t138.5 69t155.5 37.5t154 10.5q280 0 447 -65q0 185 -125 292t-354 107q-252 0 -443 -137v102q184 135 451 135q124 0 228 -32t183.5 -94.5
t124.5 -163.5t45 -232v-649h-110zM1104 567q-122 72 -395 72q-516 0 -516 -281q0 -131 107 -207.5t290 -76.5q102 0 195 34.5t164 96.5t113 156t42 206zM737 1341q-43 0 -72.5 29.5t-29.5 71.5q0 41 29.5 70.5t72.5 29.5t73 -29.5t30 -70.5t-30 -71t-73 -30zM1133 1724h-793
v99h793v-99z" />
    <glyph glyph-name="uni01E2" unicode="&#x1e2;" horiz-adv-x="2541" 
d="M2316 717h-1003l291 -615h909v-102h-983l-195 410h-979l-194 -410h-129l733 1536h1591v-102h-1386l293 -615h1052v-102zM406 512h880l-440 928zM1919 1743h-793v98h793v-98z" />
    <glyph glyph-name="uni01E3" unicode="&#x1e3;" horiz-adv-x="2543" 
d="M1339 0h-92l-6 334q-97 -169 -243.5 -264t-323.5 -95q-125 0 -232.5 44t-184.5 122t-121 189.5t-44 242.5t44 242.5t121 189.5t184.5 122t232.5 44q177 0 323.5 -94.5t243.5 -263.5l6 334h92l4 -279q72 145 211.5 224t311.5 79q137 0 249.5 -49t187 -135t115 -202.5
t40.5 -252.5h-1088q13 -206 158 -329t373 -123q282 0 522 194v-104q-89 -78 -227 -136.5t-295 -58.5q-190 0 -337 83t-221 229zM207 573q0 -218 131.5 -355.5t335.5 -137.5q196 0 349.5 132.5t246.5 360.5q-93 228 -246.5 361t-349.5 133q-204 0 -335.5 -138t-131.5 -356z
M1866 1067q-207 0 -342 -118.5t-154 -317.5h969q-27 202 -152 319t-321 117zM1690 1395h-793v98h793v-98z" />
    <glyph glyph-name="uni01E4" unicode="&#x1e4;" horiz-adv-x="1949" 
d="M1040 664v102h709v-248h209v-102h-209v-414h-98l-2 324q-85 -168 -265.5 -259.5t-435.5 -91.5q-189 0 -347 58t-266.5 162t-168.5 251.5t-60 321.5q0 232 105.5 412.5t297.5 280.5t439 100q319 0 536.5 -164t244.5 -416h-119q-39 216 -216 344.5t-452 128.5
q-326 0 -521.5 -187t-195.5 -499q0 -310 199.5 -498t538.5 -188q245 0 412 85t231 249h-688v102h716q11 64 11 113v33h-605z" />
    <glyph glyph-name="uni01E5" unicode="&#x1e5;" horiz-adv-x="1525" 
d="M645 57q-234 0 -392.5 155.5t-158.5 401.5t158.5 401.5t392.5 155.5q200 0 366 -110.5t246 -265.5v352h111v-842q0 -192 -63 -330h243v-94h-297q-87 -122 -225.5 -182.5t-310.5 -60.5q-295 0 -506 174v108q216 -178 500 -178q256 0 401 139h-504v94h578q73 122 73 299
v160q-80 -155 -246 -266t-366 -111zM664 162q179 0 327.5 108t272.5 344q-122 236 -271.5 344.5t-328.5 108.5q-214 0 -334.5 -126t-120.5 -327t120.5 -326.5t334.5 -125.5z" />
    <glyph glyph-name="Gcaron" unicode="&#x1e6;" horiz-adv-x="1884" 
d="M944 82q287 0 475 149t219 387h-598v103h709v-721h-98l-4 393q-83 -191 -269 -304.5t-434 -113.5q-245 0 -436 100t-296.5 280.5t-105.5 412.5t105.5 412.5t297.5 280.5t439 100q319 0 536.5 -164t244.5 -416h-119q-39 216 -216 344.5t-452 128.5q-326 0 -521.5 -187
t-195.5 -499t196 -499t523 -187zM1300 1950l-292 -277h-140l-293 277h123l240 -197l240 197h122z" />
    <glyph glyph-name="gcaron" unicode="&#x1e7;" horiz-adv-x="1525" 
d="M645 57q-234 0 -392.5 155.5t-158.5 401.5t158.5 401.5t392.5 155.5q200 0 366 -110.5t246 -265.5v352h111v-842q0 -135 -33 -246t-91.5 -188.5t-141 -130t-179.5 -77.5t-208 -25q-295 0 -506 174v108q216 -178 500 -178q264 0 406 143t142 389v160q-80 -155 -246 -266
t-366 -111zM1110 1602l-293 -318h-139l-293 318h123l240 -236l239 236h123zM664 162q179 0 327.5 108t272.5 344q-122 236 -271.5 344.5t-328.5 108.5q-214 0 -334.5 -126t-120.5 -327t120.5 -326.5t334.5 -125.5z" />
    <glyph glyph-name="uni01E8" unicode="&#x1e8;" horiz-adv-x="1630" 
d="M313 0h-114v1536h114v-717h518l621 717h145l-659 -766l684 -770h-145l-646 717h-518v-717zM1227 1950l-293 -277h-139l-293 277h123l239 -197l240 197h123z" />
    <glyph glyph-name="uni01E9" unicode="&#x1e9;" horiz-adv-x="1286" 
d="M274 0h-110v1577h110v-950h367l457 520h141l-498 -565l539 -582h-145l-486 526h-375v-526zM1081 1991l-293 -277h-139l-293 277h123l240 -197l239 197h123z" />
    <glyph glyph-name="uni01EA" unicode="&#x1ea;" horiz-adv-x="1904" 
d="M1176 -266v-86q-66 -19 -150 -19q-119 0 -190.5 42t-71.5 114q0 111 160 190q-240 6 -426 107t-289 279.5t-103 406.5q0 174 62 321.5t172.5 251t268 162t343.5 58.5t343.5 -58.5t268 -162t172.5 -251t62 -321.5q0 -294 -166 -494.5t-456 -275.5q-141 -37 -223.5 -87
t-82.5 -106q0 -84 174 -84q72 0 132 13zM225 768q0 -312 198 -499t529 -187t529 187t198 499t-198 499t-529 187t-529 -187t-198 -499z" />
    <glyph glyph-name="uni01EB" unicode="&#x1eb;" 
d="M987 8q-299 -94 -299 -203q0 -84 174 -84q71 0 131 13v-86q-66 -19 -149 -19q-119 0 -190.5 42t-71.5 114q0 114 170 190q-294 2 -478 167.5t-184 430.5t184.5 431.5t479.5 166.5q194 0 345 -75.5t234.5 -211.5t83.5 -311q0 -216 -118 -360.5t-312 -204.5zM205 573
q0 -224 149.5 -358.5t399.5 -134.5t399.5 134.5t149.5 358.5q0 225 -149.5 359.5t-399.5 134.5t-399.5 -134.5t-149.5 -359.5z" />
    <glyph glyph-name="uni01EC" unicode="&#x1ec;" horiz-adv-x="1904" 
d="M1176 -266v-86q-66 -19 -150 -19q-119 0 -190.5 42t-71.5 114q0 111 160 190q-240 6 -426 107t-289 279.5t-103 406.5q0 174 62 321.5t172.5 251t268 162t343.5 58.5t343.5 -58.5t268 -162t172.5 -251t62 -321.5q0 -294 -166 -494.5t-456 -275.5q-141 -37 -223.5 -87
t-82.5 -106q0 -84 174 -84q72 0 132 13zM225 768q0 -312 198 -499t529 -187t529 187t198 499t-198 499t-529 187t-529 -187t-198 -499zM1348 1743h-793v98h793v-98z" />
    <glyph glyph-name="uni01ED" unicode="&#x1ed;" 
d="M987 8q-299 -94 -299 -203q0 -84 174 -84q71 0 131 13v-86q-66 -19 -149 -19q-119 0 -190.5 42t-71.5 114q0 114 170 190q-294 2 -478 167.5t-184 430.5t184.5 431.5t479.5 166.5q194 0 345 -75.5t234.5 -211.5t83.5 -311q0 -216 -118 -360.5t-312 -204.5zM205 573
q0 -224 149.5 -358.5t399.5 -134.5t399.5 134.5t149.5 358.5q0 225 -149.5 359.5t-399.5 134.5t-399.5 -134.5t-149.5 -359.5zM1149 1395h-793v98h793v-98z" />
    <glyph glyph-name="uni01EE" unicode="&#x1ee;" horiz-adv-x="1513" 
d="M125 1434v102h1239v-102l-637 -535h74q312 0 465 -119.5t153 -320.5q0 -217 -177.5 -350.5t-479.5 -133.5q-309 0 -496.5 135.5t-206.5 362.5h115q23 -188 175.5 -291.5t412.5 -103.5q255 0 396.5 99t141.5 284q0 80 -28 142t-90 109t-167.5 72t-252.5 25h-172v100
l620 525h-1085zM1108 1950l-293 -277h-139l-293 277h123l239 -197l240 197h123z" />
    <glyph glyph-name="uni01EF" unicode="&#x1ef;" horiz-adv-x="1331" 
d="M113 1051v96h1097v-92l-569 -529h53q285 0 427.5 -112.5t142.5 -304.5q0 -98 -39.5 -183t-113 -149t-188.5 -100.5t-257 -36.5q-275 0 -445.5 134.5t-189.5 346.5h112q25 -175 163 -276t360 -101q232 0 357.5 93.5t125.5 264.5q0 160 -115.5 251t-367.5 91h-160v88
l563 519h-956zM1022 1602l-293 -318h-139l-293 318h123l239 -236l240 236h123z" />
    <glyph glyph-name="uni01F0" unicode="&#x1f0;" horiz-adv-x="438" 
d="M274 1147v-1124q0 -84 -20.5 -151.5t-64 -121t-120.5 -83t-182 -29.5q-94 0 -188.5 27.5t-142.5 62.5v114q139 -100 311 -100q152 0 224.5 68.5t72.5 230.5v1106h110zM582 1602l-293 -318h-139l-293 318h123l239 -236l240 236h123z" />
    <glyph glyph-name="uni01F1" unicode="&#x1f1;" horiz-adv-x="3160" 
d="M199 1536h620q186 0 343.5 -56.5t268 -156.5t172.5 -243t62 -312t-62 -312t-172.5 -243t-268 -156.5t-343.5 -56.5h-620v1536zM3090 0h-1359v102l1206 1332h-1196v102h1343v-102l-1204 -1332h1210v-102zM313 1436v-1336h506q322 0 524.5 186t202.5 482t-202.5 482
t-524.5 186h-506z" />
    <glyph glyph-name="uni01F2" unicode="&#x1f2;" horiz-adv-x="2998" 
d="M199 1536h620q186 0 343.5 -56.5t268 -156.5t172.5 -243t62 -312t-62 -312t-172.5 -243t-268 -156.5t-343.5 -56.5h-620v1536zM2931 0h-1088v92l942 959h-934v96h1076v-92l-942 -959h946v-96zM313 1436v-1336h506q322 0 524.5 186t202.5 482t-202.5 482t-524.5 186h-506z
" />
    <glyph glyph-name="uni01F3" unicode="&#x1f3;" horiz-adv-x="2746" 
d="M1374 1577v-1577h-110v377q-96 -188 -249.5 -295t-340.5 -107q-125 0 -232.5 44t-184.5 122t-121 189.5t-44 242.5t44 242.5t121 189.5t184.5 122t232.5 44q187 0 341 -106.5t249 -294.5v807h110zM2679 0h-1088v92l942 959h-934v96h1076v-92l-942 -959h946v-96zM207 573
q0 -218 131.5 -355.5t335.5 -137.5q196 0 349.5 132.5t246.5 360.5q-93 228 -246.5 361t-349.5 133q-204 0 -335.5 -138t-131.5 -356z" />
    <glyph glyph-name="uni01F4" unicode="&#x1f4;" horiz-adv-x="1884" 
d="M944 82q287 0 475 149t219 387h-598v103h709v-721h-98l-4 393q-83 -191 -269 -304.5t-434 -113.5q-245 0 -436 100t-296.5 280.5t-105.5 412.5t105.5 412.5t297.5 280.5t439 100q319 0 536.5 -164t244.5 -416h-119q-39 216 -216 344.5t-452 128.5q-326 0 -521.5 -187
t-195.5 -499t196 -499t523 -187zM819 1673l297 277h152l-316 -277h-133z" />
    <glyph glyph-name="uni01F5" unicode="&#x1f5;" horiz-adv-x="1525" 
d="M645 57q-234 0 -392.5 155.5t-158.5 401.5t158.5 401.5t392.5 155.5q200 0 366 -110.5t246 -265.5v352h111v-842q0 -135 -33 -246t-91.5 -188.5t-141 -130t-179.5 -77.5t-208 -25q-295 0 -506 174v108q216 -178 500 -178q264 0 406 143t142 389v160q-80 -155 -246 -266
t-366 -111zM664 162q179 0 327.5 108t272.5 344q-122 236 -271.5 344.5t-328.5 108.5q-214 0 -334.5 -126t-120.5 -327t120.5 -326.5t334.5 -125.5zM655 1284l240 318h125l-244 -318h-121z" />
    <glyph glyph-name="uni01F8" unicode="&#x1f8;" horiz-adv-x="1841" 
d="M348 1536l1184 -1411v1411h110v-1536h-149l-1184 1411v-1411h-110v1536h149zM741 1950l297 -277h-133l-315 277h151z" />
    <glyph glyph-name="uni01F9" unicode="&#x1f9;" horiz-adv-x="1423" 
d="M778 1171q238 0 368 -141.5t130 -402.5v-627h-111v604q0 230 -104 348.5t-307 118.5q-211 0 -340 -139.5t-129 -364.5v-567h-111v1147h111v-285q67 146 195.5 227.5t297.5 81.5zM578 1602l239 -318h-121l-243 318h125z" />
    <glyph glyph-name="Aringacute" unicode="&#x1fa;" horiz-adv-x="1724" 
d="M805 1536h115l776 -1536h-129l-205 410h-1000l-204 -410h-129zM414 512h897l-449 895zM862 1653q-118 0 -189 53t-71 141q0 78 57 130t154 63l137 256h133l-163 -258q94 -12 148 -63t54 -128q0 -88 -71 -141t-189 -53zM862 1739q82 0 126 28t44 80t-44 80.5t-126 28.5
t-126 -28.5t-44 -80.5t44 -80t126 -28z" />
    <glyph glyph-name="aringacute" unicode="&#x1fb;" horiz-adv-x="1527" 
d="M1104 0v256q-60 -118 -199.5 -199.5t-341.5 -81.5q-138 0 -248 44.5t-175.5 131.5t-65.5 203q0 87 38 155.5t97 110.5t138.5 69t155.5 37.5t154 10.5q280 0 447 -65q0 185 -125 292t-354 107q-252 0 -443 -137v102q184 135 451 135q124 0 228 -32t183.5 -94.5
t124.5 -163.5t45 -232v-649h-110zM1104 567q-122 72 -395 72q-516 0 -516 -281q0 -131 107 -207.5t290 -76.5q102 0 195 34.5t164 96.5t113 156t42 206zM737 1264q-118 0 -189 59t-71 156q0 87 57 144t156 69l135 252h133l-161 -254q93 -15 146.5 -71t53.5 -140
q0 -97 -71 -156t-189 -59zM737 1350q82 0 126 33.5t44 95.5t-44 95.5t-126 33.5t-126 -33.5t-44 -95.5t44 -95.5t126 -33.5z" />
    <glyph glyph-name="AEacute" unicode="&#x1fc;" horiz-adv-x="2541" 
d="M2316 717h-1003l291 -615h909v-102h-983l-195 410h-979l-194 -410h-129l733 1536h1591v-102h-1386l293 -615h1052v-102zM406 512h880l-440 928zM1405 1673l297 277h151l-315 -277h-133z" />
    <glyph glyph-name="aeacute" unicode="&#x1fd;" horiz-adv-x="2543" 
d="M1339 0h-92l-6 334q-97 -169 -243.5 -264t-323.5 -95q-125 0 -232.5 44t-184.5 122t-121 189.5t-44 242.5t44 242.5t121 189.5t184.5 122t232.5 44q177 0 323.5 -94.5t243.5 -263.5l6 334h92l4 -279q72 145 211.5 224t311.5 79q137 0 249.5 -49t187 -135t115 -202.5
t40.5 -252.5h-1088q13 -206 158 -329t373 -123q282 0 522 194v-104q-89 -78 -227 -136.5t-295 -58.5q-190 0 -337 83t-221 229zM207 573q0 -218 131.5 -355.5t335.5 -137.5q196 0 349.5 132.5t246.5 360.5q-93 228 -246.5 361t-349.5 133q-204 0 -335.5 -138t-131.5 -356z
M1866 1067q-207 0 -342 -118.5t-154 -317.5h969q-27 202 -152 319t-321 117zM1202 1284l240 318h125l-244 -318h-121z" />
    <glyph glyph-name="Oslashacute" unicode="&#x1fe;" horiz-adv-x="1904" 
d="M147 -20l199 213q-116 106 -178 252.5t-62 322.5q0 174 62 321.5t172.5 251t268 162t343.5 58.5q309 0 527 -154l139 149h139l-198 -213q115 -106 177 -252.5t62 -322.5q0 -174 -62 -321.5t-172.5 -251t-268 -162t-343.5 -58.5q-308 0 -526 154l-139 -149h-140zM225 768
q0 -310 195 -496l985 1057q-186 125 -453 125q-331 0 -529 -187t-198 -499zM952 82q331 0 529 187t198 499q0 311 -194 496l-985 -1057q186 -125 452 -125zM834 1673l296 277h152l-315 -277h-133z" />
    <glyph glyph-name="oslashacute" unicode="&#x1ff;" 
d="M111 -61l176 192q-95 80 -146 193.5t-51 248.5q0 265 184.5 431.5t479.5 166.5q222 0 387 -98l123 135h133l-176 -192q94 -80 145 -194t51 -249q0 -175 -83.5 -311t-234.5 -211.5t-345 -75.5q-220 0 -387 99l-123 -135h-133zM205 573q0 -228 153 -362l711 782
q-135 74 -315 74q-250 0 -399.5 -134.5t-149.5 -359.5zM754 80q250 0 399.5 134.5t149.5 358.5q0 228 -154 363l-711 -782q135 -74 316 -74zM662 1284l239 318h125l-244 -318h-120z" />
    <glyph glyph-name="uni0200" unicode="&#x200;" horiz-adv-x="1724" 
d="M805 1536h115l776 -1536h-129l-205 410h-1000l-204 -410h-129zM414 512h897l-449 895zM891 1950l242 -277h-127l-248 277h133zM532 1950l242 -277h-127l-248 277h133z" />
    <glyph glyph-name="uni0201" unicode="&#x201;" horiz-adv-x="1527" 
d="M1104 0v256q-60 -118 -199.5 -199.5t-341.5 -81.5q-138 0 -248 44.5t-175.5 131.5t-65.5 203q0 87 38 155.5t97 110.5t138.5 69t155.5 37.5t154 10.5q280 0 447 -65q0 185 -125 292t-354 107q-252 0 -443 -137v102q184 135 451 135q124 0 228 -32t183.5 -94.5
t124.5 -163.5t45 -232v-649h-110zM1104 567q-122 72 -395 72q-516 0 -516 -281q0 -131 107 -207.5t290 -76.5q102 0 195 34.5t164 96.5t113 156t42 206zM745 1602l216 -318h-121l-219 318h124zM428 1602l215 -318h-121l-219 318h125z" />
    <glyph glyph-name="uni0202" unicode="&#x202;" horiz-adv-x="1724" 
d="M805 1536h115l776 -1536h-129l-205 410h-1000l-204 -410h-129zM414 512h897l-449 895zM1223 1671h-105q-43 191 -256 191t-256 -191h-104q25 133 121 208t239 75t239.5 -75t121.5 -208z" />
    <glyph glyph-name="uni0203" unicode="&#x203;" horiz-adv-x="1527" 
d="M1104 0v256q-60 -118 -199.5 -199.5t-341.5 -81.5q-138 0 -248 44.5t-175.5 131.5t-65.5 203q0 87 38 155.5t97 110.5t138.5 69t155.5 37.5t154 10.5q280 0 447 -65q0 185 -125 292t-354 107q-252 0 -443 -137v102q184 135 451 135q124 0 228 -32t183.5 -94.5
t124.5 -163.5t45 -232v-649h-110zM1104 567q-122 72 -395 72q-516 0 -516 -281q0 -131 107 -207.5t290 -76.5q102 0 195 34.5t164 96.5t113 156t42 206zM1098 1284h-105q-20 106 -87.5 164.5t-168.5 58.5t-168.5 -58.5t-87.5 -164.5h-104q17 149 111.5 232t248.5 83t249 -83
t112 -232z" />
    <glyph glyph-name="uni0204" unicode="&#x204;" 
d="M258 1434v-615h1083v-102h-1083v-615h1135v-102h-1250v1536h1239v-102h-1124zM795 1950l241 -277h-127l-247 277h133zM436 1950l242 -277h-127l-248 277h133z" />
    <glyph glyph-name="uni0205" unicode="&#x205;" horiz-adv-x="1396" 
d="M750 -25q-292 0 -475 166.5t-183 431.5q0 266 172 432t449 166q267 0 433.5 -170t166.5 -444h-1106q6 -217 154 -347t389 -130q288 0 528 194v-104q-105 -90 -248.5 -142.5t-279.5 -52.5zM713 1067q-208 0 -341.5 -111t-158.5 -301h979q-26 190 -154.5 301t-324.5 111z
M711 1602l215 -318h-121l-219 318h125zM393 1602l215 -318h-121l-219 318h125z" />
    <glyph glyph-name="uni0206" unicode="&#x206;" 
d="M258 1434v-615h1083v-102h-1083v-615h1135v-102h-1250v1536h1239v-102h-1124zM1126 1671h-104q-43 191 -256 191t-256 -191h-104q25 133 121 208t239 75t239 -75t121 -208z" />
    <glyph glyph-name="uni0207" unicode="&#x207;" horiz-adv-x="1396" 
d="M750 -25q-292 0 -475 166.5t-183 431.5q0 266 172 432t449 166q267 0 433.5 -170t166.5 -444h-1106q6 -217 154 -347t389 -130q288 0 528 194v-104q-105 -90 -248.5 -142.5t-279.5 -52.5zM713 1067q-208 0 -341.5 -111t-158.5 -301h979q-26 190 -154.5 301t-324.5 111z
M1063 1284h-105q-20 106 -87.5 164.5t-168.5 58.5t-168.5 -58.5t-87.5 -164.5h-104q17 149 111.5 232t248.5 83t249 -83t112 -232z" />
    <glyph glyph-name="uni0208" unicode="&#x208;" horiz-adv-x="512" 
d="M199 0v1536h114v-1536h-114zM182 1950h125l170 -277h-121zM-123 1950h125l170 -277h-121z" />
    <glyph glyph-name="uni0209" unicode="&#x209;" horiz-adv-x="438" 
d="M164 0v1147h110v-1147h-110zM104 1602h125l170 -318h-120zM-119 1602h125l170 -318h-121z" />
    <glyph glyph-name="uni020A" unicode="&#x20a;" horiz-adv-x="512" 
d="M199 0v1536h114v-1536h-114zM616 1671h-104q-43 191 -256 191t-256 -191h-104q25 133 121 208t239 75t239 -75t121 -208z" />
    <glyph glyph-name="uni020B" unicode="&#x20b;" horiz-adv-x="438" 
d="M164 0v1147h110v-1147h-110zM518 1286h-94q-17 108 -69 165.5t-136 57.5t-136 -57.5t-69 -165.5h-94q17 150 95 233t204 83t204 -83t95 -233z" />
    <glyph glyph-name="uni020C" unicode="&#x20c;" horiz-adv-x="1904" 
d="M952 -25q-186 0 -343.5 58.5t-268 162t-172.5 251t-62 321.5t62 321.5t172.5 251t268 162t343.5 58.5t343.5 -58.5t268 -162t172.5 -251t62 -321.5t-62 -321.5t-172.5 -251t-268 -162t-343.5 -58.5zM952 82q331 0 529 187t198 499t-198 499t-529 187t-529 -187t-198 -499
t198 -499t529 -187zM981 1950l242 -277h-127l-248 277h133zM623 1950l241 -277h-127l-248 277h134z" />
    <glyph glyph-name="uni020D" unicode="&#x20d;" 
d="M754 -25q-295 0 -479.5 166.5t-184.5 431.5t184.5 431.5t479.5 166.5q194 0 345 -75.5t234.5 -211.5t83.5 -311t-83.5 -311t-234.5 -211.5t-345 -75.5zM754 80q250 0 399.5 134.5t149.5 358.5q0 225 -149.5 359.5t-399.5 134.5t-399.5 -134.5t-149.5 -359.5
q0 -224 149.5 -358.5t399.5 -134.5zM762 1602l215 -318h-121l-219 318h125zM444 1602l215 -318h-120l-220 318h125z" />
    <glyph glyph-name="uni020E" unicode="&#x20e;" horiz-adv-x="1904" 
d="M952 -25q-186 0 -343.5 58.5t-268 162t-172.5 251t-62 321.5t62 321.5t172.5 251t268 162t343.5 58.5t343.5 -58.5t268 -162t172.5 -251t62 -321.5t-62 -321.5t-172.5 -251t-268 -162t-343.5 -58.5zM952 82q331 0 529 187t198 499t-198 499t-529 187t-529 -187t-198 -499
t198 -499t529 -187zM1313 1671h-105q-43 191 -256 191t-256 -191h-104q25 133 121 208t239 75t239.5 -75t121.5 -208z" />
    <glyph glyph-name="uni020F" unicode="&#x20f;" 
d="M754 -25q-295 0 -479.5 166.5t-184.5 431.5t184.5 431.5t479.5 166.5q194 0 345 -75.5t234.5 -211.5t83.5 -311t-83.5 -311t-234.5 -211.5t-345 -75.5zM754 80q250 0 399.5 134.5t149.5 358.5q0 225 -149.5 359.5t-399.5 134.5t-399.5 -134.5t-149.5 -359.5
q0 -224 149.5 -358.5t399.5 -134.5zM1114 1284h-104q-20 106 -87.5 164.5t-168.5 58.5t-168.5 -58.5t-87.5 -164.5h-105q17 149 112 232t249 83t248.5 -83t111.5 -232z" />
    <glyph glyph-name="uni0210" unicode="&#x210;" horiz-adv-x="1566" 
d="M1329 0l-633 676h-383v-676h-114v1536h762q222 0 360.5 -119.5t138.5 -310.5t-138.5 -310.5t-360.5 -119.5h-109l633 -676h-156zM313 778h658q170 0 272.5 89.5t102.5 238.5t-102.5 238.5t-272.5 89.5h-658v-656zM803 1950l241 -277h-126l-248 277h133zM444 1950
l242 -277h-127l-248 277h133z" />
    <glyph glyph-name="uni0211" unicode="&#x211;" horiz-adv-x="946" 
d="M924 1147v-109q-73 27 -185 27q-201 0 -327.5 -138.5t-126.5 -359.5v-567h-111v1147h111v-273q59 138 181 217.5t284 79.5q107 0 174 -24zM535 1602l215 -318h-121l-219 318h125zM217 1602l215 -318h-121l-219 318h125z" />
    <glyph glyph-name="uni0212" unicode="&#x212;" horiz-adv-x="1566" 
d="M1329 0l-633 676h-383v-676h-114v1536h762q222 0 360.5 -119.5t138.5 -310.5t-138.5 -310.5t-360.5 -119.5h-109l633 -676h-156zM313 778h658q170 0 272.5 89.5t102.5 238.5t-102.5 238.5t-272.5 89.5h-658v-656zM1135 1671h-105q-43 191 -256 191t-256 -191h-104
q25 133 121 208t239 75t239.5 -75t121.5 -208z" />
    <glyph glyph-name="uni0213" unicode="&#x213;" horiz-adv-x="946" 
d="M924 1147v-109q-73 27 -185 27q-201 0 -327.5 -138.5t-126.5 -359.5v-567h-111v1147h111v-273q59 138 181 217.5t284 79.5q107 0 174 -24zM887 1284h-105q-20 106 -87.5 164.5t-168.5 58.5t-168.5 -58.5t-87.5 -164.5h-104q17 149 111.5 232t248.5 83t249 -83t112 -232z
" />
    <glyph glyph-name="uni0214" unicode="&#x214;" horiz-adv-x="1728" 
d="M293 1536v-905q0 -250 155.5 -399.5t415.5 -149.5t416 149.5t156 399.5v905h114v-905q0 -292 -190 -474t-496 -182t-496 182t-190 474v905h115zM893 1950l242 -277h-127l-248 277h133zM535 1950l241 -277h-127l-248 277h134z" />
    <glyph glyph-name="uni0215" unicode="&#x215;" horiz-adv-x="1400" 
d="M1227 0h-111v295q-65 -151 -191 -235.5t-290 -84.5q-233 0 -360.5 142t-127.5 403v627h111v-604q0 -230 102 -348.5t299 -118.5q205 0 331 139.5t126 364.5v567h111v-1147zM696 1602l215 -318h-120l-220 318h125zM379 1602l215 -318h-121l-219 318h125z" />
    <glyph glyph-name="uni0216" unicode="&#x216;" horiz-adv-x="1728" 
d="M293 1536v-905q0 -250 155.5 -399.5t415.5 -149.5t416 149.5t156 399.5v905h114v-905q0 -292 -190 -474t-496 -182t-496 182t-190 474v905h115zM1225 1671h-105q-43 191 -256 191t-256 -191h-104q25 133 121 208t239 75t239.5 -75t121.5 -208z" />
    <glyph glyph-name="uni0217" unicode="&#x217;" horiz-adv-x="1400" 
d="M1227 0h-111v295q-65 -151 -191 -235.5t-290 -84.5q-233 0 -360.5 142t-127.5 403v627h111v-604q0 -230 102 -348.5t299 -118.5q205 0 331 139.5t126 364.5v567h111v-1147zM1049 1284h-105q-20 106 -87.5 164.5t-168.5 58.5t-168.5 -58.5t-87.5 -164.5h-104
q17 149 111.5 232t248.5 83t249 -83t112 -232z" />
    <glyph glyph-name="uni0218" unicode="&#x218;" horiz-adv-x="1572" 
d="M88 496h115q23 -189 186.5 -302.5t415.5 -113.5q255 0 406 93t151 255q0 120 -101 185.5t-339 91.5l-260 28q-276 30 -400.5 127.5t-124.5 261.5q0 132 79.5 232t222 153.5t327.5 53.5q287 0 473.5 -131.5t198.5 -342.5h-115q-20 168 -172.5 268.5t-386.5 100.5
q-235 0 -373.5 -89t-138.5 -245q0 -123 99.5 -188.5t330.5 -91.5l248 -29q295 -34 421 -121.5t126 -259.5q0 -213 -183 -335t-491 -122q-199 0 -358.5 65.5t-253 184t-103.5 271.5zM780 -442h-86l72 159q-32 6 -53 31t-21 55q0 40 25.5 67.5t68.5 27.5q49 0 74 -29t25 -70
q0 -20 -7.5 -43t-17 -43t-33.5 -65z" />
    <glyph glyph-name="uni0219" unicode="&#x219;" horiz-adv-x="1302" 
d="M1214 322q0 -154 -150.5 -250.5t-393.5 -96.5q-254 0 -418.5 115t-173.5 299h112q17 -139 151 -226t329 -87q192 0 311 68.5t119 177.5q0 90 -75.5 132.5t-276.5 65.5l-218 25q-220 24 -317.5 96t-97.5 201q0 153 138.5 241t367.5 88q246 0 406 -107.5t171 -277.5h-113
q-15 126 -145 205.5t-324 79.5q-186 0 -286.5 -58t-100.5 -165q0 -87 70.5 -133t239.5 -66l215 -24q257 -29 358.5 -96t101.5 -207zM645 -442h-86l72 159q-32 6 -53 31t-21 55q0 40 25.5 67.5t68.5 27.5q49 0 74 -29t25 -70q0 -20 -7.5 -43t-17 -43t-33.5 -65z" />
    <glyph glyph-name="uni021A" unicode="&#x21a;" horiz-adv-x="1536" 
d="M711 0v1434h-684v102h1482v-102h-684v-1434h-114zM764 -442h-86l72 159q-32 6 -53 31t-21 55q0 40 25.5 67.5t68.5 27.5q49 0 73.5 -29t24.5 -70q0 -29 -12 -58.5t-45 -92.5z" />
    <glyph glyph-name="uni021B" unicode="&#x21b;" horiz-adv-x="1028" 
d="M264 1047h-258v61l258 31l41 301h70v-293h586v-100h-586v-668q0 -162 72.5 -230.5t224.5 -68.5q172 0 311 100v-114q-48 -35 -143 -63t-189 -28q-105 0 -182 29.5t-120.5 83t-64 121t-20.5 151.5v687zM614 -442h-86l72 159q-32 6 -53 31t-21 55q0 40 26 67.5t69 27.5
q49 0 73.5 -29t24.5 -70q0 -29 -12 -58.5t-45 -92.5z" />
    <glyph glyph-name="uni021C" unicode="&#x21c;" horiz-adv-x="1513" 
d="M125 1434v102h1239v-102l-637 -535h74q312 0 465 -119.5t153 -320.5q0 -217 -177.5 -350.5t-479.5 -133.5q-309 0 -496.5 135.5t-206.5 362.5h115q23 -188 175.5 -291.5t412.5 -103.5q255 0 396.5 99t141.5 284q0 80 -28 142t-90 109t-167.5 72t-252.5 25h-172v100
l620 525h-1085z" />
    <glyph glyph-name="uni021D" unicode="&#x21d;" horiz-adv-x="1331" 
d="M113 1051v96h1097v-92l-569 -529h53q285 0 427.5 -112.5t142.5 -304.5q0 -98 -39.5 -183t-113 -149t-188.5 -100.5t-257 -36.5q-275 0 -445.5 134.5t-189.5 346.5h112q25 -175 163 -276t360 -101q232 0 357.5 93.5t125.5 264.5q0 160 -115.5 251t-367.5 91h-160v88
l563 519h-956z" />
    <glyph glyph-name="uni021E" unicode="&#x21e;" horiz-adv-x="1802" 
d="M199 0v1536h114v-717h1176v717h115v-1536h-115v717h-1176v-717h-114zM1264 1950l-293 -277h-140l-292 277h123l239 -197l240 197h123z" />
    <glyph glyph-name="uni021F" unicode="&#x21f;" horiz-adv-x="1411" 
d="M164 0v1577h110v-715q66 146 195 227.5t297 81.5q238 0 368 -141.5t130 -402.5v-627h-111v604q0 230 -104.5 348.5t-307.5 118.5q-210 0 -338.5 -139.5t-128.5 -364.5v-567h-110zM1108 1991l-293 -277h-139l-293 277h123l239 -197l240 197h123z" />
    <glyph glyph-name="uni0220" unicode="&#x220;" horiz-adv-x="1708" 
d="M199 0v1536h114v-307q77 156 238 244t377 88q284 0 441 -159t157 -448v-1292h-115v1270q0 257 -130.5 389.5t-383.5 132.5q-264 0 -424 -138t-160 -360v-956h-114z" />
    <glyph glyph-name="uni0226" unicode="&#x226;" horiz-adv-x="1724" 
d="M805 1536h115l776 -1536h-129l-205 410h-1000l-204 -410h-129zM414 512h897l-449 895zM862 1731q-43 0 -72.5 29.5t-29.5 70.5t29.5 70.5t72.5 29.5t73 -29.5t30 -70.5t-30 -70.5t-73 -29.5z" />
    <glyph glyph-name="uni0227" unicode="&#x227;" horiz-adv-x="1527" 
d="M1104 0v256q-60 -118 -199.5 -199.5t-341.5 -81.5q-138 0 -248 44.5t-175.5 131.5t-65.5 203q0 87 38 155.5t97 110.5t138.5 69t155.5 37.5t154 10.5q280 0 447 -65q0 185 -125 292t-354 107q-252 0 -443 -137v102q184 135 451 135q124 0 228 -32t183.5 -94.5
t124.5 -163.5t45 -232v-649h-110zM1104 567q-122 72 -395 72q-516 0 -516 -281q0 -131 107 -207.5t290 -76.5q102 0 195 34.5t164 96.5t113 156t42 206zM737 1341q-43 0 -72.5 29.5t-29.5 71.5q0 41 29.5 70.5t72.5 29.5t73 -29.5t30 -70.5t-30 -71t-73 -30z" />
    <glyph glyph-name="uni0228" unicode="&#x228;" 
d="M258 1434v-615h1083v-102h-1083v-615h1135v-102h-543l-76 -115q52 19 123 19q96 0 154.5 -43.5t58.5 -116.5q0 -80 -74 -129t-196 -49q-110 0 -196 45.5t-114 118.5h109q57 -76 201 -76q80 0 119.5 24.5t39.5 65.5q0 37 -36 57.5t-99 20.5q-79 0 -143 -29h-100l129 207
h-607v1536h1239v-102h-1124z" />
    <glyph glyph-name="uni0229" unicode="&#x229;" horiz-adv-x="1396" 
d="M547 -207l117 187q-258 25 -415 186.5t-157 406.5q0 266 172 432t449 166q267 0 433.5 -170t166.5 -444h-1106q6 -217 154 -347t389 -130q288 0 528 194v-104q-103 -89 -244 -141t-276 -54l-60 -92q50 21 125 21q95 0 153 -43.5t58 -116.5q0 -80 -73.5 -129t-194.5 -49
q-109 0 -193 45.5t-112 118.5h106q50 -78 199 -78q81 0 121.5 25t40.5 67q0 38 -36 59t-101 21q-84 0 -144 -31h-100zM713 1067q-208 0 -341.5 -111t-158.5 -301h979q-26 190 -154.5 301t-324.5 111z" />
    <glyph glyph-name="uni022A" unicode="&#x22a;" horiz-adv-x="1904" 
d="M952 -25q-186 0 -343.5 58.5t-268 162t-172.5 251t-62 321.5t62 321.5t172.5 251t268 162t343.5 58.5t343.5 -58.5t268 -162t172.5 -251t62 -321.5t-62 -321.5t-172.5 -251t-268 -162t-343.5 -58.5zM952 82q331 0 529 187t198 499t-198 499t-529 187t-529 -187t-198 -499
t198 -499t529 -187zM645 1731q-43 0 -72.5 29.5t-29.5 70.5t29.5 70.5t72.5 29.5t73 -29.5t30 -70.5t-30 -70.5t-73 -29.5zM1260 1731q-43 0 -73 29.5t-30 70.5t30 70.5t73 29.5t72.5 -29.5t29.5 -70.5t-29.5 -70.5t-72.5 -29.5zM1348 2073h-793v98h793v-98z" />
    <glyph glyph-name="uni022B" unicode="&#x22b;" 
d="M754 -25q-295 0 -479.5 166.5t-184.5 431.5t184.5 431.5t479.5 166.5q194 0 345 -75.5t234.5 -211.5t83.5 -311t-83.5 -311t-234.5 -211.5t-345 -75.5zM754 80q250 0 399.5 134.5t149.5 358.5q0 225 -149.5 359.5t-399.5 134.5t-399.5 -134.5t-149.5 -359.5
q0 -224 149.5 -358.5t399.5 -134.5zM449 1341q-43 0 -73 30t-30 71t30 70.5t73 29.5t72.5 -29.5t29.5 -70.5q0 -42 -29.5 -71.5t-72.5 -29.5zM1059 1341q-43 0 -73 30t-30 71t30 70.5t73 29.5t72.5 -29.5t29.5 -70.5q0 -42 -29.5 -71.5t-72.5 -29.5zM1149 1724h-793v99h793
v-99z" />
    <glyph glyph-name="uni022C" unicode="&#x22c;" horiz-adv-x="1904" 
d="M952 -25q-186 0 -343.5 58.5t-268 162t-172.5 251t-62 321.5t62 321.5t172.5 251t268 162t343.5 58.5t343.5 -58.5t268 -162t172.5 -251t62 -321.5t-62 -321.5t-172.5 -251t-268 -162t-343.5 -58.5zM952 82q331 0 529 187t198 499t-198 499t-529 187t-529 -187t-198 -499
t198 -499t529 -187zM633 1690h-94q8 107 66 172t149 65q48 0 107.5 -21.5t105.5 -48t98 -48t86 -21.5q49 0 80.5 36.5t40.5 102.5h94q-8 -107 -66 -172t-149 -65q-48 0 -107.5 21.5t-105.5 48t-98 48t-86 21.5q-49 0 -80.5 -36.5t-40.5 -102.5zM1348 2050h-793v98h793v-98z
" />
    <glyph glyph-name="uni022D" unicode="&#x22d;" 
d="M754 -25q-295 0 -479.5 166.5t-184.5 431.5t184.5 431.5t479.5 166.5q194 0 345 -75.5t234.5 -211.5t83.5 -311t-83.5 -311t-234.5 -211.5t-345 -75.5zM754 80q250 0 399.5 134.5t149.5 358.5q0 225 -149.5 359.5t-399.5 134.5t-399.5 -134.5t-149.5 -359.5
q0 -224 149.5 -358.5t399.5 -134.5zM455 1341h-95q8 107 66 172.5t149 65.5q43 0 96.5 -21.5t95 -48t88 -48t77.5 -21.5q49 0 80.5 36.5t40.5 102.5h94q-8 -107 -66 -172.5t-149 -65.5q-43 0 -96.5 22t-95 48t-88 48t-77.5 22q-49 0 -80 -36.5t-40 -103.5zM1149 1755h-793
v98h793v-98z" />
    <glyph glyph-name="uni022E" unicode="&#x22e;" horiz-adv-x="1904" 
d="M952 -25q-186 0 -343.5 58.5t-268 162t-172.5 251t-62 321.5t62 321.5t172.5 251t268 162t343.5 58.5t343.5 -58.5t268 -162t172.5 -251t62 -321.5t-62 -321.5t-172.5 -251t-268 -162t-343.5 -58.5zM952 82q331 0 529 187t198 499t-198 499t-529 187t-529 -187t-198 -499
t198 -499t529 -187zM952 1731q-43 0 -72.5 29.5t-29.5 70.5t29.5 70.5t72.5 29.5t73 -29.5t30 -70.5t-30 -70.5t-73 -29.5z" />
    <glyph glyph-name="uni022F" unicode="&#x22f;" 
d="M754 -25q-295 0 -479.5 166.5t-184.5 431.5t184.5 431.5t479.5 166.5q194 0 345 -75.5t234.5 -211.5t83.5 -311t-83.5 -311t-234.5 -211.5t-345 -75.5zM754 80q250 0 399.5 134.5t149.5 358.5q0 225 -149.5 359.5t-399.5 134.5t-399.5 -134.5t-149.5 -359.5
q0 -224 149.5 -358.5t399.5 -134.5zM754 1341q-43 0 -73 30t-30 71t30 70.5t73 29.5t72.5 -29.5t29.5 -70.5q0 -42 -30 -71.5t-72 -29.5z" />
    <glyph glyph-name="uni0230" unicode="&#x230;" horiz-adv-x="1904" 
d="M952 -25q-186 0 -343.5 58.5t-268 162t-172.5 251t-62 321.5t62 321.5t172.5 251t268 162t343.5 58.5t343.5 -58.5t268 -162t172.5 -251t62 -321.5t-62 -321.5t-172.5 -251t-268 -162t-343.5 -58.5zM952 82q331 0 529 187t198 499t-198 499t-529 187t-529 -187t-198 -499
t198 -499t529 -187zM952 1731q-43 0 -72.5 29.5t-29.5 70.5t29.5 70.5t72.5 29.5t73 -29.5t30 -70.5t-30 -70.5t-73 -29.5zM1348 2073h-793v98h793v-98z" />
    <glyph glyph-name="uni0231" unicode="&#x231;" 
d="M754 -25q-295 0 -479.5 166.5t-184.5 431.5t184.5 431.5t479.5 166.5q194 0 345 -75.5t234.5 -211.5t83.5 -311t-83.5 -311t-234.5 -211.5t-345 -75.5zM754 80q250 0 399.5 134.5t149.5 358.5q0 225 -149.5 359.5t-399.5 134.5t-399.5 -134.5t-149.5 -359.5
q0 -224 149.5 -358.5t399.5 -134.5zM754 1341q-43 0 -73 30t-30 71t30 70.5t73 29.5t72.5 -29.5t29.5 -70.5q0 -42 -30 -71.5t-72 -29.5zM1149 1724h-793v99h793v-99z" />
    <glyph glyph-name="uni0232" unicode="&#x232;" horiz-adv-x="1679" 
d="M897 0h-115v639l-731 897h137l652 -803l647 803h137l-727 -897v-639zM1233 1743h-793v98h793v-98z" />
    <glyph glyph-name="uni0233" unicode="&#x233;" horiz-adv-x="1376" 
d="M346 -362q-73 0 -131 18t-121 59v97q115 -72 248 -72q175 0 258 168l66 129h-68l-563 1110h123l532 -1061l537 1061h119l-660 -1288q-59 -113 -141.5 -167t-198.5 -54zM1085 1395h-792v98h792v-98z" />
    <glyph glyph-name="uni0237" unicode="&#x237;" horiz-adv-x="438" 
d="M274 1147v-1124q0 -84 -20.5 -151.5t-64 -121t-120.5 -83t-182 -29.5q-94 0 -188.5 27.5t-142.5 62.5v114q139 -100 311 -100q152 0 224.5 68.5t72.5 230.5v1106h110z" />
    <glyph glyph-name="uni0238" unicode="&#x238;" horiz-adv-x="2637" 
d="M674 1171q187 0 341 -106.5t249 -294.5v807h110v-807q95 188 249 294.5t341 106.5q125 0 232.5 -44t184.5 -122t121 -189.5t44 -242.5t-44 -242.5t-121 -189.5t-184.5 -122t-232.5 -44q-187 0 -340.5 107t-249.5 295v-377h-110v377q-96 -188 -249.5 -295t-340.5 -107
q-125 0 -232.5 44t-184.5 122t-121 189.5t-44 242.5t44 242.5t121 189.5t184.5 122t232.5 44zM2431 573q0 218 -131.5 356t-335.5 138q-196 0 -349.5 -133t-246.5 -361q93 -228 246.5 -360.5t349.5 -132.5q204 0 335.5 137.5t131.5 355.5zM207 573q0 -218 131.5 -355.5
t335.5 -137.5q196 0 349.5 132.5t246.5 360.5q-93 228 -246.5 361t-349.5 133q-204 0 -335.5 -138t-131.5 -356z" />
    <glyph glyph-name="uni0239" unicode="&#x239;" horiz-adv-x="2637" 
d="M674 1171q187 0 341 -106.5t249 -294.5v377h110v-377q95 188 249 294.5t341 106.5q125 0 232.5 -44t184.5 -122t121 -189.5t44 -242.5t-44 -242.5t-121 -189.5t-184.5 -122t-232.5 -44q-187 0 -340.5 107t-249.5 295v-715h-110v715q-96 -188 -249.5 -295t-340.5 -107
q-125 0 -232.5 44t-184.5 122t-121 189.5t-44 242.5t44 242.5t121 189.5t184.5 122t232.5 44zM2431 573q0 218 -131.5 356t-335.5 138q-196 0 -349.5 -133t-246.5 -361q93 -228 246.5 -360.5t349.5 -132.5q204 0 335.5 137.5t131.5 355.5zM207 573q0 -218 131.5 -355.5
t335.5 -137.5q196 0 349.5 132.5t246.5 360.5q-93 228 -246.5 361t-349.5 133q-204 0 -335.5 -138t-131.5 -356z" />
    <glyph glyph-name="uni023A" unicode="&#x23a;" horiz-adv-x="1724" 
d="M438 -250l289 660h-365l-204 -410h-129l776 1536h115l161 -317l248 567h107l-299 -682l559 -1104h-129l-205 410h-528l-289 -660h-107zM414 512h358l252 575l-162 320zM879 512h432l-232 461z" />
    <glyph glyph-name="uni023B" unicode="&#x23b;" horiz-adv-x="1824" 
d="M444 -250l129 295q-219 90 -343 280t-124 443q0 232 104 412.5t294.5 280.5t437.5 100q152 0 279 -37l114 262h107l-129 -295q178 -72 288 -210t132 -318h-119q-25 148 -114 258.5t-230 171.5l-561 -1282q113 -29 229 -29q276 0 457.5 133t218.5 358h119
q-31 -266 -249 -432t-542 -166q-152 0 -276 37l-115 -262h-107zM225 768q0 -224 102.5 -387t288.5 -240l562 1282q-115 31 -240 31q-324 0 -518.5 -187t-194.5 -499z" />
    <glyph glyph-name="uni023C" unicode="&#x23c;" horiz-adv-x="1411" 
d="M322 -246l116 277q-162 68 -254 210t-92 332q0 265 174.5 431.5t452.5 166.5q95 0 188 -22l103 244h102l-115 -275q134 -55 223 -156.5t113 -234.5h-119q-23 101 -90.5 177t-167.5 118l-389 -926q75 -16 152 -16q192 0 326.5 92.5t168.5 247.5h119
q-37 -198 -207.5 -321.5t-406.5 -123.5q-101 0 -193 25l-102 -246h-102zM207 573q0 -159 71 -274.5t199 -171.5l389 924q-75 16 -147 16q-233 0 -372.5 -135t-139.5 -359z" />
    <glyph glyph-name="uni023D" unicode="&#x23d;" horiz-adv-x="1492" 
d="M238 1536h114v-666h615v-102h-615v-666h1114v-102h-1228v768h-209v102h209v666z" />
    <glyph glyph-name="uni023E" unicode="&#x23e;" horiz-adv-x="1519" 
d="M414 -250l297 635v1049h-684v102h1222l117 250h109l-117 -250h151v-102h-198l-486 -1037v-397h-114v154l-189 -404h-108zM825 1434v-803l377 803h-377z" />
    <glyph glyph-name="uni0241" unicode="&#x241;" horiz-adv-x="1351" 
d="M715 1561q276 0 437 -111.5t161 -294.5q0 -68 -18.5 -123.5t-59 -103t-83.5 -82.5t-112 -82l-155 -105q-99 -65 -138.5 -148.5t-39.5 -219.5v-291h-115v291q0 163 51 265.5t176 186.5l135 91q93 62 140.5 104t73.5 92t26 115q0 152 -131 232.5t-352 80.5
q-235 0 -382.5 -98.5t-176.5 -272.5h-115q25 209 207 341.5t471 132.5z" />
    <glyph glyph-name="uni0242" unicode="&#x242;" horiz-adv-x="1206" 
d="M539 0v145q0 89 29.5 141.5t107.5 110.5l178 131q110 81 147 137t37 130q0 124 -111.5 198t-310.5 74q-217 0 -327.5 -88.5t-155.5 -273.5h-110q43 225 187 345.5t411 120.5q236 0 384 -98.5t148 -271.5q0 -63 -13 -110.5t-44 -89.5t-70.5 -77t-105.5 -82l-150 -106
q-71 -51 -96 -96t-25 -123v-117h-110z" />
    <glyph glyph-name="uni0243" unicode="&#x243;" horiz-adv-x="1712" 
d="M18 369v102h177v1065h880q211 0 323.5 -98.5t112.5 -272.5q0 -56 -15.5 -108.5t-47.5 -102t-87 -89.5t-128 -64q193 -29 287 -136t94 -257q0 -185 -133 -296.5t-373 -111.5h-913v369h-177zM315 369v-267h805q179 0 277 78.5t98 227.5q0 160 -119 244.5t-348 84.5h-713
v-266h576v-102h-576zM315 1434v-594h719q160 0 259.5 84.5t99.5 240.5q0 121 -85.5 195t-242.5 74h-750z" />
    <glyph glyph-name="uni0244" unicode="&#x244;" horiz-adv-x="1818" 
d="M338 1536v-666h1143v666h114v-666h201v-102h-201v-137q0 -292 -190 -474t-496 -182t-496 182t-190 474v137h-200v102h200v666h115zM909 82q260 0 416 149.5t156 399.5v137h-1143v-137q0 -250 155.5 -399.5t415.5 -149.5z" />
    <glyph glyph-name="uni0245" unicode="&#x245;" horiz-adv-x="1712" 
d="M156 0h-127l768 1536h118l768 -1536h-129l-698 1425z" />
    <glyph glyph-name="uni0246" unicode="&#x246;" 
d="M309 -250l105 250h-271v1536h912l104 250h107l-105 -250h221v-102h-264l-256 -615h479v-102h-522l-256 -615h830v-102h-873l-104 -250h-107zM258 102h199l256 615h-455v-615zM258 1434v-615h498l256 615h-754z" />
    <glyph glyph-name="uni0247" unicode="&#x247;" horiz-adv-x="1394" 
d="M319 -246l119 283q-163 70 -255.5 210t-92.5 326q0 266 172 432t449 166q96 0 192 -26l105 248h102l-119 -283q150 -71 235 -216t85 -337h-551l-193 -455q86 -22 181 -22q288 0 528 194v-104q-105 -90 -248.5 -142.5t-279.5 -52.5q-112 0 -222 29l-104 -250h-103z
M711 1067q-208 0 -341.5 -111t-158.5 -301h487l164 392q-67 20 -151 20zM205 557q4 -148 75.5 -257.5t198.5 -166.5l178 424h-452zM1190 655q-17 124 -79 216t-161 143l-149 -359h389z" />
    <glyph glyph-name="uni0248" unicode="&#x248;" horiz-adv-x="1591" 
d="M707 850v102h534v584h115v-584h209v-102h-209v-219q0 -170 -47 -297.5t-134 -205t-203 -115.5t-261 -38t-261 38t-203 115.5t-134 205t-47 297.5v84h112v-84q0 -263 131 -406t402 -143q530 0 530 549v219h-534z" />
    <glyph glyph-name="uni0249" unicode="&#x249;" horiz-adv-x="528" 
d="M319 1147v-442h181v-95h-181v-587q0 -84 -20.5 -151.5t-64 -121t-120.5 -83t-182 -29.5q-94 0 -188.5 27.5t-142.5 62.5v114q139 -100 311 -100q152 0 224.5 68.5t72.5 230.5v569h-180v95h180v442h110zM264 1341q-42 0 -72 29.5t-30 71.5q0 41 29.5 70.5t72.5 29.5
t73 -29.5t30 -70.5t-30 -71t-73 -30z" />
    <glyph glyph-name="uni024A" unicode="&#x24a;" horiz-adv-x="1941" 
d="M1995 -256q108 0 213 68v-113q-98 -61 -223 -61q-171 0 -264 102t-93 276v521q-120 -266 -315.5 -414t-450.5 -148q-220 0 -392 100t-266.5 280.5t-94.5 412.5t94.5 412.5t266.5 280.5t392 100q254 0 450 -146.5t316 -410.5v532h115v-1501q0 -148 62.5 -219.5
t189.5 -71.5zM227 770q0 -202 80.5 -358.5t226.5 -243t334 -86.5q132 0 248.5 49t210.5 141.5t169.5 216.5t135.5 281q-60 156 -135 278.5t-169 215t-210 141.5t-248 49q-286 0 -464.5 -190t-178.5 -494z" />
    <glyph glyph-name="uni024B" unicode="&#x24b;" horiz-adv-x="1542" 
d="M1378 1147v-1114q0 -148 62.5 -219.5t189.5 -71.5q110 0 215 68v-111q-42 -26 -102.5 -43.5t-120.5 -17.5q-170 0 -262 101.5t-92 274.5v371q-94 -191 -249 -300.5t-345 -109.5q-125 0 -232.5 44t-184.5 122t-121 189.5t-44 242.5t44 242.5t121 189.5t184.5 122t232.5 44
q190 0 345 -109t249 -300v385h110zM207 573q0 -218 131.5 -355.5t335.5 -137.5q196 0 349.5 132.5t246.5 360.5q-93 228 -246.5 361t-349.5 133q-204 0 -335.5 -138t-131.5 -356z" />
    <glyph glyph-name="uni024C" unicode="&#x24c;" horiz-adv-x="1605" 
d="M29 676v102h209v758h761q222 0 361 -119.5t139 -310.5t-139 -310.5t-361 -119.5h-108l633 -676h-156l-633 676h-383v-676h-114v676h-209zM352 778h658q170 0 272 89.5t102 238.5t-102 238.5t-272 89.5h-658v-656z" />
    <glyph glyph-name="uni024D" unicode="&#x24d;" horiz-adv-x="983" 
d="M961 1147v-109q-73 27 -185 27q-201 0 -327.5 -138.5t-126.5 -359.5v-28h296v-95h-296v-444h-111v444h-180v95h180v608h111v-273q59 139 180.5 218t283.5 79q108 0 175 -24z" />
    <glyph glyph-name="uni024E" unicode="&#x24e;" horiz-adv-x="1810" 
d="M66 1135v102h292l-243 299h137l244 -299h813l241 299h138l-242 -299h295v-102h-379l-401 -496v-639h-115v639l-404 496h-376zM903 733l324 402h-649z" />
    <glyph glyph-name="uni024F" unicode="&#x24f;" horiz-adv-x="1447" 
d="M43 680v94h211l-188 373h122l187 -373h694l188 373h119l-190 -373h221v-94h-270l-420 -821q-59 -113 -141.5 -167t-198.5 -54q-73 0 -131 18t-121 59v97q115 -72 248 -72q175 0 258 168l65 129h-67l-326 643h-260zM721 86l301 594h-600z" />
    <glyph glyph-name="uni0250" unicode="&#x250;" horiz-adv-x="1351" 
d="M795 420q-174 0 -319.5 73.5t-217.5 176.5v-193q0 -187 125 -294t354 -107q255 0 443 137v-102q-190 -136 -451 -136q-124 0 -228 32t-184 94.5t-125 164t-45 232.5v649h111v-227q71 103 217.5 177t319.5 74q207 0 347 -105t140 -271q0 -109 -66.5 -195.5t-177 -133
t-243.5 -46.5zM774 516q184 0 288.5 78t104.5 201q0 126 -104 203t-289 77q-318 0 -522 -280q206 -279 522 -279z" />
    <glyph glyph-name="uni0251" unicode="&#x251;" horiz-adv-x="1527" 
d="M1104 0v256q-60 -118 -199.5 -199.5t-341.5 -81.5q-138 0 -248 44.5t-175.5 131.5t-65.5 203q0 87 38 155.5t97 110.5t138.5 69t155.5 37.5t154 10.5q280 0 447 -65q0 185 -125 292t-354 107q-252 0 -443 -137v102q184 135 451 135q124 0 228 -32t183.5 -94.5
t124.5 -163.5t45 -232v-649h-110zM1104 567q-122 72 -395 72q-516 0 -516 -281q0 -131 107 -207.5t290 -76.5q102 0 195 34.5t164 96.5t113 156t42 206z" />
    <glyph glyph-name="uni0252" unicode="&#x252;" horiz-adv-x="1527" 
d="M424 256v-256h-111v649q0 131 45 232t125 163.5t184 94.5t228 32q267 0 451 -135v-102q-191 137 -443 137q-229 0 -354 -107t-125 -292q167 65 446 65q78 0 154 -10.5t155.5 -37.5t139 -69t97.5 -110.5t38 -155.5q0 -116 -65.5 -203t-175.5 -131.5t-248 -44.5
q-202 0 -341.5 81.5t-199.5 199.5zM424 567q0 -112 42 -206t113 -156t164 -96.5t195 -34.5q183 0 290 76.5t107 207.5q0 281 -516 281q-273 0 -395 -72z" />
    <glyph glyph-name="uni0253" unicode="&#x253;" horiz-adv-x="1538" 
d="M164 0v1143q0 221 114.5 340t331.5 119q147 0 291 -66v-115q-152 76 -291 76q-176 0 -256 -97.5t-80 -281.5v-348q95 188 249 294.5t341 106.5q125 0 232.5 -44t184.5 -122t121 -189.5t44 -242.5t-44 -242.5t-121 -189.5t-184.5 -122t-232.5 -44q-187 0 -340.5 107
t-249.5 295v-377h-110zM1331 573q0 218 -131.5 356t-335.5 138q-196 0 -349.5 -133t-246.5 -361q93 -228 246.5 -360.5t349.5 -132.5q204 0 335.5 137.5t131.5 355.5z" />
    <glyph glyph-name="uni0254" unicode="&#x254;" horiz-adv-x="1411" 
d="M197 727h-119q37 198 207.5 321t406.5 123q278 0 452.5 -166.5t174.5 -431.5t-174.5 -431.5t-452.5 -166.5q-236 0 -406.5 123.5t-207.5 321.5h119q35 -155 169.5 -247.5t325.5 -92.5q233 0 372.5 134.5t139.5 358.5t-139.5 359t-372.5 135q-192 0 -326.5 -92.5
t-168.5 -247.5z" />
    <glyph glyph-name="uni0256" unicode="&#x256;" horiz-adv-x="1525" 
d="M1274 750v827h110v-1552q0 -147 63.5 -214t192.5 -67q108 0 213 68v-113q-98 -61 -223 -61q-171 0 -263.5 102t-92.5 276v381q-94 -197 -250.5 -309.5t-349.5 -112.5q-125 0 -232.5 44t-184.5 122t-121 189.5t-44 242.5t44 242.5t121 189.5t184.5 122t232.5 44
q193 0 349.5 -112t250.5 -309zM207 573q0 -218 131.5 -355.5t335.5 -137.5q196 0 349.5 132.5t246.5 360.5q-93 228 -246.5 361t-349.5 133q-204 0 -335.5 -138t-131.5 -356z" />
    <glyph glyph-name="uni0257" unicode="&#x257;" horiz-adv-x="1536" 
d="M1374 1229v-1229h-110v377q-96 -188 -249.5 -295t-340.5 -107q-125 0 -232.5 44t-184.5 122t-121 189.5t-44 242.5t44 242.5t121 189.5t184.5 122t232.5 44q187 0 341 -106.5t249 -294.5v487q0 167 83 256t230 89q104 0 205 -52v-108q-88 57 -193 57q-102 0 -158.5 -66
t-56.5 -204zM207 573q0 -218 131.5 -355.5t335.5 -137.5q196 0 349.5 132.5t246.5 360.5q-93 228 -246.5 361t-349.5 133q-204 0 -335.5 -138t-131.5 -356z" />
    <glyph glyph-name="uni0259" unicode="&#x259;" horiz-adv-x="1394" 
d="M666 1171q283 0 460 -166.5t177 -431.5q0 -266 -172 -432t-449 -166q-267 0 -433.5 176t-166.5 459h1104q-12 209 -159 333t-382 124q-275 0 -510 -174v104q106 81 250 127.5t281 46.5zM682 80q213 0 348.5 116.5t155.5 315.5h-983q25 -198 154 -315t325 -117z" />
    <glyph glyph-name="uni025B" unicode="&#x25b;" horiz-adv-x="1347" 
d="M131 864q0 135 137.5 221t388.5 86q253 0 409 -101.5t179 -254.5h-117q-26 111 -146 181.5t-325 70.5t-308 -55.5t-103 -153.5q0 -39 18.5 -73.5t59 -65t115.5 -48.5t177 -18h254v-98h-254q-110 0 -191 -17t-127 -48.5t-67.5 -70t-21.5 -85.5q0 -111 118.5 -182.5
t342.5 -71.5t350 72t147 198h117q-13 -163 -174 -269t-440 -106q-270 0 -423 100.5t-153 258.5q0 99 73.5 171t223.5 99q-131 29 -195.5 99t-64.5 161z" />
    <glyph glyph-name="uni025F" unicode="&#x25f;" horiz-adv-x="528" 
d="M319 1147v-442h181v-95h-181v-587q0 -84 -20.5 -151.5t-64 -121t-120.5 -83t-182 -29.5q-94 0 -188.5 27.5t-142.5 62.5v114q139 -100 311 -100q152 0 224.5 68.5t72.5 230.5v569h-180v95h180v442h110z" />
    <glyph glyph-name="uni0260" unicode="&#x260;" horiz-adv-x="1525" 
d="M1704 1602q147 0 291 -66v-115q-152 76 -291 76q-176 0 -256 -97.5t-80 -281.5v-813q0 -135 -33 -246t-91.5 -188.5t-141 -130t-179.5 -77.5t-208 -25q-295 0 -506 174v108q216 -178 500 -178q264 0 406 143t142 389v160q-80 -155 -246 -266t-366 -111
q-234 0 -392.5 155.5t-158.5 401.5t158.5 401.5t392.5 155.5q200 0 366 -110.5t246 -265.5v352q0 219 115.5 337t331.5 118zM664 162q179 0 327.5 108t272.5 344q-122 236 -271.5 344.5t-328.5 108.5q-214 0 -334.5 -126t-120.5 -327t120.5 -326.5t334.5 -125.5z" />
    <glyph glyph-name="uni0261" unicode="&#x261;" horiz-adv-x="1525" 
d="M645 57q-234 0 -392.5 155.5t-158.5 401.5t158.5 401.5t392.5 155.5q200 0 366 -110.5t246 -265.5v352h111v-842q0 -135 -33 -246t-91.5 -188.5t-141 -130t-179.5 -77.5t-208 -25q-295 0 -506 174v108q216 -178 500 -178q264 0 406 143t142 389v160q-80 -155 -246 -266
t-366 -111zM664 162q179 0 327.5 108t272.5 344q-122 236 -271.5 344.5t-328.5 108.5q-214 0 -334.5 -126t-120.5 -327t120.5 -326.5t334.5 -125.5z" />
    <glyph glyph-name="uni0263" unicode="&#x263;" horiz-adv-x="1400" 
d="M702 -362q-118 0 -192 62t-74 161q0 66 36 131.5t167 247.5l-594 907h123l537 -825l532 825h119l-588 -905q130 -183 165.5 -248.5t35.5 -132.5q0 -98 -74.5 -160.5t-192.5 -62.5zM702 -266q70 0 113 36t43 103q0 43 -29.5 96t-126.5 195q-96 -140 -125.5 -194t-29.5 -97
q0 -67 42.5 -103t112.5 -36z" />
    <glyph glyph-name="uni0264" unicode="&#x264;" horiz-adv-x="1400" 
d="M702 -362q-118 0 -192 62t-74 161q0 66 36 131.5t167 247.5l-594 907h123l537 -825l532 825h119l-588 -905q130 -183 165.5 -248.5t35.5 -132.5q0 -98 -74.5 -160.5t-192.5 -62.5zM702 -266q70 0 113 36t43 103q0 43 -29.5 96t-126.5 195q-96 -140 -125.5 -194t-29.5 -97
q0 -67 42.5 -103t112.5 -36z" />
    <glyph glyph-name="uni0265" unicode="&#x265;" horiz-adv-x="1390" 
d="M1227 1147v-1485h-111v621q-65 -144 -191 -226t-290 -82q-233 0 -360.5 142t-127.5 403v627h111v-604q0 -230 101.5 -348.5t299.5 -118.5q205 0 331 139.5t126 364.5v567h111z" />
    <glyph glyph-name="uni0266" unicode="&#x266;" horiz-adv-x="1411" 
d="M164 0v1143q0 221 114.5 340t331.5 119q147 0 291 -66v-115q-152 76 -291 76q-176 0 -256 -97.5t-80 -281.5v-256q66 146 195 227.5t297 81.5q238 0 368 -141.5t130 -402.5v-627h-111v604q0 230 -104.5 348.5t-307.5 118.5q-210 0 -338.5 -139.5t-128.5 -364.5v-567h-110
z" />
    <glyph glyph-name="uni0267" unicode="&#x267;" horiz-adv-x="1411" 
d="M164 0v1143q0 221 114.5 340t331.5 119q147 0 291 -66v-115q-152 76 -291 76q-176 0 -256 -97.5t-80 -281.5v-256q66 146 195 227.5t297 81.5q238 0 368 -141.5t130 -402.5v-613q0 -172 -92.5 -274t-262.5 -102q-60 0 -120.5 17.5t-102.5 43.5v111q105 -68 215 -68
q127 0 189.5 71.5t62.5 219.5v571q0 230 -104.5 348.5t-307.5 118.5q-210 0 -338.5 -139.5t-128.5 -364.5v-567h-110z" />
    <glyph glyph-name="uni0268" unicode="&#x268;" horiz-adv-x="528" 
d="M29 610v95h180v442h110v-442h181v-95h-181v-610h-110v610h-180zM264 1341q-42 0 -72 29.5t-30 71.5q0 41 29.5 70.5t72.5 29.5t73 -29.5t30 -70.5t-30 -71t-73 -30z" />
    <glyph glyph-name="uni0269" unicode="&#x269;" horiz-adv-x="798" 
d="M156 1147h110v-789q0 -152 59 -215t183 -63q160 0 285 82v-107q-42 -32 -119.5 -56t-165.5 -24q-96 0 -166 28t-109.5 79t-58 114.5t-18.5 143.5v807z" />
    <glyph glyph-name="uni026A" unicode="&#x26a;" horiz-adv-x="1019" 
d="M948 0h-876v94h381v959h-381v94h876v-94h-385v-959h385v-94z" />
    <glyph glyph-name="uni026C" unicode="&#x26c;" horiz-adv-x="917" 
d="M406 0v610q-58 -4 -82 -4q-138 0 -214.5 59.5t-76.5 163.5q0 86 59 140.5t160 54.5q92 0 154 -47v600h110v-846q85 23 174 73t203 132v-115q-177 -139 -377 -190v-631h-110zM340 702q37 0 66 5v129q-47 90 -148 90q-59 0 -89 -27.5t-30 -71.5q0 -125 201 -125z" />
    <glyph glyph-name="uni026F" unicode="&#x26f;" horiz-adv-x="2248" 
d="M604 -25q-218 0 -337.5 142t-119.5 403v627h111v-604q0 -230 94 -348.5t277 -118.5q193 0 310.5 139.5t117.5 364.5v567h110v-604q0 -230 94 -348.5t277 -118.5q193 0 310.5 139.5t117.5 364.5v567h111v-1147h-111v276q-62 -141 -180 -221t-273 -80q-173 0 -285.5 91
t-150.5 262q-56 -165 -180.5 -259t-292.5 -94z" />
    <glyph glyph-name="uni0271" unicode="&#x271;" horiz-adv-x="2248" 
d="M2101 627v-613q0 -173 -92 -274.5t-262 -101.5q-60 0 -120.5 17.5t-102.5 43.5v111q105 -68 215 -68q127 0 189.5 71.5t62.5 219.5v571q0 230 -94 348.5t-277 118.5q-193 0 -310.5 -139.5t-117.5 -364.5v-567h-111v604q0 230 -93.5 348.5t-276.5 118.5
q-193 0 -310.5 -139.5t-117.5 -364.5v-567h-111v1147h111v-277q62 142 179.5 221.5t272.5 79.5q176 0 288.5 -93t150.5 -267q56 169 180 264.5t291 95.5q218 0 337 -141.5t119 -402.5z" />
    <glyph glyph-name="uni0272" unicode="&#x272;" horiz-adv-x="1421" 
d="M172 1147h111v-285q67 146 195.5 227.5t297.5 81.5q238 0 368 -141.5t130 -402.5v-627h-111v604q0 230 -104 348.5t-307 118.5q-211 0 -340 -139.5t-129 -364.5v-575q0 -168 -83 -261t-231 -93q-106 0 -205 51v108q88 -57 193 -57q102 0 158.5 66t56.5 204v1137z" />
    <glyph glyph-name="uni0275" unicode="&#x275;" 
d="M754 -25q-295 0 -479.5 166.5t-184.5 431.5t184.5 431.5t479.5 166.5q194 0 345 -75.5t234.5 -211.5t83.5 -311t-83.5 -311t-234.5 -211.5t-345 -75.5zM754 80q235 0 382 119.5t164 322.5h-1093q17 -203 165 -322.5t382 -119.5zM754 1067q-234 0 -382 -119.5t-165 -322.5
h1093q-17 203 -164 322.5t-382 119.5z" />
    <glyph glyph-name="uni0278" unicode="&#x278;" horiz-adv-x="1601" 
d="M745 -338v313q-292 3 -473.5 168.5t-181.5 429.5t181.5 429.5t473.5 168.5v406h111v-406q292 -3 473.5 -168.5t181.5 -429.5t-181.5 -429.5t-473.5 -168.5v-313h-111zM205 573q0 -223 146.5 -356.5t393.5 -136.5v987q-247 -3 -393.5 -137t-146.5 -357zM1397 573
q0 223 -147 357t-394 137v-987q248 3 394.5 136.5t146.5 356.5z" />
    <glyph glyph-name="uni027D" unicode="&#x27d;" horiz-adv-x="944" 
d="M283 567v-534q0 -148 62.5 -219.5t189.5 -71.5q110 0 215 68v-111q-42 -26 -103 -43.5t-121 -17.5q-170 0 -262 101.5t-92 274.5v1133h111l-11 -309q54 155 180.5 244t295.5 89q107 0 174 -24v-109q-73 27 -185 27q-201 0 -327.5 -138.5t-126.5 -359.5z" />
    <glyph glyph-name="uni027E" unicode="&#x27e;" horiz-adv-x="739" 
d="M510 1171q60 0 120.5 -17.5t102.5 -43.5v-111q-105 68 -215 68q-127 0 -189.5 -71.5t-62.5 -219.5v-776h-110v795q0 173 92 274.5t262 101.5z" />
    <glyph glyph-name="uni0283" unicode="&#x283;" horiz-adv-x="438" 
d="M608 1602q139 0 269 -56v-108q-112 63 -256 63q-170 0 -258.5 -82t-88.5 -258v-1055q0 -100 -24 -182t-74.5 -147.5t-138.5 -102t-207 -36.5q-140 0 -268 55v108q112 -63 256 -63q170 0 258 81.5t88 258.5v1055q0 100 24 182t74.5 148t138.5 102.5t207 36.5z" />
    <glyph glyph-name="uni0284" unicode="&#x284;" horiz-adv-x="546" 
d="M657 1602q139 0 269 -56v-108q-112 63 -256 63q-170 0 -258 -81.5t-88 -258.5v-862h200v-94h-200v-543h-111v543h-180v94h180v834q0 100 24 182t74.5 148t138.5 102.5t207 36.5z" />
    <glyph glyph-name="uni0288" unicode="&#x288;" horiz-adv-x="905" 
d="M965 1047h-586v-1014q0 -148 62.5 -219.5t189.5 -71.5q110 0 215 68v-111q-42 -26 -102.5 -43.5t-120.5 -17.5q-170 0 -262.5 102t-92.5 274v1033h-258v61l258 31l41 301h70v-293h586v-100z" />
    <glyph glyph-name="uni0289" unicode="&#x289;" horiz-adv-x="1480" 
d="M1272 0h-111v295q-65 -151 -191 -235.5t-290 -84.5q-233 0 -360 142t-127 403v90h-181v95h181v442h110v-442h858v442h111v-442h180v-95h-180v-610zM705 76q205 0 330.5 139.5t125.5 364.5v30h-858v-67q0 -230 102.5 -348.5t299.5 -118.5z" />
    <glyph glyph-name="uni028A" unicode="&#x28a;" horiz-adv-x="1490" 
d="M745 -25q-149 0 -269 43.5t-197.5 120t-118.5 178.5t-41 220q0 158 79 292.5t220 221.5h-332v96h508v-78q-184 -87 -273.5 -224t-89.5 -296q0 -213 134 -341t380 -128t380.5 129t134.5 340q0 159 -89.5 296t-273.5 224v78h508v-96h-332q141 -87 220 -221.5t79 -292.5
q0 -118 -41 -220t-118.5 -178.5t-198 -120t-269.5 -43.5z" />
    <glyph glyph-name="uni028B" unicode="&#x28b;" horiz-adv-x="1390" 
d="M1296 748q0 -119 -29 -232t-87.5 -211t-138.5 -171.5t-188.5 -116t-231.5 -42.5q-231 0 -351 133t-120 363v676h110v-676q0 -180 92 -286.5t269 -106.5q161 0 290.5 90.5t200 240t70.5 326.5q0 332 -248 332q-110 0 -215 -68v111q42 26 102.5 43.5t120.5 17.5
q174 0 264 -113t90 -310z" />
    <glyph glyph-name="uni028C" unicode="&#x28c;" horiz-adv-x="1351" 
d="M33 0l583 1147h119l584 -1147h-123l-522 1047l-522 -1047h-119z" />
    <glyph glyph-name="uni028E" unicode="&#x28e;" horiz-adv-x="1376" 
d="M1032 1509q73 0 131 -18t121 -59v-97q-115 72 -248 72q-175 0 -258 -168l-65 -129h67l563 -1110h-122l-533 1061l-536 -1061h-119l659 1288q59 113 141.5 167t198.5 54z" />
    <glyph glyph-name="uni0292" unicode="&#x292;" horiz-adv-x="1331" 
d="M113 1051v96h1097v-92l-569 -529h53q285 0 427.5 -112.5t142.5 -304.5q0 -98 -39.5 -183t-113 -149t-188.5 -100.5t-257 -36.5q-275 0 -445.5 134.5t-189.5 346.5h112q25 -175 163 -276t360 -101q232 0 357.5 93.5t125.5 264.5q0 160 -115.5 251t-367.5 91h-160v88
l563 519h-956z" />
    <glyph glyph-name="uni0294" unicode="&#x294;" horiz-adv-x="1185" 
d="M537 0v567q0 84 27 133t104 105l200 147q95 70 131.5 126t36.5 124q0 135 -106 215t-316 80q-217 0 -327.5 -88.5t-155.5 -273.5h-111q89 467 598 467q247 0 390 -104t143 -288q0 -102 -56 -185t-184 -175l-149 -107q-67 -48 -91 -89t-24 -115v-539h-110z" />
    <glyph glyph-name="uni0295" unicode="&#x295;" horiz-adv-x="1171" 
d="M649 567v-567h-110v539q0 74 -24 115t-91 89l-150 107q-127 92 -183 175t-56 185q0 184 142.5 288t389.5 104q509 0 598 -467h-110q-30 122 -84.5 199.5t-153.5 120t-246 42.5q-210 0 -315.5 -80t-105.5 -215q0 -68 36 -124t131 -126l201 -147q77 -56 104 -105t27 -133z
" />
    <glyph glyph-name="uni0298" unicode="&#x298;" horiz-adv-x="1851" 
d="M926 -25q-242 0 -430 102.5t-292 287.5t-104 423q0 178 60.5 329.5t168.5 258t262 166.5t335 60t335 -60t261.5 -166.5t168 -258t60.5 -329.5t-60.5 -329.5t-168 -257.5t-261.5 -166t-335 -60zM926 80q324 0 517 192.5t193 515.5t-193 516t-517 193t-517.5 -193
t-193.5 -516t193.5 -515.5t517.5 -192.5zM926 690q-41 0 -70 28.5t-29 69.5t29 70t70 29t69.5 -29t28.5 -70t-28.5 -69.5t-69.5 -28.5z" />
    <glyph glyph-name="uni029D" unicode="&#x29d;" horiz-adv-x="1019" 
d="M367 -362q-182 0 -287 90.5t-105 222.5q0 149 114.5 241.5t285.5 92.5q169 0 309 -80v942l55 -8l56 8v-1024q63 -56 149 -164v-123q-81 101 -153 170q-20 -163 -129.5 -265.5t-294.5 -102.5zM367 -264q147 0 232 87.5t85 242.5v30q-137 92 -291 92q-147 0 -227 -63.5
t-80 -165.5q0 -94 76.5 -158.5t204.5 -64.5zM737 1341q-43 0 -72.5 29.5t-29.5 71.5q0 41 29.5 70.5t72.5 29.5t73 -29.5t30 -70.5t-30 -71t-73 -30z" />
    <glyph glyph-name="uni02A7" unicode="&#x2a7;" horiz-adv-x="1480" 
d="M264 1047h-258v61l258 31l41 301h70v-293h831q2 97 27 177t76 143.5t138 99t204 35.5q138 0 268 -56v-108q-112 63 -256 63q-170 0 -258 -81.5t-88 -258.5v-1055q0 -100 -24 -182t-75 -147.5t-139 -102t-207 -36.5q-140 0 -268 55v108q112 -63 256 -63q170 0 258 81.5
t88 258.5v969h-831v-666q0 -162 72.5 -230.5t224.5 -68.5q172 0 311 100v-114q-48 -35 -143 -63t-189 -28q-105 0 -182 29.5t-120.5 83t-64 121t-20.5 151.5v685z" />
    <glyph glyph-name="uni02B0" unicode="&#x2b0;" horiz-adv-x="1142" 
d="M145 573v1262h103v-573q51 118 148 183.5t222 65.5q182 0 280.5 -113.5t98.5 -322.5v-502h-102v484q0 180 -77 272t-226 92q-155 0 -249.5 -109t-94.5 -284v-455h-103z" />
    <glyph glyph-name="uni02B1" unicode="&#x2b1;" horiz-adv-x="1142" 
d="M145 573v914q0 177 89 272.5t260 95.5q114 0 223 -51v-102q-109 59 -219 59q-250 0 -250 -295v-204q51 118 148 183.5t222 65.5q182 0 280.5 -113.5t98.5 -322.5v-502h-102v484q0 180 -77 272t-226 92q-155 0 -249.5 -109t-94.5 -284v-455h-103z" />
    <glyph glyph-name="uni02B2" unicode="&#x2b2;" horiz-adv-x="413" 
d="M156 303v1190h102v-1190h-102zM207 1645q-35 0 -60.5 24.5t-25.5 59.5q0 36 25 61t61 25t61 -25t25 -61q0 -35 -24.5 -59.5t-61.5 -24.5z" />
    <glyph glyph-name="uni02B3" unicode="&#x2b3;" horiz-adv-x="661" 
d="M727 1493v-98q-53 20 -141 20q-150 0 -244 -108.5t-94 -282.5v-451h-103v920h103v-229q43 115 135 181t215 66q80 0 129 -18z" />
    <glyph glyph-name="uni02B7" unicode="&#x2b7;" horiz-adv-x="1417" 
d="M764 1493l301 -811l311 811h109l-363 -920h-106l-307 807l-308 -807h-106l-363 920h109l311 -811l301 811h111z" />
    <glyph glyph-name="uni02B8" unicode="&#x2b8;" horiz-adv-x="880" 
d="M262 285q-111 0 -203 63v86q91 -59 195 -59q134 0 197 135l43 92h-56l-424 891h113l393 -838l395 838h109l-494 -1026q-89 -182 -268 -182z" />
    <glyph glyph-name="uni02B9" unicode="&#x2b9;" horiz-adv-x="442" 
d="M180 1118l-14 418h110l-14 -418h-82z" />
    <glyph glyph-name="uni02BB" unicode="&#x2bb;" horiz-adv-x="405" 
d="M207 1618h86l-72 -160q32 -6 53 -31t21 -55q0 -40 -25.5 -67t-68.5 -27q-49 0 -74 28.5t-25 69.5q0 28 12 58t46 94z" />
    <glyph glyph-name="uni02BC" unicode="&#x2bc;" horiz-adv-x="440" 
d="M209 1118h-86l108 244q-32 6 -53.5 32t-21.5 60q0 40 28 67t68 27q41 0 68.5 -29t27.5 -73q0 -63 -49 -156z" />
    <glyph glyph-name="uni02BE" unicode="&#x2be;" horiz-adv-x="450" 
d="M109 1460v90q121 0 193.5 -66t72.5 -175t-72.5 -175.5t-193.5 -66.5v90q81 0 125.5 40t44.5 112t-44 111.5t-126 39.5z" />
    <glyph glyph-name="uni02BF" unicode="&#x2bf;" horiz-adv-x="450" 
d="M342 1550v-90q-82 0 -126 -39.5t-44 -111.5t44.5 -112t125.5 -40v-90q-121 0 -193.5 66.5t-72.5 175.5t72.5 175t193.5 66z" />
    <glyph glyph-name="uni02C0" unicode="&#x2c0;" horiz-adv-x="411" 
d="M145 573v451q0 68 21.5 109.5t79.5 85.5l151 116q71 55 98 99t27 98q0 106 -77.5 167.5t-231.5 61.5q-159 0 -241.5 -69.5t-114.5 -212.5h-103q67 376 463 376q191 0 301.5 -84t110.5 -233q0 -81 -41.5 -149t-138.5 -140l-117 -86q-50 -37 -67 -69t-17 -93v-428h-103z
" />
    <glyph glyph-name="uni02C1" unicode="&#x2c1;" horiz-adv-x="411" 
d="M266 1024v-451h-102v428q0 59 -17.5 92t-66.5 70l-117 86q-95 69 -137.5 138.5t-42.5 150.5q0 149 110.5 233t301.5 84q395 0 462 -376h-102q-32 143 -114.5 212.5t-241.5 69.5q-154 0 -232 -61.5t-78 -167.5q0 -54 27 -98t98 -99l152 -116q58 -44 79 -85.5t21 -109.5z
" />
    <glyph glyph-name="circumflex" unicode="&#x2c6;" horiz-adv-x="888" 
d="M82 1284l293 318h139l293 -318h-123l-240 236l-239 -236h-123z" />
    <glyph glyph-name="caron" unicode="&#x2c7;" horiz-adv-x="888" 
d="M807 1602l-293 -318h-139l-293 318h123l239 -236l240 236h123z" />
    <glyph glyph-name="uni02C8" unicode="&#x2c8;" horiz-adv-x="438" 
d="M168 1118v418h102v-418h-102z" />
    <glyph glyph-name="uni02C9" unicode="&#x2c9;" horiz-adv-x="956" 
d="M874 1395h-792v98h792v-98z" />
    <glyph glyph-name="breve" unicode="&#x2d8;" horiz-adv-x="884" 
d="M82 1597h104q20 -106 87.5 -164.5t168.5 -58.5t168.5 58.5t87.5 164.5h105q-17 -149 -112 -232t-249 -83t-248.5 83t-111.5 232z" />
    <glyph glyph-name="dotaccent" unicode="&#x2d9;" horiz-adv-x="434" 
d="M217 1341q-43 0 -72.5 29.5t-29.5 71.5q0 41 29.5 70.5t72.5 29.5t72.5 -29.5t29.5 -70.5q0 -42 -29.5 -71.5t-72.5 -29.5z" />
    <glyph glyph-name="ring" unicode="&#x2da;" horiz-adv-x="684" 
d="M342 1264q-118 0 -189 59t-71 156t71 156t189 59t189 -59t71 -156t-71 -156t-189 -59zM342 1350q82 0 126 33.5t44 95.5t-44 95.5t-126 33.5t-126 -33.5t-44 -95.5t44 -95.5t126 -33.5z" />
    <glyph glyph-name="ogonek" unicode="&#x2db;" horiz-adv-x="575" 
d="M381 31l68 -4v-27h45q-143 -46 -224.5 -93t-81.5 -102q0 -84 174 -84q72 0 132 13v-86q-67 -19 -150 -19q-119 0 -190.5 42t-71.5 114q0 150 299 246z" />
    <glyph glyph-name="tilde" unicode="&#x2dc;" horiz-adv-x="950" 
d="M176 1341h-94q8 107 66 172.5t149 65.5q43 0 96.5 -21.5t94.5 -48t87.5 -48t77.5 -21.5q49 0 80.5 36.5t40.5 102.5h94q-8 -107 -66 -172.5t-149 -65.5q-43 0 -96.5 22t-94.5 48t-87.5 48t-77.5 22q-49 0 -80.5 -37t-40.5 -103z" />
    <glyph glyph-name="hungarumlaut" unicode="&#x2dd;" horiz-adv-x="821" 
d="M82 1284l215 318h125l-219 -318h-121zM399 1284l215 318h125l-219 -318h-121z" />
    <glyph glyph-name="uni02E1" unicode="&#x2e1;" horiz-adv-x="393" 
d="M145 573v1262h103v-1262h-103z" />
    <glyph glyph-name="uni02E2" unicode="&#x2e2;" horiz-adv-x="1015" 
d="M924 834q0 -125 -115.5 -203t-304.5 -78q-198 0 -326 91t-135 241h104q12 -107 111.5 -174.5t245.5 -67.5q142 0 228.5 51.5t86.5 136.5q0 73 -57 105.5t-201 50.5l-166 19q-175 19 -249 78.5t-74 160.5q0 125 107 195.5t286 70.5q190 0 313.5 -86t132.5 -223h-104
q-11 96 -104 158.5t-242 62.5q-136 0 -210.5 -44.5t-74.5 -127.5q0 -67 50.5 -103.5t164.5 -49.5l182 -21q192 -22 271.5 -76t79.5 -167z" />
    <glyph glyph-name="uni02E3" unicode="&#x2e3;" horiz-adv-x="1009" 
d="M168 573h-119l389 478l-364 442h129l305 -375l305 375h123l-365 -442l390 -478h-121l-336 410z" />
    <glyph glyph-name="gravecomb" unicode="&#x300;" horiz-adv-x="528" 
d="M207 1602l239 -318h-120l-244 318h125z" />
    <glyph glyph-name="acutecomb" unicode="&#x301;" horiz-adv-x="528" 
d="M82 1284l240 318h124l-243 -318h-121z" />
    <glyph glyph-name="uni0302" unicode="&#x302;" horiz-adv-x="888" 
d="M82 1284l293 318h139l293 -318h-123l-240 236l-239 -236h-123z" />
    <glyph glyph-name="tildecomb" unicode="&#x303;" horiz-adv-x="950" 
d="M176 1341h-94q8 107 66 172.5t149 65.5q43 0 96.5 -21.5t94.5 -48t87.5 -48t77.5 -21.5q49 0 80.5 36.5t40.5 102.5h94q-8 -107 -66 -172.5t-149 -65.5q-43 0 -96.5 22t-94.5 48t-87.5 48t-77.5 22q-49 0 -80.5 -37t-40.5 -103z" />
    <glyph glyph-name="uni0304" unicode="&#x304;" horiz-adv-x="956" 
d="M874 1395h-792v98h792v-98z" />
    <glyph glyph-name="uni0306" unicode="&#x306;" horiz-adv-x="884" 
d="M82 1597h104q20 -106 87.5 -164.5t168.5 -58.5t168.5 58.5t87.5 164.5h105q-17 -149 -112 -232t-249 -83t-248.5 83t-111.5 232z" />
    <glyph glyph-name="uni0307" unicode="&#x307;" horiz-adv-x="434" 
d="M217 1341q-43 0 -72.5 29.5t-29.5 71.5q0 41 29.5 70.5t72.5 29.5t72.5 -29.5t29.5 -70.5q0 -42 -29.5 -71.5t-72.5 -29.5z" />
    <glyph glyph-name="uni0308" unicode="&#x308;" horiz-adv-x="946" 
d="M168 1341q-42 0 -72 29.5t-30 71.5q0 41 29.5 70.5t72.5 29.5t72.5 -29.5t29.5 -70.5q0 -42 -30 -71.5t-72 -29.5zM778 1341q-42 0 -72 29.5t-30 71.5q0 41 29.5 70.5t72.5 29.5t73 -29.5t30 -70.5t-30 -71t-73 -30z" />
    <glyph glyph-name="hookabovecomb" unicode="&#x309;" horiz-adv-x="563" 
d="M262 1255l-41 74q74 19 115 55.5t41 83.5q0 43 -38 67t-106 24q-62 0 -151 -19v94q78 19 158 19q114 0 177.5 -48.5t63.5 -136.5q0 -159 -219 -213z" />
    <glyph glyph-name="uni030A" unicode="&#x30a;" horiz-adv-x="684" 
d="M342 1264q-118 0 -189 59t-71 156t71 156t189 59t189 -59t71 -156t-71 -156t-189 -59zM342 1350q82 0 126 33.5t44 95.5t-44 95.5t-126 33.5t-126 -33.5t-44 -95.5t44 -95.5t126 -33.5z" />
    <glyph glyph-name="uni030B" unicode="&#x30b;" horiz-adv-x="821" 
d="M82 1284l215 318h125l-219 -318h-121zM399 1284l215 318h125l-219 -318h-121z" />
    <glyph glyph-name="uni030C" unicode="&#x30c;" horiz-adv-x="888" 
d="M807 1602l-293 -318h-139l-293 318h123l239 -236l240 236h123z" />
    <glyph glyph-name="uni030D" unicode="&#x30d;" horiz-adv-x="286" 
d="M92 1284v358h103v-358h-103z" />
    <glyph glyph-name="uni030F" unicode="&#x30f;" horiz-adv-x="821" 
d="M524 1602l215 -318h-121l-219 318h125zM207 1602l215 -318h-121l-219 318h125z" />
    <glyph glyph-name="uni0311" unicode="&#x311;" horiz-adv-x="884" 
d="M803 1284h-105q-20 106 -87.5 164.5t-168.5 58.5t-168.5 -58.5t-87.5 -164.5h-104q17 149 111.5 232t248.5 83t249 -83t112 -232z" />
    <glyph glyph-name="uni0312" unicode="&#x312;" horiz-adv-x="421" 
d="M219 1622h86l-72 -160q32 -6 53 -31t21 -55q0 -40 -25.5 -67t-68.5 -27q-49 0 -73.5 28.5t-24.5 69.5q0 29 12 59.5t45 92.5z" />
    <glyph glyph-name="uni0313" unicode="&#x313;" horiz-adv-x="421" 
d="M203 1284h-86l71 160q-32 6 -52.5 31t-20.5 55q0 40 25.5 67t68.5 27q49 0 73.5 -28.5t24.5 -69.5q0 -29 -12 -59.5t-45 -92.5z" />
    <glyph glyph-name="uni0315" unicode="&#x315;" horiz-adv-x="421" 
d="M203 1284h-86l71 160q-32 6 -52.5 31t-20.5 55q0 40 25.5 67t68.5 27q49 0 73.5 -28.5t24.5 -69.5q0 -29 -12 -59.5t-45 -92.5z" />
    <glyph glyph-name="uni031B" unicode="&#x31b;" horiz-adv-x="442" 
d="M360 1274q0 -98 -72.5 -157.5t-191.5 -59.5h-14v90h6q76 0 119 34t43 95q0 31 -12 72t-31 67h115q38 -65 38 -141z" />
    <glyph glyph-name="uni0320" unicode="&#x320;" horiz-adv-x="956" 
d="M874 -252h-792v98h792v-98z" />
    <glyph glyph-name="dotbelowcomb" unicode="&#x323;" horiz-adv-x="434" 
d="M217 -338q-43 0 -72.5 29.5t-29.5 70.5q0 42 29.5 71.5t72.5 29.5t72.5 -29.5t29.5 -71.5q0 -41 -29.5 -70.5t-72.5 -29.5z" />
    <glyph glyph-name="uni0324" unicode="&#x324;" horiz-adv-x="946" 
d="M168 -338q-43 0 -72.5 29.5t-29.5 70.5q0 42 30 71.5t72 29.5t72 -29.5t30 -71.5q0 -41 -29.5 -70.5t-72.5 -29.5zM778 -338q-43 0 -72.5 29.5t-29.5 70.5q0 42 30 71.5t72 29.5q43 0 73 -30t30 -71t-30 -70.5t-73 -29.5z" />
    <glyph glyph-name="uni0325" unicode="&#x325;" horiz-adv-x="684" 
d="M342 -516q-118 0 -189 59t-71 156t71 156t189 59t189 -59t71 -156t-71 -156t-189 -59zM342 -430q82 0 126 33.5t44 95.5t-44 95.5t-126 33.5t-126 -33.5t-44 -95.5t44 -95.5t126 -33.5z" />
    <glyph glyph-name="uni0326" unicode="&#x326;" horiz-adv-x="421" 
d="M203 -442h-86l71 159q-32 6 -52.5 31t-20.5 55q0 40 25.5 67.5t68.5 27.5q49 0 73.5 -29t24.5 -70q0 -29 -12 -58.5t-45 -92.5z" />
    <glyph glyph-name="uni0327" unicode="&#x327;" horiz-adv-x="737" 
d="M168 -207l135 215h98l-82 -125q49 21 125 21q95 0 153 -43.5t58 -116.5q0 -80 -73.5 -129t-194.5 -49q-109 0 -193 45.5t-112 118.5h106q50 -78 199 -78q81 0 121.5 25t40.5 67q0 38 -36 59t-101 21q-84 0 -144 -31h-100z" />
    <glyph glyph-name="uni0328" unicode="&#x328;" horiz-adv-x="575" 
d="M381 31l68 -4v-27h45q-143 -46 -224.5 -93t-81.5 -102q0 -84 174 -84q72 0 132 13v-86q-67 -19 -150 -19q-119 0 -190.5 42t-71.5 114q0 150 299 246z" />
    <glyph glyph-name="uni0329" unicode="&#x329;" horiz-adv-x="286" 
d="M92 -444v358h103v-358h-103z" />
    <glyph glyph-name="uni032D" unicode="&#x32d;" horiz-adv-x="888" 
d="M82 -403l293 317h139l293 -317h-123l-240 235l-239 -235h-123z" />
    <glyph glyph-name="uni032E" unicode="&#x32e;" horiz-adv-x="884" 
d="M82 -86h104q20 -106 87.5 -164.5t168.5 -58.5t168.5 58.5t87.5 164.5h105q-17 -149 -112 -232t-249 -83t-248.5 83t-111.5 232z" />
    <glyph glyph-name="uni032F" unicode="&#x32f;" horiz-adv-x="884" 
d="M803 -401h-105q-20 106 -87.5 164.5t-168.5 58.5t-168.5 -58.5t-87.5 -164.5h-104q17 149 111.5 232t248.5 83t249 -83t112 -232z" />
    <glyph glyph-name="uni0330" unicode="&#x330;" horiz-adv-x="950" 
d="M176 -342h-94q8 107 66 172.5t149 65.5q43 0 96.5 -22t94.5 -48t87.5 -48t77.5 -22q49 0 80.5 37t40.5 103h94q-8 -107 -66 -172.5t-149 -65.5q-43 0 -96.5 21.5t-94.5 48t-87.5 48t-77.5 21.5q-49 0 -80.5 -36.5t-40.5 -102.5z" />
    <glyph glyph-name="uni0331" unicode="&#x331;" horiz-adv-x="956" 
d="M874 -252h-792v98h792v-98z" />
    <glyph glyph-name="uni0332" unicode="&#x332;" horiz-adv-x="987" 
d="M-8 -379v86h1003v-86h-1003z" />
    <glyph glyph-name="uni0335" unicode="&#x335;" horiz-adv-x="823" 
d="M74 543v94h676v-94h-676z" />
    <glyph glyph-name="uni035C" unicode="&#x35c;" horiz-adv-x="1564" 
d="M782 -465q-298 0 -504 95t-278 257h104q72 -121 250 -187.5t428 -66.5t428 66.5t250 187.5h105q-72 -162 -278.5 -257t-504.5 -95z" />
    <glyph glyph-name="uni035D" unicode="&#x35d;" horiz-adv-x="1564" 
d="M782 1284q-298 0 -504 95t-278 257h104q72 -121 250 -187.5t428 -66.5t428 66.5t250 187.5h105q-72 -162 -278.5 -257t-504.5 -95z" />
    <glyph glyph-name="uni0361" unicode="&#x361;" horiz-adv-x="1564" 
d="M782 1636q298 0 504.5 -95t278.5 -257h-105q-72 121 -250 187.5t-428 66.5t-428 -66.5t-250 -187.5h-104q72 162 278 257t504 95z" />
    <glyph glyph-name="Beta" unicode="&#x392;" horiz-adv-x="1662" 
d="M1184 801q193 -29 287 -136t94 -257q0 -185 -133 -296.5t-373 -111.5h-914v1536h881q211 0 323.5 -98.5t112.5 -272.5q0 -56 -15.5 -108.5t-47.5 -102t-87 -89.5t-128 -64zM266 737v-635h805q179 0 277 78.5t98 227.5q0 160 -119 244.5t-348 84.5h-713zM266 1434v-594
h719q160 0 259 84.5t99 240.5q0 121 -85 195t-242 74h-750z" />
    <glyph glyph-name="Epsilon" unicode="&#x395;" 
d="M258 1434v-615h1083v-102h-1083v-615h1135v-102h-1250v1536h1239v-102h-1124z" />
    <glyph glyph-name="Theta" unicode="&#x398;" horiz-adv-x="1904" 
d="M430 717v102h1047v-102h-1047zM952 -25q-186 0 -343.5 58.5t-268 162t-172.5 251t-62 321.5t62 321.5t172.5 251t268 162t343.5 58.5t343.5 -58.5t268 -162t172.5 -251t62 -321.5t-62 -321.5t-172.5 -251t-268 -162t-343.5 -58.5zM952 82q331 0 529 187t198 499t-198 499
t-529 187t-529 -187t-198 -499t198 -499t529 -187z" />
    <glyph glyph-name="Lambda" unicode="&#x39b;" horiz-adv-x="1712" 
d="M856 1425l-700 -1425h-127l768 1536h118l768 -1536h-129z" />
    <glyph glyph-name="uni03A9" unicode="&#x3a9;" horiz-adv-x="1916" 
d="M958 1561q190 0 347 -59.5t261.5 -163t162 -243.5t57.5 -300q0 -245 -115.5 -421.5t-322.5 -271.5h462v-102h-718v102q261 56 418 240.5t157 443.5q0 305 -188 486.5t-521 181.5q-332 0 -520 -181.5t-188 -486.5q0 -259 157 -443.5t418 -240.5v-102h-719v102h463
q-207 95 -322.5 271.5t-115.5 421.5q0 161 57 300.5t161.5 243t261.5 163t347 59.5z" />
    <glyph glyph-name="beta" unicode="&#x3b2;" horiz-adv-x="1521" 
d="M274 -338h-110v1348q0 269 158 430.5t426 161.5q234 0 379 -107.5t145 -286.5q0 -129 -78.5 -221t-222.5 -135q224 -22 345.5 -131t121.5 -285q0 -203 -159.5 -332t-430.5 -129q-432 0 -574 320v-633zM274 657q0 -284 143 -432.5t417 -148.5q232 0 360.5 96.5
t128.5 257.5q0 78 -31.5 142.5t-97 114.5t-175.5 78t-257 28h-135v98h116q195 0 305.5 84t110.5 219q0 139 -112.5 221t-298.5 82q-217 0 -345.5 -131t-128.5 -350v-359z" />
    <glyph glyph-name="epsilon" unicode="&#x3b5;" horiz-adv-x="1347" 
d="M131 864q0 135 137.5 221t388.5 86q253 0 409 -101.5t179 -254.5h-117q-26 111 -146 181.5t-325 70.5t-308 -55.5t-103 -153.5q0 -39 18.5 -73.5t59 -65t115.5 -48.5t177 -18h254v-98h-254q-110 0 -191 -17t-127 -48.5t-67.5 -70t-21.5 -85.5q0 -111 118.5 -182.5
t342.5 -71.5t350 72t147 198h117q-13 -163 -174 -269t-440 -106q-270 0 -423 100.5t-153 258.5q0 99 73.5 171t223.5 99q-131 29 -195.5 99t-64.5 161z" />
    <glyph glyph-name="theta" unicode="&#x3b8;" horiz-adv-x="1552" 
d="M776 -25q-212 0 -362.5 102.5t-225.5 285t-75 428.5q0 245 75 426.5t225.5 283t362.5 101.5t363 -101.5t226 -283t75 -426.5q0 -246 -75 -428.5t-226 -285t-363 -102.5zM776 80q259 0 398.5 171t150.5 486h-1098q11 -315 150.5 -486t398.5 -171zM776 1497
q-259 0 -398.5 -171t-150.5 -486h1098q-11 315 -150.5 486t-398.5 171z" />
    <glyph glyph-name="lambda" unicode="&#x3bb;" horiz-adv-x="1380" 
d="M152 0h-119l596 1200l-54 111q-51 106 -109 147t-144 41q-118 0 -236 -80v99q121 84 252 84q115 0 190 -54.5t131 -167.5l689 -1380h-121l-541 1094z" />
    <glyph glyph-name="omega" unicode="&#x3c9;" horiz-adv-x="1986" 
d="M938 516v256h111v-256q0 -215 96 -325.5t250 -110.5q172 0 278.5 114t106.5 334q0 224 -121 366.5t-330 164.5v112q257 -23 409 -196.5t152 -446.5q0 -260 -134 -406.5t-353 -146.5q-153 0 -263 86.5t-147 257.5q-37 -171 -146.5 -257.5t-262.5 -86.5
q-219 0 -353.5 146.5t-134.5 406.5q0 273 152 446.5t409 196.5v-112q-209 -22 -329.5 -164.5t-120.5 -366.5q0 -220 106.5 -334t278.5 -114q154 0 250 110.5t96 325.5z" />
    <glyph glyph-name="uni0400" unicode="&#x400;" 
d="M258 1434v-615h1083v-102h-1083v-615h1135v-102h-1250v1536h1239v-102h-1124zM561 1950l297 -277h-133l-315 277h151z" />
    <glyph glyph-name="uni0401" unicode="&#x401;" 
d="M258 1434v-615h1083v-102h-1083v-615h1135v-102h-1250v1536h1239v-102h-1124zM459 1731q-43 0 -73 29.5t-30 70.5t30 70.5t73 29.5t72.5 -29.5t29.5 -70.5t-29.5 -70.5t-72.5 -29.5zM1073 1731q-43 0 -72.5 29.5t-29.5 70.5t29.5 70.5t72.5 29.5t73 -29.5t30 -70.5
t-30 -70.5t-73 -29.5z" />
    <glyph glyph-name="uni0402" unicode="&#x402;" horiz-adv-x="2056" 
d="M27 1536h1613v-102h-880v-607q294 119 588 119q304 0 472.5 -127t168.5 -356q0 -227 -153 -353t-425 -126q-184 0 -369 49v112q193 -55 371 -55q215 0 336 98.5t121 274.5q0 180 -138.5 280.5t-388.5 100.5q-281 0 -583 -121v-723h-115v1434h-618v102z" />
    <glyph glyph-name="uni0403" unicode="&#x403;" horiz-adv-x="1208" 
d="M199 1536h983v-102h-869v-1434h-114v1536zM569 1673l297 277h152l-316 -277h-133z" />
    <glyph glyph-name="uni0404" unicode="&#x404;" horiz-adv-x="1837" 
d="M1217 717h-990q17 -291 211.5 -463t507.5 -172q277 0 460 131t222 348h119q-33 -259 -252 -422.5t-545 -163.5q-187 0 -344.5 58.5t-267 162t-171 251t-61.5 321.5t61.5 321.5t171 251t267 162t344.5 58.5q326 0 545 -163.5t252 -422.5h-119q-39 217 -222 348t-460 131
q-313 0 -507.5 -172t-211.5 -463h990v-102z" />
    <glyph glyph-name="uni0405" unicode="&#x405;" horiz-adv-x="1572" 
d="M88 496h115q23 -189 186.5 -302.5t415.5 -113.5q255 0 406 93t151 255q0 120 -101 185.5t-339 91.5l-260 28q-276 30 -400.5 127.5t-124.5 261.5q0 132 79.5 232t222 153.5t327.5 53.5q287 0 473.5 -131.5t198.5 -342.5h-115q-20 168 -172.5 268.5t-386.5 100.5
q-235 0 -373.5 -89t-138.5 -245q0 -123 99.5 -188.5t330.5 -91.5l248 -29q295 -34 421 -121.5t126 -259.5q0 -213 -183 -335t-491 -122q-199 0 -358.5 65.5t-253 184t-103.5 271.5z" />
    <glyph glyph-name="uni0406" unicode="&#x406;" horiz-adv-x="512" 
d="M199 0v1536h114v-1536h-114z" />
    <glyph glyph-name="uni0407" unicode="&#x407;" horiz-adv-x="512" 
d="M199 0v1536h114v-1536h-114zM86 1731q-43 0 -72.5 29.5t-29.5 70.5t29.5 70.5t72.5 29.5t72.5 -29.5t29.5 -70.5t-29.5 -70.5t-72.5 -29.5zM426 1731q-43 0 -72.5 29.5t-29.5 70.5t29.5 70.5t72.5 29.5t72.5 -29.5t29.5 -70.5t-29.5 -70.5t-72.5 -29.5z" />
    <glyph glyph-name="uni0408" unicode="&#x408;" horiz-adv-x="1536" 
d="M66 631v84h112v-84q0 -263 131 -406t402 -143q530 0 530 549v905h115v-905q0 -170 -47 -297.5t-134 -205t-203 -115.5t-261 -38t-261 38t-203 115.5t-134 205t-47 297.5z" />
    <glyph glyph-name="uni0409" unicode="&#x409;" horiz-adv-x="2906" 
d="M455 1536h1253v-651h627q227 0 369.5 -124t142.5 -319t-142.5 -318.5t-369.5 -123.5h-742v1434h-1022q35 -390 35 -662q0 -415 -101 -603.5t-321 -188.5q-107 0 -176 38v105q81 -35 158 -35q170 0 250 167.5t80 535.5q0 306 -41 745zM1708 782v-680h629q178 0 284.5 93
t106.5 247t-106.5 247t-284.5 93h-629z" />
    <glyph glyph-name="uni040A" unicode="&#x40a;" horiz-adv-x="2785" 
d="M313 0h-114v1536h114v-717h1160v717h114v-651h627q227 0 369.5 -124t142.5 -319t-142.5 -318.5t-369.5 -123.5h-741v717h-1160v-717zM1587 782v-680h629q178 0 284.5 93t106.5 247t-106.5 247t-284.5 93h-629z" />
    <glyph glyph-name="uni040B" unicode="&#x40b;" horiz-adv-x="2064" 
d="M1972 0h-114v362q0 232 -131.5 353t-383.5 121q-281 0 -583 -121v-715h-115v1434h-618v102h1613v-102h-880v-615q294 119 588 119q306 0 465 -145.5t159 -425.5v-367z" />
    <glyph glyph-name="uni040C" unicode="&#x40c;" horiz-adv-x="1630" 
d="M313 0h-114v1536h114v-717h518l621 717h145l-659 -766l684 -770h-145l-646 717h-518v-717zM741 1673l297 277h152l-316 -277h-133z" />
    <glyph glyph-name="uni040D" unicode="&#x40d;" horiz-adv-x="1857" 
d="M348 0h-149v1536h114v-1417l1196 1417h150v-1536h-115v1417zM725 1950l297 -277h-133l-316 277h152z" />
    <glyph glyph-name="uni040E" unicode="&#x40e;" horiz-adv-x="1628" 
d="M684 0h-129l203 340l-715 1196h131l649 -1087l645 1087h129zM455 1950h108q46 -191 254 -191t254 191h109q-25 -134 -121 -208.5t-242 -74.5t-241.5 74.5t-120.5 208.5z" />
    <glyph glyph-name="uni040F" unicode="&#x40f;" horiz-adv-x="1785" 
d="M946 -322h-106v322h-641v1536h114v-1434h1160v1434h114v-1536h-641v-322z" />
    <glyph glyph-name="uni0410" unicode="&#x410;" horiz-adv-x="1724" 
d="M805 1536h115l776 -1536h-129l-205 410h-1000l-204 -410h-129zM414 512h897l-449 895z" />
    <glyph glyph-name="uni0411" unicode="&#x411;" horiz-adv-x="1593" 
d="M268 881h744q224 0 365 -122t141 -317q0 -197 -140 -319.5t-364 -122.5h-869v1536h1237v-102h-1112zM268 778l-2 -676h750q174 0 278.5 92.5t104.5 247.5q0 153 -105.5 244.5t-279.5 91.5h-746z" />
    <glyph glyph-name="uni0412" unicode="&#x412;" horiz-adv-x="1662" 
d="M1184 801q193 -29 287 -136t94 -257q0 -185 -133 -296.5t-373 -111.5h-914v1536h881q211 0 323.5 -98.5t112.5 -272.5q0 -56 -15.5 -108.5t-47.5 -102t-87 -89.5t-128 -64zM266 737v-635h805q179 0 277 78.5t98 227.5q0 160 -119 244.5t-348 84.5h-713zM266 1434v-594
h719q160 0 259 84.5t99 240.5q0 121 -85 195t-242 74h-750z" />
    <glyph glyph-name="uni0413" unicode="&#x413;" horiz-adv-x="1208" 
d="M199 1536h983v-102h-869v-1434h-114v1536z" />
    <glyph glyph-name="uni0414" unicode="&#x414;" horiz-adv-x="1933" 
d="M117 -322h-107v424h189q196 214 196 865q0 247 -28 569h1261v-1434h275v-424h-107v322h-1679v-322zM506 946q0 -317 -44.5 -537.5t-123.5 -306.5h1175v1332h-1028q21 -246 21 -488z" />
    </font>
</defs>
</svg>
