<?xml version="1.0" standalone="no"?>
<!DOCTYPE svg PUBLIC "-//W3C//DTD SVG 1.1//EN" "http://www.w3.org/Graphics/SVG/1.1/DTD/svg11.dtd" >
<svg xmlns="http://www.w3.org/2000/svg" xmlns:xlink="http://www.w3.org/1999/xlink" version="1.1">
<metadata>
Created by FontForge 20201107 at Wed Jun 25 12:07:46 2025
 By 
Copyright 2025
</metadata>
<defs>
<font id="Bounded-SemiBold" horiz-adv-x="1632" >
  <font-face 
    font-family="Bounded SemBd"
    font-weight="600"
    font-stretch="normal"
    units-per-em="2048"
    panose-1="0 0 0 0 0 0 0 0 0 0"
    ascent="1638"
    descent="-410"
    x-height="1167"
    cap-height="1536"
    bbox="-618 -631 3703 2476"
    underline-thickness="102"
    underline-position="-255"
    unicode-range="U+000D-FB02"
  />
<missing-glyph horiz-adv-x="1746" 
d="M152 0v1536h1441v-1536h-1441zM514 322h719v892h-719v-892z" />
    <glyph glyph-name="fi" unicode="fi" horiz-adv-x="1789" 
d="M1108 801h-457v-801h-368v801h-242v274h242v15q0 248 144.5 384t424.5 136q135 0 268 -49v-275q-106 47 -225 47q-129 0 -186.5 -49t-57.5 -158v-51h457v-274zM1298 0v1182h367v-1182h-367zM1483 1292q-100 0 -160.5 51t-60.5 136t60.5 135.5t160.5 50.5q99 0 159 -51
t60 -135q0 -85 -60.5 -136t-158.5 -51z" />
    <glyph glyph-name="fl" unicode="fl" horiz-adv-x="1789" 
d="M1108 801h-457v-801h-368v801h-242v274h242v15q0 248 144.5 384t424.5 136q135 0 268 -49v-275q-106 47 -225 47q-129 0 -186.5 -49t-57.5 -158v-51h457v-274zM1298 0v1577h367v-1577h-367z" />
    <glyph glyph-name="f_f" unicode="ff" horiz-adv-x="2115" 
d="M2089 801h-457v-801h-368v801h-613v-801h-368v801h-242v274h242v15q0 248 144.5 384t424.5 136q135 0 268 -49v-275q-106 47 -225 47q-129 0 -186.5 -49t-57.5 -158v-51h613v15q0 248 144.5 384t424.5 136q135 0 268 -49v-275q-106 47 -225 47q-129 0 -186.5 -49
t-57.5 -158v-51h457v-274z" />
    <glyph glyph-name="f_f_i" unicode="ffi" horiz-adv-x="2723" 
d="M2089 801h-457v-801h-368v801h-613v-801h-368v801h-242v274h242v15q0 248 144.5 384t424.5 136q135 0 268 -49v-275q-106 47 -225 47q-129 0 -186.5 -49t-57.5 -158v-51h613v15q0 248 144.5 384t424.5 136q135 0 268 -49v-275q-106 47 -225 47q-129 0 -186.5 -49
t-57.5 -158v-51h457v-274zM2232 0v1182h367v-1182h-367zM2417 1292q-100 0 -161 51t-61 136q0 84 61 135t161 51q99 0 159 -51t60 -135q0 -85 -60.5 -136t-158.5 -51z" />
    <glyph glyph-name="f_f_l" unicode="ffl" horiz-adv-x="2732" 
d="M2089 801h-457v-801h-368v801h-613v-801h-368v801h-242v274h242v15q0 248 144.5 384t424.5 136q135 0 268 -49v-275q-106 47 -225 47q-129 0 -186.5 -49t-57.5 -158v-51h613v15q0 248 144.5 384t424.5 136q135 0 268 -49v-275q-106 47 -225 47q-129 0 -186.5 -49
t-57.5 -158v-51h457v-274zM2243 0v1577h366v-1577h-366z" />
    <glyph glyph-name="f_t.liga" unicode="ft" horiz-adv-x="2191" 
d="M1233 823h-582v-823h-366v823h-242v283h242q3 239 147.5 371.5t419.5 132.5q137 0 270 -49v-248q-103 33 -227 33q-128 0 -186 -45t-58 -146v-49h590l152 348h209v-336h507v-282h-507v-332q0 -135 54.5 -188.5t192.5 -53.5q153 0 281 64v-285q-68 -29 -167 -49.5
t-198 -20.5q-270 0 -401 125t-131 350v377z" />
    <glyph glyph-name="t_t.liga" unicode="tt" horiz-adv-x="2250" 
d="M252 893h-242v162l242 84l158 338h211v-310h690l147 310h211v-310h508v-274h-508v-391q0 -138 55 -193t193 -55q152 0 281 61v-280q-69 -29 -167.5 -48.5t-197.5 -19.5q-269 0 -401 125.5t-132 349.5v451h-679v-391q0 -138 54.5 -193t192.5 -55q156 0 281 61v-280
q-67 -28 -166 -48t-199 -20q-269 0 -400.5 125.5t-131.5 349.5v451z" />
    <glyph glyph-name=".notdef" horiz-adv-x="1746" 
d="M152 0v1536h1441v-1536h-1441zM514 322h719v892h-719v-892z" />
    <glyph glyph-name="uni0000" horiz-adv-x="0" 
 />
    <glyph glyph-name="uni0000" horiz-adv-x="0" 
 />
    <glyph glyph-name="uni000D" unicode="&#xd;" horiz-adv-x="512" 
 />
    <glyph glyph-name="space" unicode=" " horiz-adv-x="518" 
 />
    <glyph glyph-name="exclam" unicode="!" horiz-adv-x="632" 
d="M186 518l-61 1018h383l-62 -1018h-260zM315 -20q-92 0 -150.5 55t-58.5 143t58.5 142.5t150.5 54.5q95 0 153 -54.5t58 -142.5t-58 -143t-153 -55z" />
    <glyph glyph-name="quotedbl" unicode="&#x22;" horiz-adv-x="978" 
d="M365 893h-211l-70 643h350zM823 893h-209l-71 643h352z" />
    <glyph glyph-name="numbersign" unicode="#" horiz-adv-x="1734" 
d="M283 0l45 383h-240v256h268l31 256h-250v256h281l45 385h295l-45 -385h399l45 385h295l-45 -385h240v-256h-271l-28 -256h249v-256h-280l-45 -383h-295l45 383h-399l-45 -383h-295zM651 639h400l30 256h-399z" />
    <glyph glyph-name="dollar" unicode="$" horiz-adv-x="1630" 
d="M676 1704h272v-145q250 -34 401.5 -165.5t161.5 -326.5h-364q-8 71 -58 124t-141 77v-342h17q312 -27 448.5 -137t136.5 -312q0 -206 -162 -342.5t-440 -161.5v-141h-272v145q-270 35 -431 176t-167 349h366q9 -86 69 -146t163 -88v363h-2q-578 51 -578 459
q0 199 155.5 324.5t424.5 148.5v141zM1184 436q0 68 -54 109t-182 59v-348q115 13 175.5 60.5t60.5 119.5zM463 1104q0 -60 48.5 -97.5t164.5 -54.5v328q-104 -17 -158.5 -62.5t-54.5 -113.5z" />
    <glyph glyph-name="percent" unicode="%" horiz-adv-x="2592" 
d="M743 0l836 1536h274l-835 -1536h-275zM2015 -33q-236 0 -382 127t-146 332q0 203 146 329t382 126q235 0 382 -126.5t147 -328.5q0 -205 -147 -332t-382 -127zM580 641q-236 0 -382.5 127t-146.5 332q0 203 146.5 328.5t382.5 125.5q235 0 381.5 -126t146.5 -328
q0 -205 -146.5 -332t-381.5 -127zM2015 186q111 0 174.5 64t63.5 176q0 110 -64 175t-174 65q-112 0 -174.5 -64.5t-62.5 -175.5q0 -113 62.5 -176.5t174.5 -63.5zM580 860q110 0 173.5 64t63.5 176q0 110 -63.5 174.5t-173.5 64.5q-112 0 -175 -64t-63 -175
q0 -113 63 -176.5t175 -63.5z" />
    <glyph glyph-name="ampersand" unicode="&#x26;" horiz-adv-x="1884" 
d="M1497 1106h-367q-11 91 -76.5 145t-181.5 54q-103 0 -163 -41t-60 -113q0 -76 101 -162l483 -414l197 263h385l-375 -439l467 -399h-463l-209 176q-120 -109 -254 -159t-313 -50q-276 0 -439 128.5t-163 324.5q0 147 97 256.5t294 163.5q-197 172 -197 336q0 177 159 285
t441 108q287 0 456 -129.5t181 -333.5zM719 246q187 0 317 100l-413 352q-91 -37 -140 -96.5t-49 -132.5q0 -96 78.5 -159.5t206.5 -63.5z" />
    <glyph glyph-name="quotesingle" unicode="'" horiz-adv-x="532" 
d="M156 893l-72 643h365l-72 -643h-221z" />
    <glyph glyph-name="parenleft" unicode="(" horiz-adv-x="759" 
d="M426 1536h289q-258 -450 -258 -879q0 -420 258 -876h-289q-176 212 -262 427.5t-86 448.5q0 235 86 451t262 428z" />
    <glyph glyph-name="parenright" unicode=")" horiz-adv-x="759" 
d="M45 1536h289q176 -212 262 -428t86 -451q0 -233 -86 -448.5t-262 -427.5h-289q258 456 258 876q0 429 -258 879z" />
    <glyph glyph-name="asterisk" unicode="*" horiz-adv-x="1087" 
d="M442 1255l-14 316h231l-14 -316l295 115l72 -221l-305 -86l202 -248l-186 -137l-178 266l-180 -266l-187 137l201 248l-303 86l69 221z" />
    <glyph glyph-name="plus" unicode="+" horiz-adv-x="1269" 
d="M770 152h-270v438h-439v270h439v438h270v-438h438v-270h-438v-438z" />
    <glyph glyph-name="comma" unicode="," horiz-adv-x="591" 
d="M262 -297h-184l139 297q-61 24 -98 77t-37 120q0 88 61.5 148.5t151.5 60.5t151.5 -62.5t61.5 -153.5q0 -58 -27 -121.5t-94 -164.5z" />
    <glyph glyph-name="hyphen" unicode="-" horiz-adv-x="745" 
d="M115 569v295h516v-295h-516z" />
    <glyph glyph-name="period" unicode="." horiz-adv-x="585" 
d="M293 -20q-89 0 -151 62t-62 151q0 90 61.5 151.5t151.5 61.5t151.5 -61.5t61.5 -151.5q0 -89 -62 -151t-151 -62z" />
    <glyph glyph-name="slash" unicode="/" horiz-adv-x="915" 
d="M29 -55l573 1646h283l-574 -1646h-282z" />
    <glyph glyph-name="zero" unicode="0" horiz-adv-x="1796" 
d="M899 -33q-255 0 -447 99.5t-295.5 281t-103.5 420.5t103.5 420.5t295.5 281t447 99.5q385 0 614.5 -219.5t229.5 -581.5t-229.5 -581.5t-614.5 -219.5zM899 272q223 0 347 130.5t124 365.5t-124 365.5t-347 130.5q-224 0 -348.5 -130.5t-124.5 -365.5t124.5 -365.5
t348.5 -130.5z" />
    <glyph glyph-name="one" unicode="1" horiz-adv-x="1449" 
d="M672 1536h274v-1245h463v-291h-1368v291h534v926l-477 -84v290z" />
    <glyph glyph-name="two" unicode="2" horiz-adv-x="1599" 
d="M414 991h-373q19 263 235.5 420.5t546.5 157.5q309 0 499.5 -140t190.5 -364q0 -172 -137 -313.5t-463 -311.5l-266 -141h912v-299h-1491v262l657 381q243 140 329.5 222t86.5 179q0 105 -85.5 168.5t-246.5 63.5q-188 0 -285 -79t-110 -206z" />
    <glyph glyph-name="three" unicode="3" horiz-adv-x="1617" 
d="M135 1243v293h1366v-272l-518 -361q302 -9 449 -121.5t147 -312.5q0 -225 -196.5 -363.5t-555.5 -138.5q-351 0 -562.5 145t-223.5 390h373q36 -242 413 -242q182 0 276.5 59t94.5 170q0 101 -82.5 154t-273.5 53h-236v250l432 297h-903z" />
    <glyph glyph-name="four" unicode="4" horiz-adv-x="1681" 
d="M922 1536h473v-954h256v-283h-256v-299h-371v299h-983v264zM430 582h594v657z" />
    <glyph glyph-name="five" unicode="5" horiz-adv-x="1570" 
d="M104 616l129 920h1176v-283h-924l-55 -381q181 150 467 150q291 0 462 -142.5t171 -367.5q0 -242 -197.5 -393.5t-533.5 -151.5q-326 0 -531 140.5t-227 355.5h373q22 -95 122.5 -149t262.5 -54q166 0 262 67.5t96 184.5q0 115 -88.5 183.5t-253.5 68.5q-243 0 -391 -148
h-320z" />
    <glyph glyph-name="six" unicode="6" horiz-adv-x="1636" 
d="M858 1569q284 0 476 -127t227 -322h-351q-72 166 -342 166q-130 0 -222 -36t-146.5 -106.5t-79.5 -165.5t-25 -222q231 241 588 241q279 0 444.5 -135.5t167.5 -359.5q-2 -238 -195 -386.5t-526 -148.5q-203 0 -362.5 59t-261.5 166t-155 253t-52 323q-1 176 52 322.5
t153.5 253t256.5 166t353 59.5zM895 715q-128 0 -245 -51t-210 -146q53 -131 164 -198.5t275 -67.5q163 0 252.5 65.5t89.5 171.5q0 103 -84 164.5t-242 61.5z" />
    <glyph glyph-name="seven" unicode="7" horiz-adv-x="1468" 
d="M662 0h-420l782 1237h-1024v299h1427v-299z" />
    <glyph glyph-name="eight" unicode="8" horiz-adv-x="1699" 
d="M850 1569q364 0 561 -114.5t197 -319.5q0 -126 -84 -211.5t-242 -124.5q183 -34 280 -128.5t97 -244.5q0 -222 -208.5 -340.5t-600.5 -118.5q-391 0 -600 119t-209 340q0 150 97 245.5t278 127.5q-157 39 -240.5 124.5t-83.5 211.5q0 205 197 319.5t561 114.5zM850 256
q213 0 322.5 50.5t109.5 148.5q0 194 -432 194t-432 -194q0 -98 110.5 -148.5t321.5 -50.5zM850 915q187 0 287 46.5t100 136.5q0 88 -100.5 135t-286.5 47t-285.5 -47t-99.5 -135q0 -90 99 -136.5t286 -46.5z" />
    <glyph glyph-name="nine" unicode="9" horiz-adv-x="1636" 
d="M778 -33q-284 0 -475.5 127t-226.5 322h350q72 -166 342 -166q130 0 222 36t146.5 106.5t79.5 165.5t25 222q-231 -241 -588 -241q-279 0 -444.5 135.5t-167.5 359.5q2 238 195 386.5t526 148.5q203 0 362.5 -59t261.5 -166t155 -253t52 -323q1 -176 -52 -322.5
t-153.5 -253t-256.5 -166t-353 -59.5zM741 821q128 0 245 51t210 146q-107 266 -438 266q-163 0 -252.5 -65.5t-89.5 -171.5q0 -103 83.5 -164.5t241.5 -61.5z" />
    <glyph glyph-name="colon" unicode=":" horiz-adv-x="647" 
d="M324 -20q-92 0 -151.5 57.5t-59.5 146.5q0 88 59.5 145.5t151.5 57.5t151.5 -57.5t59.5 -145.5q0 -89 -59.5 -146.5t-151.5 -57.5zM324 696q-92 0 -151.5 57.5t-59.5 145.5q0 89 59.5 146t151.5 57t151.5 -57t59.5 -146q0 -88 -59.5 -145.5t-151.5 -57.5z" />
    <glyph glyph-name="semicolon" unicode=";" horiz-adv-x="657" 
d="M297 -297h-184l137 291q-60 20 -94.5 68.5t-34.5 115.5q0 88 57.5 142.5t151.5 54.5t152.5 -56t58.5 -145q0 -99 -119 -272zM330 696q-92 0 -152.5 57.5t-60.5 145.5q0 89 60 146t153 57q92 0 151.5 -57t59.5 -146q0 -88 -59.5 -145.5t-151.5 -57.5z" />
    <glyph glyph-name="less" unicode="&#x3c;" horiz-adv-x="1269" 
d="M1206 1004l-800 -277l800 -276v-285l-1147 414v297l1147 411v-284z" />
    <glyph glyph-name="equal" unicode="=" horiz-adv-x="1269" 
d="M61 844v270h1147v-270h-1147zM61 336v270h1147v-270h-1147z" />
    <glyph glyph-name="greater" unicode="&#x3e;" horiz-adv-x="1269" 
d="M864 727l-801 277v284l1147 -411v-297l-1147 -414v285z" />
    <glyph glyph-name="question" unicode="?" horiz-adv-x="1406" 
d="M672 -20q-92 0 -150.5 55t-58.5 143t58.5 142.5t150.5 54.5q95 0 153 -54.5t58 -142.5t-58 -143t-153 -55zM508 569q0 95 53 165.5t170 125.5l156 78q119 56 119 145q0 91 -77 143t-216 52q-140 0 -226 -62.5t-100 -171.5h-354q19 248 198.5 386.5t483.5 138.5
q303 0 474 -123.5t171 -343.5q0 -109 -62.5 -197.5t-183.5 -148.5l-172 -82q-54 -27 -79 -58.5t-25 -76.5v-45h-320q-10 34 -10 75z" />
    <glyph glyph-name="at" unicode="@" horiz-adv-x="2121" 
d="M2058 788q0 -240 -155 -383t-416 -143h-191v252q-47 -132 -140.5 -204t-227.5 -72q-180 0 -292 120t-112 316q0 195 112 315.5t292 120.5q134 0 227.5 -72t140.5 -200v245h334v-653q99 34 155 128t56 228q0 256 -201 408t-538 152q-242 0 -423.5 -85t-280.5 -242.5
t-99 -367.5q0 -195 97.5 -341t278 -225t419.5 -79q174 0 357.5 39t301.5 102v-204q-123 -58 -307 -92.5t-359 -34.5q-228 0 -417.5 59.5t-321 167.5t-204 263.5t-72.5 342.5q0 264 126.5 465t360.5 311.5t543 110.5q286 0 503 -92t335 -262t118 -394zM854 674
q0 -84 49 -135.5t129 -51.5q79 0 146.5 52.5t95.5 134.5q-28 80 -95.5 133t-146.5 53q-80 0 -129 -51.5t-49 -134.5z" />
    <glyph glyph-name="A" unicode="A" horiz-adv-x="1921" 
d="M719 1536h483l713 -1536h-399l-140 315h-831l-139 -315h-400zM678 616h563l-280 633z" />
    <glyph glyph-name="B" unicode="B" horiz-adv-x="1783" 
d="M1374 807q169 -37 253.5 -136t84.5 -243q0 -192 -133 -310t-379 -118h-1096v1536h1057q212 0 330.5 -99.5t118.5 -273.5q0 -113 -57.5 -207.5t-178.5 -148.5zM473 657v-387h643q102 0 160.5 49.5t58.5 139.5q0 93 -66.5 145.5t-191.5 52.5h-604zM473 1266v-346h557
q90 0 146.5 50t56.5 136q0 72 -51 116t-140 44h-569z" />
    <glyph glyph-name="C" unicode="C" horiz-adv-x="1898" 
d="M1454 631h377q-34 -298 -270.5 -481t-595.5 -183q-262 0 -463 100t-310.5 282t-109.5 419t109.5 419t310.5 282t463 100q359 0 595.5 -183t270.5 -481h-377q-31 158 -160 248t-331 90q-233 0 -368.5 -127.5t-135.5 -347.5t135.5 -347.5t368.5 -127.5q204 0 332 88
t159 250z" />
    <glyph glyph-name="D" unicode="D" horiz-adv-x="1875" 
d="M152 1536h743q267 0 471.5 -95.5t317 -270t112.5 -402.5t-112.5 -402.5t-317 -270t-471.5 -95.5h-743v1536zM524 1204v-872h398q227 0 361 118.5t134 317.5t-134 317.5t-361 118.5h-398z" />
    <glyph glyph-name="E" unicode="E" horiz-adv-x="1605" 
d="M479 627v-320h1024v-307h-1399v1536h1389v-307h-1014v-320h957v-282h-957z" />
    <glyph glyph-name="F" unicode="F" horiz-adv-x="1556" 
d="M152 1536h1329v-319h-955v-324h920v-320h-920v-573h-374v1536z" />
    <glyph glyph-name="G" unicode="G" horiz-adv-x="1961" 
d="M997 274q181 0 313 62.5t195 177.5h-463v268h801v-782h-266l-18 229q-99 -123 -254.5 -192.5t-360.5 -69.5q-181 0 -338 54.5t-273.5 155.5t-183.5 253.5t-67 337.5q0 186 67 338t185.5 253t280 155.5t350.5 54.5q241 0 428 -78t296 -212t140 -310h-377q-32 132 -162 208
t-325 76q-236 0 -371 -126.5t-135 -358.5q0 -236 143.5 -365t394.5 -129z" />
    <glyph glyph-name="H" unicode="H" horiz-adv-x="1900" 
d="M152 0v1536h374v-594h850v594h373v-1536h-373v614h-850v-614h-374z" />
    <glyph glyph-name="I" unicode="I" horiz-adv-x="677" 
d="M152 0v1536h374v-1536h-374z" />
    <glyph glyph-name="J" unicode="J" 
d="M43 664l-2 86h367v-58q0 -198 85 -298.5t271 -100.5q360 0 360 371v872h375v-889q0 -320 -200.5 -500t-534.5 -180q-329 0 -525 185t-196 512z" />
    <glyph glyph-name="K" unicode="K" horiz-adv-x="1824" 
d="M524 0h-372v1536h372v-594h361l499 594h418l-631 -731l654 -805h-447l-489 614h-365v-614z" />
    <glyph glyph-name="L" unicode="L" horiz-adv-x="1546" 
d="M152 1536h374v-1204h983v-332h-1357v1536z" />
    <glyph glyph-name="M" unicode="M" horiz-adv-x="2490" 
d="M1763 1536h576v-1536h-357v1204l-546 -1204h-381l-547 1200v-1200h-356v1536h575l520 -1178z" />
    <glyph glyph-name="N" unicode="N" horiz-adv-x="1966" 
d="M637 1536l815 -1114v1114h363v-1536h-472l-829 1137v-1137h-362v1536h485z" />
    <glyph glyph-name="O" unicode="O" horiz-adv-x="1964" 
d="M983 -33q-268 0 -473 100t-317.5 282t-112.5 419t112.5 419t317.5 282t473 100q267 0 471.5 -100t317 -282t112.5 -419t-112.5 -419t-317 -282t-471.5 -100zM983 301q242 0 383 126t141 341t-141 341t-383 126q-243 0 -383.5 -125.5t-140.5 -341.5t140.5 -341.5
t383.5 -125.5z" />
    <glyph glyph-name="P" unicode="P" horiz-adv-x="1642" 
d="M152 1536h845q277 0 439.5 -141t162.5 -373q0 -234 -162 -375t-440 -141h-471v-506h-374v1536zM526 811h453q114 0 179 56.5t65 154.5t-65 153.5t-179 55.5h-453v-420z" />
    <glyph glyph-name="Q" unicode="Q" horiz-adv-x="1966" 
d="M1403 -113l-109 121q-146 -41 -311 -41q-268 0 -473 100t-317.5 282t-112.5 419t112.5 419t317.5 282t473 100q267 0 471.5 -100t317 -282t112.5 -419q0 -188 -72 -342.5t-206 -261.5l256 -277h-459zM983 301q27 0 41 2l-283 309h447l174 -188q145 129 145 344t-141 341
t-383 126q-243 0 -383.5 -125.5t-140.5 -341.5t140.5 -341.5t383.5 -125.5z" />
    <glyph glyph-name="R" unicode="R" horiz-adv-x="1714" 
d="M1223 0l-445 573h-252v-573h-374v1536h888q257 0 414.5 -133t157.5 -350q0 -179 -113 -303.5t-305 -161.5l465 -588h-436zM526 858h467q112 0 176 52t64 143q0 92 -63.5 143t-176.5 51h-467v-389z" />
    <glyph glyph-name="S" unicode="S" horiz-adv-x="1699" 
d="M76 502h379q15 -111 128.5 -176.5t293.5 -65.5q175 0 273.5 48.5t98.5 137.5q0 71 -59 107t-213 53l-299 33q-303 30 -441.5 139t-138.5 307q0 151 90 260.5t254 166.5t385 57q325 0 535 -138.5t225 -363.5h-381q-12 96 -114.5 152.5t-272.5 56.5q-159 0 -251.5 -46.5
t-92.5 -129.5q0 -66 56 -101.5t196 -52.5l317 -35q319 -34 450.5 -131t131.5 -293q0 -235 -207.5 -377.5t-548.5 -142.5q-349 0 -567 147.5t-227 387.5z" />
    <glyph glyph-name="T" unicode="T" horiz-adv-x="1650" 
d="M639 0v1204h-602v332h1577v-332h-602v-1204h-373z" />
    <glyph glyph-name="U" unicode="U" horiz-adv-x="1787" 
d="M506 1536v-858q0 -175 101.5 -276t285.5 -101q187 0 288 100t101 277v858h373v-877q0 -154 -55 -282.5t-154 -219t-241.5 -140.5t-311.5 -50q-341 0 -551.5 191t-210.5 501v877h375z" />
    <glyph glyph-name="V" unicode="V" horiz-adv-x="1880" 
d="M408 1536l538 -1190l535 1190h393l-723 -1536h-422l-723 1536h402z" />
    <glyph glyph-name="W" unicode="W" horiz-adv-x="2756" 
d="M1577 1536l408 -1190l354 1190h393l-485 -1536h-478l-391 1116l-391 -1116h-479l-483 1536h395l354 -1192l406 1192h397z" />
    <glyph glyph-name="X" unicode="X" horiz-adv-x="1730" 
d="M1702 1536l-604 -737l651 -799h-461l-426 547l-430 -547h-450l655 799l-610 737h467l378 -483l373 483h457z" />
    <glyph glyph-name="Y" unicode="Y" horiz-adv-x="1853" 
d="M1114 0h-373v621l-721 915h414l494 -625l491 625h414l-719 -911v-625z" />
    <glyph glyph-name="Z" unicode="Z" 
d="M1546 0h-1462v274l958 965h-950v297h1448v-272l-956 -967h962v-297z" />
    <glyph glyph-name="bracketleft" unicode="[" horiz-adv-x="851" 
d="M143 1536h643v-274h-299v-1207h299v-274h-643v1755z" />
    <glyph glyph-name="backslash" unicode="\" horiz-adv-x="915" 
d="M313 1591l574 -1646h-283l-573 1646h282z" />
    <glyph glyph-name="bracketright" unicode="]" horiz-adv-x="851" 
d="M66 1536h643v-1755h-643v274h299v1207h-299v274z" />
    <glyph glyph-name="asciicircum" unicode="^" horiz-adv-x="1269" 
d="M1206 768h-305l-264 473l-268 -473h-303l436 768h266z" />
    <glyph glyph-name="underscore" unicode="_" horiz-adv-x="987" 
d="M-59 -309v248h1106v-248h-1106z" />
    <glyph glyph-name="grave" unicode="`" horiz-adv-x="729" 
d="M418 1659l254 -375h-344l-271 375h361z" />
    <glyph glyph-name="a" unicode="a" horiz-adv-x="1480" 
d="M1028 0v154q-82 -82 -202.5 -134.5t-264.5 -52.5q-219 0 -360.5 106t-141.5 283q0 175 139 275.5t363 111.5q37 2 103 2q189 0 305 -38q15 -6 55 -21q-25 232 -389 232q-262 0 -479 -115v270q256 125 565 125q110 0 207 -19t181.5 -60.5t145.5 -102t96 -149.5t35 -197
v-670h-358zM1026 487q-73 41 -283 41q-346 0 -346 -153q0 -71 72.5 -115.5t192.5 -44.5q87 0 168 29t138.5 93t57.5 150z" />
    <glyph glyph-name="b" unicode="b" horiz-adv-x="1646" 
d="M125 0v1577h367v-655q87 132 217 204t288 72q257 0 417.5 -169.5t160.5 -444.5q0 -276 -160.5 -446.5t-417.5 -170.5q-159 0 -288 73.5t-217 207.5v-248h-367zM1204 584q0 145 -87.5 237t-225.5 92q-136 0 -249.5 -91t-166.5 -238q53 -148 166.5 -240t249.5 -92
q138 0 225.5 93t87.5 239z" />
    <glyph glyph-name="c" unicode="c" horiz-adv-x="1533" 
d="M1114 481h367q-28 -228 -224 -371t-479 -143q-209 0 -371 77.5t-251.5 218t-89.5 321.5q0 180 89.5 320t251.5 217t371 77q283 0 479 -142.5t224 -371.5h-367q-24 113 -114.5 175.5t-221.5 62.5q-157 0 -248.5 -90t-91.5 -248q0 -160 91.5 -249t248.5 -89
q130 0 220.5 63.5t115.5 171.5z" />
    <glyph glyph-name="d" unicode="d" horiz-adv-x="1669" 
d="M1522 1577v-1577h-367v248q-88 -134 -217.5 -207.5t-288.5 -73.5q-257 0 -417 170.5t-160 446.5q0 275 160 444.5t417 169.5q158 0 288.5 -72t217.5 -204v655h367zM442 584q0 -146 88 -239t226 -93q136 0 249 92t166 240q-53 147 -166 238t-249 91q-138 0 -226 -92
t-88 -237z" />
    <glyph glyph-name="e" unicode="e" horiz-adv-x="1486" 
d="M791 -33q-208 0 -373 77t-258.5 218.5t-93.5 323.5q0 180 90 320t248.5 216t357.5 76q303 0 479 -196.5t176 -528.5h-956q42 -111 151 -171t275 -60q131 0 262.5 37t236.5 104v-242q-249 -174 -595 -174zM766 932q-123 0 -206 -60t-111 -163h618q-29 108 -106.5 165.5
t-194.5 57.5z" />
    <glyph glyph-name="f" unicode="f" horiz-adv-x="1171" 
d="M1145 801h-494v-801h-368v801h-242v274h242v8q0 250 149 388.5t436 138.5q145 0 303 -49v-275q-124 47 -260 47q-140 0 -200 -53.5t-60 -171.5v-33h494v-274z" />
    <glyph glyph-name="g" unicode="g" horiz-adv-x="1642" 
d="M635 113q-161 0 -290 67t-203 191t-74 284t74 284.5t203 191.5t290 67t294 -68t226 -176v213h369v-856q0 -214 -98.5 -369.5t-273.5 -234t-407 -78.5q-159 0 -295 41t-268 127v285q232 -180 541 -180q432 0 432 389v55q-92 -105 -225 -169t-295 -64zM758 369
q264 0 409 286q-147 289 -409 289q-149 0 -235.5 -78.5t-86.5 -210.5q0 -131 85 -208.5t237 -77.5z" />
    <glyph glyph-name="h" unicode="h" horiz-adv-x="1564" 
d="M125 0v1577h367v-612q76 114 189.5 173.5t250.5 59.5q247 0 385.5 -147t138.5 -402v-649h-366v594q0 148 -73 225.5t-210 77.5q-146 0 -230.5 -90t-84.5 -244v-563h-367z" />
    <glyph glyph-name="i" unicode="i" horiz-adv-x="616" 
d="M125 0v1182h367v-1182h-367zM309 1292q-100 0 -160.5 51t-60.5 136t60.5 135.5t160.5 50.5q99 0 159 -51t60 -135q0 -85 -60.5 -136t-158.5 -51z" />
    <glyph glyph-name="j" unicode="j" horiz-adv-x="761" 
d="M629 1182v-1078q0 -224 -131 -349.5t-402 -125.5q-100 0 -198.5 20t-163.5 48v280q124 -59 280 -59q138 0 193 53t55 185v1026h367zM446 1292q-100 0 -160.5 51t-60.5 136t60.5 135.5t160.5 50.5q99 0 159.5 -51t60.5 -135t-60.5 -135.5t-159.5 -51.5z" />
    <glyph glyph-name="k" unicode="k" horiz-adv-x="1482" 
d="M492 0h-367v1577h367v-844h233l365 434h405l-487 -553l520 -614h-428l-373 457h-235v-457z" />
    <glyph glyph-name="l" unicode="l" horiz-adv-x="616" 
d="M125 0v1577h367v-1577h-367z" />
    <glyph glyph-name="m" unicode="m" horiz-adv-x="2439" 
d="M1831 1198q235 0 367.5 -147t132.5 -402v-649h-369v594q0 149 -65.5 226t-190.5 77q-132 0 -208.5 -90t-76.5 -244v-563h-368v594q0 149 -65.5 226t-190.5 77q-132 0 -208.5 -90t-76.5 -244v-563h-369v1167h369v-194q71 109 178 167t234 58q168 0 284.5 -77t169.5 -220
q70 143 188.5 220t264.5 77z" />
    <glyph glyph-name="n" unicode="n" horiz-adv-x="1585" 
d="M950 1198q249 0 388 -147t139 -402v-649h-369v594q0 148 -73 225.5t-210 77.5q-145 0 -229 -90t-84 -244v-563h-369v1167h369v-202q76 114 189 173.5t249 59.5z" />
    <glyph glyph-name="o" unicode="o" horiz-adv-x="1601" 
d="M801 -33q-218 0 -385 77t-258.5 217t-91.5 323q0 275 202.5 444.5t532.5 169.5t532.5 -169.5t202.5 -444.5q0 -183 -91.5 -323t-258.5 -217t-385 -77zM801 246q169 0 266.5 90t97.5 248q0 157 -97.5 247.5t-266.5 90.5t-266 -90.5t-97 -247.5q0 -158 97 -248t266 -90z
" />
    <glyph glyph-name="p" unicode="p" horiz-adv-x="1648" 
d="M125 -338v1505h367v-252q87 135 217.5 209t291.5 74q257 0 417.5 -169.5t160.5 -444.5q0 -276 -160.5 -446.5t-417.5 -170.5q-160 0 -290.5 75.5t-218.5 211.5v-592h-367zM1208 584q0 145 -87.5 237t-225.5 92q-136 0 -249.5 -91t-166.5 -238q53 -148 166.5 -240
t249.5 -92q138 0 225.5 93t87.5 239z" />
    <glyph glyph-name="q" unicode="q" horiz-adv-x="1650" 
d="M1526 1167v-1505h-367v592q-88 -136 -219 -211.5t-291 -75.5q-257 0 -417 170.5t-160 446.5q0 275 160 444.5t417 169.5q161 0 292 -74t218 -209v252h367zM442 584q0 -146 88 -239t226 -93q136 0 249 92t166 240q-53 147 -166 238t-249 91q-138 0 -226 -92t-88 -237z" />
    <glyph glyph-name="r" unicode="r" horiz-adv-x="1101" 
d="M1071 1182v-318q-116 25 -207 25q-76 0 -139 -23t-111.5 -69.5t-75 -123t-26.5 -177.5v-496h-369v1167h369v-266q125 297 410 297q77 0 149 -16z" />
    <glyph glyph-name="s" unicode="s" horiz-adv-x="1492" 
d="M1427 373q0 -194 -170 -300t-483 -106q-321 0 -516.5 116.5t-204.5 309.5h375q20 -82 113.5 -128t244.5 -46q281 0 281 119q0 46 -51 69t-182 33l-213 17q-147 12 -252 43t-165.5 78.5t-88 105.5t-27.5 131q0 186 170.5 284.5t462.5 98.5q189 0 340 -50.5t241 -141.5
t103 -209h-375q-15 68 -94.5 112.5t-230.5 44.5q-123 0 -189.5 -28t-66.5 -80q0 -42 42 -64.5t150 -31.5l279 -23q143 -11 242 -40t157 -75.5t83 -104t25 -134.5z" />
    <glyph glyph-name="t" unicode="t" horiz-adv-x="1202" 
d="M252 893h-242v162l242 84l158 338h211v-310h507v-274h-507v-399q0 -132 54.5 -185t192.5 -53q153 0 281 59v-280q-67 -28 -166 -48t-199 -20q-269 0 -400.5 125.5t-131.5 349.5v451z" />
    <glyph glyph-name="u" unicode="u" horiz-adv-x="1560" 
d="M1415 0h-366v199q-75 -112 -185 -171t-243 -59q-242 0 -377 146.5t-135 400.5v651h368v-596q0 -147 68.5 -224t199.5 -77q142 0 223 88.5t81 243.5v565h368v-772z" />
    <glyph glyph-name="v" unicode="v" horiz-adv-x="1538" 
d="M412 1167l362 -843l365 843h391l-553 -1167h-416l-553 1167h404z" />
    <glyph glyph-name="w" unicode="w" horiz-adv-x="2308" 
d="M1333 1167l299 -805l295 805h369l-447 -1167h-376l-318 827l-321 -827h-377l-445 1167h369l295 -800l303 800h354z" />
    <glyph glyph-name="x" unicode="x" horiz-adv-x="1421" 
d="M389 0h-409l495 594l-463 573h410l293 -354l295 354h403l-471 -569l502 -598h-418l-319 383z" />
    <glyph glyph-name="y" unicode="y" horiz-adv-x="1548" 
d="M473 -371q-118 0 -212.5 29.5t-184.5 91.5v260q92 -58 172 -83t174 -25q91 0 154 39.5t104 132.5l4 12h-158l-508 1081h406l360 -850l369 850h391l-575 -1210q-156 -328 -496 -328z" />
    <glyph glyph-name="z" unicode="z" horiz-adv-x="1390" 
d="M1313 0h-1235v258l768 639h-762v270h1225v-258l-768 -641h772v-268z" />
    <glyph glyph-name="braceleft" unicode="{" horiz-adv-x="923" 
d="M856 1536v-260h-211q-58 0 -82.5 -35.5t-7.5 -95.5l57 -199q36 -119 -9 -193.5t-152 -95.5q107 -19 152 -93t9 -193l-57 -199q-17 -60 7.5 -95.5t82.5 -35.5h211v-260h-373q-163 0 -240.5 106t-27.5 258l84 256q20 62 -8 98t-90 36h-135v247h135q62 0 90 35.5t8 97.5
l-84 256q-50 152 27.5 258.5t240.5 106.5h373z" />
    <glyph glyph-name="bar" unicode="|" horiz-adv-x="620" 
d="M152 -201v1737h317v-1737h-317z" />
    <glyph glyph-name="braceright" unicode="}" horiz-adv-x="923" 
d="M68 1276v260h372q163 0 241 -106.5t28 -258.5l-84 -256q-20 -62 8 -97.5t90 -35.5h135v-247h-135q-62 0 -90 -36t-8 -98l84 -256q50 -151 -28 -257.5t-241 -106.5h-372v260h211q58 0 82.5 35.5t7.5 95.5l-58 199q-36 119 9.5 193t152.5 93q-107 21 -152.5 95.5
t-9.5 193.5l58 199q17 60 -7.5 95.5t-82.5 35.5h-211z" />
    <glyph glyph-name="asciitilde" unicode="~" horiz-adv-x="1269" 
d="M61 555v260q158 76 340 76q89 0 233.5 -35t233.5 -35q180 0 340 74v-260q-158 -76 -340 -76q-89 0 -233.5 35t-233.5 35q-180 0 -340 -74z" />
    <glyph glyph-name="uni00A0" unicode="&#xa0;" horiz-adv-x="518" 
 />
    <glyph glyph-name="exclamdown" unicode="&#xa1;" horiz-adv-x="612" 
d="M436 700l62 -1017h-383l61 1017h260zM307 1239q92 0 150.5 -55.5t58.5 -143.5q0 -87 -58 -141.5t-151 -54.5q-95 0 -153 54t-58 142t58 143.5t153 55.5z" />
    <glyph glyph-name="cent" unicode="&#xa2;" horiz-adv-x="1593" 
d="M690 -174v149q-262 32 -420.5 197t-158.5 410q0 246 158 410.5t421 195.5v151h215v-149q239 -25 400.5 -161.5t187.5 -340.5h-342q-20 92 -84 153.5t-162 84.5v-686q95 22 159.5 83t86.5 152h342q-26 -202 -186 -339t-402 -163v-147h-215zM453 582q0 -133 62.5 -221
t174.5 -119v680q-112 -31 -174.5 -119t-62.5 -221z" />
    <glyph glyph-name="sterling" unicode="&#xa3;" horiz-adv-x="1644" 
d="M98 606v250h207q-86 124 -86 262q0 201 182 326t476 125q290 0 476.5 -133.5t200.5 -350.5h-368q-17 95 -96.5 149t-202.5 54q-135 0 -214 -54.5t-79 -148.5q0 -46 20 -90.5t40 -69.5t61 -69h604v-250h-451q0 -220 -252 -338h959v-268h-1473v303q202 34 303 93.5
t101 150.5q0 32 -12 59h-396z" />
    <glyph glyph-name="currency" unicode="&#xa4;" horiz-adv-x="1468" 
d="M1380 362l-125 -126l-159 129q-147 -86 -363 -86q-215 0 -362 86l-160 -129l-123 126l145 130q-77 112 -77 264t77 264l-145 129l123 127l160 -129q147 86 362 86q216 0 363 -86l159 129l125 -139l-143 -119q76 -115 76 -262q0 -151 -78 -264zM733 535q283 0 283 221
t-283 221q-280 0 -280 -221t280 -221z" />
    <glyph glyph-name="yen" unicode="&#xa5;" horiz-adv-x="1761" 
d="M180 610v221h371l-504 705h414l420 -608l419 608h414l-504 -705h377v-221h-518v-114h518v-222h-518v-274h-373v274h-516v222h516v114h-516z" />
    <glyph glyph-name="brokenbar" unicode="&#xa6;" horiz-adv-x="620" 
d="M152 -201v688h317v-688h-317zM469 1536v-688h-317v688h317z" />
    <glyph glyph-name="section" unicode="&#xa7;" horiz-adv-x="1765" 
d="M903 -295q-140 0 -258.5 23.5t-202.5 64t-144.5 95.5t-91.5 116.5t-36 128.5h371q10 -85 102 -140.5t264 -55.5q147 0 221 39t74 100q0 51 -42.5 80t-151.5 61l-463 123q-231 60 -338 144t-107 218q0 83 50 146.5t149 99.5q-115 86 -115 240q0 79 42 147t123.5 121
t213 83t299.5 30q173 0 312.5 -36t227.5 -97t137 -137t54 -160h-368q-10 85 -103 140.5t-264 55.5q-147 0 -221 -39t-74 -100q0 -49 43.5 -79t151.5 -62l463 -121q242 -63 343 -146t101 -219q0 -173 -199 -245q115 -86 115 -238q0 -167 -173.5 -274t-504.5 -107zM631 817
q-72 18 -158 47q-51 -39 -51 -98q0 -66 52 -104.5t177 -73.5l482 -131q65 -17 161 -49q47 38 47 100q0 65 -52 103t-175 75z" />
    <glyph glyph-name="dieresis" unicode="&#xa8;" horiz-adv-x="1183" 
d="M285 1292q-95 0 -151 48.5t-56 132.5q0 79 56.5 126.5t150.5 47.5t150.5 -47.5t56.5 -126.5q0 -84 -56 -132.5t-151 -48.5zM901 1292q-95 0 -151 48.5t-56 132.5q0 79 56.5 126.5t150.5 47.5q93 0 150 -47.5t57 -126.5q0 -84 -57 -132.5t-150 -48.5z" />
    <glyph glyph-name="copyright" unicode="&#xa9;" horiz-adv-x="1855" 
d="M1182 698h262q-20 -188 -160 -300.5t-354 -112.5q-233 0 -375.5 134.5t-142.5 354.5q0 219 142.5 354.5t375.5 135.5q212 0 353 -114t161 -300h-262q-19 90 -84.5 139t-169.5 49q-118 0 -186 -71t-68 -193q0 -123 68 -194.5t186 -71.5q107 0 172 48.5t82 141.5zM928 -33
q-168 0 -318.5 60.5t-260 165t-174 254.5t-64.5 321q0 172 64.5 322t174.5 254.5t260.5 164.5t317.5 60q225 0 411.5 -102t296 -286t109.5 -413q0 -171 -64.5 -321t-174 -254.5t-260 -165t-318.5 -60.5zM928 119q180 0 329.5 81.5t237.5 231t88 336.5t-88 336.5t-237.5 231
t-329.5 81.5t-329.5 -81.5t-238 -231t-88.5 -336.5t88.5 -336.5t238 -231t329.5 -81.5z" />
    <glyph glyph-name="ordfeminine" unicode="&#xaa;" horiz-adv-x="1372" 
d="M1257 623h-327v221q-66 -116 -171.5 -181t-236.5 -65q-198 0 -322 131.5t-124 343.5q0 216 123.5 347.5t322.5 131.5q133 0 237.5 -63.5t170.5 -179.5v219h327v-905zM397 1073q0 -100 61.5 -164.5t157.5 -64.5q99 0 182.5 64t119.5 165q-35 105 -119 170.5t-183 65.5
q-97 0 -158 -66t-61 -170z" />
    <glyph glyph-name="guillemotleft" unicode="&#xab;" horiz-adv-x="1421" 
d="M86 637l305 481h377l-313 -481l313 -483h-377zM655 637l306 481h376l-313 -481l313 -483h-376z" />
    <glyph glyph-name="logicalnot" unicode="&#xac;" horiz-adv-x="1269" 
d="M1200 385h-268v414h-879v270h1147v-684z" />
    <glyph glyph-name="uni00AD" unicode="&#xad;" horiz-adv-x="745" 
d="M115 569v295h516v-295h-516z" />
    <glyph glyph-name="registered" unicode="&#xae;" horiz-adv-x="1601" 
d="M801 289q-146 0 -274 48.5t-218.5 132.5t-143 203t-52.5 255t52.5 255.5t143 204t218.5 133t274 48.5t274 -48.5t218.5 -133t143 -204t52.5 -255.5t-52.5 -255t-143 -203t-218.5 -132.5t-274 -48.5zM801 424q240 0 390 141.5t150 362.5t-150 363.5t-390 142.5
q-238 0 -389.5 -142.5t-151.5 -363.5q0 -220 151.5 -362t389.5 -142zM489 571v723h375q121 0 197 -64t76 -167q0 -78 -44.5 -135t-121.5 -82l184 -275h-217l-156 260h-106v-260h-187zM676 1151v-178h172q46 0 72 23.5t26 66.5q0 41 -26 64.5t-72 23.5h-172z" />
    <glyph glyph-name="macron" unicode="&#xaf;" horiz-adv-x="1054" 
d="M1024 1343h-961v228h961v-228z" />
    <glyph glyph-name="degree" unicode="&#xb0;" horiz-adv-x="921" 
d="M461 942q-163 0 -265 85t-102 220q0 136 102 221.5t265 85.5t264.5 -85t101.5 -222q0 -135 -101.5 -220t-264.5 -85zM461 1098q77 0 117 38t40 111q0 74 -40.5 113t-116.5 39q-75 0 -116.5 -39.5t-41.5 -112.5t41 -111t117 -38z" />
    <glyph glyph-name="plusminus" unicode="&#xb1;" horiz-adv-x="1269" 
d="M770 446h-270v295h-439v256h439v293h270v-293h438v-256h-438v-295zM61 78v258h1147v-258h-1147z" />
    <glyph glyph-name="twosuperior" unicode="&#xb2;" horiz-adv-x="1114" 
d="M367 1438h-277q13 146 144 244t346 98q199 0 312.5 -84t113.5 -219q0 -115 -77 -196t-243 -165l-123 -63h451v-215h-916v168l365 198q140 78 200 130t60 112q0 52 -42 81t-122 29q-85 0 -134 -32.5t-58 -85.5z" />
    <glyph glyph-name="threesuperior" unicode="&#xb3;" horiz-adv-x="1155" 
d="M354 1430h-274q12 160 149.5 255t374.5 95q219 0 338 -73t119 -196q0 -149 -189 -198q213 -39 213 -201q0 -131 -124.5 -212t-368.5 -81q-245 0 -390.5 100t-150.5 261h275q19 -144 247 -144q110 0 160.5 20.5t50.5 71.5q0 43 -35.5 63.5t-127.5 20.5h-154v174h154
q149 0 149 91q0 86 -182 86q-218 0 -234 -133z" />
    <glyph glyph-name="acute" unicode="&#xb4;" horiz-adv-x="729" 
d="M57 1284l254 375h361l-271 -375h-344z" />
    <glyph glyph-name="paragraph" unicode="&#xb6;" horiz-adv-x="1642" 
d="M502 1536h563v-1536h-272v655h-291q-201 0 -328 123t-127 318q0 194 127 317t328 123zM1483 0h-273v1536h273v-1536z" />
    <glyph glyph-name="periodcentered" unicode="&#xb7;" horiz-adv-x="608" 
d="M305 539q-89 0 -151 62t-62 151q0 90 61.5 151.5t151.5 61.5t151.5 -61.5t61.5 -151.5q0 -89 -62 -151t-151 -62z" />
    <glyph glyph-name="cedilla" unicode="&#xb8;" horiz-adv-x="862" 
d="M164 -227l166 256h188l-80 -125q48 10 97 10q133 0 202.5 -51.5t69.5 -145.5q0 -97 -94 -159t-262 -62q-152 0 -258.5 59.5t-137.5 157.5h228q43 -61 168 -61q66 0 100.5 19.5t34.5 54.5q0 32 -29 51.5t-88 19.5q-55 0 -113 -24h-192z" />
    <glyph glyph-name="onesuperior" unicode="&#xb9;" horiz-adv-x="927" 
d="M440 1759h207v-706h230v-215h-773v215h281v469l-270 -45v219z" />
    <glyph glyph-name="ordmasculine" unicode="&#xba;" horiz-adv-x="1296" 
d="M649 598q-259 0 -418 131.5t-159 345.5t159.5 345.5t417.5 131.5t417 -131t159 -346q0 -214 -159 -345.5t-417 -131.5zM649 836q118 0 187 64.5t69 174.5q0 112 -68.5 176t-187.5 64q-120 0 -189 -64t-69 -176t69 -175.5t189 -63.5z" />
    <glyph glyph-name="guillemotright" unicode="&#xbb;" horiz-adv-x="1421" 
d="M1030 1118l305 -481l-305 -483h-377l314 483l-314 481h377zM461 1118l305 -481l-305 -483h-377l313 483l-313 481h377z" />
    <glyph glyph-name="onequarter" unicode="&#xbc;" horiz-adv-x="2287" 
d="M418 1536h207v-707h229v-215h-772v215h280v469l-270 -45v220zM621 0l835 1536h275l-836 -1536h-274zM1782 922h334v-560h139v-198h-139v-164h-258v164h-572v180zM1589 362h269v316z" />
    <glyph glyph-name="onehalf" unicode="&#xbd;" horiz-adv-x="2383" 
d="M1657 600h-277q13 146 144 244t346 98q199 0 312.5 -84t113.5 -219q0 -115 -77 -195.5t-243 -164.5l-123 -64h451v-215h-915v168l364 199q141 78 200.5 129.5t59.5 111.5q0 52 -42 81.5t-122 29.5q-84 0 -133.5 -32.5t-58.5 -86.5zM418 1536h207v-707h229v-215h-772v215
h280v469l-270 -45v220zM612 0l836 1536h274l-835 -1536h-275z" />
    <glyph glyph-name="threequarters" unicode="&#xbe;" horiz-adv-x="2488" 
d="M803 0l835 1536h275l-836 -1536h-274zM1972 922h334v-560h139v-198h-139v-164h-258v164h-571v180zM375 1204h-275q12 160 150 255t375 95q219 0 337.5 -72.5t118.5 -195.5q0 -150 -188 -199q213 -39 213 -200q0 -131 -124.5 -212t-369.5 -81t-390 99.5t-150 260.5h274
q19 -143 248 -143q110 0 160.5 20.5t50.5 71.5q0 42 -36 63t-128 21h-154v174h154q150 0 150 90q0 86 -183 86q-217 0 -233 -133zM1780 362h268v316z" />
    <glyph glyph-name="questiondown" unicode="&#xbf;" horiz-adv-x="1400" 
d="M733 1239q92 0 150.5 -55.5t58.5 -143.5q0 -87 -58 -141.5t-151 -54.5q-95 0 -153 54t-58 142t58 143.5t153 55.5zM897 649q0 -95 -53 -165.5t-170 -125.5l-156 -77q-56 -27 -87.5 -64.5t-31.5 -81.5q0 -91 77 -142.5t216 -51.5q140 0 226 62t100 171h354
q-19 -248 -198.5 -386t-483.5 -138q-303 0 -474 123.5t-171 343.5q0 109 62.5 197.5t183.5 148.5l172 82q54 27 79 58.5t25 76.5v45h320q10 -34 10 -76z" />
    <glyph glyph-name="Agrave" unicode="&#xc0;" horiz-adv-x="1921" 
d="M719 1536h483l713 -1536h-399l-140 315h-831l-139 -315h-400zM864 1989l301 -336h-372l-351 336h422zM678 616h563l-280 633z" />
    <glyph glyph-name="Aacute" unicode="&#xc1;" horiz-adv-x="1921" 
d="M719 1536h483l713 -1536h-399l-140 315h-831l-139 -315h-400zM678 616h563l-280 633zM729 1653l301 336h422l-350 -336h-373z" />
    <glyph glyph-name="Acircumflex" unicode="&#xc2;" horiz-adv-x="1921" 
d="M719 1536h483l713 -1536h-399l-140 315h-831l-139 -315h-400zM455 1653l307 336h395l309 -336h-311l-194 149l-197 -149h-309zM678 616h563l-280 633z" />
    <glyph glyph-name="Atilde" unicode="&#xc3;" horiz-adv-x="1921" 
d="M719 1536h483l713 -1536h-399l-140 315h-831l-139 -315h-400zM678 616h563l-280 633zM670 1665h-244q19 159 103 246.5t233 87.5q64 0 139 -26.5t139 -52.5t103 -26q44 0 73 25.5t35 69.5h244q-21 -158 -105 -245t-233 -87q-64 0 -138.5 25.5t-138 51t-102.5 25.5
q-45 0 -73.5 -24.5t-34.5 -69.5z" />
    <glyph glyph-name="Adieresis" unicode="&#xc4;" horiz-adv-x="1921" 
d="M719 1536h483l713 -1536h-399l-140 315h-831l-139 -315h-400zM678 616h563l-280 633zM647 1663q-94 0 -150.5 47.5t-56.5 130.5q0 81 56.5 128.5t150.5 47.5t150.5 -47.5t56.5 -128.5q0 -83 -56.5 -130.5t-150.5 -47.5zM1272 1663q-94 0 -150.5 47.5t-56.5 130.5
q0 81 56.5 128.5t150.5 47.5t150.5 -47.5t56.5 -128.5q0 -83 -56.5 -130.5t-150.5 -47.5z" />
    <glyph glyph-name="Aring" unicode="&#xc5;" horiz-adv-x="1921" 
d="M719 1536h483l713 -1536h-399l-140 315h-831l-139 -315h-400zM678 616h563l-280 633zM963 1622q-181 0 -282 69.5t-101 194.5t101 194.5t282 69.5t280.5 -69.5t99.5 -194.5t-99.5 -194.5t-280.5 -69.5zM963 1786q172 0 172 100q0 101 -172 101q-175 0 -175 -101
q0 -100 175 -100z" />
    <glyph glyph-name="AE" unicode="&#xc6;" horiz-adv-x="2570" 
d="M2384 627h-823l131 -320h802v-307h-1067l-122 315h-766l-127 -315h-400l658 1536h1769v-307h-1116l131 -320h930v-282zM664 616h524l-256 656z" />
    <glyph glyph-name="Ccedilla" unicode="&#xc7;" horiz-adv-x="1898" 
d="M715 -227l129 200q-348 34 -555 249t-207 546q0 237 109.5 419t310.5 282t463 100q359 0 595.5 -183t270.5 -481h-377q-31 158 -160 248t-331 90q-233 0 -368.5 -127.5t-135.5 -347.5t135.5 -347.5t368.5 -127.5q204 0 332 88t159 250h377q-21 -187 -126 -333
t-279.5 -232t-395.5 -97l-37 -61q41 8 101 8q134 0 208 -52t74 -145q0 -100 -97.5 -161.5t-274.5 -61.5q-159 0 -267 58t-139 159h246q33 -57 160 -57q67 0 102 20t35 52q0 30 -30 47.5t-87 17.5q-68 0 -123 -20h-186z" />
    <glyph glyph-name="Egrave" unicode="&#xc8;" horiz-adv-x="1605" 
d="M479 627v-320h1024v-307h-1399v1536h1389v-307h-1014v-320h957v-282h-957zM715 1989l301 -336h-373l-350 336h422z" />
    <glyph glyph-name="Eacute" unicode="&#xc9;" horiz-adv-x="1605" 
d="M479 627v-320h1024v-307h-1399v1536h1389v-307h-1014v-320h957v-282h-957zM580 1653l301 336h422l-351 -336h-372z" />
    <glyph glyph-name="Ecircumflex" unicode="&#xca;" horiz-adv-x="1605" 
d="M479 627v-320h1024v-307h-1399v1536h1389v-307h-1014v-320h957v-282h-957zM305 1653l307 336h396l309 -336h-311l-195 149l-197 -149h-309z" />
    <glyph glyph-name="Edieresis" unicode="&#xcb;" horiz-adv-x="1605" 
d="M479 627v-320h1024v-307h-1399v1536h1389v-307h-1014v-320h957v-282h-957zM498 1663q-94 0 -150.5 47.5t-56.5 130.5q0 81 56.5 128.5t150.5 47.5t150.5 -47.5t56.5 -128.5q0 -83 -56.5 -130.5t-150.5 -47.5zM1122 1663q-94 0 -150.5 47.5t-56.5 130.5q0 81 56.5 128.5
t150.5 47.5t150.5 -47.5t56.5 -128.5q0 -83 -56.5 -130.5t-150.5 -47.5z" />
    <glyph glyph-name="Igrave" unicode="&#xcc;" horiz-adv-x="677" 
d="M152 0v1536h374v-1536h-374zM244 1989l301 -336h-373l-350 336h422z" />
    <glyph glyph-name="Iacute" unicode="&#xcd;" horiz-adv-x="677" 
d="M152 0v1536h374v-1536h-374zM109 1653l301 336h421l-350 -336h-372z" />
    <glyph glyph-name="Icircumflex" unicode="&#xce;" horiz-adv-x="677" 
d="M152 0v1536h374v-1536h-374zM-78 1653l225 336h383l226 -336h-267l-151 162l-152 -162h-264z" />
    <glyph glyph-name="Idieresis" unicode="&#xcf;" horiz-adv-x="677" 
d="M152 0v1536h374v-1536h-374zM121 1663q-82 0 -128 47t-46 131q0 82 46 129t128 47t128 -47t46 -129q0 -84 -46 -131t-128 -47zM555 1663q-80 0 -126 47t-46 131q0 82 46 129t126 47q82 0 128 -47t46 -129q0 -84 -46 -131t-128 -47z" />
    <glyph glyph-name="Eth" unicode="&#xd0;" horiz-adv-x="1933" 
d="M55 643v254h154v639h743q267 0 471.5 -95.5t317 -270t112.5 -402.5t-112.5 -402.5t-317 -270t-471.5 -95.5h-743v643h-154zM582 1204v-307h372v-254h-372v-311h397q227 0 361.5 119t134.5 317t-134.5 317t-361.5 119h-397z" />
    <glyph glyph-name="Ntilde" unicode="&#xd1;" horiz-adv-x="1966" 
d="M637 1536l815 -1114v1114h363v-1536h-472l-829 1137v-1137h-362v1536h485zM719 1665h-244q19 159 103 246.5t233 87.5q64 0 139 -26.5t139 -52.5t103 -26q44 0 73 25.5t35 69.5h244q-21 -158 -105 -245t-233 -87q-64 0 -138.5 25.5t-138 51t-102.5 25.5
q-45 0 -73.5 -24.5t-34.5 -69.5z" />
    <glyph glyph-name="Ograve" unicode="&#xd2;" horiz-adv-x="1964" 
d="M983 -33q-268 0 -473 100t-317.5 282t-112.5 419t112.5 419t317.5 282t473 100q267 0 471.5 -100t317 -282t112.5 -419t-112.5 -419t-317 -282t-471.5 -100zM887 1989l301 -336h-373l-350 336h422zM983 301q242 0 383 126t141 341t-141 341t-383 126
q-243 0 -383.5 -125.5t-140.5 -341.5t140.5 -341.5t383.5 -125.5z" />
    <glyph glyph-name="Oacute" unicode="&#xd3;" horiz-adv-x="1964" 
d="M983 -33q-268 0 -473 100t-317.5 282t-112.5 419t112.5 419t317.5 282t473 100q267 0 471.5 -100t317 -282t112.5 -419t-112.5 -419t-317 -282t-471.5 -100zM983 301q242 0 383 126t141 341t-141 341t-383 126q-243 0 -383.5 -125.5t-140.5 -341.5t140.5 -341.5
t383.5 -125.5zM752 1653l301 336h422l-351 -336h-372z" />
    <glyph glyph-name="Ocircumflex" unicode="&#xd4;" horiz-adv-x="1964" 
d="M983 -33q-268 0 -473 100t-317.5 282t-112.5 419t112.5 419t317.5 282t473 100q267 0 471.5 -100t317 -282t112.5 -419t-112.5 -419t-317 -282t-471.5 -100zM475 1653l307 336h396l309 -336h-311l-195 149l-197 -149h-309zM983 301q242 0 383 126t141 341t-141 341
t-383 126q-243 0 -383.5 -125.5t-140.5 -341.5t140.5 -341.5t383.5 -125.5z" />
    <glyph glyph-name="Otilde" unicode="&#xd5;" horiz-adv-x="1964" 
d="M983 -33q-268 0 -473 100t-317.5 282t-112.5 419t112.5 419t317.5 282t473 100q267 0 471.5 -100t317 -282t112.5 -419t-112.5 -419t-317 -282t-471.5 -100zM983 301q242 0 383 126t141 341t-141 341t-383 126q-243 0 -383.5 -125.5t-140.5 -341.5t140.5 -341.5
t383.5 -125.5zM690 1665h-244q19 159 103 246.5t233 87.5q64 0 139 -26.5t139 -52.5t103 -26q44 0 73.5 25.5t35.5 69.5h244q-21 -158 -105 -245t-233 -87q-64 0 -138.5 25.5t-138 51t-102.5 25.5q-45 0 -74 -24.5t-35 -69.5z" />
    <glyph glyph-name="Odieresis" unicode="&#xd6;" horiz-adv-x="1964" 
d="M983 -33q-268 0 -473 100t-317.5 282t-112.5 419t112.5 419t317.5 282t473 100q267 0 471.5 -100t317 -282t112.5 -419t-112.5 -419t-317 -282t-471.5 -100zM983 301q242 0 383 126t141 341t-141 341t-383 126q-243 0 -383.5 -125.5t-140.5 -341.5t140.5 -341.5
t383.5 -125.5zM670 1663q-94 0 -150.5 47.5t-56.5 130.5q0 81 56.5 128.5t150.5 47.5t150.5 -47.5t56.5 -128.5q0 -83 -56.5 -130.5t-150.5 -47.5zM1294 1663q-94 0 -150.5 47.5t-56.5 130.5q0 81 56.5 128.5t150.5 47.5t150.5 -47.5t56.5 -128.5q0 -83 -56.5 -130.5
t-150.5 -47.5z" />
    <glyph glyph-name="multiply" unicode="&#xd7;" horiz-adv-x="1269" 
d="M326 209l-191 192l309 310l-309 309l191 192l311 -311l309 311l191 -192l-310 -309l310 -310l-191 -192l-309 311z" />
    <glyph glyph-name="Oslash" unicode="&#xd8;" horiz-adv-x="1964" 
d="M121 -33l198 230q-115 105 -177 251.5t-62 319.5q0 237 112.5 419t317 282t471.5 100q234 0 440 -88l76 88h344l-199 -232q240 -223 240 -569q0 -237 -112.5 -419t-317 -282t-471.5 -100q-241 0 -440 86l-76 -86h-344zM451 768q0 -181 98 -305l647 756q-94 30 -215 30
q-245 0 -387.5 -129t-142.5 -352zM981 287q246 0 389 129t143 352q0 181 -98 305l-647 -756q95 -30 213 -30z" />
    <glyph glyph-name="Ugrave" unicode="&#xd9;" horiz-adv-x="1787" 
d="M506 1536v-858q0 -175 101.5 -276t285.5 -101q187 0 288 100t101 277v858h373v-877q0 -154 -55 -282.5t-154 -219t-241.5 -140.5t-311.5 -50q-341 0 -551.5 191t-210.5 501v877h375zM797 1989l301 -336h-373l-350 336h422z" />
    <glyph glyph-name="Uacute" unicode="&#xda;" horiz-adv-x="1787" 
d="M506 1536v-858q0 -175 101.5 -276t285.5 -101q187 0 288 100t101 277v858h373v-877q0 -154 -55 -282.5t-154 -219t-241.5 -140.5t-311.5 -50q-341 0 -551.5 191t-210.5 501v877h375zM662 1653l301 336h421l-350 -336h-372z" />
    <glyph glyph-name="Ucircumflex" unicode="&#xdb;" horiz-adv-x="1787" 
d="M506 1536v-858q0 -175 101.5 -276t285.5 -101q187 0 288 100t101 277v858h373v-877q0 -154 -55 -282.5t-154 -219t-241.5 -140.5t-311.5 -50q-341 0 -551.5 191t-210.5 501v877h375zM387 1653l307 336h396l309 -336h-312l-194 149l-197 -149h-309z" />
    <glyph glyph-name="Udieresis" unicode="&#xdc;" horiz-adv-x="1787" 
d="M506 1536v-858q0 -175 101.5 -276t285.5 -101q187 0 288 100t101 277v858h373v-877q0 -154 -55 -282.5t-154 -219t-241.5 -140.5t-311.5 -50q-341 0 -551.5 191t-210.5 501v877h375zM580 1663q-94 0 -150.5 47.5t-56.5 130.5q0 81 56.5 128.5t150.5 47.5t150 -47.5
t56 -128.5q0 -83 -56 -130.5t-150 -47.5zM1204 1663q-94 0 -150.5 47.5t-56.5 130.5q0 81 56.5 128.5t150.5 47.5t150.5 -47.5t56.5 -128.5q0 -83 -56.5 -130.5t-150.5 -47.5z" />
    <glyph glyph-name="Yacute" unicode="&#xdd;" horiz-adv-x="1853" 
d="M1114 0h-373v621l-721 915h414l494 -625l491 625h414l-719 -911v-625zM696 1653l301 336h422l-350 -336h-373z" />
    <glyph glyph-name="Thorn" unicode="&#xde;" horiz-adv-x="1673" 
d="M152 0v1536h374v-244h471q278 0 440 -140.5t162 -373.5q0 -235 -162 -375.5t-440 -140.5h-471v-262h-374zM526 991v-428h451q114 0 180 57t66 158q0 98 -66 155.5t-180 57.5h-451z" />
    <glyph glyph-name="germandbls" unicode="&#xdf;" horiz-adv-x="1792" 
d="M492 0h-369v977q0 289 202.5 461t548.5 172q309 0 477.5 -112.5t168.5 -295.5q0 -122 -76.5 -211t-220.5 -133q252 -24 381 -133.5t129 -284.5q0 -215 -168 -344t-461 -129q-236 0 -483 82v285q239 -94 426 -94q156 0 234.5 57t78.5 158q0 225 -397 225h-154v256h90
q126 0 194 50t68 136q0 98 -82.5 153.5t-224.5 55.5q-170 0 -266 -85.5t-96 -235.5v-1010z" />
    <glyph glyph-name="agrave" unicode="&#xe0;" horiz-adv-x="1665" 
d="M1028 0v154q-82 -82 -202.5 -134.5t-264.5 -52.5q-219 0 -360.5 106t-141.5 283q0 175 139 275.5t363 111.5q37 2 103 2q189 0 305 -38q15 -6 55 -21q-25 232 -389 232q-262 0 -479 -115v270q256 125 565 125q110 0 207 -19t181.5 -60.5t145.5 -102t96 -149.5t35 -197
v-670h-358zM1026 487q-73 41 -283 41q-346 0 -346 -153q0 -71 72.5 -115.5t192.5 -44.5q87 0 168 29t138.5 93t57.5 150zM762 1659l254 -375h-344l-271 375h361z" />
    <glyph glyph-name="aacute" unicode="&#xe1;" horiz-adv-x="1665" 
d="M1028 0v154q-82 -82 -202.5 -134.5t-264.5 -52.5q-219 0 -360.5 106t-141.5 283q0 175 139 275.5t363 111.5q37 2 103 2q189 0 305 -38q15 -6 55 -21q-25 232 -389 232q-262 0 -479 -115v270q256 125 565 125q110 0 207 -19t181.5 -60.5t145.5 -102t96 -149.5t35 -197
v-670h-358zM621 1284l253 375h361l-270 -375h-344zM1026 487q-73 41 -283 41q-346 0 -346 -153q0 -71 72.5 -115.5t192.5 -44.5q87 0 168 29t138.5 93t57.5 150z" />
    <glyph glyph-name="acircumflex" unicode="&#xe2;" horiz-adv-x="1665" 
d="M1028 0v154q-82 -82 -202.5 -134.5t-264.5 -52.5q-219 0 -360.5 106t-141.5 283q0 175 139 275.5t363 111.5q37 2 103 2q189 0 305 -38q15 -6 55 -21q-25 232 -389 232q-262 0 -479 -115v270q256 125 565 125q110 0 207 -19t181.5 -60.5t145.5 -102t96 -149.5t35 -197
v-670h-358zM342 1284l293 375h383l293 -375h-297l-189 193l-186 -193h-297zM1026 487q-73 41 -283 41q-346 0 -346 -153q0 -71 72.5 -115.5t192.5 -44.5q87 0 168 29t138.5 93t57.5 150z" />
    <glyph glyph-name="atilde" unicode="&#xe3;" horiz-adv-x="1665" 
d="M1028 0v154q-82 -82 -202.5 -134.5t-264.5 -52.5q-219 0 -360.5 106t-141.5 283q0 175 139 275.5t363 111.5q37 2 103 2q189 0 305 -38q15 -6 55 -21q-25 232 -389 232q-262 0 -479 -115v270q256 125 565 125q110 0 207 -19t181.5 -60.5t145.5 -102t96 -149.5t35 -197
v-670h-358zM555 1300h-225q9 172 82.5 268.5t208.5 96.5q49 0 105 -17.5t97.5 -38t87 -38t74.5 -17.5q44 0 73 28t38 79h225q-8 -169 -81 -265t-210 -96q-62 0 -134 28t-133 55.5t-97 27.5q-43 0 -72.5 -29.5t-38.5 -81.5zM1026 487q-73 41 -283 41q-346 0 -346 -153
q0 -71 72.5 -115.5t192.5 -44.5q87 0 168 29t138.5 93t57.5 150z" />
    <glyph glyph-name="adieresis" unicode="&#xe4;" horiz-adv-x="1665" 
d="M1028 0v154q-82 -82 -202.5 -134.5t-264.5 -52.5q-219 0 -360.5 106t-141.5 283q0 175 139 275.5t363 111.5q37 2 103 2q189 0 305 -38q15 -6 55 -21q-25 232 -389 232q-262 0 -479 -115v270q256 125 565 125q110 0 207 -19t181.5 -60.5t145.5 -102t96 -149.5t35 -197
v-670h-358zM1026 487q-73 41 -283 41q-346 0 -346 -153q0 -71 72.5 -115.5t192.5 -44.5q87 0 168 29t138.5 93t57.5 150zM518 1292q-95 0 -151 48.5t-56 132.5q0 79 56.5 126.5t150.5 47.5t150.5 -47.5t56.5 -126.5q0 -84 -56 -132.5t-151 -48.5zM1135 1292q-95 0 -151 48.5
t-56 132.5q0 79 56.5 126.5t150.5 47.5q93 0 149.5 -47.5t56.5 -126.5q0 -84 -56.5 -132.5t-149.5 -48.5z" />
    <glyph glyph-name="aring" unicode="&#xe5;" horiz-adv-x="1665" 
d="M1028 0v154q-82 -82 -202.5 -134.5t-264.5 -52.5q-219 0 -360.5 106t-141.5 283q0 175 139 275.5t363 111.5q37 2 103 2q189 0 305 -38q15 -6 55 -21q-25 232 -389 232q-262 0 -479 -115v270q256 125 565 125q110 0 207 -19t181.5 -60.5t145.5 -102t96 -149.5t35 -197
v-670h-358zM825 1264q-170 0 -268 73t-98 199q0 127 97.5 199.5t268.5 72.5q172 0 269.5 -72.5t97.5 -199.5q0 -126 -98 -199t-269 -73zM1026 487q-73 41 -283 41q-346 0 -346 -153q0 -71 72.5 -115.5t192.5 -44.5q87 0 168 29t138.5 93t57.5 150zM825 1419q75 0 116.5 30.5
t41.5 86.5q0 57 -41.5 88t-116.5 31q-74 0 -114.5 -31t-40.5 -88q0 -55 40.5 -86t114.5 -31z" />
    <glyph glyph-name="ae" unicode="&#xe6;" horiz-adv-x="2580" 
d="M1430 0h-271l-14 231q-88 -126 -214.5 -195t-281.5 -69q-257 0 -417 170.5t-160 446.5q0 275 160 444.5t417 169.5q154 0 281.5 -68t214.5 -192l14 229h271l6 -147q172 178 458 178q196 0 338 -90t212 -248.5t63 -365.5h-951q36 -122 148.5 -187t296.5 -65q261 0 475 129
v-234q-235 -170 -518 -170q-164 0 -297 52.5t-223 146.5zM442 584q0 -146 88 -239t226 -93q136 0 249 92t166 240q-53 147 -166 238t-249 91q-138 0 -226 -92t-88 -237zM1866 942q-124 0 -208.5 -64.5t-107.5 -179.5h633q-59 244 -317 244z" />
    <glyph glyph-name="ccedilla" unicode="&#xe7;" horiz-adv-x="1533" 
d="M535 -227l131 200q-271 31 -435.5 197t-164.5 414q0 180 89.5 320t251.5 217t371 77q283 0 479 -142.5t224 -371.5h-367q-24 113 -114.5 175.5t-221.5 62.5q-157 0 -248.5 -90t-91.5 -248q0 -160 91.5 -249t248.5 -89q130 0 220.5 63.5t115.5 171.5h367
q-26 -212 -199 -352t-430 -160l-43 -65q48 10 96 10q133 0 203 -51.5t70 -145.5q0 -97 -94.5 -159t-262.5 -62q-152 0 -258 59.5t-137 157.5h227q43 -61 168 -61q66 0 100.5 19.5t34.5 54.5q0 33 -28.5 52t-87.5 19q-55 0 -113 -24h-192z" />
    <glyph glyph-name="egrave" unicode="&#xe8;" horiz-adv-x="1486" 
d="M791 -33q-208 0 -373 77t-258.5 218.5t-93.5 323.5q0 180 90 320t248.5 216t357.5 76q303 0 479 -196.5t176 -528.5h-956q42 -111 151 -171t275 -60q131 0 262.5 37t236.5 104v-242q-249 -174 -595 -174zM692 1659l254 -375h-344l-270 375h360zM766 932q-123 0 -206 -60
t-111 -163h618q-29 108 -106.5 165.5t-194.5 57.5z" />
    <glyph glyph-name="eacute" unicode="&#xe9;" horiz-adv-x="1486" 
d="M791 -33q-208 0 -373 77t-258.5 218.5t-93.5 323.5q0 180 90 320t248.5 216t357.5 76q303 0 479 -196.5t176 -528.5h-956q42 -111 151 -171t275 -60q131 0 262.5 37t236.5 104v-242q-249 -174 -595 -174zM553 1284l254 375h360l-270 -375h-344zM766 932q-123 0 -206 -60
t-111 -163h618q-29 108 -106.5 165.5t-194.5 57.5z" />
    <glyph glyph-name="ecircumflex" unicode="&#xea;" horiz-adv-x="1486" 
d="M791 -33q-208 0 -373 77t-258.5 218.5t-93.5 323.5q0 180 90 320t248.5 216t357.5 76q303 0 479 -196.5t176 -528.5h-956q42 -111 151 -171t275 -60q131 0 262.5 37t236.5 104v-242q-249 -174 -595 -174zM272 1284l293 375h383l293 -375h-297l-188 193l-187 -193h-297z
M766 932q-123 0 -206 -60t-111 -163h618q-29 108 -106.5 165.5t-194.5 57.5z" />
    <glyph glyph-name="edieresis" unicode="&#xeb;" horiz-adv-x="1486" 
d="M791 -33q-208 0 -373 77t-258.5 218.5t-93.5 323.5q0 180 90 320t248.5 216t357.5 76q303 0 479 -196.5t176 -528.5h-956q42 -111 151 -171t275 -60q131 0 262.5 37t236.5 104v-242q-249 -174 -595 -174zM766 932q-123 0 -206 -60t-111 -163h618q-29 108 -106.5 165.5
t-194.5 57.5zM451 1292q-95 0 -151 48.5t-56 132.5q0 79 56.5 126.5t150.5 47.5t150 -47.5t56 -126.5q0 -84 -56 -132.5t-150 -48.5zM1067 1292q-95 0 -151 48.5t-56 132.5q0 79 56.5 126.5t150.5 47.5q93 0 150 -47.5t57 -126.5q0 -84 -57 -132.5t-150 -48.5z" />
    <glyph glyph-name="igrave" unicode="&#xec;" horiz-adv-x="616" 
d="M125 0v1182h367v-1182h-367zM244 1659l254 -375h-344l-271 375h361z" />
    <glyph glyph-name="iacute" unicode="&#xed;" horiz-adv-x="616" 
d="M125 0v1182h367v-1182h-367zM102 1284l254 375h361l-271 -375h-344z" />
    <glyph glyph-name="icircumflex" unicode="&#xee;" horiz-adv-x="616" 
d="M125 0v1182h367v-1182h-367zM-78 1284l195 375h381l194 -375h-254l-131 197l-133 -197h-252z" />
    <glyph glyph-name="idieresis" unicode="&#xef;" horiz-adv-x="616" 
d="M125 0v1182h367v-1182h-367zM113 1292q-78 0 -123 50.5t-45 136.5q0 87 45 136.5t123 49.5t123 -49.5t45 -136.5q0 -86 -45 -136.5t-123 -50.5zM516 1292q-78 0 -124 50.5t-46 136.5q0 87 45.5 136.5t124.5 49.5q77 0 122.5 -49.5t45.5 -136.5q0 -86 -45.5 -136.5
t-122.5 -50.5z" />
    <glyph glyph-name="eth" unicode="&#xf0;" horiz-adv-x="1599" 
d="M1440 1311l-178 -35q264 -315 264 -666q0 -187 -84 -331.5t-248.5 -228t-388.5 -83.5q-220 0 -389 70t-261 197t-92 292q0 157 86 279t240 189t352 67q225 0 379 -98q-77 131 -184 249l-412 -79v192l248 49q-110 96 -235 178l364 58q106 -80 205 -172l334 65v-192z
M799 246q170 0 267 73.5t97 202.5q0 127 -98 202t-266 75t-265.5 -74.5t-97.5 -202.5q0 -129 97 -202.5t266 -73.5z" />
    <glyph glyph-name="ntilde" unicode="&#xf1;" horiz-adv-x="1585" 
d="M950 1198q249 0 388 -147t139 -402v-649h-369v594q0 148 -73 225.5t-210 77.5q-145 0 -229 -90t-84 -244v-563h-369v1167h369v-202q76 114 189 173.5t249 59.5zM539 1300h-226q9 172 82.5 268.5t208.5 96.5q49 0 105.5 -17.5t98 -38t87 -38t74.5 -17.5q44 0 72.5 28
t37.5 79h226q-8 -169 -81 -265t-210 -96q-62 0 -134 28t-133.5 55.5t-97.5 27.5q-43 0 -72 -29.5t-38 -81.5z" />
    <glyph glyph-name="ograve" unicode="&#xf2;" horiz-adv-x="1601" 
d="M801 -33q-218 0 -385 77t-258.5 217t-91.5 323q0 275 202.5 444.5t532.5 169.5t532.5 -169.5t202.5 -444.5q0 -183 -91.5 -323t-258.5 -217t-385 -77zM737 1659l254 -375h-344l-270 375h360zM801 246q169 0 266.5 90t97.5 248q0 157 -97.5 247.5t-266.5 90.5t-266 -90.5
t-97 -247.5q0 -158 97 -248t266 -90z" />
    <glyph glyph-name="oacute" unicode="&#xf3;" horiz-adv-x="1601" 
d="M801 -33q-218 0 -385 77t-258.5 217t-91.5 323q0 275 202.5 444.5t532.5 169.5t532.5 -169.5t202.5 -444.5q0 -183 -91.5 -323t-258.5 -217t-385 -77zM596 1284l254 375h360l-270 -375h-344zM801 246q169 0 266.5 90t97.5 248q0 157 -97.5 247.5t-266.5 90.5t-266 -90.5
t-97 -247.5q0 -158 97 -248t266 -90z" />
    <glyph glyph-name="ocircumflex" unicode="&#xf4;" horiz-adv-x="1601" 
d="M801 -33q-218 0 -385 77t-258.5 217t-91.5 323q0 275 202.5 444.5t532.5 169.5t532.5 -169.5t202.5 -444.5q0 -183 -91.5 -323t-258.5 -217t-385 -77zM317 1284l293 375h383l293 -375h-297l-188 193l-187 -193h-297zM801 246q169 0 266.5 90t97.5 248q0 157 -97.5 247.5
t-266.5 90.5t-266 -90.5t-97 -247.5q0 -158 97 -248t266 -90z" />
    <glyph glyph-name="otilde" unicode="&#xf5;" horiz-adv-x="1601" 
d="M801 -33q-218 0 -385 77t-258.5 217t-91.5 323q0 275 202.5 444.5t532.5 169.5t532.5 -169.5t202.5 -444.5q0 -183 -91.5 -323t-258.5 -217t-385 -77zM530 1300h-225q9 172 82.5 268.5t208.5 96.5q49 0 105.5 -17.5t98 -38t87 -38t74.5 -17.5q44 0 72.5 28t37.5 79h225
q-8 -169 -80.5 -265t-209.5 -96q-62 0 -134 28t-133.5 55.5t-97.5 27.5q-43 0 -72.5 -29.5t-38.5 -81.5zM801 246q169 0 266.5 90t97.5 248q0 157 -97.5 247.5t-266.5 90.5t-266 -90.5t-97 -247.5q0 -158 97 -248t266 -90z" />
    <glyph glyph-name="odieresis" unicode="&#xf6;" horiz-adv-x="1601" 
d="M801 -33q-218 0 -385 77t-258.5 217t-91.5 323q0 275 202.5 444.5t532.5 169.5t532.5 -169.5t202.5 -444.5q0 -183 -91.5 -323t-258.5 -217t-385 -77zM801 246q169 0 266.5 90t97.5 248q0 157 -97.5 247.5t-266.5 90.5t-266 -90.5t-97 -247.5q0 -158 97 -248t266 -90z
M494 1292q-95 0 -151 48.5t-56 132.5q0 79 56.5 126.5t150.5 47.5t150 -47.5t56 -126.5q0 -84 -56 -132.5t-150 -48.5zM1110 1292q-95 0 -151 48.5t-56 132.5q0 79 56.5 126.5t150.5 47.5q93 0 150 -47.5t57 -126.5q0 -84 -57 -132.5t-150 -48.5z" />
    <glyph glyph-name="divide" unicode="&#xf7;" horiz-adv-x="1269" 
d="M614 137q-76 0 -125 47t-49 121t49 121t125 47t125 -47t49 -121t-49 -121t-125 -47zM61 590v270h1147v-270h-1147zM614 977q-76 0 -125 47t-49 121t49 121t125 47t125 -47t49 -121t-49 -121t-125 -47z" />
    <glyph glyph-name="oslash" unicode="&#xf8;" horiz-adv-x="1601" 
d="M86 -59l174 204q-93 80 -143.5 192.5t-50.5 246.5q0 275 202.5 444.5t532.5 169.5q177 0 317 -49l64 76h334l-175 -203q195 -170 195 -438q0 -183 -91.5 -323t-258.5 -217t-385 -77q-174 0 -316 51l-65 -77h-334zM420 584q0 -117 47 -197l465 545q-62 16 -131 16
q-177 0 -279 -97.5t-102 -266.5zM801 219q178 0 280.5 98t102.5 267q0 113 -47 196l-467 -544q70 -17 131 -17z" />
    <glyph glyph-name="ugrave" unicode="&#xf9;" horiz-adv-x="1560" 
d="M1415 0h-366v199q-75 -112 -185 -171t-243 -59q-242 0 -377 146.5t-135 400.5v651h368v-596q0 -147 68.5 -224t199.5 -77q142 0 223 88.5t81 243.5v565h368v-772zM711 1659l254 -375h-344l-271 375h361z" />
    <glyph glyph-name="uacute" unicode="&#xfa;" horiz-adv-x="1560" 
d="M1415 0h-366v199q-75 -112 -185 -171t-243 -59q-242 0 -377 146.5t-135 400.5v651h368v-596q0 -147 68.5 -224t199.5 -77q142 0 223 88.5t81 243.5v565h368v-772zM569 1284l254 375h361l-271 -375h-344z" />
    <glyph glyph-name="ucircumflex" unicode="&#xfb;" horiz-adv-x="1560" 
d="M1415 0h-366v199q-75 -112 -185 -171t-243 -59q-242 0 -377 146.5t-135 400.5v651h368v-596q0 -147 68.5 -224t199.5 -77q142 0 223 88.5t81 243.5v565h368v-772zM291 1284l293 375h383l293 -375h-297l-189 193l-186 -193h-297z" />
    <glyph glyph-name="udieresis" unicode="&#xfc;" horiz-adv-x="1560" 
d="M1415 0h-366v199q-75 -112 -185 -171t-243 -59q-242 0 -377 146.5t-135 400.5v651h368v-596q0 -147 68.5 -224t199.5 -77q142 0 223 88.5t81 243.5v565h368v-772zM467 1292q-95 0 -151 48.5t-56 132.5q0 79 56.5 126.5t150.5 47.5t150.5 -47.5t56.5 -126.5
q0 -84 -56 -132.5t-151 -48.5zM1083 1292q-94 0 -150 48.5t-56 132.5q0 79 56 126.5t150 47.5q93 0 150 -47.5t57 -126.5q0 -84 -57 -132.5t-150 -48.5z" />
    <glyph glyph-name="yacute" unicode="&#xfd;" horiz-adv-x="1548" 
d="M473 -371q-118 0 -212.5 29.5t-184.5 91.5v260q92 -58 172 -83t174 -25q91 0 154 39.5t104 132.5l4 12h-158l-508 1081h406l360 -850l369 850h391l-575 -1210q-156 -328 -496 -328zM588 1284l254 375h360l-270 -375h-344z" />
    <glyph glyph-name="thorn" unicode="&#xfe;" horiz-adv-x="1648" 
d="M125 -338v1915h367v-662q87 135 217.5 209t291.5 74q257 0 417.5 -169.5t160.5 -444.5q0 -276 -160.5 -446.5t-417.5 -170.5q-160 0 -290.5 75.5t-218.5 211.5v-592h-367zM1208 584q0 145 -87.5 237t-225.5 92q-136 0 -249.5 -91t-166.5 -238q53 -148 166.5 -240
t249.5 -92q138 0 225.5 93t87.5 239z" />
    <glyph glyph-name="ydieresis" unicode="&#xff;" horiz-adv-x="1548" 
d="M473 -371q-118 0 -212.5 29.5t-184.5 91.5v260q92 -58 172 -83t174 -25q91 0 154 39.5t104 132.5l4 12h-158l-508 1081h406l360 -850l369 850h391l-575 -1210q-156 -328 -496 -328zM485 1292q-94 0 -150 48.5t-56 132.5q0 79 56 126.5t150 47.5t150.5 -47.5t56.5 -126.5
q0 -84 -56 -132.5t-151 -48.5zM1102 1292q-95 0 -151 48.5t-56 132.5q0 79 56.5 126.5t150.5 47.5q93 0 150 -47.5t57 -126.5q0 -84 -57 -132.5t-150 -48.5z" />
    <glyph glyph-name="Amacron" unicode="&#x100;" horiz-adv-x="1921" 
d="M719 1536h483l713 -1536h-399l-140 315h-831l-139 -315h-400zM678 616h563l-280 633zM1442 1702h-961v225h961v-225z" />
    <glyph glyph-name="amacron" unicode="&#x101;" horiz-adv-x="1665" 
d="M1028 0v154q-82 -82 -202.5 -134.5t-264.5 -52.5q-219 0 -360.5 106t-141.5 283q0 175 139 275.5t363 111.5q37 2 103 2q189 0 305 -38q15 -6 55 -21q-25 232 -389 232q-262 0 -479 -115v270q256 125 565 125q110 0 207 -19t181.5 -60.5t145.5 -102t96 -149.5t35 -197
v-670h-358zM1026 487q-73 41 -283 41q-346 0 -346 -153q0 -71 72.5 -115.5t192.5 -44.5q87 0 168 29t138.5 93t57.5 150zM1307 1343h-961v228h961v-228z" />
    <glyph glyph-name="Abreve" unicode="&#x102;" horiz-adv-x="1921" 
d="M719 1536h483l713 -1536h-399l-140 315h-831l-139 -315h-400zM678 616h563l-280 633zM465 1995h285q57 -127 208 -127q154 0 211 127h285q-45 -175 -175.5 -266t-320.5 -91t-319 91t-174 266z" />
    <glyph glyph-name="abreve" unicode="&#x103;" horiz-adv-x="1665" 
d="M1028 0v154q-82 -82 -202.5 -134.5t-264.5 -52.5q-219 0 -360.5 106t-141.5 283q0 175 139 275.5t363 111.5q37 2 103 2q189 0 305 -38q15 -6 55 -21q-25 232 -389 232q-262 0 -479 -115v270q256 125 565 125q110 0 207 -19t181.5 -60.5t145.5 -102t96 -149.5t35 -197
v-670h-358zM350 1659h277q15 -76 67.5 -119t130.5 -43q80 0 133 43t68 119h274q-28 -184 -150.5 -285.5t-324.5 -101.5q-200 0 -322.5 101.5t-152.5 285.5zM1026 487q-73 41 -283 41q-346 0 -346 -153q0 -71 72.5 -115.5t192.5 -44.5q87 0 168 29t138.5 93t57.5 150z" />
    <glyph glyph-name="Aogonek" unicode="&#x104;" horiz-adv-x="1921" 
d="M719 1536h483l713 -1536q-248 -71 -248 -147q0 -58 125 -58q70 0 123 12v-202q-30 -11 -90.5 -20t-120.5 -9q-138 0 -222.5 54t-84.5 143q0 143 217 227h-98l-140 315h-831l-139 -315h-400zM678 616h563l-280 633z" />
    <glyph glyph-name="aogonek" unicode="&#x105;" horiz-adv-x="1665" 
d="M1028 0v154q-82 -82 -202.5 -134.5t-264.5 -52.5q-219 0 -360.5 106t-141.5 283q0 175 139 275.5t363 111.5q37 2 103 2q189 0 305 -38q15 -6 55 -21q-25 232 -389 232q-262 0 -479 -115v270q256 125 565 125q110 0 207 -19t181.5 -60.5t145.5 -102t96 -149.5t35 -197
v-670h3q-248 -71 -248 -147q0 -58 125 -58q70 0 123 12v-202q-30 -11 -90.5 -20t-120.5 -9q-138 0 -223 54t-85 143q0 143 217 227h-59zM1026 487q-73 41 -283 41q-346 0 -346 -153q0 -71 72.5 -115.5t192.5 -44.5q87 0 168 29t138.5 93t57.5 150z" />
    <glyph glyph-name="Cacute" unicode="&#x106;" horiz-adv-x="1898" 
d="M1454 631h377q-34 -298 -270.5 -481t-595.5 -183q-262 0 -463 100t-310.5 282t-109.5 419t109.5 419t310.5 282t463 100q359 0 595.5 -183t270.5 -481h-377q-31 158 -160 248t-331 90q-233 0 -368.5 -127.5t-135.5 -347.5t135.5 -347.5t368.5 -127.5q204 0 332 88
t159 250zM725 1653l301 336h422l-350 -336h-373z" />
    <glyph glyph-name="cacute" unicode="&#x107;" horiz-adv-x="1533" 
d="M1114 481h367q-28 -228 -224 -371t-479 -143q-209 0 -371 77.5t-251.5 218t-89.5 321.5q0 180 89.5 320t251.5 217t371 77q283 0 479 -142.5t224 -371.5h-367q-24 113 -114.5 175.5t-221.5 62.5q-157 0 -248.5 -90t-91.5 -248q0 -160 91.5 -249t248.5 -89
q130 0 220.5 63.5t115.5 171.5zM575 1284l254 375h361l-270 -375h-345z" />
    <glyph glyph-name="Ccircumflex" unicode="&#x108;" horiz-adv-x="1898" 
d="M1454 631h377q-34 -298 -270.5 -481t-595.5 -183q-262 0 -463 100t-310.5 282t-109.5 419t109.5 419t310.5 282t463 100q359 0 595.5 -183t270.5 -481h-377q-31 158 -160 248t-331 90q-233 0 -368.5 -127.5t-135.5 -347.5t135.5 -347.5t368.5 -127.5q204 0 332 88
t159 250zM451 1653l307 336h395l309 -336h-311l-195 149l-196 -149h-309z" />
    <glyph glyph-name="ccircumflex" unicode="&#x109;" horiz-adv-x="1533" 
d="M1114 481h367q-28 -228 -224 -371t-479 -143q-209 0 -371 77.5t-251.5 218t-89.5 321.5q0 180 89.5 320t251.5 217t371 77q283 0 479 -142.5t224 -371.5h-367q-24 113 -114.5 175.5t-221.5 62.5q-157 0 -248.5 -90t-91.5 -248q0 -160 91.5 -249t248.5 -89
q130 0 220.5 63.5t115.5 171.5zM297 1284l293 375h383l293 -375h-297l-189 193l-186 -193h-297z" />
    <glyph glyph-name="Cdotaccent" unicode="&#x10a;" horiz-adv-x="1898" 
d="M1454 631h377q-34 -298 -270.5 -481t-595.5 -183q-262 0 -463 100t-310.5 282t-109.5 419t109.5 419t310.5 282t463 100q359 0 595.5 -183t270.5 -481h-377q-31 158 -160 248t-331 90q-233 0 -368.5 -127.5t-135.5 -347.5t135.5 -347.5t368.5 -127.5q204 0 332 88
t159 250zM956 1663q-100 0 -160.5 50t-60.5 136q0 85 60.5 136t160.5 51q99 0 159.5 -51.5t60.5 -135.5q0 -85 -60.5 -135.5t-159.5 -50.5z" />
    <glyph glyph-name="cdotaccent" unicode="&#x10b;" horiz-adv-x="1533" 
d="M1114 481h367q-28 -228 -224 -371t-479 -143q-209 0 -371 77.5t-251.5 218t-89.5 321.5q0 180 89.5 320t251.5 217t371 77q283 0 479 -142.5t224 -371.5h-367q-24 113 -114.5 175.5t-221.5 62.5q-157 0 -248.5 -90t-91.5 -248q0 -160 91.5 -249t248.5 -89
q130 0 220.5 63.5t115.5 171.5zM780 1292q-100 0 -160.5 51t-60.5 136t60.5 135.5t160.5 50.5q99 0 159 -51t60 -135q0 -85 -60.5 -136t-158.5 -51z" />
    <glyph glyph-name="Ccaron" unicode="&#x10c;" horiz-adv-x="1898" 
d="M1454 631h377q-34 -298 -270.5 -481t-595.5 -183q-262 0 -463 100t-310.5 282t-109.5 419t109.5 419t310.5 282t463 100q359 0 595.5 -183t270.5 -481h-377q-31 158 -160 248t-331 90q-233 0 -368.5 -127.5t-135.5 -347.5t135.5 -347.5t368.5 -127.5q204 0 332 88
t159 250zM1462 1989l-307 -336h-395l-309 336h311l194 -150l197 150h309z" />
    <glyph glyph-name="ccaron" unicode="&#x10d;" horiz-adv-x="1533" 
d="M1114 481h367q-28 -228 -224 -371t-479 -143q-209 0 -371 77.5t-251.5 218t-89.5 321.5q0 180 89.5 320t251.5 217t371 77q283 0 479 -142.5t224 -371.5h-367q-24 113 -114.5 175.5t-221.5 62.5q-157 0 -248.5 -90t-91.5 -248q0 -160 91.5 -249t248.5 -89
q130 0 220.5 63.5t115.5 171.5zM1266 1659l-293 -375h-383l-293 375h297l188 -193l187 193h297z" />
    <glyph glyph-name="Dcaron" unicode="&#x10e;" horiz-adv-x="1875" 
d="M152 1536h743q267 0 471.5 -95.5t317 -270t112.5 -402.5t-112.5 -402.5t-317 -270t-471.5 -95.5h-743v1536zM1386 1989l-307 -336h-395l-309 336h311l195 -150l196 150h309zM524 1204v-872h398q227 0 361 118.5t134 317.5t-134 317.5t-361 118.5h-398z" />
    <glyph glyph-name="dcaron" unicode="&#x10f;" horiz-adv-x="1705" 
d="M1522 1577v-1577h-367v248q-88 -134 -217.5 -207.5t-288.5 -73.5q-257 0 -417 170.5t-160 446.5q0 275 160 444.5t417 169.5q158 0 288.5 -72t217.5 -204v655h367zM442 584q0 -146 88 -239t226 -93q136 0 249 92t166 240q-53 147 -166 238t-249 91q-138 0 -226 -92
t-88 -237zM1686 1290l51 412h323l-118 -412h-256z" />
    <glyph glyph-name="Dcroat" unicode="&#x110;" horiz-adv-x="1933" 
d="M55 643v254h154v639h743q267 0 471.5 -95.5t317 -270t112.5 -402.5t-112.5 -402.5t-317 -270t-471.5 -95.5h-743v643h-154zM582 1204v-307h372v-254h-372v-311h397q227 0 361.5 119t134.5 317t-134.5 317t-361.5 119h-397z" />
    <glyph glyph-name="dcroat" unicode="&#x111;" horiz-adv-x="1648" 
d="M1524 0h-367v240q-88 -130 -218 -201.5t-290 -71.5q-256 0 -416.5 163.5t-160.5 426.5t160.5 426.5t416.5 163.5q160 0 290.5 -69.5t217.5 -198.5v354h-573v223h573v121h367v-121h151v-223h-151v-1233zM756 252q136 0 249 84.5t166 220.5q-53 137 -166 221t-249 84
q-138 0 -226 -85t-88 -220q0 -134 88 -219.5t226 -85.5z" />
    <glyph glyph-name="Emacron" unicode="&#x112;" horiz-adv-x="1605" 
d="M479 627v-320h1024v-307h-1399v1536h1389v-307h-1014v-320h957v-282h-957zM1290 1702h-960v225h960v-225z" />
    <glyph glyph-name="emacron" unicode="&#x113;" horiz-adv-x="1486" 
d="M791 -33q-208 0 -373 77t-258.5 218.5t-93.5 323.5q0 180 90 320t248.5 216t357.5 76q303 0 479 -196.5t176 -528.5h-956q42 -111 151 -171t275 -60q131 0 262.5 37t236.5 104v-242q-249 -174 -595 -174zM766 932q-123 0 -206 -60t-111 -163h618q-29 108 -106.5 165.5
t-194.5 57.5zM1239 1343h-960v228h960v-228z" />
    <glyph glyph-name="Ebreve" unicode="&#x114;" horiz-adv-x="1605" 
d="M479 627v-320h1024v-307h-1399v1536h1389v-307h-1014v-320h957v-282h-957zM315 1995h285q57 -127 209 -127q154 0 211 127h285q-45 -175 -175.5 -266t-320.5 -91t-319.5 91t-174.5 266z" />
    <glyph glyph-name="ebreve" unicode="&#x115;" horiz-adv-x="1486" 
d="M791 -33q-208 0 -373 77t-258.5 218.5t-93.5 323.5q0 180 90 320t248.5 216t357.5 76q303 0 479 -196.5t176 -528.5h-956q42 -111 151 -171t275 -60q131 0 262.5 37t236.5 104v-242q-249 -174 -595 -174zM283 1659h276q15 -76 68 -119t131 -43q79 0 132 42.5t68 119.5
h275q-28 -184 -150.5 -285.5t-324.5 -101.5q-200 0 -322.5 101.5t-152.5 285.5zM766 932q-123 0 -206 -60t-111 -163h618q-29 108 -106.5 165.5t-194.5 57.5z" />
    <glyph glyph-name="Edotaccent" unicode="&#x116;" horiz-adv-x="1605" 
d="M479 627v-320h1024v-307h-1399v1536h1389v-307h-1014v-320h957v-282h-957zM811 1663q-100 0 -160.5 50t-60.5 136q0 85 60.5 136t160.5 51q98 0 158.5 -51t60.5 -136q0 -86 -60 -136t-159 -50z" />
    <glyph glyph-name="edotaccent" unicode="&#x117;" horiz-adv-x="1486" 
d="M791 -33q-208 0 -373 77t-258.5 218.5t-93.5 323.5q0 180 90 320t248.5 216t357.5 76q303 0 479 -196.5t176 -528.5h-956q42 -111 151 -171t275 -60q131 0 262.5 37t236.5 104v-242q-249 -174 -595 -174zM766 932q-123 0 -206 -60t-111 -163h618q-29 108 -106.5 165.5
t-194.5 57.5zM758 1292q-100 0 -160.5 51t-60.5 136t60.5 135.5t160.5 50.5q99 0 159 -51t60 -135q0 -85 -60.5 -136t-158.5 -51z" />
    <glyph glyph-name="Eogonek" unicode="&#x118;" horiz-adv-x="1605" 
d="M479 627v-320h1024v-307q-248 -71 -248 -147q0 -58 125 -58q70 0 123 12v-202q-30 -11 -90.5 -20t-120.5 -9q-138 0 -222.5 54t-84.5 143q0 143 217 227h-1098v1536h1389v-307h-1014v-320h957v-282h-957z" />
    <glyph glyph-name="eogonek" unicode="&#x119;" horiz-adv-x="1486" 
d="M1149 -424q-147 0 -236.5 53t-89.5 140q0 66 43 119.5t140 103.5q-112 -25 -215 -25q-208 0 -373 77t-258.5 218.5t-93.5 323.5q0 180 90 320t248.5 216t357.5 76q304 0 479.5 -194.5t175.5 -528.5h-950q37 -112 146 -172.5t274 -60.5q278 0 499 141v-242
q-65 -45 -98 -63q-88 -52 -134 -105t-46 -100q0 -78 129 -78q67 0 123 12v-202q-30 -11 -90.5 -20t-120.5 -9zM451 707h614q-26 106 -104.5 165.5t-192.5 59.5q-126 0 -209 -60.5t-108 -164.5z" />
    <glyph glyph-name="Ecaron" unicode="&#x11a;" horiz-adv-x="1605" 
d="M479 627v-320h1024v-307h-1399v1536h1389v-307h-1014v-320h957v-282h-957zM1317 1989l-307 -336h-396l-309 336h311l195 -150l197 150h309z" />
    <glyph glyph-name="ecaron" unicode="&#x11b;" horiz-adv-x="1486" 
d="M791 -33q-208 0 -373 77t-258.5 218.5t-93.5 323.5q0 180 90 320t248.5 216t357.5 76q303 0 479 -196.5t176 -528.5h-956q42 -111 151 -171t275 -60q131 0 262.5 37t236.5 104v-242q-249 -174 -595 -174zM1241 1659l-293 -375h-383l-293 375h297l189 -193l186 193h297z
M766 932q-123 0 -206 -60t-111 -163h618q-29 108 -106.5 165.5t-194.5 57.5z" />
    <glyph glyph-name="Gcircumflex" unicode="&#x11c;" horiz-adv-x="1961" 
d="M997 274q181 0 313 62.5t195 177.5h-463v268h801v-782h-266l-18 229q-99 -123 -254.5 -192.5t-360.5 -69.5q-181 0 -338 54.5t-273.5 155.5t-183.5 253.5t-67 337.5q0 186 67 338t185.5 253t280 155.5t350.5 54.5q241 0 428 -78t296 -212t140 -310h-377q-32 132 -162 208
t-325 76q-236 0 -371 -126.5t-135 -358.5q0 -236 143.5 -365t394.5 -129zM459 1653l307 336h395l309 -336h-311l-194 149l-197 -149h-309z" />
    <glyph glyph-name="gcircumflex" unicode="&#x11d;" horiz-adv-x="1642" 
d="M635 113q-161 0 -290 67t-203 191t-74 284t74 284.5t203 191.5t290 67t294 -68t226 -176v213h369v-856q0 -214 -98.5 -369.5t-273.5 -234t-407 -78.5q-159 0 -295 41t-268 127v285q232 -180 541 -180q432 0 432 389v55q-92 -105 -225 -169t-295 -64zM340 1284l293 375
h383l293 -375h-297l-189 193l-186 -193h-297zM758 369q264 0 409 286q-147 289 -409 289q-149 0 -235.5 -78.5t-86.5 -210.5q0 -131 85 -208.5t237 -77.5z" />
    <glyph glyph-name="Gbreve" unicode="&#x11e;" horiz-adv-x="1961" 
d="M997 274q181 0 313 62.5t195 177.5h-463v268h801v-782h-266l-18 229q-99 -123 -254.5 -192.5t-360.5 -69.5q-181 0 -338 54.5t-273.5 155.5t-183.5 253.5t-67 337.5q0 186 67 338t185.5 253t280 155.5t350.5 54.5q241 0 428 -78t296 -212t140 -310h-377q-32 132 -162 208
t-325 76q-236 0 -371 -126.5t-135 -358.5q0 -236 143.5 -365t394.5 -129zM471 1995h285q57 -127 209 -127q154 0 211 127h284q-45 -175 -175 -266t-320 -91t-319.5 91t-174.5 266z" />
    <glyph glyph-name="gbreve" unicode="&#x11f;" horiz-adv-x="1642" 
d="M635 113q-161 0 -290 67t-203 191t-74 284t74 284.5t203 191.5t290 67t294 -68t226 -176v213h369v-856q0 -214 -98.5 -369.5t-273.5 -234t-407 -78.5q-159 0 -295 41t-268 127v285q232 -180 541 -180q432 0 432 389v55q-92 -105 -225 -169t-295 -64zM348 1659h277
q15 -76 67.5 -119t130.5 -43q80 0 133 43t68 119h274q-28 -184 -150.5 -285.5t-324.5 -101.5q-200 0 -322.5 101.5t-152.5 285.5zM758 369q264 0 409 286q-147 289 -409 289q-149 0 -235.5 -78.5t-86.5 -210.5q0 -131 85 -208.5t237 -77.5z" />
    <glyph glyph-name="Gdotaccent" unicode="&#x120;" horiz-adv-x="1961" 
d="M997 274q181 0 313 62.5t195 177.5h-463v268h801v-782h-266l-18 229q-99 -123 -254.5 -192.5t-360.5 -69.5q-181 0 -338 54.5t-273.5 155.5t-183.5 253.5t-67 337.5q0 186 67 338t185.5 253t280 155.5t350.5 54.5q241 0 428 -78t296 -212t140 -310h-377q-32 132 -162 208
t-325 76q-236 0 -371 -126.5t-135 -358.5q0 -236 143.5 -365t394.5 -129zM967 1663q-101 0 -161.5 50t-60.5 136q0 85 61 136t161 51q98 0 158.5 -51t60.5 -136q0 -86 -60 -136t-159 -50z" />
    <glyph glyph-name="gdotaccent" unicode="&#x121;" horiz-adv-x="1642" 
d="M635 113q-161 0 -290 67t-203 191t-74 284t74 284.5t203 191.5t290 67t294 -68t226 -176v213h369v-856q0 -214 -98.5 -369.5t-273.5 -234t-407 -78.5q-159 0 -295 41t-268 127v285q232 -180 541 -180q432 0 432 389v55q-92 -105 -225 -169t-295 -64zM758 369
q264 0 409 286q-147 289 -409 289q-149 0 -235.5 -78.5t-86.5 -210.5q0 -131 85 -208.5t237 -77.5zM823 1292q-100 0 -160.5 51t-60.5 136t60.5 135.5t160.5 50.5q99 0 159 -51t60 -135q0 -85 -60.5 -136t-158.5 -51z" />
    <glyph glyph-name="uni0122" unicode="&#x122;" horiz-adv-x="1961" 
d="M997 274q181 0 313 62.5t195 177.5h-463v268h801v-782h-266l-18 229q-99 -123 -254.5 -192.5t-360.5 -69.5q-181 0 -338 54.5t-273.5 155.5t-183.5 253.5t-67 337.5q0 186 67 338t185.5 253t280 155.5t350.5 54.5q241 0 428 -78t296 -212t140 -310h-377q-32 132 -162 208
t-325 76q-236 0 -371 -126.5t-135 -358.5q0 -236 143.5 -365t394.5 -129zM971 -600h-180l118 197q-61 15 -96 55t-35 96q0 72 55.5 116t147.5 44t147.5 -45t55.5 -117q0 -50 -22 -90t-91 -129z" />
    <glyph glyph-name="uni0123" unicode="&#x123;" horiz-adv-x="1642" 
d="M635 113q-161 0 -290 67t-203 191t-74 284t74 284.5t203 191.5t290 67t294 -68t226 -176v213h369v-856q0 -214 -98.5 -369.5t-273.5 -234t-407 -78.5q-159 0 -295 41t-268 127v285q232 -180 541 -180q432 0 432 389v55q-92 -105 -225 -169t-295 -64zM840 1780h180
l-119 -197q61 -15 96 -55t35 -96q0 -72 -55.5 -116t-147.5 -44t-147 45t-55 117q0 51 22 91t90 128zM758 369q264 0 409 286q-147 289 -409 289q-149 0 -235.5 -78.5t-86.5 -210.5q0 -131 85 -208.5t237 -77.5z" />
    <glyph glyph-name="Hcircumflex" unicode="&#x124;" horiz-adv-x="1900" 
d="M152 0v1536h374v-594h850v594h373v-1536h-373v614h-850v-614h-374zM444 1653l308 336h395l309 -336h-311l-195 149l-196 -149h-310z" />
    <glyph glyph-name="hcircumflex" unicode="&#x125;" horiz-adv-x="1564" 
d="M125 0v1577h367v-612q76 114 189.5 173.5t250.5 59.5q247 0 385.5 -147t138.5 -402v-649h-366v594q0 148 -73 225.5t-210 77.5q-146 0 -230.5 -90t-84.5 -244v-563h-367zM332 1694l293 374h383l292 -374h-296l-189 192l-186 -192h-297z" />
    <glyph glyph-name="Hbar" unicode="&#x126;" horiz-adv-x="1972" 
d="M186 0v1116h-141v256h141v164h375v-164h850v164h373v-164h143v-256h-143v-1116h-373v584h-850v-584h-375zM561 897h850v219h-850v-219z" />
    <glyph glyph-name="hbar" unicode="&#x127;" horiz-adv-x="1564" 
d="M-27 1233v223h152v121h367v-121h581v-223h-581v-320q76 114 190 174t250 60q247 0 385.5 -147t138.5 -402v-598h-366v543q0 147 -73 225t-210 78q-146 0 -230.5 -90t-84.5 -244v-512h-367v1233h-152z" />
    <glyph glyph-name="Itilde" unicode="&#x128;" horiz-adv-x="677" 
d="M152 0v1536h374v-1536h-374zM133 1663h-188q8 152 71 238t177 86q44 0 85 -17t66.5 -37.5t56.5 -37.5t58 -17q69 0 88 107h186q-8 -153 -70.5 -239.5t-175.5 -86.5q-44 0 -85.5 17t-67 37t-56.5 37t-57 17q-72 0 -88 -104z" />
    <glyph glyph-name="itilde" unicode="&#x129;" horiz-adv-x="616" 
d="M125 0v1182h367v-1182h-367zM104 1305h-188q8 167 70.5 259.5t177.5 92.5q44 0 85 -17t66.5 -37.5t56.5 -37.5t58 -17q69 0 88 107h187q-8 -166 -70.5 -259t-175.5 -93q-44 0 -85.5 17t-67 37t-56.5 37t-57 17q-73 0 -89 -106z" />
    <glyph glyph-name="Imacron" unicode="&#x12a;" horiz-adv-x="677" 
d="M152 0v1536h374v-1536h-374zM711 1700h-744v227h744v-227z" />
    <glyph glyph-name="imacron" unicode="&#x12b;" horiz-adv-x="616" 
d="M125 0v1182h367v-1182h-367zM655 1343h-694v228h694v-228z" />
    <glyph glyph-name="Ibreve" unicode="&#x12c;" horiz-adv-x="677" 
d="M152 0v1536h374v-1536h-374zM-68 1989h261q23 -142 147 -142q62 0 99 37.5t48 104.5h258q-17 -161 -125 -256t-280 -95t-281.5 95t-126.5 256z" />
    <glyph glyph-name="ibreve" unicode="&#x12d;" horiz-adv-x="616" 
d="M125 0v1182h367v-1182h-367zM-82 1659h246q11 -72 48.5 -114t94.5 -42q58 0 95.5 41.5t48.5 114.5h245q-15 -179 -118.5 -283t-270.5 -104q-165 0 -269.5 104t-119.5 283z" />
    <glyph glyph-name="Iogonek" unicode="&#x12e;" horiz-adv-x="677" 
d="M152 0v1536h374v-1536q-92 -36 -139 -71t-47 -76q0 -58 111 -58q67 0 116 12v-202q-26 -11 -86.5 -20t-120.5 -9q-137 0 -220 53t-83 142q0 141 217 229h-122z" />
    <glyph glyph-name="iogonek" unicode="&#x12f;" horiz-adv-x="616" 
d="M125 0v1182h367v-1182q-191 -73 -191 -147q0 -58 105 -58q68 0 120 12v-202q-28 -11 -89 -20t-122 -9q-133 0 -216 53t-83 140q0 74 55.5 129t170.5 102h-117zM309 1292q-100 0 -160.5 51t-60.5 136t60.5 135.5t160.5 50.5q99 0 159 -51t60 -135q0 -85 -60.5 -136
t-158.5 -51z" />
    <glyph glyph-name="Idotaccent" unicode="&#x130;" horiz-adv-x="677" 
d="M152 0v1536h374v-1536h-374zM340 1663q-100 0 -160.5 50t-60.5 136q0 85 60.5 136t160.5 51q98 0 158.5 -51t60.5 -136q0 -86 -60 -136t-159 -50z" />
    <glyph glyph-name="dotlessi" unicode="&#x131;" horiz-adv-x="616" 
d="M125 0v1182h367v-1182h-367z" />
    <glyph glyph-name="IJ" unicode="&#x132;" horiz-adv-x="1714" 
d="M123 623l-2 86h368v-58q0 -180 85 -271t272 -91q360 0 360 334v913h373v-930q0 -301 -199.5 -470t-533.5 -169q-217 0 -378.5 76.5t-251.5 225.5t-93 354zM119 844v692h373v-692h-373z" />
    <glyph glyph-name="ij" unicode="&#x133;" horiz-adv-x="1232" 
d="M125 0v1182h367v-1182h-367zM1200 1182v-1078q0 -224 -130.5 -349.5t-401.5 -125.5q-100 0 -199 20t-164 48v280q124 -59 281 -59q138 0 193 53t55 185v1026h366zM309 1292q-100 0 -160.5 51t-60.5 136t60.5 135.5t160.5 50.5q99 0 159 -51t60 -135q0 -85 -60.5 -136
t-158.5 -51zM1018 1292q-100 0 -160.5 51t-60.5 136t60.5 135.5t160.5 50.5q99 0 159 -51t60 -135q0 -85 -60.5 -136t-158.5 -51z" />
    <glyph glyph-name="Jcircumflex" unicode="&#x134;" 
d="M43 664l-2 86h367v-58q0 -198 85 -298.5t271 -100.5q360 0 360 371v872h375v-889q0 -320 -200.5 -500t-534.5 -180q-329 0 -525 185t-196 512zM895 1653l225 336h383l226 -336h-267l-151 162l-152 -162h-264z" />
    <glyph glyph-name="jcircumflex" unicode="&#x135;" horiz-adv-x="616" 
d="M492 1182v-1078q0 -224 -131 -349.5t-402 -125.5q-100 0 -198.5 20t-163.5 48v280q124 -59 280 -59q138 0 193 53t55 185v1026h367zM-57 1284l194 375h381l195 -375h-254l-131 197l-133 -197h-252z" />
    <glyph glyph-name="uni0136" unicode="&#x136;" horiz-adv-x="1755" 
d="M524 0h-372v1536h372v-594h361l499 594h418l-631 -731l654 -805h-447l-489 614h-365v-614zM909 -600h-180l119 197q-61 15 -96 55t-35 96q0 72 55.5 116t147.5 44t147 -45t55 -117q0 -51 -22 -91t-90 -128z" />
    <glyph glyph-name="uni0137" unicode="&#x137;" horiz-adv-x="1482" 
d="M492 0h-367v1577h367v-844h233l365 434h405l-487 -553l520 -614h-428l-373 457h-235v-457zM778 -600h-180l119 197q-61 15 -96 55t-35 96q0 72 55 116t147 44t147.5 -45t55.5 -117q0 -51 -22 -91t-90 -128z" />
    <glyph glyph-name="kgreenlandic" unicode="&#x138;" horiz-adv-x="1480" 
d="M123 1167h369v-702l575 702h395l-405 -471l438 -696h-420l-254 424l-366 -424h-332v1167z" />
    <glyph glyph-name="Lacute" unicode="&#x139;" horiz-adv-x="1546" 
d="M152 1536h374v-1204h983v-332h-1357v1536zM109 1653l301 336h421l-350 -336h-372z" />
    <glyph glyph-name="lacute" unicode="&#x13a;" horiz-adv-x="616" 
d="M125 0v1577h367v-1577h-367zM102 1694l254 374h361l-271 -374h-344z" />
    <glyph glyph-name="uni013B" unicode="&#x13b;" horiz-adv-x="1546" 
d="M152 1536h374v-1204h983v-332h-1357v1536zM854 -600h-180l119 197q-61 15 -96 55t-35 96q0 72 55 116t147 44t147.5 -45t55.5 -117q0 -50 -22 -90t-91 -129z" />
    <glyph glyph-name="uni013C" unicode="&#x13c;" horiz-adv-x="616" 
d="M125 0v1577h367v-1577h-367zM297 -600h-180l119 197q-61 15 -96.5 55t-35.5 96q0 72 55.5 116t147.5 44t147.5 -45t55.5 -117q0 -50 -22 -90t-91 -129z" />
    <glyph glyph-name="Lcaron" unicode="&#x13d;" horiz-adv-x="1548" 
d="M152 1536h374v-1204h983v-332h-1357v1536zM776 1055l58 481h323l-125 -481h-256z" />
    <glyph glyph-name="lcaron" unicode="&#x13e;" horiz-adv-x="653" 
d="M125 0v1577h367v-1577h-367zM575 1290l52 412h323l-119 -412h-256z" />
    <glyph glyph-name="Ldot" unicode="&#x13f;" horiz-adv-x="1550" 
d="M152 1536h374v-1204h983v-332h-1357v1536zM1114 719q-94 0 -157.5 63.5t-63.5 157.5t63.5 156.5t157.5 62.5t157.5 -62.5t63.5 -156.5t-63.5 -157.5t-157.5 -63.5z" />
    <glyph glyph-name="ldot" unicode="&#x140;" horiz-adv-x="995" 
d="M125 0v1577h367v-1577h-367zM805 594q-90 0 -151.5 61.5t-61.5 151.5q0 89 62 151t151 62t151 -62t62 -151q0 -90 -61.5 -151.5t-151.5 -61.5z" />
    <glyph glyph-name="Lslash" unicode="&#x141;" horiz-adv-x="1624" 
d="M227 1536h375v-512l488 129v-258l-488 -129v-434h983v-332h-1358v666l-153 -41v260l153 41v610z" />
    <glyph glyph-name="lslash" unicode="&#x142;" horiz-adv-x="831" 
d="M61 631v252l172 51v643h367v-533l174 52v-252l-174 -51v-793h-367v682z" />
    <glyph glyph-name="Nacute" unicode="&#x143;" horiz-adv-x="1966" 
d="M637 1536l815 -1114v1114h363v-1536h-472l-829 1137v-1137h-362v1536h485zM780 1653l301 336h422l-350 -336h-373z" />
    <glyph glyph-name="nacute" unicode="&#x144;" horiz-adv-x="1585" 
d="M950 1198q249 0 388 -147t139 -402v-649h-369v594q0 148 -73 225.5t-210 77.5q-145 0 -229 -90t-84 -244v-563h-369v1167h369v-202q76 114 189 173.5t249 59.5zM604 1284l254 375h361l-271 -375h-344z" />
    <glyph glyph-name="uni0145" unicode="&#x145;" horiz-adv-x="1966" 
d="M637 1536l815 -1114v1114h363v-1536h-472l-829 1137v-1137h-362v1536h485zM975 -600h-180l118 197q-61 15 -96 55t-35 96q0 72 55.5 116t147.5 44t147.5 -45t55.5 -117q0 -50 -22 -90t-91 -129z" />
    <glyph glyph-name="uni0146" unicode="&#x146;" horiz-adv-x="1585" 
d="M950 1198q249 0 388 -147t139 -402v-649h-369v594q0 148 -73 225.5t-210 77.5q-145 0 -229 -90t-84 -244v-563h-369v1167h369v-202q76 114 189 173.5t249 59.5zM799 -600h-181l119 197q-61 15 -96 55t-35 96q0 72 55.5 116t147.5 44t147.5 -45t55.5 -117q0 -50 -22 -90
t-91 -129z" />
    <glyph glyph-name="Ncaron" unicode="&#x147;" horiz-adv-x="1966" 
d="M637 1536l815 -1114v1114h363v-1536h-472l-829 1137v-1137h-362v1536h485zM1516 1989l-308 -336h-395l-309 336h311l195 -150l196 150h310z" />
    <glyph glyph-name="ncaron" unicode="&#x148;" horiz-adv-x="1585" 
d="M950 1198q249 0 388 -147t139 -402v-649h-369v594q0 148 -73 225.5t-210 77.5q-145 0 -229 -90t-84 -244v-563h-369v1167h369v-202q76 114 189 173.5t249 59.5zM1294 1659l-293 -375h-383l-292 375h297l188 -193l186 193h297z" />
    <glyph glyph-name="napostrophe" unicode="&#x149;" horiz-adv-x="1988" 
d="M1356 1198q249 0 387.5 -147t138.5 -402v-649h-369v594q0 149 -72.5 226t-209.5 77q-145 0 -229 -90t-84 -244v-563h-369v1167h369v-202q76 114 189 173.5t249 59.5zM174 872h-180l133 285q-60 23 -96.5 76t-36.5 117q0 86 61.5 146t149.5 60t149.5 -61.5t61.5 -151.5
q0 -56 -26.5 -119t-92.5 -161z" />
    <glyph glyph-name="Eng" unicode="&#x14a;" horiz-adv-x="1873" 
d="M152 0v1536h374v-258q187 291 574 291q297 0 467 -162t170 -442v-871q0 -218 -135 -341.5t-406 -123.5q-192 0 -348 62v284q127 -57 289 -57q120 0 172.5 50.5t52.5 166.5v744q0 173 -102 264.5t-297 91.5q-204 0 -320.5 -103.5t-116.5 -281.5v-850h-374z" />
    <glyph glyph-name="eng" unicode="&#x14b;" horiz-adv-x="1585" 
d="M950 1198q249 0 388 -147t139 -402v-547q0 -212 -124 -342.5t-345 -130.5q-162 0 -295 70v276q112 -59 221 -59q97 0 135.5 43t38.5 150v485q0 148 -73 225.5t-210 77.5q-145 0 -229 -90t-84 -244v-563h-369v1167h369v-202q76 114 189 173.5t249 59.5z" />
    <glyph glyph-name="Omacron" unicode="&#x14c;" horiz-adv-x="1964" 
d="M983 -33q-268 0 -473 100t-317.5 282t-112.5 419t112.5 419t317.5 282t473 100q267 0 471.5 -100t317 -282t112.5 -419t-112.5 -419t-317 -282t-471.5 -100zM983 301q242 0 383 126t141 341t-141 341t-383 126q-243 0 -383.5 -125.5t-140.5 -341.5t140.5 -341.5
t383.5 -125.5zM1462 1702h-960v225h960v-225z" />
    <glyph glyph-name="omacron" unicode="&#x14d;" horiz-adv-x="1601" 
d="M801 -33q-218 0 -385 77t-258.5 217t-91.5 323q0 275 202.5 444.5t532.5 169.5t532.5 -169.5t202.5 -444.5q0 -183 -91.5 -323t-258.5 -217t-385 -77zM801 246q169 0 266.5 90t97.5 248q0 157 -97.5 247.5t-266.5 90.5t-266 -90.5t-97 -247.5q0 -158 97 -248t266 -90z
M1282 1343h-960v228h960v-228z" />
    <glyph glyph-name="Obreve" unicode="&#x14e;" horiz-adv-x="1964" 
d="M983 -33q-268 0 -473 100t-317.5 282t-112.5 419t112.5 419t317.5 282t473 100q267 0 471.5 -100t317 -282t112.5 -419t-112.5 -419t-317 -282t-471.5 -100zM983 301q242 0 383 126t141 341t-141 341t-383 126q-243 0 -383.5 -125.5t-140.5 -341.5t140.5 -341.5
t383.5 -125.5zM487 1995h285q57 -127 209 -127q154 0 211 127h285q-45 -175 -175.5 -266t-320.5 -91t-319.5 91t-174.5 266z" />
    <glyph glyph-name="obreve" unicode="&#x14f;" horiz-adv-x="1601" 
d="M801 -33q-218 0 -385 77t-258.5 217t-91.5 323q0 275 202.5 444.5t532.5 169.5t532.5 -169.5t202.5 -444.5q0 -183 -91.5 -323t-258.5 -217t-385 -77zM326 1659h276q15 -76 68 -119t131 -43q79 0 132 42.5t68 119.5h275q-28 -184 -150.5 -285.5t-324.5 -101.5
q-200 0 -322.5 101.5t-152.5 285.5zM801 246q169 0 266.5 90t97.5 248q0 157 -97.5 247.5t-266.5 90.5t-266 -90.5t-97 -247.5q0 -158 97 -248t266 -90z" />
    <glyph glyph-name="Ohungarumlaut" unicode="&#x150;" horiz-adv-x="1964" 
d="M983 -33q-268 0 -473 100t-317.5 282t-112.5 419t112.5 419t317.5 282t473 100q267 0 471.5 -100t317 -282t112.5 -419t-112.5 -419t-317 -282t-471.5 -100zM983 301q242 0 383 126t141 341t-141 341t-383 126q-243 0 -383.5 -125.5t-140.5 -341.5t140.5 -341.5
t383.5 -125.5zM573 1653l250 336h359l-283 -336h-326zM1083 1653l250 336h357l-281 -336h-326z" />
    <glyph glyph-name="ohungarumlaut" unicode="&#x151;" horiz-adv-x="1601" 
d="M801 -33q-218 0 -385 77t-258.5 217t-91.5 323q0 275 202.5 444.5t532.5 169.5t532.5 -169.5t202.5 -444.5q0 -183 -91.5 -323t-258.5 -217t-385 -77zM403 1284l228 375h327l-243 -375h-312zM885 1284l227 375h330l-246 -375h-311zM801 246q169 0 266.5 90t97.5 248
q0 157 -97.5 247.5t-266.5 90.5t-266 -90.5t-97 -247.5q0 -158 97 -248t266 -90z" />
    <glyph glyph-name="OE" unicode="&#x152;" horiz-adv-x="2740" 
d="M2636 0h-1655q-267 0 -471.5 95.5t-317 270t-112.5 402.5t110 402.5t313 270t470 95.5h1653v-307h-938v-320h880v-280h-880v-322h948v-307zM956 332h369v872h-369q-227 0 -362 -119t-135 -317t135 -317t362 -119z" />
    <glyph glyph-name="oe" unicode="&#x153;" horiz-adv-x="2545" 
d="M1860 -33q-175 0 -311.5 56.5t-223.5 162.5q-89 -106 -228.5 -162.5t-320.5 -56.5q-207 0 -368.5 77t-251.5 217.5t-90 322.5q0 181 90 321t251.5 216.5t368.5 76.5q182 0 323 -58t230 -165q88 106 218.5 164.5t287.5 58.5q293 0 467 -193t174 -511h-946
q37 -121 145 -186.5t269 -65.5q280 0 501 141v-233q-113 -84 -270.5 -133.5t-314.5 -49.5zM795 246q165 0 259.5 90t94.5 248q0 157 -95 247.5t-259 90.5q-166 0 -261.5 -90.5t-95.5 -247.5q0 -158 95.5 -248t261.5 -90zM1841 942q-123 0 -208.5 -65t-110.5 -179h626
q-28 116 -107 180t-200 64z" />
    <glyph glyph-name="Racute" unicode="&#x154;" horiz-adv-x="1714" 
d="M1223 0l-445 573h-252v-573h-374v1536h888q257 0 414.5 -133t157.5 -350q0 -179 -113 -303.5t-305 -161.5l465 -588h-436zM526 858h467q112 0 176 52t64 143q0 92 -63.5 143t-176.5 51h-467v-389zM606 1653l301 336h422l-350 -336h-373z" />
    <glyph glyph-name="racute" unicode="&#x155;" horiz-adv-x="1101" 
d="M1071 1182v-318q-116 25 -207 25q-76 0 -139 -23t-111.5 -69.5t-75 -123t-26.5 -177.5v-496h-369v1167h369v-266q125 297 410 297q77 0 149 -16zM391 1284l254 375h361l-271 -375h-344z" />
    <glyph glyph-name="uni0156" unicode="&#x156;" horiz-adv-x="1714" 
d="M1223 0l-445 573h-252v-573h-374v1536h888q257 0 414.5 -133t157.5 -350q0 -179 -113 -303.5t-305 -161.5l465 -588h-436zM856 -600h-180l119 197q-61 15 -96 55t-35 96q0 72 55 116t147 44t147.5 -45t55.5 -117q0 -50 -22 -90t-91 -129zM526 858h467q112 0 176 52
t64 143q0 92 -63.5 143t-176.5 51h-467v-389z" />
    <glyph glyph-name="uni0157" unicode="&#x157;" horiz-adv-x="1101" 
d="M1071 1182v-318q-116 25 -207 25q-76 0 -139 -23t-111.5 -69.5t-75 -123t-26.5 -177.5v-496h-369v1167h369v-266q125 297 410 297q77 0 149 -16zM317 -600h-180l119 197q-61 15 -96 55t-35 96q0 72 55.5 116t147.5 44t147 -45t55 -117q0 -51 -22 -91t-90 -128z" />
    <glyph glyph-name="Rcaron" unicode="&#x158;" horiz-adv-x="1714" 
d="M1223 0l-445 573h-252v-573h-374v1536h888q257 0 414.5 -133t157.5 -350q0 -179 -113 -303.5t-305 -161.5l465 -588h-436zM1341 1989l-307 -336h-395l-309 336h311l195 -150l196 150h309zM526 858h467q112 0 176 52t64 143q0 92 -63.5 143t-176.5 51h-467v-389z" />
    <glyph glyph-name="rcaron" unicode="&#x159;" horiz-adv-x="1101" 
d="M1071 1182v-318q-116 25 -207 25q-76 0 -139 -23t-111.5 -69.5t-75 -123t-26.5 -177.5v-496h-369v1167h369v-266q125 297 410 297q77 0 149 -16zM1081 1659l-293 -375h-382l-293 375h297l188 -193l186 193h297z" />
    <glyph glyph-name="Sacute" unicode="&#x15a;" horiz-adv-x="1699" 
d="M76 502h379q15 -111 128.5 -176.5t293.5 -65.5q175 0 273.5 48.5t98.5 137.5q0 71 -59 107t-213 53l-299 33q-303 30 -441.5 139t-138.5 307q0 151 90 260.5t254 166.5t385 57q325 0 535 -138.5t225 -363.5h-381q-12 96 -114.5 152.5t-272.5 56.5q-159 0 -251.5 -46.5
t-92.5 -129.5q0 -66 56 -101.5t196 -52.5l317 -35q319 -34 450.5 -131t131.5 -293q0 -235 -207.5 -377.5t-548.5 -142.5q-349 0 -567 147.5t-227 387.5zM618 1653l302 336h421l-350 -336h-373z" />
    <glyph glyph-name="sacute" unicode="&#x15b;" horiz-adv-x="1492" 
d="M1427 373q0 -194 -170 -300t-483 -106q-321 0 -516.5 116.5t-204.5 309.5h375q20 -82 113.5 -128t244.5 -46q281 0 281 119q0 46 -51 69t-182 33l-213 17q-147 12 -252 43t-165.5 78.5t-88 105.5t-27.5 131q0 186 170.5 284.5t462.5 98.5q189 0 340 -50.5t241 -141.5
t103 -209h-375q-15 68 -94.5 112.5t-230.5 44.5q-123 0 -189.5 -28t-66.5 -80q0 -42 42 -64.5t150 -31.5l279 -23q143 -11 242 -40t157 -75.5t83 -104t25 -134.5zM541 1284l254 375h360l-270 -375h-344z" />
    <glyph glyph-name="Scircumflex" unicode="&#x15c;" horiz-adv-x="1699" 
d="M76 502h379q15 -111 128.5 -176.5t293.5 -65.5q175 0 273.5 48.5t98.5 137.5q0 71 -59 107t-213 53l-299 33q-303 30 -441.5 139t-138.5 307q0 151 90 260.5t254 166.5t385 57q325 0 535 -138.5t225 -363.5h-381q-12 96 -114.5 152.5t-272.5 56.5q-159 0 -251.5 -46.5
t-92.5 -129.5q0 -66 56 -101.5t196 -52.5l317 -35q319 -34 450.5 -131t131.5 -293q0 -235 -207.5 -377.5t-548.5 -142.5q-349 0 -567 147.5t-227 387.5zM342 1653l307 336h395l310 -336h-312l-194 149l-197 -149h-309z" />
    <glyph glyph-name="scircumflex" unicode="&#x15d;" horiz-adv-x="1492" 
d="M1427 373q0 -194 -170 -300t-483 -106q-321 0 -516.5 116.5t-204.5 309.5h375q20 -82 113.5 -128t244.5 -46q281 0 281 119q0 46 -51 69t-182 33l-213 17q-147 12 -252 43t-165.5 78.5t-88 105.5t-27.5 131q0 186 170.5 284.5t462.5 98.5q189 0 340 -50.5t241 -141.5
t103 -209h-375q-15 68 -94.5 112.5t-230.5 44.5q-123 0 -189.5 -28t-66.5 -80q0 -42 42 -64.5t150 -31.5l279 -23q143 -11 242 -40t157 -75.5t83 -104t25 -134.5zM260 1284l293 375h383l293 -375h-297l-189 193l-186 -193h-297z" />
    <glyph glyph-name="Scedilla" unicode="&#x15e;" horiz-adv-x="1699" 
d="M602 -227l129 200q-193 19 -339.5 89.5t-228.5 184t-87 255.5h379q15 -111 128.5 -176.5t293.5 -65.5q175 0 273.5 48.5t98.5 137.5q0 71 -59 107t-213 53l-299 33q-303 30 -441.5 139t-138.5 307q0 151 90 260.5t254 166.5t385 57q325 0 535 -138.5t225 -363.5h-381
q-12 96 -114.5 152.5t-272.5 56.5q-159 0 -251.5 -46.5t-92.5 -129.5q0 -66 56 -101.5t196 -52.5l317 -35q319 -34 450.5 -131t131.5 -293q0 -227 -194 -368t-517 -152l-34 -59q41 8 100 8q134 0 208.5 -52t74.5 -145q0 -100 -98 -161.5t-275 -61.5q-159 0 -267 58t-139 159
h246q33 -57 160 -57q67 0 102 20t35 52q0 30 -30 47.5t-87 17.5q-68 0 -123 -20h-186z" />
    <glyph glyph-name="scedilla" unicode="&#x15f;" horiz-adv-x="1492" 
d="M514 -227l129 200q-266 23 -424.5 135.5t-165.5 284.5h375q20 -82 113.5 -128t244.5 -46q281 0 281 119q0 46 -51 69t-182 33l-213 17q-147 12 -252 43t-165.5 78.5t-88 105.5t-27.5 131q0 186 170.5 284.5t462.5 98.5q189 0 340 -50.5t241 -141.5t103 -209h-375
q-15 68 -94.5 112.5t-230.5 44.5q-123 0 -189.5 -28t-66.5 -80q0 -42 42 -64.5t150 -31.5l279 -23q143 -11 242 -40t157 -75.5t83 -104t25 -134.5q0 -185 -155.5 -290.5t-442.5 -115.5l-41 -63q48 10 97 10q133 0 202.5 -51.5t69.5 -145.5q0 -97 -94 -159t-262 -62
q-152 0 -258 59.5t-137 157.5h227q43 -61 168 -61q66 0 100.5 19.5t34.5 54.5q0 32 -29 51.5t-88 19.5q-54 0 -112 -24h-193z" />
    <glyph glyph-name="Scaron" unicode="&#x160;" horiz-adv-x="1699" 
d="M76 502h379q15 -111 128.5 -176.5t293.5 -65.5q175 0 273.5 48.5t98.5 137.5q0 71 -59 107t-213 53l-299 33q-303 30 -441.5 139t-138.5 307q0 151 90 260.5t254 166.5t385 57q325 0 535 -138.5t225 -363.5h-381q-12 96 -114.5 152.5t-272.5 56.5q-159 0 -251.5 -46.5
t-92.5 -129.5q0 -66 56 -101.5t196 -52.5l317 -35q319 -34 450.5 -131t131.5 -293q0 -235 -207.5 -377.5t-548.5 -142.5q-349 0 -567 147.5t-227 387.5zM1354 1989l-307 -336h-396l-309 336h311l195 -150l196 150h310z" />
    <glyph glyph-name="scaron" unicode="&#x161;" horiz-adv-x="1492" 
d="M1427 373q0 -194 -170 -300t-483 -106q-321 0 -516.5 116.5t-204.5 309.5h375q20 -82 113.5 -128t244.5 -46q281 0 281 119q0 46 -51 69t-182 33l-213 17q-147 12 -252 43t-165.5 78.5t-88 105.5t-27.5 131q0 186 170.5 284.5t462.5 98.5q189 0 340 -50.5t241 -141.5
t103 -209h-375q-15 68 -94.5 112.5t-230.5 44.5q-123 0 -189.5 -28t-66.5 -80q0 -42 42 -64.5t150 -31.5l279 -23q143 -11 242 -40t157 -75.5t83 -104t25 -134.5zM1229 1659l-293 -375h-383l-293 375h297l188 -193l187 193h297z" />
    <glyph glyph-name="uni0162" unicode="&#x162;" horiz-adv-x="1650" 
d="M639 0v1204h-602v332h1577v-332h-602v-1204h-101l-53 -92q41 8 100 8q134 0 208.5 -52t74.5 -145q0 -100 -98 -161.5t-275 -61.5q-159 0 -266.5 58t-138.5 159h246q33 -57 159 -57q67 0 102.5 20t35.5 52q0 30 -30 47.5t-87 17.5q-68 0 -123 -20h-186l145 227h-86z" />
    <glyph glyph-name="uni0163" unicode="&#x163;" horiz-adv-x="1202" 
d="M252 893h-242v162l242 84l158 338h211v-310h507v-274h-507v-399q0 -132 54.5 -185t192.5 -53q153 0 281 59v-280q-157 -68 -408 -68l-41 -63q48 10 97 10q133 0 202.5 -51.5t69.5 -145.5q0 -97 -94 -159t-262 -62q-152 0 -258.5 59.5t-137.5 157.5h228q43 -61 168 -61
q66 0 100.5 19.5t34.5 54.5q0 32 -29 51.5t-88 19.5q-55 0 -113 -24h-192l143 221q-160 45 -238.5 160.5t-78.5 287.5v451z" />
    <glyph glyph-name="Tcaron" unicode="&#x164;" horiz-adv-x="1650" 
d="M639 0v1204h-602v332h1577v-332h-602v-1204h-373zM1331 1989l-307 -336h-395l-310 336h312l194 -150l197 150h309z" />
    <glyph glyph-name="tcaron" unicode="&#x165;" horiz-adv-x="1202" 
d="M252 893h-242v162l242 84l158 338h211v-310h507v-274h-507v-399q0 -132 54.5 -185t192.5 -53q153 0 281 59v-280q-67 -28 -166 -48t-199 -20q-269 0 -400.5 125.5t-131.5 349.5v451zM745 1327l52 412h323l-119 -412h-256z" />
    <glyph glyph-name="Tbar" unicode="&#x166;" horiz-adv-x="1679" 
d="M51 1204v332h1577v-332h-602v-387h401v-258h-401v-559h-373v559h-401v258h401v387h-602z" />
    <glyph glyph-name="tbar" unicode="&#x167;" horiz-adv-x="1224" 
d="M270 893h-241v162l241 84l158 338h211v-310h508v-274h-508v-178h381v-248h-381q4 -117 60 -164t188 -47q152 0 280 59v-280q-67 -29 -165.5 -48.5t-198.5 -19.5q-269 0 -401 125.5t-132 349.5v25h-213v248h213v178z" />
    <glyph glyph-name="Utilde" unicode="&#x168;" horiz-adv-x="1787" 
d="M506 1536v-858q0 -175 101.5 -276t285.5 -101q187 0 288 100t101 277v858h373v-877q0 -154 -55 -282.5t-154 -219t-241.5 -140.5t-311.5 -50q-341 0 -551.5 191t-210.5 501v877h375zM602 1665h-244q19 159 103 246.5t233 87.5q64 0 139 -26.5t139 -52.5t103 -26
q44 0 73.5 25.5t35.5 69.5h243q-21 -158 -104.5 -245t-232.5 -87q-64 0 -138.5 25.5t-138 51t-102.5 25.5q-45 0 -74 -24.5t-35 -69.5z" />
    <glyph glyph-name="utilde" unicode="&#x169;" horiz-adv-x="1560" 
d="M1415 0h-366v199q-75 -112 -185 -171t-243 -59q-242 0 -377 146.5t-135 400.5v651h368v-596q0 -147 68.5 -224t199.5 -77q142 0 223 88.5t81 243.5v565h368v-772zM504 1300h-225q9 172 82 268.5t208 96.5q49 0 105.5 -17.5t98 -38t87 -38t74.5 -17.5q44 0 72.5 28
t37.5 79h226q-8 -169 -81 -265t-210 -96q-62 0 -134 28t-133.5 55.5t-97.5 27.5q-43 0 -72 -29.5t-38 -81.5z" />
    <glyph glyph-name="Umacron" unicode="&#x16a;" horiz-adv-x="1787" 
d="M506 1536v-858q0 -175 101.5 -276t285.5 -101q187 0 288 100t101 277v858h373v-877q0 -154 -55 -282.5t-154 -219t-241.5 -140.5t-311.5 -50q-341 0 -551.5 191t-210.5 501v877h375zM1374 1702h-960v225h960v-225z" />
    <glyph glyph-name="umacron" unicode="&#x16b;" horiz-adv-x="1560" 
d="M1415 0h-366v199q-75 -112 -185 -171t-243 -59q-242 0 -377 146.5t-135 400.5v651h368v-596q0 -147 68.5 -224t199.5 -77q142 0 223 88.5t81 243.5v565h368v-772zM1255 1343h-960v228h960v-228z" />
    <glyph glyph-name="Ubreve" unicode="&#x16c;" horiz-adv-x="1787" 
d="M506 1536v-858q0 -175 101.5 -276t285.5 -101q187 0 288 100t101 277v858h373v-877q0 -154 -55 -282.5t-154 -219t-241.5 -140.5t-311.5 -50q-341 0 -551.5 191t-210.5 501v877h375zM397 1995h285q57 -127 209 -127q154 0 211 127h284q-45 -175 -175 -266t-320 -91
t-319.5 91t-174.5 266z" />
    <glyph glyph-name="ubreve" unicode="&#x16d;" horiz-adv-x="1560" 
d="M1415 0h-366v199q-75 -112 -185 -171t-243 -59q-242 0 -377 146.5t-135 400.5v651h368v-596q0 -147 68.5 -224t199.5 -77q142 0 223 88.5t81 243.5v565h368v-772zM299 1659h276q15 -76 68 -119t131 -43q80 0 133 43t68 119h274q-28 -184 -150.5 -285.5t-324.5 -101.5
q-200 0 -322.5 101.5t-152.5 285.5z" />
    <glyph glyph-name="Uring" unicode="&#x16e;" horiz-adv-x="1787" 
d="M506 1536v-858q0 -175 101.5 -276t285.5 -101q187 0 288 100t101 277v858h373v-877q0 -154 -55 -282.5t-154 -219t-241.5 -140.5t-311.5 -50q-341 0 -551.5 191t-210.5 501v877h375zM895 1622q-181 0 -282 69.5t-101 194.5t101 194.5t282 69.5t281 -69.5t100 -194.5
t-100 -194.5t-281 -69.5zM895 1786q172 0 172 100q0 101 -172 101q-174 0 -174 -101q0 -100 174 -100z" />
    <glyph glyph-name="uring" unicode="&#x16f;" horiz-adv-x="1560" 
d="M1415 0h-366v199q-75 -112 -185 -171t-243 -59q-242 0 -377 146.5t-135 400.5v651h368v-596q0 -147 68.5 -224t199.5 -77q142 0 223 88.5t81 243.5v565h368v-772zM774 1264q-170 0 -268 73t-98 199q0 127 97.5 199.5t268.5 72.5q172 0 269.5 -72.5t97.5 -199.5
q0 -126 -98 -199t-269 -73zM774 1419q75 0 116.5 30.5t41.5 86.5q0 57 -41.5 88t-116.5 31q-74 0 -115 -31t-41 -88q0 -55 41 -86t115 -31z" />
    <glyph glyph-name="Uhungarumlaut" unicode="&#x170;" horiz-adv-x="1787" 
d="M506 1536v-858q0 -175 101.5 -276t285.5 -101q187 0 288 100t101 277v858h373v-877q0 -154 -55 -282.5t-154 -219t-241.5 -140.5t-311.5 -50q-341 0 -551.5 191t-210.5 501v877h375zM428 1653l250 336h358l-282 -336h-326zM938 1653l250 336h356l-280 -336h-326z" />
    <glyph glyph-name="uhungarumlaut" unicode="&#x171;" horiz-adv-x="1560" 
d="M1415 0h-366v199q-75 -112 -185 -171t-243 -59q-242 0 -377 146.5t-135 400.5v651h368v-596q0 -147 68.5 -224t199.5 -77q142 0 223 88.5t81 243.5v565h368v-772zM377 1284l227 375h328l-244 -375h-311zM858 1284l227 375h330l-246 -375h-311z" />
    <glyph glyph-name="Uogonek" unicode="&#x172;" horiz-adv-x="1787" 
d="M1282 678v858h373v-874q0 -247 -132.5 -419t-363.5 -239q-241 -74 -241 -149q0 -60 143 -60q71 0 123 12v-202q-30 -11 -90.5 -20t-120.5 -9q-143 0 -231.5 54t-88.5 143q0 122 174 198q-313 19 -504.5 207.5t-191.5 483.5v874h375v-858q0 -175 101.5 -275t285.5 -100
q187 0 288 100t101 275z" />
    <glyph glyph-name="uogonek" unicode="&#x173;" horiz-adv-x="1560" 
d="M1415 0h2q-248 -71 -248 -147q0 -58 125 -58q70 0 123 12v-202q-30 -11 -90.5 -20t-120.5 -9q-138 0 -222.5 54t-84.5 143q0 143 217 227h-67v199q-75 -112 -185 -171t-243 -59q-242 0 -377 146.5t-135 400.5v651h368v-596q0 -147 68.5 -224t199.5 -77q142 0 223 88.5
t81 243.5v565h368v-772z" />
    <glyph glyph-name="Wcircumflex" unicode="&#x174;" horiz-adv-x="2756" 
d="M1577 1536l408 -1190l354 1190h393l-485 -1536h-478l-391 1116l-391 -1116h-479l-483 1536h395l354 -1192l406 1192h397zM872 1653l308 336h395l309 -336h-311l-195 149l-196 -149h-310z" />
    <glyph glyph-name="wcircumflex" unicode="&#x175;" horiz-adv-x="2308" 
d="M1333 1167l299 -805l295 805h369l-447 -1167h-376l-318 827l-321 -827h-377l-445 1167h369l295 -800l303 800h354zM676 1284l293 375h383l293 -375h-297l-189 193l-186 -193h-297z" />
    <glyph glyph-name="Ycircumflex" unicode="&#x176;" horiz-adv-x="1853" 
d="M1114 0h-373v621l-721 915h414l494 -625l491 625h414l-719 -911v-625zM422 1653l307 336h395l310 -336h-312l-194 149l-197 -149h-309z" />
    <glyph glyph-name="ycircumflex" unicode="&#x177;" horiz-adv-x="1548" 
d="M473 -371q-118 0 -212.5 29.5t-184.5 91.5v260q92 -58 172 -83t174 -25q91 0 154 39.5t104 132.5l4 12h-158l-508 1081h406l360 -850l369 850h391l-575 -1210q-156 -328 -496 -328zM307 1284l293 375h383l293 -375h-297l-188 193l-187 -193h-297z" />
    <glyph glyph-name="Ydieresis" unicode="&#x178;" horiz-adv-x="1853" 
d="M1114 0h-373v621l-721 915h414l494 -625l491 625h414l-719 -911v-625zM614 1663q-94 0 -150 47.5t-56 130.5q0 81 56 128.5t150 47.5t150.5 -47.5t56.5 -128.5q0 -83 -56.5 -130.5t-150.5 -47.5zM1239 1663q-94 0 -150.5 47.5t-56.5 130.5q0 81 56.5 128.5t150.5 47.5
t150.5 -47.5t56.5 -128.5q0 -83 -56.5 -130.5t-150.5 -47.5z" />
    <glyph glyph-name="Zacute" unicode="&#x179;" 
d="M1546 0h-1462v274l958 965h-950v297h1448v-272l-956 -967h962v-297zM586 1653l301 336h422l-351 -336h-372z" />
    <glyph glyph-name="zacute" unicode="&#x17a;" horiz-adv-x="1390" 
d="M1313 0h-1235v258l768 639h-762v270h1225v-258l-768 -641h772v-268zM492 1284l253 375h361l-270 -375h-344z" />
    <glyph glyph-name="Zdotaccent" unicode="&#x17b;" 
d="M1546 0h-1462v274l958 965h-950v297h1448v-272l-956 -967h962v-297zM817 1663q-100 0 -160.5 50t-60.5 136q0 85 60.5 136t160.5 51q98 0 158.5 -51t60.5 -136q0 -86 -60 -136t-159 -50z" />
    <glyph glyph-name="zdotaccent" unicode="&#x17c;" horiz-adv-x="1390" 
d="M1313 0h-1235v258l768 639h-762v270h1225v-258l-768 -641h772v-268zM696 1292q-100 0 -160.5 51t-60.5 136t60.5 135.5t160.5 50.5q99 0 159 -51t60 -135q0 -85 -60.5 -136t-158.5 -51z" />
    <glyph glyph-name="Zcaron" unicode="&#x17d;" 
d="M1546 0h-1462v274l958 965h-950v297h1448v-272l-956 -967h962v-297zM1323 1989l-307 -336h-395l-310 336h312l194 -150l197 150h309z" />
    <glyph glyph-name="zcaron" unicode="&#x17e;" horiz-adv-x="1390" 
d="M1313 0h-1235v258l768 639h-762v270h1225v-258l-768 -641h772v-268zM1180 1659l-293 -375h-383l-293 375h297l188 -193l187 193h297z" />
    <glyph glyph-name="longs" unicode="&#x17f;" horiz-adv-x="616" 
d="M754 1333q-141 0 -201.5 -53.5t-60.5 -171.5v-1108h-367v1083q0 250 148.5 388.5t435.5 138.5q144 0 305 -49v-275q-127 47 -260 47z" />
    <glyph glyph-name="uni0180" unicode="&#x180;" horiz-adv-x="1648" 
d="M492 0h-367v1233h-152v223h152v121h367v-121h573v-223h-573v-354q87 129 217 198.5t290 69.5q256 0 417 -163.5t161 -426.5t-161 -426.5t-417 -163.5q-160 0 -289.5 71.5t-217.5 201.5v-240zM893 252q138 0 225.5 85.5t87.5 219.5q0 135 -87.5 220t-225.5 85
q-136 0 -249.5 -84t-166.5 -221q53 -136 166.5 -220.5t249.5 -84.5z" />
    <glyph glyph-name="uni0181" unicode="&#x181;" horiz-adv-x="2187" 
d="M426 1536h1141q212 0 330 -99.5t118 -273.5q0 -113 -57.5 -207.5t-177.5 -148.5q168 -37 253 -136.5t85 -242.5q0 -192 -133 -310t-379 -118h-1098l12 1260h-8q-154 0 -154 -158q0 -116 43 -230h-280q-80 164 -80 310q0 166 100 260t285 94zM879 657v-387h641
q103 0 161 49.5t58 139.5q0 92 -66 145t-190 53h-604zM879 1266v-346h557q88 0 144 50t56 136q0 72 -49.5 116t-138.5 44h-569z" />
    <glyph glyph-name="uni0186" unicode="&#x186;" horiz-adv-x="1898" 
d="M68 631h376q31 -162 159 -250t333 -88q233 0 368.5 127.5t135.5 347.5t-135.5 347.5t-368.5 127.5q-202 0 -331.5 -90t-160.5 -248h-376q34 298 270.5 481t595.5 183q262 0 463 -100t310.5 -282t109.5 -419t-109.5 -419t-310.5 -282t-463 -100q-359 0 -595.5 183
t-270.5 481z" />
    <glyph glyph-name="uni0187" unicode="&#x187;" horiz-adv-x="1970" 
d="M952 1569q284 0 465 -127q-10 48 -10 86q0 141 101 230t296 89q147 0 262 -41v-282q-91 32 -174 32q-190 0 -190 -157q0 -66 57 -228q59 -163 72 -266h-375q-31 158 -160 248t-331 90q-233 0 -368.5 -127.5t-135.5 -345.5q0 -220 135.5 -348.5t368.5 -128.5q204 0 332 88
t159 250h375q-34 -298 -270.5 -481t-595.5 -183q-262 0 -463 100t-310.5 282t-109.5 419q0 236 110.5 419t308 282.5t451.5 99.5z" />
    <glyph glyph-name="uni0188" unicode="&#x188;" horiz-adv-x="1611" 
d="M1505 1511q136 0 273 -61v-264q-119 49 -201 49q-97 0 -140.5 -41.5t-43.5 -128.5q0 -25 2.5 -48.5t10.5 -57t12.5 -50.5t19.5 -67.5t20 -69.5l25 -88h-367q-25 113 -114.5 175.5t-221.5 62.5q-157 0 -248.5 -90t-91.5 -248q0 -160 91.5 -249t248.5 -89q130 0 221.5 64
t114.5 171h367q-28 -229 -223.5 -371.5t-481.5 -142.5q-315 0 -511.5 172t-196.5 447q0 270 186.5 441t482.5 171q216 0 365 -100q0 7 -1 22t-1 23q0 181 107 274.5t296 93.5z" />
    <glyph glyph-name="uni0189" unicode="&#x189;" horiz-adv-x="1933" 
d="M55 643v254h154v639h743q267 0 471.5 -95.5t317 -270t112.5 -402.5t-112.5 -402.5t-317 -270t-471.5 -95.5h-743v643h-154zM582 1204v-307h372v-254h-372v-311h397q227 0 361.5 119t134.5 317t-134.5 317t-361.5 119h-397z" />
    <glyph glyph-name="uni018A" unicode="&#x18a;" horiz-adv-x="2332" 
d="M451 1536h901q267 0 471.5 -95.5t317 -270t112.5 -402.5t-112.5 -402.5t-317 -270t-471.5 -95.5h-744v1223h-88q-79 0 -119.5 -35t-40.5 -115q0 -88 41 -201h-280q-80 164 -80 306q0 171 102.5 264.5t307.5 93.5zM981 1204v-872h397q226 0 361 119t135 317t-135 317
t-361 119h-397z" />
    <glyph glyph-name="uni018E" unicode="&#x18e;" horiz-adv-x="1605" 
d="M1126 307v320h-956v282h956v320h-1013v307h1388v-1536h-1399v307h1024z" />
    <glyph glyph-name="uni018F" unicode="&#x18f;" horiz-adv-x="1896" 
d="M942 1569q202 0 368 -61.5t276 -169.5t169.5 -254.5t59.5 -317.5q0 -177 -64 -325.5t-178 -252t-276 -161.5t-353 -58q-206 0 -371.5 67t-273.5 186.5t-165.5 281.5t-57.5 354h1354q-26 190 -155.5 294.5t-334.5 104.5q-190 0 -309.5 -78t-161.5 -206h-375
q52 270 279 433t569 163zM942 274q184 0 308.5 84.5t166.5 243.5h-938q39 -153 159.5 -240.5t303.5 -87.5z" />
    <glyph glyph-name="uni0190" unicode="&#x190;" horiz-adv-x="1673" 
d="M1544 1536v-293h-903l432 -297v-250h-235q-191 0 -274 -53t-83 -154q0 -111 94.5 -170t276.5 -59q378 0 414 242h372q-12 -245 -223.5 -390t-562.5 -145q-359 0 -555.5 138.5t-196.5 363.5q0 200 147 312.5t449 121.5l-518 361v272h1366z" />
    <glyph glyph-name="uni0191" unicode="&#x191;" horiz-adv-x="1556" 
d="M526 1217v-324h920v-320h-920v-452q0 -237 -125.5 -364.5t-367.5 -127.5q-156 0 -275 43v281q101 -33 187 -33q106 0 156.5 57.5t50.5 174.5v1384h1329v-319h-955z" />
    <glyph glyph-name="florin" unicode="&#x192;" horiz-adv-x="1218" 
d="M1190 786h-494v-630q0 -250 -145 -388.5t-426 -138.5q-137 0 -279 49v275q112 -47 234 -47q133 0 190.5 53.5t57.5 171.5v655h-242v289h242v8q0 250 149 388.5t436 138.5q146 0 304 -49v-275q-124 47 -261 47q-140 0 -200 -53.5t-60 -171.5v-33h494v-289z" />
    <glyph glyph-name="uni0193" unicode="&#x193;" horiz-adv-x="2009" 
d="M948 -33q-145 0 -275 34.5t-237 102.5t-185.5 163t-121.5 223.5t-43 277.5q0 151 44.5 280.5t123.5 224t187 162t237.5 101t271.5 33.5q299 0 477 -135q-12 46 -12 94q0 142 100.5 230.5t296.5 88.5q148 0 263 -41v-282q-91 32 -174 32q-97 0 -144 -41t-47 -116t57 -228
q46 -125 62 -202h-375q-32 132 -162 208t-323 76q-236 0 -372 -126.5t-136 -358.5q0 -236 143.5 -365t394.5 -129q192 0 329 69.5t192 195.5h-476v243h803v-782h-268l-18 229q-99 -123 -254 -192.5t-359 -69.5z" />
    <glyph glyph-name="uni0194" unicode="&#x194;" horiz-adv-x="1857" 
d="M1628 0h-1395l478 604l-717 932h407l529 -684l534 684h398l-719 -928zM778 207h303l-151 192z" />
    <glyph glyph-name="uni0196" unicode="&#x196;" horiz-adv-x="845" 
d="M143 426v1110h375v-1090q0 -99 35 -143.5t119 -44.5q53 0 133 25v-283q-112 -33 -236 -33q-426 0 -426 459z" />
    <glyph glyph-name="uni0197" unicode="&#x197;" horiz-adv-x="811" 
d="M772 662h-178v-662h-375v662h-178v260h178v614h375v-614h178v-260z" />
    <glyph glyph-name="uni0198" unicode="&#x198;" horiz-adv-x="1794" 
d="M1337 0l-376 608l-472 -608h-337v1536h372v-1020l641 856q48 64 92.5 103.5t115 66.5t159.5 27q93 0 219 -33v-283q-102 27 -160 27q-66 0 -108 -27.5t-86 -81.5l-207 -268l575 -903h-428z" />
    <glyph glyph-name="uni0199" unicode="&#x199;" horiz-adv-x="1482" 
d="M1075 0l-252 424l-366 -424h-332v1098q0 262 135.5 387t433.5 125q170 0 334 -54v-272q-125 49 -270 49q-141 0 -203.5 -61.5t-62.5 -196.5v-616l583 708h387l-405 -471l438 -696h-420z" />
    <glyph glyph-name="uni019A" unicode="&#x19a;" horiz-adv-x="856" 
d="M61 713v223h185v641h366v-641h185v-223h-185v-713h-366v713h-185z" />
    <glyph glyph-name="uni019B" unicode="&#x19b;" horiz-adv-x="1480" 
d="M1208 1307l-311 -103l580 -1204h-398l-344 780l-362 -780h-398l504 987h164l-51 117l-332 -109l-59 187l293 98q-56 59 -156 59q-160 0 -332 -106v250q90 66 177.5 96.5t203.5 30.5q260 0 416 -228l346 115z" />
    <glyph glyph-name="uni019C" unicode="&#x19c;" horiz-adv-x="2496" 
d="M641 -33q-236 0 -369 147t-133 402v1020h375v-956q0 -142 64 -217.5t186 -75.5q132 0 208.5 87.5t76.5 235.5v926h372v-956q0 -142 65 -217.5t187 -75.5q130 0 206.5 87.5t76.5 235.5v926h375v-1536h-375v197q-72 -112 -178.5 -171t-233.5 -59q-166 0 -281.5 77.5
t-170.5 219.5q-70 -144 -187.5 -220.5t-263.5 -76.5z" />
    <glyph glyph-name="uni019D" unicode="&#x19d;" horiz-adv-x="1966" 
d="M152 154v1382h485l815 -1116v1116h363v-1536h-472l-829 1139v-1008q0 -246 -124 -374t-372 -128q-138 0 -260 39v281q98 -27 179 -27q113 0 164 56.5t51 175.5z" />
    <glyph glyph-name="uni019E" unicode="&#x19e;" horiz-adv-x="1583" 
d="M950 1198q249 0 387 -146.5t138 -402.5v-987h-367v932q0 149 -73 226t-212 77q-145 0 -229 -90t-84 -244v-563h-369v1167h369v-202q76 114 189.5 173.5t250.5 59.5z" />
    <glyph glyph-name="uni019F" unicode="&#x19f;" horiz-adv-x="1964" 
d="M983 -33q-268 0 -473 100t-317.5 282t-112.5 419t112.5 419t317.5 282t473 100q267 0 471.5 -100t317 -282t112.5 -419t-112.5 -419t-317 -282t-471.5 -100zM983 287q201 0 336 89.5t178 248.5h-1030q43 -159 178 -248.5t338 -89.5zM983 1249q-203 0 -338 -89.5
t-178 -248.5h1030q-43 159 -178 248.5t-336 89.5z" />
    <glyph glyph-name="Ohorn" unicode="&#x1a0;" horiz-adv-x="1970" 
d="M981 -33q-267 0 -471.5 100t-317 282t-112.5 419t112.5 419t317 282t471.5 100q133 0 264 -29q112 -22 182 -22q100 0 147.5 37t47.5 96q0 68 -57 153h293q61 -99 61 -205q0 -104 -71 -174t-206 -96q115 -102 177.5 -246t62.5 -315q0 -237 -112.5 -419t-317 -282
t-471.5 -100zM981 301q241 0 381.5 126t140.5 341t-140.5 341t-381.5 126t-381.5 -126t-140.5 -341t140.5 -341t381.5 -126z" />
    <glyph glyph-name="ohorn" unicode="&#x1a1;" horiz-adv-x="1638" 
d="M801 -33q-218 0 -385 77t-258.5 217t-91.5 323q0 275 202.5 444.5t532.5 169.5q42 0 83 -3.5t64.5 -7t60.5 -10t48 -8.5q58 -12 112 -12q81 0 123.5 32.5t42.5 94.5q0 78 -45 150h281q51 -89 51 -199q0 -102 -63 -169.5t-179 -90.5q156 -153 156 -391q0 -183 -91.5 -323
t-258.5 -217t-385 -77zM801 246q169 0 266.5 90t97.5 248q0 157 -97.5 247.5t-266.5 90.5t-266 -90.5t-97 -247.5q0 -158 97 -248t266 -90z" />
    <glyph glyph-name="uni01A4" unicode="&#x1a4;" horiz-adv-x="2097" 
d="M451 1536h1003q276 0 438 -141t162 -373q0 -234 -162 -375t-438 -141h-473v-506h-373v1223h-88q-79 0 -119.5 -35t-40.5 -115q0 -88 41 -201h-280q-80 164 -80 306q0 171 102.5 264.5t307.5 93.5zM981 811h453q114 0 178.5 56.5t64.5 154.5t-64.5 153.5t-178.5 55.5h-453
v-420z" />
    <glyph glyph-name="uni01A5" unicode="&#x1a5;" horiz-adv-x="1646" 
d="M123 -338v1436q0 262 135.5 387t433.5 125q170 0 334 -54v-272q-125 49 -270 49q-141 0 -204 -61.5t-63 -196.5v-184q87 132 217.5 203t290.5 71q259 0 419.5 -165t160.5 -433t-161 -434t-419 -166q-159 0 -289.5 73t-218.5 206v-584h-366zM1204 567q0 137 -87.5 225.5
t-223.5 88.5q-137 0 -250.5 -87.5t-165.5 -226.5q52 -140 165 -227.5t251 -87.5q136 0 223.5 88.5t87.5 226.5z" />
    <glyph glyph-name="uni01A9" unicode="&#x1a9;" horiz-adv-x="1589" 
d="M1516 0h-1436v274l618 496l-598 494v272h1387v-299h-873l418 -344v-250l-430 -344h914v-299z" />
    <glyph glyph-name="uni01AA" unicode="&#x1aa;" horiz-adv-x="1171" 
d="M1169 -82q84 0 185 33v-279q-121 -43 -275 -43q-240 0 -357.5 126.5t-117.5 365.5v721q-88 -49 -198 -49q-188 0 -312.5 115.5t-124.5 293.5q0 179 129.5 293.5t360.5 114.5q244 0 379 -130.5t135 -365.5v-964q0 -119 45.5 -175.5t150.5 -56.5zM430 1022q106 0 174 80v53
q0 88 -46 139.5t-134 51.5q-82 0 -124 -42.5t-42 -115.5q0 -75 46.5 -120.5t125.5 -45.5z" />
    <glyph glyph-name="uni01AC" unicode="&#x1ac;" horiz-adv-x="1826" 
d="M815 0v1204h-287q-85 0 -126.5 -35t-41.5 -112q0 -87 41 -185h-282q-80 164 -80 306q0 171 103.5 264.5t306.5 93.5h1341v-332h-602v-1204h-373z" />
    <glyph glyph-name="uni01AD" unicode="&#x1ad;" horiz-adv-x="1204" 
d="M10 877v161l242 86q8 248 143.5 367t425.5 119q170 0 334 -54v-272q-125 49 -268 49q-121 0 -183 -44t-77 -138h501v-274h-507v-383q0 -134 54.5 -187t192.5 -53q156 0 281 61v-280q-67 -28 -166 -48t-199 -20q-269 0 -400.5 125.5t-131.5 349.5v435h-242z" />
    <glyph glyph-name="uni01AE" unicode="&#x1ae;" horiz-adv-x="1654" 
d="M37 1204v332h1577v-332h-602v-1052q0 -119 45.5 -175.5t150.5 -56.5q84 0 185 33v-281q-116 -43 -273 -43q-242 0 -361.5 126.5t-119.5 365.5v1083h-602z" />
    <glyph glyph-name="Uhorn" unicode="&#x1af;" horiz-adv-x="1918" 
d="M506 1536v-858q0 -175 101.5 -276t285.5 -101q187 0 288 100t101 277v858h311q61 0 97 32t36 85q0 72 -55 151h281q63 -97 63 -198q0 -122 -96 -195.5t-264 -79.5v-672q0 -154 -55 -282.5t-154 -219t-241.5 -140.5t-311.5 -50q-341 0 -551.5 191t-210.5 501v877h375z" />
    <glyph glyph-name="uhorn" unicode="&#x1b0;" horiz-adv-x="1701" 
d="M1415 0h-366v199q-75 -112 -185 -171t-243 -59q-242 0 -377 146.5t-135 400.5v651h368v-596q0 -147 68.5 -224t199.5 -77q142 0 223 88.5t81 243.5v565h329q52 6 81.5 36.5t29.5 78.5q0 73 -55 152h280q64 -98 64 -199q0 -122 -96 -195t-265 -79v-566z" />
    <glyph glyph-name="uni01B1" unicode="&#x1b1;" horiz-adv-x="1986" 
d="M993 -33q-210 0 -376 56.5t-271.5 156.5t-161 232.5t-55.5 287.5q0 168 70.5 310t203.5 245h-317v281h737v-256q-158 -79 -242.5 -204t-84.5 -290q0 -223 132.5 -353t364.5 -130t364 130t132 353q0 164 -85 289.5t-243 204.5v256h737v-281h-317q133 -103 203.5 -245
t70.5 -310q0 -155 -55.5 -287.5t-160.5 -232.5t-271 -156.5t-375 -56.5z" />
    <glyph glyph-name="uni01B2" unicode="&#x1b2;" horiz-adv-x="1796" 
d="M135 655v881h373v-866q0 -177 80.5 -275t238.5 -98q139 0 255.5 87t184.5 244t68 351q0 139 -67 217t-191 78q-103 0 -209 -47v286q131 56 306 56q262 0 400 -148t138 -440q0 -164 -41.5 -316.5t-121.5 -278.5t-190 -220t-255 -146.5t-309 -52.5q-313 0 -486.5 186
t-173.5 502z" />
    <glyph glyph-name="uni01B3" unicode="&#x1b3;" horiz-adv-x="1863" 
d="M1108 0h-373v621l-723 915h414l498 -629l319 434q65 87 115.5 134t111 70.5t142.5 23.5q94 0 198 -33v-279q-82 21 -127 21q-58 0 -92 -21.5t-73 -76.5l-410 -551v-629z" />
    <glyph glyph-name="uni01B4" unicode="&#x1b4;" horiz-adv-x="1638" 
d="M471 -371q-221 0 -395 121v260q92 -58 171.5 -83t174.5 -25q90 0 153 39.5t103 132.5l6 12h-158l-510 1081h406l362 -852l252 580q46 109 94.5 172t120 97t172.5 34q120 0 205 -45v-248q-66 33 -123 33q-60 0 -96.5 -31.5t-67.5 -101.5l-374 -848q-39 -88 -94.5 -153
t-121 -102.5t-135 -55t-145.5 -17.5z" />
    <glyph glyph-name="uni01B5" unicode="&#x1b5;" horiz-adv-x="1644" 
d="M199 649v258h522l328 332h-951v297h1448v-272l-352 -357h258v-258h-516l-346 -352h962v-297h-1462v274l373 375h-264z" />
    <glyph glyph-name="uni01B6" unicode="&#x1b6;" horiz-adv-x="1402" 
d="M133 479v223h483l236 195h-762v270h1225v-258l-248 -207h207v-223h-475l-252 -211h772v-268h-1235v258l264 221h-215z" />
    <glyph glyph-name="uni01B7" unicode="&#x1b7;" horiz-adv-x="1652" 
d="M129 1243v293h1366v-272l-518 -361q302 -9 449 -121.5t147 -312.5q0 -225 -196.5 -363.5t-555.5 -138.5q-351 0 -562.5 145t-223.5 390h373q36 -242 413 -242q182 0 276.5 59t94.5 170q0 101 -82.5 154t-273.5 53h-236v250l432 297h-903z" />
    <glyph glyph-name="uni01B8" unicode="&#x1b8;" horiz-adv-x="1652" 
d="M1524 1536v-293h-903l432 -297v-250h-236q-191 0 -273.5 -53t-82.5 -154q0 -111 94 -170t276 -59q378 0 414 242h373q-12 -245 -224 -390t-563 -145q-359 0 -555 138.5t-196 363.5q0 200 147 312.5t449 121.5l-518 361v272h1366z" />
    <glyph glyph-name="uni01B9" unicode="&#x1b9;" horiz-adv-x="1501" 
d="M1380 1167v-270h-815l449 -313v-230h-234q-185 0 -269.5 -59.5t-84.5 -161.5q0 -108 89.5 -170.5t250.5 -62.5q162 0 257.5 69t113.5 185h350q-12 -231 -204.5 -378t-516.5 -147q-339 0 -525 135t-186 353q0 92 34.5 169.5t103 139t181 98t259.5 41.5l-492 338v264h1239z
" />
    <glyph glyph-name="uni01C0" unicode="&#x1c0;" horiz-adv-x="591" 
d="M125 -215v1792h344v-1792h-344z" />
    <glyph glyph-name="uni01C1" unicode="&#x1c1;" horiz-adv-x="1187" 
d="M125 -215v1792h344v-1792h-344zM721 -215v1792h344v-1792h-344z" />
    <glyph glyph-name="uni01C2" unicode="&#x1c2;" horiz-adv-x="866" 
d="M98 811v223h164v543h344v-543h162v-223h-162v-260h162v-223h-162v-543h-344v543h-164v223h164v260h-164z" />
    <glyph glyph-name="uni01C3" unicode="&#x1c3;" horiz-adv-x="565" 
d="M281 -20q-92 0 -150.5 55t-58.5 143t58.5 142.5t150.5 54.5q95 0 153 -54.5t58 -142.5t-58 -143t-153 -55zM152 518l-62 1018h383l-61 -1018h-260z" />
    <glyph glyph-name="uni01C4" unicode="&#x1c4;" horiz-adv-x="3434" 
d="M152 1536h743q267 0 471.5 -95.5t317 -270t112.5 -402.5t-112.5 -402.5t-317 -270t-471.5 -95.5h-743v1536zM3348 0h-1462v274l959 965h-951v297h1448v-272l-956 -967h962v-297zM3125 1989l-307 -336h-395l-309 336h311l194 -150l197 150h309zM524 1204v-872h398
q227 0 361 118.5t134 317.5t-134 317.5t-361 118.5h-398z" />
    <glyph glyph-name="uni01C5" unicode="&#x1c5;" horiz-adv-x="3256" 
d="M152 1536h743q267 0 471.5 -95.5t317 -270t112.5 -402.5t-112.5 -402.5t-317 -270t-471.5 -95.5h-743v1536zM3178 0h-1234v258l768 639h-762v270h1224v-258l-768 -641h772v-268zM3045 1659l-292 -375h-383l-293 375h297l188 -193l186 193h297zM524 1204v-872h398
q227 0 361 118.5t134 317.5t-134 317.5t-361 118.5h-398z" />
    <glyph glyph-name="uni01C6" unicode="&#x1c6;" horiz-adv-x="3041" 
d="M1522 1577v-1577h-367v248q-88 -134 -217.5 -207.5t-288.5 -73.5q-257 0 -417 170.5t-160 446.5q0 275 160 444.5t417 169.5q158 0 288.5 -72t217.5 -204v655h367zM2963 0h-1234v258l768 639h-762v270h1224v-258l-768 -641h772v-268zM2830 1659l-293 -375h-383l-292 375
h297l188 -193l186 193h297zM442 584q0 -146 88 -239t226 -93q136 0 249 92t166 240q-53 147 -166 238t-249 91q-138 0 -226 -92t-88 -237z" />
    <glyph glyph-name="uni01C7" unicode="&#x1c7;" horiz-adv-x="3182" 
d="M152 1536h374v-1204h983v-332h-1357v1536zM1593 664l-2 86h367v-58q0 -198 85 -298.5t271 -100.5q184 0 272.5 96t88.5 275v872h374v-889q0 -320 -200.5 -500t-534.5 -180q-329 0 -525 185t-196 512z" />
    <glyph glyph-name="uni01C8" unicode="&#x1c8;" horiz-adv-x="2148" 
d="M152 1536h374v-1204h983v-332h-1357v1536zM2116 1182v-1078q0 -224 -131 -349.5t-402 -125.5q-100 0 -198.5 20t-163.5 48v280q124 -59 280 -59q138 0 193 53t55 185v1026h367zM1933 1292q-100 0 -160.5 51t-60.5 136t60.5 135.5t160.5 50.5q99 0 159 -51t60 -135
q0 -85 -60.5 -136t-158.5 -51z" />
    <glyph glyph-name="uni01C9" unicode="&#x1c9;" horiz-adv-x="1212" 
d="M125 0v1577h367v-1577h-367zM1180 1182v-1078q0 -224 -131 -349.5t-402 -125.5q-100 0 -198.5 20t-163.5 48v280q124 -59 280 -59q138 0 193 53t55 185v1026h367zM997 1292q-100 0 -160.5 51t-60.5 136t60.5 135.5t160.5 50.5q99 0 159.5 -51t60.5 -135t-60.5 -135.5
t-159.5 -51.5z" />
    <glyph glyph-name="uni01CA" unicode="&#x1ca;" horiz-adv-x="3602" 
d="M637 1536l815 -1114v1114h363v-1536h-472l-829 1137v-1137h-362v1536h485zM2013 664l-2 86h367v-58q0 -198 85 -298.5t271 -100.5q184 0 272.5 96t88.5 275v872h374v-889q0 -320 -200.5 -500t-534.5 -180q-329 0 -525 185t-196 512z" />
    <glyph glyph-name="uni01CB" unicode="&#x1cb;" horiz-adv-x="2568" 
d="M637 1536l815 -1114v1114h363v-1536h-472l-829 1137v-1137h-362v1536h485zM2535 1182v-1078q0 -224 -130.5 -349.5t-401.5 -125.5q-100 0 -199 20t-164 48v280q124 -59 281 -59q138 0 193 53t55 185v1026h366zM2353 1292q-100 0 -160.5 51t-60.5 136t60.5 135.5
t160.5 50.5q99 0 159 -51t60 -135q0 -85 -60.5 -136t-158.5 -51z" />
    <glyph glyph-name="uni01CC" unicode="&#x1cc;" horiz-adv-x="2177" 
d="M950 1198q249 0 388 -147t139 -402v-649h-369v594q0 148 -73 225.5t-210 77.5q-145 0 -229 -90t-84 -244v-563h-369v1167h369v-202q76 114 189 173.5t249 59.5zM2144 1182v-1078q0 -224 -130.5 -349.5t-401.5 -125.5q-100 0 -199 20t-164 48v280q124 -59 281 -59
q138 0 193 53t55 185v1026h366zM1962 1292q-100 0 -160.5 51t-60.5 136t60.5 135.5t160.5 50.5q99 0 159 -51t60 -135q0 -85 -60.5 -136t-158.5 -51z" />
    <glyph glyph-name="uni01CD" unicode="&#x1cd;" horiz-adv-x="1921" 
d="M719 1536h483l713 -1536h-399l-140 315h-831l-139 -315h-400zM1466 1989l-307 -336h-395l-309 336h311l195 -150l196 150h309zM678 616h563l-280 633z" />
    <glyph glyph-name="uni01CE" unicode="&#x1ce;" horiz-adv-x="1665" 
d="M1028 0v154q-82 -82 -202.5 -134.5t-264.5 -52.5q-219 0 -360.5 106t-141.5 283q0 175 139 275.5t363 111.5q37 2 103 2q189 0 305 -38q15 -6 55 -21q-25 232 -389 232q-262 0 -479 -115v270q256 125 565 125q110 0 207 -19t181.5 -60.5t145.5 -102t96 -149.5t35 -197
v-670h-358zM1311 1659l-293 -375h-383l-293 375h297l188 -193l187 193h297zM1026 487q-73 41 -283 41q-346 0 -346 -153q0 -71 72.5 -115.5t192.5 -44.5q87 0 168 29t138.5 93t57.5 150z" />
    <glyph glyph-name="uni01CF" unicode="&#x1cf;" horiz-adv-x="677" 
d="M152 0v1536h374v-1536h-374zM844 1989l-307 -336h-396l-309 336h311l195 -150l197 150h309z" />
    <glyph glyph-name="uni01D0" unicode="&#x1d0;" horiz-adv-x="616" 
d="M125 0v1182h367v-1182h-367zM793 1659l-293 -375h-383l-293 375h297l188 -193l187 193h297z" />
    <glyph glyph-name="uni01D1" unicode="&#x1d1;" horiz-adv-x="1964" 
d="M983 -33q-268 0 -473 100t-317.5 282t-112.5 419t112.5 419t317.5 282t473 100q267 0 471.5 -100t317 -282t112.5 -419t-112.5 -419t-317 -282t-471.5 -100zM1487 1989l-307 -336h-396l-309 336h311l195 -150l197 150h309zM983 301q242 0 383 126t141 341t-141 341
t-383 126q-243 0 -383.5 -125.5t-140.5 -341.5t140.5 -341.5t383.5 -125.5z" />
    <glyph glyph-name="uni01D2" unicode="&#x1d2;" horiz-adv-x="1601" 
d="M801 -33q-218 0 -385 77t-258.5 217t-91.5 323q0 275 202.5 444.5t532.5 169.5t532.5 -169.5t202.5 -444.5q0 -183 -91.5 -323t-258.5 -217t-385 -77zM1286 1659l-293 -375h-383l-293 375h297l189 -193l186 193h297zM801 246q169 0 266.5 90t97.5 248q0 157 -97.5 247.5
t-266.5 90.5t-266 -90.5t-97 -247.5q0 -158 97 -248t266 -90z" />
    <glyph glyph-name="uni01D3" unicode="&#x1d3;" horiz-adv-x="1787" 
d="M506 1536v-858q0 -175 101.5 -276t285.5 -101q187 0 288 100t101 277v858h373v-877q0 -154 -55 -282.5t-154 -219t-241.5 -140.5t-311.5 -50q-341 0 -551.5 191t-210.5 501v877h375zM1399 1989l-307 -336h-396l-309 336h311l195 -150l197 150h309z" />
    <glyph glyph-name="uni01D4" unicode="&#x1d4;" horiz-adv-x="1558" 
d="M1415 0h-366v199q-75 -112 -185 -171t-243 -59q-242 0 -377 146.5t-135 400.5v651h368v-596q0 -147 68.5 -224t199.5 -77q142 0 223 88.5t81 243.5v565h368v-772zM1260 1659l-293 -375h-383l-293 375h297l188 -193l187 193h297z" />
    <glyph glyph-name="uni01D5" unicode="&#x1d5;" horiz-adv-x="1787" 
d="M506 1536v-858q0 -175 101.5 -276t285.5 -101q187 0 288 100t101 277v858h373v-877q0 -154 -55 -282.5t-154 -219t-241.5 -140.5t-311.5 -50q-341 0 -551.5 191t-210.5 501v877h375zM582 1663q-94 0 -150.5 47.5t-56.5 130.5q0 81 56.5 128.5t150.5 47.5t150 -47.5
t56 -128.5q0 -83 -56 -130.5t-150 -47.5zM1376 2122h-960v225h960v-225zM1206 1663q-94 0 -150.5 47.5t-56.5 130.5q0 81 56.5 128.5t150.5 47.5t150.5 -47.5t56.5 -128.5q0 -83 -56.5 -130.5t-150.5 -47.5z" />
    <glyph glyph-name="uni01D6" unicode="&#x1d6;" horiz-adv-x="1558" 
d="M1415 0h-366v199q-75 -112 -185 -171t-243 -59q-242 0 -377 146.5t-135 400.5v651h368v-596q0 -147 68.5 -224t199.5 -77q142 0 223 88.5t81 243.5v565h368v-772zM467 1292q-95 0 -151 48.5t-56 132.5q0 79 56.5 126.5t150.5 47.5t150.5 -47.5t56.5 -126.5
q0 -84 -56 -132.5t-151 -48.5zM1083 1292q-94 0 -150 48.5t-56 132.5q0 79 56 126.5t150 47.5q93 0 150 -47.5t57 -126.5q0 -84 -57 -132.5t-150 -48.5zM1255 1747h-960v227h960v-227z" />
    <glyph glyph-name="uni01D7" unicode="&#x1d7;" horiz-adv-x="1787" 
d="M506 1536v-858q0 -175 101.5 -276t285.5 -101q187 0 288 100t101 277v858h373v-877q0 -154 -55 -282.5t-154 -219t-241.5 -140.5t-311.5 -50q-341 0 -551.5 191t-210.5 501v877h375zM580 1663q-94 0 -150.5 47.5t-56.5 130.5q0 81 56.5 128.5t150.5 47.5t150 -47.5
t56 -128.5q0 -83 -56 -130.5t-150 -47.5zM1204 1663q-94 0 -150.5 47.5t-56.5 130.5q0 81 56.5 128.5t150.5 47.5t150.5 -47.5t56.5 -128.5q0 -83 -56.5 -130.5t-150.5 -47.5zM664 2093l301 336h421l-350 -336h-372z" />
    <glyph glyph-name="uni01D8" unicode="&#x1d8;" horiz-adv-x="1558" 
d="M1415 0h-366v199q-75 -112 -185 -171t-243 -59q-242 0 -377 146.5t-135 400.5v651h368v-596q0 -147 68.5 -224t199.5 -77q142 0 223 88.5t81 243.5v565h368v-772zM467 1292q-95 0 -151 48.5t-56 132.5q0 79 56.5 126.5t150.5 47.5t150.5 -47.5t56.5 -126.5
q0 -84 -56 -132.5t-151 -48.5zM1083 1292q-94 0 -150 48.5t-56 132.5q0 79 56 126.5t150 47.5q93 0 150 -47.5t57 -126.5q0 -84 -57 -132.5t-150 -48.5zM545 1737l301 336h422l-350 -336h-373z" />
    <glyph glyph-name="uni01D9" unicode="&#x1d9;" horiz-adv-x="1787" 
d="M506 1536v-858q0 -175 101.5 -276t285.5 -101q187 0 288 100t101 277v858h373v-877q0 -154 -55 -282.5t-154 -219t-241.5 -140.5t-311.5 -50q-341 0 -551.5 191t-210.5 501v877h375zM580 1663q-94 0 -150.5 47.5t-56.5 130.5q0 81 56.5 128.5t150.5 47.5t150 -47.5
t56 -128.5q0 -83 -56 -130.5t-150 -47.5zM1204 1663q-94 0 -150.5 47.5t-56.5 130.5q0 81 56.5 128.5t150.5 47.5t150.5 -47.5t56.5 -128.5q0 -83 -56.5 -130.5t-150.5 -47.5zM1399 2429l-307 -336h-396l-309 336h311l195 -150l197 150h309z" />
    <glyph glyph-name="uni01DA" unicode="&#x1da;" horiz-adv-x="1558" 
d="M1415 0h-366v199q-75 -112 -185 -171t-243 -59q-242 0 -377 146.5t-135 400.5v651h368v-596q0 -147 68.5 -224t199.5 -77q142 0 223 88.5t81 243.5v565h368v-772zM467 1292q-95 0 -151 48.5t-56 132.5q0 79 56.5 126.5t150.5 47.5t150.5 -47.5t56.5 -126.5
q0 -84 -56 -132.5t-151 -48.5zM1083 1292q-94 0 -150 48.5t-56 132.5q0 79 56 126.5t150 47.5q93 0 150 -47.5t57 -126.5q0 -84 -57 -132.5t-150 -48.5zM1280 2073l-307 -336h-395l-310 336h312l194 -150l197 150h309z" />
    <glyph glyph-name="uni01DB" unicode="&#x1db;" horiz-adv-x="1787" 
d="M506 1536v-858q0 -175 101.5 -276t285.5 -101q187 0 288 100t101 277v858h373v-877q0 -154 -55 -282.5t-154 -219t-241.5 -140.5t-311.5 -50q-341 0 -551.5 191t-210.5 501v877h375zM580 1663q-94 0 -150.5 47.5t-56.5 130.5q0 81 56.5 128.5t150.5 47.5t150 -47.5
t56 -128.5q0 -83 -56 -130.5t-150 -47.5zM1204 1663q-94 0 -150.5 47.5t-56.5 130.5q0 81 56.5 128.5t150.5 47.5t150.5 -47.5t56.5 -128.5q0 -83 -56.5 -130.5t-150.5 -47.5zM799 2429l301 -336h-373l-350 336h422z" />
    <glyph glyph-name="uni01DC" unicode="&#x1dc;" horiz-adv-x="1558" 
d="M1415 0h-366v199q-75 -112 -185 -171t-243 -59q-242 0 -377 146.5t-135 400.5v651h368v-596q0 -147 68.5 -224t199.5 -77q142 0 223 88.5t81 243.5v565h368v-772zM467 1292q-95 0 -151 48.5t-56 132.5q0 79 56.5 126.5t150.5 47.5t150.5 -47.5t56.5 -126.5
q0 -84 -56 -132.5t-151 -48.5zM1083 1292q-94 0 -150 48.5t-56 132.5q0 79 56 126.5t150 47.5q93 0 150 -47.5t57 -126.5q0 -84 -57 -132.5t-150 -48.5zM680 2073l301 -336h-373l-350 336h422z" />
    <glyph glyph-name="uni01DD" unicode="&#x1dd;" horiz-adv-x="1486" 
d="M696 1200q208 0 373 -77t258.5 -218t93.5 -323q0 -180 -90 -320.5t-248.5 -216.5t-357.5 -76q-303 0 -479 196.5t-176 528.5h956q-42 111 -151 171.5t-275 60.5q-131 0 -263 -37.5t-237 -104.5v242q119 83 272 128.5t324 45.5zM721 236q123 0 206 60t111 163h-618
q29 -108 106.5 -165.5t194.5 -57.5z" />
    <glyph glyph-name="uni01DE" unicode="&#x1de;" horiz-adv-x="1921" 
d="M719 1536h483l713 -1536h-399l-140 315h-831l-139 -315h-400zM678 616h563l-280 633zM649 1663q-94 0 -150.5 47.5t-56.5 130.5q0 81 56.5 128.5t150.5 47.5t150.5 -47.5t56.5 -128.5q0 -83 -56.5 -130.5t-150.5 -47.5zM1274 1663q-94 0 -150.5 47.5t-56.5 130.5
q0 81 56.5 128.5t150.5 47.5t150.5 -47.5t56.5 -128.5q0 -83 -56.5 -130.5t-150.5 -47.5zM1444 2122h-961v225h961v-225z" />
    <glyph glyph-name="uni01DF" unicode="&#x1df;" horiz-adv-x="1665" 
d="M1028 0v154q-82 -82 -202.5 -134.5t-264.5 -52.5q-219 0 -360.5 106t-141.5 283q0 175 139 275.5t363 111.5q37 2 103 2q189 0 305 -38q15 -6 55 -21q-25 232 -389 232q-262 0 -479 -115v270q256 125 565 125q110 0 207 -19t181.5 -60.5t145.5 -102t96 -149.5t35 -197
v-670h-358zM1026 487q-73 41 -283 41q-346 0 -346 -153q0 -71 72.5 -115.5t192.5 -44.5q87 0 168 29t138.5 93t57.5 150zM518 1292q-95 0 -151 48.5t-56 132.5q0 79 56.5 126.5t150.5 47.5t150.5 -47.5t56.5 -126.5q0 -84 -56 -132.5t-151 -48.5zM1135 1292q-95 0 -151 48.5
t-56 132.5q0 79 56.5 126.5t150.5 47.5q93 0 149.5 -47.5t56.5 -126.5q0 -84 -56.5 -132.5t-149.5 -48.5zM1307 1747h-961v227h961v-227z" />
    <glyph glyph-name="uni01E0" unicode="&#x1e0;" horiz-adv-x="1921" 
d="M719 1536h483l713 -1536h-399l-140 315h-831l-139 -315h-400zM1442 2122h-961v225h961v-225zM963 1663q-101 0 -161.5 50t-60.5 136q0 85 61 136t161 51q98 0 158.5 -51t60.5 -136q0 -86 -60 -136t-159 -50zM678 616h563l-280 633z" />
    <glyph glyph-name="uni01E1" unicode="&#x1e1;" horiz-adv-x="1665" 
d="M1028 0v154q-82 -82 -202.5 -134.5t-264.5 -52.5q-219 0 -360.5 106t-141.5 283q0 175 139 275.5t363 111.5q37 2 103 2q189 0 305 -38q15 -6 55 -21q-25 232 -389 232q-262 0 -479 -115v270q256 125 565 125q110 0 207 -19t181.5 -60.5t145.5 -102t96 -149.5t35 -197
v-670h-358zM1026 487q-73 41 -283 41q-346 0 -346 -153q0 -71 72.5 -115.5t192.5 -44.5q87 0 168 29t138.5 93t57.5 150zM827 1292q-100 0 -160.5 51t-60.5 136t60.5 135.5t160.5 50.5q99 0 159.5 -51t60.5 -135t-60.5 -135.5t-159.5 -51.5zM1307 1747h-961v227h961v-227z
" />
    <glyph glyph-name="uni01E2" unicode="&#x1e2;" horiz-adv-x="2570" 
d="M2384 627h-823l131 -320h802v-307h-1067l-122 315h-766l-127 -315h-400l658 1536h1769v-307h-1116l131 -320h930v-282zM664 616h524l-256 656zM1997 1702h-961v225h961v-225z" />
    <glyph glyph-name="uni01E3" unicode="&#x1e3;" horiz-adv-x="2580" 
d="M1430 0h-271l-14 231q-88 -126 -214.5 -195t-281.5 -69q-257 0 -417 170.5t-160 446.5q0 275 160 444.5t417 169.5q154 0 281.5 -68t214.5 -192l14 229h271l6 -147q172 178 458 178q196 0 338 -90t212 -248.5t63 -365.5h-951q36 -122 148.5 -187t296.5 -65q261 0 475 129
v-234q-235 -170 -518 -170q-164 0 -297 52.5t-223 146.5zM442 584q0 -146 88 -239t226 -93q136 0 249 92t166 240q-53 147 -166 238t-249 91q-138 0 -226 -92t-88 -237zM1866 942q-124 0 -208.5 -64.5t-107.5 -179.5h633q-59 244 -317 244zM1774 1343h-961v228h961v-228z
" />
    <glyph glyph-name="uni01E4" unicode="&#x1e4;" horiz-adv-x="2027" 
d="M1067 623v231h776v-291h180v-198h-180v-363h-239l-15 258q-95 -140 -256 -216.5t-383 -76.5q-255 0 -451.5 97.5t-306.5 280t-110 423.5q0 186 67 338t185.5 253t280 155.5t350.5 54.5q350 0 568.5 -152.5t287.5 -408.5h-394q-30 106 -153 176.5t-299 70.5
q-239 0 -377.5 -127.5t-138.5 -359.5q0 -228 136.5 -363t393.5 -135q252 0 400 95h-414v198h559q4 16 8 60h-475z" />
    <glyph glyph-name="uni01E5" unicode="&#x1e5;" horiz-adv-x="1720" 
d="M635 166q-246 0 -406.5 143t-160.5 373t160.5 373t406.5 143q162 0 295 -64.5t225 -168.5v202h369v-872q0 -77 -17 -164h183v-188h-260q-93 -152 -271 -233t-414 -81q-159 0 -295 41t-268 127v264q233 -178 541 -178q170 0 272 60h-430v188h576q14 55 14 127v131
q-92 -100 -225 -161.5t-295 -61.5zM758 422q265 0 409 260q-148 262 -409 262q-150 0 -236 -71t-86 -191q0 -119 85 -189.5t237 -70.5z" />
    <glyph glyph-name="Gcaron" unicode="&#x1e6;" horiz-adv-x="1961" 
d="M997 274q181 0 313 62.5t195 177.5h-463v268h801v-782h-266l-18 229q-99 -123 -254.5 -192.5t-360.5 -69.5q-181 0 -338 54.5t-273.5 155.5t-183.5 253.5t-67 337.5q0 186 67 338t185.5 253t280 155.5t350.5 54.5q241 0 428 -78t296 -212t140 -310h-377q-32 132 -162 208
t-325 76q-236 0 -371 -126.5t-135 -358.5q0 -236 143.5 -365t394.5 -129zM1470 1989l-307 -336h-395l-309 336h311l195 -150l196 150h309z" />
    <glyph glyph-name="gcaron" unicode="&#x1e7;" horiz-adv-x="1642" 
d="M635 113q-161 0 -290 67t-203 191t-74 284t74 284.5t203 191.5t290 67t294 -68t226 -176v213h369v-856q0 -214 -98.5 -369.5t-273.5 -234t-407 -78.5q-159 0 -295 41t-268 127v285q232 -180 541 -180q432 0 432 389v55q-92 -105 -225 -169t-295 -64zM1309 1659l-293 -375
h-383l-293 375h297l188 -193l187 193h297zM758 369q264 0 409 286q-147 289 -409 289q-149 0 -235.5 -78.5t-86.5 -210.5q0 -131 85 -208.5t237 -77.5z" />
    <glyph glyph-name="uni01E8" unicode="&#x1e8;" horiz-adv-x="1755" 
d="M524 0h-372v1536h372v-594h361l499 594h418l-631 -731l654 -805h-447l-489 614h-365v-614zM1436 1989l-308 -336h-395l-309 336h311l195 -150l196 150h310z" />
    <glyph glyph-name="uni01E9" unicode="&#x1e9;" horiz-adv-x="1482" 
d="M492 0h-367v1577h367v-844h233l365 434h405l-487 -553l520 -614h-428l-373 457h-235v-457zM1290 2030l-307 -336h-395l-309 336h311l194 -150l197 150h309z" />
    <glyph glyph-name="uni01EA" unicode="&#x1ea;" horiz-adv-x="1964" 
d="M1262 -193v-202q-28 -11 -89 -20t-122 -9q-138 0 -223 53.5t-85 141.5q0 122 172 198q-249 13 -438.5 116t-293 280t-103.5 403q0 237 112.5 419t317.5 282t473 100q267 0 471.5 -100t317 -282t112.5 -419q0 -290 -167.5 -493.5t-456.5 -274.5q-121 -30 -183.5 -68
t-62.5 -77q0 -60 127 -60q69 0 121 12zM459 768q0 -216 140.5 -341.5t383.5 -125.5q242 0 383 126t141 341t-141 341t-383 126q-243 0 -383.5 -125.5t-140.5 -341.5z" />
    <glyph glyph-name="uni01EB" unicode="&#x1eb;" horiz-adv-x="1601" 
d="M1047 -2q-222 -71 -222 -143q0 -60 136 -60q69 0 122 12v-202q-30 -11 -90.5 -20t-120.5 -9q-143 0 -230 50t-87 134q0 127 180 209q-304 20 -486.5 187t-182.5 428q0 275 202.5 444.5t532.5 169.5t532.5 -169.5t202.5 -444.5q0 -221 -131 -372t-358 -214zM438 584
q0 -158 97 -248t266 -90t266.5 90t97.5 248q0 157 -97.5 247.5t-266.5 90.5t-266 -90.5t-97 -247.5z" />
    <glyph glyph-name="uni01EC" unicode="&#x1ec;" horiz-adv-x="1964" 
d="M1262 -193v-202q-28 -11 -89 -20t-122 -9q-138 0 -223 53.5t-85 141.5q0 122 172 198q-249 13 -438.5 116t-293 280t-103.5 403q0 237 112.5 419t317.5 282t473 100q267 0 471.5 -100t317 -282t112.5 -419q0 -290 -167.5 -493.5t-456.5 -274.5q-121 -30 -183.5 -68
t-62.5 -77q0 -60 127 -60q69 0 121 12zM459 768q0 -216 140.5 -341.5t383.5 -125.5q242 0 383 126t141 341t-141 341t-383 126q-243 0 -383.5 -125.5t-140.5 -341.5zM1462 1702h-960v225h960v-225z" />
    <glyph glyph-name="uni01ED" unicode="&#x1ed;" horiz-adv-x="1601" 
d="M1047 -2q-222 -71 -222 -143q0 -60 136 -60q69 0 122 12v-202q-30 -11 -90.5 -20t-120.5 -9q-143 0 -230 50t-87 134q0 127 180 209q-304 20 -486.5 187t-182.5 428q0 275 202.5 444.5t532.5 169.5t532.5 -169.5t202.5 -444.5q0 -221 -131 -372t-358 -214zM438 584
q0 -158 97 -248t266 -90t266.5 90t97.5 248q0 157 -97.5 247.5t-266.5 90.5t-266 -90.5t-97 -247.5zM1282 1343h-960v228h960v-228z" />
    <glyph glyph-name="uni01EE" unicode="&#x1ee;" horiz-adv-x="1652" 
d="M129 1243v293h1366v-272l-518 -361q302 -9 449 -121.5t147 -312.5q0 -225 -196.5 -363.5t-555.5 -138.5q-351 0 -562.5 145t-223.5 390h373q36 -242 413 -242q182 0 276.5 59t94.5 170q0 101 -82.5 154t-273.5 53h-236v250l432 297h-903zM1300 1989l-307 -336h-395
l-309 336h311l195 -150l196 150h309z" />
    <glyph glyph-name="uni01EF" unicode="&#x1ef;" horiz-adv-x="1501" 
d="M121 897v270h1239v-264l-492 -338q147 -5 259.5 -41.5t181 -98t103 -139t34.5 -169.5q0 -218 -186 -353t-525 -135q-324 0 -516.5 147t-204.5 378h351q18 -116 113 -185t257 -69q161 0 250.5 62.5t89.5 170.5q0 102 -84.5 161.5t-269.5 59.5h-234v230l449 313h-815z
M1237 1659l-293 -375h-383l-293 375h297l189 -193l186 193h297z" />
    <glyph glyph-name="uni01F0" unicode="&#x1f0;" horiz-adv-x="616" 
d="M492 1182v-1078q0 -224 -131 -349.5t-402 -125.5q-100 0 -198.5 20t-163.5 48v280q124 -59 280 -59q138 0 193 53t55 185v1026h367zM793 1659l-293 -375h-383l-293 375h297l188 -193l187 193h297z" />
    <glyph glyph-name="uni01F1" unicode="&#x1f1;" horiz-adv-x="3434" 
d="M152 1536h743q267 0 471.5 -95.5t317 -270t112.5 -402.5t-112.5 -402.5t-317 -270t-471.5 -95.5h-743v1536zM3348 0h-1462v274l959 965h-951v297h1448v-272l-956 -967h962v-297zM524 1204v-872h398q227 0 361 118.5t134 317.5t-134 317.5t-361 118.5h-398z" />
    <glyph glyph-name="uni01F2" unicode="&#x1f2;" horiz-adv-x="3256" 
d="M152 1536h743q267 0 471.5 -95.5t317 -270t112.5 -402.5t-112.5 -402.5t-317 -270t-471.5 -95.5h-743v1536zM3178 0h-1234v258l768 639h-762v270h1224v-258l-768 -641h772v-268zM524 1204v-872h398q227 0 361 118.5t134 317.5t-134 317.5t-361 118.5h-398z" />
    <glyph glyph-name="uni01F3" unicode="&#x1f3;" horiz-adv-x="3041" 
d="M1522 1577v-1577h-367v248q-88 -134 -217.5 -207.5t-288.5 -73.5q-257 0 -417 170.5t-160 446.5q0 275 160 444.5t417 169.5q158 0 288.5 -72t217.5 -204v655h367zM2963 0h-1234v258l768 639h-762v270h1224v-258l-768 -641h772v-268zM442 584q0 -146 88 -239t226 -93
q136 0 249 92t166 240q-53 147 -166 238t-249 91q-138 0 -226 -92t-88 -237z" />
    <glyph glyph-name="uni01F4" unicode="&#x1f4;" horiz-adv-x="1961" 
d="M997 274q181 0 313 62.5t195 177.5h-463v268h801v-782h-266l-18 229q-99 -123 -254.5 -192.5t-360.5 -69.5q-181 0 -338 54.5t-273.5 155.5t-183.5 253.5t-67 337.5q0 186 67 338t185.5 253t280 155.5t350.5 54.5q241 0 428 -78t296 -212t140 -310h-377q-32 132 -162 208
t-325 76q-236 0 -371 -126.5t-135 -358.5q0 -236 143.5 -365t394.5 -129zM735 1653l301 336h422l-350 -336h-373z" />
    <glyph glyph-name="uni01F5" unicode="&#x1f5;" horiz-adv-x="1642" 
d="M635 113q-161 0 -290 67t-203 191t-74 284t74 284.5t203 191.5t290 67t294 -68t226 -176v213h369v-856q0 -214 -98.5 -369.5t-273.5 -234t-407 -78.5q-159 0 -295 41t-268 127v285q232 -180 541 -180q432 0 432 389v55q-92 -105 -225 -169t-295 -64zM618 1284l254 375
h361l-270 -375h-345zM758 369q264 0 409 286q-147 289 -409 289q-149 0 -235.5 -78.5t-86.5 -210.5q0 -131 85 -208.5t237 -77.5z" />
    <glyph glyph-name="uni01F8" unicode="&#x1f8;" horiz-adv-x="1966" 
d="M637 1536l815 -1114v1114h363v-1536h-472l-829 1137v-1137h-362v1536h485zM915 1989l302 -336h-373l-350 336h421z" />
    <glyph glyph-name="uni01F9" unicode="&#x1f9;" horiz-adv-x="1583" 
d="M948 1198q249 0 388 -147t139 -402v-649h-369v594q0 148 -73 225.5t-210 77.5q-145 0 -229 -90t-84 -244v-563h-369v1167h369v-202q76 114 189 173.5t249 59.5zM743 1659l254 -375h-344l-270 375h360z" />
    <glyph glyph-name="Aringacute" unicode="&#x1fa;" horiz-adv-x="1921" 
d="M719 1536h483l713 -1536h-399l-140 315h-831l-139 -315h-400zM963 1622q-181 0 -282 69.5t-101 194.5q0 100 63.5 164.5t183.5 87.5l134 338h337l-194 -338q116 -25 177.5 -89.5t61.5 -162.5q0 -125 -99.5 -194.5t-280.5 -69.5zM678 616h563l-280 633zM963 1786
q172 0 172 100q0 101 -172 101q-175 0 -175 -101q0 -100 175 -100z" />
    <glyph glyph-name="aringacute" unicode="&#x1fb;" horiz-adv-x="1665" 
d="M1028 0v154q-82 -82 -202.5 -134.5t-264.5 -52.5q-219 0 -360.5 106t-141.5 283q0 175 139 275.5t363 111.5q37 2 103 2q189 0 305 -38q15 -6 55 -21q-25 232 -389 232q-262 0 -479 -115v270q256 125 565 125q110 0 207 -19t181.5 -60.5t145.5 -102t96 -149.5t35 -197
v-670h-358zM825 1264q-170 0 -268 73t-98 199q0 99 60 166t171 92l135 342h338l-196 -342q108 -26 166.5 -93t58.5 -165q0 -126 -98 -199t-269 -73zM1026 487q-73 41 -283 41q-346 0 -346 -153q0 -71 72.5 -115.5t192.5 -44.5q87 0 168 29t138.5 93t57.5 150zM825 1419
q75 0 116.5 30.5t41.5 86.5q0 57 -41.5 88t-116.5 31q-74 0 -114.5 -31t-40.5 -88q0 -55 40.5 -86t114.5 -31z" />
    <glyph glyph-name="AEacute" unicode="&#x1fc;" horiz-adv-x="2570" 
d="M2384 627h-823l131 -320h802v-307h-1067l-122 315h-766l-127 -315h-400l658 1536h1769v-307h-1116l131 -320h930v-282zM1286 1653l301 336h422l-350 -336h-373zM664 616h524l-256 656z" />
    <glyph glyph-name="aeacute" unicode="&#x1fd;" horiz-adv-x="2580" 
d="M1430 0h-271l-14 231q-88 -126 -214.5 -195t-281.5 -69q-257 0 -417 170.5t-160 446.5q0 275 160 444.5t417 169.5q154 0 281.5 -68t214.5 -192l14 229h271l6 -147q172 178 458 178q196 0 338 -90t212 -248.5t63 -365.5h-951q36 -122 148.5 -187t296.5 -65q261 0 475 129
v-234q-235 -170 -518 -170q-164 0 -297 52.5t-223 146.5zM1087 1284l254 375h361l-270 -375h-345zM442 584q0 -146 88 -239t226 -93q136 0 249 92t166 240q-53 147 -166 238t-249 91q-138 0 -226 -92t-88 -237zM1866 942q-124 0 -208.5 -64.5t-107.5 -179.5h633
q-59 244 -317 244z" />
    <glyph glyph-name="Oslashacute" unicode="&#x1fe;" horiz-adv-x="1964" 
d="M121 -33l198 230q-115 105 -177 251.5t-62 319.5q0 237 112.5 419t317 282t471.5 100q234 0 440 -88l76 88h344l-199 -232q240 -223 240 -569q0 -237 -112.5 -419t-317 -282t-471.5 -100q-241 0 -440 86l-76 -86h-344zM451 768q0 -181 98 -305l647 756q-94 30 -215 30
q-245 0 -387.5 -129t-142.5 -352zM981 287q246 0 389 129t143 352q0 181 -98 305l-647 -756q95 -30 213 -30zM750 1653l301 336h422l-351 -336h-372z" />
    <glyph glyph-name="oslashacute" unicode="&#x1ff;" horiz-adv-x="1601" 
d="M86 -59l174 204q-93 80 -143.5 192.5t-50.5 246.5q0 275 202.5 444.5t532.5 169.5q177 0 317 -49l64 76h334l-175 -203q195 -170 195 -438q0 -183 -91.5 -323t-258.5 -217t-385 -77q-174 0 -316 51l-65 -77h-334zM596 1284l254 375h360l-270 -375h-344zM420 584
q0 -117 47 -197l465 545q-62 16 -131 16q-177 0 -279 -97.5t-102 -266.5zM801 219q178 0 280.5 98t102.5 267q0 113 -47 196l-467 -544q70 -17 131 -17z" />
    <glyph glyph-name="uni0200" unicode="&#x200;" horiz-adv-x="1921" 
d="M719 1536h483l713 -1536h-399l-140 315h-831l-139 -315h-400zM616 1989l250 -336h-325l-281 336h356zM1126 1989l250 -336h-325l-283 336h358zM678 616h563l-280 633z" />
    <glyph glyph-name="uni0201" unicode="&#x201;" horiz-adv-x="1665" 
d="M1028 0v154q-82 -82 -202.5 -134.5t-264.5 -52.5q-219 0 -360.5 106t-141.5 283q0 175 139 275.5t363 111.5q37 2 103 2q189 0 305 -38q15 -6 55 -21q-25 232 -389 232q-262 0 -479 -115v270q256 125 565 125q110 0 207 -19t181.5 -60.5t145.5 -102t96 -149.5t35 -197
v-670h-358zM512 1659l227 -375h-311l-246 375h330zM993 1659l228 -375h-312l-243 375h327zM1026 487q-73 41 -283 41q-346 0 -346 -153q0 -71 72.5 -115.5t192.5 -44.5q87 0 168 29t138.5 93t57.5 150z" />
    <glyph glyph-name="uni0202" unicode="&#x202;" horiz-adv-x="1921" 
d="M719 1536h483l713 -1536h-399l-140 315h-831l-139 -315h-400zM1456 1647h-285q-57 127 -208 127q-154 0 -211 -127h-285q45 175 175.5 265.5t320.5 90.5t319 -90.5t174 -265.5zM678 616h563l-280 633z" />
    <glyph glyph-name="uni0203" unicode="&#x203;" horiz-adv-x="1665" 
d="M1028 0v154q-82 -82 -202.5 -134.5t-264.5 -52.5q-219 0 -360.5 106t-141.5 283q0 175 139 275.5t363 111.5q37 2 103 2q189 0 305 -38q15 -6 55 -21q-25 232 -389 232q-262 0 -479 -115v270q256 125 565 125q110 0 207 -19t181.5 -60.5t145.5 -102t96 -149.5t35 -197
v-670h-358zM1300 1284h-276q-15 76 -68 119t-131 43q-79 0 -132 -42.5t-68 -119.5h-275q28 184 150.5 285.5t324.5 101.5q200 0 322.5 -101.5t152.5 -285.5zM1026 487q-73 41 -283 41q-346 0 -346 -153q0 -71 72.5 -115.5t192.5 -44.5q87 0 168 29t138.5 93t57.5 150z" />
    <glyph glyph-name="uni0204" unicode="&#x204;" horiz-adv-x="1605" 
d="M479 627v-320h1024v-307h-1399v1536h1389v-307h-1014v-320h957v-282h-957zM465 1989l250 -336h-326l-280 336h356zM975 1989l250 -336h-326l-283 336h359z" />
    <glyph glyph-name="uni0205" unicode="&#x205;" horiz-adv-x="1486" 
d="M791 -33q-208 0 -373 77t-258.5 218.5t-93.5 323.5q0 180 90 320t248.5 216t357.5 76q303 0 479 -196.5t176 -528.5h-956q42 -111 151 -171t275 -60q131 0 262.5 37t236.5 104v-242q-249 -174 -595 -174zM442 1659l228 -375h-312l-245 375h329zM924 1659l227 -375h-311
l-244 375h328zM766 932q-123 0 -206 -60t-111 -163h618q-29 108 -106.5 165.5t-194.5 57.5z" />
    <glyph glyph-name="uni0206" unicode="&#x206;" horiz-adv-x="1605" 
d="M479 627v-320h1024v-307h-1399v1536h1389v-307h-1014v-320h957v-282h-957zM1305 1647h-285q-57 127 -209 127q-154 0 -211 -127h-285q45 175 175.5 265.5t320.5 90.5t319.5 -90.5t174.5 -265.5z" />
    <glyph glyph-name="uni0207" unicode="&#x207;" horiz-adv-x="1486" 
d="M791 -33q-208 0 -373 77t-258.5 218.5t-93.5 323.5q0 180 90 320t248.5 216t357.5 76q303 0 479 -196.5t176 -528.5h-956q42 -111 151 -171t275 -60q131 0 262.5 37t236.5 104v-242q-249 -174 -595 -174zM1233 1284h-277q-15 76 -67.5 119t-130.5 43q-80 0 -133 -43
t-68 -119h-274q28 184 150.5 285.5t324.5 101.5q200 0 322.5 -101.5t152.5 -285.5zM766 932q-123 0 -206 -60t-111 -163h618q-29 108 -106.5 165.5t-194.5 57.5z" />
    <glyph glyph-name="uni0208" unicode="&#x208;" horiz-adv-x="677" 
d="M152 0v1536h374v-1536h-374zM-172 1989h301l186 -336h-282zM252 1989h301l190 -336h-286z" />
    <glyph glyph-name="uni0209" unicode="&#x209;" horiz-adv-x="616" 
d="M125 0v1182h367v-1182h-367zM-131 1659h262l188 -375h-243zM227 1659h262l189 -375h-246z" />
    <glyph glyph-name="uni020A" unicode="&#x20a;" horiz-adv-x="677" 
d="M152 0v1536h374v-1536h-374zM834 1647h-285q-57 127 -209 127q-154 0 -211 -127h-285q45 175 175.5 265.5t320.5 90.5t319.5 -90.5t174.5 -265.5z" />
    <glyph glyph-name="uni020B" unicode="&#x20b;" horiz-adv-x="616" 
d="M125 0v1182h367v-1182h-367zM696 1284h-245q-11 72 -49 114t-95 42q-58 0 -95 -41.5t-48 -114.5h-246q15 179 118.5 283t270.5 104q165 0 269.5 -104t119.5 -283z" />
    <glyph glyph-name="uni020C" unicode="&#x20c;" horiz-adv-x="1964" 
d="M983 -33q-268 0 -473 100t-317.5 282t-112.5 419t112.5 419t317.5 282t473 100q267 0 471.5 -100t317 -282t112.5 -419t-112.5 -419t-317 -282t-471.5 -100zM637 1989l250 -336h-326l-280 336h356zM1147 1989l250 -336h-326l-283 336h359zM983 301q242 0 383 126t141 341
t-141 341t-383 126q-243 0 -383.5 -125.5t-140.5 -341.5t140.5 -341.5t383.5 -125.5z" />
    <glyph glyph-name="uni020D" unicode="&#x20d;" horiz-adv-x="1601" 
d="M801 -33q-218 0 -385 77t-258.5 217t-91.5 323q0 275 202.5 444.5t532.5 169.5t532.5 -169.5t202.5 -444.5q0 -183 -91.5 -323t-258.5 -217t-385 -77zM487 1659l228 -375h-312l-245 375h329zM969 1659l227 -375h-311l-244 375h328zM801 246q169 0 266.5 90t97.5 248
q0 157 -97.5 247.5t-266.5 90.5t-266 -90.5t-97 -247.5q0 -158 97 -248t266 -90z" />
    <glyph glyph-name="uni020E" unicode="&#x20e;" horiz-adv-x="1964" 
d="M983 -33q-268 0 -473 100t-317.5 282t-112.5 419t112.5 419t317.5 282t473 100q267 0 471.5 -100t317 -282t112.5 -419t-112.5 -419t-317 -282t-471.5 -100zM1477 1647h-285q-57 127 -209 127q-154 0 -211 -127h-285q45 175 175.5 265.5t320.5 90.5t319.5 -90.5
t174.5 -265.5zM983 301q242 0 383 126t141 341t-141 341t-383 126q-243 0 -383.5 -125.5t-140.5 -341.5t140.5 -341.5t383.5 -125.5z" />
    <glyph glyph-name="uni020F" unicode="&#x20f;" horiz-adv-x="1601" 
d="M801 -33q-218 0 -385 77t-258.5 217t-91.5 323q0 275 202.5 444.5t532.5 169.5t532.5 -169.5t202.5 -444.5q0 -183 -91.5 -323t-258.5 -217t-385 -77zM1276 1284h-277q-15 76 -67.5 119t-130.5 43q-80 0 -133 -43t-68 -119h-274q28 184 150.5 285.5t324.5 101.5
q200 0 322.5 -101.5t152.5 -285.5zM801 246q169 0 266.5 90t97.5 248q0 157 -97.5 247.5t-266.5 90.5t-266 -90.5t-97 -247.5q0 -158 97 -248t266 -90z" />
    <glyph glyph-name="uni0210" unicode="&#x210;" horiz-adv-x="1714" 
d="M1223 0l-445 573h-252v-573h-374v1536h888q257 0 414.5 -133t157.5 -350q0 -179 -113 -303.5t-305 -161.5l465 -588h-436zM492 1989l249 -336h-325l-281 336h357zM1001 1989l250 -336h-325l-283 336h358zM526 858h467q112 0 176 52t64 143q0 92 -63.5 143t-176.5 51h-467
v-389z" />
    <glyph glyph-name="uni0211" unicode="&#x211;" horiz-adv-x="1101" 
d="M1071 1182v-318q-116 25 -207 25q-76 0 -139 -23t-111.5 -69.5t-75 -123t-26.5 -177.5v-496h-369v1167h369v-266q125 297 410 297q77 0 149 -16zM283 1659l227 -375h-311l-246 375h330zM764 1659l227 -375h-311l-244 375h328z" />
    <glyph glyph-name="uni0212" unicode="&#x212;" horiz-adv-x="1714" 
d="M1223 0l-445 573h-252v-573h-374v1536h888q257 0 414.5 -133t157.5 -350q0 -179 -113 -303.5t-305 -161.5l465 -588h-436zM1331 1647h-284q-57 127 -209 127q-154 0 -211 -127h-285q45 175 175.5 265.5t320.5 90.5t319 -90.5t174 -265.5zM526 858h467q112 0 176 52
t64 143q0 92 -63.5 143t-176.5 51h-467v-389z" />
    <glyph glyph-name="uni0213" unicode="&#x213;" horiz-adv-x="1101" 
d="M1071 1182v-318q-116 25 -207 25q-76 0 -139 -23t-111.5 -69.5t-75 -123t-26.5 -177.5v-496h-369v1167h369v-266q125 297 410 297q77 0 149 -16zM1071 1284h-276q-15 76 -68 119t-131 43q-80 0 -133 -43t-68 -119h-274q28 184 150.5 285.5t324.5 101.5
q200 0 322.5 -101.5t152.5 -285.5z" />
    <glyph glyph-name="uni0214" unicode="&#x214;" horiz-adv-x="1787" 
d="M506 1536v-858q0 -175 101.5 -276t285.5 -101q187 0 288 100t101 277v858h373v-877q0 -154 -55 -282.5t-154 -219t-241.5 -140.5t-311.5 -50q-341 0 -551.5 191t-210.5 501v877h375zM549 1989l250 -336h-326l-280 336h356zM1059 1989l250 -336h-326l-283 336h359z" />
    <glyph glyph-name="uni0215" unicode="&#x215;" horiz-adv-x="1560" 
d="M1415 0h-366v199q-75 -112 -185 -171t-243 -59q-242 0 -377 146.5t-135 400.5v651h368v-596q0 -147 68.5 -224t199.5 -77q142 0 223 88.5t81 243.5v565h368v-772zM461 1659l227 -375h-311l-246 375h330zM942 1659l227 -375h-311l-244 375h328z" />
    <glyph glyph-name="uni0216" unicode="&#x216;" horiz-adv-x="1787" 
d="M506 1536v-858q0 -175 101.5 -276t285.5 -101q187 0 288 100t101 277v858h373v-877q0 -154 -55 -282.5t-154 -219t-241.5 -140.5t-311.5 -50q-341 0 -551.5 191t-210.5 501v877h375zM1389 1647h-285q-57 127 -209 127q-154 0 -211 -127h-285q45 175 175.5 265.5
t320.5 90.5t319.5 -90.5t174.5 -265.5z" />
    <glyph glyph-name="uni0217" unicode="&#x217;" horiz-adv-x="1560" 
d="M1415 0h-366v199q-75 -112 -185 -171t-243 -59q-242 0 -377 146.5t-135 400.5v651h368v-596q0 -147 68.5 -224t199.5 -77q142 0 223 88.5t81 243.5v565h368v-772zM1249 1284h-276q-15 76 -68 119t-131 43q-80 0 -133 -43t-68 -119h-274q28 184 150.5 285.5t324.5 101.5
q200 0 322.5 -101.5t152.5 -285.5z" />
    <glyph glyph-name="uni0218" unicode="&#x218;" horiz-adv-x="1699" 
d="M76 502h379q15 -111 128.5 -176.5t293.5 -65.5q175 0 273.5 48.5t98.5 137.5q0 71 -59 107t-213 53l-299 33q-303 30 -441.5 139t-138.5 307q0 151 90 260.5t254 166.5t385 57q325 0 535 -138.5t225 -363.5h-381q-12 96 -114.5 152.5t-272.5 56.5q-159 0 -251.5 -46.5
t-92.5 -129.5q0 -66 56 -101.5t196 -52.5l317 -35q319 -34 450.5 -131t131.5 -293q0 -235 -207.5 -377.5t-548.5 -142.5q-349 0 -567 147.5t-227 387.5zM840 -600h-181l119 197q-61 15 -96 55t-35 96q0 72 55.5 116t147.5 44t147.5 -45t55.5 -117q0 -50 -22 -90t-91 -129z
" />
    <glyph glyph-name="uni0219" unicode="&#x219;" horiz-adv-x="1492" 
d="M1427 373q0 -194 -170 -300t-483 -106q-321 0 -516.5 116.5t-204.5 309.5h375q20 -82 113.5 -128t244.5 -46q281 0 281 119q0 46 -51 69t-182 33l-213 17q-147 12 -252 43t-165.5 78.5t-88 105.5t-27.5 131q0 186 170.5 284.5t462.5 98.5q189 0 340 -50.5t241 -141.5
t103 -209h-375q-15 68 -94.5 112.5t-230.5 44.5q-123 0 -189.5 -28t-66.5 -80q0 -42 42 -64.5t150 -31.5l279 -23q143 -11 242 -40t157 -75.5t83 -104t25 -134.5zM748 -600h-181l119 197q-61 15 -96 55t-35 96q0 72 55.5 116t147.5 44t147.5 -45t55.5 -117q0 -50 -22 -90
t-91 -129z" />
    <glyph glyph-name="uni021A" unicode="&#x21a;" horiz-adv-x="1650" 
d="M639 0v1204h-602v332h1577v-332h-602v-1204h-373zM815 -600h-180l119 197q-61 15 -96 55t-35 96q0 72 55 116t147 44t147.5 -45t55.5 -117q0 -50 -22 -90t-91 -129z" />
    <glyph glyph-name="uni021B" unicode="&#x21b;" horiz-adv-x="1202" 
d="M252 893h-242v162l242 84l158 338h211v-310h507v-274h-507v-399q0 -132 54.5 -185t192.5 -53q153 0 281 59v-280q-67 -28 -166 -48t-199 -20q-269 0 -400.5 125.5t-131.5 349.5v451zM659 -600h-180l119 197q-61 15 -96 55t-35 96q0 72 55.5 116t147.5 44t147 -45t55 -117
q0 -51 -22 -91t-90 -128z" />
    <glyph glyph-name="uni021C" unicode="&#x21c;" horiz-adv-x="1652" 
d="M129 1243v293h1366v-272l-518 -361q302 -9 449 -121.5t147 -312.5q0 -225 -196.5 -363.5t-555.5 -138.5q-351 0 -562.5 145t-223.5 390h373q36 -242 413 -242q182 0 276.5 59t94.5 170q0 101 -82.5 154t-273.5 53h-236v250l432 297h-903z" />
    <glyph glyph-name="uni021D" unicode="&#x21d;" horiz-adv-x="1501" 
d="M121 897v270h1239v-264l-492 -338q147 -5 259.5 -41.5t181 -98t103 -139t34.5 -169.5q0 -218 -186 -353t-525 -135q-324 0 -516.5 147t-204.5 378h351q18 -116 113 -185t257 -69q161 0 250.5 62.5t89.5 170.5q0 102 -84.5 161.5t-269.5 59.5h-234v230l449 313h-815z" />
    <glyph glyph-name="uni021E" unicode="&#x21e;" horiz-adv-x="1900" 
d="M152 0v1536h374v-594h850v594h373v-1536h-373v614h-850v-614h-374zM1456 1989l-307 -336h-395l-310 336h312l194 -150l197 150h309z" />
    <glyph glyph-name="uni021F" unicode="&#x21f;" horiz-adv-x="1564" 
d="M125 0v1577h367v-612q76 114 189.5 173.5t250.5 59.5q247 0 385.5 -147t138.5 -402v-649h-366v594q0 148 -73 225.5t-210 77.5q-146 0 -230.5 -90t-84.5 -244v-563h-367zM1323 2030l-307 -336h-395l-310 336h312l194 -150l197 150h309z" />
    <glyph glyph-name="uni0220" unicode="&#x220;" horiz-adv-x="1814" 
d="M152 0v1536h374v-248q171 281 543 281q283 0 445.5 -164.5t162.5 -446.5v-1296h-374v1208q0 177 -95 270t-276 93q-189 0 -297.5 -100t-108.5 -271v-862h-374z" />
    <glyph glyph-name="uni0226" unicode="&#x226;" horiz-adv-x="1921" 
d="M719 1536h483l713 -1536h-399l-140 315h-831l-139 -315h-400zM678 616h563l-280 633zM963 1663q-101 0 -161.5 50t-60.5 136q0 85 61 136t161 51q98 0 158.5 -51t60.5 -136q0 -86 -60 -136t-159 -50z" />
    <glyph glyph-name="uni0227" unicode="&#x227;" horiz-adv-x="1665" 
d="M1028 0v154q-82 -82 -202.5 -134.5t-264.5 -52.5q-219 0 -360.5 106t-141.5 283q0 175 139 275.5t363 111.5q37 2 103 2q189 0 305 -38q15 -6 55 -21q-25 232 -389 232q-262 0 -479 -115v270q256 125 565 125q110 0 207 -19t181.5 -60.5t145.5 -102t96 -149.5t35 -197
v-670h-358zM1026 487q-73 41 -283 41q-346 0 -346 -153q0 -71 72.5 -115.5t192.5 -44.5q87 0 168 29t138.5 93t57.5 150zM827 1292q-100 0 -160.5 51t-60.5 136t60.5 135.5t160.5 50.5q99 0 159.5 -51t60.5 -135t-60.5 -135.5t-159.5 -51.5z" />
    <glyph glyph-name="uni0228" unicode="&#x228;" horiz-adv-x="1605" 
d="M479 627v-320h1024v-307h-573l-53 -92q41 8 100 8q134 0 208.5 -52t74.5 -145q0 -100 -98 -161.5t-275 -61.5q-159 0 -267 58t-139 159h246q33 -57 160 -57q67 0 102 20t35 52q0 30 -30 47.5t-87 17.5q-68 0 -123 -20h-186l145 227h-639v1536h1389v-307h-1014v-320h957
v-282h-957z" />
    <glyph glyph-name="uni0229" unicode="&#x229;" horiz-adv-x="1486" 
d="M524 -227l131 202q-264 37 -426.5 202.5t-162.5 408.5q0 180 90 320t248.5 216t357.5 76q303 0 479 -196.5t176 -528.5h-956q42 -111 151 -171t275 -60q131 0 262.5 37t236.5 104v-242q-231 -159 -546 -174l-41 -63q48 10 96 10q133 0 202.5 -51.5t69.5 -145.5
q0 -97 -94 -159t-262 -62q-152 0 -258 59.5t-137 157.5h227q43 -61 168 -61q66 0 100.5 19.5t34.5 54.5q0 32 -29 51.5t-88 19.5q-54 0 -112 -24h-193zM766 932q-123 0 -206 -60t-111 -163h618q-29 108 -106.5 165.5t-194.5 57.5z" />
    <glyph glyph-name="uni022A" unicode="&#x22a;" horiz-adv-x="1964" 
d="M983 -33q-268 0 -473 100t-317.5 282t-112.5 419t112.5 419t317.5 282t473 100q267 0 471.5 -100t317 -282t112.5 -419t-112.5 -419t-317 -282t-471.5 -100zM983 301q242 0 383 126t141 341t-141 341t-383 126q-243 0 -383.5 -125.5t-140.5 -341.5t140.5 -341.5
t383.5 -125.5zM670 1663q-94 0 -150.5 47.5t-56.5 130.5q0 81 56.5 128.5t150.5 47.5t150.5 -47.5t56.5 -128.5q0 -83 -56.5 -130.5t-150.5 -47.5zM1294 1663q-94 0 -150.5 47.5t-56.5 130.5q0 81 56.5 128.5t150.5 47.5t150.5 -47.5t56.5 -128.5q0 -83 -56.5 -130.5
t-150.5 -47.5zM1464 2122h-960v225h960v-225z" />
    <glyph glyph-name="uni022B" unicode="&#x22b;" horiz-adv-x="1601" 
d="M801 -33q-218 0 -385 77t-258.5 217t-91.5 323q0 275 202.5 444.5t532.5 169.5t532.5 -169.5t202.5 -444.5q0 -183 -91.5 -323t-258.5 -217t-385 -77zM801 246q169 0 266.5 90t97.5 248q0 157 -97.5 247.5t-266.5 90.5t-266 -90.5t-97 -247.5q0 -158 97 -248t266 -90z
M494 1292q-95 0 -151 48.5t-56 132.5q0 79 56.5 126.5t150.5 47.5t150 -47.5t56 -126.5q0 -84 -56 -132.5t-150 -48.5zM1110 1292q-95 0 -151 48.5t-56 132.5q0 79 56.5 126.5t150.5 47.5q93 0 150 -47.5t57 -126.5q0 -84 -57 -132.5t-150 -48.5zM1282 1747h-960v227h960
v-227z" />
    <glyph glyph-name="uni022C" unicode="&#x22c;" horiz-adv-x="1964" 
d="M983 -33q-268 0 -473 100t-317.5 282t-112.5 419t112.5 419t317.5 282t473 100q267 0 471.5 -100t317 -282t112.5 -419t-112.5 -419t-317 -282t-471.5 -100zM983 301q242 0 383 126t141 341t-141 341t-383 126q-243 0 -383.5 -125.5t-140.5 -341.5t140.5 -341.5
t383.5 -125.5zM690 1665h-244q19 159 103 246.5t233 87.5q64 0 139 -26.5t139 -52.5t103 -26q44 0 73.5 25.5t35.5 69.5h244q-21 -158 -105 -245t-233 -87q-64 0 -138.5 25.5t-138 51t-102.5 25.5q-45 0 -74 -24.5t-35 -69.5zM1462 2107h-960v226h960v-226z" />
    <glyph glyph-name="uni022D" unicode="&#x22d;" horiz-adv-x="1601" 
d="M801 -33q-218 0 -385 77t-258.5 217t-91.5 323q0 275 202.5 444.5t532.5 169.5t532.5 -169.5t202.5 -444.5q0 -183 -91.5 -323t-258.5 -217t-385 -77zM530 1300h-225q9 172 82.5 268.5t208.5 96.5q49 0 105.5 -17.5t98 -38t87 -38t74.5 -17.5q44 0 72.5 28t37.5 79h225
q-8 -169 -80.5 -265t-209.5 -96q-62 0 -134 28t-133.5 55.5t-97.5 27.5q-43 0 -72.5 -29.5t-38.5 -81.5zM1282 1798h-960v227h960v-227zM801 246q169 0 266.5 90t97.5 248q0 157 -97.5 247.5t-266.5 90.5t-266 -90.5t-97 -247.5q0 -158 97 -248t266 -90z" />
    <glyph glyph-name="uni022E" unicode="&#x22e;" horiz-adv-x="1964" 
d="M983 -33q-268 0 -473 100t-317.5 282t-112.5 419t112.5 419t317.5 282t473 100q267 0 471.5 -100t317 -282t112.5 -419t-112.5 -419t-317 -282t-471.5 -100zM983 301q242 0 383 126t141 341t-141 341t-383 126q-243 0 -383.5 -125.5t-140.5 -341.5t140.5 -341.5
t383.5 -125.5zM983 1663q-100 0 -160.5 50t-60.5 136q0 85 60.5 136t160.5 51q98 0 158.5 -51t60.5 -136q0 -86 -60 -136t-159 -50z" />
    <glyph glyph-name="uni022F" unicode="&#x22f;" horiz-adv-x="1601" 
d="M801 -33q-218 0 -385 77t-258.5 217t-91.5 323q0 275 202.5 444.5t532.5 169.5t532.5 -169.5t202.5 -444.5q0 -183 -91.5 -323t-258.5 -217t-385 -77zM801 246q169 0 266.5 90t97.5 248q0 157 -97.5 247.5t-266.5 90.5t-266 -90.5t-97 -247.5q0 -158 97 -248t266 -90z
M803 1292q-100 0 -160.5 51t-60.5 136t60.5 135.5t160.5 50.5q99 0 159 -51t60 -135q0 -85 -60.5 -136t-158.5 -51z" />
    <glyph glyph-name="uni0230" unicode="&#x230;" horiz-adv-x="1964" 
d="M983 -33q-268 0 -473 100t-317.5 282t-112.5 419t112.5 419t317.5 282t473 100q267 0 471.5 -100t317 -282t112.5 -419t-112.5 -419t-317 -282t-471.5 -100zM1462 2122h-960v225h960v-225zM983 1663q-100 0 -160.5 50t-60.5 136q0 85 60.5 136t160.5 51q98 0 158.5 -51
t60.5 -136q0 -86 -60 -136t-159 -50zM983 301q242 0 383 126t141 341t-141 341t-383 126q-243 0 -383.5 -125.5t-140.5 -341.5t140.5 -341.5t383.5 -125.5z" />
    <glyph glyph-name="uni0231" unicode="&#x231;" horiz-adv-x="1601" 
d="M801 -33q-218 0 -385 77t-258.5 217t-91.5 323q0 275 202.5 444.5t532.5 169.5t532.5 -169.5t202.5 -444.5q0 -183 -91.5 -323t-258.5 -217t-385 -77zM801 246q169 0 266.5 90t97.5 248q0 157 -97.5 247.5t-266.5 90.5t-266 -90.5t-97 -247.5q0 -158 97 -248t266 -90z
M803 1292q-100 0 -160.5 51t-60.5 136t60.5 135.5t160.5 50.5q99 0 159 -51t60 -135q0 -85 -60.5 -136t-158.5 -51zM1282 1747h-960v227h960v-227z" />
    <glyph glyph-name="uni0232" unicode="&#x232;" horiz-adv-x="1853" 
d="M1114 0h-373v621l-721 915h414l494 -625l491 625h414l-719 -911v-625zM1407 1702h-961v225h961v-225z" />
    <glyph glyph-name="uni0233" unicode="&#x233;" horiz-adv-x="1548" 
d="M473 -371q-118 0 -212.5 29.5t-184.5 91.5v260q92 -58 172 -83t174 -25q91 0 154 39.5t104 132.5l4 12h-158l-508 1081h406l360 -850l369 850h391l-575 -1210q-156 -328 -496 -328zM1274 1343h-961v228h961v-228z" />
    <glyph glyph-name="uni0237" unicode="&#x237;" horiz-adv-x="616" 
d="M492 1182v-1078q0 -224 -131 -349.5t-402 -125.5q-100 0 -198.5 20t-163.5 48v280q124 -59 280 -59q138 0 193 53t55 185v1026h367z" />
    <glyph glyph-name="uni0238" unicode="&#x238;" horiz-adv-x="2676" 
d="M647 1198q161 0 292 -74t218 -211v664h365v-662q87 135 218 209t290 74q256 0 415.5 -169.5t159.5 -444.5q0 -276 -159.5 -446.5t-415.5 -170.5q-160 0 -291 75.5t-217 211.5v-254h-365v256q-88 -138 -218.5 -213.5t-291.5 -75.5q-256 0 -415.5 170.5t-159.5 446.5
q0 275 159.5 444.5t415.5 169.5zM442 584q0 -146 87.5 -239t224.5 -93t250 92t165 240q-52 146 -165.5 237.5t-249.5 91.5q-137 0 -224.5 -92t-87.5 -237zM2234 584q0 145 -87 237t-224 92t-250.5 -91.5t-165.5 -237.5q52 -148 165.5 -240t250.5 -92t224 93t87 239z" />
    <glyph glyph-name="uni0239" unicode="&#x239;" horiz-adv-x="2676" 
d="M647 1198q161 0 292 -74t218 -211v254h365v-252q87 135 218 209t290 74q256 0 415.5 -169.5t159.5 -444.5q0 -276 -159.5 -446.5t-415.5 -170.5q-160 0 -291 75.5t-217 211.5v-592h-365v594q-88 -138 -218.5 -213.5t-291.5 -75.5q-256 0 -415.5 170.5t-159.5 446.5
q0 275 159.5 444.5t415.5 169.5zM442 584q0 -146 87.5 -239t224.5 -93t250 92t165 240q-52 146 -165.5 237.5t-249.5 91.5q-137 0 -224.5 -92t-87.5 -237zM2234 584q0 145 -87 237t-224 92t-250.5 -91.5t-165.5 -237.5q52 -148 165.5 -240t250.5 -92t224 93t87 239z" />
    <glyph glyph-name="uni023A" unicode="&#x23a;" horiz-adv-x="1923" 
d="M485 -250l226 565h-164l-139 -315h-400l713 1536h479l98 250h244l-209 -526l584 -1260h-399l-140 315h-424l-225 -565h-244zM680 616h151l195 488l-63 145zM1075 616h168l-88 199z" />
    <glyph glyph-name="uni023B" unicode="&#x23b;" horiz-adv-x="1898" 
d="M397 -250l123 309q-207 96 -322.5 280.5t-115.5 428.5q0 237 109.5 419t310.5 282t463 100q70 0 155 -10l90 227h299l-120 -301q188 -80 303.5 -231t138.5 -349h-377q-35 180 -190 266l-351 -876q16 -2 50 -2q204 0 332 88t159 250h377q-34 -298 -270.5 -481t-595.5 -183
q-74 0 -177 15l-92 -232h-299zM459 768q0 -129 49 -228.5t141 -160.5l344 864h-30q-233 0 -368.5 -127.5t-135.5 -347.5z" />
    <glyph glyph-name="uni023C" unicode="&#x23c;" horiz-adv-x="1536" 
d="M375 -246l88 269q-185 71 -290 218t-105 343q0 180 89.5 320t251.5 217t371 77q43 0 66 -2l69 217h244l-86 -262q172 -59 281 -181.5t129 -285.5h-367q-27 125 -133 186l-205 -624q131 0 222 63.5t116 171.5h367q-28 -228 -224 -371t-479 -143q-30 0 -92 4l-70 -217h-243
zM440 584q0 -184 117 -271l199 609q-146 -8 -231 -97t-85 -241z" />
    <glyph glyph-name="uni023D" unicode="&#x23d;" horiz-adv-x="1615" 
d="M219 1536h375v-549h502v-260h-502v-395h983v-332h-1358v727h-178v260h178v549z" />
    <glyph glyph-name="uni023E" unicode="&#x23e;" horiz-adv-x="1683" 
d="M354 -250l285 522v932h-602v332h1292l137 250h306l-158 -289v-293h-160l-442 -809v-395h-215l-138 -250h-305zM1012 1204v-248l137 248h-137z" />
    <glyph glyph-name="uni0241" unicode="&#x241;" horiz-adv-x="1515" 
d="M793 1569q330 0 509 -130t179 -345q0 -129 -54.5 -217t-193.5 -189l-129 -96q-107 -78 -142.5 -150.5t-35.5 -203.5v-238h-373v297q0 168 54.5 272t183.5 199l139 102q109 80 141.5 118.5t32.5 98.5q0 90 -85.5 139.5t-244.5 49.5q-170 0 -266 -61.5t-117 -176.5h-373
q8 111 62.5 207t150.5 168.5t241 114t321 41.5z" />
    <glyph glyph-name="uni0242" unicode="&#x242;" horiz-adv-x="1402" 
d="M492 0v123q0 108 35.5 180t123.5 131l185 127q81 58 110 96t29 91q0 78 -70 126t-203 48q-154 0 -232.5 -61t-104.5 -187h-361q27 249 204 386.5t499 137.5q287 0 464 -117.5t177 -322.5q0 -128 -51.5 -210t-166.5 -163l-165 -117q-60 -41 -82.5 -83t-22.5 -111v-74h-368
z" />
    <glyph glyph-name="uni0243" unicode="&#x243;" horiz-adv-x="1888" 
d="M45 348v223h164v965h1057q212 0 330 -99.5t118 -273.5q0 -74 -22.5 -138.5t-76 -122.5t-134.5 -95q168 -37 252 -136t84 -243q0 -193 -132 -310.5t-378 -117.5h-1098v348h-164zM580 348v-82h639q103 0 161 50.5t58 142.5q0 94 -66.5 148.5t-191.5 54.5h-600v-91h489v-223
h-489zM580 1270v-355h553q89 0 145.5 51.5t56.5 139.5q0 74 -50 119t-140 45h-565z" />
    <glyph glyph-name="uni0244" unicode="&#x244;" horiz-adv-x="1972" 
d="M598 1536v-537h776v537h373v-537h178v-258h-178v-82q0 -154 -55 -282.5t-154 -219t-241.5 -140.5t-311.5 -50q-341 0 -551.5 191t-210.5 501v82h-178v258h178v537h375zM985 301q187 0 288 100t101 277v63h-776v-63q0 -175 101.5 -276t285.5 -101z" />
    <glyph glyph-name="uni0245" unicode="&#x245;" horiz-adv-x="1857" 
d="M397 0h-389l709 1536h424l710 -1536h-383l-536 1190z" />
    <glyph glyph-name="uni0246" unicode="&#x246;" horiz-adv-x="1605" 
d="M463 -250l80 250h-439v1536h932l80 250h299l-80 -250h158v-307h-258l-102 -320h303v-282h-394l-104 -320h565v-307h-663l-80 -250h-297zM479 307h162l104 320h-266v-320zM479 909h357l102 320h-459v-320z" />
    <glyph glyph-name="uni0247" unicode="&#x247;" horiz-adv-x="1486" 
d="M369 -246l90 275q-183 72 -288 217.5t-105 339.5q0 180 90 320t248.5 216t357.5 76q53 0 78 -4l71 219h242l-90 -278q169 -82 261.5 -253.5t92.5 -408.5h-569l-74 -223q70 -8 113 -8q131 0 262.5 37t236.5 104v-242q-249 -174 -595 -174q-55 0 -107 6l-72 -219h-243z
M754 932q-119 -3 -198.5 -62.5t-106.5 -160.5h231zM1067 709q-28 98 -92 153l-51 -153h143zM461 473q29 -80 98 -137l45 137h-143z" />
    <glyph glyph-name="uni0248" unicode="&#x248;" horiz-adv-x="1726" 
d="M768 774v260h356v502h375v-502h178v-260h-178v-127q0 -320 -200.5 -500t-534.5 -180q-329 0 -525 185t-196 512l-2 86h367v-58q0 -198 85 -298.5t271 -100.5q360 0 360 371v110h-356z" />
    <glyph glyph-name="uni0249" unicode="&#x249;" horiz-adv-x="755" 
d="M561 1182v-369h152v-223h-152v-486q0 -224 -130.5 -349.5t-401.5 -125.5q-100 0 -199 20t-164 48v280q124 -59 281 -59q138 0 193 53t55 185v434h-152v223h152v369h366zM379 1292q-100 0 -160.5 51t-60.5 136t60.5 135.5t160.5 50.5q99 0 159 -51t60 -135
q0 -85 -60.5 -136t-158.5 -51z" />
    <glyph glyph-name="uni024A" unicode="&#x24a;" horiz-adv-x="1986" 
d="M2030 -80q85 0 186 33v-272q-119 -52 -274 -52q-240 0 -358 126.5t-118 365.5v219q-108 -178 -269 -275.5t-363 -97.5q-221 0 -391 100t-263.5 282t-93.5 419t93.5 419t263.5 282t391 100q201 0 363 -96t269 -273v336h369v-1384q0 -119 45 -175.5t150 -56.5zM463 770
q0 -207 128.5 -340t334.5 -133q185 0 335 131t220 342q-71 209 -220 339t-335 130q-205 0 -334 -132t-129 -337z" />
    <glyph glyph-name="uni024B" unicode="&#x24b;" horiz-adv-x="1650" 
d="M1526 1167v-1017q0 -119 45.5 -175.5t150.5 -56.5q82 0 187 33v-279q-124 -43 -275 -43q-240 0 -358.5 126.5t-118.5 365.5v133q-86 -137 -216.5 -212t-291.5 -75q-257 0 -417 170.5t-160 446.5q0 275 160 444.5t417 169.5q160 0 291 -74t217 -209v252h369zM442 584
q0 -146 88 -239t226 -93q136 0 249 92t166 240q-53 147 -166 238t-249 91q-138 0 -226 -92t-88 -237z" />
    <glyph glyph-name="uni024C" unicode="&#x24c;" horiz-adv-x="1794" 
d="M41 580v260h190v696h889q257 0 414.5 -133t157.5 -350q0 -179 -113 -303.5t-305 -161.5l465 -588h-436l-445 573h-252v-573h-375v580h-190zM606 858h467q112 0 176 52t64 143q0 92 -63.5 143t-176.5 51h-467v-389z" />
    <glyph glyph-name="uni024D" unicode="&#x24d;" horiz-adv-x="1142" 
d="M1112 1182v-318q-116 25 -207 25q-147 0 -242 -84t-108 -254h254v-221h-256v-330h-369v330h-149v221h149v616h369v-266q125 297 410 297q77 0 149 -16z" />
    <glyph glyph-name="uni024E" unicode="&#x24e;" horiz-adv-x="1959" 
d="M41 1108v258h166l-133 170h413l134 -170h718l134 170h413l-133 -170h166v-258h-371l-381 -483v-625h-372v621l-383 487h-371zM981 911l154 197h-310z" />
    <glyph glyph-name="uni024F" unicode="&#x24f;" horiz-adv-x="1634" 
d="M33 668v213h155l-133 286h406l121 -286h485l123 286h391l-137 -286h166v-213h-267l-337 -711q-156 -328 -496 -328q-118 0 -212.5 29.5t-184.5 91.5v260q92 -58 172 -83t174 -25q91 0 154 39.5t104 132.5l4 12h-158l-272 582h-258zM821 317l152 351h-301z" />
    <glyph glyph-name="uni0250" unicode="&#x250;" horiz-adv-x="1484" 
d="M915 430q-139 0 -255 44t-197 116v-74q0 -129 96.5 -197.5t292.5 -68.5q259 0 475 115v-271q-250 -125 -561 -125q-309 0 -483 137.5t-174 391.5v669h346v-143q83 78 199.5 127t260.5 49q226 0 370.5 -103.5t144.5 -281.5q0 -176 -145 -280.5t-370 -104.5zM807 655
q116 0 187 43.5t71 116.5q0 75 -71 117.5t-187 42.5q-224 0 -354 -160q130 -160 354 -160z" />
    <glyph glyph-name="uni0251" unicode="&#x251;" horiz-adv-x="1665" 
d="M1028 0v154q-82 -82 -202.5 -134.5t-264.5 -52.5q-219 0 -360.5 106t-141.5 283q0 175 139 275.5t363 111.5q37 2 103 2q189 0 305 -38q15 -6 55 -21q-25 232 -389 232q-262 0 -479 -115v270q256 125 565 125q110 0 207 -19t181.5 -60.5t145.5 -102t96 -149.5t35 -197
v-670h-358zM1026 487q-73 41 -283 41q-346 0 -346 -153q0 -71 72.5 -115.5t192.5 -44.5q87 0 168 29t138.5 93t57.5 150z" />
    <glyph glyph-name="uni0252" unicode="&#x252;" horiz-adv-x="1665" 
d="M637 154v-154h-358v670q0 108 35 197t96 149.5t145.5 102t181.5 60.5t207 19q309 0 565 -125v-270q-217 115 -479 115q-364 0 -389 -232q40 15 55 21q116 38 305 38q66 0 103 -2q224 -11 363 -111.5t139 -275.5q0 -177 -141.5 -283t-360.5 -106q-144 0 -264.5 52.5
t-202.5 134.5zM639 487q0 -65 33.5 -118.5t87 -86t117 -50t127.5 -17.5q120 0 192 44.5t72 115.5q0 153 -346 153q-210 0 -283 -41z" />
    <glyph glyph-name="uni0253" unicode="&#x253;" horiz-adv-x="1648" 
d="M125 0v1098q0 262 135.5 387t433.5 125q170 0 334 -54v-272q-125 49 -270 49q-143 0 -204.5 -63.5t-61.5 -200.5v-190q87 129 217 198.5t290 69.5q257 0 417.5 -163.5t160.5 -426.5t-160.5 -426.5t-417.5 -163.5q-160 0 -289.5 71.5t-217.5 201.5v-240h-367zM1206 557
q0 135 -87.5 220t-225.5 85q-136 0 -249.5 -84t-166.5 -221q53 -136 166.5 -220.5t249.5 -84.5q138 0 225.5 85.5t87.5 219.5z" />
    <glyph glyph-name="uni0254" unicode="&#x254;" horiz-adv-x="1533" 
d="M420 686h-367q28 228 224 371t479 143q209 0 371 -77.5t251.5 -218t89.5 -320.5t-89.5 -320.5t-251.5 -217.5t-371 -77q-283 0 -479 142.5t-224 371.5h367q24 -112 114.5 -174.5t221.5 -62.5q157 0 248.5 90t91.5 248q0 160 -91.5 249t-248.5 89q-130 0 -220.5 -64
t-115.5 -172z" />
    <glyph glyph-name="uni0256" unicode="&#x256;" horiz-adv-x="1751" 
d="M1194 854v723h362v-1415q0 -125 49.5 -178.5t157.5 -53.5q90 0 187 29v-281q-117 -49 -275 -49q-481 0 -481 381v305q-85 -164 -225.5 -256t-319.5 -92q-257 0 -417 170.5t-160 446.5q0 275 160 444.5t417 169.5q178 0 319.5 -90.5t225.5 -253.5zM442 584q0 -146 88 -239
t226 -93q136 0 249 92t166 240q-53 147 -166 238t-249 91q-138 0 -226 -92t-88 -237z" />
    <glyph glyph-name="uni0257" unicode="&#x257;" horiz-adv-x="1646" 
d="M1524 1155v-1155h-369v250q-88 -135 -218 -209t-288 -74q-257 0 -417 170.5t-160 446.5q0 275 160 444.5t417 169.5q159 0 289 -72t217 -206v233q0 457 444 457q148 0 259 -49v-265q-76 39 -166 39q-87 0 -127.5 -43.5t-40.5 -136.5zM442 584q0 -146 88 -239t226 -93
q136 0 249 92t166 240q-53 147 -166 238t-249 91q-138 0 -226 -92t-88 -237z" />
    <glyph glyph-name="uni0259" unicode="&#x259;" horiz-adv-x="1486" 
d="M694 1198q209 0 373.5 -76.5t258 -218t93.5 -323.5q0 -180 -89.5 -320t-247.5 -216.5t-357 -76.5q-304 0 -480.5 200.5t-176.5 537.5h952q-43 106 -150.5 162.5t-269.5 56.5q-127 0 -257 -32.5t-237 -88.5v233q117 75 273 118.5t315 43.5zM721 223q124 0 208 65t109 175
h-628q29 -116 109.5 -178t201.5 -62z" />
    <glyph glyph-name="uni025B" unicode="&#x25b;" horiz-adv-x="1478" 
d="M100 866q0 150 161.5 241t475.5 91q303 0 477 -114.5t187 -290.5h-357q-17 66 -91 108.5t-210 42.5q-138 0 -204 -35t-66 -90q0 -119 248 -119h240v-211h-240q-154 0 -216.5 -29.5t-62.5 -92.5q0 -144 310 -144q160 0 238 41t91 119h361q-4 -68 -33.5 -129t-87 -113.5
t-138.5 -91t-195 -60.5t-249 -22q-168 0 -298.5 29t-210 80t-120 116.5t-40.5 141.5q0 107 74.5 174t242.5 94q-153 33 -220 103t-67 161z" />
    <glyph glyph-name="uni025F" unicode="&#x25f;" horiz-adv-x="755" 
d="M561 1182v-369h152v-223h-152v-486q0 -224 -130.5 -349.5t-401.5 -125.5q-100 0 -199 20t-164 48v280q124 -59 281 -59q138 0 193 53t55 185v434h-152v223h152v369h366z" />
    <glyph glyph-name="uni0260" unicode="&#x260;" horiz-adv-x="1644" 
d="M1724 1610q166 0 334 -54v-264q-131 54 -268 54q-139 0 -202.5 -67.5t-63.5 -203.5v-764q0 -214 -98.5 -369.5t-273.5 -234t-407 -78.5q-159 0 -294.5 42t-268.5 130v277q233 -178 541 -178q212 0 322 97.5t110 293.5v55q-92 -105 -225 -169t-295 -64q-161 0 -290 67
t-203 191t-74 284t74 284.5t203 191.5t290 67t294 -68t226 -176v129q0 269 140.5 398t428.5 129zM758 369q265 0 409 286q-148 289 -409 289q-149 0 -235.5 -78.5t-86.5 -210.5q0 -131 85 -208.5t237 -77.5z" />
    <glyph glyph-name="uni0261" unicode="&#x261;" horiz-adv-x="1642" 
d="M635 113q-161 0 -290 67t-203 191t-74 284t74 284.5t203 191.5t290 67t294 -68t226 -176v213h369v-856q0 -214 -98.5 -369.5t-273.5 -234t-407 -78.5q-159 0 -295 41t-268 127v285q232 -180 541 -180q432 0 432 389v55q-92 -105 -225 -169t-295 -64zM758 369
q264 0 409 286q-147 289 -409 289q-149 0 -235.5 -78.5t-86.5 -210.5q0 -131 85 -208.5t237 -77.5z" />
    <glyph glyph-name="uni0263" unicode="&#x263;" horiz-adv-x="1572" 
d="M786 -371q-181 0 -285 77t-104 208q0 75 37.5 148t130.5 196l-545 909h400l371 -669l376 669h385l-544 -909q93 -123 130.5 -196t37.5 -148q0 -131 -104 -208t-286 -77zM786 -143q46 0 72.5 21.5t26.5 58.5q0 31 -22.5 70.5t-76.5 115.5q-51 -72 -73.5 -113.5
t-22.5 -72.5q0 -37 26 -58.5t70 -21.5z" />
    <glyph glyph-name="uni0264" unicode="&#x264;" horiz-adv-x="1572" 
d="M786 -371q-181 0 -285 77t-104 208q0 75 37.5 148t130.5 196l-545 909h400l371 -669l376 669h385l-544 -909q93 -123 130.5 -196t37.5 -148q0 -131 -104 -208t-286 -77zM786 -143q46 0 72.5 21.5t26.5 58.5q0 31 -22.5 70.5t-76.5 115.5q-51 -72 -73.5 -113.5
t-22.5 -72.5q0 -37 26 -58.5t70 -21.5z" />
    <glyph glyph-name="uni0265" unicode="&#x265;" horiz-adv-x="1544" 
d="M1421 1167v-1505h-368v537q-74 -113 -185 -172.5t-243 -59.5q-245 0 -380.5 146.5t-135.5 402.5v651h368v-596q0 -147 70.5 -225t202.5 -78q139 0 221 90.5t82 243.5v565h368z" />
    <glyph glyph-name="uni0266" unicode="&#x266;" horiz-adv-x="1564" 
d="M125 0v1098q0 262 135.5 387t433.5 125q170 0 334 -54v-272q-125 49 -270 49q-141 0 -203.5 -61.5t-62.5 -196.5v-145q76 113 190 173t250 60q247 0 385.5 -147t138.5 -402v-614h-366v559q0 147 -73 225t-210 78q-146 0 -230.5 -90.5t-84.5 -243.5v-528h-367z" />
    <glyph glyph-name="uni0267" unicode="&#x267;" horiz-adv-x="1564" 
d="M125 0v1098q0 262 135.5 387t433.5 125q170 0 334 -54v-272q-125 49 -270 49q-141 0 -203.5 -61.5t-62.5 -196.5v-145q76 113 190 173t250 60q247 0 385.5 -147t138.5 -402v-493q0 -239 -117.5 -365.5t-357.5 -126.5q-150 0 -274 43v279q101 -33 186 -33q105 0 151 57
t46 175v409q0 147 -73 225t-210 78q-146 0 -230.5 -90.5t-84.5 -243.5v-528h-367z" />
    <glyph glyph-name="uni0268" unicode="&#x268;" horiz-adv-x="753" 
d="M41 590v223h154v369h366v-369h152v-223h-152v-590h-366v590h-154zM377 1292q-100 0 -160.5 51t-60.5 136t60.5 135.5t160.5 50.5q99 0 159 -51t60 -135q0 -85 -60.5 -136t-158.5 -51z" />
    <glyph glyph-name="uni0269" unicode="&#x269;" horiz-adv-x="899" 
d="M115 1167h366v-745q0 -92 43 -131t133 -39q112 0 220 59v-288q-126 -56 -275 -56q-240 0 -363.5 114t-123.5 310v776z" />
    <glyph glyph-name="uni026A" unicode="&#x26a;" horiz-adv-x="1245" 
d="M1171 0h-1097v223h364v721h-364v223h1097v-223h-364v-721h364v-223z" />
    <glyph glyph-name="uni026C" unicode="&#x26c;" horiz-adv-x="1224" 
d="M494 0v571q-54 -4 -78 -4q-186 0 -291 80t-105 221q0 127 81.5 206t226.5 79q94 0 166 -35v459h366v-711q158 59 336 174v-235q-165 -98 -336 -156v-649h-366zM426 768q43 0 68 4v148q-47 53 -127 53q-54 0 -83.5 -26t-29.5 -68q0 -50 41 -80.5t131 -30.5z" />
    <glyph glyph-name="uni026F" unicode="&#x26f;" horiz-adv-x="2437" 
d="M608 -31q-235 0 -367 147t-132 402v649h368v-594q0 -149 65.5 -226t190.5 -77q132 0 208.5 90t76.5 244v563h368v-594q0 -149 65.5 -226t190.5 -77q132 0 208.5 90t76.5 244v563h369v-1167h-369v195q-72 -110 -178 -168t-233 -58q-169 0 -285.5 77.5t-169.5 219.5
q-70 -143 -188.5 -220t-264.5 -77z" />
    <glyph glyph-name="uni0271" unicode="&#x271;" horiz-adv-x="2437" 
d="M2329 649v-528q0 -239 -118 -365.5t-358 -126.5q-153 0 -274 43v279q101 -33 184 -33q105 0 151 57t46 175v444q0 149 -64.5 226t-189.5 77q-133 0 -210 -90t-77 -244v-563h-368v594q0 149 -64.5 226t-189.5 77q-133 0 -210 -90t-77 -244v-563h-369v1167h369v-194
q73 110 179 167.5t233 57.5q169 0 286 -77.5t170 -219.5q70 144 187.5 220.5t263.5 76.5q236 0 368 -147t132 -402z" />
    <glyph glyph-name="uni0272" unicode="&#x272;" horiz-adv-x="1583" 
d="M141 1167h369v-202q76 114 189.5 173.5t250.5 59.5q249 0 387 -146.5t138 -402.5v-649h-367v594q0 149 -73 226t-212 77q-145 0 -229 -90t-84 -244v-477q0 -457 -442 -457q-147 0 -261 52v249q74 -36 166 -36q87 0 127.5 43.5t40.5 134.5v1095z" />
    <glyph glyph-name="uni0275" unicode="&#x275;" horiz-adv-x="1601" 
d="M801 -33q-218 0 -385 77t-258.5 217t-91.5 323q0 275 202.5 444.5t532.5 169.5t532.5 -169.5t202.5 -444.5q0 -183 -91.5 -323t-258.5 -217t-385 -77zM801 246q133 0 222.5 56t123.5 159h-690q32 -103 121.5 -159t222.5 -56zM801 922q-132 0 -222 -58t-124 -162h692
q-33 104 -123.5 162t-222.5 58z" />
    <glyph glyph-name="uni0278" unicode="&#x278;" horiz-adv-x="1929" 
d="M780 -338v305q-321 6 -517.5 176t-196.5 441t196.5 439.5t517.5 174.5v379h367v-379q212 -4 375 -81t252.5 -215.5t89.5 -317.5q0 -271 -198 -441t-519 -176v-305h-367zM438 584q0 -154 91 -244t251 -96v680q-160 -6 -251 -97t-91 -243zM1491 584q0 153 -91.5 243.5
t-252.5 96.5v-680q161 6 252.5 96t91.5 244z" />
    <glyph glyph-name="uni027D" unicode="&#x27d;" horiz-adv-x="1099" 
d="M510 496v-346q0 -118 46 -175t151 -57q81 0 186 33v-279q-124 -43 -275 -43q-240 0 -358.5 126.5t-118.5 365.5v1046h373l-20 -313q115 344 428 344q74 0 149 -16v-318q-116 25 -209 25q-157 0 -254.5 -98t-97.5 -295z" />
    <glyph glyph-name="uni027E" unicode="&#x27e;" horiz-adv-x="880" 
d="M588 1200q153 0 274 -43v-278q-98 32 -184 32q-105 0 -151 -56.5t-46 -174.5v-680h-368v709q0 239 118 365t357 126z" />
    <glyph glyph-name="uni0283" unicode="&#x283;" horiz-adv-x="722" 
d="M815 1610q147 0 305 -49v-265q-124 45 -248 45q-140 0 -207 -58t-67 -183v-944q0 -251 -144.5 -389t-426.5 -138q-137 0 -279 49v275q115 -47 234 -47q134 0 191.5 53.5t57.5 171.5v952q0 250 148.5 388.5t435.5 138.5z" />
    <glyph glyph-name="uni0284" unicode="&#x284;" horiz-adv-x="878" 
d="M780 1610q147 0 305 -49v-275q-127 47 -260 47q-141 0 -201.5 -53.5t-60.5 -171.5v-680h172v-223h-172v-543h-366v543h-152v223h152v655q0 250 148 388.5t435 138.5z" />
    <glyph glyph-name="uni0288" unicode="&#x288;" horiz-adv-x="1116" 
d="M1141 893h-508v-746q0 -118 45.5 -174.5t150.5 -56.5q93 0 187 33v-277q-124 -43 -275 -43q-240 0 -358.5 126.5t-118.5 365.5v772h-239v162l239 84l158 338h211v-310h508v-274z" />
    <glyph glyph-name="uni0289" unicode="&#x289;" horiz-adv-x="1736" 
d="M1513 0h-368v197q-75 -110 -185 -169t-241 -59q-243 0 -378.5 146.5t-135.5 400.5v74h-156v223h156v354h368v-354h572v354h368v-354h183v-223h-183v-590zM844 270q139 0 218.5 84.5t82.5 235.5h-572v-19q0 -147 70 -224t201 -77z" />
    <glyph glyph-name="uni028A" unicode="&#x28a;" horiz-adv-x="1646" 
d="M823 -31q-323 0 -518.5 150t-195.5 401q0 249 217 400h-252v247h626v-188q-118 -60 -178.5 -161t-60.5 -226q0 -155 97 -250.5t265 -95.5q167 0 265 95.5t98 250.5q0 125 -61 226t-179 161v188h627v-247h-252q219 -149 219 -400t-196.5 -401t-520.5 -150z" />
    <glyph glyph-name="uni028B" unicode="&#x28b;" horiz-adv-x="1574" 
d="M1507 731q0 -209 -97.5 -382.5t-277 -276.5t-403.5 -103q-163 0 -283.5 41.5t-194.5 120.5t-109.5 186.5t-35.5 245.5v604h367v-602q0 -144 68 -223.5t207 -79.5q172 0 280.5 117t108.5 297q0 117 -53 182.5t-160 65.5q-82 0 -166 -41v268q135 47 276 47
q230 0 351.5 -120.5t121.5 -346.5z" />
    <glyph glyph-name="uni028C" unicode="&#x28c;" horiz-adv-x="1538" 
d="M8 0l553 1167h416l553 -1167h-406l-358 850l-367 -850h-391z" />
    <glyph glyph-name="uni028E" unicode="&#x28e;" horiz-adv-x="1544" 
d="M1077 1538q119 0 213.5 -29.5t184.5 -91.5v-260q-92 58 -172.5 83.5t-174.5 25.5q-91 0 -154 -39.5t-104 -132.5l-4 -13h158l508 -1081h-406l-360 850l-369 -850h-391l576 1210q156 328 495 328z" />
    <glyph glyph-name="uni0292" unicode="&#x292;" horiz-adv-x="1501" 
d="M121 897v270h1239v-264l-492 -338q147 -5 259.5 -41.5t181 -98t103 -139t34.5 -169.5q0 -218 -186 -353t-525 -135q-324 0 -516.5 147t-204.5 378h351q18 -116 113 -185t257 -69q161 0 250.5 62.5t89.5 170.5q0 102 -84.5 161.5t-269.5 59.5h-234v230l449 313h-815z" />
    <glyph glyph-name="uni0294" unicode="&#x294;" horiz-adv-x="1363" 
d="M487 0v516q0 111 37 181t119 128l195 133q77 54 105 91.5t28 93.5q0 186 -273 186q-154 0 -233 -61t-105 -185h-360q27 249 204 388t498 139q299 0 470 -119.5t171 -337.5q0 -116 -50.5 -206t-168.5 -171l-182 -127q-50 -34 -68 -74t-18 -106v-469h-369z" />
    <glyph glyph-name="uni0295" unicode="&#x295;" horiz-adv-x="1355" 
d="M877 516v-516h-369v469q0 66 -18 106t-68 74l-182 127q-118 81 -169 171t-51 206q0 218 171.5 337.5t470.5 119.5q321 0 498 -139t204 -388h-360q-26 124 -105 185t-233 61q-273 0 -273 -186q0 -56 28 -93.5t105 -91.5l195 -133q82 -58 119 -128t37 -181z" />
    <glyph glyph-name="uni0298" unicode="&#x298;" horiz-adv-x="1921" 
d="M961 -33q-197 0 -362 59.5t-280.5 166t-180 260t-64.5 335.5q0 243 110.5 430t312.5 289.5t464 102.5q261 0 462 -102.5t311.5 -289.5t110.5 -430t-110.5 -430t-311.5 -289t-462 -102zM961 246q237 0 375.5 145.5t138.5 396.5t-138.5 397t-375.5 146
q-238 0 -376.5 -145.5t-138.5 -397.5t138.5 -397t376.5 -145zM961 602q-80 0 -133.5 53.5t-53.5 132.5q0 80 54 133.5t133 53.5q78 0 132 -54t54 -133t-54 -132.5t-132 -53.5z" />
    <glyph glyph-name="uni029D" unicode="&#x29d;" horiz-adv-x="1200" 
d="M461 -371q-217 0 -345 111.5t-128 286.5q0 181 123 290t323 109q83 0 178 -20v768l185 -35l184 35v-918q87 -53 156 -115v-266q-78 78 -166 137q-32 -179 -167 -281t-343 -102zM799 1292q-100 0 -160.5 51t-60.5 136t60.5 135.5t160.5 50.5q99 0 159 -51t60 -135
q0 -85 -60.5 -136t-158.5 -51zM422 -111q91 0 140.5 52.5t49.5 144.5v96q-89 25 -159 25q-99 0 -151 -45t-52 -121q0 -66 45 -109t127 -43z" />
    <glyph glyph-name="uni02A7" unicode="&#x2a7;" horiz-adv-x="1757" 
d="M254 891h-242v164l242 84l160 338h209v-310h645q25 211 171.5 327t407.5 116q150 0 305 -49v-265q-121 45 -247 45q-140 0 -206.5 -58t-66.5 -183v-944q0 -251 -145.5 -389t-429.5 -138q-127 0 -275 41v246q85 -31 166 -31q158 0 237 59t79 210v737h-641v-379
q0 -132 51 -185t178 -53q118 0 235 60v-275q-146 -71 -319 -71q-260 0 -387 125t-127 350v428z" />
    <glyph glyph-name="uni02B0" unicode="&#x2b0;" horiz-adv-x="1267" 
d="M109 573v1231h307v-471q59 87 145 131.5t189 44.5q194 0 301.5 -114.5t107.5 -313.5v-508h-305v463q0 109 -54 167.5t-155 58.5q-106 0 -167.5 -67.5t-61.5 -180.5v-441h-307z" />
    <glyph glyph-name="uni02B1" unicode="&#x2b1;" horiz-adv-x="1267" 
d="M109 573v850q0 207 108 306.5t342 99.5q147 0 262 -41v-221q-102 37 -207 37t-151.5 -47t-46.5 -148v-111q59 87 145.5 132t188.5 45q193 0 301 -115t108 -313v-474h-305v428q0 109 -54 167.5t-155 58.5q-107 0 -168 -67.5t-61 -182.5v-404h-307z" />
    <glyph glyph-name="uni02B2" unicode="&#x2b2;" horiz-adv-x="544" 
d="M119 309v1182h307v-1182h-307zM272 1577q-82 0 -132 42t-50 110q0 70 49.5 110.5t132.5 40.5q81 0 131 -40.5t50 -110.5q0 -67 -50.5 -109.5t-130.5 -42.5z" />
    <glyph glyph-name="uni02B3" unicode="&#x2b3;" horiz-adv-x="782" 
d="M844 1497v-262q-85 18 -164 18q-119 0 -191.5 -73t-72.5 -226v-381h-307v912h307v-205q93 229 313 229q59 0 115 -12z" />
    <glyph glyph-name="uni02B7" unicode="&#x2b7;" horiz-adv-x="1605" 
d="M950 1485l213 -602l207 602h307l-334 -912h-313l-225 625l-232 -625h-313l-330 912h308l204 -600l215 600h293z" />
    <glyph glyph-name="uni02B8" unicode="&#x2b8;" horiz-adv-x="1067" 
d="M375 287q-184 0 -320 96v215q140 -88 277 -88q72 0 120 31.5t78 103.5l2 4h-133l-389 836h338l266 -641l273 641h325l-440 -936q-64 -138 -167.5 -200t-229.5 -62z" />
    <glyph glyph-name="uni02B9" unicode="&#x2b9;" horiz-adv-x="602" 
d="M190 893l-71 643h364l-71 -643h-222z" />
    <glyph glyph-name="uni02BB" unicode="&#x2bb;" horiz-adv-x="522" 
d="M266 1778h180l-118 -199q62 -15 96.5 -54.5t34.5 -97.5q0 -72 -55 -115.5t-148 -43.5q-92 0 -147.5 45t-55.5 119q0 53 23 94t90 125z" />
    <glyph glyph-name="uni02BC" unicode="&#x2bc;" horiz-adv-x="579" 
d="M285 872h-181l134 285q-60 23 -97 76t-37 117q0 86 61.5 146t149.5 60t149.5 -61.5t61.5 -151.5q0 -56 -26.5 -119.5t-91.5 -160.5z" />
    <glyph glyph-name="uni02BE" unicode="&#x2be;" horiz-adv-x="501" 
d="M86 1374v180q164 0 267.5 -88t103.5 -227t-103.5 -227t-267.5 -88v182q80 0 122 34.5t42 98.5q0 65 -42.5 100t-121.5 35z" />
    <glyph glyph-name="uni02BF" unicode="&#x2bf;" horiz-adv-x="501" 
d="M416 1554v-180q-79 0 -121.5 -35t-42.5 -100q0 -64 42 -98.5t122 -34.5v-182q-164 0 -267.5 88t-103.5 227t103.5 227t267.5 88z" />
    <glyph glyph-name="uni02C0" unicode="&#x2c0;" horiz-adv-x="634" 
d="M106 573v400q0 89 29 145t92 101l150 102q58 39 80 68t22 71q0 139 -200 139q-112 0 -171 -45t-77 -139h-301q19 194 158 304t395 110q235 0 370 -94.5t135 -264.5q0 -91 -39.5 -162t-130.5 -134l-143 -103q-36 -26 -49.5 -56t-13.5 -81v-361h-306z" />
    <glyph glyph-name="uni02C1" unicode="&#x2c1;" horiz-adv-x="634" 
d="M530 973v-400h-307v361q0 51 -13.5 81t-49.5 56l-144 103q-91 63 -129.5 133t-38.5 163q0 170 134.5 264.5t369.5 94.5q252 0 393 -108t160 -306h-301q-18 93 -76 138.5t-172 45.5q-198 0 -198 -139q0 -41 21 -70t79 -69l150 -102q63 -42 92.5 -100t29.5 -146z" />
    <glyph glyph-name="circumflex" unicode="&#x2c6;" horiz-adv-x="1079" 
d="M55 1284l293 375h383l293 -375h-297l-188 193l-187 -193h-297z" />
    <glyph glyph-name="caron" unicode="&#x2c7;" horiz-adv-x="1079" 
d="M1024 1659l-293 -375h-383l-293 375h297l189 -193l186 193h297z" />
    <glyph glyph-name="uni02C8" unicode="&#x2c8;" horiz-adv-x="536" 
d="M111 893v643h315v-643h-315z" />
    <glyph glyph-name="uni02C9" unicode="&#x2c9;" horiz-adv-x="1054" 
d="M1024 1343h-961v228h961v-228z" />
    <glyph glyph-name="breve" unicode="&#x2d8;" horiz-adv-x="1060" 
d="M55 1659h277q15 -76 67.5 -119t130.5 -43q80 0 133 43t68 119h275q-28 -183 -151 -285t-325 -102q-200 0 -322.5 101.5t-152.5 285.5z" />
    <glyph glyph-name="dotaccent" unicode="&#x2d9;" horiz-adv-x="616" 
d="M309 1292q-100 0 -160.5 51t-60.5 136t60.5 135.5t160.5 50.5q99 0 159 -51t60 -135q0 -85 -60.5 -136t-158.5 -51z" />
    <glyph glyph-name="ring" unicode="&#x2da;" horiz-adv-x="847" 
d="M424 1264q-170 0 -268.5 73t-98.5 199q0 127 98 199.5t269 72.5q172 0 269.5 -72.5t97.5 -199.5q0 -126 -98 -199t-269 -73zM424 1419q75 0 116.5 30.5t41.5 86.5q0 57 -41.5 88t-116.5 31q-74 0 -115 -31t-41 -88q0 -55 41 -86t115 -31z" />
    <glyph glyph-name="ogonek" unicode="&#x2db;" horiz-adv-x="643" 
d="M410 39l131 -12v-27h47q-248 -71 -248 -147q0 -58 125 -58q71 0 123 12v-202q-30 -11 -90.5 -20t-120.5 -9q-138 0 -222.5 54t-84.5 143q0 178 340 266z" />
    <glyph glyph-name="tilde" unicode="&#x2dc;" horiz-adv-x="1089" 
d="M274 1300h-225q9 172 82.5 268.5t208.5 96.5q49 0 105.5 -17.5t98 -38t87 -38t74.5 -17.5q44 0 72.5 28t37.5 79h225q-8 -169 -80.5 -265t-209.5 -96q-62 0 -134 28t-133.5 55.5t-97.5 27.5q-43 0 -72.5 -29.5t-38.5 -81.5z" />
    <glyph glyph-name="hungarumlaut" unicode="&#x2dd;" horiz-adv-x="1150" 
d="M59 1284l228 375h327l-243 -375h-312zM541 1284l227 375h330l-246 -375h-311z" />
    <glyph glyph-name="uni02E1" unicode="&#x2e1;" horiz-adv-x="524" 
d="M109 573v1231h307v-1231h-307z" />
    <glyph glyph-name="uni02E2" unicode="&#x2e2;" horiz-adv-x="1212" 
d="M1143 868q0 -154 -136 -237.5t-382 -83.5q-251 0 -404.5 92t-161.5 244h312q15 -63 84 -97t182 -34q207 0 207 90q0 36 -39 54.5t-135 25.5l-162 12q-224 17 -323 84t-99 188q0 147 135 225t365 78q225 0 374 -88t164 -229h-311q-12 54 -72 89.5t-170 35.5
q-89 0 -137.5 -23.5t-48.5 -64.5q0 -33 30.5 -50.5t108.5 -23.5l215 -16q219 -18 311.5 -83.5t92.5 -187.5z" />
    <glyph glyph-name="uni02E3" unicode="&#x2e3;" horiz-adv-x="1198" 
d="M360 573h-340l381 463l-356 449h340l217 -266l217 266h336l-367 -445l390 -467h-349l-235 287z" />
    <glyph glyph-name="gravecomb" unicode="&#x300;" horiz-adv-x="729" 
d="M418 1659l254 -375h-344l-271 375h361z" />
    <glyph glyph-name="acutecomb" unicode="&#x301;" horiz-adv-x="729" 
d="M57 1284l254 375h361l-271 -375h-344z" />
    <glyph glyph-name="uni0302" unicode="&#x302;" horiz-adv-x="1079" 
d="M55 1284l293 375h383l293 -375h-297l-188 193l-187 -193h-297z" />
    <glyph glyph-name="tildecomb" unicode="&#x303;" horiz-adv-x="1089" 
d="M274 1300h-225q9 172 82.5 268.5t208.5 96.5q49 0 105.5 -17.5t98 -38t87 -38t74.5 -17.5q44 0 72.5 28t37.5 79h225q-8 -169 -80.5 -265t-209.5 -96q-62 0 -134 28t-133.5 55.5t-97.5 27.5q-43 0 -72.5 -29.5t-38.5 -81.5z" />
    <glyph glyph-name="uni0304" unicode="&#x304;" horiz-adv-x="1085" 
d="M1024 1343h-961v228h961v-228z" />
    <glyph glyph-name="uni0306" unicode="&#x306;" horiz-adv-x="1060" 
d="M55 1659h277q15 -76 67.5 -119t130.5 -43q80 0 133 43t68 119h275q-28 -183 -151 -285t-325 -102q-200 0 -322.5 101.5t-152.5 285.5z" />
    <glyph glyph-name="uni0307" unicode="&#x307;" horiz-adv-x="616" 
d="M309 1292q-100 0 -160.5 51t-60.5 136t60.5 135.5t160.5 50.5q99 0 159 -51t60 -135q0 -85 -60.5 -136t-158.5 -51z" />
    <glyph glyph-name="uni0308" unicode="&#x308;" horiz-adv-x="1183" 
d="M285 1292q-95 0 -151 48.5t-56 132.5q0 79 56.5 126.5t150.5 47.5t150.5 -47.5t56.5 -126.5q0 -84 -56 -132.5t-151 -48.5zM901 1292q-95 0 -151 48.5t-56 132.5q0 79 56.5 126.5t150.5 47.5q93 0 150 -47.5t57 -126.5q0 -84 -57 -132.5t-150 -48.5z" />
    <glyph glyph-name="hookabovecomb" unicode="&#x309;" horiz-adv-x="667" 
d="M260 1255l-70 107q125 42 125 106q0 68 -122 68q-69 0 -138 -16v202q106 29 228 29q155 0 242 -56.5t87 -156.5q0 -205 -352 -283z" />
    <glyph glyph-name="uni030A" unicode="&#x30a;" horiz-adv-x="847" 
d="M424 1264q-170 0 -268.5 73t-98.5 199q0 127 98 199.5t269 72.5q172 0 269.5 -72.5t97.5 -199.5q0 -126 -98 -199t-269 -73zM424 1419q75 0 116.5 30.5t41.5 86.5q0 57 -41.5 88t-116.5 31q-74 0 -115 -31t-41 -88q0 -55 41 -86t115 -31z" />
    <glyph glyph-name="uni030B" unicode="&#x30b;" horiz-adv-x="1150" 
d="M57 1284l228 375h327l-243 -375h-312zM539 1284l227 375h330l-246 -375h-311z" />
    <glyph glyph-name="uni030C" unicode="&#x30c;" horiz-adv-x="1079" 
d="M1024 1659l-293 -375h-383l-293 375h297l189 -193l186 193h297z" />
    <glyph glyph-name="uni030D" unicode="&#x30d;" horiz-adv-x="567" 
d="M137 1284v416h293v-416h-293z" />
    <glyph glyph-name="uni030F" unicode="&#x30f;" horiz-adv-x="1148" 
d="M864 1659l228 -375h-312l-243 375h327zM383 1659l227 -375h-311l-246 375h330z" />
    <glyph glyph-name="uni0311" unicode="&#x311;" horiz-adv-x="1060" 
d="M1006 1284h-277q-15 76 -68 119t-131 43q-79 0 -132 -42.5t-68 -119.5h-275q28 184 150.5 285.5t324.5 101.5q200 0 323 -102t153 -285z" />
    <glyph glyph-name="uni0312" unicode="&#x312;" horiz-adv-x="559" 
d="M289 1780h180l-119 -197q61 -15 96 -55t35 -96q0 -72 -55 -116t-147 -44t-147.5 45t-55.5 117q0 51 22 91t90 128z" />
    <glyph glyph-name="uni0313" unicode="&#x313;" horiz-adv-x="550" 
d="M264 1284h-180l119 197q-61 15 -96 55t-35 96q0 72 55 116t147 44t147.5 -45t55.5 -117q0 -51 -22 -91t-90 -128z" />
    <glyph glyph-name="uni0315" unicode="&#x315;" horiz-adv-x="557" 
d="M264 1284h-180l119 197q-61 15 -96 55t-35 96q0 72 55 116t147 44t147.5 -45t55.5 -117q0 -51 -22 -91t-90 -128z" />
    <glyph glyph-name="uni031B" unicode="&#x31b;" horiz-adv-x="538" 
d="M483 1227q0 -128 -105 -201.5t-288 -73.5h-35v205h6q61 0 97.5 32t36.5 85q0 71 -56 151h281q63 -97 63 -198z" />
    <glyph glyph-name="uni0320" unicode="&#x320;" horiz-adv-x="1054" 
d="M1024 -362h-961v227h961v-227z" />
    <glyph glyph-name="dotbelowcomb" unicode="&#x323;" horiz-adv-x="616" 
d="M309 -479q-100 0 -160.5 50.5t-60.5 135.5t60.5 136t160.5 51q98 0 158.5 -51t60.5 -136q0 -84 -60 -135t-159 -51z" />
    <glyph glyph-name="uni0324" unicode="&#x324;" horiz-adv-x="1183" 
d="M285 -461q-95 0 -151 48t-56 132q0 79 56.5 127t150.5 48t150.5 -48t56.5 -127q0 -84 -56 -132t-151 -48zM901 -461q-95 0 -151 48t-56 132q0 79 56.5 127t150.5 48q93 0 150 -48t57 -127q0 -84 -56.5 -132t-150.5 -48z" />
    <glyph glyph-name="uni0325" unicode="&#x325;" horiz-adv-x="847" 
d="M424 -631q-170 0 -268.5 73.5t-98.5 199.5q0 127 98 199.5t269 72.5q172 0 269.5 -72.5t97.5 -199.5q0 -126 -98 -199.5t-269 -73.5zM424 -475q75 0 116.5 30.5t41.5 86.5q0 57 -41.5 87.5t-116.5 30.5q-74 0 -115 -30.5t-41 -87.5q0 -55 41 -86t115 -31z" />
    <glyph glyph-name="uni0326" unicode="&#x326;" horiz-adv-x="540" 
d="M260 -600h-180l119 197q-61 15 -96 55t-35 96q0 72 55 116t147 44t147.5 -45t55.5 -117q0 -50 -22 -90t-91 -129z" />
    <glyph glyph-name="uni0327" unicode="&#x327;" horiz-adv-x="862" 
d="M164 -227l166 256h188l-80 -125q48 10 97 10q133 0 202.5 -51.5t69.5 -145.5q0 -97 -94 -159t-262 -62q-152 0 -258.5 59.5t-137.5 157.5h228q43 -61 168 -61q66 0 100.5 19.5t34.5 54.5q0 32 -29 51.5t-88 19.5q-55 0 -113 -24h-192z" />
    <glyph glyph-name="uni0328" unicode="&#x328;" horiz-adv-x="643" 
d="M410 39l131 -12v-27h47q-248 -71 -248 -147q0 -58 125 -58q71 0 123 12v-202q-30 -11 -90.5 -20t-120.5 -9q-138 0 -222.5 54t-84.5 143q0 178 340 266z" />
    <glyph glyph-name="uni0329" unicode="&#x329;" horiz-adv-x="567" 
d="M137 -502v416h293v-416h-293z" />
    <glyph glyph-name="uni032D" unicode="&#x32d;" horiz-adv-x="1079" 
d="M55 -461l293 375h383l293 -375h-297l-188 193l-187 -193h-297z" />
    <glyph glyph-name="uni032E" unicode="&#x32e;" horiz-adv-x="1046" 
d="M55 -86h277q15 -76 67.5 -119t130.5 -43q80 0 133 43t68 119h275q-28 -183 -151 -285t-325 -102q-200 0 -322.5 101.5t-152.5 285.5z" />
    <glyph glyph-name="uni032F" unicode="&#x32f;" horiz-adv-x="1060" 
d="M1006 -473h-277q-15 76 -68 119t-131 43q-79 0 -132 -42.5t-68 -119.5h-275q28 184 150.5 285.5t324.5 101.5q200 0 323 -102t153 -285z" />
    <glyph glyph-name="uni0330" unicode="&#x330;" horiz-adv-x="1089" 
d="M274 -444h-225q9 172 82.5 268t208.5 96q62 0 134 -27.5t133.5 -55t97.5 -27.5q91 0 110 106h225q-8 -169 -80.5 -264.5t-209.5 -95.5q-62 0 -134 27.5t-133.5 55t-97.5 27.5q-43 0 -72.5 -29t-38.5 -81z" />
    <glyph glyph-name="uni0331" unicode="&#x331;" horiz-adv-x="1054" 
d="M1024 -362h-961v227h961v-227z" />
    <glyph glyph-name="uni0332" unicode="&#x332;" horiz-adv-x="1089" 
d="M-8 -541v248h1106v-248h-1106z" />
    <glyph glyph-name="uni0335" unicode="&#x335;" horiz-adv-x="993" 
d="M59 481v224h875v-224h-875z" />
    <glyph glyph-name="uni035C" unicode="&#x35c;" horiz-adv-x="1816" 
d="M907 -530q-354 0 -588 114.5t-319 306.5h305q67 -78 219.5 -127t382.5 -49q231 0 384 49t220 127h306q-85 -192 -320 -306.5t-590 -114.5z" />
    <glyph glyph-name="uni035D" unicode="&#x35d;" horiz-adv-x="1816" 
d="M907 1272q-353 0 -587.5 115t-319.5 307h305q67 -78 219.5 -127t382.5 -49q231 0 384 49t220 127h306q-85 -192 -320 -307t-590 -115z" />
    <glyph glyph-name="uni0361" unicode="&#x361;" horiz-adv-x="1816" 
d="M907 1706q355 0 590 -115t320 -307h-306q-67 78 -220 127t-384 49q-230 0 -382.5 -49t-219.5 -127h-305q85 192 319.5 307t587.5 115z" />
    <glyph glyph-name="Beta" unicode="&#x392;" horiz-adv-x="1783" 
d="M1374 807q169 -37 253.5 -136t84.5 -243q0 -192 -133 -310t-379 -118h-1096v1536h1057q212 0 330.5 -99.5t118.5 -273.5q0 -113 -57.5 -207.5t-178.5 -148.5zM473 657v-387h643q102 0 160.5 49.5t58.5 139.5q0 93 -66.5 145.5t-191.5 52.5h-604zM473 1266v-346h557
q90 0 146.5 50t56.5 136q0 72 -51 116t-140 44h-569z" />
    <glyph glyph-name="Epsilon" unicode="&#x395;" horiz-adv-x="1605" 
d="M479 627v-320h1024v-307h-1399v1536h1389v-307h-1014v-320h957v-282h-957z" />
    <glyph glyph-name="Theta" unicode="&#x398;" horiz-adv-x="1964" 
d="M983 -33q-268 0 -473 100t-317.5 282t-112.5 419t112.5 419t317.5 282t473 100q267 0 471.5 -100t317 -282t112.5 -419t-112.5 -419t-317 -282t-471.5 -100zM594 625v286h778v-286h-778zM983 287q245 0 389 129.5t144 351.5t-144 351.5t-389 129.5q-246 0 -389 -129
t-143 -352t143 -352t389 -129z" />
    <glyph glyph-name="Lambda" unicode="&#x39b;" horiz-adv-x="1880" 
d="M946 1188l-538 -1188h-402l723 1536h422l723 -1536h-395z" />
    <glyph glyph-name="uni03A9" unicode="&#x3a9;" horiz-adv-x="2021" 
d="M1012 1569q263 0 467 -96.5t315 -267.5t111 -388q0 -345 -287 -536h309v-281h-805v256q191 41 298.5 173t107.5 319q0 217 -134.5 353t-381.5 136q-248 0 -383 -136t-135 -353q0 -187 107 -319t300 -173v-256h-807v281h309q-286 190 -286 536q0 217 111 388t315.5 267.5
t468.5 96.5z" />
    <glyph glyph-name="beta" unicode="&#x3b2;" horiz-adv-x="1736" 
d="M487 -338h-364v1274q0 308 203 491t557 183q282 0 458.5 -109.5t176.5 -290.5q0 -124 -85.5 -216t-240.5 -136q235 -25 360 -133.5t125 -286.5q0 -211 -180.5 -341t-474.5 -130q-368 0 -535 205v-510zM487 664q0 -216 122.5 -323.5t346.5 -107.5q161 0 255 61.5t94 166.5
q0 102 -83 162.5t-249 60.5h-182v248h104q125 0 195.5 51.5t70.5 138.5q0 99 -82.5 155t-222.5 56q-173 0 -271 -97.5t-98 -266.5v-305z" />
    <glyph glyph-name="epsilon" unicode="&#x3b5;" horiz-adv-x="1478" 
d="M100 866q0 150 161.5 241t475.5 91q303 0 477 -114.5t187 -290.5h-357q-17 66 -91 108.5t-210 42.5q-138 0 -204 -35t-66 -90q0 -119 248 -119h240v-211h-240q-154 0 -216.5 -29.5t-62.5 -92.5q0 -144 310 -144q160 0 238 41t91 119h361q-4 -68 -33.5 -129t-87 -113.5
t-138.5 -91t-195 -60.5t-249 -22q-168 0 -298.5 29t-210 80t-120 116.5t-40.5 141.5q0 107 74.5 174t242.5 94q-153 33 -220 103t-67 161z" />
    <glyph glyph-name="theta" unicode="&#x3b8;" horiz-adv-x="1703" 
d="M852 -33q-181 0 -326.5 59.5t-243 167.5t-150 260t-52.5 337q0 245 90 429t265.5 287t416.5 103q242 0 418 -103t266 -287t90 -429q0 -247 -90 -432.5t-266 -288.5t-418 -103zM852 242q356 0 403 411h-806q50 -411 403 -411zM852 1335q-356 0 -403 -411h806
q-23 206 -122.5 308.5t-280.5 102.5z" />
    <glyph glyph-name="lambda" unicode="&#x3bb;" horiz-adv-x="1546" 
d="M393 0h-393l608 1174q-46 84 -102.5 119.5t-145.5 35.5q-141 0 -297 -96v264q165 113 357 113q159 0 276.5 -73.5t202.5 -242.5l645 -1294h-397l-373 809z" />
    <glyph glyph-name="omega" unicode="&#x3c9;" horiz-adv-x="2113" 
d="M903 526v260h307v-260q0 -137 60 -204.5t164 -67.5q118 0 186 76.5t68 222.5q0 149 -80 240.5t-224 115.5v289q209 -13 360 -103.5t225.5 -233t74.5 -322.5q0 -268 -151 -420t-396 -152q-161 0 -275 76.5t-165 222.5q-51 -146 -164.5 -222.5t-274.5 -76.5
q-245 0 -396.5 152t-151.5 420q0 180 74.5 322.5t225 233t359.5 103.5v-289q-144 -24 -223.5 -115.5t-79.5 -240.5q0 -146 68 -222.5t186 -76.5q104 0 163.5 67t59.5 205z" />
    <glyph glyph-name="uni0400" unicode="&#x400;" horiz-adv-x="1605" 
d="M479 627v-320h1024v-307h-1399v1536h1389v-307h-1014v-320h957v-282h-957zM715 1989l301 -336h-373l-350 336h422z" />
    <glyph glyph-name="uni0401" unicode="&#x401;" horiz-adv-x="1605" 
d="M479 627v-320h1024v-307h-1399v1536h1389v-307h-1014v-320h957v-282h-957zM498 1663q-94 0 -150.5 47.5t-56.5 130.5q0 81 56.5 128.5t150.5 47.5t150.5 -47.5t56.5 -128.5q0 -83 -56.5 -130.5t-150.5 -47.5zM1122 1663q-94 0 -150.5 47.5t-56.5 130.5q0 81 56.5 128.5
t150.5 47.5t150.5 -47.5t56.5 -128.5q0 -83 -56.5 -130.5t-150.5 -47.5z" />
    <glyph glyph-name="uni0402" unicode="&#x402;" horiz-adv-x="2168" 
d="M33 1536h1720v-295h-809v-375q242 97 504 97q318 0 492 -130.5t174 -369.5q0 -233 -161.5 -360.5t-459.5 -127.5q-167 0 -342 45v271q174 -47 303 -47q138 0 212.5 55t74.5 158q0 106 -88.5 161.5t-259.5 55.5q-214 0 -449 -84v-590h-375v1241h-536v295z" />
    <glyph glyph-name="uni0403" unicode="&#x403;" horiz-adv-x="1325" 
d="M152 1536h1136v-332h-762v-1204h-374v1536zM496 1653l301 336h422l-351 -336h-372z" />
    <glyph glyph-name="uni0404" unicode="&#x404;" horiz-adv-x="1910" 
d="M1233 643h-770q37 -172 171.5 -268t342.5 -96q206 0 338 88.5t164 244.5h370q-26 -190 -143 -336.5t-307 -227.5t-424 -81q-266 0 -469 100t-313.5 282t-110.5 419t110.5 419t313.5 282t469 100q234 0 424 -81t307 -227.5t143 -336.5h-370q-34 156 -166 244.5t-336 88.5
q-208 0 -342.5 -96t-171.5 -268h770v-250z" />
    <glyph glyph-name="uni0405" unicode="&#x405;" horiz-adv-x="1699" 
d="M76 502h379q15 -111 128.5 -176.5t293.5 -65.5q175 0 273.5 48.5t98.5 137.5q0 71 -59 107t-213 53l-299 33q-303 30 -441.5 139t-138.5 307q0 151 90 260.5t254 166.5t385 57q325 0 535 -138.5t225 -363.5h-381q-12 96 -114.5 152.5t-272.5 56.5q-159 0 -251.5 -46.5
t-92.5 -129.5q0 -66 56 -101.5t196 -52.5l317 -35q319 -34 450.5 -131t131.5 -293q0 -235 -207.5 -377.5t-548.5 -142.5q-349 0 -567 147.5t-227 387.5z" />
    <glyph glyph-name="uni0406" unicode="&#x406;" horiz-adv-x="677" 
d="M152 0v1536h374v-1536h-374z" />
    <glyph glyph-name="uni0407" unicode="&#x407;" horiz-adv-x="677" 
d="M152 0v1536h374v-1536h-374zM121 1663q-82 0 -128 47t-46 131q0 82 46 129t128 47t128 -47t46 -129q0 -84 -46 -131t-128 -47zM555 1663q-80 0 -126 47t-46 131q0 82 46 129t126 47q82 0 128 -47t46 -129q0 -84 -46 -131t-128 -47z" />
    <glyph glyph-name="uni0408" unicode="&#x408;" 
d="M43 664l-2 86h367v-58q0 -198 85 -298.5t271 -100.5q360 0 360 371v872h375v-889q0 -320 -200.5 -500t-534.5 -180q-329 0 -525 185t-196 512z" />
    <glyph glyph-name="uni0409" unicode="&#x409;" horiz-adv-x="2969" 
d="M410 1536h1450v-506h460q279 0 442 -140.5t163 -375.5q0 -233 -163 -373.5t-442 -140.5h-833v1206h-701q19 -233 19 -403q0 -439 -119 -636.5t-383 -197.5q-154 0 -276 64v311q87 -35 163 -35q140 0 201.5 128t61.5 419q0 277 -43 680zM1860 735v-438h438q116 0 183 58.5
t67 158.5q0 103 -66.5 162t-183.5 59h-438z" />
    <glyph glyph-name="uni040A" unicode="&#x40a;" horiz-adv-x="2842" 
d="M526 0h-374v1536h374v-594h834v594h373v-506h458q280 0 443.5 -140.5t163.5 -375.5q0 -233 -164 -373.5t-443 -140.5h-831v614h-834v-614zM1733 735v-438h438q115 0 182.5 58.5t67.5 158.5q0 103 -67 162t-183 59h-438z" />
    <glyph glyph-name="uni040B" unicode="&#x40b;" horiz-adv-x="2179" 
d="M2097 0h-373v315q0 326 -362 326q-197 0 -418 -82v-559h-375v1241h-536v295h1720v-295h-809v-393q239 96 504 96q317 0 483 -153t166 -445v-346z" />
    <glyph glyph-name="uni040C" unicode="&#x40c;" horiz-adv-x="1755" 
d="M524 0h-372v1536h372v-594h361l499 594h418l-631 -731l654 -805h-447l-489 614h-365v-614zM694 1653l301 336h422l-350 -336h-373z" />
    <glyph glyph-name="uni040D" unicode="&#x40d;" horiz-adv-x="1986" 
d="M627 0h-475v1536h368v-1167l828 1167h487v-1536h-367v1188zM895 1989l301 -336h-373l-350 336h422z" />
    <glyph glyph-name="uni040E" unicode="&#x40e;" horiz-adv-x="1812" 
d="M918 0h-404l195 338l-695 1198h412l489 -848l488 848h403zM401 1995h297q51 -144 203 -144t203 144h297q-42 -179 -172.5 -268t-327.5 -89t-327.5 89t-172.5 268z" />
    <glyph glyph-name="uni040F" unicode="&#x40f;" horiz-adv-x="1884" 
d="M1122 -311h-358v311h-612v1536h374v-1206h834v1206h373v-1536h-611v-311z" />
    <glyph glyph-name="uni0410" unicode="&#x410;" horiz-adv-x="1921" 
d="M719 1536h483l713 -1536h-399l-140 315h-831l-139 -315h-400zM678 616h563l-280 633z" />
    <glyph glyph-name="uni0411" unicode="&#x411;" horiz-adv-x="1701" 
d="M475 942h606q272 0 414.5 -127t142.5 -346q0 -214 -149.5 -341.5t-407.5 -127.5h-977v1536h1414v-291h-1041zM475 680l-2 -401h563q106 0 168 53.5t62 146.5q0 92 -62.5 146.5t-169.5 54.5h-559z" />
    <glyph glyph-name="uni0412" unicode="&#x412;" horiz-adv-x="1783" 
d="M1374 807q169 -37 253.5 -136t84.5 -243q0 -192 -133 -310t-379 -118h-1096v1536h1057q212 0 330.5 -99.5t118.5 -273.5q0 -113 -57.5 -207.5t-178.5 -148.5zM473 657v-387h643q102 0 160.5 49.5t58.5 139.5q0 93 -66.5 145.5t-191.5 52.5h-604zM473 1266v-346h557
q90 0 146.5 50t56.5 136q0 72 -51 116t-140 44h-569z" />
    <glyph glyph-name="uni0413" unicode="&#x413;" horiz-adv-x="1325" 
d="M152 1536h1136v-332h-762v-1204h-374v1536z" />
    <glyph glyph-name="uni0414" unicode="&#x414;" horiz-adv-x="2146" 
d="M385 -311h-350v641h194q162 191 162 702q0 197 -31 504h1461v-1206h268v-641h-350v311h-1354v-311zM737 956q0 -441 -127 -630h838v884h-719q8 -120 8 -254z" />
    <glyph glyph-name="uni0415" unicode="&#x415;" horiz-adv-x="1605" 
d="M479 627v-320h1024v-307h-1399v1536h1389v-307h-1014v-320h957v-282h-957z" />
    <glyph glyph-name="uni0416" unicode="&#x416;" horiz-adv-x="2934" 
d="M420 1536l502 -594h360v594h371v-594h362l500 594h418l-631 -731l651 -805h-444l-490 614h-366v-614h-371v614h-367l-489 -614h-444l651 805l-629 731h416z" />
    <glyph glyph-name="uni0417" unicode="&#x417;" horiz-adv-x="1710" 
d="M856 -33q-360 0 -576.5 148t-228.5 401h373q17 -125 127 -191.5t305 -66.5q187 0 287 53.5t100 157.5q0 91 -86 133.5t-276 42.5h-291v250h284q162 0 246 50.5t84 135.5q0 94 -92 145.5t-254 51.5q-177 0 -280.5 -63.5t-122.5 -180.5h-371q8 112 64 209t154.5 170
t245.5 114.5t326 41.5q212 0 374 -54.5t249.5 -152t87.5 -223.5q0 -125 -83 -219.5t-247 -135.5q177 -30 273 -116.5t96 -225.5q0 -215 -203 -345t-565 -130z" />
    <glyph glyph-name="uni0418" unicode="&#x418;" horiz-adv-x="1986" 
d="M627 0h-475v1536h368v-1167l828 1167h487v-1536h-367v1188z" />
    <glyph glyph-name="uni0419" unicode="&#x419;" horiz-adv-x="1986" 
d="M627 0h-475v1536h368v-1167l828 1167h487v-1536h-367v1188zM487 1995h297q51 -144 203 -144t203 144h297q-42 -179 -172.5 -268t-327.5 -89t-327.5 89t-172.5 268z" />
    <glyph glyph-name="uni041A" unicode="&#x41a;" horiz-adv-x="1755" 
d="M524 0h-372v1536h372v-594h361l499 594h418l-631 -731l654 -805h-447l-489 614h-365v-614z" />
    <glyph glyph-name="uni041B" unicode="&#x41b;" horiz-adv-x="2029" 
d="M410 1536h1466v-1536h-373v1206h-715q17 -208 17 -403q0 -439 -119 -636.5t-383 -197.5q-154 0 -276 64v311q87 -35 163 -35q140 0 201.5 128t61.5 419q0 277 -43 680z" />
    <glyph glyph-name="uni041C" unicode="&#x41c;" horiz-adv-x="2490" 
d="M1763 1536h576v-1536h-357v1204l-546 -1204h-381l-547 1200v-1200h-356v1536h575l520 -1178z" />
    <glyph glyph-name="uni041D" unicode="&#x41d;" horiz-adv-x="1900" 
d="M152 0v1536h374v-594h850v594h373v-1536h-373v614h-850v-614h-374z" />
    <glyph glyph-name="uni041E" unicode="&#x41e;" horiz-adv-x="1964" 
d="M983 -33q-268 0 -473 100t-317.5 282t-112.5 419t112.5 419t317.5 282t473 100q267 0 471.5 -100t317 -282t112.5 -419t-112.5 -419t-317 -282t-471.5 -100zM983 301q242 0 383 126t141 341t-141 341t-383 126q-243 0 -383.5 -125.5t-140.5 -341.5t140.5 -341.5
t383.5 -125.5z" />
    <glyph glyph-name="uni041F" unicode="&#x41f;" horiz-adv-x="1892" 
d="M152 1536h1589v-1536h-373v1206h-842v-1206h-374v1536z" />
    </font>
</defs>
</svg>
